<svg width="48" height="48" viewBox="0 0 48 48" fill="none" xmlns="http://www.w3.org/2000/svg">
<rect width="48" height="48" fill="#0170FF" fill-opacity="0.3"/>
<path d="M33.0411 25.28L32.1211 24.38L24.3711 32.12L25.3011 33.05C26.0811 33.83 26.8911 34.22 27.6911 34.22C28.4911 34.22 29.3011 33.83 30.0811 33.05L33.0411 30.09C34.6311 28.49 34.6311 26.88 33.0411 25.28Z" fill="#0170FF"/>
<path d="M22.6917 14.93C21.1217 13.36 19.4717 13.36 17.9017 14.93L14.9317 17.89C13.3717 19.46 13.3717 21.11 14.9317 22.68L15.8517 23.6L23.6017 15.85L22.6917 14.93Z" fill="#0170FF"/>
<path opacity="0.4" d="M33.8098 15.94C32.4998 19.21 29.5098 23.48 26.6598 26.27C26.2498 23.69 24.1898 21.67 21.5898 21.31C24.3898 18.45 28.6898 15.42 31.9698 14.1C32.5498 13.88 33.1298 14.05 33.4898 14.41C33.8698 14.79 34.0498 15.36 33.8098 15.94Z" fill="#0170FF"/>
<path d="M26.6595 26.27C26.1595 26.76 25.6595 27.21 25.1795 27.59L23.2095 29.17C22.9595 29.35 22.7095 29.5 22.4295 29.62C22.4295 29.43 22.4095 29.24 22.3895 29.04C22.2795 28.21 21.8995 27.42 21.2295 26.75C20.5395 26.07 19.7195 25.68 18.8695 25.57C18.6695 25.55 18.4595 25.54 18.2695 25.55C18.3795 25.24 18.5495 24.95 18.7595 24.71L20.3195 22.74C20.6895 22.27 21.1195 21.79 21.5895 21.31C24.1895 21.67 26.2495 23.69 26.6595 26.27Z" fill="#0170FF"/>
<path opacity="0.4" d="M22.4298 29.62C22.4298 30.72 22.0098 31.77 21.2098 32.56C20.5998 33.18 19.7798 33.6 18.7798 33.72L16.3298 33.99C14.9898 34.14 13.8398 32.99 13.9898 31.64L14.2598 29.18C14.4998 26.99 16.3298 25.59 18.2698 25.55C18.4598 25.54 18.6698 25.55 18.8698 25.57C19.7198 25.68 20.5398 26.07 21.2298 26.75C21.8998 27.42 22.2798 28.21 22.3898 29.04C22.4098 29.24 22.4298 29.43 22.4298 29.62Z" fill="#0170FF"/>
</svg>
