<svg width="48" height="48" viewBox="0 0 48 48" fill="none" xmlns="http://www.w3.org/2000/svg">
<rect width="48" height="48" fill="#FE6257" fill-opacity="0.3"/>
<path d="M27.8406 34H20.1606C15.9706 34 15.1406 31.47 16.5006 28.39L17.9406 25.12C17.9406 25.12 21.0006 25 24.0006 26C27.0006 27 29.8306 25.11 29.8306 25.11L30.0206 24.99L31.5106 28.4C32.8506 31.48 31.9706 34 27.8406 34Z" fill="#FE6257"/>
<path opacity="0.4" d="M30.0214 24.99L29.8314 25.11C29.8314 25.11 27.0014 27 24.0014 26C21.0014 25 17.9414 25.12 17.9414 25.12L20.7414 18.74H20.4414C19.7914 18.74 19.1914 18.48 18.7614 18.05C18.3314 17.62 18.0714 17.02 18.0714 16.37C18.0714 15.07 19.1314 14 20.4414 14H27.5514C28.2114 14 28.8014 14.27 29.2314 14.7C29.7914 15.26 30.0814 16.08 29.8614 16.95C29.6014 18.03 28.5614 18.74 27.4414 18.74H27.2814L30.0214 24.99Z" fill="#FE6257"/>
</svg>
