<svg width="48" height="48" viewBox="0 0 48 48" fill="none" xmlns="http://www.w3.org/2000/svg">
<rect width="48" height="48" fill="#FFA200" fill-opacity="0.3"/>
<path opacity="0.4" d="M33.0409 19.19L24.0009 24.42L14.9609 19.19C15.3609 18.45 15.9409 17.8 16.5909 17.44L21.9309 14.48C23.0709 13.84 24.9309 13.84 26.0709 14.48L31.4109 17.44C32.0609 17.8 32.6409 18.45 33.0409 19.19Z" fill="#FFA200"/>
<path opacity="0.6" d="M24.0006 24.42V34C23.2506 34 22.5006 33.84 21.9306 33.52L16.5906 30.56C15.3806 29.89 14.3906 28.21 14.3906 26.83V21.17C14.3906 20.53 14.6106 19.83 14.9606 19.19L24.0006 24.42Z" fill="#FFA200"/>
<path d="M33.61 21.17V26.83C33.61 28.21 32.62 29.89 31.41 30.56L26.07 33.52C25.5 33.84 24.75 34 24 34V24.42L33.04 19.19C33.39 19.83 33.61 20.53 33.61 21.17Z" fill="#FFA200"/>
</svg>
