<svg width="48" height="48" viewBox="0 0 48 48" fill="none" xmlns="http://www.w3.org/2000/svg">
<rect width="48" height="48" fill="#3FCD82" fill-opacity="0.3"/>
<path opacity="0.4" d="M24 17.3V33.33C23.83 33.33 23.65 33.3 23.51 33.22L23.47 33.2C21.55 32.15 18.2 31.05 16.03 30.76L15.74 30.72C14.78 30.6 14 29.7 14 28.74V16.66C14 15.47 14.97 14.57 16.16 14.67C18.26 14.84 21.44 15.9 23.22 17.01L23.47 17.16C23.62 17.25 23.81 17.3 24 17.3Z" fill="#3FCD82"/>
<path d="M34 16.67V28.74C34 29.7 33.22 30.6 32.26 30.72L31.93 30.76C29.75 31.05 26.39 32.16 24.47 33.22C24.34 33.3 24.18 33.33 24 33.33V17.3C24.19 17.3 24.38 17.25 24.53 17.16L24.7 17.05C26.48 15.93 29.67 14.86 31.77 14.68H31.83C33.02 14.58 34 15.47 34 16.67Z" fill="#3FCD82"/>
<path d="M19.75 21.24H17.5C17.09 21.24 16.75 20.9 16.75 20.49C16.75 20.08 17.09 19.74 17.5 19.74H19.75C20.16 19.74 20.5 20.08 20.5 20.49C20.5 20.9 20.16 21.24 19.75 21.24Z" fill="#3FCD82"/>
<path d="M20.5 24.24H17.5C17.09 24.24 16.75 23.9 16.75 23.49C16.75 23.08 17.09 22.74 17.5 22.74H20.5C20.91 22.74 21.25 23.08 21.25 23.49C21.25 23.9 20.91 24.24 20.5 24.24Z" fill="#3FCD82"/>
</svg>
