<svg width="48" height="48" viewBox="0 0 48 48" fill="none" xmlns="http://www.w3.org/2000/svg">
<rect width="48" height="48" fill="#0E2145" fill-opacity="0.3"/>
<path opacity="0.4" d="M28.19 14H19.82C16.17 14 14 16.17 14 19.81V28.18C14 31.82 16.17 33.99 19.81 33.99H28.18C31.82 33.99 33.99 31.82 33.99 28.18V19.81C34 16.17 31.83 14 28.19 14Z" fill="#0E2145"/>
<path d="M28.1904 14C28.2103 14 28.2302 14.0008 28.25 14.001V24.4199C28.25 25.0598 28.0604 25.5404 27.7305 25.7305C27.3905 25.9305 26.85 25.8297 26.25 25.4697L24.9297 24.6797C24.4198 24.37 23.5802 24.37 23.0703 24.6797L21.75 25.4697C21.15 25.8297 20.6095 25.9205 20.2695 25.7305C19.9396 25.5404 19.75 25.0598 19.75 24.4199V14.001C19.7733 14.0008 19.7969 14 19.8203 14H28.1904Z" fill="#0E2145"/>
</svg>
