<svg width="154" height="53" viewBox="0 0 154 53" fill="none" xmlns="http://www.w3.org/2000/svg">
<rect x="16" width="138" height="53" rx="26.5" fill="#121F3E"/>
<path d="M38.7785 24.7464C38.7387 24.3454 38.568 24.0339 38.2664 23.8118C37.9648 23.5897 37.5555 23.4787 37.0384 23.4787C36.6871 23.4787 36.3905 23.5284 36.1485 23.6278C35.9066 23.724 35.721 23.8582 35.5917 24.0305C35.4658 24.2029 35.4028 24.3984 35.4028 24.6172C35.3962 24.7995 35.4343 24.9586 35.5171 25.0945C35.6033 25.2304 35.721 25.348 35.8701 25.4474C36.0193 25.5436 36.1916 25.6281 36.3872 25.701C36.5827 25.7706 36.7915 25.8303 37.0136 25.88L37.9284 26.0987C38.3725 26.1982 38.7802 26.3307 39.1514 26.4964C39.5226 26.6622 39.8441 26.866 40.1159 27.108C40.3876 27.3499 40.5981 27.6349 40.7472 27.9631C40.8997 28.2912 40.9776 28.6674 40.9809 29.0916C40.9776 29.7147 40.8185 30.255 40.5036 30.7124C40.1921 31.1664 39.7413 31.5194 39.1514 31.7713C38.5647 32.0199 37.8571 32.1442 37.0285 32.1442C36.2065 32.1442 35.4906 32.0182 34.8808 31.7663C34.2742 31.5144 33.8003 31.1416 33.4589 30.6477C33.1208 30.1506 32.9435 29.5357 32.9269 28.8033H35.01C35.0332 29.1446 35.131 29.4297 35.3034 29.6584C35.479 29.8838 35.7127 30.0545 36.0044 30.1705C36.2993 30.2831 36.6324 30.3395 37.0036 30.3395C37.3682 30.3395 37.6847 30.2865 37.9532 30.1804C38.225 30.0743 38.4355 29.9268 38.5846 29.7379C38.7338 29.549 38.8083 29.3319 38.8083 29.0866C38.8083 28.858 38.7404 28.6657 38.6045 28.5099C38.4719 28.3542 38.2764 28.2216 38.0178 28.1122C37.7626 28.0028 37.4494 27.9034 37.0782 27.8139L35.9695 27.5355C35.1111 27.3267 34.4333 27.0002 33.9362 26.5561C33.439 26.112 33.1921 25.5137 33.1954 24.7614C33.1921 24.1449 33.3561 23.6063 33.6876 23.1456C34.0223 22.6849 34.4814 22.3253 35.0647 22.0668C35.6481 21.8082 36.3109 21.679 37.0534 21.679C37.809 21.679 38.4686 21.8082 39.032 22.0668C39.5988 22.3253 40.0396 22.6849 40.3545 23.1456C40.6694 23.6063 40.8318 24.1399 40.8417 24.7464H38.7785ZM46.4509 24.3636V25.9545H41.8522V24.3636H46.4509ZM42.8962 22.5341H45.0141V29.6534C45.0141 29.849 45.0439 30.0014 45.1036 30.1108C45.1633 30.2169 45.2461 30.2914 45.3522 30.3345C45.4616 30.3776 45.5875 30.3991 45.73 30.3991C45.8295 30.3991 45.9289 30.3909 46.0283 30.3743C46.1278 30.3544 46.204 30.3395 46.257 30.3295L46.5901 31.9055C46.484 31.9387 46.3349 31.9768 46.1427 32.0199C45.9504 32.0663 45.7168 32.0945 45.4417 32.1044C44.9313 32.1243 44.4838 32.0563 44.0993 31.9006C43.7182 31.7448 43.4215 31.5028 43.2094 31.1747C42.9973 30.8466 42.8929 30.4323 42.8962 29.9318V22.5341ZM50.0081 32.1442C49.5209 32.1442 49.0867 32.0597 48.7055 31.8906C48.3244 31.7183 48.0228 31.4647 47.8007 31.13C47.5819 30.7919 47.4726 30.371 47.4726 29.8672C47.4726 29.4429 47.5505 29.0866 47.7062 28.7983C47.862 28.5099 48.0741 28.2779 48.3426 28.1023C48.6111 27.9266 48.916 27.794 49.2574 27.7045C49.6021 27.6151 49.9633 27.5521 50.3412 27.5156C50.7853 27.4692 51.1433 27.4261 51.415 27.3864C51.6868 27.3433 51.884 27.2803 52.0067 27.1974C52.1293 27.1146 52.1906 26.992 52.1906 26.8295V26.7997C52.1906 26.4848 52.0912 26.2412 51.8923 26.0689C51.6968 25.8965 51.4184 25.8104 51.0571 25.8104C50.6759 25.8104 50.3727 25.8949 50.1473 26.0639C49.9219 26.2296 49.7728 26.4384 49.6998 26.6903L47.741 26.5312C47.8405 26.0672 48.036 25.6662 48.3277 25.3281C48.6193 24.9867 48.9955 24.7249 49.4562 24.5426C49.9202 24.357 50.4572 24.2642 51.067 24.2642C51.4913 24.2642 51.8973 24.3139 52.2851 24.4134C52.6762 24.5128 53.0225 24.6669 53.3241 24.8757C53.6291 25.0845 53.8693 25.353 54.045 25.6811C54.2207 26.0059 54.3085 26.3954 54.3085 26.8494V32H52.3V30.9411H52.2403C52.1177 31.1797 51.9536 31.3902 51.7481 31.5724C51.5426 31.7514 51.2957 31.8923 51.0074 31.995C50.719 32.0945 50.3859 32.1442 50.0081 32.1442ZM50.6146 30.6825C50.9262 30.6825 51.2013 30.6212 51.4399 30.4986C51.6785 30.3726 51.8658 30.2036 52.0017 29.9915C52.1376 29.7794 52.2055 29.5391 52.2055 29.2706V28.4602C52.1392 28.5033 52.0481 28.5431 51.9321 28.5795C51.8194 28.6127 51.6918 28.6442 51.5493 28.674C51.4068 28.7005 51.2642 28.7254 51.1217 28.7486C50.9792 28.7685 50.8499 28.7867 50.7339 28.8033C50.4854 28.8397 50.2683 28.8977 50.0827 28.9773C49.897 29.0568 49.7529 29.1645 49.6501 29.3004C49.5474 29.433 49.496 29.5987 49.496 29.7976C49.496 30.0859 49.6004 30.3063 49.8092 30.4588C50.0213 30.608 50.2898 30.6825 50.6146 30.6825ZM55.9516 32V24.3636H58.0049V25.696H58.0844C58.2236 25.2221 58.4573 24.8641 58.7854 24.6222C59.1135 24.3769 59.4914 24.2543 59.9189 24.2543C60.025 24.2543 60.1394 24.2609 60.262 24.2741C60.3846 24.2874 60.4923 24.3056 60.5851 24.3288V26.2081C60.4857 26.1783 60.3482 26.1518 60.1725 26.1286C59.9968 26.1054 59.8361 26.0938 59.6903 26.0938C59.3787 26.0938 59.1003 26.1617 58.855 26.2976C58.6131 26.4302 58.4208 26.6158 58.2783 26.8544C58.1391 27.093 58.0695 27.3681 58.0695 27.6797V32H55.9516ZM66.1247 24.3636V25.9545H61.526V24.3636H66.1247ZM62.57 22.5341H64.6879V29.6534C64.6879 29.849 64.7178 30.0014 64.7774 30.1108C64.8371 30.2169 64.92 30.2914 65.026 30.3345C65.1354 30.3776 65.2613 30.3991 65.4039 30.3991C65.5033 30.3991 65.6027 30.3909 65.7021 30.3743C65.8016 30.3544 65.8778 30.3395 65.9308 30.3295L66.2639 31.9055C66.1579 31.9387 66.0087 31.9768 65.8165 32.0199C65.6243 32.0663 65.3906 32.0945 65.1155 32.1044C64.6051 32.1243 64.1576 32.0563 63.7732 31.9006C63.392 31.7448 63.0954 31.5028 62.8833 31.1747C62.6711 30.8466 62.5667 30.4323 62.57 29.9318V22.5341ZM72.9221 32.1442C72.4349 32.1442 72.0007 32.0597 71.6196 31.8906C71.2384 31.7183 70.9368 31.4647 70.7148 31.13C70.496 30.7919 70.3866 30.371 70.3866 29.8672C70.3866 29.4429 70.4645 29.0866 70.6203 28.7983C70.7761 28.5099 70.9882 28.2779 71.2567 28.1023C71.5251 27.9266 71.83 27.794 72.1714 27.7045C72.5161 27.6151 72.8774 27.5521 73.2552 27.5156C73.6994 27.4692 74.0573 27.4261 74.3291 27.3864C74.6009 27.3433 74.7981 27.2803 74.9207 27.1974C75.0434 27.1146 75.1047 26.992 75.1047 26.8295V26.7997C75.1047 26.4848 75.0052 26.2412 74.8064 26.0689C74.6108 25.8965 74.3324 25.8104 73.9711 25.8104C73.59 25.8104 73.2867 25.8949 73.0613 26.0639C72.836 26.2296 72.6868 26.4384 72.6139 26.6903L70.6551 26.5312C70.7545 26.0672 70.9501 25.6662 71.2417 25.3281C71.5334 24.9867 71.9096 24.7249 72.3703 24.5426C72.8343 24.357 73.3712 24.2642 73.9811 24.2642C74.4053 24.2642 74.8113 24.3139 75.1991 24.4134C75.5902 24.5128 75.9366 24.6669 76.2382 24.8757C76.5431 25.0845 76.7834 25.353 76.9591 25.6811C77.1347 26.0059 77.2226 26.3954 77.2226 26.8494V32H75.214V30.9411H75.1544C75.0318 31.1797 74.8677 31.3902 74.6622 31.5724C74.4567 31.7514 74.2098 31.8923 73.9214 31.995C73.6331 32.0945 73.3 32.1442 72.9221 32.1442ZM73.5287 30.6825C73.8402 30.6825 74.1153 30.6212 74.354 30.4986C74.5926 30.3726 74.7799 30.2036 74.9157 29.9915C75.0516 29.7794 75.1196 29.5391 75.1196 29.2706V28.4602C75.0533 28.5033 74.9622 28.5431 74.8461 28.5795C74.7335 28.6127 74.6059 28.6442 74.4633 28.674C74.3208 28.7005 74.1783 28.7254 74.0358 28.7486C73.8933 28.7685 73.764 28.7867 73.648 28.8033C73.3994 28.8397 73.1823 28.8977 72.9967 28.9773C72.8111 29.0568 72.6669 29.1645 72.5642 29.3004C72.4614 29.433 72.4101 29.5987 72.4101 29.7976C72.4101 30.0859 72.5145 30.3063 72.7233 30.4588C72.9354 30.608 73.2039 30.6825 73.5287 30.6825ZM82.1457 21.8182H84.8005L87.6045 28.6591H87.7238L90.5278 21.8182H93.1826V32H91.0945V25.3729H91.01L88.3751 31.9503H86.9532L84.3183 25.348H84.2338V32H82.1457V21.8182ZM98.3966 32.1491C97.6111 32.1491 96.9349 31.9901 96.3682 31.6719C95.8047 31.3504 95.3705 30.8963 95.0656 30.3097C94.7607 29.7197 94.6082 29.022 94.6082 28.2166C94.6082 27.4311 94.7607 26.7417 95.0656 26.1484C95.3705 25.5552 95.7997 25.0928 96.3532 24.7614C96.9101 24.4299 97.563 24.2642 98.3121 24.2642C98.8158 24.2642 99.2848 24.3454 99.719 24.5078C100.157 24.6669 100.538 24.9072 100.862 25.2287C101.191 25.5502 101.446 25.9545 101.628 26.4418C101.81 26.9257 101.902 27.4924 101.902 28.142V28.7237H95.4534V27.4112H99.9079C99.9079 27.1063 99.8416 26.8362 99.7091 26.6009C99.5765 26.3655 99.3925 26.1816 99.1572 26.049C98.9252 25.9131 98.6551 25.8452 98.3469 25.8452C98.0254 25.8452 97.7403 25.9197 97.4917 26.0689C97.2465 26.2147 97.0542 26.4119 96.915 26.6605C96.7758 26.9058 96.7046 27.1792 96.7013 27.4808V28.7287C96.7013 29.1065 96.7709 29.433 96.9101 29.7081C97.0526 29.9832 97.2531 30.1953 97.5116 30.3445C97.7702 30.4936 98.0767 30.5682 98.4314 30.5682C98.6667 30.5682 98.8821 30.535 99.0777 30.4688C99.2732 30.4025 99.4406 30.303 99.5798 30.1705C99.719 30.0379 99.8251 29.8755 99.898 29.6832L101.857 29.8125C101.757 30.2831 101.554 30.6941 101.245 31.0455C100.94 31.3935 100.546 31.6652 100.062 31.8608C99.5815 32.053 99.0263 32.1491 98.3966 32.1491ZM106.764 32.1491C105.978 32.1491 105.302 31.9901 104.735 31.6719C104.172 31.3504 103.738 30.8963 103.433 30.3097C103.128 29.7197 102.975 29.022 102.975 28.2166C102.975 27.4311 103.128 26.7417 103.433 26.1484C103.738 25.5552 104.167 25.0928 104.72 24.7614C105.277 24.4299 105.93 24.2642 106.679 24.2642C107.183 24.2642 107.652 24.3454 108.086 24.5078C108.524 24.6669 108.905 24.9072 109.23 25.2287C109.558 25.5502 109.813 25.9545 109.995 26.4418C110.178 26.9257 110.269 27.4924 110.269 28.142V28.7237H103.821V27.4112H108.275C108.275 27.1063 108.209 26.8362 108.076 26.6009C107.944 26.3655 107.76 26.1816 107.524 26.049C107.292 25.9131 107.022 25.8452 106.714 25.8452C106.393 25.8452 106.108 25.9197 105.859 26.0689C105.614 26.2147 105.421 26.4119 105.282 26.6605C105.143 26.9058 105.072 27.1792 105.068 27.4808V28.7287C105.068 29.1065 105.138 29.433 105.277 29.7081C105.42 29.9832 105.62 30.1953 105.879 30.3445C106.137 30.4936 106.444 30.5682 106.799 30.5682C107.034 30.5682 107.249 30.535 107.445 30.4688C107.64 30.4025 107.808 30.303 107.947 30.1705C108.086 30.0379 108.192 29.8755 108.265 29.6832L110.224 29.8125C110.125 30.2831 109.921 30.6941 109.612 31.0455C109.308 31.3935 108.913 31.6652 108.429 31.8608C107.949 32.053 107.393 32.1491 106.764 32.1491ZM115.713 24.3636V25.9545H111.114V24.3636H115.713ZM112.158 22.5341H114.276V29.6534C114.276 29.849 114.306 30.0014 114.365 30.1108C114.425 30.2169 114.508 30.2914 114.614 30.3345C114.723 30.3776 114.849 30.3991 114.992 30.3991C115.091 30.3991 115.191 30.3909 115.29 30.3743C115.389 30.3544 115.466 30.3395 115.519 30.3295L115.852 31.9055C115.746 31.9387 115.597 31.9768 115.404 32.0199C115.212 32.0663 114.978 32.0945 114.703 32.1044C114.193 32.1243 113.746 32.0563 113.361 31.9006C112.98 31.7448 112.683 31.5028 112.471 31.1747C112.259 30.8466 112.155 30.4323 112.158 29.9318V22.5341ZM117.092 32V24.3636H119.21V32H117.092ZM118.156 23.3793C117.841 23.3793 117.571 23.2749 117.346 23.0661C117.124 22.8539 117.013 22.6004 117.013 22.3054C117.013 22.0137 117.124 21.7635 117.346 21.5547C117.571 21.3426 117.841 21.2365 118.156 21.2365C118.471 21.2365 118.739 21.3426 118.962 21.5547C119.187 21.7635 119.3 22.0137 119.3 22.3054C119.3 22.6004 119.187 22.8539 118.962 23.0661C118.739 23.2749 118.471 23.3793 118.156 23.3793ZM123.025 27.5852V32H120.907V24.3636H122.925V25.7109H123.015C123.184 25.2668 123.467 24.9155 123.865 24.657C124.263 24.3951 124.745 24.2642 125.312 24.2642C125.842 24.2642 126.304 24.3802 126.699 24.6122C127.093 24.8442 127.4 25.1757 127.618 25.6065C127.837 26.0341 127.946 26.5445 127.946 27.1378V32H125.829V27.5156C125.832 27.0483 125.713 26.6837 125.471 26.4219C125.229 26.1567 124.896 26.0241 124.471 26.0241C124.186 26.0241 123.934 26.0855 123.716 26.2081C123.5 26.3307 123.331 26.5097 123.209 26.745C123.089 26.977 123.028 27.2571 123.025 27.5852ZM133.056 35.0227C132.37 35.0227 131.782 34.9283 131.291 34.7393C130.804 34.5537 130.416 34.3002 130.128 33.9787C129.839 33.6572 129.652 33.2959 129.566 32.8949L131.525 32.6314C131.584 32.7839 131.679 32.9264 131.808 33.0589C131.937 33.1915 132.108 33.2976 132.32 33.3771C132.536 33.46 132.797 33.5014 133.106 33.5014C133.566 33.5014 133.946 33.3887 134.244 33.1634C134.546 32.9413 134.697 32.5684 134.697 32.0447V30.6477H134.607C134.514 30.8598 134.375 31.0604 134.19 31.2493C134.004 31.4382 133.765 31.5923 133.474 31.7116C133.182 31.831 132.834 31.8906 132.43 31.8906C131.856 31.8906 131.334 31.758 130.864 31.4929C130.396 31.2244 130.023 30.8151 129.745 30.2649C129.47 29.7114 129.332 29.0121 129.332 28.1669C129.332 27.3018 129.473 26.5793 129.755 25.9993C130.037 25.4193 130.411 24.9851 130.878 24.6967C131.349 24.4084 131.864 24.2642 132.425 24.2642C132.852 24.2642 133.21 24.3371 133.498 24.483C133.787 24.6255 134.019 24.8045 134.195 25.0199C134.373 25.232 134.511 25.4408 134.607 25.6463H134.687V24.3636H136.79V32.0746C136.79 32.7242 136.631 33.2678 136.312 33.7053C135.994 34.1428 135.553 34.4709 134.99 34.6896C134.43 34.9117 133.785 35.0227 133.056 35.0227ZM133.101 30.2997C133.442 30.2997 133.73 30.2152 133.966 30.0462C134.204 29.8738 134.387 29.6286 134.513 29.3104C134.642 28.9889 134.707 28.6044 134.707 28.157C134.707 27.7095 134.644 27.3217 134.518 26.9936C134.392 26.6622 134.209 26.4053 133.971 26.223C133.732 26.0407 133.442 25.9496 133.101 25.9496C132.753 25.9496 132.459 26.044 132.221 26.233C131.982 26.4186 131.802 26.6771 131.679 27.0085C131.556 27.34 131.495 27.7228 131.495 28.157C131.495 28.5978 131.556 28.9789 131.679 29.3004C131.805 29.6186 131.985 29.8655 132.221 30.0412C132.459 30.2135 132.753 30.2997 133.101 30.2997Z" fill="white"/>
<path d="M19.0117 27.2432C23.1302 25.9845 27.0559 29.8005 25.7471 33.9736L25.748 33.9746L21.6396 47.2334L21.6377 47.2402C20.0766 52.2159 13.0514 52.2616 11.3945 47.3232L11.3936 47.3242L10.1719 43.6982L10.1699 43.6914C10.03 43.2708 9.71237 42.9552 9.31445 42.8252L9.29492 42.8193L5.6748 41.5957L5.67578 41.5947C0.688646 39.9233 0.825878 32.9128 5.78516 31.3623L5.78711 31.3613L19.002 27.2461L19.0117 27.2432Z" fill="#121F3E" stroke="white" stroke-width="4"/>
</svg>
