<svg width="161" height="53" viewBox="0 0 161 53" fill="none" xmlns="http://www.w3.org/2000/svg">
<rect width="145" height="53" rx="26.5" fill="#FFA200"/>
<path d="M17.173 32V21.8182H24.0338V23.593H19.3257V26.0192H23.6808V27.794H19.3257V30.2251H24.0537V32H17.173ZM27.8234 27.5852V32H25.7055V24.3636H27.724V25.7109H27.8135C27.9825 25.2668 28.2659 24.9155 28.6636 24.657C29.0613 24.3951 29.5436 24.2642 30.1104 24.2642C30.6407 24.2642 31.103 24.3802 31.4974 24.6122C31.8918 24.8442 32.1984 25.1757 32.4172 25.6065C32.6359 26.0341 32.7453 26.5445 32.7453 27.1378V32H30.6274V27.5156C30.6307 27.0483 30.5114 26.6837 30.2694 26.4219C30.0275 26.1567 29.6944 26.0241 29.2702 26.0241C28.9851 26.0241 28.7332 26.0855 28.5145 26.2081C28.299 26.3307 28.13 26.5097 28.0074 26.745C27.8881 26.977 27.8267 27.2571 27.8234 27.5852ZM34.4145 32V24.3636H36.4678V25.696H36.5473C36.6865 25.2221 36.9202 24.8641 37.2483 24.6222C37.5764 24.3769 37.9543 24.2543 38.3818 24.2543C38.4879 24.2543 38.6022 24.2609 38.7249 24.2741C38.8475 24.2874 38.9552 24.3056 39.048 24.3288V26.2081C38.9486 26.1783 38.8111 26.1518 38.6354 26.1286C38.4597 26.1054 38.299 26.0938 38.1531 26.0938C37.8416 26.0938 37.5632 26.1617 37.3179 26.2976C37.076 26.4302 36.8837 26.6158 36.7412 26.8544C36.602 27.093 36.5324 27.3681 36.5324 27.6797V32H34.4145ZM43.2378 32.1491C42.4656 32.1491 41.7977 31.9851 41.2343 31.657C40.6742 31.3255 40.2416 30.8648 39.9367 30.2749C39.6318 29.6816 39.4793 28.9938 39.4793 28.2116C39.4793 27.4228 39.6318 26.7334 39.9367 26.1435C40.2416 25.5502 40.6742 25.0895 41.2343 24.7614C41.7977 24.4299 42.4656 24.2642 43.2378 24.2642C44.0101 24.2642 44.6763 24.4299 45.2364 24.7614C45.7999 25.0895 46.234 25.5502 46.539 26.1435C46.8439 26.7334 46.9964 27.4228 46.9964 28.2116C46.9964 28.9938 46.8439 29.6816 46.539 30.2749C46.234 30.8648 45.7999 31.3255 45.2364 31.657C44.6763 31.9851 44.0101 32.1491 43.2378 32.1491ZM43.2478 30.5085C43.5991 30.5085 43.8924 30.4091 44.1278 30.2102C44.3631 30.008 44.5404 29.733 44.6597 29.3849C44.7823 29.0369 44.8437 28.6409 44.8437 28.1967C44.8437 27.7526 44.7823 27.3565 44.6597 27.0085C44.5404 26.6605 44.3631 26.3854 44.1278 26.1832C43.8924 25.9811 43.5991 25.88 43.2478 25.88C42.8931 25.88 42.5948 25.9811 42.3529 26.1832C42.1143 26.3854 41.9336 26.6605 41.811 27.0085C41.6917 27.3565 41.632 27.7526 41.632 28.1967C41.632 28.6409 41.6917 29.0369 41.811 29.3849C41.9336 29.733 42.1143 30.008 42.3529 30.2102C42.5948 30.4091 42.8931 30.5085 43.2478 30.5085ZM50.4914 21.8182V32H48.3735V21.8182H50.4914ZM54.3058 21.8182V32H52.1879V21.8182H54.3058ZM62.6929 32.1491C61.9207 32.1491 61.2528 31.9851 60.6894 31.657C60.1292 31.3255 59.6967 30.8648 59.3918 30.2749C59.0869 29.6816 58.9344 28.9938 58.9344 28.2116C58.9344 27.4228 59.0869 26.7334 59.3918 26.1435C59.6967 25.5502 60.1292 25.0895 60.6894 24.7614C61.2528 24.4299 61.9207 24.2642 62.6929 24.2642C63.4652 24.2642 64.1314 24.4299 64.6915 24.7614C65.2549 25.0895 65.6891 25.5502 65.9941 26.1435C66.299 26.7334 66.4514 27.4228 66.4514 28.2116C66.4514 28.9938 66.299 29.6816 65.9941 30.2749C65.6891 30.8648 65.2549 31.3255 64.6915 31.657C64.1314 31.9851 63.4652 32.1491 62.6929 32.1491ZM62.7029 30.5085C63.0542 30.5085 63.3475 30.4091 63.5828 30.2102C63.8182 30.008 63.9955 29.733 64.1148 29.3849C64.2374 29.0369 64.2987 28.6409 64.2987 28.1967C64.2987 27.7526 64.2374 27.3565 64.1148 27.0085C63.9955 26.6605 63.8182 26.3854 63.5828 26.1832C63.3475 25.9811 63.0542 25.88 62.7029 25.88C62.3482 25.88 62.0499 25.9811 61.808 26.1832C61.5693 26.3854 61.3887 26.6605 61.2661 27.0085C61.1468 27.3565 61.0871 27.7526 61.0871 28.1967C61.0871 28.6409 61.1468 29.0369 61.2661 29.3849C61.3887 29.733 61.5693 30.008 61.808 30.2102C62.0499 30.4091 62.3482 30.5085 62.7029 30.5085ZM69.9465 27.5852V32H67.8286V24.3636H69.847V25.7109H69.9365C70.1056 25.2668 70.3889 24.9155 70.7867 24.657C71.1844 24.3951 71.6666 24.2642 72.2334 24.2642C72.7637 24.2642 73.2261 24.3802 73.6205 24.6122C74.0149 24.8442 74.3215 25.1757 74.5402 25.6065C74.759 26.0341 74.8683 26.5445 74.8683 27.1378V32H72.7504V27.5156C72.7538 27.0483 72.6344 26.6837 72.3925 26.4219C72.1505 26.1567 71.8174 26.0241 71.3932 26.0241C71.1082 26.0241 70.8563 26.0855 70.6375 26.2081C70.4221 26.3307 70.253 26.5097 70.1304 26.745C70.0111 26.977 69.9498 27.2571 69.9465 27.5852ZM88.8012 25.3828H86.6237C86.5839 25.1011 86.5027 24.8509 86.3801 24.6321C86.2574 24.41 86.1 24.2211 85.9078 24.0653C85.7155 23.9096 85.4935 23.7902 85.2416 23.7074C84.993 23.6245 84.7229 23.5831 84.4312 23.5831C83.9042 23.5831 83.4452 23.714 83.0541 23.9759C82.663 24.2344 82.3597 24.6122 82.1443 25.1094C81.9288 25.6032 81.8211 26.2031 81.8211 26.9091C81.8211 27.6349 81.9288 28.2448 82.1443 28.7386C82.363 29.2325 82.6679 29.6054 83.059 29.8572C83.4501 30.1091 83.9026 30.2351 84.4163 30.2351C84.7046 30.2351 84.9714 30.197 85.2167 30.1207C85.4653 30.0445 85.6857 29.9335 85.8779 29.7876C86.0702 29.6385 86.2293 29.4579 86.3552 29.2457C86.4845 29.0336 86.574 28.7917 86.6237 28.5199L88.8012 28.5298C88.7449 28.9972 88.604 29.4479 88.3786 29.8821C88.1566 30.313 87.8566 30.6991 87.4788 31.0405C87.1043 31.3786 86.6568 31.647 86.1365 31.8459C85.6194 32.0414 85.0344 32.1392 84.3815 32.1392C83.4733 32.1392 82.6613 31.9337 81.9454 31.5227C81.2328 31.1117 80.6694 30.5168 80.2551 29.7379C79.8441 28.959 79.6386 28.0161 79.6386 26.9091C79.6386 25.7988 79.8474 24.8542 80.265 24.0753C80.6826 23.2964 81.2494 22.7031 81.9653 22.2955C82.6812 21.8845 83.4866 21.679 84.3815 21.679C84.9714 21.679 85.5183 21.7618 86.0221 21.9276C86.5292 22.0933 86.9783 22.3352 87.3694 22.6534C87.7605 22.9683 88.0787 23.3544 88.324 23.8118C88.5725 24.2692 88.7316 24.7929 88.8012 25.3828ZM93.7554 32.1491C92.9832 32.1491 92.3153 31.9851 91.7519 31.657C91.1917 31.3255 90.7592 30.8648 90.4543 30.2749C90.1494 29.6816 89.9969 28.9938 89.9969 28.2116C89.9969 27.4228 90.1494 26.7334 90.4543 26.1435C90.7592 25.5502 91.1917 25.0895 91.7519 24.7614C92.3153 24.4299 92.9832 24.2642 93.7554 24.2642C94.5277 24.2642 95.1939 24.4299 95.754 24.7614C96.3174 25.0895 96.7516 25.5502 97.0566 26.1435C97.3615 26.7334 97.5139 27.4228 97.5139 28.2116C97.5139 28.9938 97.3615 29.6816 97.0566 30.2749C96.7516 30.8648 96.3174 31.3255 95.754 31.657C95.1939 31.9851 94.5277 32.1491 93.7554 32.1491ZM93.7654 30.5085C94.1167 30.5085 94.41 30.4091 94.6453 30.2102C94.8807 30.008 95.058 29.733 95.1773 29.3849C95.2999 29.0369 95.3612 28.6409 95.3612 28.1967C95.3612 27.7526 95.2999 27.3565 95.1773 27.0085C95.058 26.6605 94.8807 26.3854 94.6453 26.1832C94.41 25.9811 94.1167 25.88 93.7654 25.88C93.4107 25.88 93.1124 25.9811 92.8705 26.1832C92.6318 26.3854 92.4512 26.6605 92.3286 27.0085C92.2093 27.3565 92.1496 27.7526 92.1496 28.1967C92.1496 28.6409 92.2093 29.0369 92.3286 29.3849C92.4512 29.733 92.6318 30.008 92.8705 30.2102C93.1124 30.4091 93.4107 30.5085 93.7654 30.5085ZM103.788 28.7486V24.3636H105.906V32H103.873V30.6129H103.793C103.621 31.0604 103.334 31.42 102.933 31.6918C102.535 31.9635 102.05 32.0994 101.476 32.0994C100.966 32.0994 100.517 31.9834 100.129 31.7514C99.7412 31.5194 99.4379 31.1896 99.2192 30.7621C99.0038 30.3345 98.8944 29.8224 98.8911 29.2259V24.3636H101.009V28.848C101.012 29.2988 101.133 29.6551 101.372 29.9169C101.611 30.1787 101.93 30.3097 102.331 30.3097C102.587 30.3097 102.825 30.2517 103.047 30.1357C103.269 30.0163 103.448 29.8407 103.584 29.6087C103.723 29.3767 103.791 29.09 103.788 28.7486ZM107.6 32V24.3636H109.653V25.696H109.733C109.872 25.2221 110.106 24.8641 110.434 24.6222C110.762 24.3769 111.14 24.2543 111.567 24.2543C111.673 24.2543 111.788 24.2609 111.91 24.2741C112.033 24.2874 112.141 24.3056 112.234 24.3288V26.2081C112.134 26.1783 111.997 26.1518 111.821 26.1286C111.645 26.1054 111.485 26.0938 111.339 26.0938C111.027 26.0938 110.749 26.1617 110.503 26.2976C110.262 26.4302 110.069 26.6158 109.927 26.8544C109.788 27.093 109.718 27.3681 109.718 27.6797V32H107.6ZM119.682 26.5412L117.743 26.6605C117.71 26.4948 117.639 26.3456 117.53 26.2131C117.42 26.0772 117.276 25.9695 117.097 25.8899C116.921 25.8071 116.711 25.7656 116.466 25.7656C116.138 25.7656 115.861 25.8352 115.635 25.9744C115.41 26.1103 115.297 26.2926 115.297 26.5213C115.297 26.7036 115.37 26.8577 115.516 26.9837C115.662 27.1096 115.912 27.2107 116.267 27.2869L117.649 27.5653C118.391 27.7178 118.945 27.9631 119.309 28.3011C119.674 28.6392 119.856 29.0833 119.856 29.6335C119.856 30.134 119.709 30.5732 119.414 30.951C119.122 31.3288 118.721 31.6238 118.211 31.8359C117.704 32.0447 117.119 32.1491 116.456 32.1491C115.445 32.1491 114.639 31.9387 114.04 31.5178C113.443 31.0935 113.093 30.5168 112.991 29.7876L115.074 29.6783C115.137 29.9865 115.289 30.2218 115.531 30.3842C115.773 30.5433 116.083 30.6229 116.461 30.6229C116.832 30.6229 117.13 30.5516 117.356 30.4091C117.584 30.2633 117.7 30.076 117.704 29.8473C117.7 29.6551 117.619 29.4976 117.46 29.375C117.301 29.2491 117.056 29.1529 116.724 29.0866L115.402 28.8232C114.656 28.674 114.101 28.4155 113.736 28.0476C113.375 27.6797 113.194 27.2107 113.194 26.6406C113.194 26.1501 113.327 25.7275 113.592 25.3729C113.861 25.0182 114.237 24.7448 114.721 24.5526C115.208 24.3603 115.778 24.2642 116.431 24.2642C117.395 24.2642 118.154 24.468 118.708 24.8757C119.265 25.2834 119.589 25.8385 119.682 26.5412ZM124.67 32.1491C123.884 32.1491 123.208 31.9901 122.642 31.6719C122.078 31.3504 121.644 30.8963 121.339 30.3097C121.034 29.7197 120.882 29.022 120.882 28.2166C120.882 27.4311 121.034 26.7417 121.339 26.1484C121.644 25.5552 122.073 25.0928 122.627 24.7614C123.184 24.4299 123.836 24.2642 124.585 24.2642C125.089 24.2642 125.558 24.3454 125.992 24.5078C126.43 24.6669 126.811 24.9072 127.136 25.2287C127.464 25.5502 127.719 25.9545 127.902 26.4418C128.084 26.9257 128.175 27.4924 128.175 28.142V28.7237H121.727V27.4112H126.181C126.181 27.1063 126.115 26.8362 125.983 26.6009C125.85 26.3655 125.666 26.1816 125.431 26.049C125.199 25.9131 124.929 25.8452 124.62 25.8452C124.299 25.8452 124.014 25.9197 123.765 26.0689C123.52 26.2147 123.328 26.4119 123.188 26.6605C123.049 26.9058 122.978 27.1792 122.975 27.4808V28.7287C122.975 29.1065 123.044 29.433 123.184 29.7081C123.326 29.9832 123.527 30.1953 123.785 30.3445C124.044 30.4936 124.35 30.5682 124.705 30.5682C124.94 30.5682 125.156 30.535 125.351 30.4688C125.547 30.4025 125.714 30.303 125.853 30.1705C125.992 30.0379 126.099 29.8755 126.171 29.6832L128.13 29.8125C128.031 30.2831 127.827 30.6941 127.519 31.0455C127.214 31.3935 126.819 31.6652 126.335 31.8608C125.855 32.053 125.3 32.1491 124.67 32.1491Z" fill="white"/>
<path d="M141.988 27.2432C137.87 25.9845 133.944 29.8005 135.253 33.9736L135.252 33.9746L139.36 47.2334L139.362 47.2402C140.923 52.2159 147.949 52.2616 149.605 47.3232L149.606 47.3242L150.828 43.6982L150.83 43.6914C150.97 43.2708 151.288 42.9552 151.686 42.8252L151.705 42.8193L155.325 41.5957L155.324 41.5947C160.311 39.9233 160.174 32.9128 155.215 31.3623L155.213 31.3613L141.998 27.2461L141.988 27.2432Z" fill="#121F3E" stroke="white" stroke-width="4"/>
</svg>
