<svg width="1920" height="852" viewBox="0 0 1920 852" fill="none" xmlns="http://www.w3.org/2000/svg">
<mask id="mask0_15861_52606" style="mask-type:alpha" maskUnits="userSpaceOnUse" x="0" y="0" width="1920" height="852">
<rect width="1920" height="852" fill="#D9D9D9"/>
</mask>
<g mask="url(#mask0_15861_52606)">
<path opacity="0.05" d="M1677.59 291.519C1680.65 283.248 1692.35 283.248 1695.41 291.519L1710.23 331.567C1711.29 334.441 1713.56 336.707 1716.43 337.771L1756.48 352.591C1764.75 355.651 1764.75 367.349 1756.48 370.409L1716.43 385.229C1713.56 386.292 1711.29 388.559 1710.23 391.433L1695.41 431.481C1692.35 439.752 1680.65 439.752 1677.59 431.481L1662.77 391.433C1661.71 388.559 1659.44 386.293 1656.57 385.229L1616.52 370.409C1608.25 367.349 1608.25 355.651 1616.52 352.591L1656.57 337.771C1659.44 336.708 1661.71 334.441 1662.77 331.567L1677.59 291.519Z" stroke="#559864"/>
<path opacity="0.2" d="M1666.31 340.673C1667.92 336.319 1674.08 336.319 1675.69 340.673L1687.76 373.288C1688.26 374.656 1689.34 375.736 1690.71 376.242L1723.33 388.311C1727.68 389.922 1727.68 396.078 1723.33 397.689L1690.71 409.758C1689.34 410.264 1688.26 411.344 1687.76 412.712L1675.69 445.327C1674.08 449.681 1667.92 449.681 1666.31 445.327L1654.24 412.712C1653.74 411.344 1652.66 410.264 1651.29 409.758L1618.67 397.689C1614.32 396.078 1614.32 389.922 1618.67 388.311L1651.29 376.242C1652.66 375.736 1653.74 374.656 1654.24 373.288L1666.31 340.673Z" fill="#559864"/>
<path opacity="0.05" d="M195.302 430.727C197.03 417.846 213.849 414.066 220.923 424.969L271.986 503.68C274.527 507.597 278.653 510.209 283.281 510.83L376.272 523.303C389.153 525.03 392.933 541.85 382.031 548.923L303.319 599.986C299.402 602.528 296.79 606.653 296.169 611.281L283.697 704.273C281.969 717.153 265.149 720.934 258.076 710.031L207.013 631.319C204.471 627.402 200.346 624.791 195.718 624.17L102.726 611.697C89.8458 609.969 86.0656 593.15 96.9682 586.077L175.68 535.013C179.597 532.472 182.208 528.346 182.829 523.718L195.302 430.727Z" stroke="#559864" stroke-width="2"/>
</g>
</svg>
