<svg width="406" height="302" viewBox="0 0 406 302" fill="none" xmlns="http://www.w3.org/2000/svg">
<mask id="mask0_15187_95058" style="mask-type:alpha" maskUnits="userSpaceOnUse" x="0" y="0" width="406" height="302">
<rect width="405.823" height="301.875" fill="#D9D9D9"/>
</mask>
<g mask="url(#mask0_15187_95058)">
<g opacity="0.5">
<mask id="path-2-inside-1_15187_95058" fill="white">
<path d="M389.979 202.563C391.995 156.306 377.371 110.858 348.759 74.4568C320.146 38.0554 279.439 13.11 234.015 4.1422C188.592 -4.82558 141.458 2.77787 101.159 25.5743C60.859 48.3707 30.0607 84.8513 14.3462 128.403L15.1858 128.706C30.8279 85.3551 61.4843 49.0426 101.598 26.3513C141.712 3.65991 188.628 -3.9085 233.842 5.01795C279.057 13.9444 319.576 38.7749 348.057 75.0085C376.537 111.242 391.094 156.481 389.087 202.524L389.979 202.563Z"/>
</mask>
<path d="M389.979 202.563C391.995 156.306 377.371 110.858 348.759 74.4568C320.146 38.0554 279.439 13.11 234.015 4.1422C188.592 -4.82558 141.458 2.77787 101.159 25.5743C60.859 48.3707 30.0607 84.8513 14.3462 128.403L15.1858 128.706C30.8279 85.3551 61.4843 49.0426 101.598 26.3513C141.712 3.65991 188.628 -3.9085 233.842 5.01795C279.057 13.9444 319.576 38.7749 348.057 75.0085C376.537 111.242 391.094 156.481 389.087 202.524L389.979 202.563Z" stroke="url(#paint0_linear_15187_95058)" stroke-width="2.84788" stroke-dasharray="4.27 4.27" mask="url(#path-2-inside-1_15187_95058)"/>
</g>
<g opacity="0.5">
<mask id="path-3-inside-2_15187_95058" fill="white">
<path d="M14.6043 260.571C30.4892 304.062 61.4301 340.421 101.819 363.06C142.207 385.698 189.37 393.117 234.758 383.972C280.146 374.826 320.756 349.722 349.225 313.209C377.695 276.696 392.141 231.191 389.944 184.942L389.052 184.985C391.239 231.02 376.86 276.315 348.521 312.66C320.183 349.005 279.761 373.993 234.582 383.097C189.403 392.2 142.457 384.815 102.255 362.281C62.0527 339.747 31.2544 303.555 15.4428 260.265L14.6043 260.571Z"/>
</mask>
<path d="M14.6043 260.571C30.4892 304.062 61.4301 340.421 101.819 363.06C142.207 385.698 189.37 393.117 234.758 383.972C280.146 374.826 320.756 349.722 349.225 313.209C377.695 276.696 392.141 231.191 389.944 184.942L389.052 184.985C391.239 231.02 376.86 276.315 348.521 312.66C320.183 349.005 279.761 373.993 234.582 383.097C189.403 392.2 142.457 384.815 102.255 362.281C62.0527 339.747 31.2544 303.555 15.4428 260.265L14.6043 260.571Z" stroke="url(#paint1_linear_15187_95058)" stroke-width="2.84788" stroke-dasharray="4.27 4.27" mask="url(#path-3-inside-2_15187_95058)"/>
</g>
<circle opacity="0.08" cx="196.502" cy="194.134" r="170.873" fill="url(#paint2_linear_15187_95058)"/>
<circle opacity="0.1" cx="196.505" cy="194.132" r="136.698" fill="url(#paint3_linear_15187_95058)"/>
<circle cx="196.503" cy="194.132" r="91.1321" fill="white"/>
<g filter="url(#filter0_d_15187_95058)">
<circle cx="15.3224" cy="125.091" r="7.11969" transform="rotate(-2.50406 15.3224 125.091)" fill="#0170FF"/>
<circle cx="15.3224" cy="125.091" r="8.13822" transform="rotate(-2.50406 15.3224 125.091)" stroke="white" stroke-width="2.03704"/>
</g>
<g filter="url(#filter1_d_15187_95058)">
<circle cx="389.995" cy="182.52" r="7.11969" transform="rotate(-15.7345 389.995 182.52)" fill="#0170FF"/>
<circle cx="389.995" cy="182.52" r="8.13822" transform="rotate(-15.7345 389.995 182.52)" stroke="white" stroke-width="2.03704"/>
</g>
</g>
<path d="M351.307 290.377L66.3107 289.039C66.1206 289.039 65.9383 288.964 65.8038 288.829C65.6693 288.695 65.5938 288.513 65.5938 288.322C65.5938 288.132 65.6693 287.95 65.8038 287.815C65.9383 287.681 66.1206 287.605 66.3107 287.605L351.307 288.943C351.497 288.943 351.68 289.018 351.814 289.153C351.949 289.287 352.024 289.469 352.024 289.66C352.024 289.85 351.949 290.032 351.814 290.167C351.68 290.301 351.497 290.377 351.307 290.377Z" fill="black"/>
<path d="M73.5272 296.392H31.5377C31.3951 296.392 31.2584 296.335 31.1575 296.234C31.0567 296.133 31 295.997 31 295.854C31 295.712 31.0567 295.575 31.1575 295.474C31.2584 295.373 31.3951 295.316 31.5377 295.316H73.5345C73.6771 295.316 73.8139 295.373 73.9147 295.474C74.0156 295.575 74.0723 295.712 74.0723 295.854C74.0723 295.997 74.0156 296.133 73.9147 296.234C73.8139 296.335 73.6771 296.392 73.5345 296.392H73.5272Z" fill="black"/>
<path d="M372.152 299.997H330.155C330.012 299.997 329.876 299.941 329.775 299.84C329.674 299.739 329.617 299.602 329.617 299.46C329.617 299.317 329.674 299.18 329.775 299.079C329.876 298.979 330.012 298.922 330.155 298.922H372.152C372.294 298.922 372.431 298.979 372.532 299.079C372.633 299.18 372.689 299.317 372.689 299.46C372.689 299.602 372.633 299.739 372.532 299.84C372.431 299.941 372.294 299.997 372.152 299.997V299.997Z" fill="black"/>
<path d="M145.324 84.5195C145.324 84.5195 143.194 101.218 131.511 97.0844C119.828 92.9511 101.151 87.6311 93.3112 104.889C85.4712 122.146 81.7644 134.374 68.4574 133.349C55.1504 132.324 36.5521 171.707 71.6837 184.655C129.203 205.892 176.462 102.318 176.462 102.318L166.385 92.5568L145.324 84.5195Z" fill="#382256"/>
<path d="M145.324 84.5211L166.368 92.5584L176.444 102.32C176.444 102.32 137.57 187.528 87.4145 187.528C82.0361 187.518 76.703 186.547 71.6663 184.661C37.0186 171.87 54.6845 133.333 67.9449 133.333C68.117 133.333 68.3036 133.333 68.4578 133.354C68.9811 133.394 69.4866 133.415 69.9813 133.415C82.0587 133.415 85.7798 121.474 93.3116 104.894C97.4665 95.7453 104.665 92.942 112.254 92.942C118.983 92.942 126.02 95.1466 131.512 97.0896C132.639 97.5075 133.83 97.7294 135.032 97.7456C143.636 97.7456 145.324 84.5247 145.324 84.5247V84.5211ZM145.324 83.4493C145.061 83.4471 144.806 83.5415 144.608 83.7146C144.41 83.8877 144.282 84.1274 144.249 84.3884C144.227 84.5533 142.564 96.6702 135.025 96.6702C133.945 96.6532 132.876 96.452 131.863 96.0751C125.98 93.9959 119.047 91.8665 112.247 91.8665C102.818 91.8665 96.115 96.1002 92.3258 104.449C91.4618 106.349 90.6515 108.181 89.8665 109.952C83.9084 123.431 79.9722 132.34 69.974 132.34C69.5079 132.34 69.024 132.318 68.54 132.282C68.3429 132.264 68.1421 132.257 67.9449 132.257C64.4461 132.257 60.7072 134.523 57.4091 138.638C54.0703 142.915 51.8345 147.948 50.8989 153.293C49.7339 159.821 50.6194 166.084 53.4658 171.404C56.8606 177.756 62.8618 182.556 71.2934 185.668C76.4536 187.598 81.9162 188.593 87.4253 188.608C99.1048 188.608 111.118 184.055 123.141 175.078C132.688 167.952 142.267 158.021 151.609 145.575C167.482 124.424 177.337 102.983 177.42 102.772C177.512 102.57 177.539 102.344 177.498 102.126C177.457 101.908 177.349 101.707 177.19 101.553L167.113 91.7912C167.012 91.6889 166.889 91.6094 166.755 91.5582L145.712 83.5209C145.589 83.4744 145.459 83.4501 145.328 83.4493H145.324Z" fill="black"/>
<path d="M166.368 92.5568L145.325 84.5195C145.325 84.5195 144.274 92.7647 139.589 96.2241L145.884 104.688C145.884 104.688 131.053 111.101 128.648 121.924C126.346 132.273 88.4974 133.467 71.8672 184.731C100.22 195.052 126.063 175.091 144.966 152.238C154.645 130.477 165.819 105.355 169.92 96.0125L166.368 92.5568Z" fill="#050505"/>
<path d="M161.196 114.759C180.435 109.432 286.307 137.724 293.932 148.381C301.557 159.039 255.65 287.04 243.368 287.04C229.337 287.04 128.728 287.04 107.882 287.488C89.5988 287.883 76.2166 238.2 82.2284 226.657C88.2403 215.114 132.735 121.864 147.566 120.09C162.397 118.315 161.196 114.759 161.196 114.759Z" fill="#07ACEE"/>
<path d="M107.669 288.028C102.342 288.028 97.0006 283.952 92.1968 276.227C82.9443 261.339 77.3807 234.8 81.7507 226.397C82.4677 225.003 83.7508 222.454 85.5109 218.908C106.404 176.94 135.563 120.977 147.501 119.547C157.072 118.4 159.71 116.553 160.431 115.553C160.725 115.148 160.679 114.904 160.675 114.894C160.641 114.831 160.624 114.76 160.624 114.689C160.624 114.618 160.641 114.548 160.675 114.485C160.712 114.419 160.764 114.362 160.826 114.319C160.888 114.275 160.959 114.246 161.034 114.234C171.505 111.334 205.826 118.245 232.039 125.046C260.065 132.319 290.203 142.253 294.351 148.061C300.728 156.983 272.938 238.155 255.874 271.33C250.25 282.256 246.152 287.569 243.349 287.569C216.462 287.569 127.2 287.601 107.877 288.017L107.669 288.028ZM161.74 115.173C161.693 115.482 161.579 115.777 161.406 116.037C160.495 117.471 157.362 119.453 147.63 120.622C143.926 121.063 135.62 128.426 117.086 160.977C104.898 182.371 92.9138 206.458 86.4754 219.41C84.7117 222.952 83.4356 225.504 82.7043 226.917C78.8291 234.359 83.2635 259.829 93.1004 275.671C96.3268 280.84 101.431 286.963 107.655 286.963H107.859C127.218 286.547 216.459 286.515 243.367 286.515C244.679 286.515 247.927 284.479 254.935 270.857C263.439 254.327 274.484 226.404 283.073 199.708C292.035 171.814 296.043 152.273 293.494 148.706C290.092 143.945 264.718 134.653 231.788 126.121C206.034 119.414 172.466 112.606 161.74 115.173Z" fill="black"/>
<path d="M284.054 155.364C284.054 155.364 158.189 152.959 154.181 156.967C152.357 158.791 152.177 199.856 150.575 228.718C148.625 263.796 120.91 287.241 120.91 287.241H171.417L284.054 155.364Z" fill="#0598C6"/>
<path d="M172.574 116.889C196.883 104.855 263.744 114.997 295.535 141.966C327.326 168.935 308.362 190.465 300.747 188.863" fill="#07ACEE"/>
<path d="M301.583 189.484C301.265 189.485 300.949 189.453 300.637 189.391C300.568 189.376 300.502 189.348 300.444 189.308C300.385 189.268 300.335 189.217 300.297 189.158C300.258 189.099 300.232 189.032 300.219 188.963C300.206 188.893 300.206 188.822 300.221 188.753C300.236 188.684 300.264 188.618 300.304 188.559C300.344 188.501 300.395 188.451 300.454 188.413C300.513 188.374 300.579 188.347 300.649 188.334C300.718 188.321 300.79 188.322 300.859 188.337C303.573 188.907 308.144 186.157 310.811 180.712C312.442 177.389 313.908 171.886 311.639 164.555C309.355 157.159 303.82 149.696 295.188 142.375C280.648 130.04 257.307 120.181 231.152 115.331C206.828 110.818 184.473 111.599 172.811 117.374C172.748 117.406 172.679 117.424 172.609 117.429C172.538 117.434 172.468 117.425 172.401 117.402C172.334 117.379 172.272 117.344 172.219 117.297C172.166 117.251 172.122 117.194 172.091 117.131C172.06 117.067 172.041 116.999 172.036 116.928C172.032 116.858 172.041 116.787 172.064 116.72C172.086 116.653 172.122 116.591 172.168 116.538C172.215 116.485 172.271 116.441 172.335 116.41C184.193 110.538 206.807 109.721 231.349 114.259C257.683 119.145 281.203 129.09 295.876 141.54C304.666 148.997 310.313 156.629 312.661 164.225C315.03 171.889 313.485 177.672 311.771 181.171C309.122 186.605 304.741 189.484 301.583 189.484Z" fill="black"/>
<path d="M201.102 133.422C202.666 133.422 203.934 132.154 203.934 130.59C203.934 129.026 202.666 127.758 201.102 127.758C199.538 127.758 198.27 129.026 198.27 130.59C198.27 132.154 199.538 133.422 201.102 133.422Z" fill="#51CEF4"/>
<path d="M230.461 124.418C232.025 124.418 233.293 123.15 233.293 121.586C233.293 120.022 232.025 118.754 230.461 118.754C228.897 118.754 227.629 120.022 227.629 121.586C227.629 123.15 228.897 124.418 230.461 124.418Z" fill="#51CEF4"/>
<path d="M255.535 137.527C257.099 137.527 258.367 136.259 258.367 134.695C258.367 133.131 257.099 131.863 255.535 131.863C253.971 131.863 252.703 133.131 252.703 134.695C252.703 136.259 253.971 137.527 255.535 137.527Z" fill="#51CEF4"/>
<path d="M220.895 149.211C222.459 149.211 223.727 147.943 223.727 146.379C223.727 144.815 222.459 143.547 220.895 143.547C219.331 143.547 218.062 144.815 218.062 146.379C218.062 147.943 219.331 149.211 220.895 149.211Z" fill="#51CEF4"/>
<path d="M281.379 149.543C282.943 149.543 284.211 148.275 284.211 146.711C284.211 145.147 282.943 143.879 281.379 143.879C279.815 143.879 278.547 145.147 278.547 146.711C278.547 148.275 279.815 149.543 281.379 149.543Z" fill="#51CEF4"/>
<path d="M258.488 158.367C260.053 158.367 261.321 157.099 261.321 155.535C261.321 153.971 260.053 152.703 258.488 152.703C256.924 152.703 255.656 153.971 255.656 155.535C255.656 157.099 256.924 158.367 258.488 158.367Z" fill="#51CEF4"/>
<path d="M291.525 120.859C291.403 120.858 291.284 120.817 291.188 120.74C291.116 120.679 283.774 114.793 272.683 109.57C262.469 104.763 246.872 99.5323 230.679 102.013C230.608 102.024 230.536 102.02 230.467 102.003C230.398 101.986 230.333 101.955 230.275 101.913C230.218 101.87 230.169 101.817 230.132 101.756C230.096 101.694 230.071 101.627 230.061 101.556C230.05 101.485 230.054 101.413 230.071 101.344C230.088 101.275 230.119 101.21 230.161 101.152C230.204 101.095 230.257 101.046 230.318 101.009C230.379 100.973 230.447 100.948 230.518 100.938C247.008 98.4282 262.814 103.723 273.177 108.598C284.38 113.875 291.801 119.833 291.873 119.891C291.959 119.96 292.023 120.055 292.053 120.163C292.084 120.27 292.08 120.384 292.043 120.489C292.006 120.594 291.938 120.685 291.847 120.749C291.756 120.814 291.647 120.848 291.535 120.848L291.525 120.859Z" fill="black"/>
<path d="M43.8087 168.559C43.7019 168.559 43.5974 168.527 43.5087 168.468C43.4199 168.408 43.3507 168.324 43.3102 168.225C37.9867 155.32 37.6066 144.73 42.1773 136.757C48.4436 125.827 62.034 123.816 62.1703 123.794C62.2409 123.784 62.3127 123.789 62.3817 123.806C62.4507 123.824 62.5156 123.856 62.5725 123.899C62.6294 123.942 62.6774 123.995 62.7136 124.057C62.7497 124.118 62.7734 124.186 62.7833 124.257C62.7931 124.327 62.7889 124.399 62.771 124.468C62.7531 124.537 62.7219 124.602 62.6789 124.659C62.636 124.716 62.5822 124.764 62.5207 124.8C62.4592 124.836 62.3914 124.86 62.3208 124.87C62.1882 124.891 49.1032 126.838 43.1057 137.309C38.7143 144.981 39.1161 155.234 44.3034 167.824C44.3327 167.89 44.3484 167.961 44.3496 168.033C44.3508 168.105 44.3375 168.177 44.3104 168.244C44.2833 168.311 44.2428 168.371 44.1917 168.422C44.1406 168.473 44.0797 168.514 44.0128 168.541C43.9465 168.56 43.8773 168.566 43.8087 168.559V168.559Z" fill="black"/>
<path d="M58.5163 273.979C58.4267 273.978 58.3385 273.956 58.2597 273.914C58.1808 273.871 58.1139 273.81 58.0647 273.735C48.4286 259.073 49.9306 243.116 52.8845 232.312C54.8306 225.224 57.7914 218.455 61.6747 212.215C61.7564 212.102 61.8785 212.025 62.0157 212.001C62.1529 211.976 62.2942 212.006 62.4099 212.083C62.5257 212.161 62.6067 212.28 62.6361 212.417C62.6654 212.553 62.6406 212.695 62.5671 212.814C58.7414 218.966 55.8266 225.64 53.9134 232.627C51.024 243.21 49.5541 258.829 58.9644 273.136C59.0419 273.255 59.0692 273.4 59.0404 273.539C59.0115 273.678 58.9288 273.8 58.8104 273.878C58.7248 273.941 58.6222 273.976 58.5163 273.979V273.979Z" fill="black"/>
<path d="M311.512 168.639C311.974 156.11 310.824 146.577 303.926 146.474C292.835 146.312 294.889 169.223 278.979 176.465C269.859 180.616 262.586 193.234 265.916 202.96C269.246 212.686 310.96 183.656 311.512 168.639Z" fill="#FFCDB2"/>
<path d="M269.313 205.45C266.786 205.45 265.793 204.245 265.413 203.138C261.892 192.867 269.714 180.105 278.762 175.979C286.796 172.322 290.123 164.615 293.059 157.814C295.808 151.444 298.189 145.938 303.813 145.938H303.943C304.802 145.931 305.653 146.102 306.443 146.439C307.233 146.777 307.946 147.273 308.535 147.899C311.403 150.91 312.478 157.312 312.055 168.659C311.754 176.828 300.508 187.103 295.687 191.143C286.574 198.775 276.558 204.482 270.765 205.335C270.284 205.409 269.799 205.448 269.313 205.45ZM303.813 147.017C298.895 147.017 296.755 151.978 294.048 158.245C291.037 165.221 287.621 173.132 279.207 176.961C270.557 180.904 263.075 193.039 266.431 202.794C266.886 204.12 268.291 204.615 270.603 204.278C276.217 203.446 286.018 197.825 294.98 190.322C304.789 182.102 310.754 173.993 310.965 168.623C311.238 161.195 311.119 152.208 307.739 148.644C307.25 148.121 306.658 147.706 305.999 147.425C305.34 147.145 304.63 147.006 303.914 147.017H303.813Z" fill="black"/>
<path d="M161.586 287.234H317.746V160.57H161.586L161.586 287.234Z" fill="white"/>
<path d="M317.751 160.575V287.243H161.591V160.575H317.751ZM317.751 159.5H161.591C161.306 159.5 161.032 159.613 160.83 159.815C160.629 160.017 160.516 160.29 160.516 160.575V287.243C160.516 287.528 160.629 287.802 160.83 288.003C161.032 288.205 161.306 288.318 161.591 288.318H317.751C318.036 288.318 318.31 288.205 318.512 288.003C318.713 287.802 318.826 287.528 318.826 287.243V160.575C318.826 160.29 318.713 160.017 318.512 159.815C318.31 159.613 318.036 159.5 317.751 159.5Z" fill="black"/>
<path d="M171.544 273.547H308.242V171.938H171.544V273.547Z" fill="#4BD657"/>
<path d="M285.211 207.551H263.819C258.709 207.551 254.566 211.693 254.566 216.803V235.475C254.566 240.585 258.709 244.727 263.819 244.727H285.211C290.321 244.727 294.464 240.585 294.464 235.475V216.803C294.464 211.693 290.321 207.551 285.211 207.551Z" fill="#382256"/>
<path d="M285.206 207.549C287.66 207.549 290.014 208.524 291.75 210.259C293.485 211.994 294.461 214.347 294.462 216.801V235.47C294.461 237.924 293.486 240.278 291.75 242.014C290.014 243.749 287.661 244.725 285.206 244.726H263.817C261.363 244.725 259.009 243.749 257.274 242.013C255.539 240.278 254.565 237.924 254.565 235.47V216.801C254.565 214.347 255.539 211.994 257.275 210.259C259.01 208.524 261.363 207.549 263.817 207.549H285.206ZM285.206 206.504H263.817C261.087 206.507 258.469 207.592 256.539 209.523C254.608 211.454 253.522 214.071 253.52 216.801V235.47C253.522 238.2 254.608 240.818 256.538 242.749C258.469 244.68 261.086 245.767 263.817 245.771H285.206C287.937 245.767 290.555 244.681 292.486 242.75C294.417 240.819 295.503 238.201 295.507 235.47V216.801C295.503 214.071 294.417 211.453 292.485 209.523C290.554 207.592 287.937 206.507 285.206 206.504V206.504Z" fill="black"/>
<path d="M250.512 217.807C250.443 217.806 250.376 217.791 250.313 217.764C250.25 217.736 250.193 217.696 250.146 217.647C250.098 217.598 250.061 217.539 250.036 217.475C250.011 217.411 249.999 217.343 250 217.274C250.132 210.307 252.017 205.476 255.595 202.95C260.263 199.651 266.024 201.518 266.268 201.598C266.399 201.645 266.507 201.741 266.567 201.866C266.627 201.992 266.635 202.136 266.589 202.267C266.543 202.398 266.446 202.506 266.321 202.566C266.195 202.626 266.051 202.634 265.92 202.588C265.864 202.588 260.402 200.815 256.166 203.807C252.877 206.134 251.146 210.673 251.021 217.295C251.018 217.43 250.964 217.558 250.869 217.653C250.774 217.749 250.646 217.804 250.512 217.807V217.807Z" fill="black"/>
<path d="M264.204 239.957C263.89 239.955 263.588 239.83 263.365 239.609C263.249 239.499 263.155 239.367 263.09 239.22C263.025 239.074 262.989 238.916 262.985 238.756C262.981 238.596 263.008 238.437 263.065 238.287C263.123 238.137 263.209 238.001 263.32 237.885L285.524 214.517C285.632 214.394 285.765 214.295 285.912 214.224C286.06 214.154 286.221 214.114 286.384 214.107C286.548 214.1 286.712 214.126 286.865 214.183C287.018 214.24 287.159 214.328 287.277 214.441C287.396 214.554 287.49 214.69 287.556 214.84C287.621 214.99 287.655 215.152 287.656 215.316C287.657 215.48 287.626 215.642 287.563 215.793C287.5 215.944 287.407 216.081 287.29 216.196L265.089 239.567C264.976 239.689 264.839 239.786 264.687 239.853C264.535 239.92 264.371 239.956 264.204 239.957Z" fill="white"/>
<path d="M286.405 239.962C286.093 239.956 285.795 239.832 285.572 239.614L260.644 216.243C260.407 216.022 260.269 215.716 260.258 215.392C260.248 215.069 260.366 214.755 260.588 214.518C260.809 214.282 261.115 214.144 261.438 214.133C261.762 214.123 262.076 214.241 262.312 214.463L287.24 237.834C287.42 238.001 287.545 238.219 287.599 238.458C287.653 238.697 287.633 238.947 287.543 239.175C287.452 239.403 287.296 239.598 287.092 239.736C286.889 239.873 286.65 239.946 286.405 239.945V239.962Z" fill="white"/>
<path d="M293.419 251.725H275.503C275.364 251.725 275.232 251.67 275.134 251.572C275.036 251.474 274.98 251.341 274.98 251.202C274.98 251.064 275.036 250.931 275.134 250.833C275.232 250.735 275.364 250.68 275.503 250.68H293.419C293.558 250.68 293.691 250.735 293.789 250.833C293.887 250.931 293.942 251.064 293.942 251.202C293.942 251.341 293.887 251.474 293.789 251.572C293.691 251.67 293.558 251.725 293.419 251.725Z" fill="black"/>
<path d="M308.242 171.939V273.548H171.544V171.939H308.242ZM308.242 170.863H171.544C171.259 170.863 170.986 170.977 170.784 171.178C170.582 171.38 170.469 171.654 170.469 171.939V273.548C170.469 273.833 170.582 274.107 170.784 274.309C170.986 274.51 171.259 274.624 171.544 274.624H308.242C308.528 274.624 308.801 274.51 309.003 274.309C309.204 274.107 309.318 273.833 309.318 273.548V171.939C309.318 171.654 309.204 171.38 309.003 171.178C308.801 170.977 308.528 170.863 308.242 170.863V170.863Z" fill="black"/>
<path d="M318.276 287.242H166.278C162.542 287.242 158.958 285.758 156.316 283.116C153.674 280.474 152.19 276.89 152.19 273.154V273.154H332.383C332.383 275.005 332.018 276.839 331.308 278.549C330.599 280.26 329.56 281.814 328.25 283.122C326.94 284.431 325.384 285.468 323.673 286.175C321.962 286.882 320.128 287.245 318.276 287.242Z" fill="white"/>
<path d="M332.366 273.142C332.366 276.879 330.882 280.462 328.24 283.105C325.598 285.748 322.015 287.233 318.278 287.234H166.262C162.525 287.233 158.942 285.748 156.3 283.105C153.658 280.462 152.173 276.879 152.173 273.142H332.366V273.142ZM333.442 272.066H151.098V273.142C151.102 277.162 152.702 281.017 155.544 283.86C158.387 286.704 162.241 288.304 166.262 288.309H318.278C322.299 288.304 326.153 286.704 328.995 283.86C331.838 281.017 333.437 277.162 333.442 273.142V272.066V272.066Z" fill="black"/>
<path d="M237.413 205.837H185.303C185.161 205.837 185.024 205.78 184.923 205.68C184.822 205.579 184.766 205.442 184.766 205.299C184.766 205.157 184.822 205.02 184.923 204.919C185.024 204.818 185.161 204.762 185.303 204.762H237.413C237.556 204.762 237.692 204.818 237.793 204.919C237.894 205.02 237.951 205.157 237.951 205.299C237.951 205.442 237.894 205.579 237.793 205.68C237.692 205.78 237.556 205.837 237.413 205.837V205.837Z" fill="black"/>
<path d="M236.212 219.866L185.307 218.665C185.165 218.665 185.028 218.609 184.927 218.508C184.826 218.407 184.77 218.27 184.77 218.128C184.77 217.985 184.826 217.848 184.927 217.747C185.028 217.646 185.165 217.59 185.307 217.59V217.59L236.212 218.791C236.355 218.791 236.492 218.847 236.592 218.948C236.693 219.049 236.75 219.186 236.75 219.328C236.75 219.471 236.693 219.608 236.592 219.709C236.492 219.81 236.355 219.866 236.212 219.866V219.866Z" fill="black"/>
<path d="M237.41 235.9H203.741C203.598 235.9 203.462 235.843 203.361 235.742C203.26 235.641 203.203 235.505 203.203 235.362C203.203 235.219 203.26 235.083 203.361 234.982C203.462 234.881 203.598 234.824 203.741 234.824H237.41C237.552 234.824 237.689 234.881 237.79 234.982C237.891 235.083 237.948 235.219 237.948 235.362C237.948 235.505 237.891 235.641 237.79 235.742C237.689 235.843 237.552 235.9 237.41 235.9V235.9Z" fill="black"/>
<path d="M149.631 167.747C149.501 167.747 149.376 167.7 149.278 167.615C149.18 167.53 149.116 167.413 149.097 167.285C148.233 161.115 149.341 156.602 152.384 153.863C157.424 149.328 165.838 151.354 166.197 151.458C166.335 151.493 166.454 151.581 166.527 151.703C166.6 151.825 166.622 151.972 166.587 152.11C166.553 152.249 166.465 152.367 166.342 152.441C166.22 152.514 166.073 152.536 165.935 152.501C165.853 152.479 157.711 150.515 153.098 154.652C150.341 157.136 149.352 161.33 150.162 167.12C150.172 167.19 150.168 167.261 150.151 167.33C150.133 167.398 150.103 167.462 150.06 167.519C150.018 167.576 149.965 167.623 149.904 167.66C149.843 167.696 149.776 167.719 149.706 167.729L149.631 167.747Z" fill="black"/>
<path d="M172.815 166.121C172.672 166.121 172.536 166.065 172.435 165.964C172.334 165.863 172.277 165.726 172.277 165.584C172.277 165.441 172.334 165.304 172.435 165.204C172.536 165.103 172.672 165.046 172.815 165.046L223.72 164.645C223.863 164.645 224 164.701 224.101 164.802C224.201 164.903 224.258 165.04 224.258 165.182C224.258 165.325 224.201 165.462 224.101 165.562C224 165.663 223.863 165.72 223.72 165.72L172.815 166.121Z" fill="white"/>
<path d="M320.324 280.759H262.608C262.465 280.759 262.329 280.702 262.228 280.602C262.127 280.501 262.07 280.364 262.07 280.221C262.07 280.079 262.127 279.942 262.228 279.841C262.329 279.74 262.465 279.684 262.608 279.684H320.324C320.467 279.684 320.604 279.74 320.705 279.841C320.805 279.942 320.862 280.079 320.862 280.221C320.862 280.364 320.805 280.501 320.705 280.602C320.604 280.702 320.467 280.759 320.324 280.759V280.759Z" fill="white"/>
<path d="M143.555 119.484C122.311 139.527 93.3843 139.961 67.5948 222.703C56.9406 256.881 68.4051 273.587 78.0161 280.825C91.1045 290.676 158.844 293.483 160.59 267.998L171.814 267.597L175.019 235.928H166.2C166.2 235.928 162.389 222.191 146.017 220.513C118.36 217.71 96.8547 230.303 93.2483 231.504" fill="#07ACEE"/>
<path d="M115.232 288.491C98.96 288.491 83.3264 285.487 77.6946 281.254C68.9475 274.668 55.9418 258.285 67.0835 222.541C75.9883 193.973 86.0512 172.679 97.8489 157.443C108.181 144.1 118.559 137.063 127.714 130.854C133.206 127.133 138.39 123.616 143.187 119.092C143.291 118.998 143.428 118.948 143.569 118.954C143.709 118.959 143.842 119.019 143.938 119.122C144.035 119.224 144.088 119.36 144.085 119.5C144.083 119.641 144.025 119.775 143.925 119.874C139.067 124.459 133.844 127.997 128.316 131.747C109.413 144.563 87.9866 159.092 68.1086 222.86C57.164 257.991 69.8222 273.98 78.3398 280.393C83.0682 283.953 95.2174 286.652 109.288 287.269C124.932 287.954 139.161 285.946 148.32 281.763C155.712 278.386 159.659 273.74 160.053 267.957C160.063 267.825 160.121 267.7 160.217 267.608C160.313 267.516 160.44 267.463 160.573 267.459L171.328 267.075L174.425 236.464H166.201C166.085 236.465 165.971 236.427 165.877 236.356C165.784 236.285 165.716 236.186 165.685 236.074C165.646 235.937 161.76 222.666 145.968 221.064C122.52 218.683 103.391 227.516 96.1888 230.825C94.9055 231.417 93.9806 231.843 93.4249 232.03C93.3578 232.052 93.2872 232.061 93.2166 232.056C93.1461 232.051 93.0772 232.032 93.0139 232.001C92.9507 231.969 92.8943 231.925 92.848 231.872C92.8017 231.818 92.7664 231.756 92.744 231.689C92.7217 231.622 92.7127 231.551 92.7178 231.481C92.7228 231.41 92.7414 231.341 92.7731 231.278C92.8047 231.215 92.8485 231.159 92.9019 231.112C92.9553 231.066 93.0176 231.03 93.0846 231.008C93.5865 230.84 94.4861 230.424 95.7372 229.85C103.011 226.495 122.337 217.586 146.076 219.992C161.046 221.512 165.793 233.095 166.596 235.407H175.024C175.099 235.407 175.174 235.423 175.243 235.453C175.313 235.484 175.375 235.53 175.425 235.586C175.475 235.642 175.513 235.708 175.537 235.78C175.56 235.851 175.569 235.927 175.561 236.002L172.335 267.667C172.321 267.796 172.262 267.916 172.167 268.005C172.072 268.094 171.949 268.146 171.819 268.151L161.064 268.534C160.462 274.514 156.318 279.289 148.747 282.759C139.842 286.817 127.359 288.491 115.232 288.491Z" fill="black"/>
<path d="M158.59 270.208C158.751 260.888 163.924 244.104 166.34 236.762H173.822L170.785 266.749L160.156 267.129C159.707 268.191 159.183 269.22 158.59 270.208V270.208Z" fill="#0598C6"/>
<path d="M134.16 149.859C135.724 149.859 136.992 148.591 136.992 147.027C136.992 145.463 135.724 144.195 134.16 144.195C132.596 144.195 131.328 145.463 131.328 147.027C131.328 148.591 132.596 149.859 134.16 149.859Z" fill="#51CEF4"/>
<path d="M104.902 190.344C106.467 190.344 107.734 189.076 107.734 187.512C107.734 185.948 106.467 184.68 104.902 184.68C103.338 184.68 102.07 185.948 102.07 187.512C102.07 189.076 103.338 190.344 104.902 190.344Z" fill="#51CEF4"/>
<path d="M131.356 207.981C132.92 207.981 134.187 206.713 134.187 205.148C134.187 203.584 132.92 202.316 131.356 202.316C129.792 202.316 128.523 203.584 128.523 205.148C128.523 206.713 129.792 207.981 131.356 207.981Z" fill="#51CEF4"/>
<path d="M74.838 223.211C76.4021 223.211 77.6702 221.943 77.6702 220.379C77.6702 218.815 76.4021 217.547 74.838 217.547C73.2739 217.547 72.0059 218.815 72.0059 220.379C72.0059 221.943 73.2739 223.211 74.838 223.211Z" fill="#51CEF4"/>
<path d="M102.094 268.906C103.658 268.906 104.926 267.638 104.926 266.074C104.926 264.51 103.658 263.242 102.094 263.242C100.53 263.242 99.2617 264.51 99.2617 266.074C99.2617 267.638 100.53 268.906 102.094 268.906Z" fill="#51CEF4"/>
<path d="M128.551 246.859C130.115 246.859 131.383 245.591 131.383 244.027C131.383 242.463 130.115 241.195 128.551 241.195C126.987 241.195 125.719 242.463 125.719 244.027C125.719 245.591 126.987 246.859 128.551 246.859Z" fill="#51CEF4"/>
<path d="M134.16 273.313C135.724 273.313 136.992 272.045 136.992 270.481C136.992 268.916 135.724 267.648 134.16 267.648C132.596 267.648 131.328 268.916 131.328 270.481C131.328 272.045 132.596 273.313 134.16 273.313Z" fill="#51CEF4"/>
<path d="M93.45 237.47C93.3288 237.47 93.211 237.43 93.1157 237.355C93.0204 237.28 92.9531 237.175 92.9249 237.057C92.8967 236.94 92.9092 236.816 92.9603 236.706C93.0113 236.596 93.0981 236.506 93.2064 236.452C112.998 226.454 125.251 225.339 132.045 226.178C139.544 227.095 142.261 230.444 142.373 230.587C142.42 230.642 142.456 230.706 142.478 230.775C142.5 230.844 142.509 230.917 142.502 230.989C142.495 231.062 142.473 231.132 142.439 231.196C142.404 231.26 142.357 231.316 142.3 231.361C142.243 231.406 142.178 231.439 142.108 231.458C142.037 231.477 141.964 231.482 141.892 231.472C141.82 231.462 141.751 231.437 141.689 231.4C141.627 231.362 141.573 231.313 141.53 231.254C141.502 231.214 138.888 228.06 131.769 227.228C125.129 226.45 113.127 227.587 93.6937 237.413C93.618 237.451 93.5347 237.47 93.45 237.47V237.47Z" fill="white"/>
<path d="M174.881 236.162C174.881 236.162 187.991 197.446 201.903 220.815L224.778 217.635C224.778 217.635 234.077 227.003 217.25 235.341C217.25 235.341 219.086 243.748 213.93 249.792C213.93 249.792 218.107 255.886 205.943 264.228C193.78 272.57 172.633 267.512 172.633 267.512L174.881 236.162Z" fill="#FFCDB2"/>
<path d="M186.759 269.6C181.97 269.589 177.196 269.063 172.52 268.03C172.396 268.001 172.287 267.928 172.212 267.826C172.137 267.723 172.101 267.597 172.111 267.471L174.359 236.121C174.363 236.076 174.373 236.032 174.387 235.989C174.692 235.085 181.991 213.845 191.785 212.812C195.459 212.425 198.954 214.92 202.181 220.233L224.708 217.104C224.791 217.092 224.875 217.099 224.954 217.126C225.033 217.153 225.105 217.198 225.163 217.258C225.3 217.394 228.522 220.703 227.766 225.245C227.121 229.131 223.787 232.626 217.85 235.641C218.152 237.433 218.979 244.413 214.577 249.855C215.319 251.343 217.187 257.161 206.242 264.675C200.61 268.536 193.19 269.6 186.759 269.6ZM173.215 267.091C176.309 267.747 194.785 271.249 205.651 263.789C217.166 255.881 213.652 250.332 213.495 250.102C213.43 250.004 213.398 249.888 213.405 249.77C213.411 249.653 213.455 249.54 213.53 249.45C218.449 243.685 216.757 235.54 216.735 235.469C216.711 235.351 216.725 235.229 216.777 235.121C216.829 235.013 216.915 234.924 217.022 234.87C222.851 232.002 226.113 228.693 226.701 225.094C227.275 221.674 225.196 218.953 224.55 218.222L201.966 221.362C201.861 221.376 201.755 221.359 201.66 221.313C201.565 221.267 201.486 221.195 201.431 221.104C198.377 215.974 195.158 213.547 191.874 213.895C183.009 214.831 175.853 234.988 175.384 236.286L173.215 267.091Z" fill="black"/>
<path d="M194.381 223.12C194.239 223.136 194.096 223.094 193.984 223.004C193.872 222.915 193.8 222.784 193.784 222.641C193.769 222.499 193.811 222.356 193.9 222.244C193.99 222.132 194.12 222.06 194.263 222.045L201.791 220.295C201.928 220.268 202.07 220.296 202.187 220.371C202.304 220.447 202.387 220.565 202.419 220.701C202.45 220.837 202.428 220.979 202.356 221.099C202.285 221.218 202.17 221.306 202.035 221.342L194.507 223.091C194.467 223.107 194.424 223.116 194.381 223.12V223.12Z" fill="black"/>
<path d="M199.726 241.108C198.911 241.115 198.096 241.073 197.285 240.982C197.142 240.964 197.013 240.889 196.925 240.775C196.837 240.661 196.798 240.517 196.817 240.375C196.836 240.232 196.91 240.103 197.024 240.015C197.138 239.927 197.282 239.888 197.425 239.907C197.525 239.907 207.462 241.133 216.783 234.784C216.841 234.738 216.907 234.705 216.979 234.686C217.05 234.667 217.125 234.663 217.198 234.674C217.27 234.685 217.34 234.711 217.403 234.75C217.465 234.79 217.519 234.841 217.561 234.902C217.602 234.963 217.631 235.032 217.645 235.104C217.659 235.177 217.658 235.251 217.641 235.323C217.625 235.395 217.595 235.463 217.551 235.522C217.508 235.582 217.453 235.632 217.389 235.669C212.172 239.195 206.023 241.088 199.726 241.108V241.108Z" fill="black"/>
<path d="M198.137 254.962C196.979 254.962 196.237 254.904 196.122 254.894C196.052 254.888 195.983 254.868 195.92 254.835C195.857 254.803 195.801 254.758 195.755 254.704C195.709 254.649 195.675 254.586 195.654 254.519C195.632 254.451 195.625 254.38 195.631 254.309C195.646 254.168 195.715 254.038 195.824 253.946C195.933 253.855 196.074 253.811 196.215 253.822C196.327 253.822 207.418 254.718 213.882 249C213.934 248.953 213.996 248.917 214.063 248.893C214.129 248.87 214.2 248.86 214.271 248.864C214.341 248.868 214.41 248.886 214.474 248.917C214.538 248.947 214.595 248.99 214.642 249.043C214.689 249.096 214.725 249.157 214.748 249.224C214.771 249.291 214.782 249.361 214.778 249.432C214.774 249.502 214.756 249.572 214.725 249.635C214.694 249.699 214.651 249.756 214.599 249.803C209.433 254.374 201.758 254.962 198.137 254.962Z" fill="black"/>
<path d="M190.835 266.906C186.236 266.906 183.375 265.49 183.253 265.429C183.126 265.365 183.029 265.253 182.984 265.117C182.939 264.982 182.95 264.834 183.015 264.707C183.079 264.58 183.191 264.483 183.326 264.438C183.462 264.393 183.61 264.404 183.737 264.469C183.866 264.533 195.46 270.115 209.19 257.93C209.242 257.883 209.304 257.846 209.371 257.823C209.437 257.8 209.508 257.79 209.579 257.794C209.649 257.798 209.718 257.816 209.782 257.846C209.845 257.877 209.903 257.92 209.95 257.973C209.997 258.025 210.033 258.087 210.056 258.154C210.079 258.22 210.09 258.291 210.086 258.362C210.082 258.432 210.064 258.501 210.033 258.565C210.002 258.629 209.959 258.686 209.907 258.733C202.443 265.354 195.617 266.831 191.204 266.903L190.835 266.906Z" fill="white"/>
<path d="M197.573 252.123C197.075 252.123 196.759 252.123 196.68 252.123C196.61 252.122 196.541 252.106 196.476 252.077C196.412 252.048 196.354 252.007 196.305 251.956C196.257 251.904 196.22 251.844 196.195 251.778C196.17 251.712 196.158 251.642 196.16 251.571C196.161 251.5 196.177 251.43 196.205 251.365C196.234 251.3 196.276 251.241 196.327 251.193C196.379 251.144 196.441 251.107 196.507 251.082C196.574 251.058 196.645 251.048 196.716 251.051C196.863 251.051 211.296 251.471 214.046 245.502C214.072 245.433 214.112 245.371 214.163 245.318C214.215 245.265 214.276 245.224 214.345 245.196C214.413 245.168 214.486 245.155 214.559 245.156C214.633 245.158 214.705 245.175 214.772 245.205C214.839 245.236 214.899 245.28 214.948 245.335C214.997 245.39 215.035 245.454 215.058 245.524C215.081 245.594 215.09 245.668 215.084 245.741C215.077 245.814 215.056 245.885 215.021 245.95C212.368 251.697 200.911 252.123 197.573 252.123Z" fill="white"/>
<path d="M199.987 237.733C199.917 237.737 199.845 237.728 199.779 237.705C199.712 237.682 199.65 237.646 199.597 237.6C199.544 237.553 199.5 237.496 199.469 237.432C199.438 237.369 199.42 237.3 199.415 237.229C199.411 237.159 199.42 237.088 199.443 237.021C199.466 236.954 199.502 236.892 199.549 236.839C199.595 236.786 199.652 236.743 199.716 236.711C199.779 236.68 199.848 236.662 199.919 236.657C200.102 236.636 218.04 234.284 222.862 226.322C222.897 226.259 222.945 226.204 223.002 226.159C223.059 226.115 223.125 226.083 223.195 226.065C223.265 226.046 223.338 226.042 223.409 226.053C223.481 226.063 223.549 226.088 223.611 226.125C223.673 226.163 223.727 226.213 223.769 226.272C223.811 226.33 223.841 226.397 223.856 226.468C223.872 226.538 223.873 226.611 223.86 226.682C223.847 226.754 223.82 226.821 223.78 226.882C218.678 235.288 200.801 237.636 200.044 237.726L199.987 237.733Z" fill="white"/>
<path d="M165.972 55.6306C174.329 55.6306 181.103 48.8559 181.103 40.4989C181.103 32.1419 174.329 25.3672 165.972 25.3672C157.615 25.3672 150.84 32.1419 150.84 40.4989C150.84 48.8559 157.615 55.6306 165.972 55.6306Z" fill="#382256"/>
<path d="M165.971 25.3645C169.331 25.3668 172.595 26.487 175.248 28.5488C177.902 30.6106 179.793 33.4966 180.625 36.7521C181.457 40.0075 181.182 43.4474 179.844 46.5293C178.505 49.6113 176.179 52.1602 173.232 53.7743C170.285 55.3884 166.885 55.976 163.567 55.4445C160.249 54.9129 157.202 53.2925 154.907 50.8385C152.612 48.3845 151.199 45.2364 150.89 41.8905C150.581 38.5446 151.394 35.1912 153.202 32.3586C154.567 30.2098 156.454 28.4416 158.687 27.2187C160.919 25.9957 163.425 25.3579 165.971 25.3645ZM165.971 24.2891C162.069 24.2847 158.296 25.6881 155.345 28.2418C152.394 30.7954 150.463 34.3279 149.908 38.1905C149.352 42.0531 150.208 45.9866 152.319 49.2687C154.43 52.5509 157.654 54.9614 161.399 56.0577C165.144 57.154 169.159 56.8624 172.707 55.2366C176.254 53.6108 179.096 50.7598 180.711 47.2071C182.326 43.6544 182.604 39.6384 181.496 35.8966C180.388 32.1549 177.968 28.9384 174.679 26.8379C172.08 25.1727 169.058 24.2881 165.971 24.2891V24.2891Z" fill="black"/>
<path d="M203.252 91.5709C203.252 91.5709 214.645 83.548 211.139 73.6932C207.633 63.8384 205.102 64.4012 203.611 59.0885C202.12 53.7757 193.462 47.7138 184.844 49.2839C184.844 49.2839 175.255 40.44 165.615 41.9062C155.975 43.3725 152.243 47.513 148.82 54.5788C145.396 61.6445 142.407 64.6164 139.829 69.5133C137.252 74.4102 132.724 88.3947 151.598 100.974C170.472 113.553 203.252 91.5709 203.252 91.5709Z" fill="#382256"/>
<path d="M167.82 41.7422C176.664 41.7422 184.845 49.2704 184.845 49.2704C185.776 49.1007 186.72 49.0155 187.666 49.0159C195.269 49.0159 202.271 54.343 203.611 59.075C205.117 64.3878 207.651 63.8286 211.14 73.6798C214.628 83.531 203.253 91.5574 203.253 91.5574C203.253 91.5574 183.428 104.85 165.737 104.85C160.675 104.85 155.786 103.775 151.588 100.961C132.713 88.3812 137.248 74.3823 139.819 69.4997C142.389 64.6172 145.39 61.6131 148.81 54.5652C152.229 47.5174 155.979 43.3553 165.605 41.8927C166.334 41.7811 167.071 41.726 167.809 41.7278L167.82 41.7422ZM167.809 40.6524C167.017 40.6508 166.226 40.7095 165.443 40.828C155.356 42.3588 151.351 46.8506 147.842 54.092C146.277 57.2874 144.463 60.3548 142.418 63.2657C141.128 65.1092 139.943 67.0242 138.869 69.0015C136.686 73.1478 135.891 77.8847 136.6 82.5164C137.75 89.7542 142.593 96.2608 150.993 101.875C155.04 104.574 160.001 105.944 165.737 105.944C175.058 105.944 184.945 102.273 191.581 99.1968C195.826 97.2485 199.926 94.9998 203.851 92.468H203.873C205.959 90.9145 207.811 89.0698 209.372 86.9903C212.753 82.4519 213.713 77.7378 212.154 73.3678C210.161 67.7539 208.458 65.413 207.089 63.531C206.013 62.0684 205.253 61.0215 204.637 58.8276C203.203 53.7013 195.854 47.9906 187.655 47.987C186.815 47.9868 185.976 48.0491 185.146 48.1734C183.353 46.6283 175.933 40.699 167.791 40.699L167.809 40.6524Z" fill="black"/>
<path d="M167.172 77.615H167.126C160.404 77.0127 154.539 69.8609 154.292 69.5562C154.202 69.4455 154.16 69.3035 154.175 69.1617C154.19 69.0198 154.26 68.8896 154.371 68.7998C154.482 68.7099 154.624 68.6678 154.765 68.6826C154.907 68.6974 155.038 68.7679 155.127 68.8786C155.185 68.9503 160.957 75.9803 167.219 76.5431C167.362 76.5493 167.496 76.6118 167.592 76.717C167.689 76.8222 167.74 76.9615 167.734 77.1041C167.727 77.2467 167.665 77.381 167.56 77.4775C167.454 77.574 167.315 77.6248 167.172 77.6186V77.615Z" fill="black"/>
<path d="M167.045 73.2666C165.517 73.2579 163.996 73.0445 162.525 72.6321C162.387 72.5941 162.27 72.5028 162.199 72.3785C162.129 72.2541 162.11 72.1068 162.148 71.9689C162.186 71.8311 162.278 71.714 162.402 71.6434C162.527 71.5728 162.674 71.5545 162.812 71.5925C175.613 75.0985 180.955 62.2719 181.177 61.7377C181.203 61.6723 181.243 61.6127 181.292 61.5624C181.342 61.5122 181.401 61.4722 181.466 61.4447C181.531 61.4173 181.601 61.4028 181.671 61.4024C181.742 61.4019 181.812 61.4154 181.878 61.442C181.943 61.4686 182.003 61.5078 182.053 61.5574C182.103 61.6071 182.143 61.6661 182.171 61.7312C182.198 61.7963 182.213 61.866 182.213 61.9367C182.214 62.0073 182.2 62.0773 182.174 62.1428C182.102 62.2683 177.542 73.2666 167.045 73.2666Z" fill="white"/>
<path d="M174.422 108.66C174.422 108.66 199.272 132.32 163.997 128.302C163.997 128.302 156.784 139.927 144.356 133.514C131.927 127.101 137.544 115.475 146.359 112.668C154.01 110.234 174.422 108.66 174.422 108.66Z" fill="white"/>
<path d="M151.631 135.974C148.998 135.931 146.415 135.251 144.102 133.992C138.915 131.314 136.262 127.424 136.632 123.04C137.033 118.297 140.962 113.819 146.189 112.156C153.81 109.733 173.534 108.191 174.369 108.127C174.444 108.121 174.52 108.131 174.591 108.156C174.662 108.181 174.727 108.222 174.782 108.274C175.233 108.704 185.823 118.881 182.955 125.019C181.213 128.75 174.921 130.037 164.253 128.872C163.303 130.235 158.833 135.974 151.631 135.974ZM174.215 109.217C171.892 109.403 153.577 110.937 146.522 113.181C141.776 114.694 138.069 118.878 137.711 123.129C137.381 127.055 139.826 130.572 144.601 133.034C149.573 135.601 154.28 135.544 158.549 132.859C160.526 131.603 162.224 129.956 163.539 128.019C163.592 127.932 163.669 127.862 163.761 127.818C163.852 127.773 163.955 127.756 164.056 127.768C174.265 128.93 180.467 127.822 181.98 124.563C184.353 119.509 175.567 110.546 174.215 109.217Z" fill="black"/>
<path d="M151.043 26.07C150.957 26.0689 150.873 26.0476 150.797 26.0077C150.721 25.9679 150.656 25.9105 150.607 25.8406C150.557 25.7706 150.525 25.6899 150.513 25.6051C150.501 25.5204 150.509 25.434 150.537 25.353C151.77 21.8828 153.817 19.4558 156.631 18.1366C161.564 15.8136 167.027 17.7567 167.257 17.8427C167.381 17.8973 167.48 17.997 167.534 18.1216C167.588 18.2463 167.593 18.3868 167.548 18.5148C167.502 18.6428 167.41 18.7489 167.29 18.8117C167.169 18.8746 167.029 18.8896 166.898 18.8536C166.848 18.8321 161.618 16.9787 157.094 19.1153C154.563 20.309 152.706 22.5281 151.576 25.7151C151.536 25.8231 151.463 25.9156 151.367 25.9794C151.271 26.0431 151.158 26.0749 151.043 26.07V26.07Z" fill="black"/>
<path d="M155.953 36.2763C155.86 36.2766 155.768 36.2525 155.687 36.2064C155.606 36.1603 155.538 36.0937 155.49 36.0134C155.442 35.933 155.416 35.8416 155.414 35.7482C155.412 35.6547 155.435 35.5625 155.48 35.4805C157.334 32.0426 159.761 29.9418 162.7 29.2392C167.461 28.0992 171.77 31.0316 171.953 31.1679C172.07 31.2492 172.15 31.3738 172.176 31.5143C172.201 31.6548 172.17 31.7997 172.089 31.9171C172.008 32.0346 171.883 32.1149 171.742 32.1404C171.602 32.1659 171.457 32.1346 171.34 32.0533C171.3 32.0246 167.224 29.2572 162.94 30.2896C160.316 30.9205 158.126 32.8384 156.427 35.9931C156.38 36.0784 156.312 36.1496 156.229 36.1995C156.146 36.2493 156.05 36.2758 155.953 36.2763V36.2763Z" fill="white"/>
<path d="M173.042 112.231V118.243C173.042 118.243 162.62 133.877 142.57 121.05C142.57 121.05 152.4 106.918 157.663 90.1485C157.663 90.1485 150.246 88.1338 151.766 81.4874C153.286 74.8411 158.742 73.9592 161.835 75.9452C161.835 75.9452 173.848 85.248 187.851 59.9102C187.851 59.9102 200.817 66.0045 202.875 79.8384C204.933 93.6724 201.441 109.381 190.687 113.411C179.932 117.44 173.042 112.231 173.042 112.231Z" fill="#FFCDB2"/>
<path d="M187.858 59.9114C187.858 59.9114 200.824 66.0057 202.882 79.8397C204.94 93.6737 201.448 109.383 190.694 113.412C188.133 114.401 185.415 114.918 182.671 114.939C176.637 114.939 173.038 112.232 173.038 112.232V118.244C173.038 118.244 167.797 126.106 157.602 126.106C153.418 126.106 148.403 124.783 142.574 121.051C142.574 121.051 152.404 106.92 157.666 90.1498C157.666 90.1498 150.249 88.135 151.769 81.4887C152.845 76.8284 155.824 75.0181 158.58 75.0181C159.731 75.014 160.86 75.3358 161.835 75.9465C161.835 75.9465 163.987 77.6135 167.536 77.6135C172.364 77.6135 179.778 74.5233 187.851 59.9114H187.858ZM187.851 58.8359C187.658 58.8357 187.469 58.8872 187.303 58.9849C187.138 59.0826 187.001 59.2231 186.908 59.3916C179.079 73.5626 172.049 76.538 167.55 76.538C165.762 76.573 164.005 76.0737 162.502 75.1041L162.427 75.0503C161.278 74.3319 159.95 73.9518 158.595 73.9534C155.601 73.9534 151.966 75.8712 150.733 81.2593C150.016 84.4068 150.963 87.1385 153.486 89.146C154.36 89.8319 155.325 90.3918 156.354 90.8093C151.135 106.794 141.814 120.295 141.717 120.435C141.635 120.554 141.578 120.688 141.549 120.83C141.52 120.971 141.52 121.117 141.549 121.259C141.577 121.401 141.633 121.536 141.714 121.655C141.796 121.775 141.901 121.876 142.022 121.955C147.439 125.421 152.691 127.178 157.631 127.178C168.278 127.178 173.734 119.18 173.96 118.839C174.079 118.662 174.142 118.454 174.142 118.241V114.1C176.812 115.382 179.739 116.035 182.699 116.011C185.573 115.987 188.419 115.447 191.102 114.416C196.408 112.422 200.398 107.651 202.635 100.621C204.588 94.4803 205.065 87.0417 203.968 79.6784C203.094 73.7813 200.115 68.3251 195.365 63.905C193.274 61.9253 190.911 60.2535 188.349 58.9399C188.207 58.8708 188.052 58.8352 187.894 58.8359H187.851Z" fill="black"/>
<path d="M173.241 113.371C173.183 113.37 173.124 113.36 173.069 113.342C166.975 111.302 162.526 104.871 162.34 104.599C162.259 104.481 162.229 104.336 162.255 104.196C162.282 104.055 162.363 103.931 162.481 103.851C162.599 103.771 162.744 103.741 162.884 103.767C163.024 103.794 163.148 103.875 163.228 103.993C163.271 104.057 167.645 110.399 173.41 112.32C173.532 112.359 173.637 112.441 173.705 112.551C173.773 112.661 173.799 112.791 173.778 112.918C173.758 113.046 173.692 113.161 173.594 113.244C173.495 113.327 173.37 113.372 173.241 113.371V113.371Z" fill="black"/>
<path d="M157.852 86.9954C157.755 86.9956 157.659 86.9694 157.575 86.9195C157.491 86.8697 157.422 86.798 157.376 86.7122C156.013 84.1526 155.766 82.0842 156.641 80.5606C157.903 78.3667 160.982 78.2268 161.115 78.2233C161.185 78.2199 161.256 78.2307 161.322 78.2549C161.388 78.2792 161.45 78.3164 161.501 78.3645C161.553 78.4126 161.594 78.4705 161.624 78.5349C161.653 78.5993 161.669 78.6688 161.67 78.7395C161.675 78.8818 161.624 79.0205 161.527 79.1252C161.431 79.2299 161.296 79.2922 161.154 79.2987C161.122 79.2987 158.53 79.4278 157.569 81.0911C156.895 82.2706 157.15 83.9877 158.326 86.196C158.358 86.2577 158.378 86.3252 158.385 86.3946C158.391 86.464 158.384 86.5339 158.363 86.6005C158.343 86.6671 158.309 86.7289 158.264 86.7826C158.22 86.8362 158.165 86.8805 158.103 86.913C158.028 86.9614 157.942 86.9898 157.852 86.9954V86.9954Z" fill="black"/>
<path d="M187.282 80.3285C179.51 80.9164 169.773 76.2239 167.658 78.6831C165.543 81.1423 166.385 84.9423 170.357 86.3906C174.329 87.8388 178.409 88.2655 186.812 88.7351C195.215 89.2047 203.485 89.0397 203.137 84.4655C202.789 79.8912 198.714 79.4646 187.282 80.3285Z" fill="#FFB49F"/>
<path d="M196.221 81.9955H196.168C192.819 81.6692 190.841 78.3891 190.758 78.2493C190.688 78.1268 190.669 77.9817 190.705 77.8454C190.741 77.7091 190.83 77.5924 190.951 77.5205C191.072 77.4486 191.217 77.4272 191.354 77.4609C191.491 77.4946 191.609 77.5808 191.683 77.7008C191.708 77.7402 193.475 80.6512 196.275 80.9272C196.418 80.9343 196.552 80.9978 196.648 81.1037C196.743 81.2096 196.793 81.3492 196.786 81.4918C196.779 81.6344 196.715 81.7683 196.61 81.8641C196.504 81.9599 196.364 82.0098 196.221 82.0026V81.9955Z" fill="black"/>
<path d="M188.078 94.2567C187.955 94.256 187.835 94.2129 187.739 94.1347C187.643 94.0564 187.577 93.9477 187.552 93.8265L184.992 81.4873C184.963 81.3476 184.99 81.2021 185.069 81.0827C185.147 80.9634 185.27 80.8801 185.409 80.8511C185.549 80.8221 185.695 80.8498 185.814 80.9281C185.933 81.0064 186.017 81.129 186.046 81.2687L188.605 93.6078C188.62 93.677 188.621 93.7485 188.608 93.818C188.595 93.8876 188.569 93.9539 188.53 94.0132C188.491 94.0725 188.441 94.1235 188.383 94.1635C188.325 94.2034 188.259 94.2314 188.19 94.2459L188.078 94.2567Z" fill="black"/>
<path d="M154.614 92.2199C155.982 92.2199 157.091 91.1108 157.091 89.7427C157.091 88.3746 155.982 87.2656 154.614 87.2656C153.246 87.2656 152.137 88.3746 152.137 89.7427C152.137 91.1108 153.246 92.2199 154.614 92.2199Z" fill="#07ACEE"/>
<path d="M154.618 87.2669C155.089 87.2665 155.551 87.4022 155.948 87.6576C156.399 87.9463 156.744 88.3733 156.932 88.8747C157.12 89.3761 157.14 89.9248 156.99 90.4388C156.84 90.9528 156.527 91.4042 156.099 91.7255C155.671 92.0469 155.15 92.2208 154.614 92.2212C154.142 92.2222 153.68 92.0864 153.284 91.8304C152.833 91.5417 152.488 91.1147 152.3 90.6133C152.112 90.1119 152.091 89.5631 152.242 89.0491C152.392 88.5352 152.705 88.0837 153.133 87.7624C153.561 87.4411 154.082 87.2673 154.618 87.2669V87.2669ZM154.618 86.1914C153.763 86.1908 152.936 86.4986 152.29 87.0584C151.643 87.6182 151.22 88.3922 151.099 89.2386C150.977 90.085 151.165 90.947 151.627 91.6661C152.09 92.3852 152.796 92.9133 153.617 93.1535C154.438 93.3937 155.318 93.3299 156.095 92.9737C156.872 92.6175 157.495 91.9928 157.849 91.2144C158.203 90.436 158.264 89.556 158.022 88.7361C157.779 87.9161 157.249 87.2112 156.528 86.7507C155.958 86.3852 155.295 86.1911 154.618 86.1914V86.1914Z" fill="black"/>
<path d="M174.882 86.4479C175.656 86.4479 176.284 85.8204 176.284 85.0463C176.284 84.2721 175.656 83.6445 174.882 83.6445C174.108 83.6445 173.48 84.2721 173.48 85.0463C173.48 85.8204 174.108 86.4479 174.882 86.4479Z" fill="black"/>
<path d="M194.124 87.651C194.899 87.651 195.526 87.0234 195.526 86.2493C195.526 85.4752 194.899 84.8477 194.124 84.8477C193.35 84.8477 192.723 85.4752 192.723 86.2493C192.723 87.0234 193.35 87.651 194.124 87.651Z" fill="black"/>
<path d="M182.499 104.024C182.413 104.024 182.328 104.003 182.251 103.963C182.174 103.923 182.108 103.865 182.058 103.794C179.456 100.073 171.684 100.367 171.609 100.374C171.538 100.377 171.467 100.366 171.401 100.342C171.335 100.318 171.273 100.281 171.221 100.233C171.169 100.185 171.127 100.128 171.097 100.064C171.067 99.9998 171.05 99.9305 171.047 99.8599C171.044 99.7893 171.055 99.7188 171.079 99.6524C171.103 99.5859 171.141 99.5249 171.188 99.4728C171.236 99.4208 171.294 99.3785 171.358 99.3487C171.422 99.3188 171.491 99.3019 171.562 99.2989C171.902 99.2989 179.997 98.9726 182.937 103.178C182.977 103.235 183.007 103.3 183.022 103.369C183.037 103.438 183.039 103.509 183.027 103.578C183.014 103.648 182.988 103.714 182.95 103.773C182.912 103.833 182.862 103.883 182.804 103.923C182.716 103.988 182.609 104.023 182.499 104.024V104.024Z" fill="black"/>
<path d="M176.791 80.1059C176.721 80.1118 176.65 80.1037 176.582 80.0821C176.515 80.0605 176.452 80.0258 176.398 79.98C176.344 79.9343 176.299 79.8783 176.267 79.8153C176.235 79.7523 176.215 79.6836 176.209 79.613C176.203 79.5424 176.211 79.4713 176.233 79.4038C176.254 79.3363 176.289 79.2737 176.335 79.2196C176.381 79.1655 176.436 79.121 176.499 79.0886C176.562 79.0561 176.631 79.0363 176.702 79.0304C176.745 79.0304 181.083 78.2561 181.545 75.5853C181.57 75.4427 181.65 75.3158 181.769 75.2325C181.887 75.1491 182.033 75.1161 182.176 75.1408C182.319 75.1655 182.446 75.2459 182.529 75.3643C182.612 75.4826 182.645 75.6292 182.621 75.7718C182.026 79.1881 177.104 80.0736 176.885 80.0915C176.855 80.1002 176.823 80.105 176.791 80.1059V80.1059Z" fill="black"/>
<path d="M145.965 120.022C145.833 120.025 145.705 119.977 145.606 119.89C145.553 119.843 145.509 119.787 145.478 119.723C145.446 119.66 145.428 119.591 145.423 119.52C145.418 119.45 145.428 119.379 145.451 119.312C145.473 119.245 145.509 119.183 145.556 119.13C151.044 112.86 156.629 99.3736 156.687 99.2374C156.713 99.1706 156.752 99.1098 156.801 99.0583C156.851 99.0068 156.911 98.9658 156.977 98.9377C157.043 98.9096 157.114 98.8949 157.186 98.8945C157.257 98.8942 157.328 98.9082 157.394 98.9357C157.46 98.9631 157.52 99.0035 157.571 99.0545C157.621 99.1055 157.661 99.166 157.687 99.2325C157.714 99.2991 157.727 99.3703 157.726 99.4419C157.724 99.5135 157.709 99.5841 157.68 99.6497C157.45 100.209 151.969 113.433 146.366 119.84C146.315 119.897 146.254 119.942 146.185 119.974C146.116 120.005 146.041 120.022 145.965 120.022V120.022Z" fill="white"/>
<path d="M316.921 197.374C316.921 197.374 300.85 206.928 308.934 217.066C317.018 227.204 329.762 219.131 329.826 207.408C329.891 195.686 320.796 191.079 316.458 186.562" fill="#FFCDB2"/>
<path d="M317.518 222.24C314.198 222.24 311.036 220.577 308.513 217.415C306.516 214.905 305.767 212.224 306.276 209.421C307.559 202.401 316.274 197.146 316.643 196.927C316.704 196.89 316.771 196.865 316.842 196.854C316.912 196.843 316.985 196.846 317.054 196.863C317.123 196.88 317.189 196.911 317.246 196.953C317.303 196.996 317.352 197.049 317.388 197.111C317.424 197.172 317.448 197.24 317.458 197.311C317.468 197.382 317.463 197.454 317.445 197.523C317.427 197.592 317.395 197.656 317.352 197.713C317.308 197.77 317.254 197.817 317.192 197.852C317.106 197.902 308.527 203.079 307.333 209.618C306.882 212.099 307.563 214.497 309.355 216.744C312.449 220.623 316.568 222.036 320.655 220.62C325.706 218.867 329.258 213.45 329.287 207.42C329.334 198.404 323.788 193.69 319.332 189.905C318.131 188.883 316.995 187.915 316.066 186.951C315.967 186.848 315.913 186.709 315.916 186.566C315.919 186.424 315.979 186.288 316.082 186.189C316.185 186.09 316.323 186.036 316.466 186.039C316.609 186.042 316.745 186.102 316.844 186.205C317.733 187.134 318.848 188.08 320.031 189.073C324.655 193.016 330.427 197.899 330.362 207.413C330.327 213.866 326.48 219.724 321.006 221.623C319.886 222.023 318.707 222.231 317.518 222.24V222.24Z" fill="black"/>
<path d="M318.904 178.695C318.904 178.695 302.832 188.248 310.92 198.386C319.007 208.524 331.748 200.451 331.813 188.729C331.877 177.006 322.782 172.4 318.441 167.883" fill="#FFCDB2"/>
<path d="M319.508 203.544C316.184 203.544 313.026 201.884 310.502 198.719C308.506 196.209 307.753 193.528 308.265 190.728C309.545 183.705 318.26 178.454 318.633 178.231C318.755 178.162 318.9 178.143 319.037 178.179C319.173 178.215 319.29 178.303 319.362 178.424C319.433 178.546 319.455 178.69 319.421 178.827C319.387 178.964 319.301 179.082 319.181 179.156C319.095 179.21 310.513 184.383 309.323 190.922C308.871 193.402 309.549 195.801 311.341 198.048C314.438 201.931 318.554 203.34 322.641 201.924C327.692 200.171 331.244 194.754 331.277 188.724C331.323 179.712 325.777 174.998 321.321 171.209C320.12 170.187 318.984 169.223 318.056 168.255C317.956 168.153 317.9 168.017 317.9 167.875C317.9 167.733 317.956 167.596 318.056 167.495C318.105 167.444 318.165 167.404 318.23 167.377C318.295 167.35 318.365 167.336 318.436 167.336C318.506 167.336 318.576 167.35 318.641 167.377C318.707 167.404 318.766 167.444 318.816 167.495C319.708 168.423 320.823 169.37 322.003 170.363C326.631 174.306 332.399 179.188 332.338 188.706C332.302 195.159 328.455 201.017 322.978 202.917C321.864 203.318 320.691 203.53 319.508 203.544V203.544Z" fill="black"/>
<path d="M317.897 162.915C317.897 162.915 301.826 172.465 309.91 182.603C317.994 192.741 330.738 184.668 330.803 172.945C330.868 161.223 323.157 161.373 317.582 160.004" fill="#FFCDB2"/>
<path d="M318.496 187.763C315.176 187.763 312.014 186.1 309.49 182.938C307.494 180.428 306.741 177.747 307.254 174.944C308.537 167.921 317.252 162.669 317.621 162.45C317.682 162.413 317.749 162.388 317.82 162.377C317.89 162.366 317.962 162.369 318.032 162.386C318.101 162.403 318.166 162.434 318.224 162.476C318.281 162.519 318.329 162.572 318.366 162.634C318.402 162.695 318.426 162.763 318.436 162.834C318.445 162.905 318.441 162.977 318.423 163.046C318.405 163.115 318.373 163.179 318.329 163.236C318.286 163.292 318.231 163.34 318.169 163.375C318.083 163.425 309.505 168.598 308.311 175.141C307.859 177.622 308.541 180.02 310.333 182.267C313.427 186.146 317.546 187.559 321.629 186.139C326.683 184.39 330.232 178.969 330.265 172.943C330.315 163.149 324.909 162.06 319.675 161.006C318.901 160.848 318.169 160.701 317.452 160.525C317.381 160.511 317.314 160.482 317.255 160.441C317.195 160.399 317.145 160.347 317.106 160.285C317.068 160.224 317.042 160.156 317.03 160.084C317.019 160.013 317.022 159.94 317.039 159.869C317.057 159.799 317.088 159.733 317.132 159.675C317.175 159.618 317.23 159.569 317.292 159.533C317.355 159.497 317.425 159.474 317.496 159.465C317.568 159.456 317.641 159.462 317.711 159.482C318.406 159.651 319.127 159.798 319.89 159.952C325.017 160.984 331.397 162.267 331.34 172.947C331.304 179.4 327.458 185.257 321.984 187.157C320.863 187.553 319.684 187.758 318.496 187.763Z" fill="black"/>
<path d="M317.549 215.957C317.407 215.957 317.27 215.901 317.169 215.8C317.068 215.699 317.012 215.562 317.012 215.419C317.012 215.277 317.068 215.14 317.169 215.039C317.27 214.938 317.407 214.882 317.549 214.882V214.882C317.94 214.882 327.189 214.638 327.716 203.267C327.725 203.125 327.789 202.993 327.894 202.897C327.999 202.801 328.137 202.75 328.279 202.754C328.421 202.762 328.555 202.825 328.651 202.93C328.747 203.036 328.798 203.175 328.792 203.317C328.215 215.724 317.678 215.957 317.556 215.957H317.549Z" fill="white"/>
<path d="M318.463 201.385C318.321 201.395 318.18 201.348 318.072 201.254C317.964 201.161 317.898 201.028 317.888 200.885C317.878 200.743 317.925 200.602 318.019 200.494C318.112 200.386 318.245 200.32 318.388 200.31C318.746 200.256 327.684 198.876 329.272 188.917C329.283 188.846 329.308 188.779 329.345 188.718C329.382 188.657 329.431 188.604 329.489 188.562C329.547 188.519 329.612 188.489 329.681 188.472C329.751 188.456 329.823 188.453 329.893 188.464C329.964 188.475 330.032 188.499 330.093 188.537C330.154 188.574 330.207 188.623 330.249 188.681C330.291 188.738 330.322 188.804 330.338 188.873C330.355 188.943 330.358 189.015 330.347 189.086C328.626 199.84 318.65 201.36 318.549 201.374L318.463 201.385Z" fill="white"/>
<path d="M315.85 183.132H315.735C315.664 183.13 315.595 183.113 315.53 183.084C315.466 183.055 315.408 183.014 315.36 182.962C315.311 182.91 315.274 182.85 315.249 182.784C315.224 182.717 315.213 182.647 315.215 182.576C315.217 182.506 315.233 182.436 315.262 182.372C315.291 182.307 315.332 182.249 315.384 182.201C315.436 182.153 315.497 182.116 315.563 182.092C315.629 182.068 315.7 182.057 315.771 182.06C316.23 182.06 326.923 182.308 328.379 171.467C328.388 171.396 328.411 171.328 328.447 171.267C328.483 171.205 328.53 171.151 328.587 171.108C328.644 171.064 328.708 171.033 328.777 171.014C328.846 170.996 328.918 170.991 328.988 171.001C329.059 171.01 329.127 171.033 329.188 171.069C329.25 171.105 329.304 171.152 329.347 171.209C329.391 171.266 329.422 171.33 329.44 171.399C329.459 171.468 329.464 171.54 329.454 171.61C327.941 182.806 317.093 183.132 315.85 183.132Z" fill="white"/>
<path d="M336.421 173.767C336.373 173.769 336.325 173.763 336.278 173.75C336.143 173.708 336.03 173.615 335.963 173.491C335.896 173.367 335.88 173.222 335.92 173.086C337.683 166.831 336.213 161.615 331.553 157.578C329.289 155.672 326.678 154.221 323.864 153.305C323.792 153.289 323.724 153.259 323.665 153.216C323.605 153.173 323.555 153.119 323.517 153.056C323.48 152.993 323.456 152.923 323.446 152.85C323.436 152.777 323.442 152.703 323.462 152.633C323.482 152.562 323.516 152.496 323.563 152.44C323.609 152.383 323.667 152.336 323.732 152.302C323.797 152.269 323.869 152.249 323.942 152.243C324.015 152.238 324.088 152.248 324.157 152.273C324.333 152.319 341.458 157.413 336.955 173.377C336.922 173.492 336.852 173.593 336.755 173.663C336.659 173.734 336.541 173.771 336.421 173.767Z" fill="black"/>
<defs>
<filter id="filter0_d_15187_95058" x="-4.0192" y="107.785" width="38.6829" height="38.6829" filterUnits="userSpaceOnUse" color-interpolation-filters="sRGB">
<feFlood flood-opacity="0" result="BackgroundImageFix"/>
<feColorMatrix in="SourceAlpha" type="matrix" values="0 0 0 0 0 0 0 0 0 0 0 0 0 0 0 0 0 0 127 0" result="hardAlpha"/>
<feOffset dy="2.03704"/>
<feGaussianBlur stdDeviation="5.09261"/>
<feComposite in2="hardAlpha" operator="out"/>
<feColorMatrix type="matrix" values="0 0 0 0 0 0 0 0 0 0 0 0 0 0 0 0 0 0 0.05 0"/>
<feBlend mode="normal" in2="BackgroundImageFix" result="effect1_dropShadow_15187_95058"/>
<feBlend mode="normal" in="SourceGraphic" in2="effect1_dropShadow_15187_95058" result="shape"/>
</filter>
<filter id="filter1_d_15187_95058" x="370.651" y="165.211" width="38.6868" height="38.6907" filterUnits="userSpaceOnUse" color-interpolation-filters="sRGB">
<feFlood flood-opacity="0" result="BackgroundImageFix"/>
<feColorMatrix in="SourceAlpha" type="matrix" values="0 0 0 0 0 0 0 0 0 0 0 0 0 0 0 0 0 0 127 0" result="hardAlpha"/>
<feOffset dy="2.03704"/>
<feGaussianBlur stdDeviation="5.09261"/>
<feComposite in2="hardAlpha" operator="out"/>
<feColorMatrix type="matrix" values="0 0 0 0 0 0 0 0 0 0 0 0 0 0 0 0 0 0 0.05 0"/>
<feBlend mode="normal" in2="BackgroundImageFix" result="effect1_dropShadow_15187_95058"/>
<feBlend mode="normal" in="SourceGraphic" in2="effect1_dropShadow_15187_95058" result="shape"/>
</filter>
<linearGradient id="paint0_linear_15187_95058" x1="20.4547" y1="112.036" x2="392.053" y2="200.545" gradientUnits="userSpaceOnUse">
<stop stop-color="#CDD5E2"/>
<stop offset="1" stop-color="#CDD5E2" stop-opacity="0"/>
</linearGradient>
<linearGradient id="paint1_linear_15187_95058" x1="391.411" y1="195.436" x2="353.85" y2="294.043" gradientUnits="userSpaceOnUse">
<stop stop-color="#CDD5E2"/>
<stop offset="1" stop-color="#CDD5E2" stop-opacity="0"/>
</linearGradient>
<linearGradient id="paint2_linear_15187_95058" x1="196.502" y1="23.2617" x2="196.502" y2="365.007" gradientUnits="userSpaceOnUse">
<stop stop-color="#CDD5E2"/>
<stop offset="1" stop-color="#CDD5E2" stop-opacity="0"/>
</linearGradient>
<linearGradient id="paint3_linear_15187_95058" x1="196.505" y1="57.4336" x2="196.505" y2="330.83" gradientUnits="userSpaceOnUse">
<stop stop-color="#CDD5E2"/>
<stop offset="1" stop-color="#CDD5E2" stop-opacity="0"/>
</linearGradient>
</defs>
</svg>
