<svg width="217" height="162" viewBox="0 0 217 162" fill="none" xmlns="http://www.w3.org/2000/svg">
<mask id="mask0_1240_19849" style="mask-type:alpha" maskUnits="userSpaceOnUse" x="0" y="1" width="217" height="161">
<rect y="1" width="216.439" height="161" fill="#D9D9D9"/>
</mask>
<g mask="url(#mask0_1240_19849)">
<g opacity="0.5">
<mask id="path-2-inside-1_1240_19849" fill="white">
<path d="M207.988 109.035C209.063 84.3647 201.264 60.1257 186.004 40.7116C170.744 21.2975 149.033 7.99329 124.807 3.21047C100.581 -1.57234 75.4433 2.48283 53.9502 14.6409C32.4572 26.799 16.0314 46.2554 7.6503 69.4831L8.09812 69.6447C16.4405 46.524 32.7906 27.1574 54.1846 15.0553C75.5787 2.95325 100.601 -1.08323 124.715 3.67754C148.829 8.43831 170.44 21.6812 185.629 41.0058C200.819 60.3304 208.582 84.4576 207.512 109.014L207.988 109.035Z"/>
</mask>
<path d="M207.988 109.035C209.063 84.3647 201.264 60.1257 186.004 40.7116C170.744 21.2975 149.033 7.99329 124.807 3.21047C100.581 -1.57234 75.4433 2.48283 53.9502 14.6409C32.4572 26.799 16.0314 46.2554 7.6503 69.4831L8.09812 69.6447C16.4405 46.524 32.7906 27.1574 54.1846 15.0553C75.5787 2.95325 100.601 -1.08323 124.715 3.67754C148.829 8.43831 170.44 21.6812 185.629 41.0058C200.819 60.3304 208.582 84.4576 207.512 109.014L207.988 109.035Z" stroke="url(#paint0_linear_1240_19849)" stroke-width="1.51887" stroke-dasharray="2.28 2.28" mask="url(#path-2-inside-1_1240_19849)"/>
</g>
<g opacity="0.5">
<mask id="path-3-inside-2_1240_19849" fill="white">
<path d="M7.78827 139.972C16.2602 163.167 32.762 182.559 54.3025 194.632C75.843 206.706 100.997 210.663 125.204 205.785C149.411 200.908 171.069 187.519 186.253 168.045C201.437 148.571 209.141 124.302 207.969 99.6364L207.494 99.659C208.66 124.211 200.991 148.368 185.877 167.752C170.764 187.136 149.205 200.464 125.11 205.319C101.014 210.174 75.9765 206.235 54.5353 194.217C33.0941 182.199 16.6683 162.896 8.23545 139.809L7.78827 139.972Z"/>
</mask>
<path d="M7.78827 139.972C16.2602 163.167 32.762 182.559 54.3025 194.632C75.843 206.706 100.997 210.663 125.204 205.785C149.411 200.908 171.069 187.519 186.253 168.045C201.437 148.571 209.141 124.302 207.969 99.6364L207.494 99.659C208.66 124.211 200.991 148.368 185.877 167.752C170.764 187.136 149.205 200.464 125.11 205.319C101.014 210.174 75.9765 206.235 54.5353 194.217C33.0941 182.199 16.6683 162.896 8.23545 139.809L7.78827 139.972Z" stroke="url(#paint1_linear_1240_19849)" stroke-width="1.51887" stroke-dasharray="2.28 2.28" mask="url(#path-3-inside-2_1240_19849)"/>
</g>
<circle opacity="0.08" cx="104.802" cy="104.538" r="91.1321" fill="url(#paint2_linear_1240_19849)"/>
<circle opacity="0.1" cx="104.802" cy="104.537" r="72.9057" fill="url(#paint3_linear_1240_19849)"/>
<circle cx="104.802" cy="104.537" r="48.6038" fill="white"/>
<g filter="url(#filter0_d_1240_19849)">
<circle cx="8.17185" cy="67.7155" r="3.79717" transform="rotate(-2.50406 8.17185 67.7155)" fill="#0170FF"/>
<circle cx="8.17185" cy="67.7155" r="4.34038" transform="rotate(-2.50406 8.17185 67.7155)" stroke="white" stroke-width="1.08642"/>
</g>
<g filter="url(#filter1_d_1240_19849)">
<circle cx="207.994" cy="98.3439" r="3.79717" transform="rotate(-15.7345 207.994 98.3439)" fill="#0170FF"/>
<circle cx="207.994" cy="98.3439" r="4.34038" transform="rotate(-15.7345 207.994 98.3439)" stroke="white" stroke-width="1.08642"/>
</g>
</g>
<path d="M190.527 154.49H47.5512C47.4487 154.49 47.3502 154.449 47.2777 154.377C47.2052 154.304 47.1647 154.206 47.1647 154.103C47.1647 154.001 47.2052 153.903 47.2777 153.83C47.3502 153.758 47.4487 153.717 47.5512 153.717H190.527C190.629 153.717 190.728 153.758 190.8 153.83C190.873 153.903 190.913 154.001 190.913 154.103C190.913 154.206 190.873 154.304 190.8 154.377C190.728 154.449 190.629 154.49 190.527 154.49Z" fill="#1D1D1B"/>
<path d="M197.243 160.062H175.315C175.213 160.062 175.115 160.021 175.042 159.949C174.97 159.876 174.929 159.778 174.929 159.676C174.929 159.573 174.97 159.475 175.042 159.402C175.115 159.33 175.213 159.289 175.315 159.289H197.249C197.351 159.289 197.449 159.33 197.522 159.402C197.594 159.475 197.635 159.573 197.635 159.676C197.635 159.778 197.594 159.876 197.522 159.949C197.449 160.021 197.351 160.062 197.249 160.062H197.243Z" fill="#1D1D1B"/>
<path d="M61.0311 160.92H39.0979C38.9954 160.92 38.8972 160.879 38.8247 160.806C38.7522 160.734 38.7114 160.636 38.7114 160.533C38.7114 160.43 38.7522 160.332 38.8247 160.26C38.8972 160.187 38.9954 160.146 39.0979 160.146H61.0311C61.1336 160.146 61.2319 160.187 61.3044 160.26C61.3769 160.332 61.4176 160.43 61.4176 160.533C61.4176 160.636 61.3769 160.734 61.3044 160.806C61.2319 160.879 61.1336 160.92 61.0311 160.92Z" fill="#1D1D1B"/>
<path d="M147.167 86.9488C146.55 86.9562 145.932 86.9213 145.32 86.8444C145.282 86.8387 145.245 86.8256 145.212 86.8057C145.179 86.7859 145.15 86.7597 145.127 86.7287C145.104 86.6978 145.088 86.6627 145.079 86.6253C145.069 86.588 145.067 86.5491 145.073 86.511C145.079 86.473 145.092 86.4364 145.112 86.4035C145.132 86.3705 145.158 86.3417 145.189 86.3188C145.22 86.2959 145.255 86.2793 145.292 86.27C145.33 86.2607 145.369 86.2589 145.407 86.2647C145.441 86.2647 148.964 86.7748 153.738 85.3795C158.138 84.0905 164.539 80.8747 170.026 72.864C170.072 72.8064 170.137 72.7682 170.21 72.7572C170.282 72.7462 170.356 72.7631 170.417 72.8046C170.478 72.846 170.52 72.9089 170.536 72.9806C170.552 73.0522 170.54 73.1273 170.503 73.1906C164.91 81.3559 158.372 84.6336 153.869 85.9458C151.694 86.5934 149.437 86.931 147.167 86.9488Z" fill="black"/>
<path d="M158.68 91.3286C155.423 91.3286 153.292 90.513 153.201 90.4763C153.133 90.4455 153.08 90.3901 153.052 90.3214C153.025 90.2528 153.024 90.176 153.051 90.107C153.078 90.038 153.13 89.982 153.197 89.9504C153.264 89.9188 153.341 89.914 153.411 89.9371C153.498 89.9699 162.172 93.2225 170.944 86.3289C170.974 86.3041 171.008 86.2854 171.045 86.2742C171.082 86.2629 171.121 86.2592 171.16 86.2633C171.199 86.2674 171.236 86.2793 171.27 86.2981C171.304 86.3169 171.334 86.3423 171.358 86.3728C171.382 86.4033 171.399 86.4383 171.409 86.4758C171.42 86.5132 171.422 86.5523 171.417 86.5908C171.411 86.6292 171.399 86.6662 171.379 86.6996C171.359 86.733 171.333 86.762 171.302 86.785C166.58 90.4956 161.917 91.3035 158.836 91.3286H158.68Z" fill="black"/>
<path d="M127.549 77.6816C127.549 77.6816 127.333 84.1964 132.054 83.3384C136.776 82.4803 146.866 80.5476 148.798 87.6326C150.731 94.7175 149.871 96.0046 155.023 96.4336C160.175 96.8627 168.515 106.601 156.511 114.718C144.508 122.835 117.886 83.3384 117.886 83.3384L119.005 79.4538L127.549 77.6816Z" fill="#382256"/>
<path d="M127.549 77.6814C127.549 77.6814 127.356 83.4173 131.235 83.4173C131.51 83.416 131.784 83.3895 132.054 83.3381C134.024 82.9806 136.924 82.4356 139.785 82.4356C143.777 82.4356 147.677 83.5004 148.804 87.6323C150.737 94.7153 149.877 96.0043 155.029 96.4334C160.181 96.8624 168.521 106.601 156.517 114.718C155.423 115.454 154.13 115.838 152.812 115.817C139.781 115.817 117.892 83.3381 117.892 83.3381L119.011 79.4536L127.555 77.6814H127.549ZM127.555 77.1016C127.516 77.1015 127.476 77.1054 127.437 77.1132L118.893 78.8873C118.79 78.9084 118.694 78.9574 118.617 79.0289C118.539 79.1004 118.482 79.1918 118.453 79.2931L117.336 83.1777C117.312 83.2591 117.306 83.3448 117.319 83.4286C117.332 83.5124 117.364 83.5923 117.411 83.6627C121.315 89.3221 125.528 94.7629 130.029 99.9604C139.568 110.868 147.229 116.397 152.812 116.397C154.246 116.417 155.652 115.999 156.842 115.199C163.691 110.561 163.623 105.706 162.974 103.217C161.901 99.1158 158.025 96.099 155.077 95.8536C151.309 95.5386 151.185 95.011 150.217 90.8946C149.987 89.9186 149.728 88.8112 149.363 87.4777C148.346 83.7459 145.123 81.8538 139.785 81.8538C136.965 81.8538 134.06 82.3833 132.137 82.7331L131.958 82.7661C131.721 82.8109 131.481 82.8342 131.241 82.8356C130.904 82.8473 130.569 82.7877 130.256 82.6608C129.944 82.534 129.663 82.3426 129.43 82.0993C128.052 80.6749 128.133 77.7277 128.133 77.6987C128.136 77.621 128.123 77.5435 128.095 77.4709C128.067 77.3983 128.024 77.3322 127.97 77.2763C127.916 77.2204 127.851 77.1759 127.78 77.1456C127.708 77.1152 127.631 77.0996 127.553 77.0996L127.555 77.1016Z" fill="black"/>
<path d="M157.783 113.798C157.321 103.038 140.855 91.0749 135.488 89.1423C130.122 87.2097 123.682 84.2046 122.824 81.8448C121.966 79.4851 125.897 78.6386 125.897 78.6386L124.753 78.2695L119.005 79.4619L117.886 83.3465C117.886 83.3465 144.506 122.845 156.511 114.726C156.965 114.411 157.387 114.102 157.783 113.798Z" fill="#050505"/>
<path d="M106.811 90.2305C106.811 90.2305 102.731 91.9486 105.092 94.3103C107.454 96.6719 111.084 95.1065 112.921 93.9566C112.921 93.9566 112.392 96.8863 116.255 96.4554C120.118 96.0244 123.124 94.9537 122.695 90.2305H106.811Z" fill="white"/>
<path d="M122.695 90.2302C123.124 94.9535 120.119 96.028 116.255 96.4551C116.012 96.4841 115.768 96.499 115.523 96.4996C112.462 96.4996 112.922 93.9563 112.922 93.9563C111.787 94.6675 109.963 95.5391 108.177 95.5391C107.605 95.5552 107.036 95.4545 106.504 95.2431C105.973 95.0318 105.489 94.7143 105.085 94.31C102.723 91.9483 106.803 90.2302 106.803 90.2302H122.687H122.695ZM122.687 89.6504H106.803C106.725 89.6505 106.648 89.6664 106.577 89.6968C106.328 89.8012 104.134 90.7694 103.809 92.4237C103.653 93.218 103.945 93.9891 104.675 94.7196C105.132 95.1779 105.677 95.5384 106.278 95.779C106.879 96.0195 107.522 96.1352 108.169 96.1189C109.775 96.1189 111.346 95.4715 112.375 94.9342C112.455 95.3537 112.639 95.7463 112.91 96.0763C113.466 96.7411 114.342 97.0794 115.515 97.0794C115.781 97.0786 116.047 97.0631 116.311 97.033C118.051 96.8397 120.032 96.4938 121.433 95.4115C122.884 94.2906 123.483 92.5783 123.265 90.178C123.252 90.0334 123.185 89.8991 123.078 89.8014C122.97 89.7037 122.83 89.6498 122.685 89.6504H122.687Z" fill="black"/>
<path d="M140.142 57.425C140.122 57.4228 140.102 57.417 140.084 57.4077C140.052 57.3942 140.022 57.3742 139.997 57.3492C139.972 57.3241 139.952 57.2944 139.939 57.2617C139.926 57.229 139.919 57.1939 139.919 57.1586C139.92 57.1232 139.927 57.0883 139.941 57.0559C140.507 55.7147 140.563 54.47 140.107 53.3569C139.292 51.3643 137.089 50.4309 137.065 50.4212C137 50.3941 136.947 50.3419 136.92 50.2761C136.892 50.2103 136.892 50.1364 136.92 50.0705C136.947 50.0046 136.999 49.9523 137.065 49.9249C137.13 49.8975 137.204 49.8974 137.27 49.9246C137.369 49.9652 139.699 50.947 140.604 53.1482C141.118 54.4005 141.062 55.7862 140.436 57.2646C140.412 57.3209 140.371 57.3675 140.317 57.3966C140.264 57.4258 140.202 57.4359 140.142 57.425Z" fill="black"/>
<path d="M133.857 56.6012H133.836C133.798 56.5985 133.761 56.5883 133.727 56.5712C133.692 56.554 133.662 56.5304 133.637 56.5015C133.612 56.4726 133.593 56.439 133.581 56.4027C133.569 56.3664 133.565 56.3281 133.567 56.29C133.691 54.628 133.312 53.3274 132.443 52.4248C131.018 50.9503 128.74 51.0198 128.717 51.0198C128.678 51.0212 128.641 51.0151 128.605 51.0018C128.569 50.9885 128.536 50.9684 128.509 50.9425C128.481 50.9165 128.458 50.8854 128.442 50.8507C128.426 50.8161 128.417 50.7787 128.416 50.7406C128.415 50.7025 128.421 50.6646 128.434 50.6289C128.447 50.5932 128.468 50.5604 128.493 50.5325C128.519 50.5046 128.551 50.4821 128.585 50.4662C128.62 50.4503 128.657 50.4414 128.695 50.4401C128.798 50.4401 131.258 50.3609 132.86 52.021C133.85 53.0472 134.283 54.4966 134.147 56.3326C134.142 56.4057 134.109 56.4741 134.055 56.524C134.001 56.5738 133.931 56.6014 133.857 56.6012Z" fill="white"/>
<path d="M131.038 64.1458C134.662 64.1458 137.601 61.2074 137.601 57.5826C137.601 53.9579 134.662 51.0195 131.038 51.0195C127.413 51.0195 124.474 53.9579 124.474 57.5826C124.474 61.2074 127.413 64.1458 131.038 64.1458Z" fill="#382256"/>
<path d="M132.166 51.1153C133.447 51.3375 134.634 51.9346 135.575 52.8313C136.516 53.7279 137.171 54.8836 137.455 56.1522C137.739 57.4208 137.641 58.7452 137.172 59.9579C136.704 61.1706 135.886 62.217 134.823 62.9648C133.759 63.7125 132.497 64.1279 131.198 64.1585C129.898 64.189 128.618 63.8334 127.521 63.1364C126.423 62.4395 125.557 61.4327 125.032 60.2434C124.507 59.054 124.347 57.7356 124.571 56.4551C124.872 54.7405 125.84 53.2152 127.264 52.2141C128.688 51.213 130.451 50.8178 132.166 51.1153ZM132.257 50.5877C130.874 50.3468 129.45 50.5214 128.166 51.0896C126.882 51.6579 125.795 52.5942 125.043 53.78C124.291 54.9659 123.907 56.348 123.94 57.7518C123.974 59.1557 124.423 60.5181 125.231 61.6668C126.038 62.8155 127.168 63.6989 128.478 64.2053C129.788 64.7117 131.218 64.8185 132.589 64.512C133.959 64.2055 135.208 63.4995 136.177 62.4833C137.146 61.4672 137.792 60.1865 138.034 58.8032C138.355 56.9479 137.928 55.0409 136.845 53.5007C135.762 51.9604 134.112 50.9128 132.257 50.5877Z" fill="black"/>
<path d="M104.151 63.0108C104.151 63.0108 102.852 57.1067 106.857 54.9789C110.861 52.8511 111.509 53.773 113.546 52.513C115.583 51.2529 120.117 51.8423 122.424 54.8688C122.424 54.8688 128.081 54.8456 130.734 58.1369C133.388 61.4281 133.374 63.8457 132.4 67.108C131.426 70.3702 131.511 72.2042 130.904 74.5214C130.297 76.8386 127.652 82.6384 117.929 81.1445C108.206 79.6505 104.151 63.0108 104.151 63.0108Z" fill="#382256"/>
<path d="M117.531 52.0127C119.322 52.3238 121.203 53.2457 122.432 54.8691C123.21 54.8838 123.985 54.9607 124.751 55.0991C126.624 55.4257 129.196 56.2181 130.742 58.1372C133.399 61.4226 133.382 63.8461 132.408 67.1083C131.434 70.3705 131.519 72.2045 130.912 74.5217C130.305 76.8389 127.659 82.6387 117.936 81.1448C117.877 81.1448 117.817 81.1255 117.757 81.1158C108.161 79.4422 104.155 63.0111 104.155 63.0111C104.155 63.0111 102.856 57.107 106.861 54.9792C110.865 52.8514 111.513 53.7733 113.55 52.5133C114.495 51.9335 115.979 51.7402 117.527 52.0127H117.531ZM117.62 51.4832C115.946 51.1914 114.321 51.4059 113.267 52.063C112.442 52.5732 111.891 52.6872 111.13 52.836C110.137 53.0389 108.9 53.2901 106.61 54.5077C104.805 55.474 103.72 57.2752 103.471 59.7412C103.361 60.8715 103.413 62.0118 103.627 63.1271V63.1406C104.407 66.093 105.495 68.9554 106.872 71.6808C108.175 74.2357 109.628 76.348 111.192 77.956C113.18 80.0045 115.357 81.2414 117.658 81.6473L117.852 81.6781C122.2 82.3487 125.673 81.6782 128.176 79.6857C129.77 78.4025 130.911 76.6412 131.43 74.6609C131.666 73.7122 131.847 72.7507 131.973 71.7813C132.171 70.254 132.487 68.7446 132.92 67.2667C133.925 63.8982 133.96 61.2757 131.159 57.797C129.507 55.7504 126.811 54.9116 124.84 54.5676C124.13 54.4418 123.412 54.3643 122.691 54.3357C121.491 52.8707 119.657 51.8368 117.62 51.4812V51.4832Z" fill="black"/>
<path d="M80.8113 83.9863C92.7471 80.2564 122.668 86.0136 131.086 96.5965C135.879 102.62 140.749 113.853 145.58 127.887C147.623 133.82 151.305 139.375 158.235 138.71C162.719 138.273 167.4 141.415 166.739 144.461C165.459 150.452 154.774 154.354 154.774 154.354L70.1743 154.004C70.1743 154.004 60.3836 134.549 69.6853 114.999C69.6853 114.999 51.3024 122.729 43.771 119.374C36.2397 116.019 26.3775 95.4408 33.9012 93.3478L32.4189 88.2438L44.1228 81.5879L46.5888 84.7129C46.5888 84.7129 50.3902 80.1907 53.0553 83.4819C55.7203 86.7731 59.9354 93.4734 59.9354 93.4734C59.9354 93.4734 62.8652 89.5986 80.8113 83.9863Z" fill="#07ACEE"/>
<path d="M154.791 154.637L70.1915 154.287C70.138 154.287 70.0855 154.272 70.0398 154.244C69.9941 154.216 69.9571 154.176 69.9326 154.128C69.9094 154.078 67.4511 149.142 66.1736 141.876C65.0141 135.314 64.6276 125.481 69.1267 115.54C66.3747 116.644 56.2014 120.507 48.7242 120.509C46.8051 120.509 45.0639 120.254 43.6705 119.631C37.8167 117.02 30.4514 104.016 30.9597 97.188C31.1162 95.0892 32.0129 93.6997 33.561 93.1489L32.1579 88.3174C32.1399 88.2548 32.1434 88.188 32.1679 88.1277C32.1925 88.0674 32.2367 88.0171 32.2933 87.9849L43.997 81.3291C44.057 81.2946 44.1275 81.283 44.1954 81.2965C44.2632 81.31 44.3239 81.3477 44.3662 81.4025L46.6215 84.2569C47.2361 83.6057 48.9523 81.9842 50.7902 81.9842H50.8191C51.768 81.9842 52.6029 82.4326 53.2986 83.2926C55.6177 86.1509 59.1235 91.6202 59.997 92.9942C61.0426 91.9758 65.4875 88.4739 80.7338 83.7177L80.819 83.9941L80.7338 83.7177C86.5316 81.9088 96.9677 82.2741 107.34 84.6493C118.696 87.2506 127.439 91.5428 131.322 96.4246C135.757 102.002 140.515 112.272 145.863 127.8C148.475 135.39 152.627 138.963 158.216 138.42C161.055 138.146 164.24 139.296 165.946 141.217C166.878 142.262 167.262 143.435 167.03 144.521C165.732 150.594 155.325 154.465 154.882 154.627C154.852 154.635 154.822 154.638 154.791 154.637ZM70.3752 153.709L154.739 154.057C155.512 153.763 165.285 149.952 166.472 144.394C166.719 143.234 166.085 142.235 165.523 141.597C163.923 139.804 160.939 138.733 158.272 138.992C157.885 139.031 157.499 139.048 157.112 139.05C151.811 139.05 147.847 135.334 145.323 127.984C139.995 112.512 135.274 102.306 130.875 96.7803C127.072 91.999 118.449 87.7801 107.218 85.2078C96.9387 82.8539 86.6129 82.4848 80.9137 84.2647C63.3502 89.7533 60.2212 93.605 60.1903 93.6437C60.1624 93.6814 60.1256 93.7116 60.0831 93.7315C60.0406 93.7514 59.9937 93.7604 59.9468 93.7576C59.9002 93.7553 59.8547 93.7417 59.8144 93.7182C59.774 93.6947 59.7399 93.6618 59.7149 93.6223C59.6724 93.5566 55.4786 86.9007 52.8541 83.6578C52.2744 82.9408 51.5903 82.5736 50.823 82.5659H50.7979C48.8189 82.5659 46.8554 84.8715 46.8361 84.885C46.8092 84.9188 46.7746 84.9457 46.7353 84.9636C46.696 84.9814 46.6531 84.9896 46.61 84.9875C46.5667 84.9876 46.5239 84.9777 46.4851 84.9585C46.4462 84.9394 46.4122 84.9116 46.3858 84.8773L44.0667 81.9494L32.7783 88.3676L34.1968 93.2513C34.2178 93.3258 34.2088 93.4056 34.1717 93.4735C34.1333 93.5409 34.0702 93.5908 33.9958 93.6127C32.5116 94.0243 31.6767 95.24 31.5376 97.2228C31.0428 103.879 38.2089 116.549 43.9062 119.094C51.2385 122.366 69.4069 114.794 69.5885 114.717C69.6421 114.695 69.7012 114.689 69.758 114.701C69.8148 114.713 69.8665 114.741 69.9069 114.783C69.9473 114.825 69.9744 114.877 69.9845 114.934C69.9946 114.992 69.9872 115.05 69.9635 115.103C65.1958 125.126 65.5804 135.123 66.7419 141.742C67.8763 148.22 69.95 152.814 70.3752 153.709Z" fill="#1D1D1B"/>
<path d="M106.266 83.2305C106.266 83.2305 101.627 83.9126 103.753 88.176C105.879 92.4393 110.015 91.1522 110.015 91.1522C110.015 91.1522 118.201 100.042 120.714 88.9258L106.266 83.2305Z" fill="white"/>
<path d="M116.089 94.8132C113.327 94.8132 110.544 92.1077 109.93 91.4757C109.083 91.669 105.464 92.2236 103.502 88.3062C102.822 86.9534 102.729 85.7823 103.218 84.8411C104.03 83.2834 106.134 82.9587 106.225 82.9452L106.3 82.9336L121.06 88.7469L121.004 88.9903C120.263 92.2758 118.945 94.189 117.088 94.6838C116.762 94.7707 116.426 94.8142 116.089 94.8132ZM110.111 90.8224L110.237 90.9578C110.274 90.9964 113.938 94.9273 116.941 94.1233C118.528 93.7001 119.685 92.011 120.383 89.0986L106.236 83.525C105.881 83.5946 104.327 83.9559 103.724 85.1058C103.326 85.8788 103.423 86.8607 104.014 88.0415C106.016 92.0401 109.771 90.921 109.932 90.8708L110.111 90.8224Z" fill="#1D1D1B"/>
<path d="M116.756 121.712C117.48 121.712 118.068 121.125 118.068 120.4C118.068 119.675 117.48 119.088 116.756 119.088C116.031 119.088 115.443 119.675 115.443 120.4C115.443 121.125 116.031 121.712 116.756 121.712Z" fill="#51CEF4"/>
<path d="M91.8443 100.535C92.5691 100.535 93.1566 99.9471 93.1566 99.2224C93.1566 98.4977 92.5691 97.9102 91.8443 97.9102C91.1196 97.9102 90.5321 98.4977 90.5321 99.2224C90.5321 99.9471 91.1196 100.535 91.8443 100.535Z" fill="#51CEF4"/>
<path d="M83.1439 123.339C83.8686 123.339 84.4562 122.752 84.4562 122.027C84.4562 121.302 83.8686 120.715 83.1439 120.715C82.4192 120.715 81.8317 121.302 81.8317 122.027C81.8317 122.752 82.4192 123.339 83.1439 123.339Z" fill="#51CEF4"/>
<path d="M97.1282 118.435C97.8529 118.435 98.4404 117.848 98.4404 117.123C98.4404 116.398 97.8529 115.811 97.1282 115.811C96.4034 115.811 95.8159 116.398 95.8159 117.123C95.8159 117.848 96.4034 118.435 97.1282 118.435Z" fill="#51CEF4"/>
<path d="M126.61 102.199C127.335 102.199 127.922 101.611 127.922 100.886C127.922 100.162 127.335 99.5742 126.61 99.5742C125.885 99.5742 125.298 100.162 125.298 100.886C125.298 101.611 125.885 102.199 126.61 102.199Z" fill="#51CEF4"/>
<path d="M112.141 107.341C112.865 107.341 113.453 106.754 113.453 106.029C113.453 105.304 112.865 104.717 112.141 104.717C111.416 104.717 110.828 105.304 110.828 106.029C110.828 106.754 111.416 107.341 112.141 107.341Z" fill="#51CEF4"/>
<path d="M91.6744 93.0874C92.3991 93.0874 92.9866 92.4999 92.9866 91.7751C92.9866 91.0504 92.3991 90.4629 91.6744 90.4629C90.9496 90.4629 90.3621 91.0504 90.3621 91.7751C90.3621 92.4999 90.9496 93.0874 91.6744 93.0874Z" fill="#51CEF4"/>
<path d="M63.8371 105.167C64.5619 105.167 65.1494 104.58 65.1494 103.855C65.1494 103.13 64.5619 102.543 63.8371 102.543C63.1124 102.543 62.5249 103.13 62.5249 103.855C62.5249 104.58 63.1124 105.167 63.8371 105.167Z" fill="#51CEF4"/>
<path d="M50.1525 95.1479C50.8772 95.1479 51.4647 94.5604 51.4647 93.8357C51.4647 93.111 50.8772 92.5234 50.1525 92.5234C49.4277 92.5234 48.8402 93.111 48.8402 93.8357C48.8402 94.5604 49.4277 95.1479 50.1525 95.1479Z" fill="#51CEF4"/>
<path d="M40.1609 100.65C40.8856 100.65 41.4731 100.062 41.4731 99.3376C41.4731 98.6129 40.8856 98.0254 40.1609 98.0254C39.4361 98.0254 38.8486 98.6129 38.8486 99.3376C38.8486 100.062 39.4361 100.65 40.1609 100.65Z" fill="#51CEF4"/>
<path d="M128.721 102.748C129.445 102.748 130.033 102.16 130.033 101.435C130.033 100.711 129.445 100.123 128.721 100.123C127.996 100.123 127.408 100.711 127.408 101.435C127.408 102.16 127.996 102.748 128.721 102.748Z" fill="#51CEF4"/>
<path d="M32.9908 88.4705L44.0995 82.0156L46.5945 85.0595C46.5945 85.0595 43.4674 92.5387 34.2702 93.3368L32.9908 88.4705Z" fill="#0598C6"/>
<path d="M68.4716 118.15C68.4447 118.15 68.418 118.146 68.3923 118.139C68.3193 118.117 68.2581 118.067 68.2219 118C68.1856 117.933 68.1774 117.854 68.199 117.781C69.8881 111.856 77.2514 100.848 77.5625 100.388C77.6056 100.324 77.6721 100.28 77.7477 100.265C77.8232 100.25 77.9017 100.266 77.9655 100.309C78.0293 100.352 78.0733 100.419 78.088 100.495C78.1026 100.57 78.0867 100.648 78.0436 100.712C77.9682 100.824 70.4215 112.115 68.7556 117.945C68.7371 118.006 68.6993 118.059 68.648 118.096C68.5967 118.133 68.5348 118.152 68.4716 118.15Z" fill="#1D1E1B"/>
<path d="M65.4179 94.6231C65.2961 94.6228 65.1774 94.5842 65.0788 94.5127C64.9802 94.4411 64.9066 94.3403 64.8685 94.2246C64.8305 94.1088 64.8298 93.984 64.8667 93.8679C64.9035 93.7517 64.9762 93.6502 65.0741 93.5776C73.7708 87.1614 81.9456 85.5244 87.2699 85.2809C93.0677 85.0161 96.7396 86.2666 96.9039 86.3187C97.0492 86.37 97.1682 86.4769 97.2347 86.6159C97.3012 86.7549 97.31 86.9146 97.2587 87.0599C97.2074 87.2052 97.1004 87.3242 96.9614 87.3907C96.8225 87.4572 96.6627 87.4658 96.5174 87.4145C96.4729 87.399 92.8454 86.1796 87.2563 86.4482C82.1079 86.6917 74.1959 88.29 65.7543 94.5149C65.6562 94.5851 65.5386 94.6229 65.4179 94.6231Z" fill="white"/>
<path d="M155.943 152.005C155.943 152.005 156.82 147.024 167.95 144.682C179.08 142.34 187.276 154.345 187.276 154.345H155.941L155.943 152.005Z" fill="white"/>
<path d="M187.829 154.636H155.653V151.954C155.69 151.741 156.695 146.755 167.886 144.397C172.525 143.421 177.391 144.809 181.964 148.408C184.067 150.072 185.934 152.015 187.514 154.182L187.829 154.636ZM156.233 154.056H186.718C185.234 152.119 183.517 150.372 181.606 148.854C178.514 146.425 173.653 143.779 168.02 144.966C157.57 147.165 156.322 151.689 156.242 152.033L156.233 154.056Z" fill="#1D1E1B"/>
<path d="M172.635 140.001C174.98 138.828 180.543 140.001 181.718 142.344C182.894 144.686 180.841 146.443 178.791 147.028C176.74 147.614 173.891 144.709 173.891 144.709L172.635 140.001Z" fill="#FFCDB2"/>
<path d="M178.214 147.395C176.147 147.395 173.797 145.027 173.686 144.915L173.634 144.861L172.301 139.846L172.511 139.74C173.688 139.16 175.671 139.088 177.689 139.572C179.801 140.078 181.407 141.065 181.979 142.213C182.197 142.611 182.322 143.053 182.345 143.506C182.368 143.959 182.288 144.411 182.111 144.828C181.531 146.138 180.058 146.968 178.872 147.308C178.658 147.367 178.436 147.396 178.214 147.395ZM174.156 144.561C174.543 144.948 176.999 147.24 178.715 146.749C179.776 146.446 181.084 145.721 181.581 144.594C181.875 143.93 181.834 143.214 181.463 142.468C180.964 141.473 179.503 140.6 177.555 140.132C175.816 139.713 174.061 139.728 172.987 140.159L174.156 144.561Z" fill="#1D1D1B"/>
<path d="M164.729 144.395C164.729 144.395 165.9 139.414 170.001 138.829C174.102 138.243 177.615 140.294 177.321 144.395C177.028 148.496 172.049 149.079 169.413 148.202C166.777 147.325 164.729 144.395 164.729 144.395Z" fill="#FFCDB2"/>
<path d="M171.763 148.84C170.936 148.847 170.112 148.724 169.323 148.475C166.627 147.576 164.576 144.681 164.491 144.56L164.416 144.453L164.446 144.326C164.495 144.115 165.712 139.148 169.958 138.542C172.405 138.192 174.62 138.75 176.036 140.07C177.196 141.149 177.737 142.65 177.611 144.413C177.579 145.088 177.387 145.746 177.051 146.332C176.715 146.919 176.245 147.417 175.679 147.787C174.566 148.531 173.122 148.84 171.763 148.84ZM165.044 144.334C165.43 144.859 167.274 147.18 169.506 147.924C171.137 148.469 173.671 148.431 175.356 147.306C175.85 146.987 176.26 146.554 176.551 146.043C176.843 145.533 177.008 144.96 177.032 144.372C177.146 142.789 176.665 141.448 175.642 140.495C174.351 139.293 172.31 138.791 170.038 139.116C166.538 139.616 165.266 143.572 165.044 144.335V144.334Z" fill="#1D1D1B"/>
<path d="M155.649 148.198C153.164 149.441 152.721 152.005 153.013 154.348C153.305 156.69 156.235 158.74 158.871 157.569C161.507 156.398 160.336 153.468 158.871 152.005C157.406 150.542 160.042 148.198 161.507 150.247C162.972 152.295 167.071 152.005 169.413 150.247C171.756 148.488 169.993 144.097 166.779 142.926C163.565 141.755 160.042 141.169 158.577 144.391C157.112 147.612 156.821 147.618 155.649 148.198Z" fill="#FFCDB2"/>
<path d="M157.275 158.198C156.486 158.193 155.711 157.984 155.027 157.591C153.765 156.878 152.884 155.649 152.725 154.383C152.455 152.217 152.725 149.339 155.52 147.938L155.713 147.847C156.679 147.368 156.981 147.223 158.322 144.27C159.976 140.631 164.002 141.605 166.885 142.654C168.853 143.369 170.438 145.29 170.739 147.323C170.932 148.657 170.532 149.778 169.597 150.479C167.963 151.645 165.948 152.149 163.958 151.892C162.763 151.708 161.832 151.198 161.279 150.417C160.813 149.766 160.291 149.693 159.926 149.749C159.668 149.792 159.426 149.903 159.226 150.071C159.025 150.239 158.874 150.457 158.786 150.703C158.721 150.895 158.714 151.101 158.765 151.296C158.817 151.491 158.925 151.667 159.076 151.801C160.065 152.791 160.947 154.428 160.682 155.86C160.519 156.735 159.934 157.421 158.989 157.841C158.449 158.079 157.865 158.201 157.275 158.198ZM155.779 148.458C153.282 149.706 153.054 152.323 153.301 154.312C153.436 155.4 154.208 156.463 155.311 157.087C155.827 157.391 156.408 157.57 157.006 157.608C157.604 157.646 158.203 157.542 158.753 157.305C159.526 156.961 159.984 156.437 160.106 155.747C160.33 154.536 159.515 153.063 158.66 152.211C158.434 152 158.274 151.729 158.197 151.429C158.121 151.13 158.132 150.815 158.229 150.522C158.349 150.172 158.562 149.862 158.845 149.624C159.127 149.386 159.469 149.228 159.833 149.169C160.257 149.103 161.066 149.136 161.737 150.073C162.317 150.897 163.31 151.202 164.033 151.314C165.869 151.55 167.726 151.084 169.234 150.01C169.991 149.441 170.318 148.516 170.153 147.402C169.885 145.599 168.414 143.829 166.675 143.193C162.437 141.647 159.945 142.069 158.838 144.506C157.468 147.52 157.11 147.791 155.958 148.361L155.779 148.458Z" fill="#1D1D1B"/>
<path d="M20.0928 71.6269C20.0928 71.6269 15.984 81.6069 31.24 86.9216C31.24 86.9216 39.6275 89.4456 43.7053 85.5804V84.5078C43.7053 84.5078 49.7156 80.8571 48.643 76.7774C48.643 76.7774 44.3489 75.2758 39.4111 80.2116C39.4111 80.2116 36.8369 72.6996 28.8939 72.6996C28.8939 72.6996 25.6741 70.767 24.3851 72.4851C24.3793 72.487 22.8835 70.5543 20.0928 71.6269Z" fill="#FFCDB2"/>
<path d="M21.7278 71.3024C22.2297 71.298 22.7267 71.4015 23.1852 71.6059C23.6437 71.8103 24.0529 72.1108 24.3851 72.4871C24.7717 71.9576 25.3514 71.774 25.9737 71.774C27.3497 71.774 28.8939 72.7016 28.8939 72.7016C36.8369 72.7016 39.4111 80.2136 39.4111 80.2136C42.482 77.1447 45.3017 76.5649 46.9966 76.5649C47.5532 76.552 48.1084 76.6244 48.6431 76.7794C49.7157 80.8572 43.7053 84.5098 43.7053 84.5098V85.5843C41.937 87.2599 39.3589 87.7353 37.005 87.7353C35.0563 87.7166 33.1184 87.4444 31.24 86.9256C15.9841 81.6109 20.0928 71.6309 20.0928 71.6309C20.6133 71.4233 21.1675 71.3133 21.7278 71.3063V71.3024ZM21.7278 70.7265C21.0962 70.7339 20.4713 70.8571 19.8841 71.0898C19.8104 71.1181 19.7432 71.1611 19.6867 71.2163C19.6302 71.2714 19.5855 71.3376 19.5555 71.4107C18.7038 73.8682 18.8355 76.5598 19.9228 78.9226C21.5771 82.5946 25.3185 85.4761 31.0487 87.4725H31.0719C33.0045 88.0092 34.9993 88.2898 37.005 88.3074C40.0972 88.3074 42.4877 87.5344 44.1033 85.9979C44.1607 85.9438 44.2065 85.8785 44.2377 85.806C44.269 85.7336 44.2851 85.6555 44.2851 85.5766V84.8209C45.5181 84.0073 50.2453 80.5867 49.2036 76.6287C49.1795 76.5369 49.1332 76.4523 49.0689 76.3826C49.0045 76.3128 48.924 76.26 48.8344 76.2286C48.2382 76.0521 47.6183 75.9687 46.9966 75.9813C45.2167 75.9813 42.54 76.561 39.6199 79.2106C39.0811 78.0763 38.3906 77.0204 37.5674 76.072C36.5179 74.836 35.2128 73.8425 33.742 73.1598C32.2713 72.4772 30.6699 72.1216 29.0485 72.1179C28.6098 71.8764 27.2531 71.1923 25.9737 71.1903C25.406 71.1742 24.8485 71.3431 24.3851 71.6715C23.6384 71.0522 22.6979 70.715 21.7278 70.7188V70.7265Z" fill="black"/>
<path d="M38.3384 83.9365H38.323C38.2464 83.9325 38.1745 83.8983 38.1231 83.8415C38.0717 83.7846 38.0449 83.7097 38.0486 83.6331C38.0486 83.5964 38.0678 82.8407 37.2967 82.087C36.4521 81.2753 34.5369 80.3747 30.204 80.709C30.1504 80.7129 30.0969 80.702 30.0492 80.6775C30.0015 80.6529 29.9615 80.6158 29.9335 80.5699C29.9045 80.5216 26.9108 75.6224 24.1723 72.6752C24.1325 72.6175 24.115 72.5472 24.1231 72.4774C24.1311 72.4077 24.164 72.3433 24.2159 72.2961C24.2679 72.2488 24.3352 72.2221 24.4054 72.2208C24.4756 72.2194 24.5438 72.2435 24.5975 72.2887C27.1099 74.9847 29.804 79.2692 30.3355 80.1254C33.9128 79.8741 36.3941 80.4018 37.7179 81.6966C38.6745 82.632 38.6303 83.6292 38.6283 83.664C38.6239 83.7378 38.5913 83.8071 38.5374 83.8578C38.4835 83.9085 38.4124 83.9366 38.3384 83.9365Z" fill="black"/>
<path d="M34.2605 79.2157C34.2025 79.2155 34.146 79.1982 34.0978 79.1659C34.0497 79.1335 34.0122 79.0876 33.9901 79.034C33.9785 79.0012 32.6758 75.8414 28.7139 72.7125C28.6822 72.6896 28.6554 72.6605 28.6352 72.627C28.615 72.5935 28.6019 72.5561 28.5965 72.5174C28.5911 72.4786 28.5936 72.4391 28.6039 72.4013C28.6142 72.3635 28.6321 72.3282 28.6564 72.2975C28.6807 72.2668 28.7108 72.2413 28.7452 72.2226C28.7797 72.204 28.8174 72.1924 28.8564 72.1888C28.8954 72.1851 28.9348 72.1894 28.9721 72.2013C29.0094 72.2133 29.0439 72.2327 29.0734 72.2583C33.1648 75.4896 34.475 78.6843 34.5291 78.8177C34.5432 78.8531 34.5504 78.8908 34.5498 78.9289C34.5493 78.967 34.5411 79.0047 34.5261 79.0397C34.511 79.0747 34.4892 79.1064 34.4619 79.1329C34.4346 79.1595 34.4022 79.1804 34.3668 79.1945C34.3329 79.208 34.297 79.2152 34.2605 79.2157Z" fill="black"/>
<path d="M30.9114 85.5371C30.8889 85.539 30.8663 85.539 30.8438 85.5371C24.7194 84.4432 21.4744 78.5063 21.3392 78.2551C21.2907 78.1646 21.2804 78.0586 21.3101 77.9604C21.3398 77.8622 21.4072 77.7798 21.4977 77.7314C21.5882 77.6829 21.6943 77.6724 21.7925 77.7021C21.8907 77.7318 21.973 77.7993 22.0214 77.8898C22.0523 77.9478 25.2297 83.7494 30.9791 84.7757C31.0817 84.7846 31.1763 84.8339 31.2424 84.9128C31.3086 84.9916 31.3407 85.0935 31.3317 85.1961C31.3227 85.2986 31.2735 85.3933 31.1947 85.4594C31.1158 85.5256 31.0139 85.5577 30.9114 85.5487V85.5371Z" fill="white"/>
<path d="M109.947 78.9382L105.547 85.6424C105.547 85.6424 108.72 94.0705 120.082 87.9751C120.082 87.9751 115.934 82.8092 119.16 75.9021C119.16 75.9021 122.122 77.4288 123.582 74.8565C125.041 72.2842 123.551 70.4116 121.981 70.1352C121.981 70.1352 115.411 69.5941 118.352 57.38C118.352 57.38 112.413 55.5363 107.709 59.359C103.005 63.1817 99.5246 69.2385 101.78 73.67C104.035 78.1014 109.947 78.9382 109.947 78.9382Z" fill="#FFCDB2"/>
<path d="M117.287 57.149C117.647 57.2078 118.002 57.2879 118.352 57.3887C115.67 68.534 120.913 69.9505 121.844 70.1167C121.933 70.1322 121.981 70.1361 121.981 70.1361C123.551 70.4105 125.041 72.2851 123.582 74.8574C122.731 76.3571 121.367 76.4635 120.379 76.2915C119.957 76.2186 119.547 76.0885 119.16 75.9049C115.934 82.8121 120.082 87.9778 120.082 87.9778C116.23 90.0438 113.317 90.4419 111.155 90.0631C106.934 89.3268 105.55 85.6452 105.55 85.6452L109.951 78.941C109.951 78.941 109.903 78.941 109.812 78.9178C108.905 78.7613 103.834 77.708 101.784 73.6805C99.5283 69.249 103.007 63.1923 107.713 59.3696C111.203 56.5325 115.372 56.8166 117.291 57.1509L117.287 57.149ZM117.384 56.6214C115.188 56.2348 110.968 56.0319 107.373 58.9521C104.861 60.9949 102.827 63.5227 101.65 66.0718C100.298 68.9958 100.178 71.7131 101.304 73.924C103.16 77.5689 107.296 78.8985 109.064 79.3121L105.102 85.3495C105.056 85.42 105.026 85.5007 105.017 85.5846C105.008 85.6686 105.018 85.7535 105.048 85.8326C105.575 87.0647 106.402 88.1454 107.453 88.9767C108.504 89.808 109.746 90.3635 111.066 90.5927C113.71 91.0546 116.831 90.3337 120.343 88.4514C120.412 88.4143 120.473 88.3622 120.52 88.2989C120.567 88.2356 120.6 88.1626 120.616 88.0852C120.631 88.0078 120.63 87.9279 120.611 87.8512C120.592 87.7745 120.557 87.703 120.507 87.6416C119.79 86.6411 119.253 85.5226 118.922 84.3369C118.18 81.7742 118.356 79.1749 119.446 76.6064C119.722 76.7044 120.006 76.7794 120.294 76.8307C121.937 77.1167 123.272 76.5137 124.057 75.1319C124.799 73.8235 124.923 72.4997 124.407 71.4078C124.189 70.9477 123.865 70.5456 123.462 70.2343C123.059 69.923 122.588 69.7113 122.088 69.6162H122.039L121.95 69.6026C121.564 69.5369 120.261 69.2065 119.291 67.7281C117.923 65.6428 117.784 62.1235 118.887 57.5297C118.919 57.3969 118.899 57.257 118.832 57.1383C118.764 57.0196 118.654 56.9308 118.524 56.89C118.152 56.7833 117.775 56.6982 117.393 56.635L117.384 56.6214Z" fill="black"/>
<path d="M109.669 79.3551C109.493 79.3242 109.317 79.2856 109.147 79.2392C109.078 79.2203 109.02 79.1748 108.985 79.1128C108.95 79.0508 108.941 78.9774 108.96 78.9088C108.979 78.8401 109.024 78.7817 109.086 78.7466C109.148 78.7114 109.221 78.7023 109.29 78.7213C111.03 79.2025 113.296 78.6769 113.32 78.6711C113.389 78.6549 113.462 78.667 113.523 78.7047C113.583 78.7423 113.626 78.8025 113.642 78.872C113.658 78.9414 113.646 79.0145 113.609 79.075C113.571 79.1356 113.511 79.1786 113.441 79.1948C113.352 79.216 111.418 79.6605 109.669 79.3551Z" fill="black"/>
<path d="M120.136 74.9333C120.077 74.923 120.024 74.8936 119.984 74.8497C119.944 74.8058 119.92 74.75 119.915 74.6908C119.91 74.6316 119.925 74.5725 119.957 74.5226C119.989 74.4728 120.037 74.4352 120.093 74.4154C121.104 74.0579 121.68 73.5902 121.806 73.0278C121.985 72.2238 121.204 71.443 121.197 71.4353C121.146 71.384 121.117 71.3145 121.117 71.242C121.117 71.1695 121.146 71.1 121.197 71.0488C121.248 70.9975 121.318 70.9688 121.39 70.9688C121.463 70.9688 121.532 70.9975 121.583 71.0488C121.624 71.0894 122.582 72.0499 122.341 73.1399C122.171 73.8956 121.479 74.4927 120.281 74.9178C120.235 74.9362 120.185 74.9415 120.136 74.9333Z" fill="black"/>
<path d="M112.558 64.0893C114.877 66.5514 119.363 67.9003 119.322 69.3073C119.282 70.7142 117.898 71.6825 116.203 70.9829C114.508 70.2833 113.076 69.2262 110.249 66.9245C107.421 64.6227 104.824 62.1412 106.273 60.7787C107.723 59.4162 109.153 60.4656 112.558 64.0893Z" fill="#FFB49F"/>
<path d="M110.85 64.5148C110.785 64.5032 110.728 64.4688 110.687 64.4181C110.646 64.3673 110.625 64.3035 110.627 64.2384C110.666 63.4383 110.452 62.7851 109.992 62.2962C109.068 61.3163 107.435 61.2893 107.419 61.2893C107.348 61.2883 107.28 61.259 107.23 61.2079C107.18 61.1569 107.152 61.0882 107.153 61.0167C107.154 60.9458 107.183 60.8782 107.233 60.8286C107.284 60.779 107.352 60.7514 107.423 60.752C107.499 60.752 109.296 60.7791 110.38 61.9251C110.946 62.5242 111.211 63.3108 111.165 64.2636C111.163 64.2989 111.154 64.3335 111.139 64.3654C111.124 64.3973 111.103 64.426 111.076 64.4497C111.05 64.4734 111.02 64.4916 110.986 64.5035C110.953 64.5153 110.918 64.5205 110.882 64.5186L110.85 64.5148Z" fill="black"/>
<path d="M117.337 69.9032C117.283 69.8938 117.233 69.868 117.194 69.8293C117.155 69.7906 117.129 69.7408 117.119 69.6867C116.539 66.6332 113.816 66.8264 113.702 66.8361C113.631 66.8422 113.561 66.8199 113.506 66.7741C113.452 66.7283 113.417 66.6626 113.411 66.5916C113.405 66.5206 113.428 66.4501 113.473 66.3956C113.519 66.3411 113.585 66.3069 113.656 66.3008C113.689 66.3008 116.982 66.0495 117.647 69.5862C117.653 69.6209 117.653 69.6565 117.646 69.691C117.639 69.7256 117.625 69.7584 117.605 69.7876C117.585 69.8167 117.559 69.8415 117.53 69.8607C117.5 69.8799 117.467 69.893 117.432 69.8993C117.401 69.9054 117.369 69.9067 117.337 69.9032Z" fill="black"/>
<path d="M112.589 60.9512C112.051 60.8605 111.534 60.6761 111.06 60.4063C111 60.3689 110.956 60.3088 110.94 60.2394C110.923 60.17 110.935 60.0969 110.973 60.0362C111.01 59.9754 111.07 59.932 111.139 59.9155C111.209 59.899 111.282 59.9108 111.343 59.9482C111.95 60.2848 112.631 60.4679 113.325 60.4816C113.397 60.4816 113.465 60.5099 113.515 60.5603C113.566 60.6107 113.594 60.679 113.594 60.7502C113.594 60.8215 113.566 60.8898 113.515 60.9402C113.465 60.9906 113.397 61.0189 113.325 61.0189C113.079 61.0162 112.832 60.9936 112.589 60.9512Z" fill="black"/>
<path d="M111.296 74.1932C110.464 74.0465 109.714 73.6021 109.186 72.9428C109.163 72.9142 109.147 72.8812 109.138 72.8461C109.129 72.811 109.127 72.7744 109.132 72.7385C109.138 72.7027 109.15 72.6682 109.169 72.6373C109.188 72.6064 109.214 72.5797 109.243 72.5588C109.273 72.5379 109.306 72.5232 109.342 72.5157C109.377 72.5081 109.414 72.5078 109.45 72.5148C109.485 72.5218 109.519 72.5359 109.549 72.5563C109.579 72.5768 109.605 72.603 109.624 72.6336C109.68 72.7129 110.998 74.5005 113.603 73.2965C113.667 73.2721 113.738 73.2727 113.801 73.2984C113.864 73.3241 113.915 73.373 113.944 73.435C113.972 73.4969 113.976 73.5675 113.955 73.6322C113.933 73.6969 113.888 73.7511 113.828 73.7836C112.827 74.2474 111.98 74.313 111.296 74.1932Z" fill="black"/>
<path d="M122.598 70.2796C121.583 70.1305 120.617 69.7438 119.78 69.151C119.73 69.1055 119.698 69.0428 119.692 68.9753C119.686 68.9078 119.705 68.8404 119.746 68.7864C119.787 68.7324 119.847 68.6958 119.914 68.6839C119.981 68.672 120.05 68.6855 120.107 68.7219C122.264 70.3685 126.156 69.81 126.195 69.8022C126.265 69.7917 126.337 69.8097 126.394 69.8521C126.451 69.8945 126.489 69.9579 126.5 70.0283C126.51 70.0988 126.492 70.1707 126.45 70.2279C126.408 70.2852 126.344 70.3232 126.274 70.3337C125.052 70.4943 123.814 70.4761 122.598 70.2796Z" fill="black"/>
<path d="M122.797 68.9373C122.771 68.9328 122.745 68.9243 122.722 68.9122C117.198 66.081 119.463 59.829 119.486 59.7575C119.512 59.6906 119.563 59.6366 119.629 59.6074C119.694 59.5782 119.768 59.5762 119.835 59.6019C119.902 59.6275 119.956 59.6786 119.985 59.7441C120.014 59.8095 120.017 59.8838 119.991 59.9507C119.902 60.1884 117.865 65.8258 122.965 68.4367C123.023 68.4657 123.068 68.5145 123.093 68.5742C123.117 68.6339 123.12 68.7005 123.099 68.7617C123.079 68.823 123.037 68.8748 122.982 68.9078C122.926 68.9407 122.861 68.9526 122.797 68.9412V68.9373Z" fill="white"/>
<path d="M108.335 68.4045C108.266 68.3922 108.205 68.3543 108.163 68.2982C108.143 68.2696 108.128 68.2372 108.119 68.2028C108.111 68.1684 108.11 68.1327 108.116 68.0978C108.122 68.0629 108.134 68.0295 108.153 67.9996C108.172 67.9696 108.196 67.9437 108.225 67.9233L112.657 64.7229C112.685 64.6992 112.718 64.6815 112.753 64.6711C112.789 64.6607 112.826 64.6576 112.863 64.6622C112.899 64.6668 112.934 64.679 112.966 64.6978C112.998 64.7167 113.026 64.7419 113.047 64.7719C113.069 64.8019 113.084 64.8359 113.092 64.872C113.099 64.9081 113.1 64.9455 113.092 64.9817C113.085 65.0179 113.071 65.0522 113.049 65.0825C113.028 65.1128 113.001 65.1384 112.97 65.1578L108.538 68.3582C108.509 68.3792 108.476 68.3942 108.442 68.4021C108.407 68.4101 108.37 68.4109 108.335 68.4045Z" fill="black"/>
<path d="M120.256 77.7409C120.849 77.7409 121.33 77.2598 121.33 76.6663C121.33 76.0729 120.849 75.5918 120.256 75.5918C119.662 75.5918 119.181 76.0729 119.181 76.6663C119.181 77.2598 119.662 77.7409 120.256 77.7409Z" fill="#07ACEE"/>
<path d="M120.439 75.6102C120.649 75.6466 120.843 75.7444 120.996 75.891C121.15 76.0377 121.257 76.2267 121.304 76.4341C121.35 76.6415 121.334 76.8581 121.257 77.0563C121.181 77.2546 121.047 77.4256 120.873 77.5479C120.699 77.6701 120.493 77.738 120.28 77.743C120.068 77.748 119.859 77.6899 119.679 77.576C119.5 77.4621 119.358 77.2975 119.272 77.1031C119.186 76.9086 119.16 76.6931 119.197 76.4837C119.22 76.3446 119.272 76.2115 119.347 76.0922C119.423 75.9729 119.521 75.8696 119.636 75.7884C119.752 75.7073 119.882 75.6497 120.02 75.6192C120.158 75.5886 120.3 75.5855 120.439 75.6102ZM120.532 75.0807C120.218 75.0258 119.895 75.0653 119.603 75.1941C119.312 75.323 119.065 75.5354 118.894 75.8045C118.723 76.0736 118.636 76.3874 118.643 76.7061C118.651 77.0249 118.753 77.3341 118.936 77.595C119.119 77.8558 119.376 78.0565 119.673 78.1715C119.97 78.2866 120.295 78.3109 120.606 78.2414C120.917 78.1719 121.201 78.0117 121.421 77.7811C121.641 77.5504 121.787 77.2597 121.842 76.9456C121.915 76.5247 121.818 76.0919 121.573 75.7423C121.327 75.3927 120.953 75.1548 120.532 75.0807Z" fill="black"/>
<path d="M107.556 141.157C108.191 141.157 108.706 140.642 108.706 140.007C108.706 139.372 108.191 138.857 107.556 138.857C106.921 138.857 106.407 139.372 106.407 140.007C106.407 140.642 106.921 141.157 107.556 141.157Z" fill="#51CEF4"/>
<path d="M78.0476 140.026C78.6827 140.026 79.1975 139.512 79.1975 138.876C79.1975 138.241 78.6827 137.727 78.0476 137.727C77.4125 137.727 76.8976 138.241 76.8976 138.876C76.8976 139.512 77.4125 140.026 78.0476 140.026Z" fill="#51CEF4"/>
<path d="M93.6881 138.597C94.3232 138.597 94.838 138.082 94.838 137.447C94.838 136.812 94.3232 136.297 93.6881 136.297C93.053 136.297 92.5381 136.812 92.5381 137.447C92.5381 138.082 93.053 138.597 93.6881 138.597Z" fill="#51CEF4"/>
<path d="M68.3014 153.445H129.888C132.396 153.445 134.429 151.412 134.429 148.904V111.773C134.429 109.264 132.396 107.231 129.888 107.231H68.3014C65.7931 107.231 63.7598 109.264 63.7598 111.773V148.904C63.7598 151.412 65.7931 153.445 68.3014 153.445Z" fill="white"/>
<path d="M129.888 153.735H68.2995C67.0181 153.735 65.7891 153.226 64.8831 152.32C63.977 151.414 63.468 150.185 63.468 148.904V111.773C63.468 110.492 63.977 109.263 64.8831 108.357C65.7891 107.45 67.0181 106.941 68.2995 106.941H129.888C131.169 106.941 132.398 107.45 133.304 108.357C134.21 109.263 134.719 110.492 134.719 111.773V148.906C134.719 150.187 134.209 151.415 133.303 152.321C132.397 153.227 131.169 153.735 129.888 153.735ZM68.2995 107.521C67.1718 107.521 66.0905 107.969 65.2932 108.767C64.4958 109.564 64.0477 110.645 64.0477 111.773V148.906C64.0477 150.034 64.4958 151.115 65.2932 151.912C66.0905 152.71 67.1718 153.158 68.2995 153.158H129.888C131.015 153.158 132.097 152.71 132.894 151.912C133.691 151.115 134.14 150.034 134.14 148.906V111.773C134.14 110.645 133.691 109.564 132.894 108.767C132.097 107.969 131.015 107.521 129.888 107.521H68.2995Z" fill="#1D1E1B"/>
<path d="M137.019 153.533H63.5262C62.458 153.533 61.4335 153.109 60.6782 152.354C59.9229 151.598 59.4987 150.574 59.4987 149.506H141.045C141.045 150.574 140.621 151.598 139.866 152.353C139.111 153.108 138.087 153.533 137.019 153.533Z" fill="white"/>
<path d="M137.019 153.822H63.5259C62.3818 153.821 61.2852 153.365 60.4762 152.556C59.6672 151.748 59.2121 150.651 59.2106 149.507V149.217H141.334V149.507C141.333 150.651 140.879 151.748 140.069 152.557C139.26 153.366 138.163 153.821 137.019 153.822ZM59.8 149.797C59.8747 150.734 60.2995 151.609 60.9899 152.247C61.6803 152.886 62.5856 153.241 63.5259 153.242H137.019C137.959 153.241 138.865 152.886 139.556 152.248C140.246 151.609 140.671 150.734 140.745 149.797H59.8Z" fill="#1D1D1B"/>
<path d="M66.2974 145.44C66.1437 145.44 65.9961 145.379 65.8873 145.27C65.7786 145.161 65.7177 145.014 65.7177 144.86V114.603C65.7177 114.449 65.7786 114.302 65.8873 114.193C65.9961 114.085 66.1437 114.023 66.2974 114.023C66.4512 114.023 66.5986 114.085 66.7074 114.193C66.8161 114.302 66.8772 114.449 66.8772 114.603V144.86C66.8772 145.014 66.8161 145.161 66.7074 145.27C66.5986 145.379 66.4512 145.44 66.2974 145.44Z" fill="white"/>
<path d="M99.5767 127.111H95.7464C94.6599 127.111 93.7789 127.992 93.7789 129.079V132.909C93.7789 133.996 94.6599 134.877 95.7464 134.877H99.5767C100.663 134.877 101.544 133.996 101.544 132.909V129.079C101.544 127.992 100.663 127.111 99.5767 127.111Z" fill="#07ACEE"/>
<path d="M99.5767 135.167H95.7464C95.1479 135.167 94.5739 134.929 94.1507 134.506C93.7275 134.082 93.4895 133.508 93.489 132.91V129.072C93.4895 128.473 93.7275 127.899 94.1507 127.476C94.5739 127.053 95.1479 126.815 95.7464 126.814H99.5767C100.175 126.815 100.749 127.053 101.172 127.476C101.596 127.899 101.834 128.473 101.834 129.072V132.902C101.835 133.199 101.777 133.493 101.664 133.768C101.551 134.043 101.385 134.292 101.175 134.503C100.965 134.713 100.716 134.88 100.442 134.994C100.168 135.108 99.8737 135.167 99.5767 135.167ZM95.7464 127.402C95.3018 127.403 94.8758 127.58 94.5614 127.894C94.247 128.209 94.0698 128.635 94.0688 129.08V132.91C94.0693 133.355 94.2463 133.781 94.5608 134.095C94.8753 134.41 95.3017 134.587 95.7464 134.587H99.5767C100.022 134.587 100.448 134.411 100.763 134.096C101.077 133.781 101.254 133.355 101.254 132.91V129.072C101.254 128.627 101.077 128.201 100.762 127.886C100.448 127.572 100.021 127.395 99.5767 127.394L95.7464 127.402Z" fill="#1D1D1B"/>
<path d="M56.7407 6.94493C52.7692 3.14156 48.2604 1.21289 43.3419 1.21289C41.0421 1.21289 38.3036 2.03997 34.9698 3.74452C30.9113 5.81434 28.9363 8.01366 28.9363 10.4719C28.9357 11.7973 29.4377 13.0737 30.3412 14.0434C30.7833 14.5616 31.3326 14.9778 31.9513 15.263C32.5699 15.5483 33.243 15.696 33.9242 15.6958C34.5639 15.6958 35.4703 15.5026 38.8601 13.2549C41.2179 11.6857 42.5998 11.3571 43.3419 11.3571C45.5915 11.3571 47.6882 12.2654 49.7561 14.1361C51.8607 16.0282 52.8832 17.9878 52.8832 20.1272C52.8832 21.6559 51.5922 23.5789 49.1493 25.6893L41.1541 31.7113L41.1253 31.7344C37.7664 34.384 36.2009 36.6065 36.2009 38.7266C36.2333 40.0662 36.7797 41.342 37.727 42.2897C38.6743 43.2373 39.9499 43.7842 41.2895 43.8171C42.679 43.8171 43.9449 43.16 45.0388 41.8845C46.2969 40.4369 48.616 38.485 51.9188 36.0867C55.4767 33.5588 57.8673 31.5257 59.2221 29.8811C61.5321 27.1604 62.7872 23.7 62.7587 20.1311C62.7587 15.201 60.7353 10.7676 56.7407 6.94493Z" fill="white"/>
<path d="M41.2895 44.104C39.8734 44.0701 38.5246 43.4922 37.5232 42.4904C36.5217 41.4886 35.9444 40.1397 35.911 38.7235C35.911 36.5068 37.5112 34.2129 40.9358 31.5034L40.9668 31.4783L48.958 25.4621C51.3293 23.4097 52.5837 21.564 52.5837 20.1242C52.5837 18.0737 51.5922 16.1856 49.5514 14.3496C47.5415 12.531 45.5065 11.644 43.3323 11.644C42.6288 11.644 41.3088 11.9648 39.0109 13.4934C35.5535 15.7932 34.6278 15.9826 33.9146 15.9826C33.1926 15.983 32.4791 15.8269 31.8231 15.5249C31.1672 15.223 30.5844 14.7824 30.1151 14.2336C29.163 13.2114 28.6347 11.8659 28.6368 10.4689C28.6368 7.89278 30.6622 5.60653 34.8211 3.4826C38.1974 1.75872 40.9784 0.919922 43.3246 0.919922C48.3203 0.919922 52.8968 2.87578 56.9243 6.73132C60.9828 10.612 63.0313 15.1168 63.0313 20.1222C63.061 23.7593 61.7816 27.2857 59.4269 30.0578C58.0547 31.7237 55.6467 33.7703 52.0675 36.3136C48.7821 38.6985 46.4844 40.633 45.2398 42.065C44.1034 43.4178 42.7679 44.104 41.2895 44.104ZM43.3419 11.0661C45.6611 11.0661 47.8274 11.9995 49.9494 13.9205C52.1197 15.8705 53.1731 17.8998 53.1731 20.1242C53.1731 21.7399 51.8474 23.7382 49.3388 25.9066L49.3234 25.9182L41.301 31.9614C38.0156 34.5492 36.4908 36.7002 36.4908 38.7255C36.524 39.9879 37.0401 41.1894 37.9329 42.0826C38.8257 42.9757 40.0271 43.4924 41.2895 43.5261C42.5921 43.5261 43.7786 42.9076 44.8184 41.6901C46.092 40.2233 48.4228 38.2578 51.7469 35.8479C55.2874 33.3355 57.6586 31.3197 58.9979 29.6925C61.2679 27.0245 62.5026 23.629 62.4766 20.1261C62.4766 15.2849 60.4822 10.9212 56.5493 7.15455C52.6319 3.4053 48.1908 1.50357 43.3497 1.50357C41.0963 1.50357 38.4002 2.32105 35.1089 4.00435C31.1548 6.01812 29.2339 8.13436 29.2339 10.4728C29.234 11.7269 29.7098 12.9342 30.5654 13.851C30.9806 14.3384 31.4967 14.7299 32.0779 14.9985C32.6591 15.2671 33.2917 15.4064 33.932 15.4067C34.5002 15.4067 35.3872 15.2135 38.7075 13.0142C41.1174 11.4043 42.5592 11.0661 43.3419 11.0661Z" fill="#1D1E1B"/>
<path d="M38.9105 45.8418C37.6233 45.8418 35.7872 46.296 34.359 48.4547C33.446 49.8374 32.9662 51.4611 32.9811 53.118C32.9811 54.5404 33.5976 55.8044 34.761 56.7726C35.795 57.6579 37.1124 58.1427 38.4736 58.1389C39.6698 58.1389 41.3726 57.7021 42.6636 55.5917C43.401 54.3316 43.7816 52.8947 43.765 51.4347C43.765 46.3868 40.3696 45.8418 38.9105 45.8418Z" fill="white"/>
<path d="M38.4736 58.4276C37.0446 58.4315 35.6615 57.9227 34.5756 56.9937C33.3426 55.9694 32.6913 54.6282 32.6913 53.1169C32.6736 51.4001 33.1703 49.7173 34.1176 48.2853C35.6153 46.0165 37.5519 45.541 38.9106 45.541C40.4566 45.541 44.055 46.1208 44.055 51.4238C44.0717 52.9355 43.677 54.4233 42.913 55.7278C41.5447 57.9618 39.7434 58.4276 38.4736 58.4276ZM38.9106 46.1305C37.693 46.1305 35.9575 46.5615 34.6028 48.6139C33.7202 49.9487 33.2564 51.5167 33.2711 53.1169C33.2711 54.4504 33.8509 55.6292 34.9466 56.5472C35.9281 57.39 37.18 57.8516 38.4736 57.8479C39.5965 57.8479 41.1909 57.4304 42.4181 55.4379C43.1264 54.2234 43.4917 52.8394 43.4752 51.4336C43.4752 46.6465 40.2827 46.1305 38.9106 46.1305Z" fill="#1D1E1B"/>
<path d="M60.0357 24.8019C59.9994 24.8015 59.9633 24.7983 59.9275 24.7923C59.8526 24.7782 59.7812 24.7493 59.7175 24.7076C59.6537 24.6658 59.5988 24.6119 59.5559 24.5489C59.513 24.4858 59.4829 24.415 59.4674 24.3404C59.4519 24.2658 59.4512 24.1888 59.4655 24.1139C60.4705 18.807 59.74 14.4219 57.2972 11.0805C53.432 5.79866 46.5074 4.89613 46.4378 4.89613C46.3617 4.887 46.2882 4.86294 46.2213 4.82536C46.1545 4.78778 46.0956 4.73741 46.0483 4.67711C46.0009 4.61681 45.9659 4.54778 45.9452 4.47394C45.9245 4.4001 45.9185 4.32294 45.9277 4.24681C45.9368 4.17067 45.9609 4.09708 45.9984 4.03024C46.036 3.96339 46.0863 3.90455 46.1466 3.85717C46.2069 3.80979 46.276 3.77482 46.3499 3.75412C46.4237 3.73343 46.501 3.72744 46.5771 3.73657C46.8805 3.77329 54.06 4.7029 58.2267 10.3828C60.8724 13.9949 61.6726 18.693 60.6058 24.3265C60.5814 24.4599 60.5109 24.5806 60.4067 24.6675C60.3026 24.7543 60.1713 24.8019 60.0357 24.8019Z" fill="white"/>
<path d="M65.3912 56.3488C64.7361 54.2075 63.5165 52.6285 61.7695 51.6506C60.952 51.1945 59.8156 50.9452 58.2908 50.8872C56.4374 50.8157 55.2991 51.2061 54.8121 52.0796C54.5484 52.5496 54.4732 53.1023 54.6015 53.6257C54.6555 53.8977 54.768 54.1548 54.9312 54.379C55.0944 54.6032 55.3042 54.7894 55.5464 54.9244C55.7726 55.0501 56.1262 55.1641 57.7844 55.0365C58.9324 54.9476 59.4891 55.1041 59.7538 55.2529C60.552 55.6993 61.1162 56.4376 61.4796 57.5141C61.8429 58.5906 61.8256 59.5028 61.4024 60.2623C61.099 60.8054 60.2583 61.2285 58.9712 61.4972L54.9338 62.048H54.9183C53.2003 62.3224 52.2031 62.8017 51.7818 63.5554C51.5282 64.0376 51.4693 64.5989 51.6174 65.1233C51.7656 65.6476 52.1095 66.095 52.5781 66.3731C53.0728 66.6495 53.6525 66.6669 54.2961 66.4292C55.0305 66.1644 56.2404 65.9306 57.8909 65.7354C59.6553 65.5421 60.9095 65.2987 61.7174 64.9817C63.078 64.4743 64.211 63.4948 64.9099 62.2219C65.8898 60.4768 66.0502 58.4978 65.3912 56.3488Z" fill="white"/>
<path d="M53.4435 66.8896C53.0918 66.8919 52.7456 66.8027 52.4387 66.6306C51.903 66.3146 51.5095 65.8043 51.3403 65.2057C51.1712 64.6071 51.2393 63.9664 51.5304 63.4167C51.9981 62.5799 53.0609 62.0639 54.8756 61.7663H54.8951L58.9226 61.2175C60.1034 60.974 60.8937 60.5855 61.1507 60.1274C61.5373 59.4433 61.5508 58.6219 61.2068 57.6151C60.8628 56.6082 60.3468 55.924 59.6124 55.5143C59.4191 55.408 58.9418 55.2477 57.8074 55.3346C56.068 55.468 55.6815 55.3346 55.4071 55.1858C55.1293 55.031 54.8884 54.8177 54.7009 54.5608C54.5134 54.3039 54.3837 54.0095 54.3209 53.6977C54.1753 53.1042 54.261 52.4775 54.5606 51.9448C55.1076 50.9669 56.3309 50.5302 58.3041 50.6036C59.8734 50.6635 61.0523 50.9244 61.9104 51.4036C63.7251 52.4183 64.989 54.0552 65.6693 56.27C66.3515 58.4983 66.1814 60.5526 65.1648 62.3732C64.435 63.7091 63.249 64.7381 61.8234 65.2721C60.9904 65.5967 59.715 65.8518 57.9234 66.0451C56.2962 66.2384 55.1075 66.4645 54.3944 66.7215C54.0901 66.8341 53.768 66.891 53.4435 66.8896ZM58.4143 54.7239C59.0675 54.7239 59.5642 54.8166 59.8966 55.0022C60.7605 55.4853 61.3693 56.2777 61.7558 57.4237C62.1423 58.5697 62.1229 59.5708 61.6571 60.4057C61.3054 61.0338 60.4222 61.4976 59.0307 61.7837H59.0115L54.9741 62.3364C53.3411 62.5954 52.4117 63.0283 52.0367 63.6989C51.8201 64.1141 51.7703 64.5964 51.8978 65.047C52.0254 65.4976 52.3206 65.8824 52.7228 66.1224C53.1383 66.3543 53.6349 66.3678 54.1973 66.1591C54.953 65.8866 56.1841 65.6489 57.8578 65.4517C59.5971 65.2585 60.8281 65.0207 61.6127 64.7154C62.9113 64.2314 63.9923 63.2964 64.6585 62.0813C65.5958 60.4038 65.7485 58.504 65.1146 56.4323C64.4807 54.3605 63.3077 52.8415 61.636 51.9023C60.8629 51.4694 59.7651 51.2317 58.2886 51.1757C56.5493 51.108 55.5038 51.4501 55.0747 52.2192C54.8437 52.6305 54.7786 53.1145 54.893 53.5721C54.9389 53.8041 55.0347 54.0234 55.1734 54.2149C55.3122 54.4064 55.4908 54.5655 55.697 54.6813C55.8902 54.7896 56.2769 54.8747 57.7708 54.7587C57.9949 54.7317 58.2114 54.7239 58.4143 54.7239Z" fill="#1D1E1B"/>
<path d="M51.0165 67.6215C50.5584 67.3644 49.8163 67.1615 48.8906 67.6447C48.2914 67.9543 47.7986 68.4363 47.4759 69.0285C47.3361 69.2784 47.2551 69.5568 47.2386 69.8427C47.2222 70.1287 47.2709 70.4146 47.3811 70.6789C47.5729 71.1987 47.9447 71.6327 48.4288 71.9023C48.854 72.14 49.5438 72.3216 50.4231 71.8288C50.9343 71.5275 51.3544 71.0934 51.6387 70.5726C52.6321 68.7714 51.5344 67.9114 51.0165 67.6215Z" fill="white"/>
<path d="M49.3195 72.4316C48.9543 72.4305 48.5956 72.3353 48.2779 72.1553C47.734 71.8534 47.3165 71.3666 47.101 70.7832C46.9747 70.4793 46.9192 70.1507 46.9387 69.8223C46.9581 69.4938 47.0519 69.1741 47.2131 68.8873C47.5639 68.2458 48.0981 67.7235 48.7475 67.3875C49.7988 66.8445 50.6375 67.0784 51.1574 67.3683C51.6212 67.6273 53.0436 68.6341 51.8821 70.7135C51.5731 71.2802 51.1163 71.7525 50.5602 72.08C50.1839 72.3022 49.7565 72.4234 49.3195 72.4316ZM50.0018 67.6427C49.6564 67.6488 49.3175 67.7382 49.0141 67.9035C48.4659 68.1868 48.0149 68.6277 47.7193 69.1694C47.6007 69.3824 47.5322 69.6196 47.5188 69.863C47.5054 70.1064 47.5476 70.3497 47.6421 70.5744C47.8097 71.0309 48.1354 71.4121 48.56 71.649C49.0857 71.9427 49.6617 71.9176 50.2724 71.5775C50.7369 71.3005 51.1186 70.9041 51.3778 70.4295C52.2204 68.9221 51.4241 68.1818 50.8752 67.8746C50.6091 67.7227 50.3081 67.6429 50.0018 67.6427Z" fill="#1D1E1B"/>
<path d="M63.901 62.2956C63.8065 62.2956 63.7135 62.2724 63.63 62.2282C63.5464 62.184 63.4749 62.1202 63.4218 62.0421C63.3686 61.9639 63.3354 61.874 63.325 61.7801C63.3145 61.6862 63.3271 61.5911 63.3618 61.5032C64.2256 59.3117 64.2875 57.4448 63.555 55.9702C62.496 53.8637 60.1131 53.1988 60.0899 53.193C59.9413 53.1536 59.8144 53.0567 59.7372 52.9237C59.66 52.7907 59.6388 52.6324 59.6783 52.4838C59.7178 52.3351 59.8146 52.2082 59.9476 52.1311C60.0806 52.0539 60.2389 52.0327 60.3876 52.0722C60.5054 52.1031 63.2865 52.8645 64.5832 55.4368C65.4896 57.2283 65.4432 59.4122 64.4498 61.9284C64.4065 62.0382 64.3308 62.1321 64.2328 62.1978C64.1347 62.2634 64.019 62.2975 63.901 62.2956Z" fill="white"/>
<defs>
<filter id="filter0_d_1240_19849" x="-2.14397" y="58.4863" width="20.6316" height="20.6318" filterUnits="userSpaceOnUse" color-interpolation-filters="sRGB">
<feFlood flood-opacity="0" result="BackgroundImageFix"/>
<feColorMatrix in="SourceAlpha" type="matrix" values="0 0 0 0 0 0 0 0 0 0 0 0 0 0 0 0 0 0 127 0" result="hardAlpha"/>
<feOffset dy="1.08642"/>
<feGaussianBlur stdDeviation="2.71606"/>
<feComposite in2="hardAlpha" operator="out"/>
<feColorMatrix type="matrix" values="0 0 0 0 0 0 0 0 0 0 0 0 0 0 0 0 0 0 0.05 0"/>
<feBlend mode="normal" in2="BackgroundImageFix" result="effect1_dropShadow_1240_19849"/>
<feBlend mode="normal" in="SourceGraphic" in2="effect1_dropShadow_1240_19849" result="shape"/>
</filter>
<filter id="filter1_d_1240_19849" x="197.677" y="89.1133" width="20.6339" height="20.6338" filterUnits="userSpaceOnUse" color-interpolation-filters="sRGB">
<feFlood flood-opacity="0" result="BackgroundImageFix"/>
<feColorMatrix in="SourceAlpha" type="matrix" values="0 0 0 0 0 0 0 0 0 0 0 0 0 0 0 0 0 0 127 0" result="hardAlpha"/>
<feOffset dy="1.08642"/>
<feGaussianBlur stdDeviation="2.71606"/>
<feComposite in2="hardAlpha" operator="out"/>
<feColorMatrix type="matrix" values="0 0 0 0 0 0 0 0 0 0 0 0 0 0 0 0 0 0 0.05 0"/>
<feBlend mode="normal" in2="BackgroundImageFix" result="effect1_dropShadow_1240_19849"/>
<feBlend mode="normal" in="SourceGraphic" in2="effect1_dropShadow_1240_19849" result="shape"/>
</filter>
<linearGradient id="paint0_linear_1240_19849" x1="10.9082" y1="60.7539" x2="209.094" y2="107.959" gradientUnits="userSpaceOnUse">
<stop stop-color="#CDD5E2"/>
<stop offset="1" stop-color="#CDD5E2" stop-opacity="0"/>
</linearGradient>
<linearGradient id="paint1_linear_1240_19849" x1="208.752" y1="105.233" x2="188.719" y2="157.823" gradientUnits="userSpaceOnUse">
<stop stop-color="#CDD5E2"/>
<stop offset="1" stop-color="#CDD5E2" stop-opacity="0"/>
</linearGradient>
<linearGradient id="paint2_linear_1240_19849" x1="104.802" y1="13.4062" x2="104.802" y2="195.67" gradientUnits="userSpaceOnUse">
<stop stop-color="#CDD5E2"/>
<stop offset="1" stop-color="#CDD5E2" stop-opacity="0"/>
</linearGradient>
<linearGradient id="paint3_linear_1240_19849" x1="104.802" y1="31.6309" x2="104.802" y2="177.442" gradientUnits="userSpaceOnUse">
<stop stop-color="#CDD5E2"/>
<stop offset="1" stop-color="#CDD5E2" stop-opacity="0"/>
</linearGradient>
</defs>
</svg>
