<svg width="1920" height="70" viewBox="0 0 1920 70" fill="none" xmlns="http://www.w3.org/2000/svg">
<g clip-path="url(#clip0_15203_94700)">
<rect width="1920" height="70" fill="#0E2145"/>
<g opacity="0.7" filter="url(#filter0_f_15203_94700)">
<rect x="357" y="-113" width="1206" height="1206" rx="603" fill="#0170FF"/>
</g>
<circle cx="114.118" cy="43.8061" r="1.43873" fill="#509CFF" fill-opacity="0.1"/>
<circle cx="407.618" cy="43.8061" r="1.43873" fill="#509CFF" fill-opacity="0.1"/>
<circle cx="752.911" cy="43.8061" r="1.43873" fill="#509CFF" fill-opacity="0.1"/>
<circle cx="217.708" cy="43.8059" r="1.43873" fill="#509CFF" fill-opacity="0.1"/>
<circle cx="511.208" cy="43.806" r="1.43873" fill="#509CFF" fill-opacity="0.1"/>
<circle cx="856.501" cy="43.8061" r="1.43873" fill="#509CFF" fill-opacity="0.1"/>
<circle cx="165.911" cy="43.8062" r="1.43873" fill="#509CFF" fill-opacity="0.1"/>
<circle cx="459.411" cy="43.8059" r="1.43873" fill="#509CFF" fill-opacity="0.1"/>
<circle cx="804.708" cy="43.8061" r="1.43873" fill="#509CFF" fill-opacity="0.1"/>
<circle cx="269.501" cy="43.806" r="1.43873" fill="#509CFF" fill-opacity="0.1"/>
<circle cx="614.798" cy="43.8059" r="1.43873" fill="#509CFF" fill-opacity="0.1"/>
<circle cx="563.001" cy="43.8061" r="1.43873" fill="#509CFF" fill-opacity="0.1"/>
<circle cx="908.298" cy="43.8059" r="1.43873" fill="#509CFF" fill-opacity="0.1"/>
<circle cx="131.384" cy="43.8061" r="1.43873" fill="#509CFF" fill-opacity="0.1"/>
<circle cx="424.884" cy="43.8059" r="1.43873" fill="#509CFF" fill-opacity="0.1"/>
<circle cx="770.177" cy="43.806" r="1.43873" fill="#509CFF" fill-opacity="0.1"/>
<circle cx="234.974" cy="43.806" r="1.43873" fill="#509CFF" fill-opacity="0.1"/>
<circle cx="528.474" cy="43.806" r="1.43873" fill="#509CFF" fill-opacity="0.1"/>
<circle cx="873.767" cy="43.8059" r="1.43873" fill="#509CFF" fill-opacity="0.1"/>
<circle cx="183.177" cy="43.8059" r="1.43873" fill="#509CFF" fill-opacity="0.1"/>
<circle cx="476.677" cy="43.806" r="1.43873" fill="#509CFF" fill-opacity="0.1"/>
<circle cx="821.974" cy="43.8061" r="1.43873" fill="#509CFF" fill-opacity="0.1"/>
<circle cx="286.767" cy="43.806" r="1.43873" fill="#509CFF" fill-opacity="0.1"/>
<circle cx="632.06" cy="43.8059" r="1.43873" fill="#509CFF" fill-opacity="0.1"/>
<circle cx="580.267" cy="43.8061" r="1.43873" fill="#509CFF" fill-opacity="0.1"/>
<circle cx="925.56" cy="43.806" r="1.43873" fill="#509CFF" fill-opacity="0.1"/>
<circle cx="148.65" cy="43.8059" r="1.43873" fill="#509CFF" fill-opacity="0.1"/>
<circle cx="442.15" cy="43.8059" r="1.43873" fill="#509CFF" fill-opacity="0.1"/>
<circle cx="787.443" cy="43.8061" r="1.43873" fill="#509CFF" fill-opacity="0.1"/>
<circle cx="252.236" cy="43.806" r="1.43873" fill="#509CFF" fill-opacity="0.1"/>
<circle cx="597.532" cy="43.8061" r="1.43873" fill="#509CFF" fill-opacity="0.1"/>
<circle cx="545.736" cy="43.806" r="1.43873" fill="#509CFF" fill-opacity="0.1"/>
<circle cx="891.032" cy="43.8059" r="1.43873" fill="#509CFF" fill-opacity="0.1"/>
<circle cx="200.443" cy="43.8059" r="1.43873" fill="#509CFF" fill-opacity="0.1"/>
<circle cx="493.943" cy="43.806" r="1.43873" fill="#509CFF" fill-opacity="0.1"/>
<circle cx="839.236" cy="43.8061" r="1.43873" fill="#509CFF" fill-opacity="0.1"/>
<circle cx="10.5286" cy="43.806" r="1.43873" fill="#509CFF" fill-opacity="0.1"/>
<circle cx="304.032" cy="43.806" r="1.43873" fill="#509CFF" fill-opacity="0.1"/>
<circle cx="649.325" cy="43.8059" r="1.43873" fill="#509CFF" fill-opacity="0.1"/>
<circle cx="62.3254" cy="43.806" r="1.43873" fill="#509CFF" fill-opacity="0.1"/>
<circle cx="355.825" cy="43.8061" r="1.43873" fill="#509CFF" fill-opacity="0.1"/>
<circle cx="701.118" cy="43.806" r="1.43873" fill="#509CFF" fill-opacity="0.1"/>
<circle cx="27.7942" cy="43.8059" r="1.43873" fill="#509CFF" fill-opacity="0.1"/>
<circle cx="321.294" cy="43.8061" r="1.43873" fill="#509CFF" fill-opacity="0.1"/>
<circle cx="666.591" cy="43.8059" r="1.43873" fill="#509CFF" fill-opacity="0.1"/>
<circle cx="79.5872" cy="43.806" r="1.43873" fill="#509CFF" fill-opacity="0.1"/>
<circle cx="373.087" cy="43.8061" r="1.43873" fill="#509CFF" fill-opacity="0.1"/>
<circle cx="718.384" cy="43.806" r="1.43873" fill="#509CFF" fill-opacity="0.1"/>
<circle cx="45.0598" cy="43.806" r="1.43873" fill="#509CFF" fill-opacity="0.1"/>
<circle cx="338.56" cy="43.8061" r="1.43873" fill="#509CFF" fill-opacity="0.1"/>
<circle cx="683.853" cy="43.8059" r="1.43873" fill="#509CFF" fill-opacity="0.1"/>
<circle cx="96.8528" cy="43.8061" r="1.43873" fill="#509CFF" fill-opacity="0.1"/>
<circle cx="390.353" cy="43.8059" r="1.43873" fill="#509CFF" fill-opacity="0.1"/>
<circle cx="735.65" cy="43.806" r="1.43873" fill="#509CFF" fill-opacity="0.1"/>
<circle cx="114.118" cy="9.27674" r="1.43873" fill="#509CFF" fill-opacity="0.1"/>
<circle cx="407.618" cy="9.27656" r="1.43873" fill="#509CFF" fill-opacity="0.1"/>
<circle cx="752.911" cy="9.27668" r="1.43873" fill="#509CFF" fill-opacity="0.1"/>
<circle cx="217.704" cy="9.27656" r="1.43873" fill="#509CFF" fill-opacity="0.1"/>
<circle cx="511.204" cy="9.27668" r="1.43873" fill="#509CFF" fill-opacity="0.1"/>
<circle cx="856.501" cy="9.27656" r="1.43873" fill="#509CFF" fill-opacity="0.1"/>
<circle cx="165.911" cy="9.27656" r="1.43873" fill="#509CFF" fill-opacity="0.1"/>
<circle cx="459.411" cy="9.27662" r="1.43873" fill="#509CFF" fill-opacity="0.1"/>
<circle cx="804.704" cy="9.27674" r="1.43873" fill="#509CFF" fill-opacity="0.1"/>
<circle cx="269.501" cy="9.27668" r="1.43873" fill="#509CFF" fill-opacity="0.1"/>
<circle cx="614.794" cy="9.27656" r="1.43873" fill="#509CFF" fill-opacity="0.1"/>
<circle cx="563.001" cy="9.2765" r="1.43873" fill="#509CFF" fill-opacity="0.1"/>
<circle cx="908.294" cy="9.27662" r="1.43873" fill="#509CFF" fill-opacity="0.1"/>
<circle cx="131.38" cy="9.2765" r="1.43873" fill="#509CFF" fill-opacity="0.1"/>
<circle cx="424.88" cy="9.27656" r="1.43873" fill="#509CFF" fill-opacity="0.1"/>
<circle cx="770.177" cy="9.27668" r="1.43873" fill="#509CFF" fill-opacity="0.1"/>
<circle cx="234.97" cy="9.27662" r="1.43873" fill="#509CFF" fill-opacity="0.1"/>
<circle cx="528.47" cy="9.27668" r="1.43873" fill="#509CFF" fill-opacity="0.1"/>
<circle cx="873.763" cy="9.27656" r="1.43873" fill="#509CFF" fill-opacity="0.1"/>
<circle cx="183.177" cy="9.27656" r="1.43873" fill="#509CFF" fill-opacity="0.1"/>
<circle cx="476.677" cy="9.27662" r="1.43873" fill="#509CFF" fill-opacity="0.1"/>
<circle cx="821.97" cy="9.2765" r="1.43873" fill="#509CFF" fill-opacity="0.1"/>
<circle cx="286.763" cy="9.27668" r="1.43873" fill="#509CFF" fill-opacity="0.1"/>
<circle cx="632.06" cy="9.27656" r="1.43873" fill="#509CFF" fill-opacity="0.1"/>
<circle cx="580.263" cy="9.2765" r="1.43873" fill="#509CFF" fill-opacity="0.1"/>
<circle cx="925.56" cy="9.27662" r="1.43873" fill="#509CFF" fill-opacity="0.1"/>
<circle cx="148.646" cy="9.2765" r="1.43873" fill="#509CFF" fill-opacity="0.1"/>
<circle cx="442.146" cy="9.27656" r="1.43873" fill="#509CFF" fill-opacity="0.1"/>
<circle cx="787.439" cy="9.27674" r="1.43873" fill="#509CFF" fill-opacity="0.1"/>
<circle cx="252.236" cy="9.27662" r="1.43873" fill="#509CFF" fill-opacity="0.1"/>
<circle cx="597.529" cy="9.27656" r="1.43873" fill="#509CFF" fill-opacity="0.1"/>
<circle cx="545.736" cy="9.27668" r="1.43873" fill="#509CFF" fill-opacity="0.1"/>
<circle cx="891.029" cy="9.27662" r="1.43873" fill="#509CFF" fill-opacity="0.1"/>
<circle cx="200.439" cy="9.27656" r="1.43873" fill="#509CFF" fill-opacity="0.1"/>
<circle cx="493.939" cy="9.27668" r="1.43873" fill="#509CFF" fill-opacity="0.1"/>
<circle cx="839.236" cy="9.2765" r="1.43873" fill="#509CFF" fill-opacity="0.1"/>
<circle cx="10.5286" cy="9.27656" r="1.43873" fill="#509CFF" fill-opacity="0.1"/>
<circle cx="304.029" cy="9.27668" r="1.43873" fill="#509CFF" fill-opacity="0.1"/>
<circle cx="649.325" cy="9.27656" r="1.43873" fill="#509CFF" fill-opacity="0.1"/>
<circle cx="62.3215" cy="9.27668" r="1.43873" fill="#509CFF" fill-opacity="0.1"/>
<circle cx="355.825" cy="9.2765" r="1.43873" fill="#509CFF" fill-opacity="0.1"/>
<circle cx="701.118" cy="9.27662" r="1.43873" fill="#509CFF" fill-opacity="0.1"/>
<circle cx="27.7942" cy="9.27662" r="1.43873" fill="#509CFF" fill-opacity="0.1"/>
<circle cx="321.294" cy="9.27668" r="1.43873" fill="#509CFF" fill-opacity="0.1"/>
<circle cx="666.587" cy="9.27656" r="1.43873" fill="#509CFF" fill-opacity="0.1"/>
<circle cx="79.5872" cy="9.27668" r="1.43873" fill="#509CFF" fill-opacity="0.1"/>
<circle cx="373.087" cy="9.2765" r="1.43873" fill="#509CFF" fill-opacity="0.1"/>
<circle cx="718.384" cy="9.27668" r="1.43873" fill="#509CFF" fill-opacity="0.1"/>
<circle cx="45.0559" cy="9.27668" r="1.43873" fill="#509CFF" fill-opacity="0.1"/>
<circle cx="338.56" cy="9.27674" r="1.43873" fill="#509CFF" fill-opacity="0.1"/>
<circle cx="683.853" cy="9.27662" r="1.43873" fill="#509CFF" fill-opacity="0.1"/>
<circle cx="96.8528" cy="9.27668" r="1.43873" fill="#509CFF" fill-opacity="0.1"/>
<circle cx="390.353" cy="9.27656" r="1.43873" fill="#509CFF" fill-opacity="0.1"/>
<circle cx="735.65" cy="9.27668" r="1.43873" fill="#509CFF" fill-opacity="0.1"/>
<circle cx="114.118" cy="61.0712" r="1.43873" fill="#509CFF" fill-opacity="0.1"/>
<circle cx="407.618" cy="61.071" r="1.43873" fill="#509CFF" fill-opacity="0.1"/>
<circle cx="752.911" cy="61.0711" r="1.43873" fill="#509CFF" fill-opacity="0.1"/>
<circle cx="217.708" cy="61.071" r="1.43873" fill="#509CFF" fill-opacity="0.1"/>
<circle cx="511.208" cy="61.0711" r="1.43873" fill="#509CFF" fill-opacity="0.1"/>
<circle cx="856.501" cy="61.071" r="1.43873" fill="#509CFF" fill-opacity="0.1"/>
<circle cx="165.911" cy="61.071" r="1.43873" fill="#509CFF" fill-opacity="0.1"/>
<circle cx="459.411" cy="61.0711" r="1.43873" fill="#509CFF" fill-opacity="0.1"/>
<circle cx="804.708" cy="61.0711" r="1.43873" fill="#509CFF" fill-opacity="0.1"/>
<circle cx="269.501" cy="61.0711" r="1.43873" fill="#509CFF" fill-opacity="0.1"/>
<circle cx="614.798" cy="61.071" r="1.43873" fill="#509CFF" fill-opacity="0.1"/>
<circle cx="563.001" cy="61.0712" r="1.43873" fill="#509CFF" fill-opacity="0.1"/>
<circle cx="908.294" cy="61.0711" r="1.43873" fill="#509CFF" fill-opacity="0.1"/>
<circle cx="131.384" cy="61.0712" r="1.43873" fill="#509CFF" fill-opacity="0.1"/>
<circle cx="424.884" cy="61.071" r="1.43873" fill="#509CFF" fill-opacity="0.1"/>
<circle cx="770.177" cy="61.0711" r="1.43873" fill="#509CFF" fill-opacity="0.1"/>
<circle cx="234.974" cy="61.0711" r="1.43873" fill="#509CFF" fill-opacity="0.1"/>
<circle cx="528.474" cy="61.0711" r="1.43873" fill="#509CFF" fill-opacity="0.1"/>
<circle cx="873.767" cy="61.071" r="1.43873" fill="#509CFF" fill-opacity="0.1"/>
<circle cx="183.177" cy="61.071" r="1.43873" fill="#509CFF" fill-opacity="0.1"/>
<circle cx="476.677" cy="61.0711" r="1.43873" fill="#509CFF" fill-opacity="0.1"/>
<circle cx="821.974" cy="61.0712" r="1.43873" fill="#509CFF" fill-opacity="0.1"/>
<circle cx="286.767" cy="61.0711" r="1.43873" fill="#509CFF" fill-opacity="0.1"/>
<circle cx="632.06" cy="61.071" r="1.43873" fill="#509CFF" fill-opacity="0.1"/>
<circle cx="580.267" cy="61.0712" r="1.43873" fill="#509CFF" fill-opacity="0.1"/>
<circle cx="925.56" cy="61.0711" r="1.43873" fill="#509CFF" fill-opacity="0.1"/>
<circle cx="148.65" cy="61.071" r="1.43873" fill="#509CFF" fill-opacity="0.1"/>
<circle cx="442.15" cy="61.071" r="1.43873" fill="#509CFF" fill-opacity="0.1"/>
<circle cx="787.443" cy="61.0712" r="1.43873" fill="#509CFF" fill-opacity="0.1"/>
<circle cx="252.236" cy="61.0711" r="1.43873" fill="#509CFF" fill-opacity="0.1"/>
<circle cx="597.532" cy="61.0712" r="1.43873" fill="#509CFF" fill-opacity="0.1"/>
<circle cx="545.736" cy="61.0711" r="1.43873" fill="#509CFF" fill-opacity="0.1"/>
<circle cx="891.032" cy="61.071" r="1.43873" fill="#509CFF" fill-opacity="0.1"/>
<circle cx="200.443" cy="61.071" r="1.43873" fill="#509CFF" fill-opacity="0.1"/>
<circle cx="493.943" cy="61.0711" r="1.43873" fill="#509CFF" fill-opacity="0.1"/>
<circle cx="839.236" cy="61.0712" r="1.43873" fill="#509CFF" fill-opacity="0.1"/>
<circle cx="10.5286" cy="61.0711" r="1.43873" fill="#509CFF" fill-opacity="0.1"/>
<circle cx="304.032" cy="61.0711" r="1.43873" fill="#509CFF" fill-opacity="0.1"/>
<circle cx="649.325" cy="61.071" r="1.43873" fill="#509CFF" fill-opacity="0.1"/>
<circle cx="62.3254" cy="61.0711" r="1.43873" fill="#509CFF" fill-opacity="0.1"/>
<circle cx="355.825" cy="61.0712" r="1.43873" fill="#509CFF" fill-opacity="0.1"/>
<circle cx="701.118" cy="61.0711" r="1.43873" fill="#509CFF" fill-opacity="0.1"/>
<circle cx="27.7942" cy="61.0711" r="1.43873" fill="#509CFF" fill-opacity="0.1"/>
<circle cx="321.294" cy="61.0711" r="1.43873" fill="#509CFF" fill-opacity="0.1"/>
<circle cx="666.591" cy="61.071" r="1.43873" fill="#509CFF" fill-opacity="0.1"/>
<circle cx="79.5872" cy="61.0711" r="1.43873" fill="#509CFF" fill-opacity="0.1"/>
<circle cx="373.087" cy="61.0712" r="1.43873" fill="#509CFF" fill-opacity="0.1"/>
<circle cx="718.384" cy="61.0711" r="1.43873" fill="#509CFF" fill-opacity="0.1"/>
<circle cx="45.0598" cy="61.0711" r="1.43873" fill="#509CFF" fill-opacity="0.1"/>
<circle cx="338.56" cy="61.0712" r="1.43873" fill="#509CFF" fill-opacity="0.1"/>
<circle cx="683.853" cy="61.0711" r="1.43873" fill="#509CFF" fill-opacity="0.1"/>
<circle cx="96.8528" cy="61.0711" r="1.43873" fill="#509CFF" fill-opacity="0.1"/>
<circle cx="390.353" cy="61.071" r="1.43873" fill="#509CFF" fill-opacity="0.1"/>
<circle cx="735.65" cy="61.0711" r="1.43873" fill="#509CFF" fill-opacity="0.1"/>
<circle cx="114.118" cy="26.5411" r="1.43873" fill="#509CFF" fill-opacity="0.1"/>
<circle cx="407.618" cy="26.5412" r="1.43873" fill="#509CFF" fill-opacity="0.1"/>
<circle cx="752.911" cy="26.5414" r="1.43873" fill="#509CFF" fill-opacity="0.1"/>
<circle cx="217.704" cy="26.5412" r="1.43873" fill="#509CFF" fill-opacity="0.1"/>
<circle cx="511.204" cy="26.5413" r="1.43873" fill="#509CFF" fill-opacity="0.1"/>
<circle cx="856.501" cy="26.5412" r="1.43873" fill="#509CFF" fill-opacity="0.1"/>
<circle cx="165.911" cy="26.5412" r="1.43873" fill="#509CFF" fill-opacity="0.1"/>
<circle cx="459.411" cy="26.5413" r="1.43873" fill="#509CFF" fill-opacity="0.1"/>
<circle cx="804.704" cy="26.5411" r="1.43873" fill="#509CFF" fill-opacity="0.1"/>
<circle cx="269.501" cy="26.5413" r="1.43873" fill="#509CFF" fill-opacity="0.1"/>
<circle cx="614.794" cy="26.5412" r="1.43873" fill="#509CFF" fill-opacity="0.1"/>
<circle cx="563.001" cy="26.5414" r="1.43873" fill="#509CFF" fill-opacity="0.1"/>
<circle cx="908.294" cy="26.5413" r="1.43873" fill="#509CFF" fill-opacity="0.1"/>
<circle cx="131.38" cy="26.5412" r="1.43873" fill="#509CFF" fill-opacity="0.1"/>
<circle cx="424.88" cy="26.5412" r="1.43873" fill="#509CFF" fill-opacity="0.1"/>
<circle cx="770.177" cy="26.5414" r="1.43873" fill="#509CFF" fill-opacity="0.1"/>
<circle cx="234.97" cy="26.5413" r="1.43873" fill="#509CFF" fill-opacity="0.1"/>
<circle cx="528.47" cy="26.5414" r="1.43873" fill="#509CFF" fill-opacity="0.1"/>
<circle cx="873.763" cy="26.5412" r="1.43873" fill="#509CFF" fill-opacity="0.1"/>
<circle cx="183.177" cy="26.5412" r="1.43873" fill="#509CFF" fill-opacity="0.1"/>
<circle cx="476.677" cy="26.5413" r="1.43873" fill="#509CFF" fill-opacity="0.1"/>
<circle cx="821.97" cy="26.5414" r="1.43873" fill="#509CFF" fill-opacity="0.1"/>
<circle cx="286.763" cy="26.5413" r="1.43873" fill="#509CFF" fill-opacity="0.1"/>
<circle cx="632.06" cy="26.5412" r="1.43873" fill="#509CFF" fill-opacity="0.1"/>
<circle cx="580.263" cy="26.5414" r="1.43873" fill="#509CFF" fill-opacity="0.1"/>
<circle cx="925.56" cy="26.5412" r="1.43873" fill="#509CFF" fill-opacity="0.1"/>
<circle cx="148.646" cy="26.5412" r="1.43873" fill="#509CFF" fill-opacity="0.1"/>
<circle cx="442.146" cy="26.5413" r="1.43873" fill="#509CFF" fill-opacity="0.1"/>
<circle cx="787.439" cy="26.5414" r="1.43873" fill="#509CFF" fill-opacity="0.1"/>
<circle cx="252.236" cy="26.5413" r="1.43873" fill="#509CFF" fill-opacity="0.1"/>
<circle cx="597.529" cy="26.5412" r="1.43873" fill="#509CFF" fill-opacity="0.1"/>
<circle cx="545.736" cy="26.5411" r="1.43873" fill="#509CFF" fill-opacity="0.1"/>
<circle cx="891.029" cy="26.5412" r="1.43873" fill="#509CFF" fill-opacity="0.1"/>
<circle cx="200.443" cy="26.5412" r="1.43873" fill="#509CFF" fill-opacity="0.1"/>
<circle cx="493.943" cy="26.5413" r="1.43873" fill="#509CFF" fill-opacity="0.1"/>
<circle cx="839.236" cy="26.5412" r="1.43873" fill="#509CFF" fill-opacity="0.1"/>
<circle cx="10.5286" cy="26.5413" r="1.43873" fill="#509CFF" fill-opacity="0.1"/>
<circle cx="304.029" cy="26.5413" r="1.43873" fill="#509CFF" fill-opacity="0.1"/>
<circle cx="649.325" cy="26.5412" r="1.43873" fill="#509CFF" fill-opacity="0.1"/>
<circle cx="62.3215" cy="26.5413" r="1.43873" fill="#509CFF" fill-opacity="0.1"/>
<circle cx="355.825" cy="26.5411" r="1.43873" fill="#509CFF" fill-opacity="0.1"/>
<circle cx="701.118" cy="26.5413" r="1.43873" fill="#509CFF" fill-opacity="0.1"/>
<circle cx="27.7942" cy="26.5413" r="1.43873" fill="#509CFF" fill-opacity="0.1"/>
<circle cx="321.294" cy="26.5414" r="1.43873" fill="#509CFF" fill-opacity="0.1"/>
<circle cx="666.587" cy="26.5412" r="1.43873" fill="#509CFF" fill-opacity="0.1"/>
<circle cx="79.5872" cy="26.5414" r="1.43873" fill="#509CFF" fill-opacity="0.1"/>
<circle cx="373.087" cy="26.5411" r="1.43873" fill="#509CFF" fill-opacity="0.1"/>
<circle cx="718.384" cy="26.5413" r="1.43873" fill="#509CFF" fill-opacity="0.1"/>
<circle cx="45.0559" cy="26.5413" r="1.43873" fill="#509CFF" fill-opacity="0.1"/>
<circle cx="338.56" cy="26.5414" r="1.43873" fill="#509CFF" fill-opacity="0.1"/>
<circle cx="683.853" cy="26.5413" r="1.43873" fill="#509CFF" fill-opacity="0.1"/>
<circle cx="96.8528" cy="26.5414" r="1.43873" fill="#509CFF" fill-opacity="0.1"/>
<circle cx="390.353" cy="26.5412" r="1.43873" fill="#509CFF" fill-opacity="0.1"/>
<circle cx="735.65" cy="26.5414" r="1.43873" fill="#509CFF" fill-opacity="0.1"/>
<circle cx="1048.03" cy="43.8061" r="1.43873" fill="#509CFF" fill-opacity="0.1"/>
<circle cx="1341.53" cy="43.8061" r="1.43873" fill="#509CFF" fill-opacity="0.1"/>
<circle cx="1686.82" cy="43.8061" r="1.43873" fill="#509CFF" fill-opacity="0.1"/>
<circle cx="1151.62" cy="43.8059" r="1.43873" fill="#509CFF" fill-opacity="0.1"/>
<circle cx="1445.12" cy="43.806" r="1.43873" fill="#509CFF" fill-opacity="0.1"/>
<circle cx="1790.41" cy="43.8061" r="1.43873" fill="#509CFF" fill-opacity="0.1"/>
<circle cx="1099.82" cy="43.8062" r="1.43873" fill="#509CFF" fill-opacity="0.1"/>
<circle cx="1393.32" cy="43.8059" r="1.43873" fill="#509CFF" fill-opacity="0.1"/>
<circle cx="1738.62" cy="43.8061" r="1.43873" fill="#509CFF" fill-opacity="0.1"/>
<circle cx="1203.41" cy="43.806" r="1.43873" fill="#509CFF" fill-opacity="0.1"/>
<circle cx="1548.71" cy="43.8059" r="1.43873" fill="#509CFF" fill-opacity="0.1"/>
<circle cx="1496.91" cy="43.8061" r="1.43873" fill="#509CFF" fill-opacity="0.1"/>
<circle cx="1842.21" cy="43.8059" r="1.43873" fill="#509CFF" fill-opacity="0.1"/>
<circle cx="1065.29" cy="43.8061" r="1.43873" fill="#509CFF" fill-opacity="0.1"/>
<circle cx="1358.79" cy="43.8059" r="1.43873" fill="#509CFF" fill-opacity="0.1"/>
<circle cx="1704.09" cy="43.806" r="1.43873" fill="#509CFF" fill-opacity="0.1"/>
<circle cx="1168.88" cy="43.806" r="1.43873" fill="#509CFF" fill-opacity="0.1"/>
<circle cx="1462.38" cy="43.806" r="1.43873" fill="#509CFF" fill-opacity="0.1"/>
<circle cx="1807.68" cy="43.8059" r="1.43873" fill="#509CFF" fill-opacity="0.1"/>
<circle cx="1117.09" cy="43.8059" r="1.43873" fill="#509CFF" fill-opacity="0.1"/>
<circle cx="1410.59" cy="43.806" r="1.43873" fill="#509CFF" fill-opacity="0.1"/>
<circle cx="1755.88" cy="43.8061" r="1.43873" fill="#509CFF" fill-opacity="0.1"/>
<circle cx="1220.68" cy="43.806" r="1.43873" fill="#509CFF" fill-opacity="0.1"/>
<circle cx="1565.97" cy="43.8059" r="1.43873" fill="#509CFF" fill-opacity="0.1"/>
<circle cx="1514.18" cy="43.8061" r="1.43873" fill="#509CFF" fill-opacity="0.1"/>
<circle cx="1859.47" cy="43.806" r="1.43873" fill="#509CFF" fill-opacity="0.1"/>
<circle cx="1082.56" cy="43.8059" r="1.43873" fill="#509CFF" fill-opacity="0.1"/>
<circle cx="1376.06" cy="43.8059" r="1.43873" fill="#509CFF" fill-opacity="0.1"/>
<circle cx="1721.35" cy="43.8061" r="1.43873" fill="#509CFF" fill-opacity="0.1"/>
<circle cx="1186.15" cy="43.806" r="1.43873" fill="#509CFF" fill-opacity="0.1"/>
<circle cx="1531.44" cy="43.8061" r="1.43873" fill="#509CFF" fill-opacity="0.1"/>
<circle cx="1479.65" cy="43.806" r="1.43873" fill="#509CFF" fill-opacity="0.1"/>
<circle cx="1824.94" cy="43.8059" r="1.43873" fill="#509CFF" fill-opacity="0.1"/>
<circle cx="1134.35" cy="43.8059" r="1.43873" fill="#509CFF" fill-opacity="0.1"/>
<circle cx="1427.85" cy="43.806" r="1.43873" fill="#509CFF" fill-opacity="0.1"/>
<circle cx="1773.15" cy="43.8061" r="1.43873" fill="#509CFF" fill-opacity="0.1"/>
<circle cx="944.439" cy="43.806" r="1.43873" fill="#509CFF" fill-opacity="0.1"/>
<circle cx="1237.94" cy="43.806" r="1.43873" fill="#509CFF" fill-opacity="0.1"/>
<circle cx="1583.24" cy="43.8059" r="1.43873" fill="#509CFF" fill-opacity="0.1"/>
<circle cx="996.236" cy="43.806" r="1.43873" fill="#509CFF" fill-opacity="0.1"/>
<circle cx="1289.74" cy="43.8061" r="1.43873" fill="#509CFF" fill-opacity="0.1"/>
<circle cx="1635.03" cy="43.806" r="1.43873" fill="#509CFF" fill-opacity="0.1"/>
<circle cx="961.704" cy="43.8059" r="1.43873" fill="#509CFF" fill-opacity="0.1"/>
<circle cx="1255.2" cy="43.8061" r="1.43873" fill="#509CFF" fill-opacity="0.1"/>
<circle cx="1600.5" cy="43.8059" r="1.43873" fill="#509CFF" fill-opacity="0.1"/>
<circle cx="1013.5" cy="43.806" r="1.43873" fill="#509CFF" fill-opacity="0.1"/>
<circle cx="1307" cy="43.8061" r="1.43873" fill="#509CFF" fill-opacity="0.1"/>
<circle cx="1652.29" cy="43.806" r="1.43873" fill="#509CFF" fill-opacity="0.1"/>
<circle cx="978.97" cy="43.806" r="1.43873" fill="#509CFF" fill-opacity="0.1"/>
<circle cx="1272.47" cy="43.8061" r="1.43873" fill="#509CFF" fill-opacity="0.1"/>
<circle cx="1617.77" cy="43.8059" r="1.43873" fill="#509CFF" fill-opacity="0.1"/>
<circle cx="1030.76" cy="43.8061" r="1.43873" fill="#509CFF" fill-opacity="0.1"/>
<circle cx="1324.26" cy="43.8059" r="1.43873" fill="#509CFF" fill-opacity="0.1"/>
<circle cx="1669.56" cy="43.806" r="1.43873" fill="#509CFF" fill-opacity="0.1"/>
<circle cx="1048.03" cy="9.27674" r="1.43873" fill="#509CFF" fill-opacity="0.1"/>
<circle cx="1341.53" cy="9.27656" r="1.43873" fill="#509CFF" fill-opacity="0.1"/>
<circle cx="1686.82" cy="9.27668" r="1.43873" fill="#509CFF" fill-opacity="0.1"/>
<circle cx="1151.61" cy="9.27656" r="1.43873" fill="#509CFF" fill-opacity="0.1"/>
<circle cx="1445.11" cy="9.27668" r="1.43873" fill="#509CFF" fill-opacity="0.1"/>
<circle cx="1790.41" cy="9.27656" r="1.43873" fill="#509CFF" fill-opacity="0.1"/>
<circle cx="1099.82" cy="9.27656" r="1.43873" fill="#509CFF" fill-opacity="0.1"/>
<circle cx="1393.32" cy="9.27662" r="1.43873" fill="#509CFF" fill-opacity="0.1"/>
<circle cx="1738.61" cy="9.27674" r="1.43873" fill="#509CFF" fill-opacity="0.1"/>
<circle cx="1203.41" cy="9.27668" r="1.43873" fill="#509CFF" fill-opacity="0.1"/>
<circle cx="1548.7" cy="9.27656" r="1.43873" fill="#509CFF" fill-opacity="0.1"/>
<circle cx="1496.91" cy="9.2765" r="1.43873" fill="#509CFF" fill-opacity="0.1"/>
<circle cx="1842.2" cy="9.27662" r="1.43873" fill="#509CFF" fill-opacity="0.1"/>
<circle cx="1065.29" cy="9.2765" r="1.43873" fill="#509CFF" fill-opacity="0.1"/>
<circle cx="1358.79" cy="9.27656" r="1.43873" fill="#509CFF" fill-opacity="0.1"/>
<circle cx="1704.09" cy="9.27668" r="1.43873" fill="#509CFF" fill-opacity="0.1"/>
<circle cx="1168.88" cy="9.27662" r="1.43873" fill="#509CFF" fill-opacity="0.1"/>
<circle cx="1462.38" cy="9.27668" r="1.43873" fill="#509CFF" fill-opacity="0.1"/>
<circle cx="1807.67" cy="9.27656" r="1.43873" fill="#509CFF" fill-opacity="0.1"/>
<circle cx="1117.09" cy="9.27656" r="1.43873" fill="#509CFF" fill-opacity="0.1"/>
<circle cx="1410.59" cy="9.27662" r="1.43873" fill="#509CFF" fill-opacity="0.1"/>
<circle cx="1755.88" cy="9.2765" r="1.43873" fill="#509CFF" fill-opacity="0.1"/>
<circle cx="1220.67" cy="9.27668" r="1.43873" fill="#509CFF" fill-opacity="0.1"/>
<circle cx="1565.97" cy="9.27656" r="1.43873" fill="#509CFF" fill-opacity="0.1"/>
<circle cx="1514.17" cy="9.2765" r="1.43873" fill="#509CFF" fill-opacity="0.1"/>
<circle cx="1859.47" cy="9.27662" r="1.43873" fill="#509CFF" fill-opacity="0.1"/>
<circle cx="1082.56" cy="9.2765" r="1.43873" fill="#509CFF" fill-opacity="0.1"/>
<circle cx="1376.06" cy="9.27656" r="1.43873" fill="#509CFF" fill-opacity="0.1"/>
<circle cx="1721.35" cy="9.27674" r="1.43873" fill="#509CFF" fill-opacity="0.1"/>
<circle cx="1186.15" cy="9.27662" r="1.43873" fill="#509CFF" fill-opacity="0.1"/>
<circle cx="1531.44" cy="9.27656" r="1.43873" fill="#509CFF" fill-opacity="0.1"/>
<circle cx="1479.65" cy="9.27668" r="1.43873" fill="#509CFF" fill-opacity="0.1"/>
<circle cx="1824.94" cy="9.27662" r="1.43873" fill="#509CFF" fill-opacity="0.1"/>
<circle cx="1134.35" cy="9.27656" r="1.43873" fill="#509CFF" fill-opacity="0.1"/>
<circle cx="1427.85" cy="9.27668" r="1.43873" fill="#509CFF" fill-opacity="0.1"/>
<circle cx="1773.15" cy="9.2765" r="1.43873" fill="#509CFF" fill-opacity="0.1"/>
<circle cx="944.439" cy="9.27656" r="1.43873" fill="#509CFF" fill-opacity="0.1"/>
<circle cx="1237.94" cy="9.27668" r="1.43873" fill="#509CFF" fill-opacity="0.1"/>
<circle cx="1583.24" cy="9.27656" r="1.43873" fill="#509CFF" fill-opacity="0.1"/>
<circle cx="996.232" cy="9.27668" r="1.43873" fill="#509CFF" fill-opacity="0.1"/>
<circle cx="1289.74" cy="9.2765" r="1.43873" fill="#509CFF" fill-opacity="0.1"/>
<circle cx="1635.03" cy="9.27662" r="1.43873" fill="#509CFF" fill-opacity="0.1"/>
<circle cx="961.704" cy="9.27662" r="1.43873" fill="#509CFF" fill-opacity="0.1"/>
<circle cx="1255.2" cy="9.27668" r="1.43873" fill="#509CFF" fill-opacity="0.1"/>
<circle cx="1600.5" cy="9.27656" r="1.43873" fill="#509CFF" fill-opacity="0.1"/>
<circle cx="1013.5" cy="9.27668" r="1.43873" fill="#509CFF" fill-opacity="0.1"/>
<circle cx="1307" cy="9.2765" r="1.43873" fill="#509CFF" fill-opacity="0.1"/>
<circle cx="1652.29" cy="9.27668" r="1.43873" fill="#509CFF" fill-opacity="0.1"/>
<circle cx="978.966" cy="9.27668" r="1.43873" fill="#509CFF" fill-opacity="0.1"/>
<circle cx="1272.47" cy="9.27674" r="1.43873" fill="#509CFF" fill-opacity="0.1"/>
<circle cx="1617.76" cy="9.27662" r="1.43873" fill="#509CFF" fill-opacity="0.1"/>
<circle cx="1030.76" cy="9.27668" r="1.43873" fill="#509CFF" fill-opacity="0.1"/>
<circle cx="1324.26" cy="9.27656" r="1.43873" fill="#509CFF" fill-opacity="0.1"/>
<circle cx="1669.56" cy="9.27668" r="1.43873" fill="#509CFF" fill-opacity="0.1"/>
<circle cx="1048.03" cy="61.0712" r="1.43873" fill="#509CFF" fill-opacity="0.1"/>
<circle cx="1341.53" cy="61.071" r="1.43873" fill="#509CFF" fill-opacity="0.1"/>
<circle cx="1686.82" cy="61.0711" r="1.43873" fill="#509CFF" fill-opacity="0.1"/>
<circle cx="1151.62" cy="61.071" r="1.43873" fill="#509CFF" fill-opacity="0.1"/>
<circle cx="1445.12" cy="61.0711" r="1.43873" fill="#509CFF" fill-opacity="0.1"/>
<circle cx="1790.41" cy="61.071" r="1.43873" fill="#509CFF" fill-opacity="0.1"/>
<circle cx="1099.82" cy="61.071" r="1.43873" fill="#509CFF" fill-opacity="0.1"/>
<circle cx="1393.32" cy="61.0711" r="1.43873" fill="#509CFF" fill-opacity="0.1"/>
<circle cx="1738.62" cy="61.0711" r="1.43873" fill="#509CFF" fill-opacity="0.1"/>
<circle cx="1203.41" cy="61.0711" r="1.43873" fill="#509CFF" fill-opacity="0.1"/>
<circle cx="1548.71" cy="61.071" r="1.43873" fill="#509CFF" fill-opacity="0.1"/>
<circle cx="1496.91" cy="61.0712" r="1.43873" fill="#509CFF" fill-opacity="0.1"/>
<circle cx="1842.2" cy="61.0711" r="1.43873" fill="#509CFF" fill-opacity="0.1"/>
<circle cx="1065.29" cy="61.0712" r="1.43873" fill="#509CFF" fill-opacity="0.1"/>
<circle cx="1358.79" cy="61.071" r="1.43873" fill="#509CFF" fill-opacity="0.1"/>
<circle cx="1704.09" cy="61.0711" r="1.43873" fill="#509CFF" fill-opacity="0.1"/>
<circle cx="1168.88" cy="61.0711" r="1.43873" fill="#509CFF" fill-opacity="0.1"/>
<circle cx="1462.38" cy="61.0711" r="1.43873" fill="#509CFF" fill-opacity="0.1"/>
<circle cx="1807.68" cy="61.071" r="1.43873" fill="#509CFF" fill-opacity="0.1"/>
<circle cx="1117.09" cy="61.071" r="1.43873" fill="#509CFF" fill-opacity="0.1"/>
<circle cx="1410.59" cy="61.0711" r="1.43873" fill="#509CFF" fill-opacity="0.1"/>
<circle cx="1755.88" cy="61.0712" r="1.43873" fill="#509CFF" fill-opacity="0.1"/>
<circle cx="1220.68" cy="61.0711" r="1.43873" fill="#509CFF" fill-opacity="0.1"/>
<circle cx="1565.97" cy="61.071" r="1.43873" fill="#509CFF" fill-opacity="0.1"/>
<circle cx="1514.18" cy="61.0712" r="1.43873" fill="#509CFF" fill-opacity="0.1"/>
<circle cx="1859.47" cy="61.0711" r="1.43873" fill="#509CFF" fill-opacity="0.1"/>
<circle cx="1082.56" cy="61.071" r="1.43873" fill="#509CFF" fill-opacity="0.1"/>
<circle cx="1376.06" cy="61.071" r="1.43873" fill="#509CFF" fill-opacity="0.1"/>
<circle cx="1721.35" cy="61.0712" r="1.43873" fill="#509CFF" fill-opacity="0.1"/>
<circle cx="1186.15" cy="61.0711" r="1.43873" fill="#509CFF" fill-opacity="0.1"/>
<circle cx="1531.44" cy="61.0712" r="1.43873" fill="#509CFF" fill-opacity="0.1"/>
<circle cx="1479.65" cy="61.0711" r="1.43873" fill="#509CFF" fill-opacity="0.1"/>
<circle cx="1824.94" cy="61.071" r="1.43873" fill="#509CFF" fill-opacity="0.1"/>
<circle cx="1134.35" cy="61.071" r="1.43873" fill="#509CFF" fill-opacity="0.1"/>
<circle cx="1427.85" cy="61.0711" r="1.43873" fill="#509CFF" fill-opacity="0.1"/>
<circle cx="1773.15" cy="61.0712" r="1.43873" fill="#509CFF" fill-opacity="0.1"/>
<circle cx="944.439" cy="61.0711" r="1.43873" fill="#509CFF" fill-opacity="0.1"/>
<circle cx="1237.94" cy="61.0711" r="1.43873" fill="#509CFF" fill-opacity="0.1"/>
<circle cx="1583.24" cy="61.071" r="1.43873" fill="#509CFF" fill-opacity="0.1"/>
<circle cx="996.236" cy="61.0711" r="1.43873" fill="#509CFF" fill-opacity="0.1"/>
<circle cx="1289.74" cy="61.0712" r="1.43873" fill="#509CFF" fill-opacity="0.1"/>
<circle cx="1635.03" cy="61.0711" r="1.43873" fill="#509CFF" fill-opacity="0.1"/>
<circle cx="961.704" cy="61.0711" r="1.43873" fill="#509CFF" fill-opacity="0.1"/>
<circle cx="1255.2" cy="61.0711" r="1.43873" fill="#509CFF" fill-opacity="0.1"/>
<circle cx="1600.5" cy="61.071" r="1.43873" fill="#509CFF" fill-opacity="0.1"/>
<circle cx="1013.5" cy="61.0711" r="1.43873" fill="#509CFF" fill-opacity="0.1"/>
<circle cx="1307" cy="61.0712" r="1.43873" fill="#509CFF" fill-opacity="0.1"/>
<circle cx="1652.29" cy="61.0711" r="1.43873" fill="#509CFF" fill-opacity="0.1"/>
<circle cx="978.97" cy="61.0711" r="1.43873" fill="#509CFF" fill-opacity="0.1"/>
<circle cx="1272.47" cy="61.0712" r="1.43873" fill="#509CFF" fill-opacity="0.1"/>
<circle cx="1617.77" cy="61.0711" r="1.43873" fill="#509CFF" fill-opacity="0.1"/>
<circle cx="1030.76" cy="61.0711" r="1.43873" fill="#509CFF" fill-opacity="0.1"/>
<circle cx="1324.26" cy="61.071" r="1.43873" fill="#509CFF" fill-opacity="0.1"/>
<circle cx="1669.56" cy="61.0711" r="1.43873" fill="#509CFF" fill-opacity="0.1"/>
<circle cx="1048.03" cy="26.5411" r="1.43873" fill="#509CFF" fill-opacity="0.1"/>
<circle cx="1341.53" cy="26.5412" r="1.43873" fill="#509CFF" fill-opacity="0.1"/>
<circle cx="1686.82" cy="26.5414" r="1.43873" fill="#509CFF" fill-opacity="0.1"/>
<circle cx="1151.61" cy="26.5412" r="1.43873" fill="#509CFF" fill-opacity="0.1"/>
<circle cx="1445.11" cy="26.5413" r="1.43873" fill="#509CFF" fill-opacity="0.1"/>
<circle cx="1790.41" cy="26.5412" r="1.43873" fill="#509CFF" fill-opacity="0.1"/>
<circle cx="1099.82" cy="26.5412" r="1.43873" fill="#509CFF" fill-opacity="0.1"/>
<circle cx="1393.32" cy="26.5413" r="1.43873" fill="#509CFF" fill-opacity="0.1"/>
<circle cx="1738.61" cy="26.5411" r="1.43873" fill="#509CFF" fill-opacity="0.1"/>
<circle cx="1203.41" cy="26.5413" r="1.43873" fill="#509CFF" fill-opacity="0.1"/>
<circle cx="1548.7" cy="26.5412" r="1.43873" fill="#509CFF" fill-opacity="0.1"/>
<circle cx="1496.91" cy="26.5414" r="1.43873" fill="#509CFF" fill-opacity="0.1"/>
<circle cx="1842.2" cy="26.5413" r="1.43873" fill="#509CFF" fill-opacity="0.1"/>
<circle cx="1065.29" cy="26.5412" r="1.43873" fill="#509CFF" fill-opacity="0.1"/>
<circle cx="1358.79" cy="26.5412" r="1.43873" fill="#509CFF" fill-opacity="0.1"/>
<circle cx="1704.09" cy="26.5414" r="1.43873" fill="#509CFF" fill-opacity="0.1"/>
<circle cx="1168.88" cy="26.5413" r="1.43873" fill="#509CFF" fill-opacity="0.1"/>
<circle cx="1462.38" cy="26.5414" r="1.43873" fill="#509CFF" fill-opacity="0.1"/>
<circle cx="1807.67" cy="26.5412" r="1.43873" fill="#509CFF" fill-opacity="0.1"/>
<circle cx="1117.09" cy="26.5412" r="1.43873" fill="#509CFF" fill-opacity="0.1"/>
<circle cx="1410.59" cy="26.5413" r="1.43873" fill="#509CFF" fill-opacity="0.1"/>
<circle cx="1755.88" cy="26.5414" r="1.43873" fill="#509CFF" fill-opacity="0.1"/>
<circle cx="1220.67" cy="26.5413" r="1.43873" fill="#509CFF" fill-opacity="0.1"/>
<circle cx="1565.97" cy="26.5412" r="1.43873" fill="#509CFF" fill-opacity="0.1"/>
<circle cx="1514.17" cy="26.5414" r="1.43873" fill="#509CFF" fill-opacity="0.1"/>
<circle cx="1859.47" cy="26.5412" r="1.43873" fill="#509CFF" fill-opacity="0.1"/>
<circle cx="1082.56" cy="26.5412" r="1.43873" fill="#509CFF" fill-opacity="0.1"/>
<circle cx="1376.06" cy="26.5413" r="1.43873" fill="#509CFF" fill-opacity="0.1"/>
<circle cx="1721.35" cy="26.5414" r="1.43873" fill="#509CFF" fill-opacity="0.1"/>
<circle cx="1186.15" cy="26.5413" r="1.43873" fill="#509CFF" fill-opacity="0.1"/>
<circle cx="1531.44" cy="26.5412" r="1.43873" fill="#509CFF" fill-opacity="0.1"/>
<circle cx="1479.65" cy="26.5411" r="1.43873" fill="#509CFF" fill-opacity="0.1"/>
<circle cx="1824.94" cy="26.5412" r="1.43873" fill="#509CFF" fill-opacity="0.1"/>
<circle cx="1134.35" cy="26.5412" r="1.43873" fill="#509CFF" fill-opacity="0.1"/>
<circle cx="1427.85" cy="26.5413" r="1.43873" fill="#509CFF" fill-opacity="0.1"/>
<circle cx="1773.15" cy="26.5412" r="1.43873" fill="#509CFF" fill-opacity="0.1"/>
<circle cx="944.439" cy="26.5413" r="1.43873" fill="#509CFF" fill-opacity="0.1"/>
<circle cx="1237.94" cy="26.5413" r="1.43873" fill="#509CFF" fill-opacity="0.1"/>
<circle cx="1583.24" cy="26.5412" r="1.43873" fill="#509CFF" fill-opacity="0.1"/>
<circle cx="996.232" cy="26.5413" r="1.43873" fill="#509CFF" fill-opacity="0.1"/>
<circle cx="1289.74" cy="26.5411" r="1.43873" fill="#509CFF" fill-opacity="0.1"/>
<circle cx="1635.03" cy="26.5413" r="1.43873" fill="#509CFF" fill-opacity="0.1"/>
<circle cx="961.704" cy="26.5413" r="1.43873" fill="#509CFF" fill-opacity="0.1"/>
<circle cx="1255.2" cy="26.5414" r="1.43873" fill="#509CFF" fill-opacity="0.1"/>
<circle cx="1600.5" cy="26.5412" r="1.43873" fill="#509CFF" fill-opacity="0.1"/>
<circle cx="1013.5" cy="26.5414" r="1.43873" fill="#509CFF" fill-opacity="0.1"/>
<circle cx="1307" cy="26.5411" r="1.43873" fill="#509CFF" fill-opacity="0.1"/>
<circle cx="1652.29" cy="26.5413" r="1.43873" fill="#509CFF" fill-opacity="0.1"/>
<circle cx="978.966" cy="26.5413" r="1.43873" fill="#509CFF" fill-opacity="0.1"/>
<circle cx="1272.47" cy="26.5414" r="1.43873" fill="#509CFF" fill-opacity="0.1"/>
<circle cx="1617.76" cy="26.5413" r="1.43873" fill="#509CFF" fill-opacity="0.1"/>
<circle cx="1030.76" cy="26.5414" r="1.43873" fill="#509CFF" fill-opacity="0.1"/>
<circle cx="1324.26" cy="26.5412" r="1.43873" fill="#509CFF" fill-opacity="0.1"/>
<circle cx="1669.56" cy="26.5414" r="1.43873" fill="#509CFF" fill-opacity="0.1"/>
<circle cx="1878.44" cy="43.806" r="1.43873" fill="#509CFF" fill-opacity="0.1"/>
<circle cx="1895.7" cy="43.8059" r="1.43873" fill="#509CFF" fill-opacity="0.1"/>
<circle cx="1912.97" cy="43.806" r="1.43873" fill="#509CFF" fill-opacity="0.1"/>
<circle cx="1878.44" cy="9.27656" r="1.43873" fill="#509CFF" fill-opacity="0.1"/>
<circle cx="1895.7" cy="9.27662" r="1.43873" fill="#509CFF" fill-opacity="0.1"/>
<circle cx="1912.97" cy="9.27668" r="1.43873" fill="#509CFF" fill-opacity="0.1"/>
<circle cx="1878.44" cy="61.0711" r="1.43873" fill="#509CFF" fill-opacity="0.1"/>
<circle cx="1895.7" cy="61.0711" r="1.43873" fill="#509CFF" fill-opacity="0.1"/>
<circle cx="1912.97" cy="61.0711" r="1.43873" fill="#509CFF" fill-opacity="0.1"/>
<circle cx="1878.44" cy="26.5413" r="1.43873" fill="#509CFF" fill-opacity="0.1"/>
<circle cx="1895.7" cy="26.5413" r="1.43873" fill="#509CFF" fill-opacity="0.1"/>
<circle cx="1912.97" cy="26.5413" r="1.43873" fill="#509CFF" fill-opacity="0.1"/>
</g>
<defs>
<filter id="filter0_f_15203_94700" x="-667" y="-1137" width="3254" height="3254" filterUnits="userSpaceOnUse" color-interpolation-filters="sRGB">
<feFlood flood-opacity="0" result="BackgroundImageFix"/>
<feBlend mode="normal" in="SourceGraphic" in2="BackgroundImageFix" result="shape"/>
<feGaussianBlur stdDeviation="512" result="effect1_foregroundBlur_15203_94700"/>
</filter>
<clipPath id="clip0_15203_94700">
<rect width="1920" height="70" fill="white"/>
</clipPath>
</defs>
</svg>
