<svg width="56" height="56" viewBox="0 0 56 56" fill="none" xmlns="http://www.w3.org/2000/svg">
<circle opacity="0.2" cx="28" cy="28" r="28" fill="#509CFF"/>
<circle cx="28" cy="28" r="20" fill="white"/>
<circle cx="28" cy="28" r="20" fill="url(#paint0_linear_15203_94806)" fill-opacity="0.2"/>
<path opacity="0.4" d="M22.73 35.7C23.55 34.82 24.8 34.89 25.52 35.85L26.53 37.2C27.34 38.27 28.65 38.27 29.46 37.2L30.47 35.85C31.19 34.89 32.44 34.82 33.26 35.7C35.04 37.6 36.49 36.97 36.49 34.31V23.04C36.5 19.01 35.56 18 31.78 18H24.22C20.44 18 19.5 19.01 19.5 23.04V34.3C19.5 36.97 20.96 37.59 22.73 35.7Z" fill="#0170FF"/>
<path d="M31 30C30.44 30 30 29.55 30 29C30 28.45 30.45 28 31 28C31.55 28 32 28.45 32 29C32 29.55 31.56 30 31 30Z" fill="#0170FF"/>
<path d="M25 25C24.44 25 24 24.55 24 24C24 23.45 24.45 23 25 23C25.55 23 26 23.45 26 24C26 24.55 25.56 25 25 25Z" fill="#0170FF"/>
<path d="M24.6303 30.55C24.4403 30.55 24.2503 30.48 24.1003 30.33C23.8103 30.04 23.8103 29.56 24.1003 29.27L30.8303 22.54C31.1203 22.25 31.6003 22.25 31.8903 22.54C32.1803 22.83 32.1803 23.31 31.8903 23.6L25.1603 30.33C25.0203 30.48 24.8203 30.55 24.6303 30.55Z" fill="#0170FF"/>
<defs>
<linearGradient id="paint0_linear_15203_94806" x1="28" y1="8" x2="28" y2="48" gradientUnits="userSpaceOnUse">
<stop stop-color="#0170FF" stop-opacity="0"/>
<stop offset="1" stop-color="#0170FF"/>
</linearGradient>
</defs>
</svg>
