<svg width="308" height="316" viewBox="0 0 308 316" fill="none" xmlns="http://www.w3.org/2000/svg">
<g clip-path="url(#clip0_15186_94679)">
<g clip-path="url(#clip1_15186_94679)">
<path d="M229.182 125.497H120.949V39.7318L182.26 34.9804C207.573 33.0209 229.182 53.0193 229.182 78.4133V125.497Z" fill="#CDD5E2"/>
<path d="M120.924 39.7318H112.28C93.248 39.7318 77.8398 55.1399 77.8398 74.172V125.497L107.905 104.747L120.924 39.7318Z" fill="#CDD5E2"/>
<path d="M229.184 117.605C229.184 165.252 195.307 203.88 153.512 203.88C118.374 203.88 88.8457 176.58 80.3363 139.59C78.6988 132.583 77.8398 125.202 77.8398 117.605C77.8398 69.9844 111.716 31.3566 153.512 31.3566C195.307 31.3566 229.184 69.9844 229.184 117.605Z" fill="#CDD5E2"/>
<path d="M307.218 318.717C293.823 332.595 278.549 344.674 261.852 354.499C261.396 354.767 260.913 355.063 260.43 355.331C228.996 373.558 192.489 384 153.539 384C114.589 384 80.2826 374.202 49.5199 356.995C48.0972 356.19 46.7013 355.385 45.3055 354.579C28.5551 344.674 13.2275 332.595 -0.140625 318.69L3.53694 304.221C9.06671 282.424 26.2466 265.513 48.0972 260.278L54.8349 258.668L59.3715 257.594L81.0342 252.413L83.987 251.715L84.6581 251.554C87.7719 250.829 90.7516 249.755 93.5701 248.386C98.4288 246.078 102.777 242.884 106.428 239.018C111.582 233.649 115.367 226.965 117.273 219.503L120.118 208.416L120.897 205.437L120.951 205.222L124.574 191.129L125.675 186.915H181.375L185.509 203.021L185.885 204.444L186.1 205.276L186.153 205.464L186.932 208.47L189.751 219.503C193.079 232.415 201.991 242.964 213.775 248.548C216.514 249.836 219.386 250.829 222.365 251.554L225.962 252.413L226.15 252.467L250.793 258.345L252.35 258.721L258.926 260.278C280.777 265.513 297.957 282.424 303.487 304.221L307.191 318.717H307.218Z" fill="#F0F4F9"/>
<path d="M186.071 205.249C181.347 225.999 168.542 240.87 153.51 240.87C138.478 240.87 125.646 225.945 120.922 205.168L124.546 191.076L125.646 186.861H181.347L185.481 202.967L185.856 204.417L186.071 205.222V205.249Z" fill="#CDD5E2"/>
<path d="M91.208 126.275C63.4786 95.1636 81.9738 171.238 97.3283 162.326C124.306 146.703 91.208 126.275 91.208 126.275Z" fill="#F0F4F9"/>
<path d="M215.788 126.275C243.518 95.1636 225.022 171.238 209.668 162.326C182.69 146.703 215.788 126.275 215.788 126.275Z" fill="#F0F4F9"/>
<path d="M218.018 103.861C218.018 106.223 217.884 108.559 217.642 110.84C217.481 112.505 216.864 118.303 215.817 126.195V126.302C212.891 147.857 206.637 184.848 196.758 194.699C189.672 201.813 183.954 208.229 177.485 212.899C170.988 217.57 163.714 220.442 153.513 220.442C133.139 220.442 124.469 208.873 110.295 194.699C103.209 187.613 97.974 166.541 94.4844 147.24C94.3233 146.327 94.1623 145.388 94.0281 144.502C93.5449 141.63 93.0885 138.784 92.659 136.073C90.431 121.658 89.3573 110.384 89.3573 110.384C89.1425 108.236 89.0352 106.062 89.0352 103.861C89.0352 103.297 89.0352 102.733 89.0352 102.17C89.1694 97.0964 89.8673 92.1571 91.1021 87.4327C91.1558 87.2179 91.2363 87.0032 91.29 86.7884C98.4572 60.5891 121.731 41.0471 149.809 39.4633C151.044 39.3828 152.252 39.3559 153.486 39.3559C189.108 39.3559 217.991 68.2396 217.991 103.861H218.018Z" fill="#F0F4F9"/>
<path d="M163.9 167.238C163.9 171.695 159.363 175.292 153.753 175.292C148.143 175.292 143.633 171.695 143.633 167.238C143.633 166.702 143.687 166.165 143.848 165.682C144.733 169.386 148.84 172.178 153.753 172.178C158.665 172.178 162.799 169.386 163.685 165.682C163.846 166.192 163.9 166.702 163.9 167.238Z" fill="#E9EDF3"/>
<path d="M219.709 104.264C219.709 106.68 219.574 109.095 219.333 111.431C219.172 113.149 215.79 126.275 215.79 126.275C150.13 123.376 122.24 92.1303 122.24 92.1303C110.67 126.087 92.6314 136.046 92.6314 136.046C90.3497 121.256 87.6385 110.948 87.6385 110.948C87.4238 108.746 87.3164 106.518 87.3164 104.264C87.3164 103.673 87.3164 103.109 87.3432 102.519C87.4775 97.3111 88.2022 92.2377 89.4639 87.4059C89.5176 87.1911 89.5981 86.9764 89.6518 86.7348C97.0069 59.8375 120.898 39.7854 149.701 38.1748C150.962 38.0943 152.197 38.0674 153.486 38.0674H153.513C190.073 38.0674 219.709 67.7027 219.709 104.264Z" fill="#CDD5E2"/>
<path d="M123.043 169.762C110.105 169.762 99.582 159.239 99.582 146.301C99.582 133.362 110.105 122.839 123.043 122.839C135.982 122.839 146.505 133.362 146.505 146.301C146.505 159.239 135.982 169.762 123.043 169.762ZM123.043 125.497C111.581 125.497 102.266 134.812 102.266 146.274C102.266 157.736 111.581 167.051 123.043 167.051C134.505 167.051 143.82 157.736 143.82 146.274C143.82 134.812 134.505 125.497 123.043 125.497Z" fill="#CDD5E2"/>
<path d="M184.489 169.762C171.55 169.762 161.027 159.239 161.027 146.301C161.027 133.362 171.55 122.839 184.489 122.839C197.427 122.839 207.95 133.362 207.95 146.301C207.95 159.239 197.427 169.762 184.489 169.762ZM184.489 125.497C173.026 125.497 163.712 134.812 163.712 146.274C163.712 157.736 173.026 167.051 184.489 167.051C195.951 167.051 205.265 157.736 205.265 146.274C205.265 134.812 195.951 125.497 184.489 125.497Z" fill="#CDD5E2"/>
<path d="M163.712 146.301H161.027C161.027 142.301 157.779 139.053 153.78 139.053C149.78 139.053 146.532 142.301 146.532 146.301H143.848C143.848 140.824 148.304 136.368 153.78 136.368C159.256 136.368 163.712 140.824 163.712 146.301Z" fill="#CDD5E2"/>
<path d="M307.218 318.717C293.823 332.595 278.549 344.674 261.852 354.499C261.396 354.767 260.913 355.063 260.43 355.331C244.055 364.834 226.285 372.216 207.521 377.101C190.287 381.611 172.195 384 153.539 384C134.882 384 117.112 381.665 100.013 377.209C82.1616 372.645 65.2234 365.773 49.5199 356.995C48.0972 356.19 46.7013 355.385 45.3055 354.579C28.5551 344.674 13.2275 332.595 -0.140625 318.69L3.53694 304.221C9.06671 282.424 26.2466 265.513 48.0972 260.278L54.8349 258.668L59.3715 257.594L81.0342 252.413L83.987 251.715L84.6581 251.554C87.7719 250.829 90.7516 249.755 93.5701 248.386H93.6507L116.602 271.365C121.541 276.277 127.339 280.142 133.648 282.773C139.956 285.377 146.801 286.773 153.78 286.773C167.712 286.773 181.08 281.216 190.958 271.365L213.775 248.548C216.514 249.836 219.386 250.829 222.365 251.554L225.962 252.413L226.15 252.467L250.793 258.345L252.35 258.721L258.926 260.278C280.777 265.513 297.957 282.424 303.487 304.221L307.191 318.717H307.218Z" fill="#CDD5E2"/>
</g>
</g>
<defs>
<clipPath id="clip0_15186_94679">
<rect width="308" height="316" fill="white"/>
</clipPath>
<clipPath id="clip1_15186_94679">
<rect width="427" height="427" fill="white" transform="translate(-60 -43)"/>
</clipPath>
</defs>
</svg>
