<svg width="64" height="64" viewBox="0 0 64 64" fill="none" xmlns="http://www.w3.org/2000/svg">
<g clip-path="url(#clip0_15124_51186)">
<rect opacity="0.3" width="64" height="64" rx="12" fill="#0170FF"/>
<path opacity="0.4" d="M44.8815 29.92L43.5749 35.4933C42.4549 40.3067 40.2415 42.2533 36.0815 41.8533C35.4149 41.8 34.6949 41.68 33.9215 41.4933L31.6815 40.96C26.1215 39.64 24.4015 36.8933 25.7082 31.32L27.0149 25.7333C27.2815 24.6 27.6015 23.6133 28.0015 22.8C29.5615 19.5733 32.2149 18.7067 36.6682 19.76L38.8949 20.28C44.4815 21.5867 46.1882 24.3467 44.8815 29.92Z" fill="#0170FF"/>
<path d="M36.0805 41.8533C35.2538 42.4133 34.2138 42.88 32.9471 43.2933L30.8405 43.9867C25.5471 45.6933 22.7605 44.2667 21.0405 38.9733L19.3338 33.7067C17.6271 28.4133 19.0405 25.6133 24.3338 23.9067L26.4405 23.2133C26.9871 23.04 27.5071 22.8933 28.0005 22.8C27.6005 23.6133 27.2805 24.6 27.0138 25.7333L25.7071 31.32C24.4005 36.8933 26.1205 39.64 31.6805 40.96L33.9205 41.4933C34.6938 41.68 35.4138 41.8 36.0805 41.8533Z" fill="#0170FF"/>
<path d="M39.3218 30.0133C39.2418 30.0133 39.1618 30 39.0685 29.9867L32.6018 28.3467C32.0685 28.2133 31.7485 27.6667 31.8818 27.1333C32.0151 26.6 32.5618 26.28 33.0951 26.4133L39.5618 28.0533C40.0951 28.1867 40.4151 28.7333 40.2818 29.2667C40.1751 29.7067 39.7618 30.0133 39.3218 30.0133Z" fill="#0170FF"/>
<path d="M35.4148 34.52C35.3348 34.52 35.2548 34.5067 35.1615 34.4933L31.2815 33.5067C30.7481 33.3733 30.4281 32.8267 30.5615 32.2933C30.6948 31.76 31.2415 31.44 31.7748 31.5733L35.6548 32.56C36.1881 32.6933 36.5081 33.24 36.3748 33.7733C36.2681 34.2267 35.8681 34.52 35.4148 34.52Z" fill="#0170FF"/>
</g>
<defs>
<clipPath id="clip0_15124_51186">
<rect width="64" height="64" fill="white"/>
</clipPath>
</defs>
</svg>
