<svg width="406" height="302" viewBox="0 0 406 302" fill="none" xmlns="http://www.w3.org/2000/svg">
<mask id="mask0_2681_37501" style="mask-type:alpha" maskUnits="userSpaceOnUse" x="0" y="0" width="406" height="302">
<rect width="405.823" height="301.875" fill="#D9D9D9"/>
</mask>
<g mask="url(#mask0_2681_37501)">
<g opacity="0.5">
<mask id="path-2-inside-1_2681_37501" fill="white">
<path d="M389.979 202.565C391.995 156.308 377.371 110.86 348.759 74.4588C320.146 38.0574 279.439 13.1119 234.015 4.14415C188.592 -4.82363 141.458 2.77982 101.159 25.5762C60.859 48.3727 30.0607 84.8533 14.3462 128.405L15.1858 128.708C30.8279 85.357 61.4843 49.0446 101.598 26.3532C141.712 3.66186 188.628 -3.90654 233.842 5.0199C279.057 13.9463 319.576 38.7768 348.057 75.0104C376.537 111.244 391.094 156.483 389.087 202.526L389.979 202.565Z"/>
</mask>
<path d="M389.979 202.565C391.995 156.308 377.371 110.86 348.759 74.4588C320.146 38.0574 279.439 13.1119 234.015 4.14415C188.592 -4.82363 141.458 2.77982 101.159 25.5762C60.859 48.3727 30.0607 84.8533 14.3462 128.405L15.1858 128.708C30.8279 85.357 61.4843 49.0446 101.598 26.3532C141.712 3.66186 188.628 -3.90654 233.842 5.0199C279.057 13.9463 319.576 38.7768 348.057 75.0104C376.537 111.244 391.094 156.483 389.087 202.526L389.979 202.565Z" stroke="url(#paint0_linear_2681_37501)" stroke-width="2.84788" stroke-dasharray="4.27 4.27" mask="url(#path-2-inside-1_2681_37501)"/>
</g>
<g opacity="0.5">
<mask id="path-3-inside-2_2681_37501" fill="white">
<path d="M14.6043 260.573C30.4892 304.064 61.4301 340.423 101.819 363.062C142.207 385.7 189.37 393.119 234.758 383.974C280.146 374.828 320.756 349.724 349.225 313.211C377.695 276.697 392.141 231.193 389.944 184.944L389.052 184.987C391.239 231.022 376.86 276.317 348.521 312.662C320.183 349.006 279.761 373.995 234.582 383.099C189.403 392.202 142.457 384.817 102.255 362.283C62.0527 339.749 31.2544 303.557 15.4428 260.267L14.6043 260.573Z"/>
</mask>
<path d="M14.6043 260.573C30.4892 304.064 61.4301 340.423 101.819 363.062C142.207 385.7 189.37 393.119 234.758 383.974C280.146 374.828 320.756 349.724 349.225 313.211C377.695 276.697 392.141 231.193 389.944 184.944L389.052 184.987C391.239 231.022 376.86 276.317 348.521 312.662C320.183 349.006 279.761 373.995 234.582 383.099C189.403 392.202 142.457 384.817 102.255 362.283C62.0527 339.749 31.2544 303.557 15.4428 260.267L14.6043 260.573Z" stroke="url(#paint1_linear_2681_37501)" stroke-width="2.84788" stroke-dasharray="4.27 4.27" mask="url(#path-3-inside-2_2681_37501)"/>
</g>
<circle opacity="0.08" cx="196.502" cy="194.132" r="170.873" fill="url(#paint2_linear_2681_37501)"/>
<circle opacity="0.1" cx="196.505" cy="194.132" r="136.698" fill="url(#paint3_linear_2681_37501)"/>
<circle cx="196.505" cy="194.134" r="91.1321" fill="white"/>
<g filter="url(#filter0_d_2681_37501)">
<circle cx="15.3224" cy="125.091" r="7.11969" transform="rotate(-2.50406 15.3224 125.091)" fill="#0170FF"/>
<circle cx="15.3224" cy="125.091" r="8.13822" transform="rotate(-2.50406 15.3224 125.091)" stroke="white" stroke-width="2.03704"/>
</g>
<g filter="url(#filter1_d_2681_37501)">
<circle cx="389.993" cy="182.518" r="7.11969" transform="rotate(-15.7345 389.993 182.518)" fill="#0170FF"/>
<circle cx="389.993" cy="182.518" r="8.13822" transform="rotate(-15.7345 389.993 182.518)" stroke="white" stroke-width="2.03704"/>
</g>
</g>
<path d="M295.891 293.001L101.328 291.821C101.14 291.821 100.96 291.746 100.827 291.613C100.694 291.48 100.619 291.3 100.619 291.112C100.619 290.923 100.694 290.743 100.827 290.61C100.96 290.477 101.14 290.402 101.328 290.402L295.891 291.583C296.079 291.583 296.259 291.658 296.392 291.791C296.525 291.924 296.6 292.104 296.6 292.292C296.6 292.48 296.525 292.661 296.392 292.794C296.259 292.927 296.079 293.001 295.891 293.001Z" fill="black"/>
<path d="M108.537 282.7H80.5748C80.4338 282.7 80.2982 282.644 80.1984 282.545C80.0987 282.445 80.043 282.31 80.043 282.169C80.043 282.028 80.0987 281.892 80.1984 281.793C80.2982 281.693 80.4338 281.637 80.5748 281.637H108.537C108.678 281.637 108.813 281.693 108.913 281.793C109.013 281.892 109.069 282.028 109.069 282.169C109.069 282.31 109.013 282.445 108.913 282.545C108.813 282.644 108.678 282.7 108.537 282.7Z" fill="black"/>
<path d="M354.713 179.371H341.419C341.013 179.372 340.607 179.398 340.203 179.449C337.59 167.996 332.648 157.204 325.686 147.742L333.424 139.087C335.174 137.125 336.074 134.549 335.927 131.924C335.78 129.299 334.598 126.839 332.64 125.084L317.038 111.132C315.076 109.382 312.499 108.482 309.874 108.63C307.249 108.778 304.79 109.96 303.036 111.919L294.473 121.493C288.166 118.363 281.497 116.026 274.616 114.536V102.526C274.616 99.8928 273.57 97.3676 271.708 95.5056C269.846 93.6437 267.321 92.5977 264.688 92.5977H243.767C241.134 92.5977 238.609 93.6437 236.747 95.5056C234.885 97.3676 233.839 99.8928 233.839 102.526V115.571C225.501 117.822 217.553 121.323 210.263 125.953L200.597 117.312C198.634 115.563 196.058 114.663 193.433 114.81C190.808 114.958 188.349 116.141 186.595 118.099L172.642 133.701C170.892 135.663 169.992 138.24 170.14 140.865C170.288 143.49 171.47 145.949 173.429 147.703L181.939 155.32C177.564 162.808 174.354 170.918 172.418 179.371H159.795C157.162 179.371 154.637 180.417 152.775 182.279C150.913 184.141 149.867 186.666 149.867 189.299V210.237C149.867 212.87 150.913 215.396 152.775 217.258C154.637 219.12 157.162 220.166 159.795 220.166H172.957C175.244 229.04 178.939 237.489 183.903 245.192L175.372 254.737C173.622 256.699 172.722 259.276 172.869 261.901C173.016 264.526 174.198 266.985 176.156 268.74L191.757 282.693C193.72 284.442 196.296 285.342 198.921 285.194C201.546 285.047 204.006 283.864 205.76 281.905L213.447 273.307C220.884 277.585 228.923 280.721 237.293 282.608C237.271 282.866 237.257 283.132 237.257 283.398V291.717H278.034V283.363C278.034 282.888 278 282.414 277.932 281.944C287.385 279.494 296.351 275.446 304.44 269.974C304.664 270.222 304.901 270.459 305.149 270.683L315.06 279.548C317.023 281.294 319.598 282.191 322.221 282.042C324.845 281.893 327.302 280.711 329.055 278.753L343.008 263.152C344.757 261.189 345.657 258.613 345.509 255.988C345.362 253.363 344.179 250.903 342.221 249.149L332.292 240.284C332.136 240.143 331.973 240.008 331.807 239.88C335.244 233.602 337.879 226.916 339.65 219.981C340.223 220.084 340.805 220.136 341.387 220.137H354.68C357.314 220.137 359.839 219.091 361.701 217.229C363.563 215.367 364.609 212.842 364.609 210.209V189.271C364.601 186.648 363.556 184.135 361.702 182.28C359.848 180.425 357.335 179.379 354.713 179.371ZM256.493 259.943C244.331 259.943 232.441 256.336 222.328 249.579C212.215 242.821 204.333 233.217 199.679 221.98C195.025 210.743 193.807 198.378 196.18 186.449C198.553 174.52 204.411 163.563 213.011 154.963C221.612 146.362 232.569 140.506 244.498 138.134C256.427 135.761 268.792 136.979 280.029 141.634C291.266 146.289 300.87 154.172 307.626 164.285C314.383 174.398 317.989 186.288 317.989 198.451C317.991 206.528 316.402 214.527 313.312 221.99C310.223 229.453 305.693 236.234 299.982 241.946C294.271 247.658 287.49 252.189 280.028 255.28C272.565 258.371 264.567 259.961 256.49 259.96L256.493 259.943Z" fill="#4BD657"/>
<path d="M278.57 292.227H236.729V283.363C236.729 283.242 236.729 283.118 236.729 282.987C228.607 281.114 220.799 278.069 213.554 273.948L206.153 282.224C204.305 284.288 201.714 285.535 198.948 285.69C196.182 285.846 193.467 284.898 191.399 283.054L175.798 269.101C174.774 268.187 173.941 267.08 173.345 265.844C172.749 264.608 172.403 263.266 172.326 261.896C172.249 260.526 172.442 259.154 172.896 257.859C173.349 256.564 174.053 255.37 174.968 254.347L183.23 245.103C178.418 237.561 174.811 229.315 172.539 220.662H159.774C157.004 220.659 154.348 219.557 152.39 217.598C150.431 215.639 149.33 212.983 149.328 210.212V189.274C149.33 186.504 150.431 183.848 152.39 181.889C154.348 179.929 157.004 178.828 159.774 178.825H171.975C173.898 170.611 177.02 162.726 181.24 155.422L173.039 148.09C170.975 146.242 169.729 143.651 169.573 140.886C169.418 138.12 170.366 135.406 172.209 133.339L186.162 117.737C188.011 115.675 190.603 114.429 193.368 114.275C196.134 114.12 198.849 115.068 200.916 116.911L210.284 125.279C217.411 120.799 225.156 117.388 233.272 115.156V102.526C233.275 99.7559 234.376 97.1001 236.334 95.1412C238.293 93.1822 240.948 92.0799 243.718 92.0762H264.656C267.426 92.079 270.083 93.1809 272.042 95.14C274.001 97.099 275.103 99.7553 275.105 102.526V114.124C281.753 115.601 288.202 117.863 294.317 120.861L302.61 111.582C304.459 109.519 307.05 108.273 309.816 108.117C312.582 107.962 315.296 108.909 317.365 110.752L332.966 124.705C335.031 126.552 336.278 129.144 336.433 131.911C336.588 134.678 335.638 137.393 333.792 139.459L326.346 147.795C333.136 157.097 337.981 167.672 340.59 178.888C340.863 178.867 341.129 178.857 341.394 178.857H354.688C357.458 178.859 360.114 179.961 362.072 181.921C364.031 183.88 365.132 186.536 365.134 189.306V210.244C365.132 213.014 364.031 215.671 362.072 217.63C360.114 219.589 357.458 220.691 354.688 220.694H341.394C340.946 220.692 340.499 220.663 340.054 220.605C338.308 227.272 335.77 233.706 332.495 239.77L332.654 239.912L342.583 248.777C344.646 250.625 345.891 253.216 346.047 255.982C346.203 258.748 345.255 261.462 343.412 263.531L329.459 279.132C328.545 280.156 327.438 280.99 326.202 281.585C324.966 282.181 323.624 282.527 322.254 282.604C320.884 282.681 319.512 282.488 318.217 282.034C316.922 281.581 315.728 280.877 314.705 279.962L304.795 271.098C304.646 270.963 304.497 270.825 304.355 270.683C296.446 275.979 287.712 279.925 278.51 282.359C278.545 282.701 278.562 283.044 278.562 283.387L278.57 292.227ZM237.793 291.163H277.506V283.363C277.504 282.91 277.471 282.459 277.407 282.012L277.339 281.54L277.8 281.423C287.196 278.991 296.105 274.967 304.142 269.527L304.521 269.268L304.83 269.622C305.043 269.853 305.273 270.08 305.511 270.293L315.421 279.157C317.277 280.815 319.716 281.668 322.201 281.529C324.686 281.389 327.014 280.268 328.672 278.413L342.625 262.811C344.282 260.955 345.135 258.516 344.995 256.032C344.855 253.547 343.735 251.219 341.88 249.56L331.952 240.696C331.803 240.564 331.651 240.437 331.495 240.316L331.14 240.036L331.356 239.643C334.773 233.403 337.394 226.759 339.157 219.868L339.278 219.389L339.764 219.474C340.306 219.572 340.857 219.622 341.409 219.623H354.702C357.19 219.619 359.575 218.629 361.333 216.869C363.092 215.11 364.081 212.725 364.084 210.237V189.299C364.081 186.811 363.092 184.426 361.333 182.667C359.575 180.907 357.19 179.917 354.702 179.913H341.409C341.023 179.914 340.639 179.939 340.256 179.988L339.781 180.045L339.671 179.576C337.088 168.191 332.177 157.463 325.247 148.068L324.992 147.714L333.019 138.736C334.677 136.88 335.53 134.441 335.391 131.956C335.251 129.471 334.13 127.144 332.275 125.485L316.673 111.532C314.816 109.877 312.378 109.025 309.894 109.165C307.41 109.305 305.082 110.424 303.422 112.277L294.59 122.159L294.235 121.978C287.961 118.87 281.328 116.549 274.485 115.067L274.067 114.975V102.526C274.065 100.037 273.075 97.6508 271.315 95.891C269.556 94.1313 267.17 93.1418 264.681 93.1399H243.743C241.255 93.1427 238.869 94.1328 237.11 95.8924C235.351 97.6521 234.362 100.038 234.361 102.526V115.979L233.967 116.085C225.681 118.321 217.781 121.799 210.536 126.4L210.199 126.616L200.232 117.709C198.375 116.054 195.937 115.202 193.453 115.342C190.969 115.482 188.641 116.601 186.981 118.454L173.028 134.055C171.372 135.912 170.52 138.35 170.66 140.835C170.799 143.319 171.919 145.646 173.773 147.306L182.638 155.213L182.421 155.589C178.072 163.03 174.881 171.09 172.957 179.491L172.865 179.903H159.817C157.329 179.906 154.943 180.895 153.184 182.655C151.425 184.415 150.436 186.8 150.434 189.288V210.227C150.437 212.714 151.426 215.099 153.185 216.859C154.944 218.618 157.329 219.608 159.817 219.612H173.394L173.496 220.009C175.766 228.828 179.438 237.226 184.371 244.88L184.591 245.234L175.791 255.081C174.132 256.937 173.28 259.376 173.419 261.861C173.559 264.346 174.68 266.673 176.535 268.332L192.137 282.285C193.994 283.941 196.432 284.793 198.916 284.653C201.401 284.513 203.728 283.394 205.388 281.54L213.362 272.619L213.738 272.835C221.128 277.088 229.117 280.203 237.435 282.075L237.885 282.178L237.846 282.636C237.825 282.916 237.814 283.164 237.814 283.387L237.793 291.163ZM256.486 260.474C222.287 260.474 194.463 232.65 194.463 198.451C194.463 164.251 222.287 136.424 256.486 136.424C290.686 136.424 318.513 164.248 318.513 198.451C318.513 232.654 290.693 260.474 256.49 260.474H256.486ZM256.486 137.488C222.872 137.488 195.527 164.836 195.527 198.451C195.527 232.065 222.872 259.411 256.486 259.411C290.101 259.411 317.449 232.065 317.449 198.451C317.449 164.836 290.104 137.488 256.49 137.488H256.486Z" fill="#1D1E1B"/>
<path d="M284.607 164.685C286.201 164.685 287.493 163.393 287.493 161.798C287.493 160.204 286.201 158.912 284.607 158.912C283.013 158.912 281.721 160.204 281.721 161.798C281.721 163.393 283.013 164.685 284.607 164.685Z" fill="#51CEF4"/>
<path d="M279.935 195.487C281.529 195.487 282.822 194.195 282.822 192.601C282.822 191.007 281.529 189.715 279.935 189.715C278.341 189.715 277.049 191.007 277.049 192.601C277.049 194.195 278.341 195.487 279.935 195.487Z" fill="#51CEF4"/>
<path d="M336.147 183.015C335.883 183.017 335.628 182.92 335.431 182.744C335.234 182.567 335.11 182.324 335.083 182.062C332.675 159.035 317.57 147.458 317.418 147.344C317.306 147.261 317.212 147.156 317.141 147.035C317.069 146.915 317.023 146.782 317.003 146.644C316.983 146.506 316.991 146.365 317.026 146.229C317.06 146.094 317.121 145.967 317.205 145.855C317.289 145.743 317.394 145.649 317.514 145.578C317.634 145.507 317.767 145.46 317.906 145.44C318.044 145.421 318.185 145.428 318.32 145.463C318.455 145.498 318.583 145.559 318.694 145.642C319.347 146.132 334.697 157.897 337.196 181.842C337.225 182.122 337.141 182.402 336.964 182.621C336.786 182.839 336.53 182.979 336.25 183.008C336.216 183.014 336.181 183.016 336.147 183.015Z" fill="white"/>
<path d="M327.282 275.915C327.019 275.912 326.767 275.813 326.573 275.635C326.47 275.54 326.387 275.427 326.328 275.3C326.269 275.173 326.235 275.036 326.229 274.896C326.224 274.757 326.245 274.617 326.293 274.486C326.341 274.355 326.415 274.234 326.509 274.132C326.591 274.043 334.721 265.207 339.274 260.303C339.72 259.867 340.068 259.341 340.296 258.76C340.524 258.18 340.626 257.557 340.597 256.934C340.416 253.924 337.271 251.229 337.239 251.201C337.035 251.015 336.911 250.758 336.893 250.483C336.875 250.208 336.964 249.937 337.142 249.727C337.319 249.516 337.572 249.383 337.846 249.355C338.12 249.327 338.394 249.407 338.611 249.577C338.771 249.708 342.476 252.874 342.717 256.796C342.77 257.709 342.63 258.624 342.306 259.479C341.981 260.334 341.48 261.112 340.834 261.76C336.278 266.668 328.154 275.497 328.069 275.589C327.968 275.695 327.845 275.778 327.71 275.834C327.574 275.89 327.429 275.918 327.282 275.915Z" fill="white"/>
<path d="M360.612 208.546C360.33 208.546 360.059 208.434 359.86 208.235C359.66 208.035 359.548 207.765 359.548 207.482V198.618C359.547 198.47 359.579 198.324 359.64 198.189C359.683 197.884 359.8 196.515 359.548 191.221C359.459 189.37 358.878 188.005 357.81 187.165C355.931 185.683 353.038 186.183 353.009 186.19C352.732 186.243 352.445 186.183 352.211 186.024C351.978 185.865 351.817 185.62 351.765 185.342C351.712 185.065 351.772 184.778 351.931 184.545C352.09 184.311 352.335 184.15 352.612 184.098C352.768 184.069 356.467 183.389 359.13 185.495C360.7 186.732 361.555 188.626 361.675 191.122C361.924 196.363 361.856 198.118 361.675 198.82V207.482C361.675 207.765 361.563 208.035 361.364 208.235C361.164 208.434 360.894 208.546 360.612 208.546ZM360.612 197.554C360.381 197.553 360.157 197.627 359.974 197.767C360.158 197.629 360.382 197.554 360.612 197.554Z" fill="white"/>
<path d="M220.197 126.283C219.968 126.283 219.744 126.209 219.56 126.072C219.376 125.934 219.241 125.741 219.176 125.521C219.111 125.3 219.119 125.065 219.199 124.85C219.279 124.634 219.427 124.45 219.62 124.326C220.123 124 232.14 116.355 247.904 117.064C248.044 117.07 248.182 117.104 248.308 117.164C248.435 117.223 248.548 117.307 248.643 117.41C248.737 117.514 248.81 117.635 248.857 117.766C248.904 117.898 248.925 118.038 248.919 118.177C248.9 118.458 248.774 118.72 248.566 118.909C248.359 119.098 248.086 119.199 247.805 119.191C232.743 118.5 220.892 126.035 220.775 126.113C220.603 126.224 220.403 126.283 220.197 126.283Z" fill="white"/>
<path d="M243.245 105.362C243.179 105.363 243.113 105.354 243.05 105.334C242.87 105.282 242.717 105.161 242.626 104.997C242.535 104.832 242.513 104.639 242.564 104.458C242.603 104.316 246.755 90.1968 261.002 71.599C269.349 60.6956 279.483 50.3916 291.142 40.9739C305.68 29.2124 322.647 18.8053 341.546 10.0472C341.714 9.9827 341.9 9.98437 342.066 10.0518C342.233 10.1193 342.368 10.2475 342.443 10.4106C342.519 10.5737 342.53 10.7595 342.474 10.9303C342.418 11.1012 342.299 11.2443 342.141 11.3308C299.592 31.0526 275.15 55.4621 262.137 72.4643C248.067 90.8494 243.99 104.71 243.951 104.848C243.907 105 243.814 105.134 243.686 105.227C243.558 105.32 243.403 105.368 243.245 105.362Z" fill="#1D1D1B"/>
<path d="M254.238 106.426C254.149 106.427 254.061 106.41 253.979 106.377C253.804 106.308 253.664 106.173 253.588 106C253.513 105.828 253.51 105.633 253.578 105.458C253.614 105.363 257.439 95.7498 265.96 85.0201C273.832 75.1096 287.444 62.1708 307.599 56.8096C307.774 56.7787 307.955 56.8151 308.105 56.9115C308.255 57.008 308.363 57.1575 308.408 57.3302C308.453 57.5028 308.431 57.686 308.347 57.8432C308.262 58.0004 308.122 58.1201 307.953 58.1784C288.196 63.4368 274.828 76.1378 267.091 85.864C258.691 96.4341 254.929 105.884 254.89 105.976C254.839 106.107 254.749 106.221 254.633 106.301C254.517 106.381 254.379 106.425 254.238 106.426Z" fill="#1D1D1B"/>
<path d="M349.265 269.178C349.089 269.178 348.92 269.112 348.79 268.994C348.651 268.867 348.568 268.691 348.558 268.504C348.549 268.317 348.614 268.133 348.74 267.994C352.97 263.306 354.839 258.799 354.297 254.608C353.587 249.148 348.925 246.045 348.878 246.017C348.72 245.914 348.609 245.753 348.57 245.569C348.531 245.385 348.567 245.193 348.669 245.035C348.772 244.877 348.933 244.766 349.117 244.727C349.301 244.687 349.493 244.723 349.651 244.825C349.864 244.964 354.896 248.293 355.701 254.399C356.307 259.026 354.318 263.919 349.79 268.937C349.724 269.012 349.643 269.072 349.553 269.113C349.463 269.155 349.364 269.177 349.265 269.178Z" fill="#1D1D1B"/>
<path d="M308.33 164.823C293.597 143.251 273.049 138.254 263.834 137.105C262.701 138.353 261.852 139.832 261.347 141.44C260.842 143.047 260.692 144.746 260.908 146.417C262.057 156.186 261.323 169.663 264.578 174.333C264.578 174.333 246.849 161.295 207.824 157.49C206.611 157.287 205.379 157.108 204.126 156.951L179.021 154.93C179.021 154.93 150.846 152.604 126.543 166.277C102.24 179.95 66.1331 210.139 74.9976 232.477C83.0183 252.689 92.7267 255.171 106.91 253.043C115.306 251.784 134.699 238.612 134.699 238.612C134.699 238.612 127.054 257.883 134.699 290.735L262.926 291.693C262.926 291.693 267.181 250.207 260.089 219.003C299.448 232.832 301.462 185.056 308.33 164.823Z" fill="#07ACEE"/>
<path d="M263.403 292.225H262.921L134.275 291.264L134.18 290.857C127.776 263.338 132.134 245.08 133.705 239.914C129.187 242.896 114.241 252.484 106.987 253.569C92.5267 255.739 82.5738 253.016 74.5036 232.673C70.5039 222.596 75.1488 209.835 87.9385 195.768C97.7144 185.018 112.05 173.82 126.283 165.813C150.448 152.219 178.783 154.378 179.063 154.399L204.167 156.424C205.383 156.573 206.628 156.754 207.89 156.963C239.944 160.09 257.861 169.558 263.205 172.802C261.733 169.054 261.432 162.924 261.106 156.491C260.932 153.087 260.751 149.566 260.397 146.474C260.168 144.729 260.323 142.955 260.85 141.276C261.377 139.597 262.264 138.053 263.45 136.752L263.637 136.539L263.917 136.574C271.007 137.494 277.889 139.609 284.271 142.829C294.075 147.758 302.326 155.059 308.786 164.523L308.935 164.739L308.85 164.991C307.623 168.607 306.535 173.178 305.382 178.018C301.755 193.265 297.227 212.224 284.398 219.235C278.047 222.702 270.123 222.894 260.833 219.809C267.57 250.636 263.513 291.332 263.471 291.743L263.403 292.225ZM135.123 290.201L262.442 291.154C262.882 286.428 266.151 248.08 259.57 219.118L259.358 218.178L260.265 218.497C269.779 221.841 277.502 221.777 283.87 218.302C296.298 211.519 300.752 192.808 304.333 177.773C305.464 173.018 306.531 168.522 307.74 164.902C293.103 143.627 272.537 138.776 264.052 137.667C263.026 138.846 262.263 140.231 261.812 141.728C261.361 143.225 261.232 144.8 261.435 146.35C261.79 149.478 261.981 153.016 262.145 156.438C262.499 163.583 262.875 170.976 265.006 174.029L266.839 176.66L264.254 174.759C264.081 174.632 246.171 161.76 207.762 158.016H207.727C206.475 157.807 205.245 157.626 204.05 157.481L178.971 155.46C178.69 155.438 150.671 153.311 126.797 166.739C102.356 180.486 66.8161 210.437 75.4821 232.283C83.3361 252.069 92.5551 254.657 106.823 252.519C115.004 251.289 134.197 238.3 134.392 238.169L135.811 237.201L135.176 238.808C135.116 238.999 127.765 258.185 135.123 290.204V290.201Z" fill="#1D1D1B"/>
<path d="M157.809 117.931C157.809 117.931 150.739 131.033 142.41 123.906C134.081 116.779 116.405 101.358 104.441 113.109C92.4778 124.86 92.694 128.388 82.0352 123.306C71.3765 118.225 43.7228 127.838 58.0656 157.665C72.4085 187.493 170.358 140.206 170.358 140.206L172.621 131.26L157.809 117.931Z" fill="#382256"/>
<path d="M114.688 108.828C124.971 108.828 136.25 118.632 142.409 123.905C144.182 125.43 145.913 126.032 147.522 126.032C153.437 126.032 157.805 117.934 157.805 117.934L172.616 131.262L170.354 140.209C170.354 140.209 113.741 167.54 80.2899 167.54C69.7411 167.54 61.4974 164.82 58.0579 157.668C46.1191 132.847 63.2807 122.019 75.5138 122.019C77.7532 121.968 79.9765 122.409 82.0275 123.309C85.1939 124.82 87.3995 125.568 89.2504 125.568C93.633 125.568 96.0262 121.37 104.433 113.111C107.55 110.051 111.054 108.832 114.681 108.832L114.688 108.828ZM114.681 107.768C110.483 107.768 106.784 109.31 103.689 112.353C101.441 114.562 99.6536 116.444 98.0793 118.104C94.037 122.359 92.009 124.486 89.2504 124.486C87.6796 124.486 85.6549 123.841 82.4849 122.331C80.2938 121.371 77.9191 120.904 75.528 120.962C69.5001 120.962 60.7561 123.635 56.026 131.163C52.9553 136.046 50.6541 144.69 57.1181 158.136C60.4583 165.086 68.2627 168.611 80.3114 168.611C94.3103 168.611 113.805 164.001 138.254 154.878C156.426 148.105 170.691 141.244 170.833 141.173C170.974 141.104 171.099 141.005 171.198 140.883C171.296 140.76 171.367 140.617 171.403 140.464L173.665 131.514C173.715 131.325 173.712 131.125 173.656 130.937C173.599 130.75 173.493 130.581 173.347 130.45L158.532 117.122C158.337 116.947 158.085 116.849 157.823 116.849C157.763 116.843 157.702 116.843 157.642 116.849C157.483 116.876 157.333 116.939 157.202 117.033C157.071 117.127 156.963 117.25 156.887 117.391C156.844 117.466 152.742 124.933 147.537 124.933C146.051 124.933 144.565 124.302 143.115 123.065L142.796 122.792C136.651 117.53 125.212 107.732 114.702 107.732L114.681 107.768Z" fill="black"/>
<path d="M129.955 151.279C129.955 151.279 133.37 158.555 127.232 172.646C121.094 186.737 104.096 168.601 104.096 168.601L129.955 151.279Z" fill="#FFCDB2"/>
<path d="M120.136 178.54C112.771 178.54 104.095 169.378 103.709 168.966L103.279 168.509L130.175 150.496L130.437 151.056C130.579 151.365 133.884 158.712 127.717 172.863C126.299 176.09 124.228 177.962 121.519 178.43C121.062 178.506 120.599 178.543 120.136 178.54ZM104.925 168.686C106.903 170.665 115.151 178.451 121.342 177.377C123.671 176.973 125.491 175.31 126.742 172.434C131.728 160.995 130.288 154.084 129.685 152.099L104.925 168.686Z" fill="#1D1E1B"/>
<path d="M126.195 226.852C128.521 219.622 137.584 213.279 141.984 198.102C146.385 182.926 126.875 177.604 126.875 177.604L127.546 172.555C127.546 172.555 114.678 176.264 100.885 166.562L97.041 172.636C97.041 172.636 80.9998 177.37 80.9041 191.075C80.8083 204.779 68.2066 217.151 75.3443 233.167" fill="#07ACEE"/>
<path d="M75.379 233.681C75.2705 233.69 75.1621 233.664 75.0688 233.608C74.9754 233.552 74.9017 233.469 74.8579 233.369C70.3547 223.26 73.5424 214.608 76.6308 206.24C78.5384 201.07 80.3396 196.184 80.375 191.057C80.4637 177.966 94.842 172.799 96.6858 172.186L100.427 166.279C100.466 166.216 100.517 166.163 100.579 166.122C100.64 166.081 100.709 166.054 100.781 166.041C100.851 166.027 100.924 166.028 100.994 166.043C101.064 166.057 101.13 166.086 101.189 166.126C114.617 175.572 127.272 172.08 127.396 172.041C127.482 172.018 127.571 172.016 127.658 172.035C127.744 172.054 127.825 172.094 127.892 172.15C127.959 172.208 128.01 172.281 128.041 172.364C128.072 172.446 128.082 172.535 128.07 172.622L127.463 177.232C129.506 177.863 137.807 180.777 141.459 187.288C143.306 190.578 143.654 194.266 142.494 198.255C139.824 207.474 135.434 213.481 131.91 218.313C129.598 221.48 127.605 224.214 126.701 227.022C126.652 227.148 126.556 227.251 126.434 227.31C126.311 227.368 126.171 227.377 126.042 227.335C125.913 227.294 125.805 227.204 125.739 227.085C125.674 226.967 125.657 226.827 125.691 226.696C126.644 223.724 128.687 220.927 131.048 217.686C134.527 212.92 138.849 206.988 141.473 197.961C142.537 194.255 142.232 190.844 140.533 187.812C136.661 180.905 126.836 178.15 126.737 178.125C126.613 178.091 126.506 178.014 126.435 177.907C126.364 177.8 126.334 177.671 126.35 177.544L126.917 173.25C123.935 173.853 112.787 175.349 101.033 167.321L97.4871 172.927C97.417 173.035 97.3118 173.115 97.1893 173.154C97.0297 173.2 81.524 177.941 81.4318 191.071C81.3928 196.39 79.478 201.584 77.6235 206.616C74.6096 214.771 71.4963 223.232 75.8257 232.944C75.8547 233.008 75.8706 233.077 75.8728 233.148C75.8749 233.218 75.8632 233.288 75.8382 233.354C75.8131 233.42 75.7754 233.48 75.727 233.532C75.6786 233.583 75.6207 233.624 75.5563 233.653C75.4991 233.672 75.4393 233.681 75.379 233.681Z" fill="black"/>
<path d="M205.891 157.188C205.891 157.188 210.578 166.634 199.586 169.116C188.594 171.598 186.467 165.925 186.467 165.925C186.467 165.925 179.02 173.016 172.283 166.988C165.546 160.961 173.702 154.578 173.702 154.578L205.891 157.188Z" fill="white"/>
<path d="M194.452 170.278C189.201 170.278 187.055 167.931 186.297 166.757C184.428 168.257 177.89 172.725 171.918 167.381C169.965 165.633 169.011 163.676 169.082 161.566C169.217 157.449 173.198 154.29 173.369 154.155C173.471 154.079 173.596 154.04 173.723 154.045L205.912 156.655C206.003 156.664 206.091 156.695 206.166 156.747C206.242 156.798 206.303 156.868 206.345 156.95C206.43 157.123 208.43 161.236 206.699 164.91C205.59 167.247 203.232 168.835 199.696 169.633C197.977 170.041 196.219 170.257 194.452 170.278ZM186.467 165.392C186.507 165.389 186.547 165.389 186.588 165.392C186.673 165.413 186.752 165.454 186.819 165.512C186.885 165.57 186.936 165.643 186.967 165.726C187.049 165.935 189.123 170.92 199.47 168.583C202.661 167.874 204.788 166.456 205.742 164.449C207.033 161.74 205.916 158.605 205.533 157.68L173.876 155.113C173.167 155.723 170.256 158.403 170.153 161.595C170.096 163.367 170.933 165.052 172.635 166.58C178.922 172.204 185.808 165.803 186.109 165.516C186.209 165.432 186.336 165.387 186.467 165.392Z" fill="black"/>
<path d="M179.348 99.6166C186.741 99.6166 192.734 93.6238 192.734 86.2312C192.734 78.8386 186.741 72.8457 179.348 72.8457C171.956 72.8457 165.963 78.8386 165.963 86.2312C165.963 93.6238 171.956 99.6166 179.348 99.6166Z" fill="#382256"/>
<path d="M179.334 72.8431C182.557 72.8388 185.674 73.9975 188.112 76.1062C190.549 78.2149 192.144 81.1321 192.604 84.3223C193.064 87.5125 192.357 90.7615 190.614 93.4727C188.871 96.1839 186.209 98.1753 183.116 99.0813C180.022 99.9873 176.706 99.747 173.776 98.4047C170.846 97.0623 168.498 94.7078 167.164 91.7737C165.83 88.8396 165.599 85.5228 166.514 82.4322C167.428 79.3416 169.427 76.6846 172.144 74.9493C174.291 73.5766 176.786 72.8459 179.334 72.8431ZM179.334 71.7793C176.127 71.7823 173.011 72.8525 170.479 74.8213C167.947 76.7901 166.141 79.5456 165.348 82.6535C164.554 85.7614 164.817 89.0451 166.096 91.987C167.374 94.9289 169.595 97.3617 172.408 98.9023C175.222 100.443 178.468 101.003 181.635 100.496C184.802 99.9878 187.711 98.4405 189.901 96.0976C192.092 93.7548 193.441 90.7495 193.736 87.5555C194.031 84.3614 193.254 81.1602 191.529 78.4561C190.224 76.4056 188.421 74.7182 186.289 73.5509C184.158 72.3835 181.765 71.7741 179.334 71.7793Z" fill="black"/>
<path d="M146.359 131.407C146.359 131.407 136.282 124.316 139.381 115.597C142.48 106.877 144.721 107.374 146.051 102.672C147.38 97.9703 155.029 92.6126 162.652 93.999C162.652 93.999 171.134 86.1805 179.672 87.4747C188.211 88.7689 191.501 92.4388 194.529 98.683C197.557 104.927 200.202 107.572 202.482 111.895C204.762 116.217 208.769 128.599 192.072 139.726C175.375 150.853 146.359 131.407 146.359 131.407Z" fill="#382256"/>
<path d="M177.711 87.3299C178.364 87.3291 179.015 87.3777 179.661 87.4753C188.171 88.7696 191.49 92.4394 194.518 98.6836C197.546 104.928 200.191 107.573 202.471 111.895C204.751 116.218 208.758 128.6 192.061 139.726C188.348 142.209 184.023 143.166 179.548 143.166C163.896 143.166 146.359 131.408 146.359 131.408C146.359 131.408 136.282 124.316 139.381 115.597C142.48 106.878 144.72 107.374 146.05 102.673C147.234 98.4886 153.429 93.7763 160.155 93.7763C160.988 93.7761 161.819 93.8508 162.638 93.9996C162.638 93.9996 169.874 87.3299 177.697 87.3299H177.711ZM177.697 86.2662C170.52 86.2662 163.974 91.4466 162.311 92.8685C161.593 92.7648 160.867 92.7127 160.141 92.7125C152.84 92.7125 146.313 97.8113 145.011 102.385C144.472 104.293 143.795 105.222 142.863 106.509C141.646 108.179 140.136 110.257 138.363 115.239C136.973 119.139 137.827 123.359 140.845 127.405C142.232 129.256 143.88 130.898 145.738 132.277C149.214 134.521 152.846 136.513 156.606 138.237C162.489 140.964 171.24 144.216 179.519 144.216C184.615 144.216 189.022 142.999 192.639 140.599C200.085 135.635 204.393 129.844 205.404 123.412C206.036 119.29 205.327 115.074 203.383 111.385C202.43 109.635 201.38 107.939 200.237 106.307C198.432 103.735 196.831 101.026 195.447 98.2049C192.327 91.7657 188.767 87.7695 179.792 86.408C179.094 86.3037 178.388 86.2516 177.682 86.252L177.697 86.2662Z" fill="black"/>
<path d="M178.286 119.122C178.145 119.129 178.007 119.078 177.903 118.983C177.799 118.887 177.737 118.755 177.731 118.614C177.725 118.473 177.775 118.335 177.87 118.231C177.966 118.127 178.099 118.065 178.24 118.059C183.757 117.566 188.845 111.364 188.899 111.3C188.943 111.246 188.997 111.201 189.058 111.168C189.12 111.134 189.187 111.114 189.256 111.106C189.326 111.099 189.396 111.106 189.463 111.125C189.53 111.145 189.592 111.178 189.647 111.222C189.701 111.266 189.746 111.321 189.779 111.382C189.812 111.443 189.833 111.511 189.84 111.58C189.848 111.65 189.841 111.72 189.821 111.787C189.801 111.854 189.768 111.916 189.724 111.971C189.505 112.24 184.303 118.583 178.336 119.119L178.286 119.122Z" fill="black"/>
<path d="M178.411 115.289C169.078 115.289 165.022 105.524 164.976 105.41C164.93 105.281 164.936 105.139 164.993 105.014C165.049 104.889 165.151 104.791 165.279 104.74C165.406 104.689 165.547 104.688 165.675 104.739C165.802 104.79 165.905 104.888 165.961 105.013C166.16 105.495 170.869 116.781 182.144 113.697C182.278 113.667 182.417 113.691 182.534 113.761C182.65 113.832 182.735 113.944 182.771 114.076C182.807 114.207 182.791 114.348 182.727 114.468C182.662 114.588 182.554 114.679 182.425 114.721C181.118 115.089 179.768 115.28 178.411 115.289Z" fill="white"/>
<path d="M192.54 73.5192C192.43 73.5196 192.322 73.4856 192.232 73.422C192.142 73.3585 192.074 73.2686 192.037 73.1646C191.04 70.3634 189.409 68.4096 187.186 67.36C183.208 65.4807 178.601 67.1119 178.555 67.1296C178.426 67.1652 178.288 67.1504 178.169 67.0882C178.049 67.026 177.958 66.921 177.913 66.7944C177.868 66.6678 177.873 66.5289 177.927 66.4055C177.98 66.2822 178.078 66.1836 178.201 66.1296C178.406 66.0551 183.257 64.3318 187.644 66.3955C190.126 67.5656 191.955 69.7251 193.051 72.81C193.075 72.8759 193.085 72.9458 193.081 73.0157C193.078 73.0856 193.061 73.1541 193.031 73.2174C193.001 73.2806 192.959 73.3372 192.907 73.3841C192.855 73.431 192.794 73.4673 192.728 73.4908C192.667 73.5095 192.604 73.5191 192.54 73.5192Z" fill="black"/>
<path d="M188.209 82.5499C188.113 82.5495 188.019 82.5232 187.937 82.4739C187.855 82.4247 187.787 82.3542 187.741 82.2698C186.245 79.4934 184.32 77.8057 182.015 77.2491C178.249 76.3449 174.664 78.7773 174.629 78.8021C174.513 78.8739 174.374 78.8986 174.241 78.871C174.107 78.8434 173.99 78.7656 173.912 78.6537C173.834 78.5418 173.802 78.4044 173.823 78.2697C173.843 78.135 173.915 78.0133 174.023 77.9298C174.186 77.8164 178.019 75.1994 182.252 76.2135C184.869 76.8411 187.029 78.6957 188.678 81.7629C188.722 81.844 188.744 81.9352 188.743 82.0276C188.741 82.12 188.715 82.2104 188.668 82.2899C188.621 82.3694 188.554 82.4351 188.473 82.4807C188.393 82.5263 188.302 82.5502 188.209 82.5499Z" fill="white"/>
<path d="M173.097 149.682V155.001C173.097 155.001 182.316 168.83 200.045 157.483C200.045 157.483 191.347 144.984 186.692 130.149C186.692 130.149 193.255 128.376 191.908 122.49C190.56 116.603 185.738 115.838 183 117.586C183 117.586 172.363 125.815 159.988 103.402C159.988 103.402 148.517 108.803 146.698 121.032C144.879 133.262 147.982 147.165 157.474 150.728C166.967 154.292 173.097 149.682 173.097 149.682Z" fill="#FFCDB2"/>
<path d="M159.988 103.4C167.129 116.328 173.685 119.062 177.958 119.062C179.75 119.098 181.51 118.583 183 117.586C183.864 117.045 184.864 116.76 185.883 116.764C188.323 116.764 190.964 118.377 191.911 122.49C193.259 128.366 186.695 130.149 186.695 130.149C191.351 144.985 200.049 157.484 200.049 157.484C194.889 160.785 190.454 161.955 186.752 161.955C177.735 161.955 173.1 155.002 173.1 155.002V149.683C173.1 149.683 169.909 152.08 164.59 152.08C162.164 152.061 159.761 151.602 157.499 150.726C148.007 147.18 144.904 133.259 146.723 121.029C148.542 108.8 160.013 103.4 160.013 103.4H159.988ZM160.013 102.336C159.857 102.335 159.703 102.37 159.563 102.439C157.285 103.606 155.185 105.091 153.326 106.85C149.099 110.782 146.45 115.633 145.67 120.873C144.702 127.401 145.12 133.993 146.854 139.45C148.847 145.705 152.396 149.949 157.137 151.722C159.522 152.64 162.053 153.121 164.608 153.14C167.18 153.157 169.724 152.601 172.055 151.513V155.002C172.054 155.213 172.116 155.419 172.232 155.594C172.434 155.895 177.292 163.019 186.77 163.019C191.163 163.019 195.829 161.459 200.637 158.381C200.758 158.304 200.862 158.203 200.943 158.085C201.024 157.967 201.08 157.834 201.108 157.693C201.136 157.553 201.136 157.408 201.106 157.268C201.077 157.128 201.021 156.995 200.939 156.878C200.854 156.757 192.659 144.879 188.039 130.798C188.917 130.43 189.741 129.945 190.489 129.355C192.758 127.536 193.613 125.079 192.971 122.263C191.865 117.434 188.599 115.711 185.911 115.711C184.69 115.709 183.493 116.052 182.458 116.7L182.38 116.757C181.072 117.6 179.543 118.035 177.987 118.008C174.022 118.008 167.849 115.388 160.967 102.896C160.875 102.729 160.739 102.591 160.575 102.494C160.411 102.397 160.225 102.346 160.034 102.347L160.013 102.336Z" fill="black"/>
<path d="M172.921 150.748C172.795 150.747 172.674 150.703 172.578 150.621C172.482 150.539 172.418 150.426 172.398 150.302C172.377 150.178 172.402 150.05 172.466 149.942C172.531 149.834 172.632 149.753 172.751 149.712C177.832 148.017 181.69 142.422 181.729 142.365C181.768 142.308 181.819 142.258 181.877 142.22C181.936 142.182 182.001 142.155 182.07 142.142C182.138 142.129 182.209 142.13 182.277 142.144C182.346 142.158 182.411 142.186 182.468 142.225C182.526 142.265 182.575 142.315 182.614 142.373C182.652 142.432 182.679 142.497 182.692 142.566C182.705 142.635 182.704 142.705 182.69 142.774C182.675 142.842 182.648 142.907 182.609 142.965C182.445 143.206 178.513 148.911 173.088 150.719C173.034 150.739 172.978 150.748 172.921 150.748Z" fill="black"/>
<path d="M186.534 127.416C186.446 127.416 186.359 127.394 186.282 127.352C186.16 127.286 186.069 127.175 186.028 127.042C185.987 126.91 185.999 126.767 186.062 126.643C187.094 124.711 187.321 123.211 186.732 122.186C185.899 120.729 183.63 120.619 183.608 120.619C183.468 120.612 183.335 120.551 183.24 120.447C183.144 120.344 183.093 120.207 183.098 120.066C183.104 119.925 183.164 119.793 183.267 119.697C183.37 119.601 183.507 119.55 183.648 119.555C183.765 119.555 186.523 119.683 187.654 121.651C188.438 123.016 188.218 124.867 187.002 127.147C186.955 127.229 186.887 127.297 186.804 127.345C186.722 127.392 186.629 127.417 186.534 127.416Z" fill="black"/>
<path d="M160.499 121.461C167.374 121.979 175.987 117.83 177.874 120.004C179.76 122.177 179.001 125.539 175.487 126.822C171.974 128.106 168.368 128.478 160.932 128.897C153.496 129.315 146.185 129.166 146.49 125.121C146.795 121.075 150.386 120.695 160.499 121.461Z" fill="#FFB49F"/>
<path d="M152.167 118.197C152.066 118.197 151.967 118.168 151.881 118.113C151.796 118.058 151.728 117.98 151.686 117.888C151.643 117.796 151.628 117.694 151.642 117.594C151.655 117.493 151.697 117.399 151.763 117.322C151.859 117.212 154.092 114.637 157.082 114.839C157.223 114.85 157.354 114.916 157.446 115.023C157.539 115.13 157.585 115.269 157.574 115.41C157.564 115.551 157.498 115.683 157.391 115.775C157.284 115.867 157.145 115.914 157.004 115.903C154.543 115.719 152.582 117.981 152.561 118.002C152.513 118.061 152.453 118.11 152.385 118.143C152.317 118.177 152.243 118.195 152.167 118.197Z" fill="black"/>
<path d="M159.795 133.84C159.758 133.844 159.721 133.844 159.685 133.84C159.616 133.826 159.551 133.798 159.493 133.759C159.436 133.719 159.386 133.669 159.348 133.61C159.31 133.552 159.284 133.486 159.271 133.417C159.258 133.348 159.259 133.278 159.273 133.209L161.535 122.295C161.55 122.227 161.577 122.162 161.617 122.104C161.656 122.046 161.706 121.997 161.765 121.958C161.823 121.92 161.888 121.894 161.957 121.88C162.026 121.867 162.096 121.868 162.165 121.882C162.233 121.896 162.298 121.924 162.356 121.963C162.414 122.003 162.463 122.053 162.502 122.111C162.54 122.17 162.567 122.235 162.58 122.304C162.593 122.372 162.592 122.443 162.578 122.512L160.312 133.426C160.286 133.543 160.221 133.649 160.127 133.724C160.033 133.8 159.915 133.841 159.795 133.84Z" fill="black"/>
<path d="M189.392 131.982C190.603 131.982 191.584 131.001 191.584 129.791C191.584 128.581 190.603 127.6 189.392 127.6C188.182 127.6 187.201 128.581 187.201 129.791C187.201 131.001 188.182 131.982 189.392 131.982Z" fill="#07ACEE"/>
<path d="M189.39 127.6C189.864 127.599 190.325 127.753 190.705 128.037C191.085 128.321 191.362 128.721 191.495 129.176C191.628 129.631 191.61 130.118 191.443 130.562C191.276 131.006 190.97 131.383 190.57 131.638C190.081 131.951 189.487 132.056 188.92 131.931C188.353 131.806 187.859 131.461 187.546 130.972C187.233 130.482 187.128 129.888 187.253 129.32C187.378 128.752 187.723 128.257 188.212 127.944C188.562 127.715 188.971 127.592 189.39 127.589V127.6ZM189.39 126.525C188.668 126.527 187.967 126.768 187.398 127.212C186.829 127.655 186.423 128.275 186.245 128.975C186.067 129.674 186.127 130.413 186.414 131.074C186.702 131.736 187.202 132.283 187.835 132.629C188.468 132.976 189.199 133.102 189.911 132.987C190.624 132.873 191.278 132.525 191.771 131.998C192.264 131.471 192.567 130.795 192.634 130.076C192.7 129.358 192.526 128.637 192.138 128.029C191.843 127.567 191.437 127.187 190.956 126.924C190.476 126.662 189.937 126.524 189.39 126.525Z" fill="black"/>
<path d="M171.825 124.959C172.51 124.959 173.066 124.403 173.066 123.718C173.066 123.032 172.51 122.477 171.825 122.477C171.14 122.477 170.584 123.032 170.584 123.718C170.584 124.403 171.14 124.959 171.825 124.959Z" fill="black"/>
<path d="M153.675 126.207C154.36 126.207 154.916 125.651 154.916 124.966C154.916 124.28 154.36 123.725 153.675 123.725C152.989 123.725 152.434 124.28 152.434 124.966C152.434 125.651 152.989 126.207 153.675 126.207Z" fill="black"/>
<path d="M166.302 142.711C165.881 142.709 165.463 142.653 165.057 142.544C164.921 142.507 164.805 142.417 164.734 142.295C164.664 142.172 164.646 142.026 164.683 141.89C164.72 141.754 164.81 141.638 164.932 141.568C165.055 141.497 165.201 141.479 165.337 141.516C168.773 142.445 171.071 137.924 171.095 137.878C171.123 137.81 171.165 137.749 171.217 137.698C171.269 137.647 171.332 137.607 171.4 137.581C171.469 137.555 171.541 137.544 171.614 137.548C171.688 137.551 171.759 137.57 171.825 137.602C171.89 137.635 171.948 137.681 171.995 137.737C172.042 137.793 172.077 137.858 172.098 137.928C172.119 137.998 172.125 138.072 172.116 138.144C172.107 138.217 172.083 138.287 172.046 138.35C171.975 138.548 169.847 142.711 166.302 142.711Z" fill="black"/>
<path d="M164.996 115.189C164.863 115.186 164.737 115.132 164.642 115.04C164.54 114.942 164.481 114.809 164.477 114.668C164.473 114.527 164.524 114.391 164.62 114.288C164.797 114.104 166.393 112.49 167.875 113.011C168.009 113.058 168.118 113.157 168.179 113.284C168.241 113.412 168.249 113.559 168.202 113.692C168.155 113.826 168.056 113.935 167.929 113.996C167.801 114.057 167.654 114.065 167.521 114.018C166.812 113.763 165.716 114.681 165.393 115.022C165.342 115.076 165.281 115.118 165.212 115.147C165.144 115.176 165.07 115.19 164.996 115.189Z" fill="black"/>
<path d="M97.4768 172.991C97.4414 172.955 101.115 167.232 101.115 167.232C114.908 176.934 126.999 173.118 126.999 173.118L126.471 178.178L126.581 177.951C126.581 177.951 114.011 188.291 97.4768 172.991Z" fill="#0598C6"/>
<path d="M223.176 178.025C224.77 178.025 226.062 176.732 226.062 175.138C226.062 173.544 224.77 172.252 223.176 172.252C221.582 172.252 220.289 173.544 220.289 175.138C220.289 176.732 221.582 178.025 223.176 178.025Z" fill="#51CEF4"/>
<path d="M279.91 204.265C281.504 204.265 282.796 202.973 282.796 201.379C282.796 199.784 281.504 198.492 279.91 198.492C278.316 198.492 277.023 199.784 277.023 201.379C277.023 202.973 278.316 204.265 279.91 204.265Z" fill="#51CEF4"/>
<path d="M274.59 158.169C276.184 158.169 277.476 156.877 277.476 155.283C277.476 153.689 276.184 152.396 274.59 152.396C272.996 152.396 271.703 153.689 271.703 155.283C271.703 156.877 272.996 158.169 274.59 158.169Z" fill="#51CEF4"/>
<path d="M143.756 139.319L141.381 136.701C140.472 135.699 138.922 135.624 137.92 136.533L101.222 169.832C100.22 170.741 100.145 172.29 101.055 173.293L103.43 175.911C104.339 176.913 105.889 176.988 106.891 176.079L143.588 142.78C144.59 141.871 144.666 140.321 143.756 139.319Z" fill="white"/>
<path d="M105.434 177.201H105.285C104.894 177.184 104.51 177.089 104.155 176.922C103.801 176.756 103.484 176.52 103.221 176.229L100.846 173.609C100.315 173.023 100.038 172.251 100.076 171.461C100.114 170.671 100.463 169.929 101.048 169.397L137.747 136.094C138.333 135.565 139.105 135.289 139.894 135.328C140.683 135.366 141.424 135.716 141.956 136.3L144.335 138.92C144.598 139.21 144.801 139.549 144.933 139.917C145.065 140.286 145.124 140.676 145.104 141.067C145.085 141.458 144.99 141.841 144.822 142.195C144.655 142.549 144.419 142.866 144.129 143.129L107.43 176.431C106.885 176.93 106.172 177.205 105.434 177.201ZM139.75 136.385C139.273 136.384 138.813 136.561 138.46 136.881L101.768 170.18C101.391 170.522 101.166 170.999 101.141 171.507C101.117 172.015 101.295 172.513 101.636 172.889L104.012 175.509C104.181 175.696 104.385 175.848 104.613 175.956C104.841 176.064 105.088 176.125 105.339 176.137C105.591 176.15 105.843 176.112 106.08 176.027C106.317 175.942 106.535 175.81 106.721 175.641L143.42 142.338C143.795 141.995 144.019 141.518 144.044 141.011C144.068 140.504 143.891 140.007 143.551 139.629L141.172 137.013C140.993 136.813 140.774 136.655 140.529 136.546C140.283 136.438 140.018 136.383 139.75 136.385Z" fill="#1D1E1B"/>
<path d="M166.491 127.904L164.342 127.407C164.275 127.39 164.208 127.379 164.14 127.372C164.147 125.421 163.753 123.49 162.98 121.699L164.558 120.589C164.915 120.337 165.158 119.953 165.232 119.522C165.307 119.091 165.207 118.649 164.955 118.291L162.955 115.455C162.702 115.098 162.319 114.856 161.888 114.781C161.458 114.707 161.015 114.806 160.658 115.057L158.913 116.288C158.009 115.545 157.017 114.916 155.959 114.416L156.41 112.469C156.458 112.258 156.465 112.04 156.43 111.826C156.394 111.613 156.317 111.409 156.202 111.225C156.087 111.042 155.938 110.883 155.762 110.758C155.586 110.632 155.387 110.542 155.176 110.494L151.79 109.707C151.579 109.658 151.36 109.651 151.147 109.686C150.933 109.722 150.728 109.799 150.545 109.914C150.361 110.028 150.201 110.178 150.076 110.354C149.95 110.53 149.86 110.73 149.811 110.941L149.322 113.05C147.889 113.102 146.472 113.371 145.12 113.848L143.879 112.075C143.754 111.898 143.596 111.748 143.414 111.632C143.231 111.517 143.027 111.438 142.814 111.401C142.601 111.364 142.383 111.37 142.172 111.417C141.961 111.465 141.761 111.553 141.585 111.678L138.748 113.682C138.391 113.933 138.149 114.316 138.073 114.746C137.998 115.176 138.097 115.618 138.347 115.976L139.443 117.529C138.452 118.579 137.628 119.775 137 121.074L134.957 120.599C134.746 120.551 134.528 120.544 134.314 120.579C134.101 120.615 133.896 120.692 133.712 120.807C133.529 120.921 133.369 121.071 133.244 121.247C133.118 121.423 133.028 121.622 132.979 121.833L132.195 125.22C132.096 125.645 132.17 126.093 132.401 126.464C132.632 126.834 133 127.099 133.426 127.198L135.553 127.691C135.592 129.213 135.873 130.719 136.386 132.152L134.645 133.379C134.468 133.503 134.318 133.661 134.202 133.844C134.087 134.026 134.008 134.23 133.971 134.443C133.934 134.656 133.94 134.875 133.987 135.085C134.035 135.296 134.123 135.496 134.248 135.673L136.252 138.509C136.376 138.686 136.534 138.837 136.717 138.952C136.9 139.068 137.103 139.147 137.316 139.183C137.53 139.22 137.748 139.215 137.959 139.167C138.17 139.12 138.369 139.031 138.546 138.906L140.113 137.804C141.157 138.774 142.34 139.583 143.623 140.204C143.61 140.245 143.598 140.286 143.588 140.328L143.088 142.481C143.039 142.692 143.032 142.91 143.068 143.124C143.103 143.337 143.181 143.542 143.295 143.725C143.41 143.909 143.559 144.069 143.736 144.195C143.912 144.32 144.111 144.41 144.322 144.459L147.712 145.243C147.923 145.292 148.141 145.299 148.354 145.263C148.568 145.227 148.772 145.15 148.955 145.035C149.138 144.921 149.298 144.771 149.423 144.595C149.549 144.419 149.638 144.22 149.687 144.009L150.187 141.86C150.204 141.783 150.216 141.705 150.222 141.626C151.844 141.584 153.446 141.265 154.959 140.683C154.988 140.732 155.018 140.779 155.051 140.825L156.321 142.63C156.573 142.987 156.957 143.23 157.388 143.304C157.819 143.379 158.261 143.279 158.619 143.027L161.455 141.023C161.812 140.771 162.054 140.388 162.128 139.958C162.203 139.528 162.103 139.086 161.853 138.729L160.58 136.924L160.516 136.839C161.308 135.953 161.986 134.97 162.533 133.914C162.621 133.953 162.713 133.983 162.806 134.006L164.959 134.503C165.17 134.551 165.388 134.558 165.602 134.523C165.815 134.487 166.02 134.41 166.203 134.295C166.387 134.181 166.546 134.031 166.672 133.855C166.798 133.679 166.888 133.48 166.937 133.269L167.721 129.882C167.82 129.457 167.745 129.01 167.515 128.639C167.284 128.268 166.916 128.003 166.491 127.904ZM147.573 137.258C145.605 136.801 143.816 135.771 142.433 134.298C141.05 132.825 140.135 130.975 139.803 128.982C139.472 126.989 139.739 124.942 140.571 123.101C141.403 121.259 142.762 119.706 144.477 118.637C146.191 117.568 148.184 117.032 150.204 117.096C152.224 117.16 154.179 117.821 155.822 118.996C157.466 120.172 158.724 121.808 159.438 123.698C160.151 125.589 160.288 127.648 159.831 129.616C159.53 130.924 158.974 132.16 158.195 133.253C157.415 134.346 156.428 135.274 155.289 135.985C154.151 136.696 152.884 137.176 151.56 137.397C150.236 137.617 148.881 137.575 147.573 137.272V137.258Z" fill="white"/>
<path d="M148.08 145.818C147.914 145.818 147.749 145.799 147.587 145.761L144.198 144.977C143.635 144.845 143.148 144.495 142.843 144.005C142.537 143.515 142.438 142.924 142.566 142.361L143.003 140.488C141.946 139.942 140.96 139.269 140.067 138.485L138.851 139.343C138.377 139.675 137.792 139.806 137.222 139.707C136.652 139.608 136.145 139.287 135.812 138.815L133.812 135.978C133.648 135.744 133.532 135.479 133.471 135.2C133.41 134.92 133.406 134.632 133.457 134.35C133.505 134.067 133.609 133.795 133.762 133.552C133.916 133.309 134.116 133.098 134.351 132.932L135.769 131.936C135.364 130.697 135.125 129.409 135.06 128.106L133.323 127.706C132.76 127.575 132.273 127.226 131.968 126.736C131.662 126.246 131.565 125.655 131.695 125.092L132.479 121.702C132.61 121.139 132.959 120.651 133.449 120.345C133.94 120.039 134.532 119.941 135.096 120.072L136.73 120.451C137.288 119.382 137.976 118.386 138.78 117.487L137.932 116.281C137.767 116.047 137.65 115.783 137.587 115.504C137.524 115.225 137.517 114.937 137.566 114.655C137.614 114.373 137.718 114.103 137.871 113.862C138.024 113.62 138.223 113.411 138.457 113.246L141.293 111.242C141.767 110.91 142.352 110.78 142.922 110.879C143.492 110.978 143.999 111.298 144.332 111.771L145.343 113.207C146.501 112.835 147.7 112.607 148.914 112.53L149.311 110.81C149.442 110.247 149.792 109.759 150.282 109.454C150.772 109.148 151.364 109.049 151.927 109.179L155.314 109.966C155.593 110.03 155.856 110.148 156.089 110.314C156.322 110.48 156.521 110.691 156.672 110.934C156.824 111.176 156.926 111.447 156.973 111.729C157.019 112.012 157.01 112.3 156.945 112.579L156.59 114.114C157.423 114.538 158.213 115.039 158.952 115.611L160.37 114.611C160.843 114.279 161.428 114.148 161.997 114.247C162.566 114.346 163.073 114.667 163.405 115.139L165.409 117.976C165.741 118.448 165.872 119.033 165.774 119.602C165.675 120.171 165.355 120.678 164.884 121.011L163.654 121.88C164.294 123.487 164.643 125.196 164.686 126.925L166.628 127.376C167.191 127.507 167.679 127.857 167.985 128.347C168.29 128.838 168.389 129.43 168.259 129.993L167.476 133.379C167.345 133.942 166.996 134.43 166.505 134.736C166.014 135.042 165.422 135.141 164.859 135.01L162.817 134.538C162.359 135.362 161.822 136.14 161.214 136.861L162.306 138.41C162.64 138.883 162.771 139.469 162.673 140.038C162.575 140.608 162.254 141.116 161.781 141.449L158.945 143.453C158.711 143.617 158.446 143.734 158.167 143.797C157.888 143.86 157.599 143.867 157.318 143.818C157.036 143.769 156.766 143.664 156.525 143.511C156.283 143.358 156.074 143.158 155.91 142.924L154.775 141.314C153.457 141.778 152.081 142.053 150.686 142.13L150.226 144.119C150.116 144.605 149.843 145.038 149.452 145.347C149.062 145.656 148.578 145.822 148.08 145.818ZM140.155 137.12L140.471 137.414C141.476 138.349 142.615 139.128 143.85 139.726L144.265 139.925L144.127 140.364C144.117 140.392 144.108 140.42 144.102 140.449L143.609 142.591C143.543 142.88 143.594 143.183 143.751 143.434C143.908 143.685 144.158 143.864 144.446 143.931L147.832 144.715C148.12 144.782 148.423 144.732 148.675 144.575C148.926 144.419 149.105 144.17 149.173 143.882L149.672 141.729C149.672 141.676 149.672 141.623 149.697 141.57L149.736 141.095H150.211C151.773 141.053 153.316 140.746 154.775 140.187L155.2 140.02L155.427 140.421L155.487 140.52L156.76 142.322C156.845 142.441 156.951 142.543 157.075 142.622C157.199 142.7 157.337 142.753 157.481 142.778C157.625 142.803 157.773 142.8 157.916 142.768C158.059 142.735 158.194 142.675 158.313 142.591L161.15 140.591C161.27 140.507 161.372 140.399 161.451 140.275C161.529 140.151 161.582 140.013 161.607 139.869C161.633 139.724 161.629 139.576 161.596 139.433C161.564 139.29 161.504 139.154 161.42 139.035L160.15 137.23L160.108 137.173L159.824 136.818L160.122 136.482C160.886 135.629 161.539 134.683 162.065 133.666L162.288 133.23L162.742 133.422C162.803 133.447 162.866 133.468 162.93 133.482L165.082 133.982C165.37 134.047 165.672 133.996 165.922 133.84C166.172 133.684 166.351 133.435 166.419 133.148L167.206 129.759C167.272 129.471 167.222 129.168 167.066 128.917C166.91 128.666 166.661 128.487 166.373 128.418L164.221 127.922C164.175 127.911 164.129 127.904 164.083 127.901L163.608 127.847V127.369C163.617 125.49 163.238 123.63 162.494 121.905L162.324 121.508L164.253 120.149C164.493 119.978 164.656 119.719 164.707 119.428C164.757 119.138 164.691 118.839 164.522 118.596L162.519 115.76C162.435 115.64 162.328 115.538 162.204 115.46C162.08 115.381 161.943 115.328 161.798 115.303C161.654 115.278 161.506 115.281 161.363 115.314C161.221 115.346 161.085 115.406 160.966 115.49L158.888 116.951L158.576 116.696C157.708 115.981 156.755 115.376 155.739 114.895L155.349 114.71L155.899 112.345C155.933 112.203 155.937 112.055 155.913 111.911C155.889 111.766 155.835 111.628 155.757 111.505C155.68 111.381 155.579 111.273 155.461 111.188C155.342 111.102 155.208 111.042 155.065 111.008L151.676 110.221C151.387 110.155 151.084 110.206 150.833 110.363C150.582 110.52 150.403 110.77 150.335 111.058L149.757 113.565H149.35C147.969 113.615 146.604 113.873 145.3 114.331L144.921 114.466L143.449 112.373C143.278 112.133 143.019 111.97 142.728 111.919C142.438 111.869 142.139 111.935 141.896 112.104L139.06 114.107C138.821 114.275 138.656 114.53 138.602 114.817C138.577 114.96 138.58 115.108 138.612 115.25C138.645 115.393 138.705 115.527 138.79 115.646L140.134 117.557L139.836 117.873C138.885 118.881 138.092 120.027 137.486 121.273L137.298 121.656L134.844 121.086C134.555 121.02 134.252 121.071 134.001 121.228C133.75 121.384 133.571 121.634 133.503 121.922L132.72 125.309C132.653 125.597 132.703 125.9 132.859 126.151C133.015 126.403 133.265 126.582 133.553 126.649L136.085 127.234V127.649C136.12 129.113 136.391 130.561 136.886 131.939L137.024 132.322L134.954 133.78C134.834 133.864 134.732 133.971 134.653 134.095C134.575 134.218 134.522 134.356 134.497 134.5C134.472 134.644 134.475 134.792 134.508 134.935C134.54 135.078 134.6 135.213 134.684 135.333L136.688 138.169C136.859 138.41 137.118 138.573 137.409 138.623C137.7 138.673 137.999 138.605 138.241 138.435L140.155 137.12ZM149.882 138.056C149.064 138.056 148.249 137.962 147.453 137.776C144.784 137.154 142.454 135.534 140.94 133.249C139.427 130.964 138.845 128.187 139.314 125.487C139.783 122.786 141.267 120.368 143.461 118.727C145.656 117.085 148.396 116.346 151.119 116.66C153.841 116.974 156.341 118.318 158.104 120.415C159.868 122.513 160.762 125.206 160.604 127.942C160.446 130.678 159.247 133.25 157.253 135.131C155.26 137.011 152.622 138.058 149.882 138.056ZM147.694 136.74C149.559 137.173 151.512 137.043 153.304 136.367C155.095 135.69 156.646 134.498 157.76 132.94C158.874 131.381 159.502 129.528 159.562 127.614C159.623 125.699 159.114 123.81 158.101 122.184C157.087 120.559 155.615 119.271 153.869 118.482C152.124 117.694 150.183 117.441 148.294 117.755C146.405 118.069 144.651 118.937 143.255 120.248C141.858 121.559 140.882 123.255 140.45 125.121C140.153 126.36 140.106 127.645 140.311 128.903C140.515 130.16 140.968 131.364 141.642 132.446C142.316 133.527 143.198 134.463 144.237 135.2C145.276 135.938 146.451 136.461 147.694 136.74Z" fill="#1D1D1B"/>
<path d="M103.151 167.213C103.151 167.213 95.1937 160.933 100.161 151.423C105.129 141.913 112.696 134.651 120.993 134.68C129.29 134.708 133.815 139.353 135.074 143.86C136.332 148.367 133.301 151.973 127.369 152.416C127.369 152.416 128.01 160.571 117.504 160.742C117.504 160.742 113.742 173.223 106.189 164.316L103.151 167.213Z" fill="#FFCDB2"/>
<path d="M120.944 134.68H120.994C129.294 134.712 133.815 139.354 135.074 143.861C136.333 148.367 133.301 151.973 127.369 152.417C127.369 152.417 128.011 160.572 117.505 160.742C117.505 160.742 115.459 167.522 111.363 167.522C109.899 167.522 108.172 166.66 106.19 164.331L103.151 167.227C103.151 167.227 95.1942 160.948 100.162 151.438C105.13 141.928 112.665 134.695 120.944 134.695V134.68ZM120.944 133.631C116.735 133.631 112.587 135.336 108.622 138.698C105.098 141.68 101.85 145.917 99.2225 150.945C96.4461 156.264 97.4849 160.632 98.843 163.355C99.7298 165.15 100.971 166.745 102.492 168.047L103.201 168.617L103.867 167.983L106.115 165.855C107.888 167.678 109.633 168.6 111.345 168.6C115.324 168.6 117.544 163.696 118.253 161.792C121.745 161.607 124.412 160.526 126.188 158.576C127.466 157.133 128.239 155.313 128.39 153.392C131.433 152.977 133.823 151.711 135.181 149.775C136.411 148.023 136.719 145.875 136.081 143.591C135.282 140.845 133.598 138.441 131.291 136.751C128.564 134.726 125.001 133.645 120.983 133.631H120.944Z" fill="#1D1E1B"/>
<path d="M127.848 153.828C127.738 153.828 127.631 153.793 127.541 153.73C127.452 153.667 127.384 153.577 127.348 153.473C123.972 144.077 115.458 143.471 115.1 143.449C114.959 143.441 114.827 143.378 114.733 143.272C114.639 143.167 114.591 143.028 114.599 142.887C114.607 142.746 114.67 142.614 114.776 142.52C114.881 142.426 115.019 142.378 115.161 142.386C115.253 142.386 124.734 143.035 128.348 153.108C128.395 153.241 128.389 153.387 128.329 153.515C128.269 153.642 128.161 153.741 128.028 153.789C127.971 153.812 127.91 153.826 127.848 153.828Z" fill="#1D1D1B"/>
<path d="M118.156 161.696C118.042 161.696 117.931 161.66 117.84 161.591C117.749 161.523 117.682 161.427 117.65 161.317C116.036 156.041 108.859 151.499 108.785 151.453C108.722 151.417 108.667 151.37 108.624 151.313C108.58 151.256 108.548 151.19 108.53 151.12C108.512 151.051 108.509 150.978 108.52 150.907C108.531 150.836 108.556 150.768 108.595 150.707C108.633 150.646 108.683 150.593 108.742 150.552C108.801 150.511 108.868 150.482 108.939 150.468C109.009 150.453 109.082 150.453 109.152 150.468C109.223 150.482 109.29 150.511 109.349 150.552C109.657 150.743 116.933 155.349 118.66 161.009C118.681 161.075 118.688 161.146 118.681 161.215C118.675 161.285 118.654 161.353 118.621 161.414C118.589 161.476 118.543 161.53 118.489 161.575C118.435 161.619 118.372 161.652 118.305 161.672C118.257 161.688 118.207 161.696 118.156 161.696Z" fill="#1D1D1B"/>
<path d="M106.554 165.77C106.453 165.769 106.354 165.739 106.27 165.685C106.082 165.568 101.706 162.731 101.118 159.04C101.107 158.97 101.11 158.898 101.126 158.83C101.143 158.761 101.173 158.696 101.215 158.639C101.256 158.582 101.309 158.534 101.369 158.497C101.43 158.46 101.496 158.435 101.566 158.424C101.636 158.413 101.708 158.416 101.776 158.433C101.845 158.45 101.91 158.48 101.967 158.521C102.024 158.563 102.072 158.615 102.109 158.676C102.146 158.736 102.171 158.803 102.182 158.873C102.696 162.089 106.816 164.763 106.855 164.788C106.953 164.849 107.028 164.941 107.069 165.049C107.11 165.157 107.115 165.276 107.082 165.387C107.05 165.498 106.982 165.596 106.889 165.665C106.796 165.734 106.683 165.771 106.568 165.77H106.554Z" fill="#1D1D1B"/>
<path d="M133.548 146.757C133.33 146.756 133.117 146.687 132.938 146.56C132.76 146.433 132.625 146.254 132.552 146.048C131.205 142.421 129.116 139.935 126.34 138.669C121.858 136.623 116.989 138.407 116.943 138.424C116.813 138.474 116.674 138.497 116.534 138.493C116.394 138.489 116.257 138.457 116.13 138.4C116.002 138.343 115.887 138.261 115.791 138.159C115.695 138.058 115.621 137.938 115.571 137.807C115.521 137.677 115.498 137.538 115.502 137.398C115.507 137.258 115.538 137.121 115.595 136.994C115.653 136.866 115.735 136.751 115.836 136.656C115.938 136.56 116.057 136.485 116.188 136.435C116.419 136.347 121.904 134.308 127.202 136.723C130.524 138.233 132.992 141.119 134.548 145.31C134.605 145.471 134.623 145.642 134.599 145.81C134.576 145.979 134.513 146.139 134.415 146.278C134.317 146.417 134.187 146.53 134.036 146.609C133.886 146.687 133.718 146.728 133.548 146.729V146.757Z" fill="white"/>
<path d="M215.375 210.292C216.969 210.292 218.261 209 218.261 207.406C218.261 205.812 216.969 204.52 215.375 204.52C213.781 204.52 212.488 205.812 212.488 207.406C212.488 209 213.781 210.292 215.375 210.292Z" fill="#51CEF4"/>
<path d="M155.097 180.863C156.692 180.863 157.984 179.57 157.984 177.976C157.984 176.382 156.692 175.09 155.097 175.09C153.503 175.09 152.211 176.382 152.211 177.976C152.211 179.57 153.503 180.863 155.097 180.863Z" fill="#51CEF4"/>
<path d="M179.562 196.818C181.156 196.818 182.448 195.525 182.448 193.931C182.448 192.337 181.156 191.045 179.562 191.045C177.968 191.045 176.676 192.337 176.676 193.931C176.676 195.525 177.968 196.818 179.562 196.818Z" fill="#51CEF4"/>
<path d="M149.424 258.161C151.018 258.161 152.31 256.869 152.31 255.275C152.31 253.681 151.018 252.389 149.424 252.389C147.83 252.389 146.537 253.681 146.537 255.275C146.537 256.869 147.83 258.161 149.424 258.161Z" fill="#51CEF4"/>
<path d="M215.375 253.197C216.969 253.197 218.261 251.904 218.261 250.31C218.261 248.716 216.969 247.424 215.375 247.424C213.781 247.424 212.488 248.716 212.488 250.31C212.488 251.904 213.781 253.197 215.375 253.197Z" fill="#51CEF4"/>
<path d="M155.097 219.866C156.692 219.866 157.984 218.574 157.984 216.98C157.984 215.386 156.692 214.094 155.097 214.094C153.503 214.094 152.211 215.386 152.211 216.98C152.211 218.574 153.503 219.866 155.097 219.866Z" fill="#51CEF4"/>
<path d="M162.543 284.755C164.137 284.755 165.429 283.463 165.429 281.869C165.429 280.275 164.137 278.982 162.543 278.982C160.949 278.982 159.656 280.275 159.656 281.869C159.656 283.463 160.949 284.755 162.543 284.755Z" fill="#51CEF4"/>
<path d="M243.387 248.232C244.981 248.232 246.273 246.939 246.273 245.345C246.273 243.751 244.981 242.459 243.387 242.459C241.792 242.459 240.5 243.751 240.5 245.345C240.5 246.939 241.792 248.232 243.387 248.232Z" fill="#51CEF4"/>
<path d="M130.971 209.282C132.565 209.282 133.857 207.99 133.857 206.396C133.857 204.802 132.565 203.51 130.971 203.51C129.376 203.51 128.084 204.802 128.084 206.396C128.084 207.99 129.376 209.282 130.971 209.282Z" fill="#51CEF4"/>
<path d="M104.132 196.587C105.726 196.587 107.018 195.295 107.018 193.701C107.018 192.107 105.726 190.814 104.132 190.814C102.538 190.814 101.246 192.107 101.246 193.701C101.246 195.295 102.538 196.587 104.132 196.587Z" fill="#51CEF4"/>
<path d="M86.2397 220.234C87.8337 220.234 89.1259 218.941 89.1259 217.347C89.1259 215.753 87.8337 214.461 86.2397 214.461C84.6456 214.461 83.3535 215.753 83.3535 217.347C83.3535 218.941 84.6456 220.234 86.2397 220.234Z" fill="#51CEF4"/>
<path d="M104.699 245.243C106.293 245.243 107.585 243.951 107.585 242.357C107.585 240.763 106.293 239.471 104.699 239.471C103.105 239.471 101.812 240.763 101.812 242.357C101.812 243.951 103.105 245.243 104.699 245.243Z" fill="#51CEF4"/>
<path d="M196.228 282.273C197.822 282.273 199.114 280.98 199.114 279.386C199.114 277.792 197.822 276.5 196.228 276.5C194.634 276.5 193.342 277.792 193.342 279.386C193.342 280.98 194.634 282.273 196.228 282.273Z" fill="#51CEF4"/>
<path d="M84.275 140.819C84.2122 140.819 84.1501 140.808 84.0908 140.787C74.7499 137.454 66.5279 131.573 60.355 123.81C55.3447 117.555 51.4089 109.939 48.6538 101.177C43.9839 86.2846 44.3706 73.0303 44.3777 72.8991C44.3841 72.7586 44.445 72.6262 44.5477 72.5301C44.6504 72.4341 44.7866 72.382 44.9272 72.3849C45.0677 72.3904 45.2003 72.4514 45.296 72.5544C45.3916 72.6574 45.4424 72.7939 45.4376 72.9344C45.4376 73.0656 45.0546 86.164 49.6926 100.89C53.9476 114.431 63.4293 132.174 84.4631 139.787C84.5806 139.83 84.6792 139.913 84.7418 140.021C84.8044 140.129 84.8271 140.256 84.8055 140.379C84.784 140.502 84.7194 140.614 84.6237 140.694C84.528 140.775 84.4073 140.819 84.2823 140.819H84.275Z" fill="black"/>
<path d="M68.6137 143.986H68.5641C57.9267 143.039 50.1789 136.447 45.5658 131.086C42.5636 127.601 40.0349 123.735 38.0452 119.587C37.9883 119.458 37.985 119.311 38.0362 119.18C38.0874 119.048 38.1887 118.942 38.318 118.885C38.4473 118.828 38.5939 118.825 38.7256 118.876C38.8573 118.927 38.9634 119.029 39.0203 119.158C39.116 119.378 48.9485 141.178 68.6597 142.915C68.8008 142.921 68.9338 142.983 69.0292 143.087C69.1246 143.191 69.1748 143.329 69.1687 143.47C69.1626 143.611 69.1007 143.744 68.9966 143.839C68.8926 143.935 68.7547 143.985 68.6137 143.979V143.986Z" fill="black"/>
<path d="M132.86 246.037C132.82 246.042 132.779 246.042 132.739 246.037C132.601 246.005 132.483 245.92 132.408 245.8C132.334 245.68 132.31 245.536 132.342 245.399C132.381 245.225 136.444 228.078 143.132 214.703C143.161 214.637 143.203 214.577 143.255 214.528C143.308 214.479 143.37 214.441 143.438 214.416C143.506 214.392 143.578 214.381 143.65 214.386C143.722 214.39 143.792 214.409 143.856 214.441C143.921 214.473 143.978 214.518 144.025 214.573C144.071 214.628 144.106 214.692 144.127 214.761C144.148 214.83 144.155 214.902 144.147 214.974C144.14 215.046 144.117 215.115 144.082 215.178C137.451 228.439 133.416 245.47 133.377 245.64C133.347 245.754 133.28 245.855 133.186 245.927C133.093 245.999 132.978 246.038 132.86 246.037Z" fill="black"/>
<path d="M248.031 195.604C248.031 195.604 257.96 207.659 260.087 219.715L248.031 195.604Z" fill="#07ACEE"/>
<path d="M259.555 219.806C257.478 208.023 247.713 196.049 247.613 195.939L248.436 195.266C248.535 195.386 258.478 207.566 260.605 219.622L259.555 219.806Z" fill="#1D1D1B"/>
<path d="M256.365 282.653C256.297 282.652 256.229 282.646 256.163 282.635C256.025 282.609 255.894 282.555 255.778 282.478C255.661 282.401 255.56 282.302 255.482 282.186C255.403 282.07 255.348 281.94 255.321 281.803C255.293 281.665 255.292 281.524 255.319 281.387C263.659 238.316 248.865 212.889 248.713 212.637C248.641 212.517 248.594 212.384 248.574 212.245C248.553 212.107 248.561 211.966 248.595 211.83C248.629 211.694 248.69 211.567 248.773 211.455C248.857 211.342 248.962 211.248 249.082 211.176C249.202 211.104 249.335 211.057 249.473 211.037C249.612 211.016 249.753 211.024 249.889 211.058C250.024 211.092 250.152 211.153 250.264 211.236C250.376 211.32 250.471 211.425 250.543 211.545C250.699 211.811 254.471 218.207 257.223 230.111C259.755 241.049 261.833 258.896 257.411 281.791C257.364 282.034 257.234 282.253 257.043 282.41C256.852 282.567 256.612 282.653 256.365 282.653Z" fill="white"/>
<path d="M79.074 235.491C78.8606 235.491 78.6521 235.427 78.4757 235.306C78.2993 235.186 78.163 235.016 78.0847 234.817C72.6419 221.028 79.6238 208.539 79.9252 208.014C80.0662 207.769 80.2987 207.591 80.5717 207.517C80.8446 207.444 81.1356 207.482 81.3806 207.623C81.6255 207.764 81.8043 207.996 81.8778 208.269C81.9513 208.542 81.9136 208.833 81.7725 209.078C81.6839 209.231 75.0105 221.244 80.0633 234.044C80.1269 234.206 80.1501 234.38 80.1309 234.552C80.1117 234.725 80.0507 234.889 79.9532 235.033C79.8557 235.176 79.7245 235.293 79.5713 235.375C79.4181 235.456 79.2474 235.498 79.074 235.498V235.491Z" fill="white"/>
<path d="M70.2088 246.839C70.1144 246.839 70.0209 246.821 69.9339 246.784C69.8468 246.748 69.768 246.694 69.7019 246.627C62.7272 239.46 62.1065 231.316 62.8121 225.742C63.2631 222.093 64.358 218.554 66.0459 215.289C66.0925 215.208 66.1547 215.137 66.2288 215.08C66.3028 215.022 66.3872 214.981 66.4774 214.956C66.5676 214.932 66.6617 214.926 66.7544 214.938C66.8471 214.95 66.9365 214.98 67.0176 215.026C67.0986 215.073 67.1697 215.135 67.2267 215.209C67.2837 215.283 67.3256 215.367 67.35 215.458C67.3743 215.548 67.3807 215.642 67.3687 215.735C67.3567 215.827 67.3266 215.917 67.28 215.998C65.69 219.125 64.6522 222.503 64.2128 225.983C63.2589 233.621 65.4467 240.237 70.7157 245.648C70.8135 245.748 70.8796 245.874 70.9058 246.011C70.932 246.149 70.9174 246.291 70.8633 246.419C70.8091 246.548 70.7179 246.658 70.6015 246.735C70.4851 246.813 70.3485 246.854 70.2088 246.854V246.839Z" fill="#1D1D1B"/>
<path d="M274.804 114.811C274.804 114.811 273.343 105.113 283.147 101.692C292.951 98.2699 303.096 98.1458 308.936 103.663C314.775 109.18 314.893 115.449 312.797 119.463C310.702 123.477 306.188 124.027 301.692 120.403C301.692 120.403 296.749 126.587 289.221 119.747C289.221 119.747 278.3 126.069 278.864 114.783L274.804 114.811Z" fill="#FFCDB2"/>
<path d="M298.177 99.3621C302.407 99.6847 306.162 101.036 308.942 103.66C314.782 109.173 314.899 115.446 312.804 119.46C311.57 121.825 309.495 122.988 307.081 122.803C305.396 122.672 303.535 121.889 301.698 120.399C301.698 120.399 299.432 123.236 295.635 122.942C293.819 122.803 291.66 121.952 289.227 119.751C289.227 119.751 285.823 121.722 282.916 121.498C280.615 121.321 278.622 119.775 278.87 114.786L274.81 114.818C274.81 114.818 273.349 105.12 283.153 101.699C288.288 99.9045 293.521 99.018 298.177 99.3726V99.3621ZM298.237 98.5748C293.628 98.2202 288.309 99.0393 282.887 100.94C277.505 102.823 275.374 106.532 274.537 109.315C273.982 111.136 273.805 113.051 274.016 114.942C274.043 115.122 274.129 115.287 274.262 115.41C274.395 115.534 274.565 115.609 274.746 115.623H274.817L278.048 115.595C278.048 120.807 280.625 122.13 282.856 122.3C285.309 122.488 288.004 121.286 289.114 120.722C291.27 122.569 293.44 123.587 295.571 123.75C296.708 123.827 297.847 123.664 298.917 123.273C299.987 122.883 300.964 122.272 301.783 121.481C303.513 122.747 305.329 123.481 307.02 123.608C309.786 123.821 312.151 122.445 313.513 119.839C314.744 117.418 315.14 114.658 314.637 111.989C314.062 108.797 312.282 105.72 309.492 103.082C306.701 100.443 302.914 98.9259 298.237 98.5713V98.5748Z" fill="black"/>
<path d="M301.456 121.873C301.384 121.873 301.312 121.857 301.247 121.827C301.181 121.799 301.122 121.759 301.072 121.708C301.022 121.657 300.983 121.597 300.957 121.531C300.931 121.465 300.918 121.394 300.92 121.323C300.922 121.252 300.937 121.182 300.967 121.117C304.8 112.253 299.194 106.204 298.96 105.952C298.909 105.902 298.87 105.842 298.843 105.776C298.816 105.711 298.802 105.64 298.803 105.569C298.804 105.498 298.818 105.428 298.847 105.363C298.875 105.298 298.916 105.239 298.968 105.19C299.019 105.141 299.08 105.103 299.146 105.077C299.213 105.052 299.283 105.041 299.354 105.043C299.425 105.046 299.495 105.063 299.559 105.093C299.624 105.123 299.681 105.165 299.729 105.218C299.793 105.285 306.062 112.019 301.945 121.529C301.907 121.628 301.84 121.714 301.753 121.775C301.666 121.837 301.562 121.871 301.456 121.873Z" fill="#1D1D1B"/>
<path d="M289.407 121.007C289.326 121.009 289.245 120.99 289.173 120.954C289.047 120.892 288.95 120.782 288.904 120.649C288.858 120.517 288.867 120.371 288.928 120.245C291.282 115.458 289.226 107.508 289.205 107.426C289.168 107.29 289.188 107.145 289.259 107.023C289.33 106.901 289.446 106.812 289.582 106.776C289.718 106.739 289.864 106.759 289.986 106.83C290.108 106.901 290.197 107.017 290.233 107.153C290.321 107.508 292.413 115.567 289.878 120.716C289.834 120.803 289.767 120.877 289.684 120.928C289.6 120.98 289.505 121.007 289.407 121.007Z" fill="#1D1D1B"/>
<path d="M278.523 116.205C278.404 116.205 278.289 116.166 278.195 116.093C278.102 116.021 278.035 115.919 278.005 115.805C277.952 115.599 276.739 110.692 278.771 107.692C278.808 107.63 278.857 107.576 278.916 107.534C278.975 107.492 279.041 107.462 279.112 107.446C279.183 107.43 279.256 107.43 279.327 107.443C279.398 107.457 279.465 107.484 279.525 107.525C279.585 107.566 279.636 107.618 279.675 107.679C279.714 107.74 279.74 107.808 279.752 107.879C279.763 107.951 279.76 108.024 279.743 108.094C279.725 108.164 279.694 108.23 279.65 108.287C277.877 110.89 279.026 115.496 279.037 115.542C279.054 115.61 279.058 115.681 279.048 115.75C279.038 115.819 279.014 115.886 278.978 115.946C278.942 116.006 278.895 116.058 278.838 116.1C278.782 116.141 278.718 116.171 278.65 116.188C278.609 116.2 278.566 116.206 278.523 116.205Z" fill="#1D1D1B"/>
<path d="M310.516 120.812C310.34 120.813 310.167 120.77 310.012 120.687C309.857 120.604 309.725 120.484 309.627 120.337C309.53 120.191 309.47 120.022 309.454 119.847C309.438 119.672 309.465 119.496 309.534 119.334C310.984 115.891 311.151 112.763 310.034 110.04C308.232 105.643 303.626 103.683 303.58 103.658C303.319 103.55 303.112 103.343 303.003 103.082C302.895 102.822 302.895 102.529 303.002 102.268C303.11 102.007 303.317 101.799 303.578 101.691C303.838 101.583 304.131 101.582 304.392 101.69C304.612 101.782 309.842 103.984 311.994 109.203C313.342 112.473 313.175 116.157 311.495 120.153C311.415 120.347 311.279 120.513 311.105 120.631C310.931 120.748 310.726 120.811 310.516 120.812Z" fill="white"/>
<defs>
<filter id="filter0_d_2681_37501" x="-4.0192" y="107.785" width="38.6829" height="38.6849" filterUnits="userSpaceOnUse" color-interpolation-filters="sRGB">
<feFlood flood-opacity="0" result="BackgroundImageFix"/>
<feColorMatrix in="SourceAlpha" type="matrix" values="0 0 0 0 0 0 0 0 0 0 0 0 0 0 0 0 0 0 127 0" result="hardAlpha"/>
<feOffset dy="2.03704"/>
<feGaussianBlur stdDeviation="5.09261"/>
<feComposite in2="hardAlpha" operator="out"/>
<feColorMatrix type="matrix" values="0 0 0 0 0 0 0 0 0 0 0 0 0 0 0 0 0 0 0.05 0"/>
<feBlend mode="normal" in2="BackgroundImageFix" result="effect1_dropShadow_2681_37501"/>
<feBlend mode="normal" in="SourceGraphic" in2="effect1_dropShadow_2681_37501" result="shape"/>
</filter>
<filter id="filter1_d_2681_37501" x="370.649" y="165.211" width="38.6888" height="38.6888" filterUnits="userSpaceOnUse" color-interpolation-filters="sRGB">
<feFlood flood-opacity="0" result="BackgroundImageFix"/>
<feColorMatrix in="SourceAlpha" type="matrix" values="0 0 0 0 0 0 0 0 0 0 0 0 0 0 0 0 0 0 127 0" result="hardAlpha"/>
<feOffset dy="2.03704"/>
<feGaussianBlur stdDeviation="5.09261"/>
<feComposite in2="hardAlpha" operator="out"/>
<feColorMatrix type="matrix" values="0 0 0 0 0 0 0 0 0 0 0 0 0 0 0 0 0 0 0.05 0"/>
<feBlend mode="normal" in2="BackgroundImageFix" result="effect1_dropShadow_2681_37501"/>
<feBlend mode="normal" in="SourceGraphic" in2="effect1_dropShadow_2681_37501" result="shape"/>
</filter>
<linearGradient id="paint0_linear_2681_37501" x1="20.4547" y1="112.038" x2="392.053" y2="200.547" gradientUnits="userSpaceOnUse">
<stop stop-color="#CDD5E2"/>
<stop offset="1" stop-color="#CDD5E2" stop-opacity="0"/>
</linearGradient>
<linearGradient id="paint1_linear_2681_37501" x1="391.411" y1="195.438" x2="353.85" y2="294.045" gradientUnits="userSpaceOnUse">
<stop stop-color="#CDD5E2"/>
<stop offset="1" stop-color="#CDD5E2" stop-opacity="0"/>
</linearGradient>
<linearGradient id="paint2_linear_2681_37501" x1="196.502" y1="23.2598" x2="196.502" y2="365.005" gradientUnits="userSpaceOnUse">
<stop stop-color="#CDD5E2"/>
<stop offset="1" stop-color="#CDD5E2" stop-opacity="0"/>
</linearGradient>
<linearGradient id="paint3_linear_2681_37501" x1="196.505" y1="57.4336" x2="196.505" y2="330.83" gradientUnits="userSpaceOnUse">
<stop stop-color="#CDD5E2"/>
<stop offset="1" stop-color="#CDD5E2" stop-opacity="0"/>
</linearGradient>
</defs>
</svg>
