<svg width="240" height="24" viewBox="0 0 240 24" fill="none" xmlns="http://www.w3.org/2000/svg">
<g clip-path="url(#clip0_15184_94556)">
<path d="M41.7861 5.20889H34.2148V18.8147H41.7861V5.20889Z" fill="#FF5F00"/>
<path d="M34.6953 12.0123C34.6941 10.702 34.991 9.40852 35.5636 8.2299C36.1362 7.05128 36.9694 6.01837 38.0002 5.20937C36.7237 4.20603 35.1907 3.58206 33.5763 3.40879C31.962 3.23553 30.3315 3.51995 28.8712 4.22955C27.4108 4.93915 26.1796 6.0453 25.3182 7.42156C24.4568 8.79783 24 10.3887 24 12.0123C24 13.6359 24.4568 15.2268 25.3182 16.603C26.1796 17.9793 27.4108 19.0854 28.8712 19.795C30.3315 20.5046 31.962 20.7891 33.5763 20.6158C35.1907 20.4425 36.7237 19.8186 38.0002 18.8152C36.9694 18.0062 36.1362 16.9733 35.5636 15.7947C34.991 14.6161 34.6941 13.3226 34.6953 12.0123V12.0123Z" fill="#EB001B"/>
<path d="M51.9997 12.0123C51.9998 13.6359 51.5431 15.2267 50.6817 16.603C49.8204 17.9793 48.5892 19.0854 47.1289 19.795C45.6686 20.5046 44.0381 20.7891 42.4238 20.6158C40.8094 20.4425 39.2764 19.8186 38 18.8152C39.0299 18.0054 39.8625 16.9723 40.4349 15.7939C41.0074 14.6155 41.3049 13.3224 41.3049 12.0123C41.3049 10.7022 41.0074 9.40913 40.4349 8.2307C39.8625 7.05226 39.0299 6.01918 38 5.20937C39.2764 4.20602 40.8094 3.58206 42.4238 3.40879C44.0381 3.23553 45.6686 3.51995 47.1289 4.22956C48.5892 4.93917 49.8204 6.04532 50.6817 7.42159C51.5431 8.79786 51.9998 10.3887 51.9997 12.0123V12.0123Z" fill="#F79E1B"/>
<path d="M51.1737 17.3739V17.0953H51.2861V17.0386H51V17.0953H51.1124V17.3739H51.1737ZM51.7291 17.3739V17.038H51.6414L51.5405 17.269L51.4397 17.038H51.3519V17.3739H51.4139V17.1205L51.5084 17.3389H51.5726L51.6672 17.12V17.3739H51.7291Z" fill="#F79E1B"/>
<path d="M93.747 3.86694L90.273 20.1087H86.0709L89.5453 3.86694H93.747ZM111.425 14.3545L113.636 8.25534L114.909 14.3545H111.425ZM116.115 20.1087H120L116.606 3.86694H113.022C112.214 3.86694 111.533 4.33526 111.232 5.05747L104.927 20.1087H109.34L110.216 17.6831H115.606L116.115 20.1087ZM105.146 14.8063C105.164 10.5199 99.22 10.2824 99.2598 8.36713C99.2726 7.7852 99.8279 7.16527 101.041 7.00673C101.643 6.92929 103.303 6.86646 105.185 7.73369L105.922 4.28814C104.911 3.92247 103.61 3.57031 101.991 3.57031C97.8373 3.57031 94.9153 5.77675 94.8919 8.93883C94.8652 11.2771 96.9792 12.5809 98.5687 13.3597C100.207 14.1557 100.756 14.6661 100.748 15.3773C100.737 16.467 99.4418 16.9496 98.2355 16.9679C96.1219 17.0007 94.8966 16.3965 93.9202 15.9414L93.1574 19.502C94.1408 19.952 95.9527 20.3436 97.8289 20.3637C102.245 20.3637 105.132 18.1832 105.146 14.8063ZM87.7429 3.86694L80.9347 20.1087H76.4937L73.1431 7.14664C72.94 6.34955 72.7628 6.05657 72.1451 5.71976C71.1347 5.17108 69.4667 4.65782 68 4.33855L68.0994 3.86694H75.2491C76.1598 3.86694 76.9792 4.47298 77.1878 5.52213L78.9577 14.9214L83.3285 3.86694H87.7429Z" fill="#1434CB"/>
<path d="M141.705 20.3898L142.017 18.4083L141.322 18.3922H138.004L140.31 3.77068C140.317 3.72654 140.34 3.68538 140.374 3.65616C140.408 3.62693 140.452 3.61082 140.497 3.61082H146.092C147.95 3.61082 149.231 3.99734 149.901 4.76024C150.214 5.11813 150.414 5.49213 150.511 5.9037C150.612 6.33555 150.614 6.85151 150.515 7.48079L150.508 7.52672V7.92994L150.822 8.10769C151.086 8.24787 151.296 8.40832 151.457 8.59204C151.725 8.89803 151.899 9.28694 151.972 9.74802C152.048 10.2222 152.023 10.7865 151.899 11.4253C151.756 12.1602 151.524 12.8002 151.212 13.3239C150.924 13.8065 150.558 14.2067 150.123 14.5169C149.708 14.8115 149.215 15.0352 148.657 15.1784C148.117 15.3191 147.5 15.3901 146.825 15.3901H146.389C146.078 15.3901 145.775 15.5023 145.538 15.7033C145.3 15.9085 145.143 16.1888 145.094 16.4954L145.061 16.6738L144.51 20.1662L144.485 20.2944C144.479 20.335 144.467 20.3552 144.451 20.369C144.436 20.3815 144.414 20.3898 144.393 20.3898H141.705Z" fill="#253B80"/>
<path d="M151.119 7.57321C151.102 7.67998 151.083 7.78914 151.062 7.90128C150.324 11.6895 147.8 12.9982 144.576 12.9982H142.934C142.54 12.9982 142.208 13.2845 142.146 13.6734L141.306 19.0036L141.068 20.5145C141.028 20.7698 141.225 21 141.482 21H144.394C144.738 21 145.031 20.7495 145.086 20.4095L145.114 20.2616L145.662 16.7829L145.698 16.592C145.751 16.2508 146.045 16.0003 146.389 16.0003H146.825C149.646 16.0003 151.854 14.8551 152.499 11.541C152.769 10.1566 152.629 9.00059 151.916 8.18759C151.7 7.94243 151.432 7.73903 151.119 7.57321Z" fill="#179BD7"/>
<path d="M150.346 7.26546C150.233 7.23266 150.116 7.20283 149.997 7.17599C149.877 7.14975 149.754 7.12648 149.628 7.1062C149.185 7.03463 148.7 7.00063 148.181 7.00063H143.796C143.688 7.00063 143.585 7.02508 143.493 7.06922C143.291 7.16645 143.141 7.35792 143.104 7.59233L142.171 13.5011L142.145 13.6735C142.206 13.2846 142.538 12.9982 142.932 12.9982H144.574C147.798 12.9982 150.322 11.689 151.06 7.90131C151.082 7.78917 151.101 7.68002 151.117 7.57325C150.931 7.47423 150.728 7.38953 150.511 7.31736C150.457 7.29946 150.402 7.28216 150.346 7.26546Z" fill="#222D65"/>
<path d="M143.106 7.59231C143.142 7.35789 143.292 7.16642 143.495 7.06979C143.587 7.02565 143.689 7.00119 143.797 7.00119H148.182C148.702 7.00119 149.187 7.03519 149.629 7.10677C149.756 7.12705 149.879 7.15031 149.999 7.17656C150.118 7.2034 150.234 7.23322 150.347 7.26603C150.403 7.28273 150.458 7.30003 150.513 7.31733C150.73 7.3895 150.933 7.4748 151.119 7.57322C151.339 6.17328 151.118 5.2201 150.361 4.35699C149.526 3.4068 148.02 3 146.093 3H140.498C140.104 3 139.768 3.28631 139.708 3.67581L137.377 18.4477C137.331 18.7399 137.557 19.0036 137.851 19.0036H141.305L142.173 13.501L143.106 7.59231Z" fill="#253B80"/>
<path d="M216 12.2767C216 9.00561 214.416 6.4245 211.387 6.4245C208.346 6.4245 206.506 9.00561 206.506 12.2512C206.506 16.0973 208.678 18.0395 211.796 18.0395C213.317 18.0395 214.467 17.6945 215.336 17.2089V14.6534C214.467 15.0878 213.47 15.3562 212.205 15.3562C210.966 15.3562 209.867 14.9217 209.726 13.4139H215.974C215.974 13.2478 216 12.5834 216 12.2767ZM209.688 11.0628C209.688 9.61894 210.569 9.01838 211.374 9.01838C212.154 9.01838 212.984 9.61894 212.984 11.0628H209.688ZM201.574 6.4245C200.322 6.4245 199.517 7.01227 199.069 7.42116L198.903 6.62894H196.092V21.5278L199.287 20.8506L199.299 17.2345C199.759 17.5667 200.437 18.0395 201.561 18.0395C203.848 18.0395 205.931 16.1995 205.931 12.1489C205.918 8.44338 203.81 6.4245 201.574 6.4245ZM200.807 15.2284C200.053 15.2284 199.606 14.9601 199.299 14.6278L199.287 9.88727C199.619 9.51672 200.079 9.26116 200.807 9.26116C201.97 9.26116 202.775 10.5645 202.775 12.2384C202.775 13.9506 201.983 15.2284 200.807 15.2284ZM191.697 5.67061L194.904 4.98061V2.38672L191.697 3.06394V5.67061ZM191.697 6.64172H194.904V17.8223H191.697V6.64172ZM188.259 7.58727L188.055 6.64172H185.295V17.8223H188.489V10.2451C189.243 9.26116 190.521 9.44005 190.917 9.58061V6.64172C190.508 6.48839 189.013 6.20727 188.259 7.58727ZM181.871 3.86894L178.753 4.53339L178.74 14.7684C178.74 16.6595 180.158 18.0523 182.049 18.0523C183.097 18.0523 183.864 17.8606 184.286 17.6306V15.0367C183.877 15.2028 181.858 15.7906 181.858 13.8995V9.36339H184.286V6.64172H181.858L181.871 3.86894ZM173.233 9.88727C173.233 9.38894 173.642 9.19727 174.319 9.19727C175.29 9.19727 176.517 9.49116 177.488 10.0151V7.01227C176.427 6.59061 175.379 6.4245 174.319 6.4245C171.725 6.4245 170 7.77894 170 10.0406C170 13.5673 174.856 13.0051 174.856 14.5256C174.856 15.1134 174.344 15.3051 173.629 15.3051C172.568 15.3051 171.214 14.8706 170.141 14.2828V17.3239C171.329 17.8351 172.53 18.0523 173.629 18.0523C176.287 18.0523 178.114 16.7362 178.114 14.4489C178.101 10.6412 173.233 11.3184 173.233 9.88727Z" fill="#635BFF"/>
</g>
<defs>
<clipPath id="clip0_15184_94556">
<rect width="240" height="24" fill="white"/>
</clipPath>
</defs>
</svg>
