<svg width="557" height="510" viewBox="0 0 557 510" fill="none" xmlns="http://www.w3.org/2000/svg">
<g clip-path="url(#clip0_15746_52364)">
<rect width="557" height="510" fill="#CCDFFC"/>
<rect opacity="0.1" x="150.5" y="127.5" width="255" height="255" rx="79.5" stroke="#576B8B"/>
<rect opacity="0.05" x="102.5" y="79.5" width="351" height="351" rx="127.5" stroke="#576B8B"/>
<rect opacity="0.02" x="38.5" y="15.5" width="479" height="479" rx="191.5" stroke="#576B8B"/>
<rect opacity="0.2" x="218" y="231" width="120" height="120" rx="32" fill="white"/>
<rect opacity="0.4" x="206" y="199" width="144" height="144" rx="32" fill="white"/>
<rect x="198" y="175" width="160" height="160" rx="32" fill="white"/>
<rect x="198" y="175" width="160" height="160" rx="32" fill="url(#paint0_linear_15746_52364)" fill-opacity="0.4"/>
<path opacity="0.4" d="M302.399 248.334H253.633C248.699 248.334 244.699 244.3 244.699 239.4V230.634C244.699 225.7 248.733 221.7 253.633 221.7H302.399C307.333 221.7 311.333 225.734 311.333 230.634V239.4C311.333 244.3 307.299 248.334 302.399 248.334Z" fill="#8CAFE5"/>
<path opacity="0.4" d="M302.399 288.334H253.633C248.699 288.334 244.699 284.3 244.699 279.4V270.634C244.699 265.7 248.733 261.7 253.633 261.7H302.399C307.333 261.7 311.333 265.734 311.333 270.634V279.4C311.333 284.3 307.299 288.334 302.399 288.334Z" fill="#8CAFE5"/>
<path d="M258 240.834C256.633 240.834 255.5 239.7 255.5 238.334V231.667C255.5 230.3 256.633 229.167 258 229.167C259.367 229.167 260.5 230.3 260.5 231.667V238.334C260.5 239.7 259.367 240.834 258 240.834Z" fill="#8CAFE5"/>
<path d="M271.332 240.834C269.965 240.834 268.832 239.7 268.832 238.334V231.667C268.832 230.3 269.965 229.167 271.332 229.167C272.699 229.167 273.832 230.3 273.832 231.667V238.334C273.832 239.7 272.699 240.834 271.332 240.834Z" fill="#8CAFE5"/>
<path d="M258 280.834C256.633 280.834 255.5 279.7 255.5 278.334V271.667C255.5 270.3 256.633 269.167 258 269.167C259.367 269.167 260.5 270.3 260.5 271.667V278.334C260.5 279.7 259.367 280.834 258 280.834Z" fill="#8CAFE5"/>
<path d="M271.332 280.834C269.965 280.834 268.832 279.7 268.832 278.334V271.667C268.832 270.3 269.965 269.167 271.332 269.167C272.699 269.167 273.832 270.3 273.832 271.667V278.334C273.832 279.7 272.699 280.834 271.332 280.834Z" fill="#8CAFE5"/>
<path d="M298.001 237.5H284.668C283.301 237.5 282.168 236.367 282.168 235C282.168 233.633 283.301 232.5 284.668 232.5H298.001C299.368 232.5 300.501 233.633 300.501 235C300.501 236.367 299.368 237.5 298.001 237.5Z" fill="#8CAFE5"/>
<path d="M298.001 277.5H284.668C283.301 277.5 282.168 276.367 282.168 275C282.168 273.633 283.301 272.5 284.668 272.5H298.001C299.368 272.5 300.501 273.633 300.501 275C300.501 276.367 299.368 277.5 298.001 277.5Z" fill="#8CAFE5"/>
<path d="M215.575 458.273V467H213.729V460.024H213.678L211.68 461.277V459.641L213.84 458.273H215.575ZM220.904 467.119C220.248 467.119 219.664 467.013 219.153 466.8C218.645 466.584 218.245 466.29 217.956 465.918C217.666 465.545 217.521 465.124 217.521 464.652C217.521 464.288 217.603 463.955 217.768 463.651C217.936 463.344 218.163 463.089 218.45 462.888C218.737 462.683 219.058 462.553 219.413 462.496V462.436C218.947 462.342 218.569 462.116 218.279 461.759C217.99 461.398 217.845 460.979 217.845 460.501C217.845 460.05 217.977 459.648 218.241 459.295C218.505 458.94 218.868 458.662 219.328 458.46C219.791 458.256 220.316 458.153 220.904 458.153C221.493 458.153 222.017 458.256 222.477 458.46C222.94 458.665 223.304 458.945 223.568 459.3C223.832 459.652 223.966 460.053 223.968 460.501C223.966 460.982 223.818 461.401 223.525 461.759C223.233 462.116 222.858 462.342 222.4 462.436V462.496C222.75 462.553 223.066 462.683 223.35 462.888C223.637 463.089 223.865 463.344 224.032 463.651C224.203 463.955 224.289 464.288 224.292 464.652C224.289 465.124 224.143 465.545 223.853 465.918C223.564 466.29 223.163 466.584 222.652 466.8C222.143 467.013 221.561 467.119 220.904 467.119ZM220.904 465.764C221.197 465.764 221.453 465.712 221.672 465.607C221.89 465.499 222.061 465.351 222.183 465.163C222.308 464.973 222.37 464.754 222.37 464.507C222.37 464.254 222.306 464.031 222.179 463.838C222.051 463.642 221.877 463.489 221.659 463.378C221.44 463.264 221.189 463.207 220.904 463.207C220.623 463.207 220.372 463.264 220.15 463.378C219.929 463.489 219.754 463.642 219.626 463.838C219.501 464.031 219.439 464.254 219.439 464.507C219.439 464.754 219.5 464.973 219.622 465.163C219.744 465.351 219.916 465.499 220.137 465.607C220.359 465.712 220.615 465.764 220.904 465.764ZM220.904 461.865C221.149 461.865 221.366 461.815 221.556 461.716C221.747 461.616 221.896 461.479 222.004 461.303C222.112 461.126 222.166 460.923 222.166 460.693C222.166 460.466 222.112 460.267 222.004 460.097C221.896 459.923 221.748 459.788 221.561 459.692C221.373 459.592 221.154 459.543 220.904 459.543C220.657 459.543 220.439 459.592 220.248 459.692C220.058 459.788 219.909 459.923 219.801 460.097C219.696 460.267 219.643 460.466 219.643 460.693C219.643 460.923 219.697 461.126 219.805 461.303C219.913 461.479 220.062 461.616 220.252 461.716C220.443 461.815 220.66 461.865 220.904 461.865ZM229.307 467V458.273H230.364V462.159H235.017V458.273H236.074V467H235.017V463.097H230.364V467H229.307ZM240.712 467.136C240.121 467.136 239.603 466.996 239.157 466.714C238.714 466.433 238.367 466.04 238.117 465.534C237.87 465.028 237.746 464.437 237.746 463.761C237.746 463.08 237.87 462.484 238.117 461.976C238.367 461.467 238.714 461.072 239.157 460.791C239.603 460.51 240.121 460.369 240.712 460.369C241.303 460.369 241.82 460.51 242.263 460.791C242.71 461.072 243.056 461.467 243.303 461.976C243.553 462.484 243.678 463.08 243.678 463.761C243.678 464.437 243.553 465.028 243.303 465.534C243.056 466.04 242.71 466.433 242.263 466.714C241.82 466.996 241.303 467.136 240.712 467.136ZM240.712 466.233C241.161 466.233 241.531 466.118 241.82 465.888C242.11 465.658 242.325 465.355 242.464 464.98C242.603 464.605 242.673 464.199 242.673 463.761C242.673 463.324 242.603 462.916 242.464 462.538C242.325 462.161 242.11 461.855 241.82 461.622C241.531 461.389 241.161 461.273 240.712 461.273C240.263 461.273 239.894 461.389 239.604 461.622C239.315 461.855 239.1 462.161 238.961 462.538C238.822 462.916 238.752 463.324 238.752 463.761C238.752 464.199 238.822 464.605 238.961 464.98C239.1 465.355 239.315 465.658 239.604 465.888C239.894 466.118 240.263 466.233 240.712 466.233ZM249.338 464.324V460.455H250.344V467H249.338V465.892H249.27C249.117 466.224 248.878 466.507 248.554 466.74C248.23 466.97 247.821 467.085 247.327 467.085C246.918 467.085 246.554 466.996 246.236 466.817C245.918 466.635 245.668 466.362 245.486 465.999C245.304 465.632 245.213 465.17 245.213 464.614V460.455H246.219V464.545C246.219 465.023 246.353 465.403 246.62 465.688C246.89 465.972 247.233 466.114 247.651 466.114C247.901 466.114 248.155 466.05 248.414 465.922C248.675 465.794 248.894 465.598 249.07 465.334C249.249 465.07 249.338 464.733 249.338 464.324ZM252.186 467V460.455H253.158V461.443H253.226C253.345 461.119 253.561 460.857 253.874 460.655C254.186 460.453 254.538 460.352 254.93 460.352C255.004 460.352 255.097 460.354 255.207 460.357C255.318 460.359 255.402 460.364 255.459 460.369V461.392C255.425 461.384 255.347 461.371 255.224 461.354C255.105 461.334 254.979 461.324 254.845 461.324C254.527 461.324 254.243 461.391 253.993 461.524C253.746 461.655 253.55 461.837 253.405 462.07C253.263 462.3 253.192 462.562 253.192 462.858V467H252.186ZM261.287 461.92L260.384 462.176C260.327 462.026 260.243 461.879 260.132 461.737C260.025 461.592 259.877 461.473 259.689 461.379C259.502 461.286 259.262 461.239 258.969 461.239C258.569 461.239 258.235 461.331 257.968 461.516C257.703 461.697 257.571 461.929 257.571 462.21C257.571 462.46 257.662 462.658 257.844 462.803C258.026 462.947 258.31 463.068 258.696 463.165L259.668 463.403C260.253 463.545 260.689 463.763 260.976 464.055C261.263 464.345 261.407 464.719 261.407 465.176C261.407 465.551 261.299 465.886 261.083 466.182C260.87 466.477 260.571 466.71 260.188 466.881C259.804 467.051 259.358 467.136 258.85 467.136C258.182 467.136 257.63 466.991 257.192 466.702C256.755 466.412 256.478 465.989 256.361 465.432L257.316 465.193C257.407 465.545 257.578 465.81 257.831 465.986C258.087 466.162 258.421 466.25 258.833 466.25C259.301 466.25 259.674 466.151 259.949 465.952C260.228 465.75 260.367 465.509 260.367 465.227C260.367 465 260.287 464.81 260.128 464.656C259.969 464.5 259.725 464.384 259.395 464.307L258.304 464.051C257.705 463.909 257.265 463.689 256.983 463.391C256.705 463.089 256.566 462.713 256.566 462.261C256.566 461.892 256.669 461.565 256.877 461.281C257.087 460.997 257.373 460.774 257.733 460.612C258.097 460.45 258.509 460.369 258.969 460.369C259.617 460.369 260.125 460.511 260.495 460.795C260.867 461.08 261.131 461.455 261.287 461.92Z" fill="#97A7BF"/>
<path d="M286.504 458.273V467H284.659V460.024H284.608L282.609 461.277V459.641L284.77 458.273H286.504ZM292 467.192C291.267 467.189 290.637 467.009 290.108 466.651C289.583 466.293 289.178 465.774 288.894 465.095C288.613 464.416 288.473 463.599 288.476 462.645C288.476 461.693 288.617 460.882 288.898 460.212C289.182 459.541 289.587 459.031 290.113 458.682C290.641 458.33 291.27 458.153 292 458.153C292.73 458.153 293.358 458.33 293.884 458.682C294.412 459.034 294.819 459.545 295.103 460.216C295.387 460.884 295.527 461.693 295.525 462.645C295.525 463.602 295.382 464.42 295.098 465.099C294.817 465.778 294.414 466.297 293.888 466.655C293.363 467.013 292.733 467.192 292 467.192ZM292 465.662C292.5 465.662 292.9 465.411 293.198 464.908C293.496 464.405 293.644 463.651 293.641 462.645C293.641 461.983 293.573 461.432 293.436 460.991C293.303 460.551 293.113 460.22 292.865 459.999C292.621 459.777 292.333 459.666 292 459.666C291.503 459.666 291.105 459.915 290.807 460.412C290.509 460.909 290.358 461.653 290.355 462.645C290.355 463.315 290.422 463.875 290.556 464.324C290.692 464.77 290.884 465.105 291.131 465.33C291.378 465.551 291.668 465.662 292 465.662ZM300.565 467V458.273H301.621V466.062H305.678V467H300.565ZM309.923 467.136C309.292 467.136 308.748 466.997 308.29 466.719C307.836 466.438 307.485 466.045 307.238 465.543C306.994 465.037 306.871 464.449 306.871 463.778C306.871 463.108 306.994 462.517 307.238 462.006C307.485 461.491 307.829 461.091 308.269 460.804C308.712 460.514 309.229 460.369 309.82 460.369C310.161 460.369 310.498 460.426 310.83 460.54C311.163 460.653 311.465 460.838 311.738 461.094C312.011 461.347 312.228 461.682 312.39 462.099C312.552 462.517 312.633 463.031 312.633 463.642V464.068H307.587V463.199H311.61C311.61 462.83 311.536 462.5 311.388 462.21C311.244 461.92 311.036 461.692 310.766 461.524C310.499 461.357 310.184 461.273 309.82 461.273C309.42 461.273 309.073 461.372 308.781 461.571C308.491 461.767 308.268 462.023 308.112 462.338C307.955 462.653 307.877 462.991 307.877 463.352V463.932C307.877 464.426 307.962 464.845 308.133 465.189C308.306 465.53 308.546 465.79 308.853 465.969C309.16 466.145 309.516 466.233 309.923 466.233C310.187 466.233 310.425 466.196 310.638 466.122C310.854 466.045 311.04 465.932 311.197 465.781C311.353 465.628 311.474 465.437 311.559 465.21L312.531 465.483C312.428 465.812 312.256 466.102 312.015 466.352C311.773 466.599 311.475 466.793 311.12 466.932C310.765 467.068 310.366 467.136 309.923 467.136ZM318.799 461.92L317.896 462.176C317.839 462.026 317.755 461.879 317.644 461.737C317.536 461.592 317.388 461.473 317.201 461.379C317.013 461.286 316.773 461.239 316.481 461.239C316.08 461.239 315.746 461.331 315.479 461.516C315.215 461.697 315.083 461.929 315.083 462.21C315.083 462.46 315.174 462.658 315.356 462.803C315.538 462.947 315.822 463.068 316.208 463.165L317.18 463.403C317.765 463.545 318.201 463.763 318.488 464.055C318.775 464.345 318.918 464.719 318.918 465.176C318.918 465.551 318.81 465.886 318.594 466.182C318.381 466.477 318.083 466.71 317.7 466.881C317.316 467.051 316.87 467.136 316.362 467.136C315.694 467.136 315.141 466.991 314.704 466.702C314.266 466.412 313.989 465.989 313.873 465.432L314.827 465.193C314.918 465.545 315.09 465.81 315.343 465.986C315.599 466.162 315.933 466.25 316.344 466.25C316.813 466.25 317.185 466.151 317.461 465.952C317.739 465.75 317.879 465.509 317.879 465.227C317.879 465 317.799 464.81 317.64 464.656C317.481 464.5 317.237 464.384 316.907 464.307L315.816 464.051C315.217 463.909 314.776 463.689 314.495 463.391C314.217 463.089 314.077 462.713 314.077 462.261C314.077 461.892 314.181 461.565 314.388 461.281C314.599 460.997 314.884 460.774 315.245 460.612C315.609 460.45 316.021 460.369 316.481 460.369C317.129 460.369 317.637 460.511 318.006 460.795C318.379 461.08 318.643 461.455 318.799 461.92ZM325.069 461.92L324.165 462.176C324.108 462.026 324.025 461.879 323.914 461.737C323.806 461.592 323.658 461.473 323.471 461.379C323.283 461.286 323.043 461.239 322.75 461.239C322.35 461.239 322.016 461.331 321.749 461.516C321.485 461.697 321.353 461.929 321.353 462.21C321.353 462.46 321.444 462.658 321.625 462.803C321.807 462.947 322.091 463.068 322.478 463.165L323.449 463.403C324.034 463.545 324.471 463.763 324.757 464.055C325.044 464.345 325.188 464.719 325.188 465.176C325.188 465.551 325.08 465.886 324.864 466.182C324.651 466.477 324.353 466.71 323.969 466.881C323.586 467.051 323.14 467.136 322.631 467.136C321.963 467.136 321.411 466.991 320.973 466.702C320.536 466.412 320.259 465.989 320.142 465.432L321.097 465.193C321.188 465.545 321.36 465.81 321.613 465.986C321.868 466.162 322.202 466.25 322.614 466.25C323.083 466.25 323.455 466.151 323.73 465.952C324.009 465.75 324.148 465.509 324.148 465.227C324.148 465 324.069 464.81 323.909 464.656C323.75 464.5 323.506 464.384 323.176 464.307L322.086 464.051C321.486 463.909 321.046 463.689 320.765 463.391C320.486 463.089 320.347 462.713 320.347 462.261C320.347 461.892 320.451 461.565 320.658 461.281C320.868 460.997 321.154 460.774 321.515 460.612C321.878 460.45 322.29 460.369 322.75 460.369C323.398 460.369 323.907 460.511 324.276 460.795C324.648 461.08 324.912 461.455 325.069 461.92ZM329.361 467.136C328.77 467.136 328.251 466.996 327.805 466.714C327.362 466.433 327.016 466.04 326.766 465.534C326.518 465.028 326.395 464.437 326.395 463.761C326.395 463.08 326.518 462.484 326.766 461.976C327.016 461.467 327.362 461.072 327.805 460.791C328.251 460.51 328.77 460.369 329.361 460.369C329.952 460.369 330.469 460.51 330.912 460.791C331.358 461.072 331.705 461.467 331.952 461.976C332.202 462.484 332.327 463.08 332.327 463.761C332.327 464.437 332.202 465.028 331.952 465.534C331.705 466.04 331.358 466.433 330.912 466.714C330.469 466.996 329.952 467.136 329.361 467.136ZM329.361 466.233C329.81 466.233 330.179 466.118 330.469 465.888C330.759 465.658 330.973 465.355 331.112 464.98C331.251 464.605 331.321 464.199 331.321 463.761C331.321 463.324 331.251 462.916 331.112 462.538C330.973 462.161 330.759 461.855 330.469 461.622C330.179 461.389 329.81 461.273 329.361 461.273C328.912 461.273 328.543 461.389 328.253 461.622C327.963 461.855 327.749 462.161 327.609 462.538C327.47 462.916 327.401 463.324 327.401 463.761C327.401 464.199 327.47 464.605 327.609 464.98C327.749 465.355 327.963 465.658 328.253 465.888C328.543 466.118 328.912 466.233 329.361 466.233ZM334.868 463.062V467H333.862V460.455H334.833V461.477H334.919C335.072 461.145 335.305 460.878 335.618 460.676C335.93 460.472 336.333 460.369 336.828 460.369C337.271 460.369 337.659 460.46 337.991 460.642C338.324 460.821 338.582 461.094 338.767 461.46C338.951 461.824 339.044 462.284 339.044 462.841V467H338.038V462.909C338.038 462.395 337.904 461.994 337.637 461.707C337.37 461.418 337.004 461.273 336.538 461.273C336.217 461.273 335.93 461.342 335.677 461.482C335.427 461.621 335.23 461.824 335.085 462.091C334.94 462.358 334.868 462.682 334.868 463.062ZM345.518 461.92L344.614 462.176C344.558 462.026 344.474 461.879 344.363 461.737C344.255 461.592 344.107 461.473 343.92 461.379C343.732 461.286 343.492 461.239 343.2 461.239C342.799 461.239 342.465 461.331 342.198 461.516C341.934 461.697 341.802 461.929 341.802 462.21C341.802 462.46 341.893 462.658 342.075 462.803C342.256 462.947 342.54 463.068 342.927 463.165L343.898 463.403C344.484 463.545 344.92 463.763 345.207 464.055C345.494 464.345 345.637 464.719 345.637 465.176C345.637 465.551 345.529 465.886 345.313 466.182C345.1 466.477 344.802 466.71 344.418 466.881C344.035 467.051 343.589 467.136 343.08 467.136C342.413 467.136 341.86 466.991 341.423 466.702C340.985 466.412 340.708 465.989 340.592 465.432L341.546 465.193C341.637 465.545 341.809 465.81 342.062 465.986C342.317 466.162 342.651 466.25 343.063 466.25C343.532 466.25 343.904 466.151 344.18 465.952C344.458 465.75 344.597 465.509 344.597 465.227C344.597 465 344.518 464.81 344.359 464.656C344.2 464.5 343.955 464.384 343.626 464.307L342.535 464.051C341.935 463.909 341.495 463.689 341.214 463.391C340.935 463.089 340.796 462.713 340.796 462.261C340.796 461.892 340.9 461.565 341.107 461.281C341.317 460.997 341.603 460.774 341.964 460.612C342.327 460.45 342.739 460.369 343.2 460.369C343.847 460.369 344.356 460.511 344.725 460.795C345.097 461.08 345.362 461.455 345.518 461.92Z" fill="#97A7BF"/>
<circle cx="272" cy="463" r="2" fill="#9FBCE7"/>
</g>
<defs>
<linearGradient id="paint0_linear_15746_52364" x1="278" y1="175" x2="278" y2="335" gradientUnits="userSpaceOnUse">
<stop stop-color="#CCDFFC" stop-opacity="0"/>
<stop offset="1" stop-color="#CCDFFC"/>
</linearGradient>
<clipPath id="clip0_15746_52364">
<rect width="557" height="510" fill="white"/>
</clipPath>
</defs>
</svg>
