<svg width="40" height="40" viewBox="0 0 40 40" fill="none" xmlns="http://www.w3.org/2000/svg">
<rect opacity="0.5" width="40" height="40" rx="12" fill="#D6DC83"/>
<path opacity="0.4" d="M20 30C25.5228 30 30 25.5228 30 20C30 14.4772 25.5228 10 20 10C14.4772 10 10 14.4772 10 20C10 25.5228 14.4772 30 20 30Z" fill="#92974A"/>
<path d="M16.0014 22.75C15.8114 22.75 15.6214 22.68 15.4714 22.53L13.4714 20.53C13.1814 20.24 13.1814 19.7599 13.4714 19.4699L15.4714 17.4699C15.7614 17.1799 16.2414 17.1799 16.5314 17.4699C16.8214 17.7599 16.8214 18.24 16.5314 18.53L15.0614 20L16.5314 21.4699C16.8214 21.7599 16.8214 22.24 16.5314 22.53C16.3814 22.68 16.1914 22.75 16.0014 22.75Z" fill="#92974A"/>
<path d="M24.0014 22.75C23.8114 22.75 23.6214 22.68 23.4714 22.53C23.1814 22.24 23.1814 21.7599 23.4714 21.4699L24.9414 20L23.4714 18.53C23.1814 18.24 23.1814 17.7599 23.4714 17.4699C23.7614 17.1799 24.2414 17.1799 24.5314 17.4699L26.5314 19.4699C26.8214 19.7599 26.8214 20.24 26.5314 20.53L24.5314 22.53C24.3814 22.68 24.1914 22.75 24.0014 22.75Z" fill="#92974A"/>
<path d="M18.9982 23.0801C18.8982 23.0801 18.7982 23.0601 18.7082 23.0201C18.3282 22.8601 18.1482 22.4201 18.3182 22.0301L20.3182 17.36C20.4782 16.98 20.9182 16.8 21.2982 16.97C21.6782 17.13 21.8582 17.5701 21.6882 17.9601L19.6882 22.6301C19.5682 22.9101 19.2882 23.0801 18.9982 23.0801Z" fill="#92974A"/>
</svg>
