<svg width="40" height="40" viewBox="0 0 40 40" fill="none" xmlns="http://www.w3.org/2000/svg">
<rect opacity="0.5" width="40" height="40" rx="12" fill="#8882FF"/>
<path opacity="0.4" d="M27.54 14.5398L24.47 11.4698C23.53 10.5298 22.26 10.0098 20.93 10.0098H16C13 10.0098 11 12.0098 11 15.0098V25.0098C11 28.0098 13 30.0098 16 30.0098H24C27 30.0098 29 28.0098 29 25.0098V18.0797C29 16.7397 28.47 15.4698 27.54 14.5398Z" fill="#6660D0"/>
<path d="M17.5014 26.7499C17.3114 26.7499 17.1214 26.6799 16.9714 26.5299L14.9714 24.5299C14.6814 24.2399 14.6814 23.7599 14.9714 23.4699L16.9714 21.4699C17.2614 21.1799 17.7414 21.1799 18.0314 21.4699C18.3214 21.7599 18.3214 22.2399 18.0314 22.5299L16.5614 23.9999L18.0314 25.4699C18.3214 25.7599 18.3214 26.2399 18.0314 26.5299C17.8814 26.6799 17.6914 26.7499 17.5014 26.7499Z" fill="#6660D0"/>
<path d="M22.5014 26.7499C22.3114 26.7499 22.1214 26.6799 21.9714 26.5299C21.6814 26.2399 21.6814 25.7599 21.9714 25.4699L23.4414 23.9999L21.9714 22.5299C21.6814 22.2399 21.6814 21.7599 21.9714 21.4699C22.2614 21.1799 22.7414 21.1799 23.0314 21.4699L25.0314 23.4699C25.3214 23.7599 25.3214 24.2399 25.0314 24.5299L23.0314 26.5299C22.8814 26.6799 22.6914 26.7499 22.5014 26.7499Z" fill="#6660D0"/>
</svg>
