<svg width="40" height="40" viewBox="0 0 40 40" fill="none" xmlns="http://www.w3.org/2000/svg">
<rect opacity="0.5" width="40" height="40" rx="12" fill="#82C3FF"/>
<path opacity="0.4" d="M26.3811 20.8398V25.7698C26.3811 27.0398 25.3911 28.3998 24.2011 28.7998L21.0111 29.8598C20.4511 30.0498 19.5411 30.0498 18.9911 29.8598L15.8011 28.7998C14.6011 28.3998 13.6211 27.0398 13.6211 25.7698L13.6311 20.8398L18.0511 23.7198C19.1311 24.4298 20.9111 24.4298 21.9911 23.7198L26.3811 20.8398Z" fill="#5B9CD9"/>
<path d="M27.9795 14.4601L21.9895 10.5301C20.9095 9.82006 19.1295 9.82006 18.0495 10.5301L12.0295 14.4601C10.0995 15.7101 10.0995 18.5401 12.0295 19.8001L13.6295 20.8401L18.0495 23.7201C19.1295 24.4301 20.9095 24.4301 21.9895 23.7201L26.3795 20.8401L27.7495 19.9401V23.0001C27.7495 23.4101 28.0895 23.7501 28.4995 23.7501C28.9095 23.7501 29.2495 23.4101 29.2495 23.0001V18.0801C29.6495 16.7901 29.2395 15.2901 27.9795 14.4601Z" fill="#5B9CD9"/>
</svg>
