<svg width="1920" height="795" viewBox="0 0 1920 795" fill="none" xmlns="http://www.w3.org/2000/svg">
<mask id="mask0_15737_52917" style="mask-type:alpha" maskUnits="userSpaceOnUse" x="0" y="0" width="1920" height="795">
<rect width="1920" height="795" fill="#D9D9D9"/>
</mask>
<g mask="url(#mask0_15737_52917)">
<g opacity="0.08" filter="url(#filter0_f_15737_52917)">
<rect x="132" y="126" width="362" height="346" rx="173" fill="#3FCD82"/>
</g>
<path opacity="0.05" d="M1915.68 0V131.702L1872.17 88.1986V0H1871.37L1871.51 0.135813V87.5328L1828.01 44.0298V0H1827.34V44.0298L1783.84 87.5328V0H1518.18V44.0298L1474.67 87.5328V0H1473.87L1430.51 43.3673V0H1429.84V44.0298L1386.34 87.5328V0H1121V132.831H1252.7L1209.2 176.334H1121V177.133L1121.14 176.997H1208.53L1165.03 220.5H1121V221.162H1165.03L1208.53 264.665H1121V265.328H1208.53L1165.03 308.831H1121V309.493H1164.37L1121 352.864V353.662H1208.53L1165.03 397.165H1121V794.997H1386.33V707.464L1429.84 750.967V794.997H1430.5V750.967L1474 707.464V794.861L1473.87 794.997H1474.67V706.801L1518.17 663.298V795H1783.83V750.97L1783.97 750.834L1783.83 750.699V707.467L1827.34 750.97V795H1828V751.633L1871.37 795H1872.17V707.467L1915.67 750.97V795H1916V397.169H1784.3L1827.8 353.666H1916V352.867L1915.86 353.003H1828.46L1871.97 309.5H1916V308.838H1871.97L1828.46 265.335H1916V264.672H1828.46L1871.97 221.169H1916V220.507H1872.63L1916 177.139V176.341H1828.46L1871.97 132.838H1916V0H1915.67H1915.68ZM1827.67 44.6359L1871.51 88.4702V132.169H1783.83V88.4702L1827.67 44.6359H1827.67ZM1872.17 89.1328L1915.21 132.169H1872.17V89.1328ZM1606.97 750.503L1563.47 707H1650.87L1694.37 750.503H1606.97ZM1430.97 662.169L1474.47 618.666H1562.53L1606.04 662.169H1430.97ZM1341.7 750.503H1254.3L1297.8 707H1385.2L1341.7 750.503ZM1165.5 485.97L1209 442.467V529.864L1165.5 573.367V485.97ZM1252.7 397.831L1209.66 440.867V397.831H1252.7ZM1253.83 309.03V220.97L1297.34 177.467V353.199L1253.83 396.702V309.305L1253.97 309.169L1253.83 309.033V309.03ZM1385.2 88.0032H1297.81L1254.3 44.5001H1341.7L1385.2 88.0032ZM1562.81 44.5001H1650.21L1606.7 88.0032H1519.3L1562.81 44.5001ZM1783.37 442L1826.87 485.503H1739.48L1695.97 442H1783.37ZM1738.87 485.834L1695.04 529.669H1651.34V441.997H1695.04L1738.87 485.831V485.834ZM1783.18 706.805V750.036L1695.98 662.835H1783.18V706.533L1783.04 706.669L1783.18 706.805ZM1606.98 662.169L1563.14 618.334L1606.98 574.5H1650.68V662.172H1606.98V662.169ZM1562.54 618.003H1475.14L1518.64 574.5H1606.04L1562.54 618.003ZM1209.47 706.338L1165.97 662.835H1341.04L1297.53 706.338H1209.47ZM1253.17 574.967V662.169H1165.97L1253.17 574.967ZM1518.83 89.1328L1561.87 132.169H1518.83V89.1328ZM1695.03 88.6657L1738.54 132.169H1563.47L1606.97 88.6657H1695.03ZM1783.17 220.97V309.03L1739.67 352.533V176.801L1783.17 133.298V220.695L1783.04 220.831L1783.17 220.967V220.97ZM1607.64 573.834L1650.67 530.798V573.834H1607.64ZM1430.97 573.834L1474.47 530.331H1518.83H1650.21L1606.7 573.834H1430.97ZM1342.17 662.169V619.133L1385.2 662.169H1342.17ZM1385.67 662.831V705.867L1342.63 662.831H1385.67ZM1341.51 662.169H1253.83V618.47L1297.67 574.636L1341.5 618.47V662.169H1341.51ZM1342.17 220.97L1385.67 177.467V264.669V352.533L1342.17 309.03V220.97ZM1430.17 132.967L1430.31 132.831H1562.53L1606.04 176.334H1430.3L1386.8 132.831H1430.03L1430.17 132.967H1430.17ZM1695.5 396.698V309.301L1739.01 265.798V353.195L1695.5 396.698ZM1297.34 574.026L1253.84 617.53V442.461L1297.34 485.964V574.023V574.026ZM1296.87 397.828L1253.84 440.864V397.828H1296.87ZM1253.97 441.662L1297.34 398.295V485.03L1253.97 441.662ZM1386.34 397.165V309.964L1429.84 353.467V441.526L1386.34 485.03V397.165ZM1429.38 176.331H1386.34V133.295L1429.38 176.331ZM1386.34 176.994H1430.04L1473.87 220.828L1430.04 264.662H1386.34V176.99V176.994ZM1694.85 309.026L1651.34 352.53V220.967L1651.48 220.831L1651.34 220.695V177.464L1694.85 220.967V309.026ZM1694.85 396.698L1651.48 353.331L1694.85 309.964V396.698ZM1650.68 529.198L1607.18 485.695V309.964L1650.54 353.331L1650.68 353.467V397.165V529.195V529.198ZM1474.48 221.162H1562.54L1606.04 264.665H1562.82L1562.68 264.53L1562.54 264.665H1518.18H1430.98L1474.48 221.162H1474.48ZM1606.51 396.698L1563.01 353.195V265.798L1606.51 309.301V396.698ZM1474.68 309.301L1518.18 265.798V309.026L1518.04 309.162L1518.18 309.298V397.493V441.523L1474.68 485.026V309.295V309.301ZM1517.71 265.328L1474.68 308.364V265.328H1517.71ZM1518.18 442.464V529.665H1430.98L1518.18 442.464ZM1518.84 265.328H1561.88L1518.84 308.364V265.328ZM1562.34 265.795V352.53L1518.98 309.162L1562.34 265.795ZM1563.48 265.328H1606.71L1606.84 265.464L1606.98 265.328H1650.68V352.53L1563.47 265.328H1563.48ZM1607.64 264.665L1650.68 221.629V264.665H1607.64ZM1606.84 264.53L1563.47 221.162H1650.21L1606.84 264.53ZM1474.01 265.328V309.026L1430.17 352.861L1386.34 309.026V265.328H1474.01H1474.01ZM1430.51 353.467L1474.01 309.964V397.361L1430.51 440.864V353.467ZM1474.01 398.295V485.692L1430.51 529.195V441.798L1474.01 398.295ZM1429.84 529.195L1386.48 485.828L1429.84 442.461V529.195ZM1429.38 529.662H1386.34V486.626L1429.38 529.662ZM1518.84 397.493V309.961L1562.34 353.464V441.523L1518.84 485.026V397.493ZM1563.01 354.126L1606.51 397.629V485.026L1563.01 441.523V354.126ZM1650.68 132.825V220.026L1563.48 132.825H1650.68ZM1650.21 220.497H1562.82L1519.31 176.994H1606.71L1650.21 220.497ZM1518.37 176.994L1561.88 220.497H1474.48L1430.98 176.994H1518.37ZM1518.84 485.967L1562.68 442.133L1606.51 485.967V529.665H1518.84V485.967H1518.84ZM1607.18 486.629L1650.21 529.665H1607.18V486.629ZM1651.34 354.129L1694.38 397.165H1651.34V354.129ZM1739.01 264.858L1695.51 308.361V220.964L1739.01 177.461V264.858ZM1695.18 220.361L1651.35 176.526V132.828H1739.02V176.526L1695.18 220.361H1695.18ZM1385.68 175.864L1342.64 132.828H1385.68V175.864ZM1342.18 133.298L1385.55 176.666L1342.18 220.033V133.298ZM1298.01 574.026V486.629L1341.51 530.133V617.53L1298.01 574.026ZM1341.51 529.198L1298.01 485.695V398.298L1341.51 441.801V529.198ZM1298.48 397.828H1385.68V485.03L1298.48 397.828ZM1430.04 530.328L1430.18 530.464L1430.31 530.328H1473.54L1386.34 617.53V530.328H1430.04H1430.04ZM1695.98 397.165L1783.18 309.964V397.165H1695.98ZM1739.68 175.864V132.828H1782.72L1739.68 175.864ZM1562.68 132.03L1519.31 88.6624H1606.05L1562.68 132.03ZM1342.65 132.165L1385.68 89.1294V132.165H1342.65ZM1341.85 132.03L1298.48 88.6624H1385.22L1341.85 132.03ZM1341.05 132.828L1253.85 220.03V132.828H1341.05ZM1341.52 133.295V220.692L1298.01 264.195V176.798L1341.52 133.295ZM1298.01 265.133L1341.52 221.629V309.026L1298.01 352.53V265.133ZM1341.85 309.629L1385.68 353.464V397.162H1298.01V353.464L1341.85 309.629H1341.85ZM1297.35 397.162H1254.32L1297.35 354.126V397.162ZM1341.85 662.96L1385.22 706.328H1298.48L1341.85 662.96ZM1342.18 618.189V442.461L1385.55 485.828L1385.68 485.964V530.325V618.189L1385.55 618.325L1385.68 618.46V661.692L1342.18 618.189ZM1386.82 617.993L1430.32 574.49H1517.72L1474.21 617.993H1386.82ZM1473.55 618.656L1430.18 662.023L1386.82 618.656H1473.55ZM1651.35 662.159V574.957L1738.55 662.159H1651.35ZM1651.82 574.487H1739.22L1782.72 617.99H1695.32L1651.82 574.487ZM1651.82 573.824L1695.19 530.457L1738.55 573.824H1651.82ZM1651.35 573.357V530.321H1694.39L1651.35 573.357ZM1651.35 441.324V398.288L1694.39 441.324H1651.35ZM1783.17 43.8343H1740.14L1783.17 0.798313V43.8343ZM1783.17 44.4968V132.169H1739.48L1695.64 88.3344L1739.48 44.5001H1783.17V44.4968ZM1695.03 87.9999H1607.64L1651.14 44.4968H1738.54L1695.03 87.9999ZM1386.33 132.165V89.1294L1429.37 132.165H1386.33ZM1253.37 44.4968L1296.87 87.9999H1209.47L1165.97 44.4968H1253.37ZM1209.47 88.6624H1297.53L1341.03 132.165H1165.97L1209.47 88.6624ZM1253.17 398.298V441.53L1253.03 441.666L1253.17 441.801V574.026L1209.67 617.53V441.798L1253.17 398.295V398.298ZM1209 530.798V618.195L1165.5 661.698V574.301L1209 530.798ZM1164.84 661.698L1121.47 618.334L1164.83 574.967V661.702L1164.84 661.698ZM1208.87 706.666L1165.03 750.5H1121.33V662.828H1165.03L1208.86 706.662L1208.87 706.666ZM1209.47 706.997H1296.87L1253.37 750.5H1165.97L1209.47 706.997H1209.47ZM1386.34 619.133L1429.37 662.169H1386.34V619.133ZM1518.84 663.298L1561.87 706.334H1518.84V663.298ZM1519.3 662.831H1650.68H1695.04L1738.54 706.334H1562.81L1519.31 662.831H1519.3ZM1651.81 706.997H1739.2L1782.71 750.5H1695.31L1651.81 706.997ZM1782.71 751.162L1739.34 794.53L1695.97 751.162H1782.71ZM1827.81 662.165L1827.67 662.03L1827.54 662.165H1739.48L1695.98 618.662H1871.71L1915.21 662.165H1827.81H1827.81ZM1783.64 618L1740.14 574.497H1827.54L1871.04 618H1783.64ZM1827.54 573.834H1739.48L1695.98 530.331H1871.04L1827.54 573.834ZM1695.98 529.669L1739.48 486.166H1827.54L1871.04 529.669H1695.97H1695.98ZM1828.48 486.166H1915.21L1871.84 529.533L1828.48 486.166ZM1827.81 485.503L1784.31 442H1871.71L1915.21 485.503H1827.81ZM1695.31 441.338L1651.81 397.835H1695.04L1695.18 397.97L1695.31 397.835H1827.54L1871.04 441.338H1695.31ZM1739.21 43.8376H1563.47L1606.97 0.33125H1782.71L1739.2 43.8343L1739.21 43.8376ZM1606.04 0.33125L1518.83 87.5328V0.33125H1606.04ZM1518.17 88.1953L1518.04 88.3311L1518.17 88.4669V132.165H1430.97L1518.17 44.9639V88.1953ZM1474.01 0.798313V88.1953L1430.5 131.698V44.3047L1474.01 0.798313ZM1429.84 44.9639V131.698L1386.47 88.3311L1429.84 44.9639ZM1385.67 0.33125V87.5328L1298.47 0.33125H1385.67ZM1297.53 0.33125L1341.03 43.8343H1165.31L1121.8 0.33125H1297.53H1297.53ZM1164.37 43.8343H1121.33V0.798313L1164.37 43.8343ZM1121.33 44.4968H1165.03L1208.86 88.3311L1165.03 132.165H1121.33V44.4968ZM1253.17 133.298V176.334H1210.13L1253.17 133.298ZM1209.47 176.997H1253.17V264.669H1209.47L1209.34 264.533L1165.64 220.834L1209.47 177V176.997ZM1253.17 265.331V308.367L1210.13 265.331H1253.17ZM1209.34 265.467L1252.7 308.834H1165.97L1209.34 265.467ZM1121.8 353.003L1165.3 309.5H1252.7L1209.2 353.003H1121.8ZM1253.17 309.967V397.169H1165.97L1253.17 309.967ZM1209 397.831V441.53L1165.17 485.364L1121.33 441.53V397.831H1209ZM1121.33 442.467L1164.83 485.97V574.03L1121.33 617.533V442.464V442.467ZM1164.37 662.169H1121.33V619.133L1164.37 662.169ZM1121.33 751.166H1164.37L1121.33 794.202V751.166ZM1165.31 751.166H1341.03L1297.53 794.669H1121.8L1165.3 751.166H1165.31ZM1298.47 794.669L1385.67 707.467V794.669H1298.47ZM1430.17 750.364L1386.47 706.666L1386.34 706.53V662.831H1430.04L1430.17 662.967L1430.31 662.831H1474.01V706.53L1430.17 750.364ZM1474.67 662.831H1517.7L1474.67 705.867V662.831ZM1518.83 706.997H1562.53L1606.37 750.831L1562.53 794.665H1518.83V706.994V706.997ZM1563.47 794.669L1606.97 751.166H1695.03L1738.54 794.669H1563.47H1563.47ZM1740.14 794.669L1783.17 751.633V794.669H1740.14ZM1783.84 662.831H1826.87L1783.84 705.867V662.831ZM1783.97 706.666L1827.34 663.298V750.033L1783.97 706.666ZM1871.51 794.198L1828 750.695V663.298L1871.51 706.801V794.198ZM1915.67 750.033L1828.47 662.831H1915.67V750.033ZM1915.67 661.702L1872.64 618.666H1915.67V661.702ZM1871.97 618.003L1828.14 574.169L1871.97 530.335H1915.67V618.007H1871.97V618.003ZM1915.67 529.669H1872.64L1915.67 486.633V529.669ZM1828.47 397.831H1915.67V485.033L1828.47 397.831ZM1783.83 396.698V353.662H1826.87L1783.83 396.698ZM1827.53 353H1783.83V265.328H1827.53L1827.67 265.464L1871.37 309.162L1827.53 352.997V353ZM1783.83 264.665V221.629L1826.87 264.665H1783.83ZM1827.67 264.53L1784.3 221.162H1871.04L1827.67 264.53ZM1915.2 176.997L1871.7 220.5H1784.3L1827.8 176.997H1915.2ZM1783.83 220.033V132.831H1871.03L1783.83 220.033Z" fill="url(#paint0_radial_15737_52917)"/>
<path opacity="0.05" d="M794.675 0V131.702L751.172 88.1986V0H750.374L750.509 0.135813V87.5328L707.006 44.0298V0H706.344V44.0298L662.84 87.5328V0H397.175V44.0298L353.672 87.5328V0H352.874L309.506 43.3673V0H308.844V44.0298L265.34 87.5328V0H0V132.831H131.703L88.1994 176.334H0V177.133L0.135814 176.997H87.5335L44.0301 220.5H0V221.162H44.0301L87.5335 264.665H0V265.328H87.5335L44.0301 308.831H0V309.493H43.3676L0 352.864V353.662H87.5335L44.0301 397.165H0V794.997H265.333V707.464L308.837 750.967V794.997H309.499V750.967L353.003 707.464V794.861L352.867 794.997H353.665V706.801L397.169 663.298V795H662.833V750.97L662.969 750.834L662.833 750.699V707.467L706.337 750.97V795H706.999V751.633L750.367 795H751.165V707.467L794.669 750.97V795H795V397.169H663.297L706.801 353.666H794.997V352.867L794.861 353.003H707.463L750.967 309.5H794.997V308.838H750.967L707.463 265.335H794.997V264.672H707.463L750.967 221.169H794.997V220.507H751.629L794.997 177.139V176.341H707.463L750.967 132.838H794.997V0H794.665H794.675ZM706.671 44.6359L750.506 88.4702V132.169H662.833V88.4702L706.668 44.6359H706.671ZM751.169 89.1328L794.205 132.169H751.169V89.1328ZM485.974 750.503L442.471 707H529.869L573.372 750.503H485.974ZM309.97 662.169L353.473 618.666H441.533L485.037 662.169H309.97ZM220.697 750.503H133.299L176.803 707H264.201L220.697 750.503ZM44.4972 485.97L88.0006 442.467V529.864L44.4972 573.367V485.97ZM131.699 397.831L88.6631 440.867V397.831H131.699ZM132.832 309.03V220.97L176.336 177.467V353.199L132.832 396.702V309.305L132.968 309.169L132.832 309.033V309.03ZM264.204 88.0032H176.806L133.303 44.5001H220.7L264.204 88.0032ZM441.808 44.5001H529.206L485.703 88.0032H398.305L441.808 44.5001ZM662.37 442L705.873 485.503H618.475L574.972 442H662.37ZM617.872 485.834L574.038 529.669H530.339V441.997H574.038L617.872 485.831V485.834ZM662.178 706.805V750.036L574.975 662.835H662.178V706.533L662.042 706.669L662.178 706.805ZM485.978 662.169L442.143 618.334L485.978 574.5H529.676V662.172H485.978V662.169ZM441.537 618.003H354.139L397.642 574.5H485.04L441.537 618.003ZM88.4743 706.338L44.9709 662.835H220.038L176.535 706.338H88.4743ZM132.173 574.967V662.169H44.9709L132.173 574.967ZM397.835 89.1328L440.871 132.169H397.835V89.1328ZM574.035 88.6657L617.538 132.169H442.471L485.974 88.6657H574.035ZM662.174 220.97V309.03L618.671 352.533V176.801L662.174 133.298V220.695L662.038 220.831L662.174 220.967V220.97ZM486.637 573.834L529.673 530.798V573.834H486.637ZM309.97 573.834L353.473 530.331H397.835H529.206L485.703 573.834H309.97ZM221.168 662.169V619.133L264.204 662.169H221.168ZM264.671 662.831V705.867L221.635 662.831H264.671ZM220.505 662.169H132.832V618.47L176.667 574.636L220.502 618.47V662.169H220.505ZM221.168 220.97L264.671 177.467V264.669V352.533L221.168 309.03V220.97ZM309.171 132.967L309.307 132.831H441.533L485.037 176.334H309.304L265.801 132.831H309.032L309.168 132.967H309.171ZM574.505 396.698V309.301L618.008 265.798V353.195L574.505 396.698ZM176.339 574.026L132.836 617.53V442.461L176.339 485.964V574.023V574.026ZM175.872 397.828L132.836 440.864V397.828H175.872ZM132.975 441.662L176.342 398.295V485.03L132.975 441.662ZM265.34 397.165V309.964L308.844 353.467V441.526L265.34 485.03V397.165ZM308.376 176.331H265.34V133.295L308.376 176.331ZM265.34 176.994H309.039L352.874 220.828L309.039 264.662H265.34V176.99V176.994ZM573.846 309.026L530.342 352.53V220.967L530.478 220.831L530.342 220.695V177.464L573.846 220.967V309.026ZM573.846 396.698L530.478 353.331L573.846 309.964V396.698ZM529.68 529.198L486.176 485.695V309.964L529.544 353.331L529.68 353.467V397.165V529.195V529.198ZM353.48 221.162H441.54L485.043 264.665H441.815L441.679 264.53L441.543 264.665H397.182H309.98L353.483 221.162H353.48ZM485.514 396.698L442.01 353.195V265.798L485.514 309.301V396.698ZM353.675 309.301L397.179 265.798V309.026L397.043 309.162L397.179 309.298V397.493V441.523L353.675 485.026V309.295V309.301ZM396.712 265.328L353.675 308.364V265.328H396.712ZM397.179 442.464V529.665H309.976L397.179 442.464ZM397.841 265.328H440.878L397.841 308.364V265.328ZM441.345 265.795V352.53L397.977 309.162L441.345 265.795ZM442.478 265.328H485.706L485.842 265.464L485.978 265.328H529.676V352.53L442.474 265.328H442.478ZM486.643 264.665L529.68 221.629V264.665H486.643ZM485.842 264.53L442.474 221.162H529.209L485.842 264.53ZM353.009 265.328V309.026L309.175 352.861L265.34 309.026V265.328H353.013H353.009ZM309.506 353.467L353.009 309.964V397.361L309.506 440.864V353.467ZM353.009 398.295V485.692L309.506 529.195V441.798L353.009 398.295ZM308.844 529.195L265.476 485.828L308.844 442.461V529.195ZM308.376 529.662H265.34V486.626L308.376 529.662ZM397.841 397.493V309.961L441.345 353.464V441.523L397.841 485.026V397.493ZM442.007 354.126L485.511 397.629V485.026L442.007 441.523V354.126ZM529.68 132.825V220.026L442.478 132.825H529.68ZM529.213 220.497H441.815L398.312 176.994H485.709L529.213 220.497ZM397.374 176.994L440.878 220.497H353.48L309.976 176.994H397.374ZM397.841 485.967L441.676 442.133L485.511 485.967V529.665H397.838V485.967H397.841ZM486.176 486.629L529.213 529.665H486.176V486.629ZM530.342 354.129L573.379 397.165H530.342V354.129ZM618.015 264.858L574.512 308.361V220.964L618.015 177.461V264.858ZM574.18 220.361L530.346 176.526V132.828H618.018V176.526L574.184 220.361H574.18ZM264.681 175.864L221.645 132.828H264.681V175.864ZM221.177 133.298L264.545 176.666L221.177 220.033V133.298ZM177.012 574.026V486.629L220.515 530.133V617.53L177.012 574.026ZM220.515 529.198L177.012 485.695V398.298L220.515 441.801V529.198ZM177.479 397.828H264.681V485.03L177.479 397.828ZM309.042 530.328L309.178 530.464L309.314 530.328H352.542L265.34 617.53V530.328H309.039H309.042ZM574.982 397.165L662.184 309.964V397.165H574.982ZM618.681 175.864V132.828H661.717L618.681 175.864ZM441.682 132.03L398.315 88.6624H485.05L441.682 132.03ZM221.648 132.165L264.684 89.1294V132.165H221.648ZM220.85 132.03L177.482 88.6624H264.217L220.85 132.03ZM220.051 132.828L132.849 220.03V132.828H220.051ZM220.518 133.295V220.692L177.015 264.195V176.798L220.518 133.295ZM177.015 265.133L220.518 221.629V309.026L177.015 352.53V265.133ZM220.85 309.629L264.684 353.464V397.162H177.012V353.464L220.846 309.629H220.85ZM176.352 397.162H133.316L176.352 354.126V397.162ZM220.85 662.96L264.217 706.328H177.482L220.85 662.96ZM221.181 618.189V442.461L264.548 485.828L264.684 485.964V530.325V618.189L264.548 618.325L264.684 618.46V661.692L221.181 618.189ZM265.817 617.993L309.32 574.49H396.718L353.215 617.993H265.817ZM352.552 618.656L309.185 662.023L265.817 618.656H352.552ZM530.352 662.159V574.957L617.555 662.159H530.352ZM530.819 574.487H618.217L661.72 617.99H574.323L530.819 574.487ZM530.819 573.824L574.187 530.457L617.555 573.824H530.819ZM530.352 573.357V530.321H573.389L530.352 573.357ZM530.352 441.324V398.288L573.389 441.324H530.352ZM662.174 43.8343H619.138L662.174 0.798313V43.8343ZM662.174 44.4968V132.169H618.475L574.641 88.3344L618.475 44.5001H662.174V44.4968ZM574.035 87.9999H486.637L530.14 44.4968H617.538L574.035 87.9999ZM265.333 132.165V89.1294L308.37 132.165H265.333ZM132.365 44.4968L175.869 87.9999H88.471L44.9676 44.4968H132.365ZM88.471 88.6624H176.531L220.035 132.165H44.9676L88.471 88.6624ZM132.17 398.298V441.53L132.034 441.666L132.17 441.801V574.026L88.6664 617.53V441.798L132.17 398.295V398.298ZM88.0039 530.798V618.195L44.5005 661.698V574.301L88.0039 530.798ZM43.838 661.698L0.467066 618.334L43.8347 574.967V661.702L43.838 661.698ZM87.8681 706.666L44.0334 750.5H0.331253V662.828H44.0301L87.8648 706.662L87.8681 706.666ZM88.4743 706.997H175.872L132.369 750.5H44.9676L88.471 706.997H88.4743ZM265.337 619.133L308.373 662.169H265.337V619.133ZM397.838 663.298L440.874 706.334H397.838V663.298ZM398.305 662.831H529.676H574.038L617.541 706.334H441.812L398.308 662.831H398.305ZM530.806 706.997H618.204L661.707 750.5H574.309L530.806 706.997ZM661.707 751.162L618.34 794.53L574.972 751.162H661.707ZM706.811 662.165L706.675 662.03L706.539 662.165H618.479L574.975 618.662H750.708L794.212 662.165H706.814H706.811ZM662.645 618L619.141 574.497H706.539L750.042 618H662.645ZM706.539 573.834H618.479L574.975 530.331H750.042L706.539 573.834ZM574.975 529.669L618.479 486.166H706.539L750.042 529.669H574.972H574.975ZM707.476 486.166H794.212L750.844 529.533L707.476 486.166ZM706.814 485.503L663.31 442H750.708L794.212 485.503H706.814ZM574.313 441.338L530.809 397.835H574.041L574.177 397.97L574.313 397.835H706.539L750.042 441.338H574.313ZM618.207 43.8376H442.474L485.974 0.33125H661.707L618.204 43.8343L618.207 43.8376ZM485.037 0.33125L397.835 87.5328V0.33125H485.037ZM397.172 88.1953L397.036 88.3311L397.172 88.4669V132.165H309.97L397.172 44.9639V88.1953ZM353.006 0.798313V88.1953L309.503 131.698V44.3047L353.006 0.798313ZM308.84 44.9639V131.698L265.473 88.3311L308.84 44.9639ZM264.671 0.33125V87.5328L177.469 0.33125H264.671ZM176.531 0.33125L220.035 43.8343H44.3051L0.798319 0.33125H176.528H176.531ZM43.3676 43.8343H0.331253V0.798313L43.3676 43.8343ZM0.331253 44.4968H44.0301L87.8648 88.3311L44.0301 132.165H0.331253V44.4968ZM132.17 133.298V176.334H89.1335L132.17 133.298ZM88.471 176.997H132.17V264.669H88.471L88.3352 264.533L44.6363 220.834L88.471 177V176.997ZM132.17 265.331V308.367L89.1335 265.331H132.17ZM88.3352 265.467L131.703 308.834H44.9676L88.3352 265.467ZM0.798319 353.003L44.3017 309.5H131.699L88.196 353.003H0.798319ZM132.17 309.967V397.169H44.9676L132.17 309.967ZM88.0039 397.831V441.53L44.1692 485.364L0.331253 441.53V397.831H88.0039ZM0.331253 442.467L43.8347 485.97V574.03L0.331253 617.533V442.464V442.467ZM43.3676 662.169H0.331253V619.133L43.3676 662.169ZM0.331253 751.166H43.3676L0.331253 794.202V751.166ZM44.3051 751.166H220.035L176.531 794.669H0.798319L44.3017 751.166H44.3051ZM177.469 794.669L264.671 707.467V794.669H177.469ZM309.171 750.364L265.473 706.666L265.337 706.53V662.831H309.036L309.171 662.967L309.307 662.831H353.006V706.53L309.171 750.364ZM353.669 662.831H396.705L353.669 705.867V662.831ZM397.835 706.997H441.533L485.368 750.831L441.533 794.665H397.835V706.994V706.997ZM442.471 794.669L485.974 751.166H574.035L617.538 794.669H442.468H442.471ZM619.138 794.669L662.174 751.633V794.669H619.138ZM662.837 662.831H705.873L662.837 705.867V662.831ZM662.973 706.666L706.34 663.298V750.033L662.973 706.666ZM750.506 794.198L707.003 750.695V663.298L750.506 706.801V794.198ZM794.672 750.033L707.47 662.831H794.672V750.033ZM794.672 661.702L751.636 618.666H794.672V661.702ZM750.973 618.003L707.138 574.169L750.973 530.335H794.672V618.007H750.973V618.003ZM794.672 529.669H751.636L794.672 486.633V529.669ZM707.47 397.831H794.672V485.033L707.47 397.831ZM662.833 396.698V353.662H705.87L662.833 396.698ZM706.532 353H662.833V265.328H706.532L706.668 265.464L750.367 309.162L706.532 352.997V353ZM662.833 264.665V221.629L705.87 264.665H662.833ZM706.668 264.53L663.301 221.162H750.036L706.668 264.53ZM794.202 176.997L750.698 220.5H663.301L706.804 176.997H794.202ZM662.83 220.033V132.831H750.032L662.83 220.033Z" fill="url(#paint1_radial_15737_52917)"/>
<g opacity="0.1" filter="url(#filter1_f_15737_52917)">
<rect x="1399" y="50" width="520.56" height="497.297" rx="248.648" fill="#FEA757"/>
</g>
<g opacity="0.07" filter="url(#filter2_f_15737_52917)">
<rect x="880" y="193" width="340" height="325" rx="162.5" fill="#F9CB54"/>
</g>
</g>
<defs>
<filter id="filter0_f_15737_52917" x="-68" y="-74" width="762" height="746" filterUnits="userSpaceOnUse" color-interpolation-filters="sRGB">
<feFlood flood-opacity="0" result="BackgroundImageFix"/>
<feBlend mode="normal" in="SourceGraphic" in2="BackgroundImageFix" result="shape"/>
<feGaussianBlur stdDeviation="100" result="effect1_foregroundBlur_15737_52917"/>
</filter>
<filter id="filter1_f_15737_52917" x="1199" y="-150" width="920.559" height="897.297" filterUnits="userSpaceOnUse" color-interpolation-filters="sRGB">
<feFlood flood-opacity="0" result="BackgroundImageFix"/>
<feBlend mode="normal" in="SourceGraphic" in2="BackgroundImageFix" result="shape"/>
<feGaussianBlur stdDeviation="100" result="effect1_foregroundBlur_15737_52917"/>
</filter>
<filter id="filter2_f_15737_52917" x="680" y="-7" width="740" height="725" filterUnits="userSpaceOnUse" color-interpolation-filters="sRGB">
<feFlood flood-opacity="0" result="BackgroundImageFix"/>
<feBlend mode="normal" in="SourceGraphic" in2="BackgroundImageFix" result="shape"/>
<feGaussianBlur stdDeviation="100" result="effect1_foregroundBlur_15737_52917"/>
</filter>
<radialGradient id="paint0_radial_15737_52917" cx="0" cy="0" r="1" gradientUnits="userSpaceOnUse" gradientTransform="translate(1506.73 397.5) scale(309.647 309.644)">
<stop/>
<stop offset="0.21"/>
<stop offset="0.43"/>
<stop offset="1" stop-opacity="0"/>
</radialGradient>
<radialGradient id="paint1_radial_15737_52917" cx="0" cy="0" r="1" gradientUnits="userSpaceOnUse" gradientTransform="translate(385.731 397.5) scale(309.647 309.644)">
<stop/>
<stop offset="0.21"/>
<stop offset="0.43"/>
<stop offset="1" stop-opacity="0"/>
</radialGradient>
</defs>
</svg>
