<svg width="1920" height="909" viewBox="0 0 1920 909" fill="none" xmlns="http://www.w3.org/2000/svg">
<g opacity="0.08" filter="url(#filter0_f_14645_57627)">
<rect x="132" y="240" width="362" height="346" rx="173" fill="#3FCD82"/>
</g>
<g style="mix-blend-mode:overlay">
<path d="M1915.68 114V245.702L1872.17 202.199V114H1871.37L1871.51 114.136V201.533L1828.01 158.03V114H1827.34V158.03L1783.84 201.533V114H1518.18V158.03L1474.67 201.533V114H1473.87L1430.51 157.367V114H1429.84V158.03L1386.34 201.533V114H1121V246.831H1252.7L1209.2 290.334H1121V291.133L1121.14 290.997H1208.53L1165.03 334.5H1121V335.162H1165.03L1208.53 378.665H1121V379.328H1208.53L1165.03 422.831H1121V423.493H1164.37L1121 466.864V467.662H1208.53L1165.03 511.165H1121V908.997H1386.33V821.464L1429.84 864.967V908.997H1430.5V864.967L1474 821.464V908.861L1473.87 908.997H1474.67V820.801L1518.17 777.298V909H1783.83V864.97L1783.97 864.834L1783.83 864.699V821.467L1827.34 864.97V909H1828V865.633L1871.37 909H1872.17V821.467L1915.67 864.97V909H1916V511.169H1784.3L1827.8 467.666H1916V466.867L1915.86 467.003H1828.46L1871.97 423.5H1916V422.838H1871.97L1828.46 379.335H1916V378.672H1828.46L1871.97 335.169H1916V334.507H1872.63L1916 291.139V290.341H1828.46L1871.97 246.838H1916V114H1915.67H1915.68ZM1827.67 158.636L1871.51 202.47V246.169H1783.83V202.47L1827.67 158.636H1827.67ZM1872.17 203.133L1915.21 246.169H1872.17V203.133ZM1606.97 864.503L1563.47 821H1650.87L1694.37 864.503H1606.97ZM1430.97 776.169L1474.47 732.666H1562.53L1606.04 776.169H1430.97ZM1341.7 864.503H1254.3L1297.8 821H1385.2L1341.7 864.503ZM1165.5 599.97L1209 556.467V643.864L1165.5 687.367V599.97ZM1252.7 511.831L1209.66 554.867V511.831H1252.7ZM1253.83 423.03V334.97L1297.34 291.467V467.199L1253.83 510.702V423.305L1253.97 423.169L1253.83 423.033V423.03ZM1385.2 202.003H1297.81L1254.3 158.5H1341.7L1385.2 202.003ZM1562.81 158.5H1650.21L1606.7 202.003H1519.3L1562.81 158.5ZM1783.37 556L1826.87 599.503H1739.48L1695.97 556H1783.37ZM1738.87 599.834L1695.04 643.669H1651.34V555.997H1695.04L1738.87 599.831V599.834ZM1783.18 820.805V864.036L1695.98 776.835H1783.18V820.533L1783.04 820.669L1783.18 820.805ZM1606.98 776.169L1563.14 732.334L1606.98 688.5H1650.68V776.172H1606.98V776.169ZM1562.54 732.003H1475.14L1518.64 688.5H1606.04L1562.54 732.003ZM1209.47 820.338L1165.97 776.835H1341.04L1297.53 820.338H1209.47ZM1253.17 688.967V776.169H1165.97L1253.17 688.967ZM1518.83 203.133L1561.87 246.169H1518.83V203.133ZM1695.03 202.666L1738.54 246.169H1563.47L1606.97 202.666H1695.03ZM1783.17 334.97V423.03L1739.67 466.533V290.801L1783.17 247.298V334.695L1783.04 334.831L1783.17 334.967V334.97ZM1607.64 687.834L1650.67 644.798V687.834H1607.64ZM1430.97 687.834L1474.47 644.331H1518.83H1650.21L1606.7 687.834H1430.97ZM1342.17 776.169V733.133L1385.2 776.169H1342.17ZM1385.67 776.831V819.867L1342.63 776.831H1385.67ZM1341.51 776.169H1253.83V732.47L1297.67 688.636L1341.5 732.47V776.169H1341.51ZM1342.17 334.97L1385.67 291.467V378.669V466.533L1342.17 423.03V334.97ZM1430.17 246.967L1430.31 246.831H1562.53L1606.04 290.334H1430.3L1386.8 246.831H1430.03L1430.17 246.967H1430.17ZM1695.5 510.698V423.301L1739.01 379.798V467.195L1695.5 510.698ZM1297.34 688.026L1253.84 731.53V556.461L1297.34 599.964V688.023V688.026ZM1296.87 511.828L1253.84 554.864V511.828H1296.87ZM1253.97 555.662L1297.34 512.295V599.03L1253.97 555.662ZM1386.34 511.165V423.964L1429.84 467.467V555.526L1386.34 599.03V511.165ZM1429.38 290.331H1386.34V247.295L1429.38 290.331ZM1386.34 290.994H1430.04L1473.87 334.828L1430.04 378.662H1386.34V290.99V290.994ZM1694.85 423.026L1651.34 466.53V334.967L1651.48 334.831L1651.34 334.695V291.464L1694.85 334.967V423.026ZM1694.85 510.698L1651.48 467.331L1694.85 423.964V510.698ZM1650.68 643.198L1607.18 599.695V423.964L1650.54 467.331L1650.68 467.467V511.165V643.195V643.198ZM1474.48 335.162H1562.54L1606.04 378.665H1562.82L1562.68 378.53L1562.54 378.665H1518.18H1430.98L1474.48 335.162H1474.48ZM1606.51 510.698L1563.01 467.195V379.798L1606.51 423.301V510.698ZM1474.68 423.301L1518.18 379.798V423.026L1518.04 423.162L1518.18 423.298V511.493V555.523L1474.68 599.026V423.295V423.301ZM1517.71 379.328L1474.68 422.364V379.328H1517.71ZM1518.18 556.464V643.665H1430.98L1518.18 556.464ZM1518.84 379.328H1561.88L1518.84 422.364V379.328ZM1562.34 379.795V466.53L1518.98 423.162L1562.34 379.795ZM1563.48 379.328H1606.71L1606.84 379.464L1606.98 379.328H1650.68V466.53L1563.47 379.328H1563.48ZM1607.64 378.665L1650.68 335.629V378.665H1607.64ZM1606.84 378.53L1563.47 335.162H1650.21L1606.84 378.53ZM1474.01 379.328V423.026L1430.17 466.861L1386.34 423.026V379.328H1474.01H1474.01ZM1430.51 467.467L1474.01 423.964V511.361L1430.51 554.864V467.467ZM1474.01 512.295V599.692L1430.51 643.195V555.798L1474.01 512.295ZM1429.84 643.195L1386.48 599.828L1429.84 556.461V643.195ZM1429.38 643.662H1386.34V600.626L1429.38 643.662ZM1518.84 511.493V423.961L1562.34 467.464V555.523L1518.84 599.026V511.493ZM1563.01 468.126L1606.51 511.629V599.026L1563.01 555.523V468.126ZM1650.68 246.825V334.026L1563.48 246.825H1650.68ZM1650.21 334.497H1562.82L1519.31 290.994H1606.71L1650.21 334.497ZM1518.37 290.994L1561.88 334.497H1474.48L1430.98 290.994H1518.37ZM1518.84 599.967L1562.68 556.133L1606.51 599.967V643.665H1518.84V599.967H1518.84ZM1607.18 600.629L1650.21 643.665H1607.18V600.629ZM1651.34 468.129L1694.38 511.165H1651.34V468.129ZM1739.01 378.858L1695.51 422.361V334.964L1739.01 291.461V378.858ZM1695.18 334.361L1651.35 290.526V246.828H1739.02V290.526L1695.18 334.361H1695.18ZM1385.68 289.864L1342.64 246.828H1385.68V289.864ZM1342.18 247.298L1385.55 290.666L1342.18 334.033V247.298ZM1298.01 688.026V600.629L1341.51 644.133V731.53L1298.01 688.026ZM1341.51 643.198L1298.01 599.695V512.298L1341.51 555.801V643.198ZM1298.48 511.828H1385.68V599.03L1298.48 511.828ZM1430.04 644.328L1430.18 644.464L1430.31 644.328H1473.54L1386.34 731.53V644.328H1430.04H1430.04ZM1695.98 511.165L1783.18 423.964V511.165H1695.98ZM1739.68 289.864V246.828H1782.72L1739.68 289.864ZM1562.68 246.03L1519.31 202.662H1606.05L1562.68 246.03ZM1342.65 246.165L1385.68 203.129V246.165H1342.65ZM1341.85 246.03L1298.48 202.662H1385.22L1341.85 246.03ZM1341.05 246.828L1253.85 334.03V246.828H1341.05ZM1341.52 247.295V334.692L1298.01 378.195V290.798L1341.52 247.295ZM1298.01 379.133L1341.52 335.629V423.026L1298.01 466.53V379.133ZM1341.85 423.629L1385.68 467.464V511.162H1298.01V467.464L1341.85 423.629H1341.85ZM1297.35 511.162H1254.32L1297.35 468.126V511.162ZM1341.85 776.96L1385.22 820.328H1298.48L1341.85 776.96ZM1342.18 732.189V556.461L1385.55 599.828L1385.68 599.964V644.325V732.189L1385.55 732.325L1385.68 732.46V775.692L1342.18 732.189ZM1386.82 731.993L1430.32 688.49H1517.72L1474.21 731.993H1386.82ZM1473.55 732.656L1430.18 776.023L1386.82 732.656H1473.55ZM1651.35 776.159V688.957L1738.55 776.159H1651.35ZM1651.82 688.487H1739.22L1782.72 731.99H1695.32L1651.82 688.487ZM1651.82 687.824L1695.19 644.457L1738.55 687.824H1651.82ZM1651.35 687.357V644.321H1694.39L1651.35 687.357ZM1651.35 555.324V512.288L1694.39 555.324H1651.35ZM1783.17 157.834H1740.14L1783.17 114.798V157.834ZM1783.17 158.497V246.169H1739.48L1695.64 202.334L1739.48 158.5H1783.17V158.497ZM1695.03 202H1607.64L1651.14 158.497H1738.54L1695.03 202ZM1386.33 246.165V203.129L1429.37 246.165H1386.33ZM1253.37 158.497L1296.87 202H1209.47L1165.97 158.497H1253.37ZM1209.47 202.662H1297.53L1341.03 246.165H1165.97L1209.47 202.662ZM1253.17 512.298V555.53L1253.03 555.666L1253.17 555.801V688.026L1209.67 731.53V555.798L1253.17 512.295V512.298ZM1209 644.798V732.195L1165.5 775.698V688.301L1209 644.798ZM1164.84 775.698L1121.47 732.334L1164.83 688.967V775.702L1164.84 775.698ZM1208.87 820.666L1165.03 864.5H1121.33V776.828H1165.03L1208.86 820.662L1208.87 820.666ZM1209.47 820.997H1296.87L1253.37 864.5H1165.97L1209.47 820.997H1209.47ZM1386.34 733.133L1429.37 776.169H1386.34V733.133ZM1518.84 777.298L1561.87 820.334H1518.84V777.298ZM1519.3 776.831H1650.68H1695.04L1738.54 820.334H1562.81L1519.31 776.831H1519.3ZM1651.81 820.997H1739.2L1782.71 864.5H1695.31L1651.81 820.997ZM1782.71 865.162L1739.34 908.53L1695.97 865.162H1782.71ZM1827.81 776.165L1827.67 776.03L1827.54 776.165H1739.48L1695.98 732.662H1871.71L1915.21 776.165H1827.81H1827.81ZM1783.64 732L1740.14 688.497H1827.54L1871.04 732H1783.64ZM1827.54 687.834H1739.48L1695.98 644.331H1871.04L1827.54 687.834ZM1695.98 643.669L1739.48 600.166H1827.54L1871.04 643.669H1695.97H1695.98ZM1828.48 600.166H1915.21L1871.84 643.533L1828.48 600.166ZM1827.81 599.503L1784.31 556H1871.71L1915.21 599.503H1827.81ZM1695.31 555.338L1651.81 511.835H1695.04L1695.18 511.97L1695.31 511.835H1827.54L1871.04 555.338H1695.31ZM1739.21 157.838H1563.47L1606.97 114.331H1782.71L1739.2 157.834L1739.21 157.838ZM1606.04 114.331L1518.83 201.533V114.331H1606.04ZM1518.17 202.195L1518.04 202.331L1518.17 202.467V246.165H1430.97L1518.17 158.964V202.195ZM1474.01 114.798V202.195L1430.5 245.698V158.305L1474.01 114.798ZM1429.84 158.964V245.698L1386.47 202.331L1429.84 158.964ZM1385.67 114.331V201.533L1298.47 114.331H1385.67ZM1297.53 114.331L1341.03 157.834H1165.31L1121.8 114.331H1297.53H1297.53ZM1164.37 157.834H1121.33V114.798L1164.37 157.834ZM1121.33 158.497H1165.03L1208.86 202.331L1165.03 246.165H1121.33V158.497ZM1253.17 247.298V290.334H1210.13L1253.17 247.298ZM1209.47 290.997H1253.17V378.669H1209.47L1209.34 378.533L1165.64 334.834L1209.47 291V290.997ZM1253.17 379.331V422.367L1210.13 379.331H1253.17ZM1209.34 379.467L1252.7 422.834H1165.97L1209.34 379.467ZM1121.8 467.003L1165.3 423.5H1252.7L1209.2 467.003H1121.8ZM1253.17 423.967V511.169H1165.97L1253.17 423.967ZM1209 511.831V555.53L1165.17 599.364L1121.33 555.53V511.831H1209ZM1121.33 556.467L1164.83 599.97V688.03L1121.33 731.533V556.464V556.467ZM1164.37 776.169H1121.33V733.133L1164.37 776.169ZM1121.33 865.166H1164.37L1121.33 908.202V865.166ZM1165.31 865.166H1341.03L1297.53 908.669H1121.8L1165.3 865.166H1165.31ZM1298.47 908.669L1385.67 821.467V908.669H1298.47ZM1430.17 864.364L1386.47 820.666L1386.34 820.53V776.831H1430.04L1430.17 776.967L1430.31 776.831H1474.01V820.53L1430.17 864.364ZM1474.67 776.831H1517.7L1474.67 819.867V776.831ZM1518.83 820.997H1562.53L1606.37 864.831L1562.53 908.665H1518.83V820.994V820.997ZM1563.47 908.669L1606.97 865.166H1695.03L1738.54 908.669H1563.47H1563.47ZM1740.14 908.669L1783.17 865.633V908.669H1740.14ZM1783.84 776.831H1826.87L1783.84 819.867V776.831ZM1783.97 820.666L1827.34 777.298V864.033L1783.97 820.666ZM1871.51 908.198L1828 864.695V777.298L1871.51 820.801V908.198ZM1915.67 864.033L1828.47 776.831H1915.67V864.033ZM1915.67 775.702L1872.64 732.666H1915.67V775.702ZM1871.97 732.003L1828.14 688.169L1871.97 644.335H1915.67V732.007H1871.97V732.003ZM1915.67 643.669H1872.64L1915.67 600.633V643.669ZM1828.47 511.831H1915.67V599.033L1828.47 511.831ZM1783.83 510.698V467.662H1826.87L1783.83 510.698ZM1827.53 467H1783.83V379.328H1827.53L1827.67 379.464L1871.37 423.162L1827.53 466.997V467ZM1783.83 378.665V335.629L1826.87 378.665H1783.83ZM1827.67 378.53L1784.3 335.162H1871.04L1827.67 378.53ZM1915.2 290.997L1871.7 334.5H1784.3L1827.8 290.997H1915.2ZM1783.83 334.033V246.831H1871.03L1783.83 334.033Z" fill="url(#paint0_radial_14645_57627)"/>
</g>
<g style="mix-blend-mode:overlay">
<path d="M794.675 114V245.702L751.172 202.199V114H750.374L750.509 114.136V201.533L707.006 158.03V114H706.344V158.03L662.84 201.533V114H397.175V158.03L353.672 201.533V114H352.874L309.506 157.367V114H308.844V158.03L265.34 201.533V114H0V246.831H131.703L88.1994 290.334H0V291.133L0.135814 290.997H87.5335L44.0301 334.5H0V335.162H44.0301L87.5335 378.665H0V379.328H87.5335L44.0301 422.831H0V423.493H43.3676L0 466.864V467.662H87.5335L44.0301 511.165H0V908.997H265.333V821.464L308.837 864.967V908.997H309.499V864.967L353.003 821.464V908.861L352.867 908.997H353.665V820.801L397.169 777.298V909H662.833V864.97L662.969 864.834L662.833 864.699V821.467L706.337 864.97V909H706.999V865.633L750.367 909H751.165V821.467L794.669 864.97V909H795V511.169H663.297L706.801 467.666H794.997V466.867L794.861 467.003H707.463L750.967 423.5H794.997V422.838H750.967L707.463 379.335H794.997V378.672H707.463L750.967 335.169H794.997V334.507H751.629L794.997 291.139V290.341H707.463L750.967 246.838H794.997V114H794.665H794.675ZM706.671 158.636L750.506 202.47V246.169H662.833V202.47L706.668 158.636H706.671ZM751.169 203.133L794.205 246.169H751.169V203.133ZM485.974 864.503L442.471 821H529.869L573.372 864.503H485.974ZM309.97 776.169L353.473 732.666H441.533L485.037 776.169H309.97ZM220.697 864.503H133.299L176.803 821H264.201L220.697 864.503ZM44.4972 599.97L88.0006 556.467V643.864L44.4972 687.367V599.97ZM131.699 511.831L88.6631 554.867V511.831H131.699ZM132.832 423.03V334.97L176.336 291.467V467.199L132.832 510.702V423.305L132.968 423.169L132.832 423.033V423.03ZM264.204 202.003H176.806L133.303 158.5H220.7L264.204 202.003ZM441.808 158.5H529.206L485.703 202.003H398.305L441.808 158.5ZM662.37 556L705.873 599.503H618.475L574.972 556H662.37ZM617.872 599.834L574.038 643.669H530.339V555.997H574.038L617.872 599.831V599.834ZM662.178 820.805V864.036L574.975 776.835H662.178V820.533L662.042 820.669L662.178 820.805ZM485.978 776.169L442.143 732.334L485.978 688.5H529.676V776.172H485.978V776.169ZM441.537 732.003H354.139L397.642 688.5H485.04L441.537 732.003ZM88.4743 820.338L44.9709 776.835H220.038L176.535 820.338H88.4743ZM132.173 688.967V776.169H44.9709L132.173 688.967ZM397.835 203.133L440.871 246.169H397.835V203.133ZM574.035 202.666L617.538 246.169H442.471L485.974 202.666H574.035ZM662.174 334.97V423.03L618.671 466.533V290.801L662.174 247.298V334.695L662.038 334.831L662.174 334.967V334.97ZM486.637 687.834L529.673 644.798V687.834H486.637ZM309.97 687.834L353.473 644.331H397.835H529.206L485.703 687.834H309.97ZM221.168 776.169V733.133L264.204 776.169H221.168ZM264.671 776.831V819.867L221.635 776.831H264.671ZM220.505 776.169H132.832V732.47L176.667 688.636L220.502 732.47V776.169H220.505ZM221.168 334.97L264.671 291.467V378.669V466.533L221.168 423.03V334.97ZM309.171 246.967L309.307 246.831H441.533L485.037 290.334H309.304L265.801 246.831H309.032L309.168 246.967H309.171ZM574.505 510.698V423.301L618.008 379.798V467.195L574.505 510.698ZM176.339 688.026L132.836 731.53V556.461L176.339 599.964V688.023V688.026ZM175.872 511.828L132.836 554.864V511.828H175.872ZM132.975 555.662L176.342 512.295V599.03L132.975 555.662ZM265.34 511.165V423.964L308.844 467.467V555.526L265.34 599.03V511.165ZM308.376 290.331H265.34V247.295L308.376 290.331ZM265.34 290.994H309.039L352.874 334.828L309.039 378.662H265.34V290.99V290.994ZM573.846 423.026L530.342 466.53V334.967L530.478 334.831L530.342 334.695V291.464L573.846 334.967V423.026ZM573.846 510.698L530.478 467.331L573.846 423.964V510.698ZM529.68 643.198L486.176 599.695V423.964L529.544 467.331L529.68 467.467V511.165V643.195V643.198ZM353.48 335.162H441.54L485.043 378.665H441.815L441.679 378.53L441.543 378.665H397.182H309.98L353.483 335.162H353.48ZM485.514 510.698L442.01 467.195V379.798L485.514 423.301V510.698ZM353.675 423.301L397.179 379.798V423.026L397.043 423.162L397.179 423.298V511.493V555.523L353.675 599.026V423.295V423.301ZM396.712 379.328L353.675 422.364V379.328H396.712ZM397.179 556.464V643.665H309.976L397.179 556.464ZM397.841 379.328H440.878L397.841 422.364V379.328ZM441.345 379.795V466.53L397.977 423.162L441.345 379.795ZM442.478 379.328H485.706L485.842 379.464L485.978 379.328H529.676V466.53L442.474 379.328H442.478ZM486.643 378.665L529.68 335.629V378.665H486.643ZM485.842 378.53L442.474 335.162H529.209L485.842 378.53ZM353.009 379.328V423.026L309.175 466.861L265.34 423.026V379.328H353.013H353.009ZM309.506 467.467L353.009 423.964V511.361L309.506 554.864V467.467ZM353.009 512.295V599.692L309.506 643.195V555.798L353.009 512.295ZM308.844 643.195L265.476 599.828L308.844 556.461V643.195ZM308.376 643.662H265.34V600.626L308.376 643.662ZM397.841 511.493V423.961L441.345 467.464V555.523L397.841 599.026V511.493ZM442.007 468.126L485.511 511.629V599.026L442.007 555.523V468.126ZM529.68 246.825V334.026L442.478 246.825H529.68ZM529.213 334.497H441.815L398.312 290.994H485.709L529.213 334.497ZM397.374 290.994L440.878 334.497H353.48L309.976 290.994H397.374ZM397.841 599.967L441.676 556.133L485.511 599.967V643.665H397.838V599.967H397.841ZM486.176 600.629L529.213 643.665H486.176V600.629ZM530.342 468.129L573.379 511.165H530.342V468.129ZM618.015 378.858L574.512 422.361V334.964L618.015 291.461V378.858ZM574.18 334.361L530.346 290.526V246.828H618.018V290.526L574.184 334.361H574.18ZM264.681 289.864L221.645 246.828H264.681V289.864ZM221.177 247.298L264.545 290.666L221.177 334.033V247.298ZM177.012 688.026V600.629L220.515 644.133V731.53L177.012 688.026ZM220.515 643.198L177.012 599.695V512.298L220.515 555.801V643.198ZM177.479 511.828H264.681V599.03L177.479 511.828ZM309.042 644.328L309.178 644.464L309.314 644.328H352.542L265.34 731.53V644.328H309.039H309.042ZM574.982 511.165L662.184 423.964V511.165H574.982ZM618.681 289.864V246.828H661.717L618.681 289.864ZM441.682 246.03L398.315 202.662H485.05L441.682 246.03ZM221.648 246.165L264.684 203.129V246.165H221.648ZM220.85 246.03L177.482 202.662H264.217L220.85 246.03ZM220.051 246.828L132.849 334.03V246.828H220.051ZM220.518 247.295V334.692L177.015 378.195V290.798L220.518 247.295ZM177.015 379.133L220.518 335.629V423.026L177.015 466.53V379.133ZM220.85 423.629L264.684 467.464V511.162H177.012V467.464L220.846 423.629H220.85ZM176.352 511.162H133.316L176.352 468.126V511.162ZM220.85 776.96L264.217 820.328H177.482L220.85 776.96ZM221.181 732.189V556.461L264.548 599.828L264.684 599.964V644.325V732.189L264.548 732.325L264.684 732.46V775.692L221.181 732.189ZM265.817 731.993L309.32 688.49H396.718L353.215 731.993H265.817ZM352.552 732.656L309.185 776.023L265.817 732.656H352.552ZM530.352 776.159V688.957L617.555 776.159H530.352ZM530.819 688.487H618.217L661.72 731.99H574.323L530.819 688.487ZM530.819 687.824L574.187 644.457L617.555 687.824H530.819ZM530.352 687.357V644.321H573.389L530.352 687.357ZM530.352 555.324V512.288L573.389 555.324H530.352ZM662.174 157.834H619.138L662.174 114.798V157.834ZM662.174 158.497V246.169H618.475L574.641 202.334L618.475 158.5H662.174V158.497ZM574.035 202H486.637L530.14 158.497H617.538L574.035 202ZM265.333 246.165V203.129L308.37 246.165H265.333ZM132.365 158.497L175.869 202H88.471L44.9676 158.497H132.365ZM88.471 202.662H176.531L220.035 246.165H44.9676L88.471 202.662ZM132.17 512.298V555.53L132.034 555.666L132.17 555.801V688.026L88.6664 731.53V555.798L132.17 512.295V512.298ZM88.0039 644.798V732.195L44.5005 775.698V688.301L88.0039 644.798ZM43.838 775.698L0.467066 732.334L43.8347 688.967V775.702L43.838 775.698ZM87.8681 820.666L44.0334 864.5H0.331253V776.828H44.0301L87.8648 820.662L87.8681 820.666ZM88.4743 820.997H175.872L132.369 864.5H44.9676L88.471 820.997H88.4743ZM265.337 733.133L308.373 776.169H265.337V733.133ZM397.838 777.298L440.874 820.334H397.838V777.298ZM398.305 776.831H529.676H574.038L617.541 820.334H441.812L398.308 776.831H398.305ZM530.806 820.997H618.204L661.707 864.5H574.309L530.806 820.997ZM661.707 865.162L618.34 908.53L574.972 865.162H661.707ZM706.811 776.165L706.675 776.03L706.539 776.165H618.479L574.975 732.662H750.708L794.212 776.165H706.814H706.811ZM662.645 732L619.141 688.497H706.539L750.042 732H662.645ZM706.539 687.834H618.479L574.975 644.331H750.042L706.539 687.834ZM574.975 643.669L618.479 600.166H706.539L750.042 643.669H574.972H574.975ZM707.476 600.166H794.212L750.844 643.533L707.476 600.166ZM706.814 599.503L663.31 556H750.708L794.212 599.503H706.814ZM574.313 555.338L530.809 511.835H574.041L574.177 511.97L574.313 511.835H706.539L750.042 555.338H574.313ZM618.207 157.838H442.474L485.974 114.331H661.707L618.204 157.834L618.207 157.838ZM485.037 114.331L397.835 201.533V114.331H485.037ZM397.172 202.195L397.036 202.331L397.172 202.467V246.165H309.97L397.172 158.964V202.195ZM353.006 114.798V202.195L309.503 245.698V158.305L353.006 114.798ZM308.84 158.964V245.698L265.473 202.331L308.84 158.964ZM264.671 114.331V201.533L177.469 114.331H264.671ZM176.531 114.331L220.035 157.834H44.3051L0.798319 114.331H176.528H176.531ZM43.3676 157.834H0.331253V114.798L43.3676 157.834ZM0.331253 158.497H44.0301L87.8648 202.331L44.0301 246.165H0.331253V158.497ZM132.17 247.298V290.334H89.1335L132.17 247.298ZM88.471 290.997H132.17V378.669H88.471L88.3352 378.533L44.6363 334.834L88.471 291V290.997ZM132.17 379.331V422.367L89.1335 379.331H132.17ZM88.3352 379.467L131.703 422.834H44.9676L88.3352 379.467ZM0.798319 467.003L44.3017 423.5H131.699L88.196 467.003H0.798319ZM132.17 423.967V511.169H44.9676L132.17 423.967ZM88.0039 511.831V555.53L44.1692 599.364L0.331253 555.53V511.831H88.0039ZM0.331253 556.467L43.8347 599.97V688.03L0.331253 731.533V556.464V556.467ZM43.3676 776.169H0.331253V733.133L43.3676 776.169ZM0.331253 865.166H43.3676L0.331253 908.202V865.166ZM44.3051 865.166H220.035L176.531 908.669H0.798319L44.3017 865.166H44.3051ZM177.469 908.669L264.671 821.467V908.669H177.469ZM309.171 864.364L265.473 820.666L265.337 820.53V776.831H309.036L309.171 776.967L309.307 776.831H353.006V820.53L309.171 864.364ZM353.669 776.831H396.705L353.669 819.867V776.831ZM397.835 820.997H441.533L485.368 864.831L441.533 908.665H397.835V820.994V820.997ZM442.471 908.669L485.974 865.166H574.035L617.538 908.669H442.468H442.471ZM619.138 908.669L662.174 865.633V908.669H619.138ZM662.837 776.831H705.873L662.837 819.867V776.831ZM662.973 820.666L706.34 777.298V864.033L662.973 820.666ZM750.506 908.198L707.003 864.695V777.298L750.506 820.801V908.198ZM794.672 864.033L707.47 776.831H794.672V864.033ZM794.672 775.702L751.636 732.666H794.672V775.702ZM750.973 732.003L707.138 688.169L750.973 644.335H794.672V732.007H750.973V732.003ZM794.672 643.669H751.636L794.672 600.633V643.669ZM707.47 511.831H794.672V599.033L707.47 511.831ZM662.833 510.698V467.662H705.87L662.833 510.698ZM706.532 467H662.833V379.328H706.532L706.668 379.464L750.367 423.162L706.532 466.997V467ZM662.833 378.665V335.629L705.87 378.665H662.833ZM706.668 378.53L663.301 335.162H750.036L706.668 378.53ZM794.202 290.997L750.698 334.5H663.301L706.804 290.997H794.202ZM662.83 334.033V246.831H750.032L662.83 334.033Z" fill="url(#paint1_radial_14645_57627)"/>
</g>
<g opacity="0.1" filter="url(#filter1_f_14645_57627)">
<rect x="1399" y="164" width="520.56" height="497.297" rx="248.648" fill="#FEA757"/>
</g>
<g opacity="0.07" filter="url(#filter2_f_14645_57627)">
<rect x="880" y="307" width="340" height="325" rx="162.5" fill="#F9CB54"/>
</g>
<defs>
<filter id="filter0_f_14645_57627" x="-68" y="40" width="762" height="746" filterUnits="userSpaceOnUse" color-interpolation-filters="sRGB">
<feFlood flood-opacity="0" result="BackgroundImageFix"/>
<feBlend mode="normal" in="SourceGraphic" in2="BackgroundImageFix" result="shape"/>
<feGaussianBlur stdDeviation="100" result="effect1_foregroundBlur_14645_57627"/>
</filter>
<filter id="filter1_f_14645_57627" x="1199" y="-36" width="920.559" height="897.297" filterUnits="userSpaceOnUse" color-interpolation-filters="sRGB">
<feFlood flood-opacity="0" result="BackgroundImageFix"/>
<feBlend mode="normal" in="SourceGraphic" in2="BackgroundImageFix" result="shape"/>
<feGaussianBlur stdDeviation="100" result="effect1_foregroundBlur_14645_57627"/>
</filter>
<filter id="filter2_f_14645_57627" x="680" y="107" width="740" height="725" filterUnits="userSpaceOnUse" color-interpolation-filters="sRGB">
<feFlood flood-opacity="0" result="BackgroundImageFix"/>
<feBlend mode="normal" in="SourceGraphic" in2="BackgroundImageFix" result="shape"/>
<feGaussianBlur stdDeviation="100" result="effect1_foregroundBlur_14645_57627"/>
</filter>
<radialGradient id="paint0_radial_14645_57627" cx="0" cy="0" r="1" gradientUnits="userSpaceOnUse" gradientTransform="translate(1506.73 511.5) scale(309.647 309.644)">
<stop/>
<stop offset="0.21"/>
<stop offset="0.43"/>
<stop offset="1" stop-opacity="0"/>
</radialGradient>
<radialGradient id="paint1_radial_14645_57627" cx="0" cy="0" r="1" gradientUnits="userSpaceOnUse" gradientTransform="translate(385.731 511.5) scale(309.647 309.644)">
<stop/>
<stop offset="0.21"/>
<stop offset="0.43"/>
<stop offset="1" stop-opacity="0"/>
</radialGradient>
</defs>
</svg>
