<svg width="406" height="302" viewBox="0 0 406 302" fill="none" xmlns="http://www.w3.org/2000/svg">
<mask id="mask0_15153_51484" style="mask-type:alpha" maskUnits="userSpaceOnUse" x="0" y="0" width="406" height="302">
<rect width="405.823" height="301.875" fill="#D9D9D9"/>
</mask>
<g mask="url(#mask0_15153_51484)">
<g opacity="0.5">
<mask id="path-2-inside-1_15153_51484" fill="white">
<path d="M389.979 202.565C391.995 156.308 377.371 110.86 348.759 74.4588C320.146 38.0574 279.439 13.1119 234.015 4.14415C188.592 -4.82363 141.458 2.77982 101.159 25.5762C60.859 48.3727 30.0607 84.8533 14.3462 128.405L15.1858 128.708C30.8279 85.357 61.4843 49.0446 101.598 26.3532C141.712 3.66186 188.628 -3.90654 233.842 5.0199C279.057 13.9463 319.576 38.7768 348.057 75.0104C376.537 111.244 391.094 156.483 389.087 202.526L389.979 202.565Z"/>
</mask>
<path d="M389.979 202.565C391.995 156.308 377.371 110.86 348.759 74.4588C320.146 38.0574 279.439 13.1119 234.015 4.14415C188.592 -4.82363 141.458 2.77982 101.159 25.5762C60.859 48.3727 30.0607 84.8533 14.3462 128.405L15.1858 128.708C30.8279 85.357 61.4843 49.0446 101.598 26.3532C141.712 3.66186 188.628 -3.90654 233.842 5.0199C279.057 13.9463 319.576 38.7768 348.057 75.0104C376.537 111.244 391.094 156.483 389.087 202.526L389.979 202.565Z" stroke="url(#paint0_linear_15153_51484)" stroke-width="2.84788" stroke-dasharray="4.27 4.27" mask="url(#path-2-inside-1_15153_51484)"/>
</g>
<g opacity="0.5">
<mask id="path-3-inside-2_15153_51484" fill="white">
<path d="M14.6043 260.573C30.4892 304.064 61.4301 340.423 101.819 363.062C142.207 385.7 189.37 393.119 234.758 383.974C280.146 374.828 320.756 349.724 349.225 313.211C377.695 276.697 392.141 231.193 389.944 184.944L389.052 184.987C391.239 231.022 376.86 276.317 348.521 312.662C320.183 349.006 279.761 373.995 234.582 383.099C189.403 392.202 142.457 384.817 102.255 362.283C62.0527 339.749 31.2544 303.557 15.4428 260.267L14.6043 260.573Z"/>
</mask>
<path d="M14.6043 260.573C30.4892 304.064 61.4301 340.423 101.819 363.062C142.207 385.7 189.37 393.119 234.758 383.974C280.146 374.828 320.756 349.724 349.225 313.211C377.695 276.697 392.141 231.193 389.944 184.944L389.052 184.987C391.239 231.022 376.86 276.317 348.521 312.662C320.183 349.006 279.761 373.995 234.582 383.099C189.403 392.202 142.457 384.817 102.255 362.283C62.0527 339.749 31.2544 303.557 15.4428 260.267L14.6043 260.573Z" stroke="url(#paint1_linear_15153_51484)" stroke-width="2.84788" stroke-dasharray="4.27 4.27" mask="url(#path-3-inside-2_15153_51484)"/>
</g>
<circle opacity="0.08" cx="196.502" cy="194.132" r="170.873" fill="url(#paint2_linear_15153_51484)"/>
<circle opacity="0.1" cx="196.505" cy="194.132" r="136.698" fill="url(#paint3_linear_15153_51484)"/>
<circle cx="196.503" cy="194.134" r="91.1321" fill="white"/>
<g filter="url(#filter0_d_15153_51484)">
<circle cx="15.3224" cy="125.091" r="7.11969" transform="rotate(-2.50406 15.3224 125.091)" fill="#0170FF"/>
<circle cx="15.3224" cy="125.091" r="8.13822" transform="rotate(-2.50406 15.3224 125.091)" stroke="white" stroke-width="2.03704"/>
</g>
<g filter="url(#filter1_d_15153_51484)">
<circle cx="389.995" cy="182.518" r="7.11969" transform="rotate(-15.7345 389.995 182.518)" fill="#0170FF"/>
<circle cx="389.995" cy="182.518" r="8.13822" transform="rotate(-15.7345 389.995 182.518)" stroke="white" stroke-width="2.03704"/>
</g>
</g>
<path d="M351.307 290.379L66.3107 289.041C66.1206 289.041 65.9383 288.966 65.8038 288.831C65.6693 288.697 65.5938 288.515 65.5938 288.324C65.5938 288.134 65.6693 287.952 65.8038 287.817C65.9383 287.683 66.1206 287.607 66.3107 287.607L351.307 288.945C351.497 288.945 351.68 289.02 351.814 289.155C351.949 289.289 352.024 289.471 352.024 289.662C352.024 289.852 351.949 290.034 351.814 290.168C351.68 290.303 351.497 290.379 351.307 290.379Z" fill="black"/>
<path d="M73.5272 296.394H31.5377C31.3951 296.394 31.2584 296.337 31.1575 296.236C31.0567 296.135 31 295.999 31 295.856C31 295.713 31.0567 295.577 31.1575 295.476C31.2584 295.375 31.3951 295.318 31.5377 295.318H73.5345C73.6771 295.318 73.8139 295.375 73.9147 295.476C74.0156 295.577 74.0723 295.713 74.0723 295.856C74.0723 295.999 74.0156 296.135 73.9147 296.236C73.8139 296.337 73.6771 296.394 73.5345 296.394H73.5272Z" fill="black"/>
<path d="M372.152 300.001H330.155C330.012 300.001 329.876 299.945 329.775 299.844C329.674 299.743 329.617 299.606 329.617 299.464C329.617 299.321 329.674 299.184 329.775 299.083C329.876 298.982 330.012 298.926 330.155 298.926H372.152C372.294 298.926 372.431 298.982 372.532 299.083C372.633 299.184 372.689 299.321 372.689 299.464C372.689 299.606 372.633 299.743 372.532 299.844C372.431 299.945 372.294 300.001 372.152 300.001V300.001Z" fill="black"/>
<path d="M145.324 84.5195C145.324 84.5195 143.194 101.218 131.511 97.0844C119.828 92.9511 101.151 87.6311 93.3112 104.889C85.4712 122.146 81.7644 134.374 68.4574 133.349C55.1504 132.324 36.5521 171.707 71.6837 184.655C129.203 205.892 176.462 102.318 176.462 102.318L166.385 92.5568L145.324 84.5195Z" fill="#382256"/>
<path d="M145.324 84.5192L166.368 92.5564L176.444 102.318C176.444 102.318 137.57 187.527 87.4145 187.527C82.0361 187.516 76.703 186.545 71.6663 184.659C37.0186 171.868 54.6845 133.331 67.9449 133.331C68.117 133.331 68.3036 133.331 68.4578 133.352C68.9811 133.392 69.4866 133.413 69.9813 133.413C82.0587 133.413 85.7798 121.472 93.3116 104.892C97.4665 95.7433 104.665 92.94 112.254 92.94C118.983 92.94 126.02 95.1446 131.512 97.0876C132.639 97.5055 133.83 97.7274 135.032 97.7437C143.636 97.7437 145.324 84.5228 145.324 84.5228V84.5192ZM145.324 83.4473C145.061 83.4452 144.806 83.5396 144.608 83.7127C144.41 83.8858 144.282 84.1255 144.249 84.3865C144.227 84.5514 142.564 96.6682 135.025 96.6682C133.945 96.6512 132.876 96.45 131.863 96.0732C125.98 93.994 119.047 91.8645 112.247 91.8645C102.818 91.8645 96.115 96.0982 92.3258 104.447C91.4618 106.347 90.6515 108.179 89.8665 109.95C83.9084 123.429 79.9722 132.338 69.974 132.338C69.5079 132.338 69.024 132.316 68.54 132.28C68.3429 132.262 68.1421 132.255 67.9449 132.255C64.4461 132.255 60.7072 134.521 57.4091 138.636C54.0703 142.914 51.8345 147.946 50.8989 153.291C49.7339 159.819 50.6194 166.082 53.4658 171.402C56.8606 177.754 62.8618 182.554 71.2934 185.666C76.4536 187.596 81.9162 188.591 87.4253 188.606C99.1048 188.606 111.118 184.053 123.141 175.076C132.688 167.95 142.267 158.02 151.609 145.573C167.482 124.422 177.337 102.981 177.42 102.77C177.512 102.568 177.539 102.342 177.498 102.124C177.457 101.906 177.349 101.705 177.19 101.551L167.113 91.7893C167.012 91.6869 166.889 91.6074 166.755 91.5562L145.712 83.519C145.589 83.4724 145.459 83.4482 145.328 83.4473H145.324Z" fill="black"/>
<path d="M166.368 92.5568L145.325 84.5195C145.325 84.5195 144.274 92.7647 139.589 96.2241L145.884 104.688C145.884 104.688 131.053 111.101 128.648 121.924C126.346 132.273 88.4974 133.467 71.8672 184.731C100.22 195.052 126.063 175.091 144.966 152.238C154.645 130.477 165.819 105.355 169.92 96.0125L166.368 92.5568Z" fill="#050505"/>
<path d="M161.196 114.755C180.435 109.428 286.307 137.72 293.932 148.377C301.557 159.035 255.65 287.036 243.368 287.036C229.337 287.036 128.728 287.036 107.882 287.484C89.5988 287.879 76.2166 238.196 82.2284 226.653C88.2403 215.11 132.735 121.86 147.566 120.086C162.397 118.311 161.196 114.755 161.196 114.755Z" fill="#07ACEE"/>
<path d="M107.669 288.026C102.342 288.026 97.0006 283.95 92.1968 276.225C82.9443 261.337 77.3807 234.798 81.7507 226.395C82.4677 225.001 83.7508 222.452 85.5109 218.906C106.404 176.938 135.563 120.975 147.501 119.545C157.072 118.398 159.71 116.551 160.431 115.551C160.725 115.146 160.679 114.902 160.675 114.892C160.641 114.829 160.624 114.758 160.624 114.687C160.624 114.616 160.641 114.546 160.675 114.483C160.712 114.417 160.764 114.36 160.826 114.317C160.888 114.274 160.959 114.244 161.034 114.232C171.505 111.332 205.826 118.243 232.039 125.044C260.065 132.318 290.203 142.251 294.351 148.059C300.728 156.981 272.938 238.153 255.874 271.328C250.25 282.254 246.152 287.567 243.349 287.567C216.462 287.567 127.2 287.599 107.877 288.015L107.669 288.026ZM161.74 115.171C161.693 115.48 161.579 115.775 161.406 116.035C160.495 117.469 157.362 119.452 147.63 120.62C143.926 121.061 135.62 128.424 117.086 160.975C104.898 182.369 92.9138 206.456 86.4754 219.408C84.7117 222.95 83.4356 225.502 82.7043 226.915C78.8291 234.357 83.2635 259.828 93.1004 275.669C96.3268 280.838 101.431 286.961 107.655 286.961H107.859C127.218 286.546 216.459 286.513 243.367 286.513C244.679 286.513 247.927 284.477 254.935 270.855C263.439 254.325 274.484 226.402 283.073 199.706C292.035 171.812 296.043 152.271 293.494 148.704C290.092 143.943 264.718 134.651 231.788 126.119C206.034 119.412 172.466 112.604 161.74 115.171Z" fill="black"/>
<path d="M284.054 155.36C284.054 155.36 158.189 152.955 154.181 156.963C152.357 158.788 152.177 199.852 150.575 228.714C148.625 263.792 120.91 287.237 120.91 287.237H171.417L284.054 155.36Z" fill="#0598C6"/>
<path d="M172.574 116.889C196.883 104.855 263.744 114.997 295.535 141.966C327.326 168.935 308.362 190.465 300.747 188.863" fill="#07ACEE"/>
<path d="M301.583 189.482C301.265 189.483 300.949 189.451 300.637 189.389C300.568 189.374 300.502 189.346 300.444 189.306C300.385 189.266 300.335 189.215 300.297 189.156C300.258 189.097 300.232 189.03 300.219 188.961C300.206 188.891 300.206 188.82 300.221 188.751C300.236 188.682 300.264 188.616 300.304 188.558C300.344 188.499 300.395 188.449 300.454 188.411C300.513 188.372 300.579 188.345 300.649 188.332C300.718 188.319 300.79 188.32 300.859 188.335C303.573 188.905 308.144 186.155 310.811 180.71C312.442 177.387 313.908 171.884 311.639 164.553C309.355 157.157 303.82 149.694 295.188 142.373C280.648 130.038 257.307 120.179 231.152 115.329C206.828 110.816 184.473 111.597 172.811 117.373C172.748 117.404 172.679 117.422 172.609 117.427C172.538 117.432 172.468 117.423 172.401 117.4C172.334 117.377 172.272 117.342 172.219 117.295C172.166 117.249 172.122 117.192 172.091 117.129C172.06 117.065 172.041 116.997 172.036 116.926C172.032 116.856 172.041 116.785 172.064 116.718C172.086 116.651 172.122 116.589 172.168 116.536C172.215 116.483 172.271 116.44 172.335 116.408C184.193 110.536 206.807 109.719 231.349 114.257C257.683 119.143 281.203 129.088 295.876 141.538C304.666 148.995 310.313 156.627 312.661 164.223C315.03 171.887 313.485 177.67 311.771 181.169C309.122 186.603 304.741 189.482 301.583 189.482Z" fill="black"/>
<path d="M201.102 133.422C202.666 133.422 203.934 132.154 203.934 130.59C203.934 129.026 202.666 127.758 201.102 127.758C199.538 127.758 198.27 129.026 198.27 130.59C198.27 132.154 199.538 133.422 201.102 133.422Z" fill="#51CEF4"/>
<path d="M230.461 124.416C232.025 124.416 233.293 123.148 233.293 121.584C233.293 120.02 232.025 118.752 230.461 118.752C228.897 118.752 227.629 120.02 227.629 121.584C227.629 123.148 228.897 124.416 230.461 124.416Z" fill="#51CEF4"/>
<path d="M255.535 137.527C257.099 137.527 258.367 136.259 258.367 134.695C258.367 133.131 257.099 131.863 255.535 131.863C253.971 131.863 252.703 133.131 252.703 134.695C252.703 136.259 253.971 137.527 255.535 137.527Z" fill="#51CEF4"/>
<path d="M220.895 149.209C222.459 149.209 223.727 147.941 223.727 146.377C223.727 144.813 222.459 143.545 220.895 143.545C219.331 143.545 218.062 144.813 218.062 146.377C218.062 147.941 219.331 149.209 220.895 149.209Z" fill="#51CEF4"/>
<path d="M281.379 149.543C282.943 149.543 284.211 148.275 284.211 146.711C284.211 145.147 282.943 143.879 281.379 143.879C279.815 143.879 278.547 145.147 278.547 146.711C278.547 148.275 279.815 149.543 281.379 149.543Z" fill="#51CEF4"/>
<path d="M258.488 158.365C260.053 158.365 261.321 157.097 261.321 155.533C261.321 153.969 260.053 152.701 258.488 152.701C256.924 152.701 255.656 153.969 255.656 155.533C255.656 157.097 256.924 158.365 258.488 158.365Z" fill="#51CEF4"/>
<path d="M291.525 120.857C291.403 120.856 291.284 120.815 291.188 120.738C291.116 120.678 283.774 114.791 272.683 109.568C262.469 104.761 246.872 99.5303 230.679 102.011C230.608 102.022 230.536 102.018 230.467 102.001C230.398 101.984 230.333 101.953 230.275 101.911C230.218 101.868 230.169 101.815 230.132 101.754C230.096 101.692 230.071 101.625 230.061 101.554C230.05 101.483 230.054 101.411 230.071 101.342C230.088 101.273 230.119 101.208 230.161 101.15C230.204 101.093 230.257 101.044 230.318 101.007C230.379 100.971 230.447 100.946 230.518 100.936C247.008 98.4262 262.814 103.721 273.177 108.597C284.38 113.873 291.801 119.831 291.873 119.889C291.959 119.959 292.023 120.054 292.053 120.161C292.084 120.268 292.08 120.382 292.043 120.487C292.006 120.592 291.938 120.683 291.847 120.747C291.756 120.812 291.647 120.846 291.535 120.846L291.525 120.857Z" fill="black"/>
<path d="M43.8087 168.557C43.7019 168.557 43.5974 168.525 43.5087 168.466C43.4199 168.406 43.3507 168.322 43.3102 168.223C37.9867 155.318 37.6066 144.728 42.1773 136.755C48.4436 125.825 62.034 123.814 62.1703 123.792C62.2409 123.782 62.3127 123.787 62.3817 123.805C62.4507 123.822 62.5156 123.854 62.5725 123.897C62.6294 123.94 62.6774 123.993 62.7136 124.055C62.7497 124.116 62.7734 124.184 62.7833 124.255C62.7931 124.325 62.7889 124.397 62.771 124.466C62.7531 124.535 62.7219 124.6 62.6789 124.657C62.636 124.714 62.5822 124.762 62.5207 124.798C62.4592 124.834 62.3914 124.858 62.3208 124.868C62.1882 124.889 49.1032 126.836 43.1057 137.307C38.7143 144.979 39.1161 155.232 44.3034 167.822C44.3327 167.888 44.3484 167.959 44.3496 168.031C44.3508 168.103 44.3375 168.175 44.3104 168.242C44.2833 168.309 44.2428 168.369 44.1917 168.42C44.1406 168.471 44.0797 168.512 44.0128 168.539C43.9465 168.558 43.8773 168.564 43.8087 168.557V168.557Z" fill="black"/>
<path d="M58.5163 273.977C58.4267 273.977 58.3385 273.954 58.2597 273.912C58.1808 273.869 58.1139 273.808 58.0647 273.733C48.4286 259.071 49.9306 243.115 52.8845 232.31C54.8306 225.222 57.7914 218.453 61.6747 212.213C61.7564 212.1 61.8785 212.023 62.0157 211.999C62.1529 211.974 62.2942 212.004 62.4099 212.081C62.5257 212.159 62.6067 212.278 62.6361 212.415C62.6654 212.551 62.6406 212.693 62.5671 212.812C58.7414 218.964 55.8266 225.638 53.9134 232.625C51.024 243.208 49.5541 258.827 58.9644 273.134C59.0419 273.253 59.0692 273.398 59.0404 273.537C59.0115 273.676 58.9288 273.798 58.8104 273.876C58.7248 273.939 58.6222 273.974 58.5163 273.977V273.977Z" fill="black"/>
<path d="M311.512 168.639C311.974 156.11 310.824 146.577 303.926 146.474C292.835 146.312 294.889 169.223 278.979 176.465C269.859 180.616 262.586 193.234 265.916 202.96C269.246 212.686 310.96 183.656 311.512 168.639Z" fill="#FFCDB2"/>
<path d="M269.313 205.448C266.786 205.448 265.793 204.244 265.413 203.136C261.892 192.865 269.714 180.103 278.762 175.977C286.796 172.32 290.123 164.613 293.059 157.812C295.808 151.442 298.189 145.936 303.813 145.936H303.943C304.802 145.929 305.653 146.1 306.443 146.437C307.233 146.775 307.946 147.271 308.535 147.897C311.403 150.908 312.478 157.311 312.055 168.657C311.754 176.827 300.508 187.101 295.687 191.141C286.574 198.773 276.558 204.48 270.765 205.333C270.284 205.407 269.799 205.446 269.313 205.448ZM303.813 147.015C298.895 147.015 296.755 151.976 294.048 158.243C291.037 165.219 287.621 173.131 279.207 176.959C270.557 180.902 263.075 193.037 266.431 202.792C266.886 204.118 268.291 204.613 270.603 204.276C276.217 203.444 286.018 197.823 294.98 190.32C304.789 182.1 310.754 173.991 310.965 168.621C311.238 161.193 311.119 152.206 307.739 148.642C307.25 148.119 306.658 147.704 305.999 147.424C305.34 147.143 304.63 147.004 303.914 147.015H303.813Z" fill="black"/>
<path d="M161.586 287.238H317.746V160.574H161.586L161.586 287.238Z" fill="white"/>
<path d="M317.751 160.577V287.245H161.591V160.577H317.751ZM317.751 159.502H161.591C161.306 159.502 161.032 159.615 160.83 159.817C160.629 160.019 160.516 160.292 160.516 160.577V287.245C160.516 287.53 160.629 287.804 160.83 288.005C161.032 288.207 161.306 288.32 161.591 288.32H317.751C318.036 288.32 318.31 288.207 318.512 288.005C318.713 287.804 318.826 287.53 318.826 287.245V160.577C318.826 160.292 318.713 160.019 318.512 159.817C318.31 159.615 318.036 159.502 317.751 159.502Z" fill="black"/>
<path d="M171.544 273.549H308.242V171.94H171.544V273.549Z" fill="#4BD657"/>
<path d="M274.354 218.052C272.811 218.05 271.315 217.523 270.111 216.559C268.906 215.594 268.065 214.249 267.726 212.744C267.386 211.239 267.568 209.664 268.241 208.275C268.914 206.887 270.039 205.769 271.431 205.104C272.824 204.439 274.401 204.267 275.904 204.616C277.407 204.964 278.746 205.813 279.703 207.024C280.661 208.234 281.178 209.733 281.171 211.276C281.164 212.819 280.634 214.314 279.666 215.515V215.515C279.027 216.309 278.218 216.949 277.299 217.388C276.379 217.827 275.373 218.054 274.354 218.052V218.052ZM274.372 205.483C273.398 205.481 272.439 205.726 271.585 206.196C270.731 206.665 270.01 207.343 269.489 208.167C268.968 208.991 268.665 209.933 268.608 210.906C268.55 211.879 268.74 212.85 269.16 213.729C269.58 214.609 270.216 215.367 271.009 215.934C271.802 216.5 272.725 216.857 273.693 216.97C274.661 217.082 275.642 216.948 276.544 216.579C277.446 216.21 278.239 215.618 278.85 214.859V214.859C279.53 214.012 279.958 212.991 280.083 211.913C280.209 210.834 280.027 209.742 279.559 208.763C279.091 207.783 278.356 206.955 277.439 206.375C276.521 205.795 275.458 205.486 274.372 205.483V205.483Z" fill="#1D1D1B"/>
<path d="M279.073 213.337L270.594 206.512C268.501 204.828 265.439 205.159 263.755 207.252L243.048 232.978C241.364 235.071 241.695 238.133 243.787 239.817L252.267 246.642C254.359 248.326 257.421 247.995 259.105 245.902L279.812 220.176C281.496 218.083 281.165 215.022 279.073 213.337Z" fill="#382256"/>
<path d="M255.388 248.279C254.162 248.28 252.973 247.86 252.021 247.089V247.089L243.541 240.265C242.428 239.369 241.716 238.068 241.563 236.647C241.409 235.227 241.826 233.803 242.721 232.69L263.423 206.962C264.319 205.851 265.621 205.14 267.041 204.986C268.461 204.833 269.884 205.249 270.998 206.143L279.478 212.967C280.029 213.411 280.487 213.958 280.827 214.579C281.166 215.2 281.38 215.881 281.456 216.584C281.532 217.288 281.469 217.999 281.27 218.678C281.071 219.357 280.741 219.99 280.297 220.541L259.591 246.27C259.149 246.822 258.602 247.282 257.981 247.621C257.36 247.961 256.678 248.174 255.974 248.248C255.779 248.269 255.584 248.28 255.388 248.279V248.279ZM252.677 246.273C253.121 246.631 253.631 246.897 254.178 247.057C254.725 247.217 255.298 247.268 255.864 247.207C256.431 247.146 256.98 246.973 257.48 246.7C257.98 246.426 258.421 246.057 258.779 245.613L279.485 219.885C279.842 219.441 280.108 218.931 280.269 218.384C280.429 217.837 280.48 217.264 280.418 216.697C280.357 216.131 280.185 215.582 279.911 215.082C279.638 214.582 279.268 214.14 278.824 213.783L270.344 206.958C269.447 206.238 268.301 205.903 267.157 206.026C266.013 206.15 264.965 206.723 264.242 207.618L243.537 233.347C243.18 233.791 242.913 234.301 242.753 234.848C242.592 235.395 242.541 235.968 242.602 236.535C242.664 237.101 242.836 237.65 243.109 238.151C243.383 238.651 243.752 239.092 244.197 239.449L252.677 246.273V246.273Z" fill="#1D1E1B"/>
<path d="M273.993 214.93L270.151 211.838C268.126 210.208 265.163 210.529 263.533 212.554L247.7 232.224C246.07 234.25 246.391 237.213 248.416 238.843L252.257 241.935C254.282 243.565 257.245 243.244 258.876 241.219L274.708 221.549C276.338 219.523 276.018 216.56 273.993 214.93Z" fill="white"/>
<path d="M255.281 243.535C254.091 243.536 252.937 243.128 252.012 242.379V242.379L248.169 239.287C247.089 238.417 246.398 237.154 246.249 235.775C246.1 234.396 246.505 233.014 247.374 231.933L263.205 212.261C264.076 211.182 265.339 210.492 266.718 210.343C268.097 210.194 269.478 210.598 270.56 211.466L274.402 214.558C275.482 215.428 276.173 216.691 276.322 218.07C276.471 219.449 276.067 220.831 275.197 221.912L259.366 241.584C258.874 242.193 258.251 242.685 257.545 243.023C256.838 243.36 256.064 243.535 255.281 243.535V243.535ZM267.285 211.359C266.659 211.357 266.04 211.497 265.475 211.767C264.911 212.037 264.414 212.43 264.021 212.918L248.19 232.589C247.494 233.454 247.171 234.559 247.29 235.662C247.409 236.765 247.962 237.776 248.826 238.471L252.668 241.563C253.096 241.908 253.588 242.165 254.115 242.319C254.642 242.474 255.195 242.523 255.741 242.464C256.287 242.405 256.816 242.239 257.298 241.975C257.78 241.711 258.206 241.355 258.55 240.927L274.381 221.256C274.726 220.828 274.983 220.336 275.137 219.809C275.292 219.282 275.341 218.729 275.282 218.183C275.223 217.637 275.057 217.107 274.793 216.625C274.529 216.143 274.173 215.718 273.745 215.373L269.903 212.282C269.161 211.684 268.237 211.358 267.285 211.359V211.359Z" fill="#1D1E1B"/>
<path d="M284.355 242.978L286.216 243.286C286.582 243.346 286.956 243.259 287.258 243.043C287.559 242.827 287.763 242.5 287.824 242.135L287.971 241.25C288.031 240.884 287.943 240.509 287.727 240.207C287.511 239.906 287.184 239.702 286.818 239.642L285.177 239.369C285.119 239.358 285.068 239.326 285.035 239.278C285.001 239.23 284.988 239.171 284.998 239.113L286.634 229.247C289.426 229 292.031 227.742 293.961 225.71C295.892 223.678 297.015 221.012 297.119 218.211C297.339 212.957 293.846 208.148 288.785 206.723C285.983 205.922 282.982 206.213 280.386 207.538C277.791 208.864 275.796 211.124 274.802 213.864C273.809 216.604 273.892 219.618 275.035 222.299C276.178 224.979 278.295 227.126 280.96 228.307L278.079 245.685L277.687 248.046C277.613 248.495 277.72 248.955 277.984 249.324C278.249 249.694 278.649 249.944 279.098 250.019L283.081 250.679L287.779 251.458C287.961 251.488 288.146 251.482 288.325 251.441C288.504 251.399 288.673 251.322 288.822 251.216C288.972 251.109 289.099 250.973 289.196 250.817C289.293 250.661 289.358 250.488 289.388 250.306L289.602 249.016C289.662 248.65 289.575 248.275 289.359 247.974C289.142 247.672 288.816 247.468 288.45 247.408L283.751 246.628L284.355 242.978ZM286.5 215.517C285.803 215.539 285.117 215.337 284.543 214.94C283.97 214.543 283.539 213.972 283.316 213.311C283.092 212.65 283.086 211.935 283.3 211.271C283.514 210.607 283.936 210.03 284.503 209.624C285.07 209.218 285.753 209.005 286.451 209.017C287.148 209.029 287.823 209.266 288.376 209.691C288.929 210.116 289.331 210.708 289.521 211.379C289.712 212.05 289.682 212.764 289.435 213.417C289.208 214.017 288.808 214.537 288.286 214.91C287.765 215.284 287.144 215.495 286.503 215.517H286.5Z" fill="#07ACEE"/>
<path d="M288.004 252C287.898 252 287.793 251.991 287.689 251.974L279.007 250.533C278.717 250.486 278.439 250.381 278.189 250.226C277.94 250.071 277.723 249.868 277.552 249.629C277.381 249.39 277.259 249.119 277.193 248.833C277.126 248.547 277.117 248.25 277.166 247.96L280.376 228.611C278.447 227.677 276.803 226.244 275.614 224.462C274.424 222.68 273.732 220.612 273.61 218.473C273.487 216.334 273.938 214.201 274.916 212.294C275.894 210.388 277.363 208.777 279.172 207.629C282.098 205.77 285.561 205.269 288.924 206.216C294.203 207.703 297.869 212.755 297.64 218.229C297.393 224.143 292.886 229.014 287.083 229.723L285.564 238.899L286.904 239.122C287.407 239.206 287.856 239.486 288.153 239.901C288.45 240.316 288.57 240.832 288.487 241.335L288.341 242.22C288.3 242.469 288.209 242.708 288.076 242.922C287.942 243.136 287.768 243.322 287.562 243.469C287.356 243.616 287.124 243.721 286.878 243.778C286.632 243.836 286.377 243.844 286.128 243.802L284.787 243.58L284.353 246.194L288.535 246.889C289.038 246.973 289.487 247.253 289.784 247.668C290.081 248.082 290.201 248.598 290.118 249.101L289.904 250.391C289.829 250.841 289.597 251.249 289.249 251.544C288.901 251.838 288.46 252 288.004 252V252ZM285.583 206.796C283.509 206.797 281.479 207.393 279.732 208.512C278.054 209.578 276.696 211.078 275.804 212.855C274.912 214.631 274.519 216.616 274.666 218.598C274.813 220.581 275.496 222.486 276.641 224.11C277.786 225.735 279.351 227.019 281.168 227.824C281.274 227.871 281.362 227.952 281.417 228.054C281.472 228.157 281.492 228.274 281.473 228.389L278.198 248.132C278.173 248.286 278.178 248.444 278.213 248.597C278.249 248.749 278.314 248.893 278.406 249.02C278.497 249.147 278.612 249.255 278.745 249.338C278.878 249.42 279.026 249.476 279.181 249.501L287.862 250.941C288.091 250.979 288.327 250.924 288.516 250.789C288.705 250.654 288.833 250.449 288.872 250.22L289.085 248.93C289.123 248.7 289.068 248.465 288.933 248.276C288.797 248.087 288.593 247.959 288.363 247.921L283.666 247.141C283.598 247.13 283.533 247.106 283.474 247.07C283.416 247.033 283.365 246.986 283.325 246.93C283.285 246.874 283.257 246.81 283.241 246.743C283.226 246.676 283.224 246.607 283.235 246.539L283.84 242.892C283.851 242.824 283.876 242.759 283.912 242.7C283.948 242.642 283.996 242.591 284.052 242.551C284.108 242.511 284.171 242.483 284.238 242.467C284.305 242.452 284.374 242.45 284.442 242.461L286.298 242.77C286.412 242.789 286.528 242.785 286.64 242.759C286.752 242.733 286.858 242.686 286.952 242.619C287.046 242.552 287.125 242.467 287.186 242.369C287.247 242.271 287.288 242.163 287.307 242.049L287.454 241.164C287.491 240.935 287.437 240.7 287.301 240.511C287.166 240.322 286.962 240.194 286.733 240.156L285.091 239.887C284.994 239.872 284.902 239.837 284.819 239.785C284.735 239.733 284.663 239.665 284.606 239.586C284.549 239.506 284.508 239.416 284.486 239.321C284.464 239.225 284.461 239.126 284.477 239.03L286.114 229.164C286.133 229.049 286.189 228.944 286.275 228.865C286.36 228.787 286.469 228.739 286.584 228.729C292.059 228.248 296.362 223.717 296.592 218.192C296.801 213.196 293.456 208.586 288.639 207.229C287.645 206.945 286.617 206.799 285.583 206.796V206.796ZM286.423 216.041C285.811 216.045 285.207 215.9 284.663 215.618C284.119 215.337 283.652 214.927 283.302 214.425C282.951 213.923 282.728 213.343 282.652 212.735C282.575 212.128 282.647 211.511 282.862 210.937C283.103 210.298 283.513 209.735 284.049 209.31C284.584 208.885 285.225 208.614 285.903 208.525C286.581 208.437 287.27 208.534 287.897 208.806C288.524 209.079 289.065 209.517 289.462 210.073C289.821 210.578 290.051 211.163 290.132 211.777C290.213 212.392 290.143 213.016 289.927 213.597C289.666 214.298 289.202 214.905 288.593 215.341C287.985 215.776 287.26 216.019 286.512 216.04H286.422L286.423 216.041ZM286.371 209.541H286.302C285.585 209.574 284.91 209.888 284.423 210.416C283.936 210.943 283.677 211.641 283.702 212.359C283.726 213.076 284.033 213.755 284.554 214.247C285.076 214.74 285.771 215.008 286.489 214.992V214.992C287.205 214.966 287.882 214.66 288.374 214.139C288.866 213.618 289.133 212.924 289.118 212.208C289.102 211.492 288.805 210.81 288.291 210.311C287.777 209.812 287.087 209.535 286.371 209.541V209.541Z" fill="#1D1D1B"/>
<path d="M284.261 212.121C283.81 212.12 283.359 212.09 282.911 212.032L283.042 210.993C285.322 211.283 287.63 210.739 289.54 209.46C291.449 208.182 292.832 206.256 293.433 204.037C294.033 201.819 293.811 199.459 292.807 197.391C291.803 195.324 290.085 193.69 287.971 192.79C285.856 191.891 283.487 191.786 281.302 192.497C279.116 193.207 277.261 194.684 276.08 196.655C274.898 198.626 274.469 200.958 274.873 203.221C275.276 205.483 276.484 207.523 278.274 208.964L277.618 209.78C275.678 208.218 274.354 206.02 273.878 203.575C273.402 201.13 273.806 198.596 275.018 196.421C276.23 194.245 278.172 192.567 280.501 191.685C282.83 190.803 285.396 190.772 287.745 191.598C290.095 192.424 292.076 194.055 293.34 196.201C294.604 198.347 295.068 200.871 294.652 203.326C294.235 205.781 292.963 208.01 291.062 209.619C289.161 211.228 286.752 212.112 284.261 212.117V212.121Z" fill="#1D1D1B"/>
<path d="M252.816 237.472C252.717 237.472 252.619 237.444 252.535 237.39C252.451 237.337 252.384 237.261 252.342 237.17C252.3 237.08 252.284 236.98 252.297 236.881C252.31 236.782 252.351 236.689 252.415 236.613L268.685 217.153C268.729 217.1 268.783 217.056 268.844 217.025C268.905 216.993 268.971 216.973 269.04 216.967C269.108 216.961 269.177 216.968 269.243 216.989C269.309 217.009 269.37 217.043 269.423 217.087C269.475 217.131 269.519 217.185 269.551 217.246C269.583 217.307 269.602 217.374 269.609 217.442C269.615 217.511 269.607 217.58 269.587 217.645C269.566 217.711 269.533 217.772 269.489 217.825L253.22 237.284C253.171 237.343 253.109 237.391 253.039 237.423C252.97 237.456 252.893 237.472 252.816 237.472Z" fill="#1D1E1B"/>
<path d="M308.242 171.939V273.548H171.544V171.939H308.242ZM308.242 170.863H171.544C171.259 170.863 170.986 170.977 170.784 171.178C170.582 171.38 170.469 171.654 170.469 171.939V273.548C170.469 273.833 170.582 274.107 170.784 274.309C170.986 274.51 171.259 274.624 171.544 274.624H308.242C308.528 274.624 308.801 274.51 309.003 274.309C309.204 274.107 309.318 273.833 309.318 273.548V171.939C309.318 171.654 309.204 171.38 309.003 171.178C308.801 170.977 308.528 170.863 308.242 170.863V170.863Z" fill="black"/>
<path d="M318.276 287.24H166.278C162.542 287.24 158.958 285.756 156.316 283.114C153.674 280.472 152.19 276.888 152.19 273.152V273.152H332.383C332.383 275.003 332.018 276.837 331.308 278.547C330.599 280.258 329.56 281.812 328.25 283.12C326.94 284.429 325.384 285.466 323.673 286.173C321.962 286.88 320.128 287.243 318.276 287.24Z" fill="white"/>
<path d="M332.366 273.142C332.366 276.879 330.882 280.462 328.24 283.105C325.598 285.748 322.015 287.233 318.278 287.234H166.262C162.525 287.233 158.942 285.748 156.3 283.105C153.658 280.462 152.173 276.879 152.173 273.142H332.366V273.142ZM333.442 272.066H151.098V273.142C151.102 277.162 152.702 281.017 155.544 283.86C158.387 286.704 162.241 288.304 166.262 288.309H318.278C322.299 288.304 326.153 286.704 328.995 283.86C331.838 281.017 333.437 277.162 333.442 273.142V272.066V272.066Z" fill="black"/>
<path d="M237.413 205.837H185.303C185.161 205.837 185.024 205.78 184.923 205.68C184.822 205.579 184.766 205.442 184.766 205.299C184.766 205.157 184.822 205.02 184.923 204.919C185.024 204.818 185.161 204.762 185.303 204.762H237.413C237.556 204.762 237.692 204.818 237.793 204.919C237.894 205.02 237.951 205.157 237.951 205.299C237.951 205.442 237.894 205.579 237.793 205.68C237.692 205.78 237.556 205.837 237.413 205.837V205.837Z" fill="black"/>
<path d="M236.212 219.864L185.307 218.663C185.165 218.663 185.028 218.607 184.927 218.506C184.826 218.405 184.77 218.268 184.77 218.126C184.77 217.983 184.826 217.846 184.927 217.745C185.028 217.644 185.165 217.588 185.307 217.588V217.588L236.212 218.789C236.355 218.789 236.492 218.845 236.592 218.946C236.693 219.047 236.75 219.184 236.75 219.326C236.75 219.469 236.693 219.606 236.592 219.707C236.492 219.808 236.355 219.864 236.212 219.864V219.864Z" fill="black"/>
<path d="M237.41 235.9H203.741C203.598 235.9 203.462 235.843 203.361 235.742C203.26 235.641 203.203 235.505 203.203 235.362C203.203 235.219 203.26 235.083 203.361 234.982C203.462 234.881 203.598 234.824 203.741 234.824H237.41C237.552 234.824 237.689 234.881 237.79 234.982C237.891 235.083 237.948 235.219 237.948 235.362C237.948 235.505 237.891 235.641 237.79 235.742C237.689 235.843 237.552 235.9 237.41 235.9V235.9Z" fill="black"/>
<path d="M149.631 167.747C149.501 167.747 149.376 167.7 149.278 167.615C149.18 167.53 149.116 167.413 149.097 167.285C148.233 161.115 149.341 156.602 152.384 153.863C157.424 149.328 165.838 151.354 166.197 151.458C166.335 151.493 166.454 151.581 166.527 151.703C166.6 151.825 166.622 151.972 166.587 152.11C166.553 152.249 166.465 152.367 166.342 152.441C166.22 152.514 166.073 152.536 165.935 152.501C165.853 152.479 157.711 150.515 153.098 154.652C150.341 157.136 149.352 161.33 150.162 167.12C150.172 167.19 150.168 167.261 150.151 167.33C150.133 167.398 150.103 167.462 150.06 167.519C150.018 167.576 149.965 167.623 149.904 167.66C149.843 167.696 149.776 167.719 149.706 167.729L149.631 167.747Z" fill="black"/>
<path d="M172.815 166.119C172.672 166.119 172.536 166.063 172.435 165.962C172.334 165.861 172.277 165.724 172.277 165.582C172.277 165.439 172.334 165.302 172.435 165.202C172.536 165.101 172.672 165.044 172.815 165.044L223.72 164.643C223.863 164.643 224 164.699 224.101 164.8C224.201 164.901 224.258 165.038 224.258 165.18C224.258 165.323 224.201 165.46 224.101 165.56C224 165.661 223.863 165.718 223.72 165.718L172.815 166.119Z" fill="white"/>
<path d="M320.324 280.759H262.608C262.465 280.759 262.329 280.702 262.228 280.602C262.127 280.501 262.07 280.364 262.07 280.221C262.07 280.079 262.127 279.942 262.228 279.841C262.329 279.74 262.465 279.684 262.608 279.684H320.324C320.467 279.684 320.604 279.74 320.705 279.841C320.805 279.942 320.862 280.079 320.862 280.221C320.862 280.364 320.805 280.501 320.705 280.602C320.604 280.702 320.467 280.759 320.324 280.759V280.759Z" fill="white"/>
<path d="M143.555 119.482C122.311 139.525 93.3843 139.959 67.5948 222.701C56.9406 256.879 68.4051 273.585 78.0161 280.823C91.1045 290.674 158.844 293.481 160.59 267.996L171.814 267.595L175.019 235.926H166.2C166.2 235.926 162.389 222.189 146.017 220.511C118.36 217.708 96.8547 230.301 93.2483 231.502" fill="#07ACEE"/>
<path d="M115.232 288.491C98.96 288.491 83.3264 285.487 77.6946 281.254C68.9475 274.668 55.9418 258.285 67.0835 222.541C75.9883 193.973 86.0512 172.679 97.8489 157.443C108.181 144.1 118.559 137.063 127.714 130.854C133.206 127.133 138.39 123.616 143.187 119.092C143.291 118.998 143.428 118.948 143.569 118.954C143.709 118.959 143.842 119.019 143.938 119.122C144.035 119.224 144.088 119.36 144.085 119.5C144.083 119.641 144.025 119.775 143.925 119.874C139.067 124.459 133.844 127.997 128.316 131.747C109.413 144.563 87.9866 159.092 68.1086 222.86C57.164 257.991 69.8222 273.98 78.3398 280.393C83.0682 283.953 95.2174 286.652 109.288 287.269C124.932 287.954 139.161 285.946 148.32 281.763C155.712 278.386 159.659 273.74 160.053 267.957C160.063 267.825 160.121 267.7 160.217 267.608C160.313 267.516 160.44 267.463 160.573 267.459L171.328 267.075L174.425 236.464H166.201C166.085 236.465 165.971 236.427 165.877 236.356C165.784 236.285 165.716 236.186 165.685 236.074C165.646 235.937 161.76 222.666 145.968 221.064C122.52 218.683 103.391 227.516 96.1888 230.825C94.9055 231.417 93.9806 231.843 93.4249 232.03C93.3578 232.052 93.2872 232.061 93.2166 232.056C93.1461 232.051 93.0772 232.032 93.0139 232.001C92.9507 231.969 92.8943 231.925 92.848 231.872C92.8017 231.818 92.7664 231.756 92.744 231.689C92.7217 231.622 92.7127 231.551 92.7178 231.481C92.7228 231.41 92.7414 231.341 92.7731 231.278C92.8047 231.215 92.8485 231.159 92.9019 231.112C92.9553 231.066 93.0176 231.03 93.0846 231.008C93.5865 230.84 94.4861 230.424 95.7372 229.85C103.011 226.495 122.337 217.586 146.076 219.992C161.046 221.512 165.793 233.095 166.596 235.407H175.024C175.099 235.407 175.174 235.423 175.243 235.453C175.313 235.484 175.375 235.53 175.425 235.586C175.475 235.642 175.513 235.708 175.537 235.78C175.56 235.851 175.569 235.927 175.561 236.002L172.335 267.667C172.321 267.796 172.262 267.916 172.167 268.005C172.072 268.094 171.949 268.146 171.819 268.151L161.064 268.534C160.462 274.514 156.318 279.289 148.747 282.759C139.842 286.817 127.359 288.491 115.232 288.491Z" fill="black"/>
<path d="M158.59 270.21C158.751 260.89 163.924 244.105 166.34 236.764H173.822L170.785 266.751L160.156 267.131C159.707 268.193 159.183 269.222 158.59 270.21V270.21Z" fill="#0598C6"/>
<path d="M134.16 149.857C135.724 149.857 136.992 148.589 136.992 147.025C136.992 145.461 135.724 144.193 134.16 144.193C132.596 144.193 131.328 145.461 131.328 147.025C131.328 148.589 132.596 149.857 134.16 149.857Z" fill="#51CEF4"/>
<path d="M104.902 190.342C106.467 190.342 107.734 189.074 107.734 187.51C107.734 185.946 106.467 184.678 104.902 184.678C103.338 184.678 102.07 185.946 102.07 187.51C102.07 189.074 103.338 190.342 104.902 190.342Z" fill="#51CEF4"/>
<path d="M131.356 207.981C132.92 207.981 134.187 206.713 134.187 205.148C134.187 203.584 132.92 202.316 131.356 202.316C129.792 202.316 128.523 203.584 128.523 205.148C128.523 206.713 129.792 207.981 131.356 207.981Z" fill="#51CEF4"/>
<path d="M74.838 223.211C76.4021 223.211 77.6702 221.943 77.6702 220.379C77.6702 218.815 76.4021 217.547 74.838 217.547C73.2739 217.547 72.0059 218.815 72.0059 220.379C72.0059 221.943 73.2739 223.211 74.838 223.211Z" fill="#51CEF4"/>
<path d="M102.094 268.904C103.658 268.904 104.926 267.636 104.926 266.072C104.926 264.508 103.658 263.24 102.094 263.24C100.53 263.24 99.2617 264.508 99.2617 266.072C99.2617 267.636 100.53 268.904 102.094 268.904Z" fill="#51CEF4"/>
<path d="M128.551 246.861C130.115 246.861 131.383 245.593 131.383 244.029C131.383 242.465 130.115 241.197 128.551 241.197C126.987 241.197 125.719 242.465 125.719 244.029C125.719 245.593 126.987 246.861 128.551 246.861Z" fill="#51CEF4"/>
<path d="M134.16 273.314C135.724 273.314 136.992 272.047 136.992 270.482C136.992 268.918 135.724 267.65 134.16 267.65C132.596 267.65 131.328 268.918 131.328 270.482C131.328 272.047 132.596 273.314 134.16 273.314Z" fill="#51CEF4"/>
<path d="M93.45 237.47C93.3288 237.47 93.211 237.43 93.1157 237.355C93.0204 237.28 92.9531 237.175 92.9249 237.057C92.8967 236.94 92.9092 236.816 92.9603 236.706C93.0113 236.596 93.0981 236.506 93.2064 236.452C112.998 226.454 125.251 225.339 132.045 226.178C139.544 227.095 142.261 230.444 142.373 230.587C142.42 230.642 142.456 230.706 142.478 230.775C142.5 230.844 142.509 230.917 142.502 230.989C142.495 231.062 142.473 231.132 142.439 231.196C142.404 231.26 142.357 231.316 142.3 231.361C142.243 231.406 142.178 231.439 142.108 231.458C142.037 231.477 141.964 231.482 141.892 231.472C141.82 231.462 141.751 231.437 141.689 231.4C141.627 231.362 141.573 231.313 141.53 231.254C141.502 231.214 138.888 228.06 131.769 227.228C125.129 226.45 113.127 227.587 93.6937 237.413C93.618 237.451 93.5347 237.47 93.45 237.47V237.47Z" fill="white"/>
<path d="M174.881 236.16C174.881 236.16 187.991 197.444 201.903 220.813L224.778 217.634C224.778 217.634 234.077 227.001 217.25 235.339C217.25 235.339 219.086 243.746 213.93 249.79C213.93 249.79 218.107 255.884 205.943 264.226C193.78 272.568 172.633 267.51 172.633 267.51L174.881 236.16Z" fill="#FFCDB2"/>
<path d="M186.759 269.6C181.97 269.589 177.196 269.063 172.52 268.03C172.396 268.001 172.287 267.928 172.212 267.826C172.137 267.723 172.101 267.597 172.111 267.471L174.359 236.121C174.363 236.076 174.373 236.032 174.387 235.989C174.692 235.085 181.991 213.845 191.785 212.812C195.459 212.425 198.954 214.92 202.181 220.233L224.708 217.104C224.791 217.092 224.875 217.099 224.954 217.126C225.033 217.153 225.105 217.198 225.163 217.258C225.3 217.394 228.522 220.703 227.766 225.245C227.121 229.131 223.787 232.626 217.85 235.641C218.152 237.433 218.979 244.413 214.577 249.855C215.319 251.343 217.187 257.161 206.242 264.675C200.61 268.536 193.19 269.6 186.759 269.6ZM173.215 267.091C176.309 267.747 194.785 271.249 205.651 263.789C217.166 255.881 213.652 250.332 213.495 250.102C213.43 250.004 213.398 249.888 213.405 249.77C213.411 249.653 213.455 249.54 213.53 249.45C218.449 243.685 216.757 235.54 216.735 235.469C216.711 235.351 216.725 235.229 216.777 235.121C216.829 235.013 216.915 234.924 217.022 234.87C222.851 232.002 226.113 228.693 226.701 225.094C227.275 221.674 225.196 218.953 224.55 218.222L201.966 221.362C201.861 221.376 201.755 221.359 201.66 221.313C201.565 221.267 201.486 221.195 201.431 221.104C198.377 215.974 195.158 213.547 191.874 213.895C183.009 214.831 175.853 234.988 175.384 236.286L173.215 267.091Z" fill="black"/>
<path d="M194.381 223.12C194.239 223.136 194.096 223.094 193.984 223.004C193.872 222.915 193.8 222.784 193.784 222.641C193.769 222.499 193.811 222.356 193.9 222.244C193.99 222.132 194.12 222.06 194.263 222.045L201.791 220.295C201.928 220.268 202.07 220.296 202.187 220.371C202.304 220.447 202.387 220.565 202.419 220.701C202.45 220.837 202.428 220.979 202.356 221.099C202.285 221.218 202.17 221.306 202.035 221.342L194.507 223.091C194.467 223.107 194.424 223.116 194.381 223.12V223.12Z" fill="black"/>
<path d="M199.726 241.108C198.911 241.115 198.096 241.073 197.285 240.982C197.142 240.964 197.013 240.889 196.925 240.775C196.837 240.661 196.798 240.517 196.817 240.375C196.836 240.232 196.91 240.103 197.024 240.015C197.138 239.927 197.282 239.888 197.425 239.907C197.525 239.907 207.462 241.133 216.783 234.784C216.841 234.738 216.907 234.705 216.979 234.686C217.05 234.667 217.125 234.663 217.198 234.674C217.27 234.685 217.34 234.711 217.403 234.75C217.465 234.79 217.519 234.841 217.561 234.902C217.602 234.963 217.631 235.032 217.645 235.104C217.659 235.177 217.658 235.251 217.641 235.323C217.625 235.395 217.595 235.463 217.551 235.522C217.508 235.582 217.453 235.632 217.389 235.669C212.172 239.195 206.023 241.088 199.726 241.108V241.108Z" fill="black"/>
<path d="M198.137 254.964C196.979 254.964 196.237 254.906 196.122 254.896C196.052 254.89 195.983 254.87 195.92 254.837C195.857 254.805 195.801 254.76 195.755 254.706C195.709 254.651 195.675 254.588 195.654 254.521C195.632 254.453 195.625 254.382 195.631 254.311C195.646 254.17 195.715 254.04 195.824 253.948C195.933 253.857 196.074 253.813 196.215 253.824C196.327 253.824 207.418 254.72 213.882 249.002C213.934 248.955 213.996 248.919 214.063 248.895C214.129 248.872 214.2 248.862 214.271 248.866C214.341 248.87 214.41 248.888 214.474 248.919C214.538 248.949 214.595 248.992 214.642 249.045C214.689 249.098 214.725 249.159 214.748 249.226C214.771 249.293 214.782 249.363 214.778 249.434C214.774 249.504 214.756 249.574 214.725 249.637C214.694 249.701 214.651 249.758 214.599 249.805C209.433 254.376 201.758 254.964 198.137 254.964Z" fill="black"/>
<path d="M190.835 266.904C186.236 266.904 183.375 265.488 183.253 265.427C183.126 265.363 183.029 265.251 182.984 265.115C182.939 264.98 182.95 264.832 183.015 264.705C183.079 264.578 183.191 264.481 183.326 264.436C183.462 264.391 183.61 264.402 183.737 264.467C183.866 264.531 195.46 270.113 209.19 257.928C209.242 257.881 209.304 257.844 209.371 257.821C209.437 257.798 209.508 257.788 209.579 257.792C209.649 257.796 209.718 257.814 209.782 257.844C209.845 257.875 209.903 257.918 209.95 257.971C209.997 258.023 210.033 258.085 210.056 258.152C210.079 258.218 210.09 258.289 210.086 258.36C210.082 258.43 210.064 258.499 210.033 258.563C210.002 258.627 209.959 258.684 209.907 258.731C202.443 265.352 195.617 266.829 191.204 266.901L190.835 266.904Z" fill="white"/>
<path d="M197.573 252.123C197.075 252.123 196.759 252.123 196.68 252.123C196.61 252.122 196.541 252.106 196.476 252.077C196.412 252.048 196.354 252.007 196.305 251.956C196.257 251.904 196.22 251.844 196.195 251.778C196.17 251.712 196.158 251.642 196.16 251.571C196.161 251.5 196.177 251.43 196.205 251.365C196.234 251.3 196.276 251.241 196.327 251.193C196.379 251.144 196.441 251.107 196.507 251.082C196.574 251.058 196.645 251.048 196.716 251.051C196.863 251.051 211.296 251.471 214.046 245.502C214.072 245.433 214.112 245.371 214.163 245.318C214.215 245.265 214.276 245.224 214.345 245.196C214.413 245.168 214.486 245.155 214.559 245.156C214.633 245.158 214.705 245.175 214.772 245.205C214.839 245.236 214.899 245.28 214.948 245.335C214.997 245.39 215.035 245.454 215.058 245.524C215.081 245.594 215.09 245.668 215.084 245.741C215.077 245.814 215.056 245.885 215.021 245.95C212.368 251.697 200.911 252.123 197.573 252.123Z" fill="white"/>
<path d="M199.987 237.735C199.917 237.739 199.845 237.73 199.779 237.707C199.712 237.684 199.65 237.648 199.597 237.601C199.544 237.555 199.5 237.498 199.469 237.434C199.438 237.371 199.42 237.302 199.415 237.231C199.411 237.161 199.42 237.09 199.443 237.023C199.466 236.956 199.502 236.894 199.549 236.841C199.595 236.788 199.652 236.745 199.716 236.713C199.779 236.682 199.848 236.664 199.919 236.659C200.102 236.638 218.04 234.286 222.862 226.324C222.897 226.261 222.945 226.206 223.002 226.161C223.059 226.117 223.125 226.085 223.195 226.066C223.265 226.048 223.338 226.044 223.409 226.054C223.481 226.065 223.549 226.09 223.611 226.127C223.673 226.165 223.727 226.215 223.769 226.274C223.811 226.332 223.841 226.399 223.856 226.47C223.872 226.54 223.873 226.613 223.86 226.684C223.847 226.755 223.82 226.823 223.78 226.883C218.678 235.29 200.801 237.638 200.044 237.728L199.987 237.735Z" fill="white"/>
<path d="M165.972 55.6306C174.329 55.6306 181.103 48.8559 181.103 40.4989C181.103 32.1419 174.329 25.3672 165.972 25.3672C157.615 25.3672 150.84 32.1419 150.84 40.4989C150.84 48.8559 157.615 55.6306 165.972 55.6306Z" fill="#382256"/>
<path d="M165.971 25.3645C169.331 25.3668 172.595 26.487 175.248 28.5488C177.902 30.6106 179.793 33.4966 180.625 36.7521C181.457 40.0075 181.182 43.4474 179.844 46.5293C178.505 49.6113 176.179 52.1602 173.232 53.7743C170.285 55.3884 166.885 55.976 163.567 55.4445C160.249 54.9129 157.202 53.2925 154.907 50.8385C152.612 48.3845 151.199 45.2364 150.89 41.8905C150.581 38.5446 151.394 35.1912 153.202 32.3586C154.567 30.2098 156.454 28.4416 158.687 27.2187C160.919 25.9957 163.425 25.3579 165.971 25.3645ZM165.971 24.2891C162.069 24.2847 158.296 25.6881 155.345 28.2418C152.394 30.7954 150.463 34.3279 149.908 38.1905C149.352 42.0531 150.208 45.9866 152.319 49.2687C154.43 52.5509 157.654 54.9614 161.399 56.0577C165.144 57.154 169.159 56.8624 172.707 55.2366C176.254 53.6108 179.096 50.7598 180.711 47.2071C182.326 43.6544 182.604 39.6384 181.496 35.8966C180.388 32.1549 177.968 28.9384 174.679 26.8379C172.08 25.1727 169.058 24.2881 165.971 24.2891V24.2891Z" fill="black"/>
<path d="M203.252 91.5748C203.252 91.5748 214.645 83.5519 211.139 73.6971C207.633 63.8423 205.102 64.4051 203.611 59.0924C202.12 53.7796 193.462 47.7177 184.844 49.2878C184.844 49.2878 175.255 40.4439 165.615 41.9102C155.975 43.3764 152.243 47.5169 148.82 54.5827C145.396 61.6484 142.407 64.6203 139.829 69.5172C137.252 74.4141 132.724 88.3987 151.598 100.978C170.472 113.557 203.252 91.5748 203.252 91.5748Z" fill="#382256"/>
<path d="M167.82 41.7441C176.664 41.7441 184.845 49.2723 184.845 49.2723C185.776 49.1027 186.72 49.0175 187.666 49.0178C195.269 49.0178 202.271 54.345 203.611 59.077C205.117 64.3897 207.651 63.8305 211.14 73.6817C214.628 83.5329 203.253 91.5594 203.253 91.5594C203.253 91.5594 183.428 104.852 165.737 104.852C160.675 104.852 155.786 103.777 151.588 100.962C132.713 88.3832 137.248 74.3843 139.819 69.5017C142.389 64.6191 145.39 61.615 148.81 54.5672C152.229 47.5194 155.979 43.3573 165.605 41.8947C166.334 41.7831 167.071 41.7279 167.809 41.7298L167.82 41.7441ZM167.809 40.6543C167.017 40.6528 166.226 40.7115 165.443 40.83C155.356 42.3607 151.351 46.8525 147.842 54.094C146.277 57.2893 144.463 60.3567 142.418 63.2677C141.128 65.1112 139.943 67.0262 138.869 69.0034C136.686 73.1497 135.891 77.8866 136.6 82.5184C137.75 89.7562 142.593 96.2627 150.993 101.877C155.04 104.576 160.001 105.945 165.737 105.945C175.058 105.945 184.945 102.275 191.581 99.1987C195.826 97.2504 199.926 95.0018 203.851 92.4699H203.873C205.959 90.9165 207.811 89.0718 209.372 86.9923C212.753 82.4538 213.713 77.7397 212.154 73.3698C210.161 67.7559 208.458 65.415 207.089 63.5329C206.013 62.0703 205.253 61.0235 204.637 58.8296C203.203 53.7032 195.854 47.9925 187.655 47.9889C186.815 47.9887 185.976 48.051 185.146 48.1754C183.353 46.6303 175.933 40.701 167.791 40.701L167.809 40.6543Z" fill="black"/>
<path d="M167.172 77.6169H167.126C160.404 77.0147 154.539 69.8629 154.292 69.5582C154.202 69.4474 154.16 69.3055 154.175 69.1636C154.19 69.0218 154.26 68.8916 154.371 68.8017C154.482 68.7119 154.624 68.6698 154.765 68.6845C154.907 68.6993 155.038 68.7698 155.127 68.8806C155.185 68.9523 160.957 75.9822 167.219 76.5451C167.362 76.5513 167.496 76.6138 167.592 76.719C167.689 76.8242 167.74 76.9635 167.734 77.1061C167.727 77.2487 167.665 77.383 167.56 77.4794C167.454 77.5759 167.315 77.6267 167.172 77.6205V77.6169Z" fill="black"/>
<path d="M167.045 73.2686C165.517 73.2598 163.996 73.0464 162.525 72.634C162.387 72.596 162.27 72.5048 162.199 72.3804C162.129 72.256 162.11 72.1088 162.148 71.9709C162.186 71.833 162.278 71.7159 162.402 71.6453C162.527 71.5747 162.674 71.5564 162.812 71.5945C175.613 75.1005 180.955 62.2738 181.177 61.7397C181.203 61.6743 181.243 61.6147 181.292 61.5644C181.342 61.5141 181.401 61.4741 181.466 61.4467C181.531 61.4192 181.601 61.4048 181.671 61.4043C181.742 61.4038 181.812 61.4174 181.878 61.444C181.943 61.4706 182.003 61.5098 182.053 61.5594C182.103 61.609 182.143 61.668 182.171 61.7331C182.198 61.7982 182.213 61.868 182.213 61.9386C182.214 62.0093 182.2 62.0793 182.174 62.1447C182.102 62.2702 177.542 73.2686 167.045 73.2686Z" fill="white"/>
<path d="M174.422 108.662C174.422 108.662 199.272 132.322 163.997 128.304C163.997 128.304 156.784 139.929 144.356 133.516C131.927 127.103 137.544 115.477 146.359 112.67C154.01 110.236 174.422 108.662 174.422 108.662Z" fill="white"/>
<path d="M151.631 135.976C148.998 135.933 146.415 135.253 144.102 133.993C138.915 131.316 136.262 127.426 136.632 123.042C137.033 118.299 140.962 113.821 146.189 112.158C153.81 109.735 173.534 108.193 174.369 108.129C174.444 108.123 174.52 108.133 174.591 108.158C174.662 108.183 174.727 108.223 174.782 108.276C175.233 108.706 185.823 118.883 182.955 125.021C181.213 128.752 174.921 130.039 164.253 128.874C163.303 130.237 158.833 135.976 151.631 135.976ZM174.215 109.218C171.892 109.405 153.577 110.939 146.522 113.183C141.776 114.696 138.069 118.88 137.711 123.131C137.381 127.057 139.826 130.573 144.601 133.036C149.573 135.603 154.28 135.546 158.549 132.861C160.526 131.605 162.224 129.958 163.539 128.021C163.592 127.934 163.669 127.864 163.761 127.82C163.852 127.775 163.955 127.758 164.056 127.77C174.265 128.932 180.467 127.824 181.98 124.565C184.353 119.511 175.567 110.548 174.215 109.218Z" fill="black"/>
<path d="M151.043 26.07C150.957 26.0689 150.873 26.0476 150.797 26.0077C150.721 25.9679 150.656 25.9105 150.607 25.8406C150.557 25.7706 150.525 25.6899 150.513 25.6051C150.501 25.5204 150.509 25.434 150.537 25.353C151.77 21.8828 153.817 19.4558 156.631 18.1366C161.564 15.8136 167.027 17.7567 167.257 17.8427C167.381 17.8973 167.48 17.997 167.534 18.1216C167.588 18.2463 167.593 18.3868 167.548 18.5148C167.502 18.6428 167.41 18.7489 167.29 18.8117C167.169 18.8746 167.029 18.8896 166.898 18.8536C166.848 18.8321 161.618 16.9787 157.094 19.1153C154.563 20.309 152.706 22.5281 151.576 25.7151C151.536 25.8231 151.463 25.9156 151.367 25.9794C151.271 26.0431 151.158 26.0749 151.043 26.07V26.07Z" fill="black"/>
<path d="M155.953 36.2763C155.86 36.2766 155.768 36.2525 155.687 36.2064C155.606 36.1603 155.538 36.0937 155.49 36.0134C155.442 35.933 155.416 35.8416 155.414 35.7482C155.412 35.6547 155.435 35.5625 155.48 35.4805C157.334 32.0426 159.761 29.9418 162.7 29.2392C167.461 28.0992 171.77 31.0316 171.953 31.1679C172.07 31.2492 172.15 31.3738 172.176 31.5143C172.201 31.6548 172.17 31.7997 172.089 31.9171C172.008 32.0346 171.883 32.1149 171.742 32.1404C171.602 32.1659 171.457 32.1346 171.34 32.0533C171.3 32.0246 167.224 29.2572 162.94 30.2896C160.316 30.9205 158.126 32.8384 156.427 35.9931C156.38 36.0784 156.312 36.1496 156.229 36.1995C156.146 36.2493 156.05 36.2758 155.953 36.2763V36.2763Z" fill="white"/>
<path d="M173.042 112.233V118.245C173.042 118.245 162.62 133.879 142.57 121.052C142.57 121.052 152.4 106.92 157.663 90.1505C157.663 90.1505 150.246 88.1357 151.766 81.4894C153.286 74.843 158.742 73.9612 161.835 75.9472C161.835 75.9472 173.848 85.2499 187.851 59.9121C187.851 59.9121 200.817 66.0064 202.875 79.8404C204.933 93.6744 201.441 109.383 190.687 113.413C179.932 117.442 173.042 112.233 173.042 112.233Z" fill="#FFCDB2"/>
<path d="M187.858 59.9114C187.858 59.9114 200.824 66.0057 202.882 79.8397C204.94 93.6737 201.448 109.383 190.694 113.412C188.133 114.401 185.415 114.918 182.671 114.939C176.637 114.939 173.038 112.232 173.038 112.232V118.244C173.038 118.244 167.797 126.106 157.602 126.106C153.418 126.106 148.403 124.783 142.574 121.051C142.574 121.051 152.404 106.92 157.666 90.1498C157.666 90.1498 150.249 88.135 151.769 81.4887C152.845 76.8284 155.824 75.0181 158.58 75.0181C159.731 75.014 160.86 75.3358 161.835 75.9465C161.835 75.9465 163.987 77.6135 167.536 77.6135C172.364 77.6135 179.778 74.5233 187.851 59.9114H187.858ZM187.851 58.8359C187.658 58.8357 187.469 58.8872 187.303 58.9849C187.138 59.0826 187.001 59.2231 186.908 59.3916C179.079 73.5626 172.049 76.538 167.55 76.538C165.762 76.573 164.005 76.0737 162.502 75.1041L162.427 75.0503C161.278 74.3319 159.95 73.9518 158.595 73.9534C155.601 73.9534 151.966 75.8712 150.733 81.2593C150.016 84.4068 150.963 87.1385 153.486 89.146C154.36 89.8319 155.325 90.3918 156.354 90.8093C151.135 106.794 141.814 120.295 141.717 120.435C141.635 120.554 141.578 120.688 141.549 120.83C141.52 120.971 141.52 121.117 141.549 121.259C141.577 121.401 141.633 121.536 141.714 121.655C141.796 121.775 141.901 121.876 142.022 121.955C147.439 125.421 152.691 127.178 157.631 127.178C168.278 127.178 173.734 119.18 173.96 118.839C174.079 118.662 174.142 118.454 174.142 118.241V114.1C176.812 115.382 179.739 116.035 182.699 116.011C185.573 115.987 188.419 115.447 191.102 114.416C196.408 112.422 200.398 107.651 202.635 100.621C204.588 94.4803 205.065 87.0417 203.968 79.6784C203.094 73.7813 200.115 68.3251 195.365 63.905C193.274 61.9253 190.911 60.2535 188.349 58.9399C188.207 58.8708 188.052 58.8352 187.894 58.8359H187.851Z" fill="black"/>
<path d="M173.241 113.373C173.183 113.372 173.124 113.362 173.069 113.344C166.975 111.304 162.526 104.873 162.34 104.601C162.259 104.483 162.229 104.338 162.255 104.198C162.282 104.057 162.363 103.933 162.481 103.853C162.599 103.773 162.744 103.743 162.884 103.769C163.024 103.796 163.148 103.877 163.228 103.995C163.271 104.059 167.645 110.401 173.41 112.322C173.532 112.361 173.637 112.443 173.705 112.553C173.773 112.663 173.799 112.793 173.778 112.92C173.758 113.048 173.692 113.163 173.594 113.246C173.495 113.329 173.37 113.374 173.241 113.373V113.373Z" fill="black"/>
<path d="M157.852 86.9954C157.755 86.9956 157.659 86.9694 157.575 86.9195C157.491 86.8697 157.422 86.798 157.376 86.7122C156.013 84.1526 155.766 82.0842 156.641 80.5606C157.903 78.3667 160.982 78.2268 161.115 78.2233C161.185 78.2199 161.256 78.2307 161.322 78.2549C161.388 78.2792 161.45 78.3164 161.501 78.3645C161.553 78.4126 161.594 78.4705 161.624 78.5349C161.653 78.5993 161.669 78.6688 161.67 78.7395C161.675 78.8818 161.624 79.0205 161.527 79.1252C161.431 79.2299 161.296 79.2922 161.154 79.2987C161.122 79.2987 158.53 79.4278 157.569 81.0911C156.895 82.2706 157.15 83.9877 158.326 86.196C158.358 86.2577 158.378 86.3252 158.385 86.3946C158.391 86.464 158.384 86.5339 158.363 86.6005C158.343 86.6671 158.309 86.7289 158.264 86.7826C158.22 86.8362 158.165 86.8805 158.103 86.913C158.028 86.9614 157.942 86.9898 157.852 86.9954V86.9954Z" fill="black"/>
<path d="M187.282 80.3266C179.51 80.9145 169.773 76.2219 167.658 78.6812C165.543 81.1404 166.385 84.9403 170.357 86.3886C174.329 87.8369 178.409 88.2635 186.812 88.7331C195.215 89.2027 203.485 89.0378 203.137 84.4635C202.789 79.8892 198.714 79.4626 187.282 80.3266Z" fill="#FFB49F"/>
<path d="M196.221 81.9935H196.168C192.819 81.6673 190.841 78.3872 190.758 78.2474C190.688 78.1248 190.669 77.9797 190.705 77.8434C190.741 77.7071 190.83 77.5905 190.951 77.5186C191.072 77.4466 191.217 77.4252 191.354 77.459C191.491 77.4927 191.609 77.5788 191.683 77.6989C191.708 77.7383 193.475 80.6492 196.275 80.9252C196.418 80.9324 196.552 80.9959 196.648 81.1018C196.743 81.2077 196.793 81.3472 196.786 81.4898C196.779 81.6324 196.715 81.7663 196.61 81.8621C196.504 81.9579 196.364 82.0078 196.221 82.0007V81.9935Z" fill="black"/>
<path d="M188.078 94.2567C187.955 94.256 187.835 94.2129 187.739 94.1347C187.643 94.0564 187.577 93.9477 187.552 93.8265L184.992 81.4873C184.963 81.3476 184.99 81.2021 185.069 81.0827C185.147 80.9634 185.27 80.8801 185.409 80.8511C185.549 80.8221 185.695 80.8498 185.814 80.9281C185.933 81.0064 186.017 81.129 186.046 81.2687L188.605 93.6078C188.62 93.677 188.621 93.7485 188.608 93.818C188.595 93.8876 188.569 93.9539 188.53 94.0132C188.491 94.0725 188.441 94.1235 188.383 94.1635C188.325 94.2034 188.259 94.2314 188.19 94.2459L188.078 94.2567Z" fill="black"/>
<path d="M154.614 92.2238C155.982 92.2238 157.091 91.1147 157.091 89.7466C157.091 88.3786 155.982 87.2695 154.614 87.2695C153.246 87.2695 152.137 88.3786 152.137 89.7466C152.137 91.1147 153.246 92.2238 154.614 92.2238Z" fill="#07ACEE"/>
<path d="M154.618 87.2688C155.089 87.2684 155.551 87.4041 155.948 87.6596C156.399 87.9483 156.744 88.3753 156.932 88.8767C157.12 89.3781 157.14 89.9268 156.99 90.4408C156.84 90.9547 156.527 91.4062 156.099 91.7275C155.671 92.0488 155.15 92.2227 154.614 92.2231C154.142 92.2241 153.68 92.0884 153.284 91.8323C152.833 91.5437 152.488 91.1167 152.3 90.6153C152.112 90.1139 152.091 89.5651 152.242 89.0511C152.392 88.5371 152.705 88.0857 153.133 87.7644C153.561 87.443 154.082 87.2692 154.618 87.2688V87.2688ZM154.618 86.1934C153.763 86.1927 152.936 86.5006 152.29 87.0603C151.643 87.6201 151.22 88.3942 151.099 89.2406C150.977 90.087 151.165 90.9489 151.627 91.6681C152.09 92.3872 152.796 92.9153 153.617 93.1555C154.438 93.3957 155.318 93.3318 156.095 92.9756C156.872 92.6194 157.495 91.9948 157.849 91.2164C158.203 90.438 158.264 89.558 158.022 88.738C157.779 87.9181 157.249 87.2131 156.528 86.7526C155.958 86.3872 155.295 86.1931 154.618 86.1934V86.1934Z" fill="black"/>
<path d="M174.882 86.446C175.656 86.446 176.284 85.8184 176.284 85.0443C176.284 84.2702 175.656 83.6426 174.882 83.6426C174.108 83.6426 173.48 84.2702 173.48 85.0443C173.48 85.8184 174.108 86.446 174.882 86.446Z" fill="black"/>
<path d="M194.124 87.651C194.899 87.651 195.526 87.0234 195.526 86.2493C195.526 85.4752 194.899 84.8477 194.124 84.8477C193.35 84.8477 192.723 85.4752 192.723 86.2493C192.723 87.0234 193.35 87.651 194.124 87.651Z" fill="black"/>
<path d="M182.499 104.024C182.413 104.024 182.328 104.003 182.251 103.963C182.174 103.923 182.108 103.865 182.058 103.794C179.456 100.073 171.684 100.367 171.609 100.374C171.538 100.377 171.467 100.366 171.401 100.342C171.335 100.318 171.273 100.281 171.221 100.233C171.169 100.185 171.127 100.128 171.097 100.064C171.067 99.9998 171.05 99.9305 171.047 99.8599C171.044 99.7893 171.055 99.7188 171.079 99.6524C171.103 99.5859 171.141 99.5249 171.188 99.4728C171.236 99.4208 171.294 99.3785 171.358 99.3487C171.422 99.3188 171.491 99.3019 171.562 99.2989C171.902 99.2989 179.997 98.9726 182.937 103.178C182.977 103.235 183.007 103.3 183.022 103.369C183.037 103.438 183.039 103.509 183.027 103.578C183.014 103.648 182.988 103.714 182.95 103.773C182.912 103.833 182.862 103.883 182.804 103.923C182.716 103.988 182.609 104.023 182.499 104.024V104.024Z" fill="black"/>
<path d="M176.791 80.1039C176.721 80.1098 176.65 80.1017 176.582 80.0801C176.515 80.0586 176.452 80.0239 176.398 79.9781C176.344 79.9323 176.299 79.8764 176.267 79.8134C176.235 79.7504 176.215 79.6816 176.209 79.611C176.203 79.5404 176.211 79.4693 176.233 79.4018C176.254 79.3344 176.289 79.2717 176.335 79.2176C176.381 79.1635 176.436 79.1191 176.499 79.0866C176.562 79.0541 176.631 79.0344 176.702 79.0285C176.745 79.0285 181.083 78.2541 181.545 75.5834C181.57 75.4408 181.65 75.3139 181.769 75.2305C181.887 75.1471 182.033 75.1142 182.176 75.1389C182.319 75.1636 182.446 75.244 182.529 75.3623C182.612 75.4806 182.645 75.6272 182.621 75.7698C182.026 79.1862 177.104 80.0717 176.885 80.0896C176.855 80.0982 176.823 80.1031 176.791 80.1039V80.1039Z" fill="black"/>
<path d="M145.965 120.022C145.833 120.025 145.705 119.977 145.606 119.89C145.553 119.843 145.509 119.787 145.478 119.723C145.446 119.66 145.428 119.591 145.423 119.52C145.418 119.45 145.428 119.379 145.451 119.312C145.473 119.245 145.509 119.183 145.556 119.13C151.044 112.86 156.629 99.3736 156.687 99.2374C156.713 99.1706 156.752 99.1098 156.801 99.0583C156.851 99.0068 156.911 98.9658 156.977 98.9377C157.043 98.9096 157.114 98.8949 157.186 98.8945C157.257 98.8942 157.328 98.9082 157.394 98.9357C157.46 98.9631 157.52 99.0035 157.571 99.0545C157.621 99.1055 157.661 99.166 157.687 99.2325C157.714 99.2991 157.727 99.3703 157.726 99.4419C157.724 99.5135 157.709 99.5841 157.68 99.6497C157.45 100.209 151.969 113.433 146.366 119.84C146.315 119.897 146.254 119.942 146.185 119.974C146.116 120.005 146.041 120.022 145.965 120.022V120.022Z" fill="white"/>
<path d="M316.921 197.376C316.921 197.376 300.85 206.93 308.934 217.068C317.018 227.206 329.762 219.133 329.826 207.41C329.891 195.688 320.796 191.081 316.458 186.564" fill="#FFCDB2"/>
<path d="M317.518 222.24C314.198 222.24 311.036 220.577 308.513 217.415C306.516 214.905 305.767 212.224 306.276 209.421C307.559 202.401 316.274 197.146 316.643 196.927C316.704 196.89 316.771 196.865 316.842 196.854C316.912 196.843 316.985 196.846 317.054 196.863C317.123 196.88 317.189 196.911 317.246 196.953C317.303 196.996 317.352 197.049 317.388 197.111C317.424 197.172 317.448 197.24 317.458 197.311C317.468 197.382 317.463 197.454 317.445 197.523C317.427 197.592 317.395 197.656 317.352 197.713C317.308 197.77 317.254 197.817 317.192 197.852C317.106 197.902 308.527 203.079 307.333 209.618C306.882 212.099 307.563 214.497 309.355 216.744C312.449 220.623 316.568 222.036 320.655 220.62C325.706 218.867 329.258 213.45 329.287 207.42C329.334 198.404 323.788 193.69 319.332 189.905C318.131 188.883 316.995 187.915 316.066 186.951C315.967 186.848 315.913 186.709 315.916 186.566C315.919 186.424 315.979 186.288 316.082 186.189C316.185 186.09 316.323 186.036 316.466 186.039C316.609 186.042 316.745 186.102 316.844 186.205C317.733 187.134 318.848 188.08 320.031 189.073C324.655 193.016 330.427 197.899 330.362 207.413C330.327 213.866 326.48 219.724 321.006 221.623C319.886 222.023 318.707 222.231 317.518 222.24V222.24Z" fill="black"/>
<path d="M318.904 178.693C318.904 178.693 302.832 188.246 310.92 198.384C319.007 208.522 331.748 200.449 331.813 188.727C331.877 177.004 322.782 172.398 318.441 167.881" fill="#FFCDB2"/>
<path d="M319.508 203.542C316.184 203.542 313.026 201.882 310.502 198.717C308.506 196.207 307.753 193.526 308.265 190.726C309.545 183.704 318.26 178.452 318.633 178.229C318.755 178.16 318.9 178.141 319.037 178.177C319.173 178.213 319.29 178.301 319.362 178.422C319.433 178.544 319.455 178.688 319.421 178.825C319.387 178.962 319.301 179.08 319.181 179.154C319.095 179.208 310.513 184.381 309.323 190.92C308.871 193.4 309.549 195.799 311.341 198.047C314.438 201.929 318.554 203.338 322.641 201.922C327.692 200.169 331.244 194.752 331.277 188.722C331.323 179.71 325.777 174.996 321.321 171.207C320.12 170.185 318.984 169.221 318.056 168.253C317.956 168.151 317.9 168.015 317.9 167.873C317.9 167.731 317.956 167.594 318.056 167.493C318.105 167.442 318.165 167.403 318.23 167.375C318.295 167.348 318.365 167.334 318.436 167.334C318.506 167.334 318.576 167.348 318.641 167.375C318.707 167.403 318.766 167.442 318.816 167.493C319.708 168.421 320.823 169.368 322.003 170.361C326.631 174.304 332.399 179.187 332.338 188.704C332.302 195.157 328.455 201.015 322.978 202.915C321.864 203.316 320.691 203.528 319.508 203.542V203.542Z" fill="black"/>
<path d="M317.897 162.913C317.897 162.913 301.826 172.463 309.91 182.601C317.994 192.739 330.738 184.666 330.803 172.943C330.868 161.221 323.157 161.371 317.582 160.002" fill="#FFCDB2"/>
<path d="M318.496 187.763C315.176 187.763 312.014 186.1 309.49 182.938C307.494 180.428 306.741 177.747 307.254 174.944C308.537 167.921 317.252 162.669 317.621 162.45C317.682 162.413 317.749 162.388 317.82 162.377C317.89 162.366 317.962 162.369 318.032 162.386C318.101 162.403 318.166 162.434 318.224 162.476C318.281 162.519 318.329 162.572 318.366 162.634C318.402 162.695 318.426 162.763 318.436 162.834C318.445 162.905 318.441 162.977 318.423 163.046C318.405 163.115 318.373 163.179 318.329 163.236C318.286 163.292 318.231 163.34 318.169 163.375C318.083 163.425 309.505 168.598 308.311 175.141C307.859 177.622 308.541 180.02 310.333 182.267C313.427 186.146 317.546 187.559 321.629 186.139C326.683 184.39 330.232 178.969 330.265 172.943C330.315 163.149 324.909 162.06 319.675 161.006C318.901 160.848 318.169 160.701 317.452 160.525C317.381 160.511 317.314 160.482 317.255 160.441C317.195 160.399 317.145 160.347 317.106 160.285C317.068 160.224 317.042 160.156 317.03 160.084C317.019 160.013 317.022 159.94 317.039 159.869C317.057 159.799 317.088 159.733 317.132 159.675C317.175 159.618 317.23 159.569 317.292 159.533C317.355 159.497 317.425 159.474 317.496 159.465C317.568 159.456 317.641 159.462 317.711 159.482C318.406 159.651 319.127 159.798 319.89 159.952C325.017 160.984 331.397 162.267 331.34 172.947C331.304 179.4 327.458 185.257 321.984 187.157C320.863 187.553 319.684 187.758 318.496 187.763Z" fill="black"/>
<path d="M317.549 215.957C317.407 215.957 317.27 215.901 317.169 215.8C317.068 215.699 317.012 215.562 317.012 215.419C317.012 215.277 317.068 215.14 317.169 215.039C317.27 214.938 317.407 214.882 317.549 214.882V214.882C317.94 214.882 327.189 214.638 327.716 203.267C327.725 203.125 327.789 202.993 327.894 202.897C327.999 202.801 328.137 202.75 328.279 202.754C328.421 202.762 328.555 202.825 328.651 202.93C328.747 203.036 328.798 203.175 328.792 203.317C328.215 215.724 317.678 215.957 317.556 215.957H317.549Z" fill="white"/>
<path d="M318.463 201.385C318.321 201.395 318.18 201.348 318.072 201.254C317.964 201.161 317.898 201.028 317.888 200.885C317.878 200.743 317.925 200.602 318.019 200.494C318.112 200.386 318.245 200.32 318.388 200.31C318.746 200.256 327.684 198.876 329.272 188.917C329.283 188.846 329.308 188.779 329.345 188.718C329.382 188.657 329.431 188.604 329.489 188.562C329.547 188.519 329.612 188.489 329.681 188.472C329.751 188.456 329.823 188.453 329.893 188.464C329.964 188.475 330.032 188.499 330.093 188.537C330.154 188.574 330.207 188.623 330.249 188.681C330.291 188.738 330.322 188.804 330.338 188.873C330.355 188.943 330.358 189.015 330.347 189.086C328.626 199.84 318.65 201.36 318.549 201.374L318.463 201.385Z" fill="white"/>
<path d="M315.85 183.132H315.735C315.664 183.13 315.595 183.113 315.53 183.084C315.466 183.055 315.408 183.014 315.36 182.962C315.311 182.91 315.274 182.85 315.249 182.784C315.224 182.717 315.213 182.647 315.215 182.576C315.217 182.506 315.233 182.436 315.262 182.372C315.291 182.307 315.332 182.249 315.384 182.201C315.436 182.153 315.497 182.116 315.563 182.092C315.629 182.068 315.7 182.057 315.771 182.06C316.23 182.06 326.923 182.308 328.379 171.467C328.388 171.396 328.411 171.328 328.447 171.267C328.483 171.205 328.53 171.151 328.587 171.108C328.644 171.064 328.708 171.033 328.777 171.014C328.846 170.996 328.918 170.991 328.988 171.001C329.059 171.01 329.127 171.033 329.188 171.069C329.25 171.105 329.304 171.152 329.347 171.209C329.391 171.266 329.422 171.33 329.44 171.399C329.459 171.468 329.464 171.54 329.454 171.61C327.941 182.806 317.093 183.132 315.85 183.132Z" fill="white"/>
<path d="M336.421 173.767C336.373 173.769 336.325 173.763 336.278 173.75C336.143 173.708 336.03 173.615 335.963 173.491C335.896 173.367 335.88 173.222 335.92 173.086C337.683 166.831 336.213 161.615 331.553 157.578C329.289 155.672 326.678 154.221 323.864 153.305C323.792 153.289 323.724 153.259 323.665 153.216C323.605 153.173 323.555 153.119 323.517 153.056C323.48 152.993 323.456 152.923 323.446 152.85C323.436 152.777 323.442 152.703 323.462 152.633C323.482 152.562 323.516 152.496 323.563 152.44C323.609 152.383 323.667 152.336 323.732 152.302C323.797 152.269 323.869 152.249 323.942 152.243C324.015 152.238 324.088 152.248 324.157 152.273C324.333 152.319 341.458 157.413 336.955 173.377C336.922 173.492 336.852 173.593 336.755 173.663C336.659 173.734 336.541 173.771 336.421 173.767Z" fill="black"/>
<defs>
<filter id="filter0_d_15153_51484" x="-4.0192" y="107.785" width="38.6829" height="38.6849" filterUnits="userSpaceOnUse" color-interpolation-filters="sRGB">
<feFlood flood-opacity="0" result="BackgroundImageFix"/>
<feColorMatrix in="SourceAlpha" type="matrix" values="0 0 0 0 0 0 0 0 0 0 0 0 0 0 0 0 0 0 127 0" result="hardAlpha"/>
<feOffset dy="2.03704"/>
<feGaussianBlur stdDeviation="5.09261"/>
<feComposite in2="hardAlpha" operator="out"/>
<feColorMatrix type="matrix" values="0 0 0 0 0 0 0 0 0 0 0 0 0 0 0 0 0 0 0.05 0"/>
<feBlend mode="normal" in2="BackgroundImageFix" result="effect1_dropShadow_15153_51484"/>
<feBlend mode="normal" in="SourceGraphic" in2="effect1_dropShadow_15153_51484" result="shape"/>
</filter>
<filter id="filter1_d_15153_51484" x="370.651" y="165.211" width="38.6868" height="38.6888" filterUnits="userSpaceOnUse" color-interpolation-filters="sRGB">
<feFlood flood-opacity="0" result="BackgroundImageFix"/>
<feColorMatrix in="SourceAlpha" type="matrix" values="0 0 0 0 0 0 0 0 0 0 0 0 0 0 0 0 0 0 127 0" result="hardAlpha"/>
<feOffset dy="2.03704"/>
<feGaussianBlur stdDeviation="5.09261"/>
<feComposite in2="hardAlpha" operator="out"/>
<feColorMatrix type="matrix" values="0 0 0 0 0 0 0 0 0 0 0 0 0 0 0 0 0 0 0.05 0"/>
<feBlend mode="normal" in2="BackgroundImageFix" result="effect1_dropShadow_15153_51484"/>
<feBlend mode="normal" in="SourceGraphic" in2="effect1_dropShadow_15153_51484" result="shape"/>
</filter>
<linearGradient id="paint0_linear_15153_51484" x1="20.4547" y1="112.038" x2="392.053" y2="200.547" gradientUnits="userSpaceOnUse">
<stop stop-color="#CDD5E2"/>
<stop offset="1" stop-color="#CDD5E2" stop-opacity="0"/>
</linearGradient>
<linearGradient id="paint1_linear_15153_51484" x1="391.411" y1="195.438" x2="353.85" y2="294.045" gradientUnits="userSpaceOnUse">
<stop stop-color="#CDD5E2"/>
<stop offset="1" stop-color="#CDD5E2" stop-opacity="0"/>
</linearGradient>
<linearGradient id="paint2_linear_15153_51484" x1="196.502" y1="23.2598" x2="196.502" y2="365.005" gradientUnits="userSpaceOnUse">
<stop stop-color="#CDD5E2"/>
<stop offset="1" stop-color="#CDD5E2" stop-opacity="0"/>
</linearGradient>
<linearGradient id="paint3_linear_15153_51484" x1="196.505" y1="57.4336" x2="196.505" y2="330.83" gradientUnits="userSpaceOnUse">
<stop stop-color="#CDD5E2"/>
<stop offset="1" stop-color="#CDD5E2" stop-opacity="0"/>
</linearGradient>
</defs>
</svg>
