<svg width="406" height="302" viewBox="0 0 406 302" fill="none" xmlns="http://www.w3.org/2000/svg">
<mask id="mask0_2839_20898" style="mask-type:alpha" maskUnits="userSpaceOnUse" x="0" y="0" width="406" height="302">
<rect width="405.823" height="301.875" fill="#D9D9D9"/>
</mask>
<g mask="url(#mask0_2839_20898)">
<g opacity="0.5">
<mask id="path-2-inside-1_2839_20898" fill="white">
<path d="M389.979 202.565C391.995 156.308 377.371 110.86 348.759 74.4588C320.146 38.0574 279.439 13.1119 234.015 4.14415C188.592 -4.82363 141.458 2.77982 101.159 25.5762C60.859 48.3727 30.0607 84.8533 14.3462 128.405L15.1858 128.708C30.8279 85.357 61.4843 49.0446 101.598 26.3532C141.712 3.66186 188.628 -3.90654 233.842 5.0199C279.057 13.9463 319.576 38.7768 348.057 75.0104C376.537 111.244 391.094 156.483 389.087 202.526L389.979 202.565Z"/>
</mask>
<path d="M389.979 202.565C391.995 156.308 377.371 110.86 348.759 74.4588C320.146 38.0574 279.439 13.1119 234.015 4.14415C188.592 -4.82363 141.458 2.77982 101.159 25.5762C60.859 48.3727 30.0607 84.8533 14.3462 128.405L15.1858 128.708C30.8279 85.357 61.4843 49.0446 101.598 26.3532C141.712 3.66186 188.628 -3.90654 233.842 5.0199C279.057 13.9463 319.576 38.7768 348.057 75.0104C376.537 111.244 391.094 156.483 389.087 202.526L389.979 202.565Z" stroke="url(#paint0_linear_2839_20898)" stroke-width="2.84788" stroke-dasharray="4.27 4.27" mask="url(#path-2-inside-1_2839_20898)"/>
</g>
<g opacity="0.5">
<mask id="path-3-inside-2_2839_20898" fill="white">
<path d="M14.6043 260.573C30.4892 304.064 61.4301 340.423 101.819 363.062C142.207 385.7 189.37 393.119 234.758 383.974C280.146 374.828 320.756 349.724 349.225 313.211C377.695 276.697 392.141 231.193 389.944 184.944L389.052 184.987C391.239 231.022 376.86 276.317 348.521 312.662C320.183 349.006 279.761 373.995 234.582 383.099C189.403 392.202 142.457 384.817 102.255 362.283C62.0527 339.749 31.2544 303.557 15.4428 260.267L14.6043 260.573Z"/>
</mask>
<path d="M14.6043 260.573C30.4892 304.064 61.4301 340.423 101.819 363.062C142.207 385.7 189.37 393.119 234.758 383.974C280.146 374.828 320.756 349.724 349.225 313.211C377.695 276.697 392.141 231.193 389.944 184.944L389.052 184.987C391.239 231.022 376.86 276.317 348.521 312.662C320.183 349.006 279.761 373.995 234.582 383.099C189.403 392.202 142.457 384.817 102.255 362.283C62.0527 339.749 31.2544 303.557 15.4428 260.267L14.6043 260.573Z" stroke="url(#paint1_linear_2839_20898)" stroke-width="2.84788" stroke-dasharray="4.27 4.27" mask="url(#path-3-inside-2_2839_20898)"/>
</g>
<circle opacity="0.08" cx="196.502" cy="194.132" r="170.873" fill="url(#paint2_linear_2839_20898)"/>
<circle opacity="0.1" cx="196.505" cy="194.132" r="136.698" fill="url(#paint3_linear_2839_20898)"/>
<circle cx="196.503" cy="194.134" r="91.1321" fill="white"/>
<g filter="url(#filter0_d_2839_20898)">
<circle cx="15.3224" cy="125.091" r="7.11969" transform="rotate(-2.50406 15.3224 125.091)" fill="#0170FF"/>
<circle cx="15.3224" cy="125.091" r="8.13822" transform="rotate(-2.50406 15.3224 125.091)" stroke="white" stroke-width="2.03704"/>
</g>
<g filter="url(#filter1_d_2839_20898)">
<circle cx="389.995" cy="182.518" r="7.11969" transform="rotate(-15.7345 389.995 182.518)" fill="#0170FF"/>
<circle cx="389.995" cy="182.518" r="8.13822" transform="rotate(-15.7345 389.995 182.518)" stroke="white" stroke-width="2.03704"/>
</g>
</g>
<path d="M312.163 293H68.1464C67.9625 293 67.7862 292.927 67.6562 292.797C67.5262 292.667 67.4531 292.49 67.4531 292.307C67.4531 292.123 67.5262 291.946 67.6562 291.816C67.7862 291.686 67.9625 291.613 68.1464 291.613H312.163C312.347 291.613 312.523 291.686 312.653 291.816C312.783 291.946 312.856 292.123 312.856 292.307C312.856 292.49 312.783 292.667 312.653 292.797C312.523 292.927 312.347 293 312.163 293Z" fill="#1D1D1B"/>
<path d="M94.1423 280.521H46.6561C46.4723 280.521 46.296 280.448 46.166 280.318C46.036 280.188 45.9629 280.012 45.9629 279.828C45.9629 279.644 46.036 279.468 46.166 279.338C46.296 279.208 46.4723 279.135 46.6561 279.135H94.1423C94.3261 279.135 94.5024 279.208 94.6324 279.338C94.7624 279.468 94.8355 279.644 94.8355 279.828C94.8355 280.012 94.7624 280.188 94.6324 280.318C94.5024 280.448 94.3261 280.521 94.1423 280.521Z" fill="#1D1D1B"/>
<path d="M334.346 280.521H296.912C296.728 280.521 296.552 280.448 296.422 280.318C296.292 280.188 296.219 280.012 296.219 279.828C296.219 279.644 296.292 279.468 296.422 279.338C296.552 279.208 296.728 279.135 296.912 279.135H334.346C334.53 279.135 334.706 279.208 334.836 279.338C334.966 279.468 335.04 279.644 335.04 279.828C335.04 280.012 334.966 280.188 334.836 280.318C334.706 280.448 334.53 280.521 334.346 280.521Z" fill="#1D1D1B"/>
<path d="M133.394 60.647C133.394 44.6543 116.119 31.6875 94.8093 31.6875C73.4994 31.6875 56.2207 44.6543 56.2207 60.647C56.2207 76.6398 73.496 89.6101 94.8093 89.6101C97.4156 89.6117 100.018 89.4135 102.594 89.0175L111.346 97.506L113.395 86.0331C125.315 81.1042 133.394 71.5862 133.394 60.647Z" fill="white"/>
<path d="M94.8095 31.6883C116.119 31.6883 133.395 44.655 133.395 60.6478C133.395 71.587 125.319 81.0981 113.395 86.0338L111.346 97.5068L102.594 89.0182C100.018 89.4143 97.4159 89.6124 94.8095 89.6109C73.4962 89.6109 56.221 76.6441 56.221 60.6478C56.221 44.6516 73.4962 31.6883 94.8095 31.6883ZM94.8095 30.6484C84.2759 30.6484 74.3592 33.7367 66.8966 39.3415C59.3404 45.0121 55.1777 52.5821 55.1777 60.6513C55.1777 68.7205 59.337 76.294 66.8966 81.9646C74.3661 87.5693 84.2759 90.6542 94.8095 90.6542C97.2959 90.6545 99.7793 90.4796 102.241 90.1308L110.619 98.2589C110.814 98.4485 111.075 98.5543 111.346 98.5536C111.455 98.5535 111.563 98.536 111.665 98.5016C111.843 98.4419 112.001 98.3353 112.123 98.1932C112.245 98.051 112.326 97.8786 112.359 97.694L114.307 86.7756C126.729 81.4551 134.41 71.4865 134.41 60.6513C134.41 52.5821 130.251 45.0121 122.691 39.3415C115.225 33.7367 105.312 30.6484 94.7818 30.6484H94.8095Z" fill="black"/>
<path d="M121.177 74.4669C121.603 74.0348 122.012 73.5819 122.404 73.1082L122.675 72.7616L122.807 72.5917C122.855 72.5293 122.807 72.5917 122.807 72.5917L122.893 72.4808C123.07 72.2451 123.24 72.0024 123.413 71.7598C124.087 70.7847 124.678 69.7552 125.181 68.6819C125.24 68.5571 125.295 68.4288 125.354 68.3006L125.437 68.1099C125.437 68.1099 125.482 68.006 125.458 68.0649C125.434 68.1238 125.486 67.9991 125.489 67.9887C125.604 67.7079 125.715 67.4271 125.815 67.1463C126.012 66.601 126.186 66.0499 126.338 65.493C126.491 64.9361 126.619 64.3653 126.723 63.7807C126.748 63.6455 126.768 63.5104 126.789 63.3717L126.82 63.1672C126.822 63.1337 126.822 63.1002 126.82 63.0667C126.82 62.9523 126.82 63.1638 126.82 63.0459C126.859 62.7652 126.89 62.4775 126.914 62.1933C127.011 61.0396 127.005 59.8795 126.893 58.7271C126.893 58.585 126.862 58.4428 126.844 58.3042C126.844 58.2383 126.845 58.1726 126.82 58.1102C126.82 58.2349 126.82 58.0408 126.82 58.0027C126.779 57.7323 126.734 57.4619 126.682 57.1951C126.578 56.6578 126.449 56.1275 126.304 55.6007C126.158 55.0738 125.974 54.5296 125.777 54.0028C125.732 53.8814 125.684 53.7566 125.635 53.6353L125.562 53.4481C125.562 53.4169 125.472 53.2368 125.517 53.3407C125.403 53.0739 125.285 52.8139 125.17 52.5539C124.683 51.5352 124.118 50.556 123.479 49.6251C123.319 49.394 123.157 49.1629 122.99 48.9318L122.866 48.7688L122.81 48.6961C122.72 48.5782 122.626 48.4638 122.536 48.3495C122.169 47.8873 121.786 47.4506 121.389 47.0392C120.599 46.2089 119.749 45.4385 118.845 44.7343L118.72 44.6407L118.55 44.516C118.429 44.4258 118.308 44.3357 118.183 44.2491C118.027 44.1527 117.913 43.9999 117.867 43.8224C117.821 43.6449 117.844 43.4564 117.933 43.2959C117.979 43.217 118.04 43.1479 118.112 43.0927C118.185 43.0375 118.268 42.9971 118.356 42.9739C118.444 42.9507 118.536 42.9452 118.627 42.9576C118.717 42.9701 118.804 43.0002 118.883 43.0463C120.893 44.473 122.67 46.2036 124.148 48.1761C125.555 50.0539 126.649 52.1468 127.389 54.3737C128.129 56.607 128.463 58.9547 128.376 61.3059C128.276 63.7292 127.75 66.1158 126.82 68.356C125.853 70.6916 124.495 72.845 122.803 74.7234C122.595 74.9556 122.38 75.1844 122.162 75.4166C122.097 75.481 122.021 75.5322 121.937 75.567C121.853 75.6019 121.762 75.6199 121.671 75.6199C121.58 75.6199 121.49 75.6019 121.406 75.567C121.322 75.5322 121.245 75.481 121.181 75.4166C121.116 75.3521 121.064 75.2755 121.029 75.191C120.994 75.1065 120.976 75.0159 120.976 74.9244C120.976 74.8329 120.994 74.7423 121.029 74.6578C121.064 74.5733 121.116 74.4966 121.181 74.4322L121.177 74.4669Z" fill="white"/>
<path d="M81.8106 44.1623C81.9485 44.1664 82.0825 44.1155 82.1829 44.0209C82.2834 43.9264 82.3419 43.7958 82.3461 43.6579C82.3502 43.52 82.2995 43.3862 82.2049 43.2857C82.1103 43.1853 81.9796 43.1265 81.8417 43.1224C65.738 42.0479 52.7263 33.0948 44.6328 25.7709C35.8462 17.7988 30.8168 10.0104 30.7683 9.93064C30.6894 9.82418 30.5729 9.75153 30.4426 9.72746C30.3123 9.70338 30.1779 9.72967 30.0662 9.80091C29.9545 9.87215 29.8739 9.9831 29.8408 10.1114C29.8077 10.2397 29.8246 10.3757 29.8878 10.4921C33.9084 16.3754 38.6163 21.7583 43.9118 26.5265C52.1266 33.9648 65.3602 43.067 81.7723 44.1623H81.8106Z" fill="black"/>
<path d="M62.4904 56.7545C63.4332 56.7545 64.4002 56.7095 65.3949 56.6124C65.5328 56.5991 65.6599 56.5315 65.748 56.4246C65.8361 56.3176 65.8781 56.1801 65.8648 56.0423C65.8514 55.9044 65.7838 55.7775 65.6769 55.6894C65.57 55.6013 65.4323 55.5593 65.2944 55.5726C46.8927 57.3611 37.2396 41.0633 37.1425 40.8969C37.0736 40.7774 36.96 40.6902 36.8267 40.6545C36.6934 40.6187 36.5515 40.6374 36.432 40.7064C36.3125 40.7753 36.2254 40.8888 36.1897 41.0221C36.1539 41.1553 36.1725 41.2973 36.2414 41.4168C38.2148 44.5712 40.6909 47.3813 43.5721 49.7356C47.579 53.0354 53.9741 56.7545 62.4904 56.7545Z" fill="black"/>
<path d="M184.605 135.325C184.605 135.325 211.153 198.867 268.971 201.553C312.506 203.574 309.387 200.801 319.438 184.857C328.235 170.902 332.01 128.397 323.83 119.295C315.65 110.192 307.886 114.213 307.886 114.213L303.172 106.217L272.448 116.3L274.368 122.261C274.368 122.261 264.573 130.234 269.318 140.521C274.063 150.809 278.063 165.852 283.297 169.81C283.297 169.81 215.863 133.249 184.619 143.956" fill="#07ACEE"/>
<path d="M288.309 202.641C283.11 202.641 276.788 202.437 268.948 202.073C255.672 201.456 242.951 197.567 231.132 190.517C221.686 184.884 212.796 177.231 204.709 167.768C198.353 160.278 192.783 152.153 188.089 143.523C186.969 143.768 185.864 144.077 184.779 144.448L184.433 143.464C185.434 143.117 186.478 142.823 187.552 142.566C185.271 138.296 184.128 135.589 184.086 135.523L185.046 135.124C185.074 135.19 186.249 137.967 188.592 142.337C201.718 139.665 220.927 143.031 245.807 152.389C257.728 156.921 269.391 162.105 280.743 167.918C278.022 164.233 275.641 157.997 273.152 151.478C271.765 147.804 270.299 144.008 268.795 140.733C264.4 131.187 272.143 123.516 273.72 122.088L271.744 115.96L303.359 105.586L308.052 113.558C309.886 112.865 316.957 110.91 324.18 118.948C328.035 123.236 329.643 134.955 328.485 150.296C327.383 164.881 323.979 178.555 319.844 185.134C318.877 186.666 318.014 188.108 317.255 189.38C311.38 199.258 309.352 202.641 288.309 202.641ZM189.153 143.305C193.787 151.777 199.271 159.755 205.521 167.117C218.103 181.831 239.326 199.657 268.996 201.033C308.025 202.846 309.137 200.981 316.399 188.846C317.165 187.571 318.028 186.122 319.002 184.579C323.068 178.132 326.395 164.646 327.487 150.216C328.607 135.377 327.061 123.662 323.445 119.645C315.65 110.979 308.416 114.522 308.111 114.674L307.675 114.899L307.425 114.477L302.919 106.851L273.083 116.643L274.954 122.452L274.681 122.674C274.292 122.989 265.256 130.511 269.772 140.313C271.291 143.609 272.746 147.422 274.153 151.11C277.096 158.822 280.143 166.798 283.592 169.408L283.03 170.278C270.862 163.885 258.317 158.236 245.464 153.363C221.35 144.303 202.027 140.857 189.153 143.305V143.305Z" fill="#1D1D1B"/>
<path d="M152.839 114.271C152.839 114.271 151.49 130.434 140.073 126.947C128.655 123.46 110.448 119.128 103.63 136.07C96.812 153.013 93.7582 164.943 80.9057 164.513C68.0533 164.083 51.8249 202.776 86.157 213.767C142.423 231.791 183.556 130.091 183.556 130.091L173.442 121.121L152.839 114.271Z" fill="#382256"/>
<path d="M152.838 114.272L173.433 121.121L183.548 130.091C183.548 130.091 149.718 213.754 101.438 215.868C96.2595 216.085 91.0839 215.374 86.156 213.767C52.264 202.915 67.6433 165.075 80.4091 164.517C80.5755 164.517 80.7556 164.517 80.9046 164.517C81.4107 164.517 81.8961 164.517 82.371 164.517C93.9999 164.007 97.0778 152.358 103.629 136.077C107.241 127.1 114.055 124.095 121.358 123.776C127.836 123.492 134.703 125.318 140.075 126.954C141.178 127.31 142.334 127.474 143.493 127.44C151.773 127.093 152.851 114.268 152.851 114.268L152.838 114.272ZM152.806 113.229C152.618 113.235 152.436 113.294 152.28 113.398C152.149 113.485 152.04 113.599 151.961 113.734C151.881 113.868 151.832 114.019 151.819 114.175C151.819 114.334 150.713 126.071 143.458 126.389C142.417 126.416 141.379 126.267 140.387 125.949C134.637 124.192 127.874 122.438 121.323 122.722C112.249 123.121 105.975 127.478 102.676 135.675C101.927 137.54 101.223 139.339 100.544 141.075C95.3758 154.302 91.9619 163.04 82.3365 163.463C81.8893 163.484 81.4249 163.484 80.95 163.463C80.7594 163.463 80.5687 163.463 80.3746 163.463C77.0089 163.609 73.5045 165.949 70.5028 170.049C67.4714 174.308 65.5324 179.246 64.8565 184.43C64.0073 190.763 65.1235 196.752 68.087 201.761C71.626 207.733 77.6016 212.1 85.851 214.741C90.8966 216.379 96.1933 217.107 101.494 216.89C112.734 216.398 124.11 211.507 135.302 202.36C144.19 195.081 152.98 185.137 161.461 172.759C175.853 151.73 184.432 130.677 184.518 130.473C184.597 130.274 184.613 130.057 184.564 129.849C184.515 129.641 184.404 129.453 184.244 129.311L174.13 120.338C174.029 120.247 173.911 120.176 173.783 120.13L153.188 113.28C153.068 113.242 152.942 113.226 152.817 113.232L152.806 113.229Z" fill="black"/>
<path opacity="0.2" d="M173.436 121.121L152.84 114.271C152.84 114.271 152.175 122.244 147.828 125.779L162.428 139.796C162.428 139.796 144.057 151.581 137.125 165.099C132.463 174.191 114.699 214.942 126.847 207.226C137.641 200.37 147.256 190.197 155.364 179.47C163.769 158.115 173.464 133.463 177.016 124.296L173.436 121.121Z" fill="#050505"/>
<path d="M120.141 292.308C120.141 292.308 121.527 143.61 182.958 146.213C280.01 150.328 272.256 292.308 272.256 292.308H120.141Z" fill="#07ACEE"/>
<path d="M272.748 292.826H119.617V292.307C120.057 273.781 121.691 255.302 124.511 236.987C127.215 219.701 130.858 204.513 135.336 191.844C140.948 175.969 147.908 164.014 156.015 156.316C163.883 148.843 172.954 145.273 182.978 145.696C205.629 146.656 224.461 155.238 238.946 171.203C247.66 180.801 254.859 193.151 260.343 207.903C264.727 219.688 268.034 233.032 270.169 247.559C273.808 272.279 272.782 292.14 272.772 292.338L272.748 292.826ZM120.667 291.787H271.756C271.888 288.584 272.45 270.151 269.143 247.683C265.802 224.991 257.705 193.425 238.176 171.896C223.886 156.146 205.3 147.682 182.937 146.732C173.204 146.316 164.389 149.796 156.736 157.065C138.615 174.271 129.773 210.097 125.541 237.132C122.764 255.229 121.136 273.484 120.667 291.787V291.787Z" fill="#1D1D1B"/>
<path d="M171.856 90.5567C179.909 90.5567 186.437 84.0281 186.437 75.9747C186.437 67.9212 179.909 61.3926 171.856 61.3926C163.802 61.3926 157.273 67.9212 157.273 75.9747C157.273 84.0281 163.802 90.5567 171.856 90.5567Z" fill="#382256"/>
<path d="M169.067 61.6591C172.245 61.0397 175.538 61.4953 178.428 62.9541C181.318 64.4129 183.64 66.7919 185.029 69.7162C186.418 72.6405 186.794 75.9439 186.098 79.1055C185.402 82.2672 183.674 85.1075 181.186 87.1787C178.698 89.2499 175.592 90.4343 172.356 90.5452C169.121 90.6561 165.941 89.6873 163.317 87.7913C160.693 85.8953 158.774 83.18 157.864 80.0734C156.953 76.9667 157.102 73.6454 158.287 70.6329C159.178 68.3473 160.634 66.3252 162.52 64.7557C164.405 63.1863 166.658 62.1208 169.067 61.6591V61.6591ZM168.869 60.6434C165.184 61.3622 161.882 63.3859 159.569 66.3431C157.256 69.3003 156.088 72.9927 156.278 76.7422C156.468 80.4917 158.004 84.0469 160.604 86.7551C163.204 89.4633 166.694 91.1428 170.432 91.4852C174.171 91.8277 177.908 90.8102 180.957 88.6194C184.006 86.4286 186.162 83.2117 187.03 79.559C187.898 75.9064 187.42 72.0633 185.682 68.735C183.945 65.4068 181.066 62.8169 177.573 61.4407C174.808 60.3488 171.787 60.0722 168.869 60.6434V60.6434Z" fill="black"/>
<path d="M216.561 117.373C216.561 117.373 225.851 107.668 220.721 99.0026C215.591 90.3373 213.296 91.3286 210.891 86.5834C208.485 81.8383 199.189 77.7032 191.331 80.7811C191.331 80.7811 180.628 74.1955 171.782 77.3566C162.937 80.5177 160.174 85.1345 158.243 92.4481C156.313 99.7617 154.036 103.138 152.504 108.233C150.972 113.328 149.273 127.401 169.45 135.81C189.626 144.218 216.561 117.373 216.561 117.373Z" fill="#382256"/>
<path d="M173.835 76.8058C182.199 75.1732 191.329 80.7918 191.329 80.7918C192.178 80.4599 193.055 80.2047 193.949 80.0293C201.138 78.6255 208.746 82.3655 210.888 86.5941C213.294 91.3393 215.585 90.3411 220.718 99.0134C225.852 107.686 216.559 117.384 216.559 117.384C216.559 117.384 200.268 133.619 183.54 136.888C178.754 137.824 173.929 137.699 169.444 135.848C149.267 127.439 150.965 113.367 152.497 108.271C154.029 103.176 156.31 99.7967 158.238 92.4866C160.165 85.1765 162.934 80.563 171.776 77.395C172.447 77.1575 173.134 76.9699 173.832 76.8335L173.835 76.8058ZM173.634 75.8179C172.885 75.9632 172.148 76.1648 171.43 76.421C162.171 79.7346 159.215 84.7398 157.236 92.2197C156.345 95.5309 155.198 98.7676 153.804 101.901C152.923 103.879 152.156 105.907 151.506 107.973C150.207 112.297 150.328 116.923 151.853 121.172C154.279 127.803 160.064 133.061 169.042 136.801C173.367 138.607 178.313 138.985 183.734 137.924C192.563 136.191 201.221 130.902 206.93 126.767C210.581 124.138 214.042 121.254 217.287 118.136V118.136C218.972 116.281 220.383 114.194 221.477 111.939C223.831 107.02 223.869 102.386 221.585 98.528C218.663 93.5888 216.618 91.6894 214.975 90.1643C213.696 88.9754 212.774 88.1193 211.786 86.1713C209.467 81.5891 201.478 77.5441 193.727 79.0588C192.938 79.213 192.16 79.425 191.402 79.6931C189.419 78.5631 181.308 74.3309 173.613 75.8352L173.634 75.8179Z" fill="black"/>
<path d="M179.851 110.85H179.806C173.339 111.522 166.472 105.845 166.181 105.602C166.129 105.559 166.086 105.505 166.055 105.445C166.023 105.384 166.004 105.318 165.998 105.251C165.992 105.183 166 105.115 166.02 105.05C166.041 104.985 166.073 104.925 166.117 104.873C166.161 104.821 166.214 104.778 166.275 104.746C166.335 104.715 166.401 104.695 166.469 104.689C166.536 104.684 166.604 104.691 166.669 104.711C166.734 104.732 166.795 104.765 166.847 104.809C166.916 104.864 173.672 110.448 179.699 109.821C179.835 109.8 179.973 109.835 180.083 109.916C180.193 109.998 180.267 110.12 180.287 110.256C180.307 110.391 180.273 110.529 180.191 110.639C180.109 110.75 179.987 110.823 179.851 110.843V110.85Z" fill="black"/>
<path d="M178.914 106.764C177.467 107.038 175.99 107.118 174.522 107C174.454 106.995 174.387 106.976 174.326 106.945C174.265 106.915 174.21 106.872 174.166 106.82C174.121 106.769 174.087 106.708 174.066 106.643C174.044 106.578 174.035 106.51 174.04 106.442C174.045 106.373 174.064 106.307 174.095 106.245C174.125 106.184 174.168 106.13 174.22 106.085C174.272 106.04 174.332 106.006 174.397 105.985C174.462 105.963 174.53 105.955 174.599 105.96C187.354 106.903 190.037 93.8005 190.144 93.2425C190.177 93.114 190.258 93.0031 190.37 92.9322C190.482 92.8613 190.617 92.8358 190.747 92.8611C190.877 92.8863 190.993 92.9603 191.07 93.0679C191.147 93.1755 191.181 93.3087 191.163 93.4401C191.139 93.5752 188.851 104.823 178.914 106.764Z" fill="white"/>
<path d="M192.448 138.867C192.448 138.867 220.322 156.635 186.209 159.366C186.209 159.366 181.533 171.695 168.597 167.927C155.661 164.16 158.819 152.129 166.639 147.844C173.439 144.129 192.448 138.867 192.448 138.867Z" fill="white"/>
<path d="M175.945 168.912C173.45 169.354 170.886 169.187 168.469 168.426C163.068 166.856 159.842 163.667 159.384 159.449C158.885 154.891 161.772 149.935 166.407 147.394C173.166 143.692 191.533 138.586 192.309 138.382C192.379 138.363 192.453 138.358 192.525 138.369C192.597 138.38 192.667 138.405 192.728 138.444C193.234 138.767 205.127 146.434 203.553 152.766C202.593 156.621 196.884 159.005 186.569 159.872C185.924 161.324 182.756 167.574 175.945 168.912ZM192.361 139.449C190.198 140.056 173.162 144.895 166.906 148.319C162.698 150.624 159.973 155.252 160.414 159.356C160.826 163.127 163.789 166 168.76 167.449C173.935 168.957 178.361 168.035 181.931 164.704C183.563 163.149 184.86 161.277 185.744 159.203C185.776 159.108 185.835 159.025 185.914 158.963C185.993 158.902 186.088 158.865 186.188 158.856C196.056 158.066 201.713 155.872 202.551 152.51C203.844 147.29 193.879 140.437 192.361 139.429V139.449Z" fill="black"/>
<path d="M155.073 65.0878C155.014 65.0983 154.954 65.0983 154.896 65.0878C154.828 65.0781 154.763 65.0551 154.705 65.0201C154.646 64.9852 154.595 64.939 154.555 64.8842C154.514 64.8295 154.485 64.7671 154.468 64.7009C154.452 64.6348 154.449 64.566 154.459 64.4986C154.986 60.9909 156.469 58.315 158.875 56.5508C163.111 53.4312 168.636 54.2701 168.868 54.3082C168.935 54.3183 168.999 54.3416 169.057 54.3768C169.115 54.412 169.166 54.4583 169.206 54.5131C169.246 54.5679 169.274 54.63 169.29 54.696C169.306 54.762 169.309 54.8305 169.298 54.8974C169.276 55.0334 169.202 55.1553 169.091 55.2365C168.98 55.3177 168.841 55.3516 168.705 55.3307C168.653 55.3307 163.364 54.5369 159.482 57.3895C157.312 58.9874 155.967 61.4311 155.485 64.6511C155.47 64.7576 155.422 64.8569 155.348 64.9351C155.274 65.0133 155.178 65.0667 155.073 65.0878V65.0878Z" fill="black"/>
<path d="M170.457 207.734C170.457 207.734 173.972 222.493 230.768 233.647C287.564 244.801 298.011 219.477 297.46 202.989C296.909 186.5 298.036 157.049 290.258 147.6C282.48 138.151 274.535 141.829 274.535 141.829L270.175 133.635L239.042 142.373L240.702 148.414C240.702 148.414 230.571 155.939 234.862 166.438C239.153 176.937 242.487 192.122 247.555 196.306C247.555 196.306 190.308 140.633 160.125 168.057" fill="#07ACEE"/>
<path d="M256.12 236.925C248.585 236.925 240.102 236.001 230.672 234.153C174.195 223.061 170.101 208.468 169.952 207.851L170.964 207.605C170.964 207.643 171.98 211.273 179.834 216.215C187.113 220.787 201.844 227.432 230.873 233.133C257.216 238.301 276.117 236.198 287.077 226.874C296.088 219.203 297.128 208.624 296.945 203.002C296.854 200.229 296.813 197.11 296.764 193.8C296.536 177.703 296.224 155.655 289.86 147.925C282.449 138.913 275.066 142.154 274.758 142.296L274.311 142.501L274.082 142.068L269.923 134.244L239.691 142.73L241.31 148.622L241.025 148.833C240.623 149.132 231.268 156.251 235.355 166.244C236.741 169.599 238.017 173.471 239.261 177.218C241.687 184.497 244.186 192.011 247.202 195.242C247.663 195.671 247.912 195.911 247.93 195.935L247.237 196.708C246.962 196.482 246.703 196.237 246.46 195.976C243.296 193.016 230.416 181.342 214.894 172.341C204.454 166.289 194.884 162.611 186.451 161.419C175.983 159.935 167.249 162.299 160.486 168.445L159.793 167.675C166.798 161.311 175.82 158.857 186.61 160.396C195.179 161.61 204.881 165.332 215.438 171.457C227.778 178.615 238.457 187.453 243.965 192.313C241.92 188.5 240.134 183.124 238.283 177.554C237.043 173.824 235.757 169.966 234.398 166.642C230.419 156.913 238.488 149.589 240.128 148.23L238.419 142.022L270.453 133.031L274.799 141.191C276.661 140.574 283.811 138.934 290.678 147.277C297.263 155.291 297.576 176.642 297.818 193.8C297.867 197.106 297.908 200.233 297.998 202.981C298.189 208.791 297.115 219.726 287.766 227.678C280.501 233.834 269.905 236.925 256.12 236.925Z" fill="#1D1D1B"/>
<path d="M241.453 148.809C241.453 148.809 253.238 159.554 274.381 142.57L269.875 134.598L240.066 142.916L241.453 148.809Z" fill="#0598C6"/>
<path d="M275.318 122.435C275.318 122.435 287.547 132.671 307.956 114.81L303.103 107.035L273.672 116.605L275.318 122.435Z" fill="#0598C6"/>
<path d="M161.599 73.8315C161.517 73.8504 161.432 73.8504 161.349 73.8315C161.217 73.7908 161.107 73.6994 161.042 73.5773C160.977 73.4552 160.963 73.3123 161.003 73.18C162.119 69.589 164.029 67.1523 166.677 65.9426C170.968 63.9877 175.589 65.9704 175.783 66.057C175.898 66.1186 175.986 66.2216 176.029 66.3453C176.072 66.4691 176.067 66.6045 176.015 66.7245C175.962 66.8445 175.866 66.9403 175.746 66.9926C175.626 67.0449 175.49 67.05 175.367 67.0067C175.322 66.9859 170.958 65.1246 167.1 66.8889C164.736 67.9703 163.017 70.1921 161.994 73.4745C161.966 73.5639 161.915 73.6443 161.845 73.7071C161.776 73.7699 161.691 73.8128 161.599 73.8315V73.8315Z" fill="white"/>
<path d="M191.799 142.501L192.912 148.185C192.912 148.185 185.945 164.895 164.621 156.469C164.621 156.469 171.304 141.291 173.183 124.459C173.183 124.459 165.796 123.926 166.008 117.361C166.219 110.796 171.207 108.962 174.5 110.259C174.5 110.259 187.584 116.844 196.135 90.2832C196.135 90.2832 209.528 93.6593 214.027 106.352C218.527 119.045 218.121 134.556 208.714 140.348C199.307 146.14 191.799 142.501 191.799 142.501Z" fill="#FFCDB2"/>
<path d="M196.136 90.2835C196.136 90.2835 209.529 93.6596 214.028 106.353C218.527 119.046 218.121 134.557 208.714 140.349C206.477 141.759 204.003 142.753 201.411 143.281C195.706 144.394 191.8 142.501 191.8 142.501L192.912 148.185C192.912 148.185 189.408 156.587 179.769 158.473C175.814 159.246 170.826 158.92 164.621 156.47C164.621 156.47 171.304 141.291 173.183 124.46C173.183 124.46 165.797 123.926 166.008 117.361C166.154 112.768 168.642 110.491 171.252 109.982C172.339 109.764 173.466 109.86 174.5 110.259C174.5 110.259 176.846 111.437 180.198 110.782C184.767 109.888 191.203 105.583 196.142 90.2835H196.136ZM195.945 89.268C195.764 89.3034 195.596 89.3863 195.458 89.5081C195.319 89.6299 195.216 89.7863 195.158 89.9612C190.371 104.81 184.278 108.921 180.008 109.756C178.322 110.118 176.567 109.967 174.968 109.323C174.943 109.309 174.916 109.297 174.888 109.288C173.669 108.816 172.342 108.696 171.058 108.942C168.23 109.496 165.166 111.985 164.979 117.306C164.878 120.425 166.282 122.824 169.041 124.269C169.989 124.755 171 125.105 172.046 125.309C170.063 141.388 163.748 155.88 163.682 156.029C163.626 156.157 163.596 156.295 163.594 156.435C163.592 156.575 163.618 156.714 163.671 156.844C163.724 156.973 163.803 157.09 163.903 157.189C164.002 157.287 164.12 157.364 164.251 157.416C170.011 159.693 175.304 160.386 179.976 159.471C190.028 157.502 193.723 148.931 193.876 148.567C193.956 148.379 193.976 148.171 193.935 147.971L193.169 144.05C195.93 144.772 198.819 144.85 201.615 144.279C204.329 143.726 206.92 142.688 209.265 141.215C213.917 138.349 216.808 133.101 217.622 126.04C218.336 119.871 217.407 112.748 215.012 105.989C213.092 100.575 209.269 95.9646 203.948 92.6613C201.604 91.1767 199.061 90.0318 196.396 89.261C196.247 89.2281 196.093 89.2281 195.945 89.261V89.268Z" fill="black"/>
<path d="M192.199 143.54C192.144 143.548 192.088 143.548 192.032 143.54C185.873 142.742 180.494 137.477 180.268 137.256C180.183 137.157 180.137 137.029 180.141 136.898C180.145 136.767 180.199 136.643 180.29 136.549C180.382 136.456 180.506 136.401 180.637 136.395C180.768 136.389 180.896 136.433 180.996 136.517C181.048 136.569 186.358 141.762 192.164 142.514C192.302 142.509 192.436 142.559 192.537 142.654C192.637 142.748 192.697 142.878 192.701 143.016C192.706 143.154 192.656 143.288 192.561 143.389C192.467 143.49 192.337 143.549 192.199 143.554V143.54Z" fill="black"/>
<path d="M172.768 121.442C172.676 121.46 172.581 121.453 172.493 121.42C172.405 121.388 172.328 121.332 172.269 121.259C170.505 119.096 169.888 117.182 170.436 115.581C171.222 113.273 174.109 112.573 174.231 112.541C174.36 112.521 174.492 112.551 174.601 112.624C174.709 112.697 174.786 112.808 174.817 112.935C174.847 113.062 174.828 113.196 174.763 113.31C174.699 113.424 174.595 113.51 174.47 113.55C174.439 113.55 172.009 114.157 171.413 115.921C170.993 117.162 171.551 118.739 173.073 120.607C173.116 120.66 173.148 120.72 173.168 120.786C173.187 120.851 173.193 120.919 173.186 120.987C173.179 121.054 173.159 121.12 173.126 121.18C173.094 121.239 173.05 121.292 172.997 121.335C172.93 121.388 172.852 121.425 172.768 121.442V121.442Z" fill="black"/>
<path d="M199.369 109.696C192.124 111.685 182.038 109.051 180.506 111.776C178.974 114.5 180.457 117.931 184.481 118.566C188.506 119.2 192.454 118.85 200.478 117.741C208.502 116.632 216.297 114.947 215.126 110.687C213.954 106.427 210.02 106.767 199.369 109.696Z" fill="#FFB49F"/>
<path d="M170.217 127.026C171.535 127.026 172.605 125.957 172.605 124.638C172.605 123.319 171.535 122.25 170.217 122.25C168.898 122.25 167.828 123.319 167.828 124.638C167.828 125.957 168.898 127.026 170.217 127.026Z" fill="#07ACEE"/>
<path d="M169.764 122.296C170.376 122.197 171.004 122.339 171.513 122.694C172.022 123.049 172.373 123.588 172.491 124.198C172.61 124.807 172.487 125.438 172.148 125.958C171.809 126.478 171.281 126.845 170.675 126.983C170.229 127.072 169.767 127.029 169.344 126.861C168.864 126.671 168.458 126.331 168.188 125.891C167.917 125.452 167.797 124.936 167.844 124.422C167.891 123.907 168.104 123.422 168.45 123.039C168.796 122.656 169.257 122.395 169.764 122.296ZM169.566 121.281C168.759 121.439 168.036 121.883 167.529 122.531C167.023 123.179 166.767 123.988 166.809 124.81C166.851 125.631 167.189 126.41 167.759 127.003C168.329 127.596 169.094 127.964 169.913 128.038C170.732 128.113 171.551 127.889 172.219 127.409C172.886 126.928 173.359 126.223 173.548 125.423C173.738 124.622 173.632 123.78 173.251 123.051C172.87 122.322 172.238 121.755 171.473 121.454C170.867 121.215 170.205 121.155 169.566 121.281V121.281Z" fill="black"/>
<path d="M208.273 114.68C209.02 114.68 209.625 114.075 209.625 113.328C209.625 112.582 209.02 111.977 208.273 111.977C207.527 111.977 206.922 112.582 206.922 113.328C206.922 114.075 207.527 114.68 208.273 114.68Z" fill="black"/>
<path d="M189.405 111.425C189.278 111.448 189.147 111.423 189.038 111.355C188.928 111.287 188.848 111.18 188.813 111.056C188.778 110.933 188.789 110.8 188.846 110.684C188.903 110.569 189.001 110.478 189.12 110.431C189.162 110.431 193.121 108.888 193.065 106.271C193.063 106.134 193.116 106.001 193.211 105.903C193.306 105.804 193.437 105.747 193.575 105.744C193.643 105.742 193.71 105.754 193.774 105.779C193.837 105.803 193.895 105.84 193.944 105.887C193.993 105.934 194.032 105.991 194.059 106.053C194.086 106.115 194.1 106.182 194.101 106.25C194.171 109.592 189.679 111.321 189.488 111.394L189.405 111.425Z" fill="black"/>
<path d="M167.626 154.872C167.507 154.894 167.384 154.873 167.279 154.813C167.164 154.744 167.08 154.633 167.045 154.504C167.01 154.375 167.027 154.237 167.092 154.12C171.123 147.187 173.91 133.389 173.941 133.25C173.954 133.183 173.98 133.12 174.017 133.063C174.055 133.007 174.103 132.958 174.16 132.921C174.216 132.883 174.279 132.857 174.346 132.844C174.413 132.831 174.481 132.831 174.547 132.844C174.683 132.871 174.801 132.95 174.878 133.065C174.955 133.179 174.983 133.319 174.957 133.454C174.842 134.026 172.104 147.544 167.986 154.64C167.946 154.702 167.894 154.755 167.831 154.795C167.769 154.835 167.699 154.861 167.626 154.872V154.872Z" fill="white"/>
<path d="M195.126 130.837L195.169 130.85C198.57 131.924 200.237 135.99 200.307 136.163C200.332 136.227 200.344 136.295 200.343 136.363C200.343 136.431 200.328 136.499 200.301 136.562C200.274 136.624 200.235 136.681 200.186 136.729C200.137 136.776 200.079 136.814 200.016 136.839C199.952 136.864 199.885 136.877 199.816 136.876C199.748 136.875 199.68 136.861 199.618 136.834C199.555 136.807 199.498 136.767 199.45 136.718C199.403 136.669 199.365 136.612 199.34 136.548C199.326 136.511 197.783 132.763 194.854 131.841L194.821 131.831C193.363 131.383 191.772 131.711 190.091 132.804C189.975 132.879 189.834 132.905 189.699 132.876C189.564 132.847 189.446 132.766 189.371 132.65C189.296 132.534 189.271 132.393 189.299 132.258C189.328 132.123 189.409 132.005 189.525 131.93C191.477 130.663 193.347 130.291 195.126 130.837Z" fill="#1D1D1B"/>
<path d="M262.755 92.5391C255.182 88.5392 251.14 91.0245 253.743 98.5633C256.346 106.102 273.451 114.892 273.451 114.892L301.181 106.844" fill="#FFCDB2"/>
<path d="M273.382 115.634L273.136 115.51C272.443 115.163 255.75 106.498 253.088 98.7888C251.466 94.0957 252.512 91.9224 253.674 90.9277C255.521 89.3436 258.873 89.7006 263.081 91.9259L262.432 93.1529C258.807 91.2361 255.944 90.8098 254.578 91.9814C253.396 92.9935 253.33 95.2499 254.398 98.3382C256.717 105.052 271.452 113.049 273.528 114.147L300.986 106.175L301.371 107.51L273.382 115.634Z" fill="#1D1E1B"/>
<path d="M300.794 106.464L298.594 102.689C298.594 102.689 301.529 98.5572 300.261 86.7446C298.254 68.0898 284.202 72.4433 284.202 72.4433C278.063 67.3966 271.832 73.757 271.832 73.757C271.832 73.757 263.534 63.6463 258.56 77.6079C255.714 85.58 261.436 95.41 267 102.647" fill="#FFCDB2"/>
<path d="M300.35 106.722L297.975 102.663L298.169 102.389C298.197 102.348 300.97 98.2091 299.746 86.7916C299.088 80.6704 297.057 76.4452 293.705 74.2338C289.431 71.4193 284.405 72.9132 284.346 72.9305L284.08 73.0137L283.861 72.8335C278.173 68.1542 272.423 73.8733 272.194 74.1124L271.788 74.5214L271.421 74.0777C271.39 74.0396 268.177 70.1991 264.787 70.7919C262.482 71.1974 260.548 73.544 259.04 77.7727C256.832 83.9736 259.647 92.2299 267.404 102.32L266.582 102.954C258.593 92.5558 255.727 83.9771 258.059 77.4226C259.702 72.8161 261.907 70.2408 264.614 69.7659C267.91 69.1905 270.853 71.9357 271.862 73.0068C273.38 71.6931 278.87 67.6065 284.308 71.8629C285.48 71.5614 290.107 70.6325 294.256 73.3603C297.885 75.745 300.076 80.2267 300.769 86.6807C301.875 96.9682 299.833 101.533 299.189 102.68L301.237 106.185L300.35 106.722Z" fill="#1D1E1B"/>
<path d="M185.996 117.093C185.858 117.101 185.722 117.053 185.619 116.961C185.516 116.869 185.454 116.74 185.446 116.602C185.438 116.464 185.486 116.329 185.577 116.226C185.669 116.123 185.799 116.061 185.937 116.053L195.295 115.013C195.433 114.997 195.572 115.037 195.68 115.124C195.789 115.21 195.858 115.336 195.874 115.474C195.89 115.612 195.85 115.75 195.763 115.859C195.677 115.968 195.551 116.037 195.413 116.053L186.054 117.093H185.996Z" fill="#1D1D1B"/>
<path d="M229.685 116.744C221.713 112.016 217.207 114.491 219.612 122.786C222.018 131.08 240.08 141.503 240.08 141.503L270.506 134.259" fill="#FFCDB2"/>
<path d="M239.973 142.223L239.733 142.085C238.985 141.655 221.415 131.433 218.937 122.969C217.439 117.839 218.67 115.562 219.976 114.557C222.039 112.955 225.612 113.517 230.028 116.137L229.335 117.33C225.488 115.052 222.403 114.442 220.829 115.652C219.477 116.692 219.283 119.16 220.281 122.584C222.448 130.016 238.077 139.496 240.194 140.75L270.35 133.572L270.672 134.92L239.973 142.223Z" fill="#1D1E1B"/>
<path d="M298.039 85.7874C271.766 97.0523 244.799 106.633 219.011 118.986C216.998 115.025 214.987 111.062 212.977 107.097C238.186 93.6 261.932 77.635 286.573 63.1777L298.039 85.7874Z" fill="#382256"/>
<path d="M218.765 119.693L212.27 106.868L212.72 106.626C228.411 98.2274 243.798 88.7128 258.678 79.5102C267.69 73.9366 277.007 68.1759 286.299 62.7168L286.774 62.4395L298.753 86.0369L298.244 86.2553C288.334 90.5048 278.161 94.574 268.324 98.5185C252.078 105.028 235.281 111.756 219.223 119.444L218.765 119.693ZM213.659 107.333L219.233 118.317C235.177 110.692 251.832 104.033 267.936 97.5826C277.6 93.7109 287.585 89.711 297.322 85.5447L286.348 63.923C277.221 69.292 268.074 74.9487 259.225 80.4218C244.473 89.5377 229.222 98.9587 213.659 107.316V107.333Z" fill="#1D1E1B"/>
<path d="M223.345 118.815C221.411 119.713 219.963 120.399 218.039 121.349C217.617 121.557 217.13 121.59 216.684 121.441C216.237 121.293 215.867 120.974 215.654 120.555L209.568 108.562C209.355 108.143 209.317 107.657 209.46 107.209C209.604 106.762 209.917 106.388 210.334 106.17C212.236 105.176 213.647 104.417 215.533 103.397C215.743 103.281 215.974 103.208 216.213 103.183C216.452 103.159 216.694 103.182 216.924 103.253C217.153 103.323 217.367 103.439 217.551 103.594C217.734 103.749 217.885 103.939 217.994 104.153L224.209 116.402C224.314 116.617 224.375 116.85 224.389 117.089C224.402 117.327 224.368 117.566 224.287 117.791C224.207 118.016 224.082 118.223 223.92 118.399C223.758 118.574 223.563 118.716 223.345 118.815V118.815Z" fill="#4BD657"/>
<path d="M217.255 122.053C216.825 122.055 216.403 121.938 216.036 121.716C215.669 121.493 215.371 121.173 215.175 120.791L209.092 108.798C208.818 108.257 208.769 107.629 208.954 107.052C209.138 106.474 209.543 105.992 210.08 105.71C211.941 104.736 213.345 103.977 215.248 102.937C215.519 102.787 215.818 102.693 216.126 102.661C216.434 102.629 216.746 102.659 217.042 102.75C217.338 102.841 217.613 102.99 217.85 103.19C218.087 103.389 218.282 103.634 218.423 103.911L224.641 116.16C224.781 116.437 224.865 116.739 224.885 117.049C224.906 117.358 224.864 117.669 224.763 117.962C224.661 118.255 224.501 118.525 224.292 118.755C224.084 118.985 223.831 119.17 223.549 119.3V119.3C221.57 120.212 220.135 120.898 218.253 121.827C217.941 121.977 217.6 122.054 217.255 122.053V122.053ZM216.378 103.682C216.163 103.683 215.952 103.738 215.764 103.841C213.854 104.906 212.447 105.661 210.565 106.639C210.27 106.793 210.048 107.057 209.946 107.375C209.844 107.692 209.871 108.036 210.021 108.334L216.107 120.326C216.259 120.624 216.521 120.849 216.837 120.955C217.154 121.061 217.499 121.038 217.799 120.891C219.688 119.959 221.13 119.269 223.119 118.351C223.275 118.28 223.415 118.178 223.531 118.051C223.646 117.924 223.735 117.775 223.79 117.612C223.846 117.45 223.868 117.278 223.855 117.107C223.843 116.936 223.795 116.77 223.716 116.618L217.501 104.368C217.425 104.216 217.318 104.08 217.187 103.97C217.057 103.861 216.905 103.779 216.742 103.73C216.624 103.694 216.501 103.676 216.378 103.675V103.682Z" fill="#1D1E1B"/>
<path d="M305.928 86.6704C292.386 92.4484 278.58 97.5194 264.764 102.597C264.031 102.867 263.224 102.857 262.497 102.571C261.769 102.285 261.173 101.742 260.82 101.044C257.95 95.3946 255.081 89.7425 252.213 84.0881C251.858 83.3894 251.773 82.5844 251.974 81.8267C252.174 81.0691 252.647 80.4119 253.301 79.9807C265.585 71.8873 277.863 63.7973 290.531 56.3139C290.907 56.091 291.324 55.9477 291.758 55.8926C292.191 55.8376 292.631 55.8721 293.05 55.9939C293.47 56.1158 293.86 56.3224 294.196 56.601C294.533 56.8796 294.808 57.2243 295.006 57.6137C299.179 65.8377 303.354 74.0629 307.529 82.2892C307.726 82.6795 307.841 83.1061 307.867 83.5426C307.892 83.9791 307.828 84.4162 307.678 84.8269C307.528 85.2375 307.295 85.613 306.994 85.9301C306.693 86.2472 306.33 86.4992 305.928 86.6704V86.6704Z" fill="#4BD657"/>
<path d="M263.639 103.313C262.954 103.313 262.281 103.124 261.697 102.765C261.113 102.407 260.639 101.893 260.329 101.282L251.723 84.3254C251.309 83.5126 251.21 82.576 251.444 81.6948C251.679 80.8136 252.229 80.0496 252.991 79.549L253.05 79.5109C265.109 71.5631 277.58 63.3449 290.242 55.8684C290.681 55.6107 291.167 55.4449 291.672 55.3811C292.176 55.3174 292.689 55.357 293.178 55.4975C293.665 55.6384 294.118 55.8782 294.508 56.2021C294.898 56.5259 295.216 56.9268 295.445 57.3796L307.968 82.055C308.199 82.5073 308.334 83.0026 308.364 83.5097C308.395 84.0167 308.32 84.5245 308.145 85.0012C307.97 85.4795 307.698 85.917 307.348 86.2866C306.997 86.6562 306.575 86.9501 306.106 87.1503V87.1503C292.588 92.918 278.568 98.0686 265.015 103.049L264.918 103.088C264.508 103.236 264.075 103.313 263.639 103.313V103.313ZM292.128 56.3883C291.65 56.3903 291.18 56.5194 290.769 56.7626C278.131 64.2252 265.67 72.4365 253.622 80.3775L253.563 80.4155C253.014 80.7759 252.618 81.326 252.45 81.9605C252.282 82.595 252.353 83.2692 252.652 83.854L261.255 100.814C261.551 101.397 262.051 101.85 262.66 102.089C263.269 102.328 263.944 102.336 264.558 102.11L264.655 102.075C278.197 97.0981 292.2 91.9544 305.697 86.1937C306.034 86.0508 306.339 85.8401 306.591 85.5747C306.843 85.3094 307.038 84.9951 307.164 84.6512C307.29 84.3074 307.344 83.9413 307.322 83.5758C307.301 83.2103 307.204 82.8531 307.039 82.5265L294.516 57.851C294.352 57.525 294.123 57.2363 293.843 57.0031C293.562 56.7699 293.237 56.5971 292.887 56.4957C292.642 56.425 292.389 56.3889 292.134 56.3883H292.128Z" fill="#1D1E1B"/>
<path d="M316.156 62.01C318.582 66.7932 324.641 81.8917 317.321 85.2955C310.08 88.6611 301.754 75.618 299.213 70.6094C296.673 65.6008 291.058 51.199 298.049 47.3239C305.12 43.4383 313.73 57.2301 316.156 62.01Z" fill="#4BD657"/>
<path d="M314.893 86.355C308.432 86.355 301.704 76.6498 298.751 70.844C295.392 64.2237 290.869 50.6918 297.801 46.8686C298.544 46.4599 299.365 46.2106 300.21 46.1366C301.055 46.0626 301.906 46.1655 302.709 46.4388C309.891 48.6502 316.352 61.2393 316.622 61.7765C316.893 62.3138 323.243 74.9478 320.782 82.0569C320.529 82.8671 320.11 83.6156 319.552 84.2543C318.993 84.893 318.307 85.4079 317.537 85.7657C316.71 86.1547 315.807 86.3559 314.893 86.355V86.355ZM300.681 47.1563C299.852 47.1565 299.036 47.3715 298.314 47.7803C291.846 51.3469 297.111 65.2981 299.701 70.3726C302.29 75.447 310.446 87.9389 317.128 84.8229C317.773 84.5232 318.347 84.0902 318.813 83.5525C319.278 83.0148 319.624 82.3846 319.829 81.7033C321.679 76.3516 317.95 66.6257 315.718 62.2306C313.485 57.8355 307.839 49.0835 302.428 47.4198C301.86 47.2423 301.267 47.1535 300.671 47.1563H300.681Z" fill="#1D1E1B"/>
<path d="M317.324 85.2939C314.766 86.4654 312.201 87.6069 309.629 88.7184C308.834 89.0633 307.937 89.0918 307.121 88.7982C306.305 88.5045 305.631 87.9107 305.238 87.1379L289.429 55.9911C289.038 55.2168 288.956 54.3224 289.202 53.4902C289.447 52.6581 290.001 51.9509 290.75 51.5129C293.169 50.0917 295.603 48.6949 298.053 47.3223C304.477 59.9829 310.9 72.6401 317.324 85.2939Z" fill="#382256"/>
<path d="M308.275 89.5374C307.55 89.5378 306.839 89.3376 306.22 88.959C305.602 88.5803 305.1 88.0379 304.771 87.3918L288.965 56.2451C288.515 55.3525 288.421 54.3218 288.703 53.3625C288.985 52.4032 289.621 51.5873 290.483 51.0805C292.91 49.6594 295.367 48.2452 297.797 46.8865L298.268 46.623L318.025 85.5617L317.533 85.787C315.003 86.9447 312.41 88.0955 309.831 89.2116C309.341 89.4266 308.811 89.5375 308.275 89.5374V89.5374ZM297.832 48.0615C295.561 49.3336 293.27 50.6507 291.01 51.9782C290.377 52.3505 289.908 52.9499 289.7 53.6548C289.493 54.3596 289.561 55.1172 289.891 55.7737L305.696 86.9204C306.031 87.575 306.603 88.0777 307.295 88.3262C307.987 88.5747 308.747 88.5504 309.422 88.2584C311.828 87.2185 314.244 86.144 316.611 85.0661L297.832 48.0615Z" fill="#1D1E1B"/>
<path d="M257.227 82.7918C257.001 82.7918 256.781 82.718 256.601 82.5817C256.42 82.4455 256.289 82.2541 256.227 82.0366C256.165 81.8191 256.176 81.5874 256.257 81.3766C256.339 81.1657 256.487 80.9872 256.68 80.8681L287.702 61.6171C287.818 61.5434 287.947 61.4934 288.083 61.4701C288.218 61.4468 288.357 61.4507 288.491 61.4814C288.625 61.5121 288.752 61.569 288.864 61.649C288.975 61.729 289.07 61.8303 289.143 61.9472C289.215 62.0641 289.264 62.1943 289.286 62.33C289.307 62.4658 289.302 62.6046 289.27 62.7383C289.238 62.872 289.179 62.9979 289.098 63.1089C289.017 63.2199 288.915 63.3137 288.797 63.3849L257.775 82.6358C257.611 82.7388 257.421 82.7929 257.227 82.7918V82.7918Z" fill="white"/>
<path d="M312.858 85.7243C312.669 85.7241 312.484 85.6723 312.322 85.5746C312.16 85.4768 312.028 85.3369 311.939 85.1696L305.354 72.6915C305.239 72.4494 305.223 72.1725 305.307 71.9183C305.392 71.6642 305.571 71.4525 305.808 71.3274C306.045 71.2023 306.321 71.1734 306.578 71.2468C306.836 71.3201 307.056 71.49 307.191 71.7211L313.777 84.1992C313.86 84.3576 313.901 84.5349 313.896 84.7139C313.891 84.8929 313.84 85.0675 313.748 85.2209C313.655 85.3743 313.525 85.5013 313.369 85.5895C313.213 85.6776 313.037 85.7241 312.858 85.7243Z" fill="white"/>
<path d="M270.123 133.817L267.939 129.616C267.939 129.616 271.332 125.301 270.584 112.458C269.398 92.1608 253.946 96.133 253.946 96.133C247.572 90.348 240.49 96.9025 240.49 96.9025C240.49 96.9025 232.044 85.5231 225.933 100.369C222.432 108.854 228.106 119.779 233.749 127.911" fill="#FFCDB2"/>
<path d="M269.659 134.057L267.319 129.551L267.527 129.287C267.558 129.246 270.789 124.903 270.061 112.48C269.673 105.804 267.69 101.111 264.169 98.5393C259.663 95.2534 254.141 96.6121 254.086 96.626L253.815 96.6953L253.607 96.5082C247.656 91.1045 241.129 97.0177 240.855 97.2742L240.432 97.6658L240.086 97.2014C240.055 97.1564 236.772 92.8098 233.039 93.2812C230.505 93.5966 228.277 96.0541 226.419 100.56C223.695 107.167 226.304 116.269 234.18 127.596L233.324 128.189C225.237 116.542 222.578 107.108 225.455 100.155C227.469 95.2672 229.961 92.6053 232.915 92.2414C236.526 91.7873 239.576 94.9623 240.578 96.1477C242.235 94.8375 248.422 90.6262 254.096 95.5515C255.333 95.295 260.411 94.5117 264.765 97.6832C268.557 100.456 270.685 105.406 271.094 112.411C271.749 123.662 269.271 128.473 268.533 129.638L270.574 133.558L269.659 134.057Z" fill="#1D1E1B"/>
<path d="M241.855 116.202C241.757 116.202 241.66 116.174 241.577 116.122C241.494 116.07 241.427 115.996 241.383 115.908C236.583 105.949 240.045 97.1904 240.194 96.8438C240.22 96.7805 240.258 96.7229 240.306 96.6743C240.354 96.6257 240.411 96.5871 240.474 96.5605C240.537 96.5339 240.604 96.52 240.673 96.5195C240.741 96.5191 240.809 96.5321 240.872 96.5578C240.935 96.5835 240.993 96.6214 241.041 96.6694C241.09 96.7174 241.129 96.7745 241.155 96.8374C241.182 96.9003 241.196 96.9679 241.196 97.0362C241.197 97.1045 241.184 97.1722 241.158 97.2354C241.123 97.3221 237.726 105.946 242.323 115.474C242.382 115.598 242.39 115.741 242.345 115.871C242.299 116.001 242.204 116.108 242.08 116.168C242.008 116.195 241.931 116.207 241.855 116.202V116.202Z" fill="#1D1D1B"/>
<path d="M255.073 115.646C255.03 115.647 254.987 115.641 254.945 115.628C254.879 115.612 254.817 115.582 254.762 115.541C254.707 115.501 254.661 115.449 254.627 115.391C254.592 115.332 254.569 115.267 254.559 115.2C254.55 115.132 254.554 115.063 254.571 114.997C256.879 105.944 253.378 96.3842 253.344 96.2802C253.319 96.216 253.307 96.1476 253.309 96.0788C253.311 96.01 253.326 95.9422 253.354 95.8794C253.382 95.8166 253.422 95.76 253.473 95.7129C253.523 95.6659 253.582 95.6292 253.647 95.6051C253.711 95.5811 253.78 95.57 253.848 95.5726C253.917 95.5753 253.985 95.5915 254.047 95.6205C254.109 95.6494 254.166 95.6904 254.212 95.7412C254.259 95.792 254.295 95.8514 254.318 95.9162C254.467 96.3183 257.964 105.878 255.576 115.243C255.55 115.357 255.486 115.459 255.395 115.532C255.304 115.605 255.19 115.645 255.073 115.646V115.646Z" fill="#1D1D1B"/>
<path d="M140.806 282.678C142.364 282.678 143.627 281.415 143.627 279.857C143.627 278.298 142.364 277.035 140.806 277.035C139.247 277.035 137.984 278.298 137.984 279.857C137.984 281.415 139.247 282.678 140.806 282.678Z" fill="#51CEF4"/>
<path d="M135.95 240.737C137.508 240.737 138.772 239.473 138.772 237.915C138.772 236.357 137.508 235.094 135.95 235.094C134.392 235.094 133.129 236.357 133.129 237.915C133.129 239.473 134.392 240.737 135.95 240.737Z" fill="#51CEF4"/>
<path d="M194.876 243.51C196.434 243.51 197.697 242.247 197.697 240.689C197.697 239.13 196.434 237.867 194.876 237.867C193.318 237.867 192.055 239.13 192.055 240.689C192.055 242.247 193.318 243.51 194.876 243.51Z" fill="#51CEF4"/>
<path d="M180.665 264.307C182.223 264.307 183.486 263.044 183.486 261.486C183.486 259.927 182.223 258.664 180.665 258.664C179.107 258.664 177.844 259.927 177.844 261.486C177.844 263.044 179.107 264.307 180.665 264.307Z" fill="#51CEF4"/>
<path d="M222.606 289.264C224.165 289.264 225.428 288.001 225.428 286.443C225.428 284.884 224.165 283.621 222.606 283.621C221.048 283.621 219.785 284.884 219.785 286.443C219.785 288.001 221.048 289.264 222.606 289.264Z" fill="#51CEF4"/>
<path d="M256.228 255.295C257.786 255.295 259.049 254.032 259.049 252.474C259.049 250.916 257.786 249.652 256.228 249.652C254.669 249.652 253.406 250.916 253.406 252.474C253.406 254.032 254.669 255.295 256.228 255.295Z" fill="#51CEF4"/>
<path d="M236.122 216.821C237.68 216.821 238.943 215.557 238.943 213.999C238.943 212.441 237.68 211.178 236.122 211.178C234.564 211.178 233.301 212.441 233.301 213.999C233.301 215.557 234.564 216.821 236.122 216.821Z" fill="#51CEF4"/>
<path d="M274.599 222.02C276.157 222.02 277.42 220.757 277.42 219.198C277.42 217.64 276.157 216.377 274.599 216.377C273.04 216.377 271.777 217.64 271.777 219.198C271.777 220.757 273.04 222.02 274.599 222.02Z" fill="#51CEF4"/>
<path d="M251.376 176.614C252.934 176.614 254.197 175.35 254.197 173.792C254.197 172.234 252.934 170.971 251.376 170.971C249.818 170.971 248.555 172.234 248.555 173.792C248.555 175.35 249.818 176.614 251.376 176.614Z" fill="#51CEF4"/>
<path d="M282.224 190.131C283.782 190.131 285.045 188.868 285.045 187.31C285.045 185.752 283.782 184.488 282.224 184.488C280.665 184.488 279.402 185.752 279.402 187.31C279.402 188.868 280.665 190.131 282.224 190.131Z" fill="#51CEF4"/>
<path d="M281.185 162.403C282.743 162.403 284.006 161.139 284.006 159.581C284.006 158.023 282.743 156.76 281.185 156.76C279.626 156.76 278.363 158.023 278.363 159.581C278.363 161.139 279.626 162.403 281.185 162.403Z" fill="#51CEF4"/>
<path d="M196.954 183.893C198.512 183.893 199.775 182.63 199.775 181.071C199.775 179.513 198.512 178.25 196.954 178.25C195.396 178.25 194.133 179.513 194.133 181.071C194.133 182.63 195.396 183.893 196.954 183.893Z" fill="#51CEF4"/>
<path d="M291.235 135.713C292.794 135.713 294.057 134.45 294.057 132.892C294.057 131.334 292.794 130.07 291.235 130.07C289.677 130.07 288.414 131.334 288.414 132.892C288.414 134.45 289.677 135.713 291.235 135.713Z" fill="#51CEF4"/>
<path d="M321.735 136.752C323.294 136.752 324.557 135.489 324.557 133.931C324.557 132.373 323.294 131.109 321.735 131.109C320.177 131.109 318.914 132.373 318.914 133.931C318.914 135.489 320.177 136.752 321.735 136.752Z" fill="#51CEF4"/>
<path d="M309.95 171.414C311.508 171.414 312.772 170.151 312.772 168.593C312.772 167.035 311.508 165.771 309.95 165.771C308.392 165.771 307.129 167.035 307.129 168.593C307.129 170.151 308.392 171.414 309.95 171.414Z" fill="#51CEF4"/>
<path d="M306.138 148.537C307.696 148.537 308.959 147.274 308.959 145.716C308.959 144.158 307.696 142.895 306.138 142.895C304.579 142.895 303.316 144.158 303.316 145.716C303.316 147.274 304.579 148.537 306.138 148.537Z" fill="#51CEF4"/>
<path d="M151.548 197.41C153.106 197.41 154.369 196.147 154.369 194.589C154.369 193.031 153.106 191.768 151.548 191.768C149.99 191.768 148.727 193.031 148.727 194.589C148.727 196.147 149.99 197.41 151.548 197.41Z" fill="#51CEF4"/>
<path d="M265.372 126.279C265.275 126.279 265.18 126.265 265.087 126.238C264.823 126.162 264.599 125.984 264.466 125.744C264.332 125.504 264.299 125.22 264.374 124.955C267.673 113.399 263.451 105.004 263.41 104.921C263.339 104.799 263.294 104.665 263.277 104.525C263.26 104.385 263.272 104.244 263.311 104.109C263.35 103.974 263.417 103.848 263.506 103.739C263.595 103.63 263.706 103.541 263.831 103.476C263.955 103.411 264.092 103.373 264.232 103.362C264.373 103.352 264.514 103.37 264.647 103.416C264.78 103.461 264.902 103.533 265.007 103.628C265.111 103.722 265.195 103.837 265.254 103.964C265.445 104.332 269.912 113.139 266.37 125.524C266.308 125.741 266.177 125.932 265.997 126.069C265.817 126.205 265.598 126.279 265.372 126.279V126.279Z" fill="white"/>
<path d="M224.469 188.322C224.24 188.322 224.017 188.247 223.835 188.107C203.672 172.541 189.658 169.736 181.451 170.125C172.785 170.534 168.747 174.461 168.706 174.499C168.509 174.683 168.248 174.783 167.978 174.778C167.709 174.773 167.452 174.664 167.261 174.473C167.071 174.283 166.962 174.026 166.957 173.756C166.952 173.487 167.052 173.226 167.236 173.029C167.42 172.842 171.874 168.492 181.354 168.045C193.797 167.466 208.518 173.653 225.103 186.461C225.274 186.593 225.4 186.776 225.462 186.984C225.524 187.191 225.52 187.413 225.45 187.617C225.38 187.822 225.248 188 225.072 188.127C224.896 188.253 224.686 188.321 224.469 188.322V188.322Z" fill="white"/>
<path d="M79.724 161.599C77.8292 161.599 75.9157 161.504 73.9839 161.315C65.3601 160.476 56.3828 157.759 47.2946 153.242C31.8634 145.568 21.2987 135.194 21.2051 135.09C21.1405 135.026 21.089 134.95 21.0538 134.866C21.0187 134.782 21.0003 134.691 21 134.6C20.9997 134.509 21.0176 134.419 21.0521 134.335C21.0867 134.251 21.1372 134.174 21.2014 134.109C21.2656 134.045 21.3421 133.993 21.4262 133.958C21.5102 133.923 21.6001 133.905 21.6912 133.904C21.7823 133.904 21.8726 133.922 21.9569 133.956C22.0412 133.991 22.1177 134.042 22.1824 134.106C22.2863 134.21 32.7021 144.449 47.9462 152.019C61.946 158.972 83.0168 165.038 103.873 154.445C103.954 154.4 104.043 154.373 104.136 154.363C104.228 154.354 104.321 154.363 104.41 154.39C104.498 154.417 104.581 154.462 104.652 154.522C104.723 154.581 104.781 154.655 104.823 154.737C104.866 154.82 104.891 154.91 104.898 155.002C104.904 155.095 104.893 155.188 104.863 155.276C104.833 155.364 104.786 155.445 104.724 155.514C104.662 155.583 104.587 155.639 104.503 155.679C96.8328 159.598 88.3375 161.628 79.724 161.599V161.599Z" fill="#1D1D1B"/>
<path d="M69.88 182.777C65.9089 182.749 61.9496 182.339 58.0569 181.554C52.0269 180.362 46.1376 178.545 40.4838 176.133C40.3165 176.056 40.1863 175.917 40.122 175.745C40.0576 175.572 40.0643 175.382 40.1406 175.214C40.2169 175.047 40.3566 174.917 40.5289 174.852C40.7011 174.788 40.8916 174.795 41.0589 174.871C41.3605 175.006 71.3981 188.424 88.1985 176.327C88.3477 176.228 88.5295 176.191 88.7055 176.223C88.8816 176.255 89.0384 176.354 89.1432 176.499C89.2479 176.644 89.2926 176.824 89.2677 177.001C89.2429 177.179 89.1505 177.339 89.0098 177.45C84.0914 180.982 77.5957 182.777 69.88 182.777Z" fill="#1D1D1B"/>
<path d="M335.385 160.595C335.341 160.6 335.295 160.6 335.25 160.595C335.07 160.559 334.912 160.453 334.81 160.3C334.708 160.147 334.67 159.96 334.706 159.78C342.422 121.191 331.732 115.535 331.625 115.483C331.46 115.404 331.333 115.263 331.271 115.091C331.209 114.919 331.218 114.73 331.295 114.564C331.371 114.398 331.509 114.268 331.68 114.203C331.851 114.139 332.04 114.144 332.207 114.218C332.692 114.439 344.054 120.11 336.065 160.043C336.032 160.199 335.947 160.339 335.823 160.44C335.699 160.54 335.545 160.595 335.385 160.595Z" fill="#1D1D1B"/>
<path d="M261.708 245.604C256.94 245.623 252.184 245.121 247.525 244.107C247.347 244.061 247.194 243.946 247.1 243.787C247.006 243.629 246.98 243.439 247.026 243.261C247.072 243.083 247.187 242.93 247.345 242.837C247.504 242.743 247.693 242.716 247.871 242.762C254.141 244.112 260.575 244.528 266.966 243.996C280.807 242.8 291.039 237.123 297.378 227.119C297.477 226.964 297.633 226.854 297.812 226.814C297.992 226.773 298.18 226.806 298.335 226.904C298.49 227.003 298.6 227.159 298.641 227.338C298.681 227.518 298.648 227.706 298.55 227.861C292.051 238.114 281.157 244.173 267.046 245.382C265.192 245.538 263.407 245.604 261.708 245.604Z" fill="#1D1D1B"/>
<path d="M290.327 41.7041C290.235 41.7041 290.145 41.6861 290.06 41.651C289.976 41.6159 289.899 41.5644 289.835 41.4995C289.705 41.3697 289.633 41.194 289.633 41.0108C289.633 40.8277 289.705 40.652 289.835 40.5221C290.07 40.283 295.727 34.7129 303.006 34.7129H303.117C307.11 34.7406 310.791 36.446 314.056 39.8324C314.119 39.8979 314.169 39.9753 314.202 40.06C314.236 40.1448 314.252 40.2353 314.251 40.3264C314.249 40.4175 314.229 40.5074 314.193 40.5909C314.157 40.6745 314.104 40.75 314.039 40.8132C313.973 40.8765 313.896 40.9263 313.811 40.9596C313.726 40.993 313.636 41.0094 313.544 41.0078C313.453 41.0062 313.364 40.9866 313.28 40.9503C313.197 40.9139 313.121 40.8614 313.058 40.7959C310.066 37.7076 306.718 36.1271 303.117 36.0993H303.009C296.316 36.0993 290.878 41.4475 290.822 41.503C290.757 41.5677 290.68 41.6188 290.595 41.6533C290.51 41.6878 290.419 41.7051 290.327 41.7041V41.7041Z" fill="#1D1D1B"/>
<path d="M204.886 123.506C204.782 123.506 204.681 123.475 204.595 123.417C204.509 123.359 204.443 123.276 204.404 123.18L199.898 112.089C199.869 112.025 199.853 111.956 199.852 111.885C199.85 111.815 199.863 111.746 199.889 111.68C199.915 111.615 199.954 111.556 200.003 111.506C200.053 111.457 200.112 111.417 200.177 111.391C200.242 111.365 200.312 111.352 200.382 111.354C200.453 111.355 200.522 111.371 200.586 111.4C200.65 111.429 200.707 111.47 200.754 111.522C200.802 111.573 200.838 111.634 200.862 111.7L205.368 122.792C205.419 122.92 205.418 123.063 205.364 123.19C205.31 123.316 205.208 123.416 205.08 123.468C205.018 123.493 204.953 123.506 204.886 123.506V123.506Z" fill="#1D1D1B"/>
<defs>
<filter id="filter0_d_2839_20898" x="-4.0192" y="107.785" width="38.6829" height="38.6849" filterUnits="userSpaceOnUse" color-interpolation-filters="sRGB">
<feFlood flood-opacity="0" result="BackgroundImageFix"/>
<feColorMatrix in="SourceAlpha" type="matrix" values="0 0 0 0 0 0 0 0 0 0 0 0 0 0 0 0 0 0 127 0" result="hardAlpha"/>
<feOffset dy="2.03704"/>
<feGaussianBlur stdDeviation="5.09261"/>
<feComposite in2="hardAlpha" operator="out"/>
<feColorMatrix type="matrix" values="0 0 0 0 0 0 0 0 0 0 0 0 0 0 0 0 0 0 0.05 0"/>
<feBlend mode="normal" in2="BackgroundImageFix" result="effect1_dropShadow_2839_20898"/>
<feBlend mode="normal" in="SourceGraphic" in2="effect1_dropShadow_2839_20898" result="shape"/>
</filter>
<filter id="filter1_d_2839_20898" x="370.651" y="165.211" width="38.6868" height="38.6888" filterUnits="userSpaceOnUse" color-interpolation-filters="sRGB">
<feFlood flood-opacity="0" result="BackgroundImageFix"/>
<feColorMatrix in="SourceAlpha" type="matrix" values="0 0 0 0 0 0 0 0 0 0 0 0 0 0 0 0 0 0 127 0" result="hardAlpha"/>
<feOffset dy="2.03704"/>
<feGaussianBlur stdDeviation="5.09261"/>
<feComposite in2="hardAlpha" operator="out"/>
<feColorMatrix type="matrix" values="0 0 0 0 0 0 0 0 0 0 0 0 0 0 0 0 0 0 0.05 0"/>
<feBlend mode="normal" in2="BackgroundImageFix" result="effect1_dropShadow_2839_20898"/>
<feBlend mode="normal" in="SourceGraphic" in2="effect1_dropShadow_2839_20898" result="shape"/>
</filter>
<linearGradient id="paint0_linear_2839_20898" x1="20.4547" y1="112.038" x2="392.053" y2="200.547" gradientUnits="userSpaceOnUse">
<stop stop-color="#CDD5E2"/>
<stop offset="1" stop-color="#CDD5E2" stop-opacity="0"/>
</linearGradient>
<linearGradient id="paint1_linear_2839_20898" x1="391.411" y1="195.438" x2="353.85" y2="294.045" gradientUnits="userSpaceOnUse">
<stop stop-color="#CDD5E2"/>
<stop offset="1" stop-color="#CDD5E2" stop-opacity="0"/>
</linearGradient>
<linearGradient id="paint2_linear_2839_20898" x1="196.502" y1="23.2598" x2="196.502" y2="365.005" gradientUnits="userSpaceOnUse">
<stop stop-color="#CDD5E2"/>
<stop offset="1" stop-color="#CDD5E2" stop-opacity="0"/>
</linearGradient>
<linearGradient id="paint3_linear_2839_20898" x1="196.505" y1="57.4336" x2="196.505" y2="330.83" gradientUnits="userSpaceOnUse">
<stop stop-color="#CDD5E2"/>
<stop offset="1" stop-color="#CDD5E2" stop-opacity="0"/>
</linearGradient>
</defs>
</svg>
