<svg width="406" height="302" viewBox="0 0 406 302" fill="none" xmlns="http://www.w3.org/2000/svg">
<mask id="mask0_15153_51739" style="mask-type:alpha" maskUnits="userSpaceOnUse" x="0" y="0" width="406" height="302">
<rect width="405.823" height="301.875" fill="#D9D9D9"/>
</mask>
<g mask="url(#mask0_15153_51739)">
<g opacity="0.5">
<mask id="path-2-inside-1_15153_51739" fill="white">
<path d="M389.979 202.565C391.995 156.308 377.371 110.86 348.759 74.4588C320.146 38.0574 279.439 13.1119 234.015 4.14415C188.592 -4.82363 141.458 2.77982 101.159 25.5762C60.859 48.3727 30.0607 84.8533 14.3462 128.405L15.1858 128.708C30.8279 85.357 61.4843 49.0446 101.598 26.3532C141.712 3.66186 188.628 -3.90654 233.842 5.0199C279.057 13.9463 319.576 38.7768 348.057 75.0104C376.537 111.244 391.094 156.483 389.087 202.526L389.979 202.565Z"/>
</mask>
<path d="M389.979 202.565C391.995 156.308 377.371 110.86 348.759 74.4588C320.146 38.0574 279.439 13.1119 234.015 4.14415C188.592 -4.82363 141.458 2.77982 101.159 25.5762C60.859 48.3727 30.0607 84.8533 14.3462 128.405L15.1858 128.708C30.8279 85.357 61.4843 49.0446 101.598 26.3532C141.712 3.66186 188.628 -3.90654 233.842 5.0199C279.057 13.9463 319.576 38.7768 348.057 75.0104C376.537 111.244 391.094 156.483 389.087 202.526L389.979 202.565Z" stroke="url(#paint0_linear_15153_51739)" stroke-width="2.84788" stroke-dasharray="4.27 4.27" mask="url(#path-2-inside-1_15153_51739)"/>
</g>
<g opacity="0.5">
<mask id="path-3-inside-2_15153_51739" fill="white">
<path d="M14.6043 260.573C30.4892 304.064 61.4301 340.423 101.819 363.062C142.207 385.7 189.37 393.119 234.758 383.974C280.146 374.828 320.756 349.724 349.225 313.211C377.695 276.697 392.141 231.193 389.944 184.944L389.052 184.987C391.239 231.022 376.86 276.317 348.521 312.662C320.183 349.006 279.761 373.995 234.582 383.099C189.403 392.202 142.457 384.817 102.255 362.283C62.0527 339.749 31.2544 303.557 15.4428 260.267L14.6043 260.573Z"/>
</mask>
<path d="M14.6043 260.573C30.4892 304.064 61.4301 340.423 101.819 363.062C142.207 385.7 189.37 393.119 234.758 383.974C280.146 374.828 320.756 349.724 349.225 313.211C377.695 276.697 392.141 231.193 389.944 184.944L389.052 184.987C391.239 231.022 376.86 276.317 348.521 312.662C320.183 349.006 279.761 373.995 234.582 383.099C189.403 392.202 142.457 384.817 102.255 362.283C62.0527 339.749 31.2544 303.557 15.4428 260.267L14.6043 260.573Z" stroke="url(#paint1_linear_15153_51739)" stroke-width="2.84788" stroke-dasharray="4.27 4.27" mask="url(#path-3-inside-2_15153_51739)"/>
</g>
<circle opacity="0.08" cx="196.502" cy="194.132" r="170.873" fill="url(#paint2_linear_15153_51739)"/>
<circle opacity="0.1" cx="196.505" cy="194.132" r="136.698" fill="url(#paint3_linear_15153_51739)"/>
<circle cx="196.503" cy="194.134" r="91.1321" fill="white"/>
<g filter="url(#filter0_d_15153_51739)">
<circle cx="15.3224" cy="125.091" r="7.11969" transform="rotate(-2.50406 15.3224 125.091)" fill="#0170FF"/>
<circle cx="15.3224" cy="125.091" r="8.13822" transform="rotate(-2.50406 15.3224 125.091)" stroke="white" stroke-width="2.03704"/>
</g>
<g filter="url(#filter1_d_15153_51739)">
<circle cx="389.995" cy="182.518" r="7.11969" transform="rotate(-15.7345 389.995 182.518)" fill="#0170FF"/>
<circle cx="389.995" cy="182.518" r="8.13822" transform="rotate(-15.7345 389.995 182.518)" stroke="white" stroke-width="2.03704"/>
</g>
</g>
<path d="M322.021 283.139H86.6555C86.4926 283.139 86.3363 283.074 86.2211 282.959C86.1058 282.844 86.041 282.688 86.041 282.525C86.041 282.362 86.1058 282.205 86.2211 282.09C86.3363 281.975 86.4926 281.91 86.6555 281.91H322.021C322.184 281.91 322.34 281.975 322.455 282.09C322.571 282.205 322.636 282.362 322.636 282.525C322.636 282.688 322.571 282.844 322.455 282.959C322.34 283.074 322.184 283.139 322.021 283.139Z" fill="black"/>
<path d="M97.4104 292.973H62.3821C62.2191 292.973 62.0629 292.908 61.9476 292.793C61.8324 292.678 61.7676 292.522 61.7676 292.359C61.7676 292.196 61.8324 292.039 61.9476 291.924C62.0629 291.809 62.2191 291.744 62.3821 291.744H97.4104C97.5734 291.744 97.7296 291.809 97.8449 291.924C97.9601 292.039 98.0249 292.196 98.0249 292.359C98.0249 292.522 97.9601 292.678 97.8449 292.793C97.7296 292.908 97.5734 292.973 97.4104 292.973Z" fill="black"/>
<path d="M343.836 292.973H299.282C299.12 292.973 298.963 292.908 298.848 292.793C298.733 292.678 298.668 292.522 298.668 292.359C298.668 292.196 298.733 292.039 298.848 291.924C298.963 291.809 299.12 291.744 299.282 291.744H343.836C343.999 291.744 344.155 291.809 344.271 291.924C344.386 292.039 344.451 292.196 344.451 292.359C344.451 292.522 344.386 292.678 344.271 292.793C344.155 292.908 343.999 292.973 343.836 292.973Z" fill="black"/>
<path d="M281.771 282.834H131.211C124.239 246.306 123.13 211.726 131.211 180.207H281.771C291.44 209.705 291.44 243.913 281.771 282.834Z" fill="#4BD657"/>
<path d="M282.129 283.295H130.829L130.758 282.92C123.19 243.264 123.19 209.628 130.758 180.093L130.847 179.746H282.099L282.203 180.053C287.03 194.781 289.479 210.903 289.479 227.987C289.479 245.071 287.021 263.537 282.212 282.944L282.129 283.295ZM131.591 282.373H281.41C290.892 243.998 290.902 209.787 281.435 180.668H131.569C124.142 209.895 124.143 243.172 131.591 282.373Z" fill="#1D1E1B"/>
<path d="M91.7246 155.47C91.7246 155.47 121.25 163.767 131.26 179.13L150.259 172.37C150.259 172.37 146.922 157.929 120.992 144.102L91.7246 155.47Z" fill="#4BD657"/>
<path d="M131.073 179.686L130.874 179.379C121.072 164.323 91.8939 155.993 91.599 155.91L90.2715 155.538L121.023 143.592L121.21 143.693C134.678 150.874 141.969 158.23 145.715 163.137C149.804 168.496 150.674 172.112 150.708 172.263L150.8 172.662L131.073 179.686ZM93.1383 155.412C98.9149 157.222 122.497 165.263 131.445 178.571L149.694 172.078C148.923 169.694 143.856 156.866 120.961 144.606L93.1383 155.412Z" fill="#1D1E1B"/>
<path d="M321.405 155.47C321.405 155.47 291.88 163.767 281.869 179.13L262.871 172.37C262.871 172.37 266.208 157.929 292.138 144.102L321.405 155.47Z" fill="#4BD657"/>
<path d="M282.059 179.687L262.332 172.666L262.424 172.267C262.458 172.116 263.328 168.5 267.417 163.141C271.163 158.225 278.454 150.878 291.922 143.697L292.109 143.596L322.86 155.542L321.533 155.914C321.226 155.997 292.06 164.342 282.258 179.383L282.059 179.687ZM263.438 172.082L281.687 178.575C290.634 165.267 314.217 157.226 319.994 155.416L292.17 144.61C269.285 156.854 264.209 169.695 263.438 172.082Z" fill="#1D1E1B"/>
<path d="M131.363 179.132L150.414 172.986H262.873L281.923 179.132H131.363Z" fill="#050505"/>
<path d="M188.82 239.509C190.602 239.509 192.046 238.065 192.046 236.283C192.046 234.501 190.602 233.057 188.82 233.057C187.038 233.057 185.594 234.501 185.594 236.283C185.594 238.065 187.038 239.509 188.82 239.509Z" fill="#050505"/>
<path d="M205.722 239.509C207.504 239.509 208.949 238.065 208.949 236.283C208.949 234.501 207.504 233.057 205.722 233.057C203.941 233.057 202.496 234.501 202.496 236.283C202.496 238.065 203.941 239.509 205.722 239.509Z" fill="#050505"/>
<path d="M222.312 239.509C224.094 239.509 225.539 238.065 225.539 236.283C225.539 234.501 224.094 233.057 222.312 233.057C220.53 233.057 219.086 234.501 219.086 236.283C219.086 238.065 220.53 239.509 222.312 239.509Z" fill="#050505"/>
<path d="M273.011 275.459C272.743 275.459 272.479 275.395 272.241 275.273C272.002 275.151 271.796 274.974 271.639 274.757C271.483 274.54 271.38 274.288 271.34 274.024C271.299 273.759 271.322 273.488 271.407 273.234C280.349 246.41 279.878 224.914 277.906 211.603C275.785 197.272 271.561 189.221 271.521 189.145C271.41 188.948 271.339 188.732 271.312 188.508C271.286 188.284 271.305 188.057 271.368 187.84C271.431 187.624 271.536 187.422 271.678 187.247C271.82 187.072 271.996 186.927 272.195 186.82C272.394 186.714 272.612 186.649 272.836 186.628C273.061 186.608 273.287 186.632 273.502 186.7C273.717 186.769 273.916 186.879 274.088 187.026C274.259 187.172 274.4 187.352 274.501 187.553C274.685 187.9 279.042 196.203 281.261 211.108C283.283 224.781 283.774 246.846 274.624 274.303C274.511 274.641 274.294 274.935 274.004 275.142C273.715 275.35 273.367 275.46 273.011 275.459V275.459Z" fill="white"/>
<path d="M137.814 278.53C137.512 278.531 137.214 278.45 136.954 278.295C136.693 278.141 136.479 277.92 136.333 277.654C127.598 261.744 129.573 221.019 129.675 219.296C129.686 219.074 129.741 218.856 129.837 218.655C129.932 218.455 130.066 218.275 130.231 218.126C130.396 217.977 130.588 217.862 130.798 217.787C131.007 217.713 131.229 217.68 131.451 217.692C131.673 217.703 131.89 217.758 132.091 217.853C132.292 217.949 132.472 218.083 132.621 218.248C132.77 218.412 132.885 218.605 132.959 218.814C133.034 219.024 133.066 219.246 133.055 219.468C133.033 219.882 131.027 260.949 139.302 276.026C139.443 276.283 139.515 276.573 139.51 276.867C139.506 277.16 139.425 277.448 139.275 277.701C139.126 277.953 138.913 278.163 138.658 278.308C138.403 278.454 138.114 278.53 137.82 278.53H137.814Z" fill="white"/>
<path d="M189.765 79.6171C189.765 79.6171 179.84 84.5702 177.822 76.6581C175.803 68.746 171.645 51.7697 159.321 53.8038C146.997 55.8379 145.611 58.0748 141.297 50.4238C136.983 42.7729 105.728 43.7284 111.492 67.6982C120.94 106.985 191.424 103.197 191.424 103.197L193.077 94.1016L189.765 79.6171Z" fill="#382256"/>
<path d="M186.564 103.74C180.001 103.74 167.667 103.309 154.916 100.618C143.943 98.304 134.796 94.7981 127.726 90.1922C118.846 84.4094 113.238 76.8722 111.053 67.7925C109.791 62.5414 110.187 58.0246 112.233 54.3681C113.963 51.2955 116.894 48.8557 120.711 47.3594C128.583 44.2652 139.18 45.6909 141.709 50.1831C145.052 56.1226 146.318 55.8676 153.385 54.4449C155.054 54.11 156.947 53.7291 159.257 53.348C171.855 51.2771 176.157 68.1337 178.206 76.2393L178.283 76.5466C178.738 78.3318 179.66 79.5547 181.024 80.1784C184.419 81.7332 189.523 79.232 189.572 79.2074L190.098 78.9464L193.56 94.0792L193.542 94.1743L191.824 103.629L191.462 103.647C191.391 103.647 189.591 103.74 186.564 103.74ZM129.763 46.619C126.78 46.6068 123.821 47.1485 121.036 48.2166C116.341 50.0602 108.918 55.0287 111.938 67.5744C116.759 87.6296 138.056 96.1194 155.075 99.7082C172.095 103.297 188.417 102.839 191.025 102.738L192.592 94.0945L189.431 80.2675C187.962 80.9036 183.768 82.4522 180.618 81.0111C178.987 80.2644 177.893 78.8387 177.364 76.7677L177.287 76.4605C175.29 68.6221 171.142 52.3095 159.383 54.2514C157.088 54.6293 155.204 55.0072 153.545 55.3421C146.478 56.7709 144.561 57.155 140.886 50.6317C139.549 48.2504 134.986 46.619 129.763 46.619V46.619Z" fill="black"/>
<path d="M152.855 179.899C152.855 179.899 145.339 127.525 169.312 111.686C176.634 106.846 188.669 120.421 202.496 120.904C218.262 121.454 233.558 107.384 242.133 111.378C276.086 127.227 257.995 179.899 257.995 179.899H152.855Z" fill="#07ACEE"/>
<path d="M258.432 180.514H152.317L152.244 179.985C151.085 170.598 150.829 161.122 151.479 151.686C152.13 142.877 153.669 135.18 156.048 128.813C159.043 120.794 163.391 114.86 168.971 111.173C173.175 108.408 178.604 111.149 184.885 114.335C190.188 117.024 196.198 120.072 202.516 120.29C210.176 120.557 217.79 117.282 224.516 114.39C231.644 111.318 237.802 108.681 242.392 110.823C250.277 114.51 256.032 120.462 259.498 128.531C262.263 134.949 263.572 142.711 263.409 151.594C263.13 166.665 258.619 179.967 258.573 180.099L258.432 180.514ZM153.39 179.285H257.553C258.309 176.934 261.944 164.945 262.186 151.545C262.543 131.72 255.712 118.394 241.876 111.935C237.786 110.024 231.865 112.571 225.007 115.518C218.149 118.465 210.394 121.792 202.479 121.519C195.888 121.288 189.752 118.176 184.335 115.429C178.395 112.418 173.273 109.815 169.653 112.2C157.483 120.241 153.722 138.148 152.711 151.757C152.083 160.934 152.31 170.15 153.39 179.285V179.285Z" fill="#1D1D1B"/>
<path d="M194.968 119.476C194.968 119.476 188.516 121.059 193.125 125.975C197.734 130.891 204.186 126.59 204.186 126.59C204.186 126.59 211.253 130.584 216.17 126.59C221.086 122.595 214.94 118.828 214.94 118.828C214.94 118.828 209.717 122.807 194.968 119.476Z" fill="white"/>
<path d="M210.866 128.837C207.793 128.837 205.028 127.547 204.201 127.12C202.951 127.851 197.094 130.881 192.79 126.29C191.296 124.699 190.737 123.239 191.121 121.946C191.754 119.795 194.731 119.057 194.857 119.027L194.965 119.002L195.07 119.023C209.44 122.274 214.611 118.498 214.664 118.458L214.916 118.268L215.183 118.434C215.312 118.513 218.354 120.406 218.529 123.064C218.621 124.45 217.915 125.756 216.461 126.945C214.876 128.213 212.896 128.883 210.866 128.837V128.837ZM204.164 126.048L204.414 126.186C204.481 126.226 211.268 129.977 215.877 126.232C217.107 125.239 217.678 124.198 217.611 123.125C217.494 121.331 215.616 119.853 214.94 119.38C213.662 120.154 208.002 122.867 194.968 119.948C194.486 120.09 192.418 120.766 191.991 122.21C191.708 123.165 192.2 124.327 193.447 125.657C197.73 130.226 203.667 126.37 203.919 126.204L204.164 126.048Z" fill="#1D1D1B"/>
<path d="M198.807 108.307C198.807 108.307 200.036 117.832 196.656 122.134C196.656 122.134 203.416 127.357 211.712 122.134C211.712 122.134 206.489 111.38 208.025 108.307C209.561 105.234 198.807 108.307 198.807 108.307Z" fill="#FFCDB2"/>
<path d="M204.157 124.899C201.381 124.895 198.67 124.059 196.374 122.5L196.008 122.214L196.294 121.848C199.514 117.749 198.362 108.461 198.349 108.366L198.3 107.972L198.681 107.865C200.645 107.302 207.146 105.588 208.394 107.09C208.609 107.348 208.79 107.806 208.437 108.513C207.26 110.867 210.701 118.997 212.124 121.931L212.305 122.303L211.955 122.524C209.128 124.306 206.458 124.899 204.157 124.899ZM197.308 122.027C198.77 122.982 204.341 126.021 211.116 121.959C210.099 119.808 206.135 111.054 207.613 108.101C207.672 107.981 207.761 107.769 207.684 107.68C207.112 106.989 202.971 107.634 199.308 108.645C199.501 110.473 200.082 117.968 197.308 122.027V122.027Z" fill="#1D1D1B"/>
<path d="M187.441 54.8703C187.305 54.8706 187.172 54.8255 187.064 54.7421C186.956 54.6586 186.879 54.5415 186.845 54.4094C184.792 46.3591 192.784 42.6227 192.867 42.5859C192.941 42.5526 193.02 42.5341 193.101 42.5316C193.182 42.529 193.263 42.5423 193.338 42.5709C193.414 42.5994 193.483 42.6427 193.542 42.6979C193.601 42.7532 193.648 42.8195 193.681 42.8931C193.715 42.9668 193.733 43.0463 193.736 43.127C193.738 43.2078 193.725 43.2883 193.696 43.3639C193.668 43.4396 193.625 43.5087 193.569 43.5677C193.514 43.6266 193.448 43.6741 193.374 43.7074C193.067 43.8456 186.24 47.0659 188.037 54.1053C188.057 54.1836 188.061 54.265 188.05 54.3449C188.038 54.4248 188.01 54.5017 187.969 54.571C187.928 54.6404 187.873 54.7008 187.808 54.749C187.743 54.7972 187.67 54.8322 187.592 54.8519C187.543 54.8654 187.492 54.8716 187.441 54.8703Z" fill="#1D1D1B"/>
<path d="M201.995 69.7503C208.708 69.7503 214.151 64.3082 214.151 57.5949C214.151 50.8816 208.708 45.4395 201.995 45.4395C195.282 45.4395 189.84 50.8816 189.84 57.5949C189.84 64.3082 195.282 69.7503 201.995 69.7503Z" fill="#382256"/>
<path d="M202.002 70.2053H201.811C199.317 70.1676 196.889 69.3912 194.835 67.9742C192.782 66.5572 191.194 64.5633 190.273 62.2443C189.353 59.9254 189.14 57.3855 189.662 54.9457C190.185 52.506 191.419 50.2757 193.208 48.537C194.691 47.0974 196.505 46.0441 198.49 45.4697C200.475 44.8953 202.571 44.8175 204.593 45.2429C206.615 45.6683 208.503 46.584 210.088 47.9095C211.674 49.235 212.909 50.9297 213.686 52.8447C214.464 54.7596 214.758 56.8361 214.545 58.8917C214.332 60.9473 213.616 62.919 212.463 64.6334C211.309 66.3479 209.751 67.7527 207.927 68.7242C206.103 69.6958 204.069 70.2044 202.002 70.2053ZM202.002 45.8944C198.9 45.8724 195.917 47.0834 193.708 49.261C191.5 51.4386 190.246 54.4044 190.224 57.506C190.202 60.6076 191.413 63.5909 193.591 65.7996C195.768 68.0084 198.734 69.2615 201.836 69.2835H202.008C205.079 69.2807 208.025 68.0711 210.212 65.9156C212.399 63.7601 213.652 60.8315 213.699 57.7611C213.745 54.6596 212.556 51.6673 210.395 49.442C208.235 47.2166 205.278 45.9406 202.177 45.8944H202.002Z" fill="#1D1E1B"/>
<path d="M214.079 62.7447C209.234 53.834 195.527 55.5423 192.024 59.3831C183.316 68.9268 174.934 64.2442 173.281 74.5806C172.454 79.7703 177.042 81.8198 174.817 91.3204C173.665 96.2183 181.884 103.857 189.4 103.967C196.915 104.078 222.551 104.733 224.705 99.2355C226.859 93.7386 235.314 84.6097 228.564 74.0121C221.733 63.2978 216.178 66.6101 214.079 62.7447Z" fill="#382256"/>
<path d="M196.849 104.502C194.698 104.502 192.529 104.477 190.418 104.443L189.389 104.428C184.113 104.351 178.963 100.793 176.41 97.5205C174.662 95.2774 173.933 93.0375 174.364 91.2154C175.657 85.7245 174.625 82.8117 173.715 80.2399C173.079 78.4424 172.486 76.7431 172.833 74.5093C173.789 68.5146 176.963 67.3256 180.982 65.8231C184.214 64.6124 187.877 63.242 191.684 59.0632C193.85 56.688 199.138 55.3391 203.975 55.929C208.756 56.5098 212.486 58.8511 214.477 62.5168C215.19 63.8227 216.364 64.216 217.986 64.7568C220.785 65.6939 224.62 66.9721 228.94 73.7534C234.416 82.3569 230.188 89.9556 227.096 95.5109C226.359 96.7633 225.7 98.0605 225.124 99.3948C223.468 103.647 210.175 104.502 196.849 104.502ZM201.646 56.7218C197.488 56.7218 193.82 58.0983 192.366 59.693C188.409 64.0286 184.469 65.5034 181.305 66.6863C177.421 68.1397 174.612 69.1875 173.743 74.6538C173.435 76.6572 173.961 78.1751 174.585 79.9327C175.537 82.6212 176.616 85.6724 175.261 91.4244C174.895 92.9607 175.568 94.9364 177.135 96.9552C179.559 100.062 184.429 103.435 189.401 103.509L190.43 103.524C198.318 103.654 222.325 104.038 224.273 99.0723C224.864 97.6998 225.54 96.3657 226.297 95.0778C229.275 89.7252 233.364 82.3969 228.169 74.2636C224.024 67.7587 220.37 66.5389 217.7 65.6601C216.013 65.0978 214.557 64.6124 213.675 62.9838C211.831 59.5855 208.347 57.4162 203.87 56.8723C203.133 56.7768 202.39 56.7266 201.646 56.7218Z" fill="#1D1E1B"/>
<path d="M206.043 82.9572C199.836 83.919 191.718 80.7664 190.176 82.8743C188.633 84.9821 189.561 87.9841 192.827 88.8967C196.094 89.8093 199.415 89.8922 206.196 89.7385C212.978 89.5849 219.609 88.9304 219.043 85.277C218.478 81.6237 215.172 81.5408 206.043 82.9572Z" fill="#FFB49F"/>
<path d="M202.718 65.0684C200.171 74.655 190.409 78.9262 185.115 79.3318C183.914 82.2477 184.445 86.2175 184.396 89.6651C184.208 102.327 190.981 111.591 203.139 110.94C215.015 110.304 221.345 103.609 221.412 89.6558C221.412 86.3619 221.606 83.0988 220.586 80.2536C210.517 80.063 202.718 65.0684 202.718 65.0684Z" fill="#FFCDB2"/>
<path d="M201.974 111.431C197.218 111.431 193.1 109.876 190.006 106.899C185.984 103.031 183.827 96.9067 183.935 89.6583C183.935 88.8041 183.935 87.8947 183.898 87.0128C183.827 84.269 183.75 81.4328 184.687 79.156L184.795 78.8917L185.078 78.8703C190.799 78.4309 199.913 73.8219 202.285 64.9481L202.592 63.7988L203.142 64.8528C203.219 65.0003 210.931 79.6016 220.616 79.7921H220.923L221.031 80.0994C221.953 82.6835 221.925 85.6301 221.894 88.4846C221.894 88.8749 221.894 89.268 221.894 89.6613C221.86 96.6363 220.238 101.998 217.07 105.599C213.973 109.124 209.299 111.075 203.185 111.404C202.77 111.422 202.367 111.431 201.974 111.431ZM185.44 79.7643C184.681 81.8261 184.752 84.4502 184.826 86.9882C184.85 87.8793 184.875 88.798 184.863 89.6706C184.761 96.664 186.817 102.545 190.651 106.235C193.816 109.28 198.13 110.749 203.13 110.479C215.067 109.843 220.902 103.03 220.966 89.6552C220.966 89.2588 220.966 88.8656 220.966 88.4723C220.997 85.6916 221.025 83.0552 220.256 80.7016C211.579 80.2776 204.767 69.5939 202.841 66.2601C199.885 75.1708 190.851 79.2328 185.44 79.7643Z" fill="#1D1D1B"/>
<path d="M204.776 83.6924C197.383 84.9215 187.661 81.2343 185.845 83.7815C184.029 86.3288 185.154 89.8808 189.081 90.9316C193.008 91.9825 196.95 92.0438 205.04 91.7796C213.131 91.5154 221.018 90.6581 220.311 86.3103C219.605 81.9625 215.65 81.8826 204.776 83.6924Z" fill="#FFB49F"/>
<path d="M202.423 94.9489C202.363 94.9481 202.303 94.9354 202.248 94.9115C202.192 94.8876 202.142 94.853 202.099 94.8096C202.057 94.7663 202.024 94.7149 202.001 94.6587C201.979 94.6025 201.968 94.5423 201.969 94.4818L202.113 84.5357C202.116 84.4151 202.165 84.3002 202.251 84.2157C202.338 84.1313 202.453 84.084 202.574 84.084V84.084C202.634 84.0848 202.694 84.0975 202.75 84.1215C202.805 84.1454 202.855 84.1801 202.897 84.2235C202.939 84.2669 202.972 84.3182 202.994 84.3744C203.016 84.4307 203.027 84.4907 203.026 84.551L202.881 94.4941C202.88 94.6147 202.831 94.73 202.745 94.815C202.66 94.9 202.544 94.9481 202.423 94.9489Z" fill="black"/>
<path d="M193.675 54.2462C193.564 54.2468 193.454 54.2226 193.353 54.1756C193.169 54.0895 193.026 53.9342 192.957 53.7436C192.887 53.5531 192.896 53.3428 192.981 53.1585C193.085 52.9342 195.608 47.6278 202.506 47.2744C202.71 47.2642 202.909 47.3353 203.06 47.4721C203.211 47.609 203.302 47.8004 203.313 48.0042C203.323 48.2079 203.251 48.4073 203.115 48.5585C202.978 48.7098 202.787 48.8005 202.583 48.8107C196.65 49.118 194.474 53.6133 194.382 53.8038C194.319 53.938 194.219 54.0511 194.094 54.1297C193.969 54.2082 193.823 54.2487 193.675 54.2462Z" fill="white"/>
<path d="M191.511 82.9258C190.441 82.9321 189.386 82.6747 188.439 82.1761C188.336 82.1161 188.261 82.0189 188.228 81.9047C188.196 81.7905 188.209 81.6682 188.264 81.5632C188.32 81.4583 188.413 81.3787 188.526 81.3412C188.639 81.3037 188.762 81.3111 188.869 81.3619C192.814 83.4421 197.383 79.7334 197.426 79.6965C197.473 79.655 197.527 79.6232 197.585 79.6031C197.644 79.5829 197.706 79.5748 197.768 79.5794C197.83 79.5839 197.891 79.6011 197.946 79.6296C198.001 79.6581 198.05 79.6975 198.09 79.7454C198.129 79.7933 198.159 79.8486 198.176 79.9082C198.194 79.9678 198.2 80.0304 198.192 80.0922C198.185 80.1539 198.166 80.2136 198.135 80.2676C198.104 80.3215 198.063 80.3688 198.013 80.4063C197.85 80.5385 194.907 82.9258 191.511 82.9258Z" fill="black"/>
<path d="M210.907 81.7397C209.276 81.7397 206.606 81.2143 204.455 78.2646C204.383 78.1655 204.354 78.0421 204.373 77.9214C204.392 77.8007 204.459 77.6925 204.558 77.6208C204.657 77.5491 204.78 77.5197 204.901 77.539C205.022 77.5583 205.13 77.6248 205.201 77.7238C208.117 81.749 211.961 80.735 212.14 80.6889C212.256 80.657 212.38 80.6711 212.485 80.7284C212.591 80.7856 212.671 80.8816 212.708 80.9962C212.742 81.1123 212.728 81.2369 212.671 81.3432C212.613 81.4495 212.516 81.5291 212.401 81.5647C211.912 81.685 211.411 81.7438 210.907 81.7397Z" fill="black"/>
<path d="M137.507 169.299C129.398 162.469 118.306 149.751 116.385 142.121C114.465 134.492 119.397 131.788 119.397 131.788L116.819 126.408L133.214 113.635L135.703 116.8C135.703 116.8 143.462 114.428 147.257 120.653C151.051 126.878 155.15 135.303 157.863 138.609C167.926 150.863 168.233 166.226 162.088 175.137C155.943 184.048 141.673 172.811 137.507 169.299Z" fill="#07ACEE"/>
<path d="M155.624 178.958C149.252 178.958 141.457 173.228 137.21 169.651C129.857 163.454 118.009 150.453 115.938 142.234C114.27 135.609 117.656 132.475 118.808 131.627L116.405 126.607C116.36 126.512 116.349 126.404 116.373 126.302C116.397 126.2 116.455 126.109 116.537 126.044L132.933 113.271C133.03 113.197 133.151 113.164 133.272 113.179C133.392 113.194 133.503 113.256 133.578 113.351L135.883 116.276C137.419 115.911 144.157 114.678 147.651 120.412C149.12 122.824 150.631 125.559 152.094 128.204C154.405 132.377 156.583 136.319 158.221 138.316C168.862 151.274 168.413 166.778 162.467 175.397C161.85 176.345 161.034 177.147 160.076 177.747C159.118 178.347 158.04 178.731 156.918 178.872C156.489 178.931 156.057 178.959 155.624 178.958V178.958ZM117.398 126.542L119.813 131.587C119.866 131.695 119.876 131.819 119.84 131.934C119.804 132.048 119.725 132.144 119.619 132.202C119.432 132.306 115.029 134.854 116.832 142.019C118.765 149.701 130.253 162.606 137.806 168.954C141.948 172.447 149.541 178.046 155.603 178.046C156.002 178.047 156.4 178.021 156.795 177.969C157.788 177.843 158.742 177.503 159.591 176.973C160.44 176.442 161.163 175.734 161.711 174.896C167.457 166.56 167.857 151.544 157.508 138.922C155.818 136.86 153.618 132.884 151.289 128.671C149.829 126.035 148.324 123.306 146.861 120.913C143.306 115.075 136.144 117.167 135.84 117.26C135.751 117.286 135.657 117.286 135.569 117.259C135.481 117.231 135.403 117.178 135.345 117.106L133.136 114.304L117.398 126.542Z" fill="#1D1D1B"/>
<path d="M119.94 131.908C119.94 131.908 132.934 129.367 135.494 117.181L133.131 113.994L117.414 126.491L119.94 131.908Z" fill="#0598C6"/>
<path d="M158.259 154.864C159.227 154.864 160.011 154.08 160.011 153.113C160.011 152.145 159.227 151.361 158.259 151.361C157.292 151.361 156.508 152.145 156.508 153.113C156.508 154.08 157.292 154.864 158.259 154.864Z" fill="#51CEF4"/>
<path d="M173.314 129.36C174.281 129.36 175.065 128.576 175.065 127.609C175.065 126.641 174.281 125.857 173.314 125.857C172.347 125.857 171.562 126.641 171.562 127.609C171.562 128.576 172.347 129.36 173.314 129.36Z" fill="#51CEF4"/>
<path d="M205.884 146.567C206.852 146.567 207.636 145.783 207.636 144.816C207.636 143.848 206.852 143.064 205.884 143.064C204.917 143.064 204.133 143.848 204.133 144.816C204.133 145.783 204.917 146.567 205.884 146.567Z" fill="#51CEF4"/>
<path d="M230.466 129.36C231.434 129.36 232.218 128.576 232.218 127.609C232.218 126.641 231.434 125.857 230.466 125.857C229.499 125.857 228.715 126.641 228.715 127.609C228.715 128.576 229.499 129.36 230.466 129.36Z" fill="#51CEF4"/>
<path d="M230.466 168.384C231.434 168.384 232.218 167.599 232.218 166.632C232.218 165.665 231.434 164.881 230.466 164.881C229.499 164.881 228.715 165.665 228.715 166.632C228.715 167.599 229.499 168.384 230.466 168.384Z" fill="#51CEF4"/>
<path d="M189.908 177.909C190.875 177.909 191.659 177.125 191.659 176.158C191.659 175.19 190.875 174.406 189.908 174.406C188.94 174.406 188.156 175.19 188.156 176.158C188.156 177.125 188.94 177.909 189.908 177.909Z" fill="#51CEF4"/>
<path d="M186.834 152.405C187.801 152.405 188.585 151.621 188.585 150.654C188.585 149.686 187.801 148.902 186.834 148.902C185.866 148.902 185.082 149.686 185.082 150.654C185.082 151.621 185.866 152.405 186.834 152.405Z" fill="#51CEF4"/>
<path d="M228.009 151.792C228.977 151.792 229.761 151.008 229.761 150.04C229.761 149.073 228.977 148.289 228.009 148.289C227.042 148.289 226.258 149.073 226.258 150.04C226.258 151.008 227.042 151.792 228.009 151.792Z" fill="#51CEF4"/>
<path d="M140.412 159.458C141.379 159.458 142.163 158.674 142.163 157.707C142.163 156.739 141.379 155.955 140.412 155.955C139.444 155.955 138.66 156.739 138.66 157.707C138.66 158.674 139.444 159.458 140.412 159.458Z" fill="#51CEF4"/>
<path d="M141.58 134.419C142.547 134.419 143.331 133.635 143.331 132.667C143.331 131.7 142.547 130.916 141.58 130.916C140.612 130.916 139.828 131.7 139.828 132.667C139.828 133.635 140.612 134.419 141.58 134.419Z" fill="#51CEF4"/>
<path d="M90.9822 107.401C90.9822 107.401 90.3031 124.648 116.138 124.227C116.138 124.227 130.122 123.4 134.119 115.353L133.526 113.74C133.526 113.74 140.544 104.952 136.688 99.418C136.688 99.418 129.412 99.5255 124.705 109.659C124.705 109.659 116.7 99.7959 104.775 104.168C104.775 104.168 98.8757 103.038 97.8863 106.319C97.8986 106.325 94.5802 104.254 90.9822 107.401Z" fill="#FFCDB2"/>
<path d="M93.2556 106.011C94.0065 105.727 94.8093 105.608 95.6102 105.661C96.4112 105.714 97.1914 105.938 97.8982 106.318C98.2055 105.307 98.9737 104.714 99.8925 104.376C101.96 103.621 104.787 104.161 104.787 104.161C116.712 99.7889 124.716 109.652 124.716 109.652C127.635 103.353 131.55 100.929 134.097 99.9949C134.926 99.6689 135.799 99.4719 136.688 99.411C140.544 104.942 133.526 113.733 133.526 113.733L134.119 115.346C132.386 118.833 128.775 120.966 125.242 122.262C122.305 123.307 119.244 123.965 116.138 124.22C90.3027 124.641 90.9818 107.394 90.9818 107.394C91.6477 106.795 92.4187 106.324 93.2556 106.005V106.011ZM92.9484 105.135C92.0035 105.493 91.1326 106.022 90.3795 106.696C90.2861 106.78 90.2106 106.881 90.1578 106.995C90.105 107.109 90.0759 107.232 90.0723 107.357C90.1493 111.51 91.8281 115.474 94.7581 118.419C99.2657 123.027 106.471 125.289 116.171 125.132H116.211C119.409 124.873 122.559 124.196 125.58 123.117C130.223 121.414 133.381 118.932 134.967 115.742C135.023 115.63 135.056 115.506 135.063 115.381C135.07 115.255 135.051 115.129 135.007 115.011L134.592 113.877C135.993 111.975 141.211 104.238 137.465 98.8671C137.379 98.7424 137.262 98.641 137.127 98.5718C136.992 98.5027 136.842 98.4681 136.691 98.4709C135.698 98.5327 134.722 98.7482 133.796 99.1098C131.123 100.09 127.42 102.431 124.498 108.021C123.065 106.614 121.448 105.408 119.689 104.438C117.433 103.16 114.926 102.387 112.342 102.172C109.757 101.956 107.157 102.304 104.72 103.19C103.927 103.071 101.512 102.788 99.5912 103.498C98.7294 103.785 97.9852 104.346 97.4712 105.095C96.0097 104.575 94.4117 104.586 92.9574 105.126L92.9484 105.135Z" fill="black"/>
<path d="M125.157 115.84H125.133C125.015 115.875 124.889 115.862 124.781 115.804C124.673 115.747 124.592 115.649 124.555 115.533C124.537 115.477 124.147 114.331 122.577 113.64C120.865 112.881 117.494 112.586 111.171 115.483C111.092 115.518 111.006 115.531 110.921 115.52C110.836 115.51 110.755 115.476 110.688 115.422C110.615 115.367 103.425 109.658 97.691 106.739C97.6349 106.712 97.5847 106.675 97.5434 106.628C97.5021 106.582 97.4707 106.528 97.4507 106.469C97.4306 106.41 97.4225 106.348 97.427 106.286C97.4314 106.225 97.448 106.164 97.4762 106.109C97.5043 106.054 97.5433 106.004 97.5908 105.964C97.6382 105.925 97.6933 105.894 97.7525 105.876C97.8118 105.858 97.8741 105.852 97.9359 105.858C97.9976 105.864 98.0575 105.882 98.112 105.912C103.357 108.582 109.773 113.529 111.042 114.516C116.265 112.168 120.293 111.597 122.994 112.81C124.942 113.689 125.422 115.201 125.452 115.268C125.487 115.383 125.476 115.507 125.421 115.614C125.366 115.721 125.271 115.802 125.157 115.84V115.84Z" fill="black"/>
<path d="M116.432 110.994C116.345 111.026 116.251 111.03 116.161 111.008C116.071 110.986 115.99 110.937 115.928 110.868C115.891 110.829 112.195 106.8 104.523 104.284C104.406 104.246 104.309 104.162 104.253 104.053C104.198 103.943 104.188 103.815 104.226 103.698C104.264 103.581 104.348 103.485 104.457 103.429C104.567 103.373 104.695 103.364 104.811 103.402C112.736 106.001 116.463 110.076 116.617 110.248C116.658 110.293 116.689 110.346 116.71 110.403C116.73 110.46 116.739 110.521 116.736 110.582C116.733 110.643 116.718 110.703 116.692 110.758C116.665 110.813 116.628 110.862 116.583 110.902C116.539 110.942 116.488 110.973 116.432 110.994Z" fill="black"/>
<path d="M114.884 122.33L114.779 122.361C104.98 124.088 96.8409 116.962 96.4999 116.658C96.3776 116.549 96.3035 116.396 96.294 116.233C96.2845 116.07 96.3404 115.909 96.4491 115.787C96.5579 115.665 96.711 115.591 96.8743 115.581C97.0377 115.572 97.198 115.627 97.3202 115.736C97.4001 115.807 105.364 122.769 114.564 121.144C114.719 121.11 114.882 121.138 115.017 121.221C115.152 121.304 115.25 121.437 115.29 121.591C115.33 121.745 115.308 121.908 115.23 122.046C115.152 122.185 115.024 122.288 114.871 122.333L114.884 122.33Z" fill="white"/>
<path d="M273.014 166.226C281.122 159.395 290.221 144.219 292.138 136.59C294.055 128.961 289.127 126.257 289.127 126.257L291.702 120.877L275.309 108.104L272.817 111.268C272.817 111.268 265.058 108.896 261.267 115.122C257.475 121.347 253.37 129.772 250.657 133.078C240.594 145.332 244.131 167.762 250.276 176.673C256.421 185.584 268.847 169.738 273.014 166.226Z" fill="#07ACEE"/>
<path d="M254.95 179.816C254.769 179.816 254.591 179.816 254.412 179.795C252.615 179.635 251.097 178.673 249.898 176.934C246.598 172.153 244.312 164.188 243.928 156.15C243.474 146.641 245.738 138.329 250.301 132.798C251.942 130.801 254.12 126.859 256.428 122.686C257.89 120.04 259.402 117.306 260.874 114.894C264.368 109.16 271.118 110.392 272.642 110.758L274.947 107.833C275.022 107.737 275.132 107.675 275.253 107.66C275.374 107.645 275.496 107.678 275.592 107.753L291.985 120.526C292.069 120.59 292.128 120.681 292.152 120.783C292.176 120.886 292.163 120.994 292.117 121.088L289.714 126.109C290.866 126.957 294.253 130.103 292.584 136.716C290.624 144.505 281.344 159.822 273.312 166.591L273.005 166.238L273.312 166.591C272.587 167.206 271.582 168.217 270.421 169.394C266.285 173.566 260.109 179.816 254.95 179.816ZM269.392 111.268C266.952 111.268 263.713 112.002 261.667 115.361C260.207 117.754 258.699 120.483 257.239 123.119C254.913 127.332 252.713 131.308 251.02 133.37C246.602 138.75 244.414 146.825 244.856 156.107C245.225 163.863 247.505 171.833 250.661 176.411C251.711 177.948 252.968 178.741 254.498 178.87C254.652 178.882 254.809 178.888 254.968 178.888C259.731 178.888 265.747 172.801 269.77 168.727C270.949 167.535 271.966 166.505 272.722 165.866C280.634 159.202 289.766 144.133 291.696 136.473C293.503 129.308 289.1 126.76 288.909 126.641C288.803 126.584 288.723 126.488 288.688 126.372C288.652 126.257 288.663 126.133 288.719 126.026L291.134 120.981L275.392 108.721L273.186 111.523C273.128 111.596 273.05 111.649 272.961 111.676C272.872 111.704 272.777 111.704 272.689 111.677C271.611 111.393 270.5 111.255 269.386 111.268H269.392Z" fill="#1D1D1B"/>
<path d="M288.585 126.377C288.585 126.377 275.594 123.835 273.031 111.649L275.397 108.463L291.114 120.96L288.585 126.377Z" fill="#0598C6"/>
<path d="M250.263 149.333C251.23 149.333 252.015 148.549 252.015 147.581C252.015 146.614 251.23 145.83 250.263 145.83C249.296 145.83 248.512 146.614 248.512 147.581C248.512 148.549 249.296 149.333 250.263 149.333Z" fill="#51CEF4"/>
<path d="M268.115 153.927C269.082 153.927 269.866 153.143 269.866 152.175C269.866 151.208 269.082 150.424 268.115 150.424C267.147 150.424 266.363 151.208 266.363 152.175C266.363 153.143 267.147 153.927 268.115 153.927Z" fill="#51CEF4"/>
<path d="M266.943 128.888C267.91 128.888 268.694 128.103 268.694 127.136C268.694 126.169 267.91 125.385 266.943 125.385C265.976 125.385 265.191 126.169 265.191 127.136C265.191 128.103 265.976 128.888 266.943 128.888Z" fill="#51CEF4"/>
<path d="M318.855 101.018C318.855 101.018 319.531 118.265 293.696 117.844C293.696 117.844 279.716 117.017 275.718 108.97L276.308 107.36C276.308 107.36 269.293 98.569 273.15 93.0352C273.15 93.0352 280.422 93.1427 285.117 103.276C285.117 103.276 293.122 93.4131 305.05 97.7855C305.05 97.7855 310.946 96.6578 311.936 99.9363C311.936 99.9455 315.263 97.8592 318.855 101.018Z" fill="#FFCDB2"/>
<path d="M316.578 99.6333C317.415 99.9511 318.187 100.421 318.855 101.019C318.855 101.019 319.53 118.266 293.695 117.845C290.589 117.591 287.53 116.933 284.594 115.888C281.061 114.591 277.45 112.462 275.717 108.971L276.307 107.361C276.307 107.361 269.293 98.5701 273.149 93.0363C274.037 93.0991 274.91 93.296 275.739 93.6202C278.283 94.542 282.191 96.9785 285.117 103.277C285.117 103.277 293.121 93.4142 305.049 97.7866C305.049 97.7866 307.876 97.2459 309.944 98.0049C310.866 98.3398 311.631 98.9266 311.935 99.9468C312.641 99.5658 313.422 99.3413 314.223 99.2883C315.024 99.2352 315.827 99.355 316.578 99.6395V99.6333ZM316.885 98.7669C315.43 98.2286 313.833 98.2177 312.371 98.7361C311.857 97.9869 311.113 97.4259 310.251 97.1383C308.328 96.4347 305.912 96.7174 305.123 96.831C302.685 95.9451 300.085 95.5979 297.501 95.8132C294.916 96.0286 292.41 96.8014 290.153 98.0786C288.395 99.049 286.777 100.254 285.344 101.661C282.419 96.0722 278.719 93.7308 276.046 92.7506C275.119 92.3888 274.142 92.1732 273.149 92.1115C272.997 92.1087 272.847 92.1435 272.712 92.2126C272.577 92.2817 272.461 92.3832 272.374 92.5079C268.632 97.8789 273.846 105.616 275.25 107.518L274.832 108.652C274.789 108.77 274.771 108.896 274.778 109.022C274.786 109.148 274.819 109.27 274.875 109.383C276.458 112.575 279.617 115.055 284.263 116.757C287.284 117.835 290.433 118.511 293.631 118.77H293.671C303.371 118.926 310.571 116.668 315.084 112.056C318.018 109.108 319.697 105.138 319.77 100.979C319.765 100.854 319.735 100.732 319.682 100.618C319.63 100.505 319.555 100.403 319.463 100.319C318.709 99.6454 317.838 99.1163 316.894 98.7576L316.885 98.7669Z" fill="black"/>
<path d="M284.678 109.459H284.702C284.82 109.495 284.947 109.482 285.056 109.425C285.165 109.367 285.246 109.269 285.283 109.152C285.301 109.096 285.689 107.95 287.259 107.259C288.974 106.503 292.344 106.205 298.668 109.103C298.746 109.137 298.832 109.15 298.917 109.14C299.002 109.13 299.082 109.097 299.15 109.044C299.221 108.986 306.411 103.277 312.147 100.358C312.204 100.331 312.254 100.294 312.295 100.247C312.336 100.201 312.368 100.147 312.388 100.088C312.408 100.03 312.416 99.9675 312.412 99.9056C312.407 99.8437 312.39 99.7832 312.362 99.7279C312.334 99.6727 312.295 99.6236 312.247 99.5836C312.2 99.5436 312.145 99.5136 312.086 99.4952C312.027 99.4769 311.964 99.4708 311.903 99.4769C311.841 99.4831 311.781 99.5015 311.726 99.5312C306.481 102.201 300.066 107.148 298.794 108.135C293.57 105.787 289.545 105.216 286.844 106.432C284.896 107.311 284.417 108.82 284.386 108.891C284.352 109.005 284.364 109.127 284.419 109.233C284.473 109.339 284.566 109.42 284.678 109.459Z" fill="black"/>
<path d="M293.406 104.62C293.493 104.651 293.588 104.656 293.678 104.634C293.767 104.611 293.848 104.563 293.91 104.494C293.947 104.454 297.644 100.426 305.313 97.9091C305.375 97.894 305.433 97.8661 305.484 97.8273C305.535 97.7885 305.578 97.7396 305.609 97.6836C305.64 97.6276 305.659 97.5659 305.665 97.5022C305.671 97.4385 305.664 97.3741 305.644 97.3133C305.624 97.2525 305.592 97.1964 305.549 97.1487C305.506 97.101 305.454 97.0626 305.396 97.0361C305.338 97.0095 305.275 96.9952 305.211 96.9942C305.147 96.9932 305.083 97.0055 305.024 97.0302C297.103 99.6266 293.376 103.704 293.222 103.876C293.181 103.921 293.149 103.974 293.129 104.031C293.108 104.089 293.099 104.15 293.102 104.21C293.105 104.271 293.121 104.331 293.147 104.386C293.173 104.441 293.21 104.49 293.256 104.531C293.3 104.57 293.351 104.6 293.406 104.62V104.62Z" fill="black"/>
<path d="M294.956 115.948C294.99 115.963 295.025 115.974 295.061 115.979C304.859 117.709 312.999 110.58 313.34 110.276C313.462 110.167 313.536 110.014 313.545 109.85C313.554 109.686 313.498 109.526 313.389 109.403C313.28 109.281 313.126 109.207 312.963 109.198C312.799 109.189 312.639 109.245 312.516 109.354C312.44 109.425 304.475 116.388 295.276 114.765C295.124 114.739 294.967 114.77 294.837 114.854C294.707 114.937 294.613 115.067 294.574 115.216C294.536 115.366 294.555 115.525 294.628 115.661C294.701 115.797 294.823 115.901 294.969 115.951L294.956 115.948Z" fill="white"/>
<path d="M200.499 104.927H200.447C200.325 104.913 200.214 104.851 200.138 104.756C200.062 104.66 200.027 104.538 200.041 104.417C200.176 103.27 199.971 102.487 199.427 102.094C198.327 101.289 195.967 102.063 195.153 102.432C195.097 102.457 195.038 102.471 194.977 102.473C194.916 102.475 194.856 102.464 194.799 102.443C194.742 102.422 194.69 102.389 194.646 102.348C194.602 102.306 194.566 102.256 194.541 102.201C194.516 102.146 194.502 102.086 194.5 102.026C194.498 101.965 194.509 101.905 194.53 101.848C194.551 101.791 194.584 101.739 194.625 101.695C194.667 101.65 194.717 101.615 194.772 101.59C194.913 101.528 198.216 100.053 199.971 101.35C200.797 101.965 201.126 103.022 200.951 104.521C200.937 104.632 200.884 104.734 200.801 104.809C200.718 104.883 200.611 104.925 200.499 104.927V104.927Z" fill="black"/>
<path d="M193.124 90.3312C193.802 90.3312 194.353 89.7809 194.353 89.1021C194.353 88.4233 193.802 87.873 193.124 87.873C192.445 87.873 191.895 88.4233 191.895 89.1021C191.895 89.7809 192.445 90.3312 193.124 90.3312Z" fill="black"/>
<path d="M212.635 90.4855C213.314 90.4855 213.864 89.9352 213.864 89.2564C213.864 88.5776 213.314 88.0273 212.635 88.0273C211.957 88.0273 211.406 88.5776 211.406 89.2564C211.406 89.9352 211.957 90.4855 212.635 90.4855Z" fill="black"/>
<path d="M133.576 75.905C133.5 75.9044 133.425 75.89 133.355 75.8621C125.403 72.7894 118.258 67.4553 112.113 59.9764C107.215 54.0155 102.941 46.6902 99.4077 38.2066C95.7469 29.3618 93.1208 20.1235 91.5818 10.6756C91.5709 10.5949 91.5759 10.5129 91.5968 10.4342C91.6176 10.3555 91.6536 10.2816 91.703 10.2168C91.7523 10.152 91.8141 10.0977 91.8845 10.0567C91.9549 10.0158 92.0325 9.98913 92.1132 9.97824C92.1939 9.96734 92.276 9.97242 92.3547 9.99324C92.4334 10.0141 92.5072 10.0501 92.572 10.0995C92.6367 10.1488 92.6913 10.2105 92.7322 10.2809C92.7731 10.3512 92.7999 10.4291 92.8108 10.5098C92.8108 10.6389 94.6143 23.4795 100.563 37.7612C106.032 50.8845 116.234 67.95 133.806 74.716C133.941 74.7671 134.053 74.8638 134.124 74.9894C134.195 75.1149 134.219 75.2614 134.192 75.403C134.166 75.5446 134.091 75.6725 133.98 75.7643C133.869 75.8561 133.729 75.9058 133.585 75.905H133.576Z" fill="black"/>
<path d="M117.952 75.0869H117.884C110.169 74.2542 102.702 69.5776 96.2929 61.5672C93.3599 57.8901 90.8701 53.8802 88.8753 49.6206C88.8431 49.5466 88.8258 49.467 88.8243 49.3863C88.8228 49.3055 88.8371 49.2251 88.8666 49.15C88.8962 49.0748 88.9402 49.0062 88.9963 48.948C89.0523 48.8899 89.1194 48.8433 89.1934 48.811C89.2674 48.7788 89.3473 48.7614 89.4281 48.7599C89.5088 48.7584 89.589 48.7728 89.6642 48.8023C89.7394 48.8319 89.808 48.8759 89.8661 48.932C89.9243 48.988 89.9707 49.0551 90.003 49.1291C90.1013 49.3595 100.143 71.9436 118.016 73.8763C118.179 73.8848 118.332 73.9577 118.442 74.079C118.551 74.2003 118.607 74.3601 118.599 74.5231C118.59 74.6861 118.517 74.8389 118.396 74.9481C118.275 75.0573 118.115 75.1139 117.952 75.1053V75.0869Z" fill="black"/>
<path d="M59.6162 106.463C59.5026 106.463 59.3912 106.432 59.2942 106.373C59.1973 106.314 59.1186 106.229 59.0671 106.127C59.0155 106.026 58.9929 105.913 59.002 105.799C59.011 105.686 59.0513 105.578 59.1184 105.486C63.6567 99.2638 71.7869 96.732 82.6272 98.173C87.7808 98.9045 92.8265 100.26 97.6526 102.211C97.8026 102.275 97.9207 102.396 97.9812 102.548C98.0417 102.699 98.0396 102.869 97.9752 103.019C97.9108 103.169 97.7895 103.287 97.6379 103.347C97.4864 103.408 97.317 103.406 97.1671 103.341C96.8998 103.224 70.4535 92.0308 60.114 106.211C60.0568 106.289 59.9818 106.353 59.8952 106.397C59.8087 106.441 59.7132 106.463 59.6162 106.463Z" fill="black"/>
<path d="M102.941 95.4011C102.855 95.4009 102.769 95.3826 102.69 95.3471C102.611 95.3116 102.541 95.2598 102.483 95.1952C102.406 95.1123 94.783 86.8561 78.7346 88.6382C78.6539 88.6471 78.5722 88.6399 78.4942 88.6172C78.4163 88.5946 78.3436 88.5567 78.2803 88.5059C78.2169 88.4551 78.1642 88.3924 78.1251 88.3212C78.086 88.2501 78.0614 88.1719 78.0525 88.0912C78.0436 88.0105 78.0508 87.9288 78.0735 87.8509C78.0962 87.7729 78.1341 87.7003 78.1848 87.6369C78.2356 87.5736 78.2982 87.5209 78.3694 87.4818C78.4405 87.4427 78.5188 87.4181 78.5995 87.4092C95.3179 85.5502 103.076 94.0091 103.399 94.3717C103.478 94.4602 103.529 94.5695 103.547 94.6865C103.565 94.8035 103.549 94.9233 103.501 95.0314C103.453 95.1395 103.374 95.2313 103.275 95.2958C103.175 95.3603 103.059 95.3947 102.941 95.3949V95.4011Z" fill="black"/>
<path d="M258.57 171.45C258.305 171.45 258.046 171.364 257.833 171.205C257.62 171.046 257.464 170.822 257.389 170.566C257.315 170.311 257.325 170.039 257.418 169.79C257.511 169.54 257.683 169.328 257.907 169.185C287.509 150.239 283.25 134.772 283.204 134.627C283.109 134.315 283.143 133.978 283.297 133.69C283.451 133.403 283.712 133.188 284.024 133.094C284.336 132.999 284.673 133.033 284.961 133.187C285.248 133.34 285.463 133.602 285.558 133.914C285.613 134.099 286.879 138.477 284.138 145.329C280.577 154.24 272.198 162.96 259.25 171.256C259.047 171.386 258.811 171.453 258.57 171.45V171.45Z" fill="white"/>
<path d="M337.076 98.7815C336.992 98.7816 336.91 98.7647 336.833 98.732C336.757 98.6992 336.688 98.6512 336.63 98.591C331.806 93.5211 325.415 91.3703 317.629 92.206C314.038 92.6014 310.531 93.5541 307.234 95.0298C307.161 95.0725 307.08 95.0997 306.996 95.1098C306.912 95.1198 306.827 95.1125 306.746 95.0882C306.666 95.0639 306.59 95.0232 306.526 94.9686C306.461 94.914 306.409 94.8467 306.372 94.7708C306.334 94.695 306.313 94.6122 306.309 94.5278C306.305 94.4434 306.319 94.3592 306.349 94.2802C306.379 94.2013 306.426 94.1294 306.485 94.0691C306.544 94.0088 306.615 93.9614 306.693 93.9298C310.099 92.3842 313.729 91.3916 317.448 90.9893C325.535 90.1105 332.473 92.4488 337.509 97.7491C337.592 97.8362 337.648 97.9457 337.669 98.0642C337.69 98.1826 337.676 98.3048 337.629 98.4154C337.582 98.526 337.503 98.6202 337.402 98.6864C337.302 98.7526 337.184 98.7878 337.063 98.7877L337.076 98.7815Z" fill="black"/>
<path d="M291.911 92.0209C291.798 92.0207 291.689 91.9898 291.593 91.9316C291.497 91.8735 291.419 91.7902 291.367 91.6908C291.315 91.5915 291.291 91.4799 291.298 91.368C291.305 91.2561 291.343 91.1482 291.407 91.0561C291.511 90.9055 294 87.3689 299.051 84.4222C303.707 81.7029 311.492 79.0021 322.167 81.5923C322.325 81.6309 322.461 81.7305 322.546 81.8693C322.631 82.0081 322.657 82.1748 322.619 82.3329C322.58 82.4908 322.481 82.6269 322.342 82.7116C322.203 82.7962 322.036 82.8225 321.878 82.7845C311.628 80.3018 304.173 82.8674 299.721 85.4546C294.885 88.2692 292.439 91.7229 292.414 91.7567C292.358 91.8381 292.283 91.9047 292.195 91.9507C292.107 91.9967 292.01 92.0207 291.911 92.0209V92.0209Z" fill="black"/>
<defs>
<filter id="filter0_d_15153_51739" x="-4.0192" y="107.785" width="38.6829" height="38.6849" filterUnits="userSpaceOnUse" color-interpolation-filters="sRGB">
<feFlood flood-opacity="0" result="BackgroundImageFix"/>
<feColorMatrix in="SourceAlpha" type="matrix" values="0 0 0 0 0 0 0 0 0 0 0 0 0 0 0 0 0 0 127 0" result="hardAlpha"/>
<feOffset dy="2.03704"/>
<feGaussianBlur stdDeviation="5.09261"/>
<feComposite in2="hardAlpha" operator="out"/>
<feColorMatrix type="matrix" values="0 0 0 0 0 0 0 0 0 0 0 0 0 0 0 0 0 0 0.05 0"/>
<feBlend mode="normal" in2="BackgroundImageFix" result="effect1_dropShadow_15153_51739"/>
<feBlend mode="normal" in="SourceGraphic" in2="effect1_dropShadow_15153_51739" result="shape"/>
</filter>
<filter id="filter1_d_15153_51739" x="370.651" y="165.211" width="38.6868" height="38.6888" filterUnits="userSpaceOnUse" color-interpolation-filters="sRGB">
<feFlood flood-opacity="0" result="BackgroundImageFix"/>
<feColorMatrix in="SourceAlpha" type="matrix" values="0 0 0 0 0 0 0 0 0 0 0 0 0 0 0 0 0 0 127 0" result="hardAlpha"/>
<feOffset dy="2.03704"/>
<feGaussianBlur stdDeviation="5.09261"/>
<feComposite in2="hardAlpha" operator="out"/>
<feColorMatrix type="matrix" values="0 0 0 0 0 0 0 0 0 0 0 0 0 0 0 0 0 0 0.05 0"/>
<feBlend mode="normal" in2="BackgroundImageFix" result="effect1_dropShadow_15153_51739"/>
<feBlend mode="normal" in="SourceGraphic" in2="effect1_dropShadow_15153_51739" result="shape"/>
</filter>
<linearGradient id="paint0_linear_15153_51739" x1="20.4547" y1="112.038" x2="392.053" y2="200.547" gradientUnits="userSpaceOnUse">
<stop stop-color="#CDD5E2"/>
<stop offset="1" stop-color="#CDD5E2" stop-opacity="0"/>
</linearGradient>
<linearGradient id="paint1_linear_15153_51739" x1="391.411" y1="195.438" x2="353.85" y2="294.045" gradientUnits="userSpaceOnUse">
<stop stop-color="#CDD5E2"/>
<stop offset="1" stop-color="#CDD5E2" stop-opacity="0"/>
</linearGradient>
<linearGradient id="paint2_linear_15153_51739" x1="196.502" y1="23.2598" x2="196.502" y2="365.005" gradientUnits="userSpaceOnUse">
<stop stop-color="#CDD5E2"/>
<stop offset="1" stop-color="#CDD5E2" stop-opacity="0"/>
</linearGradient>
<linearGradient id="paint3_linear_15153_51739" x1="196.505" y1="57.4336" x2="196.505" y2="330.83" gradientUnits="userSpaceOnUse">
<stop stop-color="#CDD5E2"/>
<stop offset="1" stop-color="#CDD5E2" stop-opacity="0"/>
</linearGradient>
</defs>
</svg>
