<svg width="1464" height="840" viewBox="0 0 1464 840" fill="none" xmlns="http://www.w3.org/2000/svg">
<mask id="mask0_14879_52335" style="mask-type:alpha" maskUnits="userSpaceOnUse" x="0" y="0" width="1464" height="840">
<rect width="1464" height="840" fill="#EAF0F3"/>
</mask>
<g mask="url(#mask0_14879_52335)">
<path opacity="0.05" d="M984.354 1325.65C860.71 1329.58 590.286 1247.94 497.738 890.062C382.051 442.711 561.114 -74.5817 325.023 -56.241C88.9309 -37.9002 -85.0228 -63.2607 -1.24695 -242.598C82.5289 -421.935 436.997 -609.139 157.426 -897.579M1019.61 1310.11C895.964 1314.02 625.54 1232.4 532.991 874.515C417.306 427.164 596.369 -90.1291 360.277 -71.7884C124.185 -53.4476 -49.7687 -78.808 34.0071 -258.145C117.783 -437.482 472.251 -624.686 192.68 -913.126M1061.91 1291.45C938.27 1295.37 667.845 1213.74 575.296 855.858C459.61 408.508 638.673 -108.786 402.582 -90.4452C166.489 -72.1043 -7.46385 -97.4649 76.312 -276.802C160.088 -456.139 514.556 -643.343 234.985 -931.783M1104.22 1272.8C980.575 1276.71 710.15 1195.09 617.601 837.201C501.915 389.85 680.979 -127.443 444.887 -109.102C208.795 -90.7614 34.8412 -116.122 118.617 -295.459C202.392 -474.796 556.861 -661.999 277.29 -950.44M1146.52 1254.14C1022.88 1258.05 752.455 1176.43 659.906 818.544C544.22 371.194 723.284 -146.1 487.191 -127.759C251.1 -109.418 77.146 -134.779 160.922 -314.116C244.698 -493.453 599.165 -680.657 319.596 -969.097M1188.83 1235.48C1065.18 1239.41 794.759 1157.77 702.211 799.888C586.524 352.537 765.588 -164.756 529.497 -146.416C293.404 -128.075 119.451 -153.435 203.226 -332.772C287.003 -512.109 641.47 -699.313 361.9 -987.753M1231.13 1216.82C1107.49 1220.75 837.065 1139.11 744.515 781.23C628.83 333.881 807.893 -183.413 571.802 -165.072C335.709 -146.732 161.755 -172.092 245.532 -351.429C329.307 -530.767 683.776 -717.97 404.205 -1006.41M1273.43 1198.17C1149.79 1202.09 879.37 1120.46 786.821 762.574C671.135 315.223 850.198 -202.07 614.107 -183.729C378.014 -165.388 204.06 -190.749 287.837 -370.085C371.612 -549.423 726.081 -736.626 446.51 -1025.07M1315.74 1179.51C1192.1 1183.43 921.674 1101.8 829.126 743.917C713.44 296.567 892.504 -220.727 656.411 -202.386C420.32 -184.045 246.366 -209.406 330.141 -388.743C413.917 -568.08 768.385 -755.284 488.814 -1043.72M1358.05 1160.85C1234.41 1164.78 963.979 1083.14 871.43 725.26C755.744 277.91 934.808 -239.384 698.716 -221.043C462.624 -202.702 288.671 -228.063 372.446 -407.399C456.221 -586.737 810.69 -773.94 531.12 -1062.38M1400.35 1142.2C1276.7 1146.12 1006.28 1064.48 913.735 706.603C798.049 259.253 977.113 -258.04 741.02 -239.699C504.929 -221.358 330.975 -246.719 414.751 -426.056C498.527 -605.394 852.996 -792.597 573.425 -1081.04M1435.28 1127.57C1311.63 1131.48 1041.21 1049.85 948.659 691.971C832.974 244.62 1012.04 -272.673 775.945 -254.333C539.853 -235.992 365.899 -261.352 449.676 -440.688C533.451 -620.026 887.919 -807.229 608.349 -1095.67M1470.54 1112.02C1346.89 1115.94 1076.46 1034.3 983.913 676.424C868.228 229.073 1047.29 -288.22 811.2 -269.88C575.107 -251.539 401.153 -276.899 484.93 -456.237C568.705 -635.573 923.174 -822.776 643.603 -1111.22M1512.83 1093.36C1389.19 1097.28 1118.77 1015.65 1026.22 657.767C910.533 210.416 1089.6 -306.877 853.504 -288.536C617.412 -270.196 443.458 -295.557 527.234 -474.893C611.01 -654.23 965.478 -841.434 685.908 -1129.87M1555.14 1074.7C1431.5 1078.62 1161.07 996.99 1068.52 639.109C952.837 191.76 1131.9 -325.534 895.809 -307.193C659.718 -288.852 485.764 -314.213 569.539 -493.55C653.315 -672.887 1007.78 -860.091 728.212 -1148.53M1597.44 1056.05C1473.81 1059.97 1203.38 978.334 1110.83 620.453C995.142 173.102 1174.21 -344.19 938.114 -325.851C702.022 -307.51 528.069 -332.87 611.844 -512.206C695.619 -691.544 1050.09 -878.747 770.518 -1167.19M1639.75 1037.39C1516.11 1041.31 1245.69 959.676 1153.13 601.797C1037.45 154.446 1216.51 -362.848 980.418 -344.507C744.327 -326.166 570.373 -351.526 654.149 -530.864C737.925 -710.2 1092.39 -897.404 812.823 -1185.84M1682.06 1018.73C1558.41 1022.65 1287.98 941.02 1195.44 583.14C1079.75 135.789 1258.81 -381.504 1022.72 -363.164C786.632 -344.823 612.678 -370.184 696.453 -549.52C780.23 -728.858 1134.7 -916.061 855.127 -1204.5M1724.36 1000.08C1600.71 1004 1330.29 922.363 1237.74 564.483C1122.06 117.132 1301.12 -400.161 1065.03 -381.82C828.936 -363.48 654.983 -388.84 738.759 -568.178C822.535 -747.514 1177 -934.717 897.432 -1223.16M1766.67 981.419C1643.02 985.338 1372.59 903.707 1280.04 545.826C1164.36 98.475 1343.43 -418.819 1107.33 -400.478C871.241 -382.137 697.287 -407.497 781.064 -586.834C864.839 -766.171 1219.3 -953.375 939.737 -1241.82M1808.98 962.763C1685.33 966.682 1414.9 885.049 1322.35 527.168C1206.66 79.8188 1385.73 -437.475 1149.64 -419.134C913.547 -400.793 739.593 -426.154 823.368 -605.491C907.144 -784.827 1261.61 -972.031 982.041 -1260.47M1851.27 944.106C1727.63 948.024 1457.21 866.393 1364.66 508.512C1248.97 61.1613 1428.04 -456.131 1191.95 -437.791C955.851 -419.451 781.898 -444.811 865.673 -624.147C949.45 -803.485 1303.92 -990.688 1024.35 -1279.13M531.891 1524.93C408.247 1528.86 137.823 1447.22 45.2738 1089.34C-70.4122 641.989 108.652 124.695 -127.44 143.036C-363.533 161.377 -537.486 136.016 -453.71 -43.3208C-369.934 -222.658 -15.4662 -409.861 -295.037 -698.302M567.145 1509.38C443.501 1513.3 173.076 1431.67 80.5279 1073.79C-35.1582 626.441 143.906 109.148 -92.1865 127.489C-328.278 145.83 -502.232 120.469 -418.457 -58.8682C-334.68 -238.206 19.7878 -425.409 -259.783 -713.85M609.45 1490.72C485.806 1494.65 215.382 1413.01 122.832 1055.13C7.14663 607.784 186.21 90.4917 -49.8816 108.831C-285.974 127.172 -459.928 101.812 -376.151 -77.525C-292.376 -256.862 62.0926 -444.065 -217.478 -732.506M651.755 1472.07C528.112 1475.99 257.687 1394.35 165.138 1036.48C49.4517 589.128 228.515 71.8342 -7.57654 90.1752C-243.669 108.516 -417.623 83.1555 -333.846 -96.1821C-250.071 -275.519 104.398 -462.723 -175.173 -751.164M694.059 1453.41C570.416 1457.33 299.991 1375.7 207.443 1017.82C91.7566 570.47 270.821 53.1769 34.7283 71.5178C-201.363 89.8587 -375.317 64.4981 -291.542 -114.839C-207.766 -294.176 146.702 -481.379 -132.867 -769.82M736.364 1434.76C612.721 1438.68 342.296 1357.04 249.747 999.164C134.061 551.814 313.125 34.5206 77.0331 52.8615C-159.059 71.2024 -333.012 45.8419 -249.237 -133.495C-165.46 -312.833 189.007 -500.036 -90.5632 -788.477M778.67 1416.11C655.025 1420.02 384.601 1338.38 292.052 980.508C176.366 533.157 355.43 15.8638 119.337 34.2041C-116.754 52.5451 -290.708 27.1845 -206.932 -152.152C-123.156 -331.489 231.313 -518.693 -48.2584 -807.133M820.975 1397.45C697.33 1401.36 426.907 1319.74 334.357 961.85C218.672 514.501 397.735 -2.79306 161.643 15.5476C-74.4489 33.8888 -248.403 8.52796 -164.626 -170.809C-80.8509 -350.146 273.618 -537.35 -5.95326 -825.791M863.279 1378.79C739.635 1382.7 469.211 1301.08 376.663 943.194C260.976 495.843 440.039 -21.45 203.948 -3.10934C-32.1441 15.2315 -206.098 -10.1291 -122.322 -189.466C-38.5462 -368.803 315.922 -556.006 36.3515 -844.447M905.584 1360.13C781.941 1364.05 511.516 1282.42 418.967 924.537C303.281 477.187 482.345 -40.1068 246.253 -21.7662C10.1607 -3.42524 -163.793 -28.7858 -80.0171 -208.123C3.75865 -387.46 358.227 -574.664 78.6563 -863.104M947.888 1341.48C824.245 1345.39 553.82 1263.76 461.272 905.88C345.586 458.53 524.65 -58.7636 288.557 -40.423C52.4655 -22.0821 -121.488 -47.4425 -37.7123 -226.779C46.0635 -406.117 400.531 -593.32 120.962 -881.761" stroke="url(#paint0_linear_14879_52335)" stroke-width="1.00069"/>
</g>
<defs>
<linearGradient id="paint0_linear_14879_52335" x1="688.104" y1="-1279.13" x2="688.104" y2="1525.07" gradientUnits="userSpaceOnUse">
<stop stop-color="#121F3E"/>
<stop offset="1" stop-color="#121F3E" stop-opacity="0"/>
</linearGradient>
</defs>
</svg>
