<svg width="242" height="260" viewBox="0 0 242 260" fill="none" xmlns="http://www.w3.org/2000/svg">
<path fill-rule="evenodd" clip-rule="evenodd" d="M85.6167 31.9523C84.3867 33.6721 86.8108 39.9072 90.7988 45.3401C95.7283 52.0851 96.5584 49.9039 93.0594 39.6533C90.111 30.9152 87.8959 28.6533 85.6167 31.9523Z" fill="#DAF455" fill-opacity="0.7"/>
<path fill-rule="evenodd" clip-rule="evenodd" d="M99.1833 64.9791C99.0785 65.5411 100.212 70.1423 101.789 75.114C106.941 92.03 108.074 110.866 104.776 123.075C102.707 130.563 98.9558 136.426 90.6498 145.287C85.4019 150.863 83.9911 152.724 84.2874 153.963C84.6117 155.491 84.7723 155.508 88.8896 153.859C91.2314 152.857 93.9465 152.243 94.9102 152.341C95.898 152.506 99.0546 152.255 102.054 151.762C108.36 150.814 112.684 151.41 118.435 154.039C126.516 157.758 132.273 164.202 143.563 182.26C147.312 188.312 150.818 193.696 151.444 194.141C153.632 196.114 157.721 194.176 157.602 191.301C157.567 190.566 156.313 181.81 154.858 171.863C151.347 147.981 151.214 141.219 154.079 134.855C156.371 129.68 160.827 125.963 169.754 121.808C174.707 119.481 176.222 117.882 175.452 115.768C174.803 113.984 173.425 113.812 167.269 114.556C159.354 115.566 150.238 115.591 145.606 114.575C132.792 111.897 125.043 103.567 111.884 78.2496C108.139 71.1482 104.638 64.715 103.984 63.9802C102.655 62.6677 99.6191 63.249 99.1681 64.9846L99.1833 64.9791ZM124.415 109.633C131.581 117.21 139.115 120.679 149.783 121.519C152.787 121.698 155.313 122.05 155.385 122.249C155.457 122.447 154.332 123.605 152.865 124.887C144.805 132.086 143.367 142.795 147.083 166.602C147.887 171.997 148.401 176.383 148.124 176.259C147.915 176.111 145.195 172.461 142.139 168.103C135.019 157.889 128.837 151.975 121.887 148.817C115.376 145.799 109.828 144.816 103.588 145.516L98.7642 146.075L102.261 141.659C110.025 131.948 113.625 119.106 112.898 103.273C112.732 98.9935 112.523 95.0203 112.536 94.4171C112.548 93.8139 114.282 96.0267 116.516 99.404C118.751 102.781 122.268 107.346 124.415 109.633Z" fill="#DAF455" fill-opacity="0.7"/>
<path fill-rule="evenodd" clip-rule="evenodd" d="M150.211 61.4541C148.016 64.3482 145.967 70.6398 144.894 77.4658C144.116 82.7629 144.342 85.0836 145.571 84.6362C147.005 84.1143 154.773 65.4893 155.495 60.8863C155.721 59.3822 155.576 58.9858 154.657 58.7966C152.91 58.4595 152.139 58.8899 150.213 61.4615L150.211 61.4541Z" fill="#DAF455" fill-opacity="0.7"/>
<path fill-rule="evenodd" clip-rule="evenodd" d="M61.0983 109.165C59.4951 110.497 61.4496 112.255 67.1732 114.595C78.0953 119.084 84.3509 120.549 83.6293 118.566C83.0521 116.98 70.2726 109.725 66.2695 108.713C63.0494 107.939 62.3627 107.965 61.101 109.172L61.0983 109.165Z" fill="#DAF455" fill-opacity="0.7"/>
<path fill-rule="evenodd" clip-rule="evenodd" d="M193.051 104.117C191.191 105.168 189.085 106.608 188.479 107.277C187.309 108.526 187.333 108.592 188.807 109.029C192.557 109.984 204.67 106.697 206.39 104.2C207.464 102.687 206.188 100.457 204.309 100.393C201.927 100.437 196.317 102.254 193.051 104.117Z" fill="#DAF455" fill-opacity="0.7"/>
<path fill-rule="evenodd" clip-rule="evenodd" d="M42.0697 169.555C39.7394 171.227 39.7789 172.185 42.2805 172.472C45.541 172.931 62.5484 164.796 61.923 163.078C61.4901 161.888 45.5847 167.079 42.0697 169.555Z" fill="#DAF455" fill-opacity="0.7"/>
<path fill-rule="evenodd" clip-rule="evenodd" d="M167.644 149.532C168.173 150.986 179.24 154.599 181.959 154.208C185.112 153.734 185.242 151.965 182.171 150.539C179.838 149.442 172.274 148.229 168.998 148.365C167.717 148.458 167.379 148.805 167.644 149.532Z" fill="#DAF455" fill-opacity="0.7"/>
<path fill-rule="evenodd" clip-rule="evenodd" d="M105.356 182.078C102.629 188.608 101.773 193.717 103.358 194.862C103.984 195.307 104.815 195.678 105.273 195.661C106.876 195.602 108.657 191.361 109.325 185.947C110.521 175.85 108.635 174.067 105.364 182.075L105.356 182.078Z" fill="#DAF455" fill-opacity="0.7"/>
<path fill-rule="evenodd" clip-rule="evenodd" d="M161.68 206.066C161.412 210.429 162.762 219.449 164.165 222.455C165.167 224.785 165.725 225.255 166.934 224.965C169.742 224.392 169.727 222.227 166.847 213.464C163.706 204.197 161.897 201.563 161.677 206.058L161.68 206.066Z" fill="#DAF455" fill-opacity="0.7"/>
</svg>
