<svg width="188" height="188" viewBox="0 0 188 188" fill="none" xmlns="http://www.w3.org/2000/svg">
<circle cx="94" cy="94" r="94" fill="black" fill-opacity="0.75"/>
<path d="M86.9332 19.8182H88.4047L91.865 28.2699H91.9843L95.4445 19.8182H96.9161V30H95.7627V22.2642H95.6633L92.4814 30H91.3678L88.186 22.2642H88.0866V30H86.9332V19.8182Z" fill="white" fill-opacity="0.5"/>
<path d="M105.479 31.0981C104.765 30.921 104.187 30.6106 103.747 30.1667C103.31 29.7204 103.021 29.1777 102.881 28.5385C102.745 27.8969 102.77 27.1963 102.956 26.4366C103.142 25.6768 103.445 25.0416 103.863 24.5307C104.286 24.0174 104.787 23.66 105.365 23.4585C105.947 23.2545 106.573 23.2355 107.242 23.4014C107.628 23.4971 107.994 23.656 108.338 23.8781C108.683 24.1001 108.975 24.3943 109.212 24.7606C109.451 25.1236 109.604 25.5645 109.671 26.0832C109.739 26.6019 109.688 27.2072 109.518 27.8994L109.4 28.3822L103.686 26.9659L103.928 25.9808L108.483 27.1101C108.586 26.6916 108.593 26.2974 108.507 25.9276C108.423 25.5586 108.252 25.2412 107.993 24.9755C107.737 24.7106 107.403 24.5272 106.991 24.4251C106.538 24.3126 106.118 24.328 105.731 24.4712C105.348 24.612 105.025 24.8391 104.76 25.1526C104.496 25.466 104.313 25.8272 104.213 26.236L104.052 26.8927C103.915 27.4528 103.895 27.9516 103.993 28.389C104.094 28.8239 104.294 29.1858 104.592 29.4748C104.89 29.7605 105.27 29.9604 105.73 30.0744C106.029 30.1486 106.309 30.1737 106.571 30.1498C106.837 30.1235 107.079 30.047 107.298 29.9202C107.517 29.7903 107.707 29.6085 107.867 29.3749L108.891 29.9567C108.684 30.3014 108.409 30.5815 108.066 30.797C107.724 31.0092 107.332 31.1444 106.891 31.2025C106.451 31.2573 105.981 31.2225 105.479 31.0981Z" fill="white" fill-opacity="0.5"/>
<path d="M120.102 35.6995C119.451 35.356 118.965 34.9157 118.643 34.3786C118.326 33.8402 118.176 33.2436 118.192 32.5889C118.213 31.9328 118.404 31.258 118.766 30.5646C119.128 29.8711 119.573 29.3265 120.101 28.9306C120.634 28.5334 121.205 28.3063 121.814 28.2493C122.427 28.191 123.039 28.3227 123.649 28.6445C124 28.8302 124.317 29.0723 124.599 29.3709C124.88 29.6694 125.093 30.0252 125.236 30.4382C125.381 30.8483 125.424 31.3134 125.366 31.8335C125.308 32.3536 125.114 32.9296 124.784 33.5613L124.554 34.0021L119.348 31.2542L119.818 30.3551L123.968 32.5459C124.167 32.1639 124.269 31.7829 124.273 31.4027C124.28 31.0241 124.189 30.6746 124.001 30.3542C123.816 30.0354 123.536 29.777 123.161 29.579C122.748 29.3608 122.337 29.2749 121.927 29.3212C121.523 29.3661 121.154 29.5091 120.823 29.7502C120.492 29.9913 120.229 30.2984 120.034 30.6715L119.721 31.271C119.454 31.7823 119.316 32.2621 119.306 32.7105C119.301 33.1574 119.408 33.557 119.628 33.9093C119.85 34.2585 120.17 34.5438 120.589 34.7651C120.862 34.909 121.128 35.0007 121.388 35.0404C121.652 35.0786 121.905 35.0624 122.148 34.9918C122.392 34.9182 122.619 34.7871 122.83 34.5984L123.685 35.4097C123.402 35.6948 123.068 35.9009 122.684 36.028C122.301 36.1521 121.889 36.1895 121.448 36.1401C121.008 36.0877 120.559 35.9408 120.102 35.6995Z" fill="white" fill-opacity="0.5"/>
<path d="M138.496 37.9636L137.839 38.7097L134.884 36.0771L135.541 35.3309L138.496 37.9636ZM137.612 34.7254L138.488 35.5059L133.677 40.9676C133.458 41.2163 133.329 41.4348 133.292 41.6231C133.259 41.8111 133.28 41.977 133.357 42.1207C133.438 42.2641 133.543 42.3932 133.672 42.5078C133.768 42.5938 133.852 42.6594 133.922 42.7046C133.995 42.7473 134.054 42.7814 134.097 42.807L133.579 43.7567C133.5 43.7262 133.397 43.6747 133.271 43.6022C133.143 43.5323 132.997 43.4246 132.833 43.279C132.586 43.0586 132.391 42.789 132.247 42.4704C132.106 42.154 132.054 41.8169 132.091 41.4591C132.131 41.1035 132.297 40.7591 132.591 40.4258L137.612 34.7254Z" fill="white" fill-opacity="0.5"/>
<path d="M152.207 68.5164C151.964 67.8713 151.904 67.2469 152.027 66.643C152.151 66.0423 152.437 65.5004 152.886 65.0172C153.335 64.5371 153.928 64.1565 154.665 63.8754C155.409 63.5919 156.108 63.4793 156.764 63.5377C157.421 63.5992 157.995 63.8134 158.484 64.1802C158.974 64.5502 159.34 65.0577 159.584 65.7027C159.827 66.3478 159.886 66.9707 159.762 67.5714C159.639 68.1752 159.352 68.7178 158.899 69.199C158.448 69.6834 157.85 70.0673 157.107 70.3508C156.37 70.6319 155.674 70.7412 155.02 70.6785C154.367 70.619 153.796 70.4042 153.306 70.0343C152.817 69.6674 152.45 69.1614 152.207 68.5164ZM153.192 68.1408C153.377 68.6308 153.654 68.9861 154.024 69.2067C154.394 69.4274 154.813 69.5357 155.279 69.5318C155.745 69.5278 156.216 69.4349 156.693 69.253C157.17 69.071 157.586 68.8256 157.94 68.5165C158.295 68.2074 158.539 67.8463 158.674 67.4331C158.809 67.0199 158.784 66.5683 158.599 66.0784C158.414 65.5884 158.135 65.2336 157.762 65.0142C157.389 64.7947 156.968 64.6875 156.498 64.6927C156.029 64.6978 155.556 64.7913 155.079 64.9732C154.602 65.1551 154.188 65.4 153.837 65.7079C153.485 66.0158 153.244 66.3757 153.112 66.7878C152.981 67.1998 153.007 67.6508 153.192 68.1408Z" fill="white" fill-opacity="0.5"/>
<path d="M159.925 83.7026L164.406 83.1554L164.547 84.3202L156.967 85.2459L156.826 84.0811L158.109 83.9244L158.1 83.8454C157.693 83.7147 157.333 83.4783 157.017 83.1361C156.706 82.7936 156.515 82.336 156.446 81.7635C156.389 81.2896 156.442 80.8558 156.604 80.4619C156.771 80.0677 157.051 79.7396 157.447 79.4775C157.846 79.2151 158.368 79.0445 159.013 78.9658L163.829 78.3776L163.97 79.5424L159.232 80.121C158.68 80.1885 158.258 80.397 157.966 80.7465C157.675 81.0992 157.558 81.5175 157.617 82.0012C157.652 82.2907 157.761 82.5762 157.945 82.8576C158.13 83.1422 158.387 83.3678 158.718 83.5345C159.049 83.7044 159.451 83.7605 159.925 83.7026Z" fill="white" fill-opacity="0.5"/>
<path d="M157.935 94.7071L165.515 95.6328L165.379 96.7582L164.234 96.6184L164.224 96.6973C164.583 96.8813 164.857 97.1686 165.047 97.5591C165.237 97.9495 165.304 98.3718 165.249 98.8259C165.239 98.9115 165.224 99.0182 165.206 99.1461C165.187 99.2741 165.17 99.3705 165.156 99.4355L163.971 99.2909C163.986 99.2526 164.012 99.1639 164.048 99.0249C164.088 98.8895 164.117 98.7444 164.136 98.5898C164.181 98.2213 164.143 97.8828 164.023 97.5743C163.906 97.2696 163.723 97.0168 163.474 96.816C163.227 96.619 162.933 96.4995 162.591 96.4578L157.794 95.872L157.935 94.7071Z" fill="white" fill-opacity="0.5"/>
<path d="M149.878 125.152L158.241 130.958L156.295 133.795C155.843 134.453 155.355 134.91 154.831 135.163C154.308 135.422 153.777 135.513 153.238 135.437C152.699 135.362 152.183 135.153 151.69 134.811C151.198 134.469 150.819 134.056 150.555 133.575C150.289 133.095 150.18 132.563 150.227 131.979C150.277 131.396 150.526 130.779 150.974 130.126L152.37 128.092L153.268 128.716L151.895 130.716C151.586 131.167 151.415 131.583 151.383 131.964C151.35 132.345 151.424 132.689 151.604 132.995C151.784 133.306 152.042 133.578 152.377 133.81C152.712 134.043 153.054 134.188 153.405 134.246C153.753 134.306 154.097 134.25 154.436 134.078C154.778 133.908 155.106 133.595 155.419 133.138L156.645 131.351L149.18 126.168L149.878 125.152Z" fill="white" fill-opacity="0.5"/>
<path d="M141.425 137.2L146.472 142.93L145.626 143.684L144.864 142.819L144.804 142.872C144.95 143.248 144.965 143.646 144.848 144.065C144.731 144.484 144.502 144.846 144.161 145.15C144.096 145.207 144.015 145.278 143.916 145.361C143.818 145.445 143.741 145.506 143.687 145.545L142.899 144.65C142.935 144.631 143.013 144.581 143.132 144.501C143.252 144.426 143.369 144.337 143.486 144.233C143.763 143.986 143.959 143.707 144.074 143.396C144.188 143.09 144.219 142.779 144.165 142.462C144.112 142.151 143.971 141.865 143.743 141.607L140.549 137.981L141.425 137.2Z" fill="white" fill-opacity="0.5"/>
<path d="M126.195 149.086C126.804 148.764 127.415 148.627 128.027 148.675C128.636 148.725 129.206 148.943 129.737 149.33C130.265 149.718 130.711 150.262 131.076 150.962C131.444 151.667 131.638 152.35 131.658 153.01C131.674 153.672 131.53 154.27 131.224 154.802C130.916 155.336 130.457 155.763 129.847 156.085C129.237 156.407 128.628 156.543 128.019 156.494C127.407 156.446 126.836 156.226 126.307 155.835C125.774 155.445 125.324 154.897 124.956 154.192C124.591 153.493 124.401 152.814 124.386 152.154C124.368 151.497 124.514 150.901 124.822 150.367C125.127 149.835 125.585 149.408 126.195 149.086ZM126.682 150.021C126.219 150.265 125.9 150.585 125.725 150.981C125.551 151.377 125.493 151.807 125.552 152.27C125.61 152.734 125.758 153.192 125.994 153.644C126.23 154.097 126.522 154.481 126.869 154.796C127.217 155.111 127.603 155.31 128.028 155.393C128.453 155.476 128.896 155.395 129.36 155.151C129.823 154.906 130.141 154.585 130.314 154.186C130.487 153.787 130.544 153.355 130.483 152.888C130.423 152.421 130.275 151.962 130.039 151.509C129.803 151.057 129.512 150.675 129.166 150.362C128.82 150.05 128.435 149.854 128.012 149.774C127.589 149.694 127.145 149.776 126.682 150.021Z" fill="white" fill-opacity="0.5"/>
<path d="M114.477 162.703L114.24 161.737L118.236 160.746L118.472 161.712L114.477 162.703ZM115.458 154.592L117.526 163.032C117.63 163.457 117.618 163.836 117.487 164.169C117.357 164.502 117.151 164.778 116.867 164.999C116.583 165.22 116.264 165.374 115.91 165.461C115.63 165.531 115.397 165.565 115.209 165.564C115.021 165.562 114.878 165.553 114.782 165.536L114.869 164.47C114.931 164.475 115.018 164.479 115.128 164.482C115.235 164.487 115.37 164.468 115.534 164.428C115.911 164.334 116.159 164.172 116.28 163.941C116.397 163.71 116.411 163.411 116.321 163.044L114.319 154.874L115.458 154.592Z" fill="white" fill-opacity="0.5"/>
<path d="M97.8186 157.841C98.5544 157.841 99.1891 158.003 99.7227 158.328C100.253 158.656 100.662 159.114 100.951 159.7C101.236 160.29 101.378 160.976 101.378 161.759C101.378 162.541 101.236 163.23 100.951 163.827C100.662 164.427 100.261 164.894 99.7476 165.229C99.2306 165.567 98.6273 165.736 97.9379 165.736C97.5402 165.736 97.1475 165.67 96.7597 165.537C96.3719 165.404 96.0189 165.189 95.7007 164.891C95.3826 164.596 95.129 164.205 94.9401 163.717C94.7512 163.23 94.6567 162.63 94.6567 161.918V161.42H100.543V162.435H95.8499C95.8499 162.866 95.9361 163.25 96.1084 163.588C96.2774 163.926 96.5194 164.193 96.8343 164.388C97.1458 164.584 97.5137 164.682 97.9379 164.682C98.4053 164.682 98.8096 164.566 99.151 164.334C99.4891 164.105 99.7493 163.807 99.9316 163.439C100.114 163.071 100.205 162.677 100.205 162.256V161.58C100.205 161.003 100.106 160.514 99.9067 160.113C99.7045 159.715 99.4245 159.412 99.0665 159.203C98.7085 158.998 98.2926 158.895 97.8186 158.895C97.5104 158.895 97.232 158.938 96.9834 159.024C96.7315 159.114 96.5144 159.246 96.3321 159.422C96.1498 159.601 96.009 159.823 95.9095 160.088L94.776 159.77C94.8953 159.385 95.0959 159.047 95.3776 158.756C95.6593 158.467 96.0073 158.242 96.4216 158.08C96.8359 157.92 97.3016 157.841 97.8186 157.841Z" fill="white" fill-opacity="0.5"/>
<path d="M78.9984 162.298L80.0924 162.262C80.1149 162.448 80.1692 162.638 80.2552 162.83C80.3372 163.024 80.4714 163.201 80.6577 163.36C80.8439 163.519 81.1028 163.639 81.4341 163.721C81.8877 163.834 82.2914 163.823 82.645 163.689C82.9947 163.557 83.2086 163.331 83.2867 163.013C83.3561 162.729 83.308 162.48 83.1424 162.265C82.9767 162.05 82.6885 161.833 82.2778 161.615L81.2439 161.072C80.6206 160.747 80.1872 160.378 79.9435 159.966C79.699 159.557 79.6403 159.094 79.7673 158.575C79.8715 158.15 80.0868 157.801 80.4133 157.527C80.7367 157.252 81.1391 157.071 81.6208 156.986C82.1024 156.901 82.6311 156.929 83.207 157.072C83.963 157.259 84.5485 157.579 84.9634 158.03C85.3784 158.481 85.5745 159.038 85.5518 159.702L84.4046 159.704C84.3995 159.28 84.2782 158.932 84.0408 158.662C83.8002 158.39 83.4466 158.197 82.9802 158.081C82.4493 157.949 82.0003 157.958 81.633 158.106C81.2618 158.256 81.0371 158.491 80.959 158.809C80.8959 159.067 80.9331 159.305 81.0706 159.523C81.2074 159.745 81.4517 159.946 81.8036 160.125L82.9679 160.721C83.6073 161.05 84.0448 161.423 84.2804 161.84C84.5121 162.26 84.5652 162.725 84.4397 163.237C84.3372 163.656 84.129 163.997 83.8153 164.26C83.4983 164.523 83.1131 164.696 82.6596 164.778C82.2028 164.859 81.7139 164.836 81.1927 164.706C80.4592 164.525 79.9228 164.221 79.5835 163.795C79.241 163.369 79.0459 162.87 78.9984 162.298Z" fill="white" fill-opacity="0.5"/>
<path d="M63.1933 156.698L64.2634 156.925C64.2407 157.112 64.2482 157.309 64.2859 157.516C64.3191 157.725 64.4071 157.929 64.5499 158.128C64.6928 158.327 64.9152 158.506 65.2171 158.666C65.6303 158.884 66.0246 158.97 66.3998 158.925C66.7705 158.88 67.0318 158.713 67.1836 158.422C67.3185 158.163 67.3313 157.91 67.2219 157.661C67.1125 157.412 66.8846 157.132 66.5381 156.822L65.6644 156.046C65.1373 155.58 64.8047 155.118 64.6666 154.659C64.5269 154.203 64.5805 153.739 64.8274 153.266C65.0298 152.878 65.3221 152.59 65.7043 152.402C66.0836 152.212 66.5171 152.134 67.0048 152.166C67.4925 152.199 67.9987 152.354 68.5234 152.631C69.2122 152.994 69.7041 153.445 69.9991 153.983C70.2941 154.521 70.3514 155.11 70.171 155.749L69.0574 155.476C69.1537 155.062 69.119 154.695 68.9532 154.375C68.7845 154.054 68.4876 153.781 68.0626 153.557C67.5789 153.301 67.1413 153.201 66.7497 153.257C66.3535 153.314 66.0796 153.488 65.9278 153.779C65.8051 154.014 65.7844 154.254 65.8658 154.499C65.9456 154.748 66.1348 155.001 66.4334 155.26L67.421 156.119C67.9627 156.592 68.2982 157.06 68.4274 157.521C68.5521 157.984 68.4926 158.45 68.2488 158.917C68.0494 159.299 67.7661 159.58 67.3988 159.761C67.0286 159.94 66.6136 160.016 66.154 159.987C65.6914 159.956 65.2227 159.815 64.7479 159.565C64.0796 159.212 63.6316 158.788 63.4039 158.293C63.1732 157.797 63.103 157.265 63.1933 156.698Z" fill="white" fill-opacity="0.5"/>
<path d="M57.1016 146.578L52.054 152.309L51.178 151.528L56.2256 145.798L57.1016 146.578ZM50.7674 152.867C50.9381 153.019 51.0339 153.209 51.0546 153.436C51.0729 153.661 51.0098 153.855 50.8652 154.019C50.7206 154.183 50.5362 154.27 50.312 154.279C50.0853 154.285 49.8865 154.213 49.7158 154.061C49.545 153.908 49.4505 153.72 49.4322 153.495C49.4115 153.268 49.4734 153.072 49.618 152.908C49.7626 152.744 49.9482 152.658 50.1749 152.652C50.3991 152.643 50.5966 152.715 50.7674 152.867Z" fill="white" fill-opacity="0.5"/>
<path d="M43.5404 132.761C43.9304 133.33 44.1379 133.922 44.1629 134.538C44.1859 135.152 44.0376 135.747 43.718 136.324C43.3966 136.898 42.9118 137.41 42.2639 137.86C41.6104 138.313 40.9585 138.591 40.3079 138.691C39.6556 138.789 39.0483 138.718 38.4862 138.479C37.9222 138.237 37.4452 137.832 37.0551 137.264C36.665 136.695 36.4584 136.104 36.4354 135.491C36.4105 134.875 36.5601 134.279 36.8843 133.703C37.2066 133.124 37.6945 132.608 38.3479 132.154C38.9959 131.704 39.6447 131.431 40.2944 131.335C40.9422 131.236 41.5481 131.308 42.112 131.55C42.6742 131.789 43.1503 132.193 43.5404 132.761ZM42.6746 133.362C42.3782 132.931 42.0242 132.652 41.6123 132.526C41.2005 132.401 40.7689 132.396 40.3177 132.511C39.8664 132.627 39.4311 132.83 39.0118 133.121C38.5925 133.412 38.2478 133.751 37.9776 134.136C37.7074 134.521 37.5563 134.931 37.5243 135.364C37.4924 135.798 37.6245 136.231 37.9209 136.663C38.2172 137.094 38.5726 137.372 38.9872 137.496C39.4017 137.62 39.836 137.623 40.29 137.505C40.744 137.388 41.1807 137.184 41.5999 136.892C42.0192 136.601 42.3626 136.264 42.6301 135.881C42.8976 135.497 43.046 135.09 43.0752 134.658C43.1044 134.226 42.9709 133.794 42.6746 133.362Z" fill="white" fill-opacity="0.5"/>
<path d="M32.0076 122.906L36.2997 121.268L36.7137 122.366L29.5787 125.088L29.1788 124.027L30.2936 123.602L30.2585 123.509C29.8331 123.48 29.4461 123.336 29.0976 123.079C28.746 122.823 28.4684 122.425 28.2649 121.886C28.0825 121.402 28.022 120.941 28.0834 120.502C28.1416 120.065 28.3325 119.669 28.656 119.315C28.9764 118.963 29.44 118.67 30.047 118.439L34.5807 116.71L34.9946 117.807L30.5353 119.508C29.9748 119.722 29.5931 120.035 29.3902 120.445C29.1843 120.857 29.1772 121.318 29.369 121.826C29.5011 122.177 29.6951 122.461 29.9509 122.679C30.2056 122.894 30.5083 123.025 30.859 123.072C31.2098 123.12 31.5926 123.064 32.0076 122.906Z" fill="white" fill-opacity="0.5"/>
<path d="M31.703 106.808C31.761 107.288 31.7232 107.736 31.5895 108.149C31.4525 108.563 31.2252 108.907 30.9076 109.179C30.5867 109.452 30.1795 109.619 29.686 109.679C29.2517 109.732 28.8893 109.689 28.5989 109.551C28.3052 109.413 28.0637 109.211 27.8745 108.943C27.6854 108.676 27.5321 108.374 27.4147 108.038C27.2936 107.699 27.1888 107.356 27.1002 107.01C26.9854 106.556 26.8959 106.188 26.8317 105.905C26.7639 105.62 26.6842 105.416 26.5926 105.294C26.5007 105.168 26.3609 105.116 26.1734 105.139L26.1339 105.144C25.647 105.204 25.2847 105.383 25.0471 105.683C24.8091 105.979 24.7225 106.395 24.7873 106.931C24.8544 107.487 25.0288 107.909 25.3104 108.195C25.592 108.481 25.8787 108.671 26.1705 108.766L25.9092 109.92C25.4248 109.779 25.0344 109.559 24.7381 109.261C24.438 108.961 24.2134 108.621 24.0641 108.242C23.9112 107.86 23.8117 107.478 23.7656 107.096C23.7362 106.853 23.732 106.569 23.7531 106.246C23.7705 105.92 23.8501 105.598 23.9921 105.281C24.1336 104.959 24.3717 104.678 24.7065 104.437C25.0412 104.196 25.5097 104.038 26.1117 103.965L31.1059 103.355L31.2465 104.52L30.22 104.645L30.2272 104.704C30.4012 104.763 30.5931 104.873 30.8029 105.035C31.0127 105.196 31.2018 105.422 31.3704 105.712C31.5389 106.002 31.6498 106.367 31.703 106.808ZM30.6354 106.758C30.5797 106.297 30.4424 105.92 30.2233 105.626C30.0038 105.329 29.7412 105.118 29.4356 104.991C29.1295 104.862 28.8185 104.816 28.5027 104.855L27.4367 104.985C27.5019 105.027 27.5693 105.129 27.6389 105.291C27.7048 105.45 27.769 105.636 27.8314 105.848C27.8901 106.058 27.945 106.264 27.9959 106.464C28.0432 106.662 28.0826 106.823 28.1141 106.946C28.1901 107.244 28.2885 107.519 28.4091 107.771C28.526 108.021 28.6814 108.216 28.8752 108.355C29.0653 108.493 29.3085 108.543 29.6046 108.507C30.0092 108.457 30.2971 108.27 30.4682 107.946C30.6357 107.618 30.6914 107.222 30.6354 106.758Z" fill="white" fill-opacity="0.5"/>
<path d="M20.0955 90.9291L30.2024 92.1619L30.0616 93.3267L19.9547 92.0939L20.0955 90.9291Z" fill="white" fill-opacity="0.5"/>
<path d="M30.3148 58.164L29.4164 57.5403L33.7374 51.2441L34.6359 51.8678L32.8242 54.5076L40.2896 59.6903L39.592 60.7069L32.1265 55.5242L30.3148 58.164Z" fill="white" fill-opacity="0.5"/>
<path d="M49.0669 48.7928C48.5175 49.2823 47.9363 49.5827 47.3232 49.6939C46.7104 49.8005 46.1024 49.7296 45.4994 49.4812C44.8966 49.2281 44.3367 48.8081 43.8197 48.2211C43.3027 47.6342 42.9534 47.022 42.7719 46.3847C42.5906 45.7427 42.5812 45.1253 42.7435 44.5323C42.906 43.9347 43.2447 43.4065 43.7594 42.9479C44.0563 42.6833 44.3934 42.4718 44.7705 42.3133C45.1477 42.1548 45.5536 42.0816 45.9884 42.0938C46.4209 42.1035 46.8687 42.2283 47.3318 42.4682C47.7949 42.7081 48.262 43.0955 48.733 43.6302L49.0616 44.0032L44.6667 47.9192L43.9964 47.1581L47.5004 44.036C47.2156 43.7126 46.8971 43.4815 46.545 43.3424C46.1953 43.2012 45.8383 43.1619 45.474 43.2247C45.1121 43.2852 44.7728 43.4566 44.456 43.7388C44.1071 44.0497 43.8819 44.4057 43.7804 44.8069C43.6791 45.2035 43.6821 45.6004 43.7891 45.9977C43.8962 46.3951 44.0889 46.7517 44.3671 47.0675L44.814 47.5749C45.1952 48.0077 45.5926 48.3084 46.0061 48.477C46.42 48.641 46.8295 48.6822 47.2348 48.6008C47.6379 48.5168 48.0163 48.3172 48.3702 48.0019C48.6003 47.7969 48.7797 47.5793 48.9084 47.3493C49.0373 47.1146 49.1117 46.8707 49.1317 46.6176C49.1495 46.362 49.1079 46.1016 49.0069 45.8365L50.0635 45.3212C50.2286 45.6891 50.3023 46.0762 50.2847 46.4825C50.265 46.8863 50.1541 47.2869 49.9522 47.6844C49.748 48.0794 49.4529 48.4489 49.0669 48.7928Z" fill="white" fill-opacity="0.5"/>
<path d="M59.9733 39.9049C59.5453 40.1308 59.1148 40.255 58.6817 40.2775C58.247 40.2971 57.8466 40.2067 57.4804 40.0065C57.1127 39.8033 56.8138 39.4814 56.5838 39.0406C56.3814 38.6528 56.2936 38.2981 56.3202 37.9767C56.3454 37.6524 56.4494 37.3539 56.6324 37.0811C56.8153 36.8084 57.043 36.5571 57.3155 36.327C57.5894 36.0925 57.8725 35.8719 58.1646 35.6652C58.5474 35.3957 58.8593 35.1804 59.1006 35.0194C59.3432 34.8538 59.5054 34.7063 59.5874 34.5768C59.6723 34.4458 59.6711 34.2966 59.5837 34.1291L59.5653 34.0938C59.3383 33.6589 59.0433 33.3837 58.6802 33.2681C58.3199 33.1509 57.9009 33.2184 57.4232 33.4706C56.9278 33.7321 56.5962 34.0458 56.4283 34.4118C56.2603 34.7778 56.1836 35.1143 56.1981 35.4215L55.0293 35.5888C54.9905 35.0846 55.0578 34.6405 55.2313 34.2566C55.4062 33.8682 55.6443 33.5364 55.9456 33.2612C56.2483 32.9815 56.5696 32.7519 56.9096 32.5724C57.1265 32.4579 57.3894 32.3528 57.6984 32.2572C58.0088 32.1571 58.3373 32.1167 58.6839 32.1361C59.0334 32.154 59.3797 32.2767 59.7227 32.5041C60.0657 32.7316 60.3775 33.1142 60.6581 33.6519L62.9857 38.1123L61.9481 38.6601L61.4697 37.7433L61.4169 37.7711C61.4233 37.9552 61.388 38.1743 61.3113 38.4284C61.2346 38.6825 61.0906 38.9403 60.8793 39.2018C60.6681 39.4632 60.366 39.6976 59.9733 39.9049ZM59.6439 38.8869C60.0543 38.6703 60.358 38.4069 60.5551 38.0968C60.755 37.7851 60.8601 37.4635 60.8704 37.1321C60.8835 36.7991 60.8165 36.4915 60.6693 36.2095L60.1725 35.2574C60.1561 35.3335 60.0847 35.4331 59.9582 35.556C59.8331 35.6745 59.6823 35.801 59.5057 35.9354C59.3305 36.0654 59.1582 36.1901 58.9887 36.3095C58.8207 36.4245 58.6848 36.5187 58.5811 36.5922C58.3298 36.7698 58.1076 36.9601 57.9145 37.1633C57.7228 37.3619 57.5958 37.577 57.5335 37.8085C57.4725 38.0356 57.511 38.2813 57.649 38.5458C57.8376 38.9072 58.1136 39.1101 58.4769 39.1544C58.8417 39.1942 59.2307 39.1051 59.6439 38.8869Z" fill="white" fill-opacity="0.5"/>
<path d="M71.8929 33.5691L70.0752 26.1522L71.1755 25.8794L71.4595 27.0383L71.556 27.0144C71.6134 26.5802 71.7873 26.2109 72.0779 25.9067C72.3677 25.5993 72.7539 25.3857 73.2364 25.2661C73.7254 25.1449 74.1596 25.1551 74.5389 25.2966C74.9207 25.4342 75.2518 25.6782 75.5322 26.0287L75.6094 26.0096C75.7053 25.5794 75.9155 25.2047 76.2399 24.8852C76.5635 24.5625 76.9907 24.3354 77.5215 24.2038C78.1842 24.0395 78.7772 24.1128 79.3004 24.4236C79.8228 24.7312 80.1909 25.3212 80.4047 26.1935L81.6211 31.1575L80.4823 31.4398L79.2658 26.4759C79.1317 25.9286 78.8863 25.5746 78.5295 25.4137C78.1727 25.2529 77.7917 25.2227 77.3863 25.3232C76.8652 25.4524 76.5001 25.7102 76.2911 26.0967C76.0813 26.4799 76.0352 26.9114 76.1527 27.391L77.3361 32.2197L76.1779 32.5068L74.9331 27.427C74.8297 27.0053 74.6098 26.6996 74.2732 26.5098C73.9359 26.3169 73.5516 26.2738 73.1206 26.3807C72.8246 26.4541 72.5673 26.6015 72.3486 26.8231C72.1331 27.0438 71.9808 27.3137 71.8918 27.6329C71.8052 27.948 71.8065 28.2874 71.8957 28.6512L73.0317 33.2868L71.8929 33.5691Z" fill="white" fill-opacity="0.5"/>
</svg>
