<svg width="1464" height="1268" viewBox="0 0 1464 1268" fill="none" xmlns="http://www.w3.org/2000/svg">
<mask id="mask0_14862_49018" style="mask-type:alpha" maskUnits="userSpaceOnUse" x="0" y="0" width="1464" height="1268">
<rect width="1464" height="1268" rx="48" fill="#E5E5E5" fill-opacity="0.5"/>
</mask>
<g mask="url(#mask0_14862_49018)">
<g opacity="0.3">
<line x1="52.5" y1="2.18556e-08" x2="52.4999" y2="1268" stroke="url(#paint0_linear_14862_49018)"/>
<line x1="292.5" y1="2.18556e-08" x2="292.5" y2="1268" stroke="url(#paint1_linear_14862_49018)"/>
<line x1="532.5" y1="2.18556e-08" x2="532.5" y2="1268" stroke="url(#paint2_linear_14862_49018)"/>
<line x1="772.5" y1="2.18556e-08" x2="772.5" y2="1268" stroke="url(#paint3_linear_14862_49018)"/>
<line x1="1012.5" y1="2.18556e-08" x2="1012.5" y2="1268" stroke="url(#paint4_linear_14862_49018)"/>
<line x1="1252.5" y1="2.18556e-08" x2="1252.5" y2="1268" stroke="url(#paint5_linear_14862_49018)"/>
<line x1="132.5" y1="2.18556e-08" x2="132.5" y2="1268" stroke="url(#paint6_linear_14862_49018)"/>
<line x1="372.5" y1="2.18556e-08" x2="372.5" y2="1268" stroke="url(#paint7_linear_14862_49018)"/>
<line x1="612.5" y1="2.18556e-08" x2="612.5" y2="1268" stroke="url(#paint8_linear_14862_49018)"/>
<line x1="852.5" y1="2.18556e-08" x2="852.5" y2="1268" stroke="url(#paint9_linear_14862_49018)"/>
<line x1="1092.5" y1="2.18556e-08" x2="1092.5" y2="1268" stroke="url(#paint10_linear_14862_49018)"/>
<line x1="1332.5" y1="2.18556e-08" x2="1332.5" y2="1268" stroke="url(#paint11_linear_14862_49018)"/>
<line x1="212.5" y1="2.18556e-08" x2="212.5" y2="1268" stroke="url(#paint12_linear_14862_49018)"/>
<line x1="452.5" y1="2.18556e-08" x2="452.5" y2="1268" stroke="url(#paint13_linear_14862_49018)"/>
<line x1="692.5" y1="2.18556e-08" x2="692.5" y2="1268" stroke="url(#paint14_linear_14862_49018)"/>
<line x1="932.5" y1="2.18556e-08" x2="932.5" y2="1268" stroke="url(#paint15_linear_14862_49018)"/>
<line x1="1172.5" y1="2.18556e-08" x2="1172.5" y2="1268" stroke="url(#paint16_linear_14862_49018)"/>
<line x1="1412.5" y1="2.18556e-08" x2="1412.5" y2="1268" stroke="url(#paint17_linear_14862_49018)"/>
</g>
</g>
<defs>
<linearGradient id="paint0_linear_14862_49018" x1="51.5" y1="-2.18556e-08" x2="51.4999" y2="1268" gradientUnits="userSpaceOnUse">
<stop stop-color="#559864" stop-opacity="0"/>
<stop offset="0.5" stop-color="#559864"/>
<stop offset="1" stop-color="#559864" stop-opacity="0"/>
</linearGradient>
<linearGradient id="paint1_linear_14862_49018" x1="291.5" y1="-2.18556e-08" x2="291.5" y2="1268" gradientUnits="userSpaceOnUse">
<stop stop-color="#559864" stop-opacity="0"/>
<stop offset="0.5" stop-color="#559864"/>
<stop offset="1" stop-color="#559864" stop-opacity="0"/>
</linearGradient>
<linearGradient id="paint2_linear_14862_49018" x1="531.5" y1="-2.18556e-08" x2="531.5" y2="1268" gradientUnits="userSpaceOnUse">
<stop stop-color="#559864" stop-opacity="0"/>
<stop offset="0.5" stop-color="#559864"/>
<stop offset="1" stop-color="#559864" stop-opacity="0"/>
</linearGradient>
<linearGradient id="paint3_linear_14862_49018" x1="771.5" y1="-2.18556e-08" x2="771.5" y2="1268" gradientUnits="userSpaceOnUse">
<stop stop-color="#559864" stop-opacity="0"/>
<stop offset="0.5" stop-color="#559864"/>
<stop offset="1" stop-color="#559864" stop-opacity="0"/>
</linearGradient>
<linearGradient id="paint4_linear_14862_49018" x1="1011.5" y1="-2.18556e-08" x2="1011.5" y2="1268" gradientUnits="userSpaceOnUse">
<stop stop-color="#559864" stop-opacity="0"/>
<stop offset="0.5" stop-color="#559864"/>
<stop offset="1" stop-color="#559864" stop-opacity="0"/>
</linearGradient>
<linearGradient id="paint5_linear_14862_49018" x1="1251.5" y1="-2.18556e-08" x2="1251.5" y2="1268" gradientUnits="userSpaceOnUse">
<stop stop-color="#559864" stop-opacity="0"/>
<stop offset="0.5" stop-color="#559864"/>
<stop offset="1" stop-color="#559864" stop-opacity="0"/>
</linearGradient>
<linearGradient id="paint6_linear_14862_49018" x1="131.5" y1="-2.18556e-08" x2="131.5" y2="1268" gradientUnits="userSpaceOnUse">
<stop stop-color="#559864" stop-opacity="0"/>
<stop offset="0.5" stop-color="#559864"/>
<stop offset="1" stop-color="#559864" stop-opacity="0"/>
</linearGradient>
<linearGradient id="paint7_linear_14862_49018" x1="371.5" y1="-2.18556e-08" x2="371.5" y2="1268" gradientUnits="userSpaceOnUse">
<stop stop-color="#559864" stop-opacity="0"/>
<stop offset="0.5" stop-color="#559864"/>
<stop offset="1" stop-color="#559864" stop-opacity="0"/>
</linearGradient>
<linearGradient id="paint8_linear_14862_49018" x1="611.5" y1="-2.18556e-08" x2="611.5" y2="1268" gradientUnits="userSpaceOnUse">
<stop stop-color="#559864" stop-opacity="0"/>
<stop offset="0.5" stop-color="#559864"/>
<stop offset="1" stop-color="#559864" stop-opacity="0"/>
</linearGradient>
<linearGradient id="paint9_linear_14862_49018" x1="851.5" y1="-2.18556e-08" x2="851.5" y2="1268" gradientUnits="userSpaceOnUse">
<stop stop-color="#559864" stop-opacity="0"/>
<stop offset="0.5" stop-color="#559864"/>
<stop offset="1" stop-color="#559864" stop-opacity="0"/>
</linearGradient>
<linearGradient id="paint10_linear_14862_49018" x1="1091.5" y1="-2.18556e-08" x2="1091.5" y2="1268" gradientUnits="userSpaceOnUse">
<stop stop-color="#559864" stop-opacity="0"/>
<stop offset="0.5" stop-color="#559864"/>
<stop offset="1" stop-color="#559864" stop-opacity="0"/>
</linearGradient>
<linearGradient id="paint11_linear_14862_49018" x1="1331.5" y1="-2.18556e-08" x2="1331.5" y2="1268" gradientUnits="userSpaceOnUse">
<stop stop-color="#559864" stop-opacity="0"/>
<stop offset="0.5" stop-color="#559864"/>
<stop offset="1" stop-color="#559864" stop-opacity="0"/>
</linearGradient>
<linearGradient id="paint12_linear_14862_49018" x1="211.5" y1="-2.18556e-08" x2="211.5" y2="1268" gradientUnits="userSpaceOnUse">
<stop stop-color="#559864" stop-opacity="0"/>
<stop offset="0.5" stop-color="#559864"/>
<stop offset="1" stop-color="#559864" stop-opacity="0"/>
</linearGradient>
<linearGradient id="paint13_linear_14862_49018" x1="451.5" y1="-2.18556e-08" x2="451.5" y2="1268" gradientUnits="userSpaceOnUse">
<stop stop-color="#559864" stop-opacity="0"/>
<stop offset="0.5" stop-color="#559864"/>
<stop offset="1" stop-color="#559864" stop-opacity="0"/>
</linearGradient>
<linearGradient id="paint14_linear_14862_49018" x1="691.5" y1="-2.18556e-08" x2="691.5" y2="1268" gradientUnits="userSpaceOnUse">
<stop stop-color="#559864" stop-opacity="0"/>
<stop offset="0.5" stop-color="#559864"/>
<stop offset="1" stop-color="#559864" stop-opacity="0"/>
</linearGradient>
<linearGradient id="paint15_linear_14862_49018" x1="931.5" y1="-2.18556e-08" x2="931.5" y2="1268" gradientUnits="userSpaceOnUse">
<stop stop-color="#559864" stop-opacity="0"/>
<stop offset="0.5" stop-color="#559864"/>
<stop offset="1" stop-color="#559864" stop-opacity="0"/>
</linearGradient>
<linearGradient id="paint16_linear_14862_49018" x1="1171.5" y1="-2.18556e-08" x2="1171.5" y2="1268" gradientUnits="userSpaceOnUse">
<stop stop-color="#559864" stop-opacity="0"/>
<stop offset="0.5" stop-color="#559864"/>
<stop offset="1" stop-color="#559864" stop-opacity="0"/>
</linearGradient>
<linearGradient id="paint17_linear_14862_49018" x1="1411.5" y1="-2.18556e-08" x2="1411.5" y2="1268" gradientUnits="userSpaceOnUse">
<stop stop-color="#559864" stop-opacity="0"/>
<stop offset="0.5" stop-color="#559864"/>
<stop offset="1" stop-color="#559864" stop-opacity="0"/>
</linearGradient>
</defs>
</svg>
