<svg width="208" height="120" viewBox="0 0 208 120" fill="none" xmlns="http://www.w3.org/2000/svg">
<rect width="208" height="120" fill="#ADDCF1"/>
<rect x="80" y="36" width="48" height="48" rx="12" fill="white"/>
<path opacity="0.4" d="M110.47 64.83L110.86 67.99C110.96 68.82 110.07 69.4 109.36 68.97L105.17 66.48C104.71 66.48 104.26 66.45 103.82 66.39C104.56 65.52 105 64.42 105 63.23C105 60.39 102.54 58.09 99.4998 58.09C98.3398 58.09 97.2699 58.42 96.3799 59C96.3499 58.75 96.3398 58.5 96.3398 58.24C96.3398 53.69 100.29 50 105.17 50C110.05 50 114 53.69 114 58.24C114 60.94 112.61 63.33 110.47 64.83Z" fill="#309ED1"/>
<path d="M105 63.23C105 64.42 104.56 65.5201 103.82 66.3901C102.83 67.5901 101.26 68.36 99.5 68.36L96.89 69.91C96.45 70.18 95.89 69.81 95.95 69.3L96.2 67.3301C94.86 66.4001 94 64.91 94 63.23C94 61.47 94.94 59.9201 96.38 59.0001C97.27 58.4201 98.34 58.0901 99.5 58.0901C102.54 58.0901 105 60.39 105 63.23Z" fill="#309ED1"/>
</svg>
