<svg width="208" height="120" viewBox="0 0 208 120" fill="none" xmlns="http://www.w3.org/2000/svg">
<rect width="208" height="120" fill="#B9D8FF"/>
<rect x="80" y="36" width="48" height="48" rx="12" fill="white"/>
<path opacity="0.4" d="M107 52H101C98.24 52 96 54.24 96 57V63C96 65.76 98.24 68 101 68H107C109.76 68 112 65.76 112 63V57C112 54.24 109.76 52 107 52ZM109.26 62.26C109.26 63.92 107.92 65.26 106.26 65.26H101.74C100.08 65.26 98.74 63.92 98.74 62.26V57.74C98.74 56.08 100.08 54.74 101.74 54.74H106.25C107.91 54.74 109.25 56.08 109.25 57.74V62.26H109.26Z" fill="#0170FF"/>
<path d="M101.059 50.75V52H100.999C100.499 52 100.019 52.07 99.5586 52.21V50.75C99.5586 50.34 99.8886 50 100.309 50C100.719 50 101.059 50.34 101.059 50.75Z" fill="#0170FF"/>
<path d="M104.75 50.75V52H103.25V50.75C103.25 50.34 103.59 50 104 50C104.41 50 104.75 50.34 104.75 50.75Z" fill="#0170FF"/>
<path d="M108.449 50.75V52.21C107.989 52.07 107.499 52 106.999 52H106.949V50.75C106.949 50.34 107.289 50 107.699 50C108.109 50 108.449 50.34 108.449 50.75Z" fill="#0170FF"/>
<path d="M113.999 56.3C113.999 56.72 113.669 57.05 113.249 57.05H111.999V57C111.999 56.5 111.929 56.01 111.789 55.55H113.249C113.669 55.55 113.999 55.89 113.999 56.3Z" fill="#0170FF"/>
<path d="M114 60C114 60.41 113.67 60.75 113.25 60.75H112V59.25H113.25C113.67 59.25 114 59.58 114 60Z" fill="#0170FF"/>
<path d="M113.999 63.7C113.999 64.11 113.669 64.45 113.249 64.45H111.789C111.929 63.99 111.999 63.5 111.999 63V62.95H113.249C113.669 62.95 113.999 63.28 113.999 63.7Z" fill="#0170FF"/>
<path d="M108.449 67.79V69.25C108.449 69.66 108.109 70 107.699 70C107.289 70 106.949 69.66 106.949 69.25V68H106.999C107.499 68 107.989 67.93 108.449 67.79Z" fill="#0170FF"/>
<path d="M104.762 68V69.25C104.762 69.66 104.422 70 104.012 70C103.592 70 103.262 69.66 103.262 69.25V68H104.762Z" fill="#0170FF"/>
<path d="M101.059 68V69.25C101.059 69.66 100.719 70 100.309 70C99.8886 70 99.5586 69.66 99.5586 69.25V67.79C100.019 67.93 100.499 68 100.999 68H101.059Z" fill="#0170FF"/>
<path d="M96.21 55.55C96.07 56.01 96 56.5 96 57V57.05H94.75C94.34 57.05 94 56.72 94 56.3C94 55.89 94.34 55.55 94.75 55.55H96.21Z" fill="#0170FF"/>
<path d="M96 59.25V60.75H94.75C94.34 60.75 94 60.41 94 60C94 59.58 94.34 59.25 94.75 59.25H96Z" fill="#0170FF"/>
<path d="M96.21 64.45H94.75C94.34 64.45 94 64.11 94 63.7C94 63.28 94.34 62.95 94.75 62.95H96V63C96 63.5 96.07 63.99 96.21 64.45Z" fill="#0170FF"/>
<path d="M109.258 57.74V62.25C109.258 63.91 107.918 65.25 106.258 65.25H101.738C100.078 65.25 98.7383 63.91 98.7383 62.25V57.74C98.7383 56.08 100.078 54.74 101.738 54.74H106.248C107.908 54.74 109.258 56.09 109.258 57.74Z" fill="#0170FF"/>
</svg>
