<svg width="208" height="120" viewBox="0 0 208 120" fill="none" xmlns="http://www.w3.org/2000/svg">
<rect width="208" height="120" fill="#BDCFE6"/>
<rect x="80" y="36" width="48" height="48" rx="12" fill="white"/>
<path d="M114 56.69C114 57.88 113.81 58.98 113.48 60H94.52C94.19 58.98 94 57.88 94 56.69C94 53.6 96.49 51.1 99.56 51.1C101.37 51.1 102.99 51.98 104 53.33C105.01 51.98 106.63 51.1 108.44 51.1C111.51 51.1 114 53.6 114 56.69Z" fill="#7EA6DA"/>
<path opacity="0.4" d="M113.48 60C111.9 65 107.03 67.99 104.62 68.81C104.28 68.93 103.72 68.93 103.38 68.81C100.97 67.99 96.0995 65 94.5195 60H113.48Z" fill="#7EA6DA"/>
</svg>
