<svg width="208" height="120" viewBox="0 0 208 120" fill="none" xmlns="http://www.w3.org/2000/svg">
<rect width="208" height="120" fill="#FFDBAB"/>
<rect x="80" y="36" width="48" height="48" rx="12" fill="white"/>
<path opacity="0.4" d="M108.19 50H99.81C96.17 50 94 52.17 94 55.81V64.18C94 67.83 96.17 70 99.81 70H108.18C111.82 70 113.99 67.83 113.99 64.19V55.81C114 52.17 111.83 50 108.19 50Z" fill="#FCB352"/>
<path d="M100.821 57.7499C99.9714 57.7499 99.1214 57.4299 98.4714 56.7799C98.1814 56.4899 98.1814 56.0099 98.4714 55.7199C98.7614 55.4299 99.2414 55.4299 99.5314 55.7199C100.241 56.4299 101.401 56.4299 102.111 55.7199C102.401 55.4299 102.881 55.4299 103.171 55.7199C103.461 56.0099 103.461 56.4899 103.171 56.7799C102.521 57.4199 101.671 57.7499 100.821 57.7499Z" fill="#FCB352"/>
<path d="M107.181 57.7499C106.331 57.7499 105.481 57.4299 104.831 56.7799C104.541 56.4899 104.541 56.0099 104.831 55.7199C105.121 55.4299 105.601 55.4299 105.891 55.7199C106.601 56.4299 107.761 56.4299 108.471 55.7199C108.761 55.4299 109.241 55.4299 109.531 55.7199C109.821 56.0099 109.821 56.4899 109.531 56.7799C108.881 57.4199 108.031 57.7499 107.181 57.7499Z" fill="#FCB352"/>
<path d="M107.599 60.62H100.399C99.6989 60.62 99.1289 61.19 99.1289 61.9C99.1289 64.59 101.319 66.78 104.009 66.78C106.699 66.78 108.889 64.59 108.889 61.9C108.879 61.2 108.299 60.62 107.599 60.62Z" fill="#FCB352"/>
</svg>
