<svg width="208" height="120" viewBox="0 0 208 120" fill="none" xmlns="http://www.w3.org/2000/svg">
<rect width="208" height="120" fill="#B7DCB1"/>
<rect x="80" y="36" width="48" height="48" rx="12" fill="white"/>
<path d="M113.091 54.98C112.241 54.04 110.821 53.57 108.761 53.57H108.521V53.53C108.521 51.85 108.521 49.77 104.761 49.77H103.241C99.481 49.77 99.481 51.86 99.481 53.53V53.58H99.241C97.171 53.58 95.761 54.05 94.911 54.99C93.921 56.09 93.951 57.57 94.051 58.58L94.061 58.65L94.161 59.7C94.171 59.71 94.191 59.73 94.211 59.74C94.541 59.96 94.881 60.18 95.241 60.38C95.381 60.47 95.531 60.55 95.681 60.63C97.391 61.57 99.271 62.2 101.181 62.51C101.271 63.45 101.681 64.55 103.871 64.55C106.061 64.55 106.491 63.46 106.561 62.49C108.601 62.16 110.571 61.45 112.351 60.41C112.411 60.38 112.451 60.35 112.501 60.32C112.961 60.06 113.391 59.78 113.811 59.47C113.831 59.46 113.851 59.44 113.861 59.42L113.901 59.06L113.951 58.59C113.961 58.53 113.961 58.48 113.971 58.41C114.051 57.4 114.031 56.02 113.091 54.98ZM105.091 61.83C105.091 62.89 105.091 63.05 103.861 63.05C102.631 63.05 102.631 62.86 102.631 61.84V60.58H105.091V61.83ZM100.911 53.57V53.53C100.911 51.83 100.911 51.2 103.241 51.2H104.761C107.091 51.2 107.091 51.84 107.091 53.53V53.58H100.911V53.57Z" fill="#64B957"/>
<path opacity="0.4" d="M112.5 60.3C112.45 60.33 112.4 60.36 112.35 60.39C110.57 61.43 108.6 62.13 106.56 62.47C106.48 63.43 106.06 64.53 103.87 64.53C101.68 64.53 101.26 63.44 101.18 62.49C99.2702 62.19 97.3902 61.56 95.6802 60.61C95.5302 60.53 95.3802 60.45 95.2402 60.36C94.8802 60.16 94.5402 59.94 94.2102 59.72C94.1902 59.71 94.1702 59.69 94.1602 59.68L94.7702 66.19C94.9802 68.18 95.8002 70.23 100.2 70.23H107.82C112.22 70.23 113.04 68.18 113.25 66.18L113.88 59.4C113.87 59.42 113.85 59.44 113.83 59.45C113.4 59.76 112.96 60.05 112.5 60.3Z" fill="#64B957"/>
</svg>
