<svg width="208" height="120" viewBox="0 0 208 120" fill="none" xmlns="http://www.w3.org/2000/svg">
<rect width="208" height="120" fill="#D4E3B9"/>
<rect x="80" y="36" width="48" height="48" rx="12" fill="white"/>
<path opacity="0.4" d="M108.19 50H99.81C96.17 50 94 52.17 94 55.81V64.18C94 67.83 96.17 70 99.81 70H108.18C111.82 70 113.99 67.83 113.99 64.19V55.81C114 52.17 111.83 50 108.19 50Z" fill="#86A847"/>
<path d="M98.8789 66.9C98.4689 66.9 98.1289 66.56 98.1289 66.15V64.08C98.1289 63.67 98.4689 63.33 98.8789 63.33C99.2889 63.33 99.6289 63.67 99.6289 64.08V66.15C99.6289 66.57 99.2889 66.9 98.8789 66.9Z" fill="#86A847"/>
<path d="M104 66.9C103.59 66.9 103.25 66.56 103.25 66.15V62C103.25 61.59 103.59 61.25 104 61.25C104.41 61.25 104.75 61.59 104.75 62V66.15C104.75 66.57 104.41 66.9 104 66.9Z" fill="#86A847"/>
<path d="M109.121 66.9001C108.711 66.9001 108.371 66.5601 108.371 66.1501V59.9301C108.371 59.5201 108.711 59.1801 109.121 59.1801C109.531 59.1801 109.871 59.5201 109.871 59.9301V66.1501C109.871 66.5701 109.541 66.9001 109.121 66.9001Z" fill="#86A847"/>
<path d="M109.871 53.82C109.871 53.77 109.851 53.71 109.841 53.66C109.831 53.62 109.821 53.57 109.811 53.53C109.791 53.49 109.761 53.46 109.741 53.42C109.711 53.38 109.681 53.33 109.641 53.3C109.631 53.29 109.631 53.28 109.621 53.28C109.591 53.26 109.561 53.25 109.531 53.23C109.491 53.2 109.441 53.17 109.391 53.15C109.341 53.13 109.291 53.13 109.241 53.12C109.201 53.11 109.171 53.1 109.131 53.1H106.201C105.791 53.1 105.451 53.44 105.451 53.85C105.451 54.26 105.791 54.6 106.201 54.6H107.451C105.071 57.1 102.071 58.86 98.701 59.71C98.301 59.81 98.051 60.22 98.151 60.62C98.231 60.96 98.541 61.19 98.881 61.19C98.941 61.19 99.001 61.18 99.061 61.17C102.631 60.28 105.821 58.43 108.371 55.81V56.78C108.371 57.19 108.711 57.53 109.121 57.53C109.531 57.53 109.871 57.19 109.871 56.78V53.85C109.871 53.84 109.871 53.83 109.871 53.82Z" fill="#86A847"/>
</svg>
