<svg width="208" height="120" viewBox="0 0 208 120" fill="none" xmlns="http://www.w3.org/2000/svg">
<rect width="208" height="120" fill="#B9C7FF"/>
<rect x="80" y="36" width="48" height="48" rx="12" fill="white"/>
<path opacity="0.4" d="M108.24 50H99.76C97 50 96 51 96 53.81V66.19C96 69 97 70 99.76 70H108.23C111 70 112 69 112 66.19V53.81C112 51 111 50 108.24 50Z" fill="#728EFF"/>
<path d="M106 54.25H102C101.59 54.25 101.25 53.91 101.25 53.5C101.25 53.09 101.59 52.75 102 52.75H106C106.41 52.75 106.75 53.09 106.75 53.5C106.75 53.91 106.41 54.25 106 54.25Z" fill="#728EFF"/>
<path d="M104 67.3C104.966 67.3 105.75 66.5165 105.75 65.55C105.75 64.5835 104.966 63.8 104 63.8C103.034 63.8 102.25 64.5835 102.25 65.55C102.25 66.5165 103.034 67.3 104 67.3Z" fill="#728EFF"/>
</svg>
