<svg width="208" height="120" viewBox="0 0 208 120" fill="none" xmlns="http://www.w3.org/2000/svg">
<rect width="208" height="120" fill="#B6B9FA"/>
<rect x="80" y="36" width="48" height="48" rx="12" fill="white"/>
<path opacity="0.4" d="M94 60.8801V59.1201C94 58.0801 94.85 57.2201 95.9 57.2201C97.71 57.2201 98.45 55.9401 97.54 54.3701C97.02 53.4701 97.33 52.3001 98.24 51.7801L99.97 50.7901C100.76 50.3201 101.78 50.6001 102.25 51.3901L102.36 51.5801C103.26 53.1501 104.74 53.1501 105.65 51.5801L105.76 51.3901C106.23 50.6001 107.25 50.3201 108.04 50.7901L109.77 51.7801C110.68 52.3001 110.99 53.4701 110.47 54.3701C109.56 55.9401 110.3 57.2201 112.11 57.2201C113.15 57.2201 114.01 58.0701 114.01 59.1201V60.8801C114.01 61.9201 113.16 62.7801 112.11 62.7801C110.3 62.7801 109.56 64.0601 110.47 65.6301C110.99 66.5401 110.68 67.7001 109.77 68.2201L108.04 69.2101C107.25 69.6801 106.23 69.4001 105.76 68.6101L105.65 68.4201C104.75 66.8501 103.27 66.8501 102.36 68.4201L102.25 68.6101C101.78 69.4001 100.76 69.6801 99.97 69.2101L98.24 68.2201C97.33 67.7001 97.02 66.5301 97.54 65.6301C98.45 64.0601 97.71 62.7801 95.9 62.7801C94.85 62.7801 94 61.9201 94 60.8801Z" fill="#747AF6"/>
<path d="M104 63.25C105.795 63.25 107.25 61.7949 107.25 60C107.25 58.2051 105.795 56.75 104 56.75C102.205 56.75 100.75 58.2051 100.75 60C100.75 61.7949 102.205 63.25 104 63.25Z" fill="#747AF6"/>
</svg>
