<svg width="208" height="120" viewBox="0 0 208 120" fill="none" xmlns="http://www.w3.org/2000/svg">
<rect width="208" height="120" fill="#D9C4E4"/>
<rect x="80" y="36" width="48" height="48" rx="12" fill="white"/>
<path opacity="0.4" d="M112.361 60.7299C111.991 60.7299 111.681 60.45 111.641 60.08C111.401 57.88 110.221 55.9 108.401 54.64C108.071 54.41 107.991 53.96 108.221 53.63C108.451 53.3 108.901 53.22 109.231 53.45C111.401 54.96 112.801 57.32 113.091 59.93C113.131 60.33 112.841 60.6899 112.441 60.7299C112.411 60.7299 112.391 60.7299 112.361 60.7299Z" fill="#C278EB"/>
<path opacity="0.4" d="M95.7393 60.78C95.7193 60.78 95.6893 60.78 95.6693 60.78C95.2693 60.74 94.9793 60.38 95.0193 59.98C95.2893 57.37 96.6693 55.01 98.8193 53.49C99.1393 53.26 99.5993 53.34 99.8293 53.66C100.059 53.99 99.9793 54.44 99.6593 54.67C97.8593 55.95 96.6893 57.93 96.4693 60.12C96.4293 60.5 96.1093 60.78 95.7393 60.78Z" fill="#C278EB"/>
<path opacity="0.4" d="M107.989 69.1C106.759 69.69 105.439 69.99 104.059 69.99C102.619 69.99 101.249 69.67 99.9686 69.02C99.6086 68.85 99.4686 68.41 99.6486 68.05C99.8186 67.69 100.259 67.55 100.619 67.72C101.249 68.04 101.919 68.26 102.599 68.39C103.519 68.57 104.459 68.58 105.379 68.42C106.059 68.3 106.729 68.09 107.349 67.79C107.719 67.62 108.159 67.76 108.319 68.13C108.499 68.49 108.359 68.93 107.989 69.1Z" fill="#C278EB"/>
<path d="M104.05 50.01C102.5 50.01 101.23 51.27 101.23 52.83C101.23 54.39 102.49 55.65 104.05 55.65C105.61 55.65 106.87 54.39 106.87 52.83C106.87 51.27 105.61 50.01 104.05 50.01Z" fill="#C278EB"/>
<path d="M97.0505 61.87C95.5005 61.87 94.2305 63.13 94.2305 64.69C94.2305 66.25 95.4905 67.51 97.0505 67.51C98.6105 67.51 99.8705 66.25 99.8705 64.69C99.8705 63.13 98.6005 61.87 97.0505 61.87Z" fill="#C278EB"/>
<path d="M110.949 61.87C109.399 61.87 108.129 63.13 108.129 64.69C108.129 66.25 109.389 67.51 110.949 67.51C112.509 67.51 113.769 66.25 113.769 64.69C113.769 63.13 112.509 61.87 110.949 61.87Z" fill="#C278EB"/>
</svg>
