<svg width="208" height="120" viewBox="0 0 208 120" fill="none" xmlns="http://www.w3.org/2000/svg">
<rect width="208" height="120" fill="#D8DFE8"/>
<rect x="80" y="36" width="48" height="48" rx="12" fill="white"/>
<path opacity="0.4" d="M110 68.5H109V68.25C109 67.15 108.1 66.25 107 66.25H104.75V63.96C104.5 63.99 104.25 64 104 64C103.75 64 103.5 63.99 103.25 63.96V66.25H101C99.9 66.25 99 67.15 99 68.25V68.5H98C97.59 68.5 97.25 68.84 97.25 69.25C97.25 69.66 97.59 70 98 70H110C110.41 70 110.75 69.66 110.75 69.25C110.75 68.84 110.41 68.5 110 68.5Z" fill="#8894A3"/>
<path opacity="0.4" d="M97.5213 59.64C96.8612 59.39 96.2812 58.98 95.8212 58.52C94.8912 57.49 94.2812 56.26 94.2812 54.82C94.2812 53.38 95.4112 52.25 96.8512 52.25H97.4112C97.1512 52.78 97.0013 53.37 97.0013 54V57C97.0013 57.94 97.1813 58.83 97.5213 59.64Z" fill="#8894A3"/>
<path opacity="0.4" d="M113.72 54.82C113.72 56.26 113.11 57.49 112.18 58.52C111.72 58.98 111.14 59.39 110.48 59.64C110.82 58.83 111 57.94 111 57V54C111 53.37 110.85 52.78 110.59 52.25H111.15C112.59 52.25 113.72 53.38 113.72 54.82Z" fill="#8894A3"/>
<path d="M107 50H101C98.79 50 97 51.79 97 54V57C97 60.87 100.13 64 104 64C107.87 64 111 60.87 111 57V54C111 51.79 109.21 50 107 50ZM106.84 56.45L106.22 57.21C106.12 57.32 106.05 57.54 106.06 57.69L106.12 58.67C106.16 59.27 105.73 59.58 105.17 59.36L104.26 59C104.12 58.95 103.88 58.95 103.74 59L102.83 59.36C102.27 59.58 101.84 59.27 101.88 58.67L101.94 57.69C101.95 57.54 101.88 57.32 101.78 57.21L101.16 56.45C100.77 55.99 100.94 55.48 101.52 55.33L102.47 55.09C102.62 55.05 102.8 54.91 102.88 54.78L103.41 53.96C103.74 53.45 104.26 53.45 104.59 53.96L105.12 54.78C105.2 54.91 105.38 55.05 105.53 55.09L106.48 55.33C107.06 55.48 107.23 55.99 106.84 56.45Z" fill="#8894A3"/>
<path opacity="0.4" d="M106.84 56.45L106.22 57.21C106.12 57.32 106.05 57.54 106.06 57.69L106.12 58.67C106.16 59.27 105.73 59.58 105.17 59.36L104.26 59C104.12 58.95 103.88 58.95 103.74 59L102.83 59.36C102.27 59.58 101.84 59.27 101.88 58.67L101.94 57.69C101.95 57.54 101.88 57.32 101.78 57.21L101.16 56.45C100.77 55.99 100.94 55.48 101.52 55.33L102.47 55.09C102.62 55.05 102.8 54.91 102.88 54.78L103.41 53.96C103.74 53.45 104.26 53.45 104.59 53.96L105.12 54.78C105.2 54.91 105.38 55.05 105.53 55.09L106.48 55.33C107.06 55.48 107.23 55.99 106.84 56.45Z" fill="#8894A3"/>
</svg>
