<svg width="208" height="120" viewBox="0 0 208 120" fill="none" xmlns="http://www.w3.org/2000/svg">
<rect width="208" height="120" fill="#FFE9CC"/>
<rect x="80" y="36" width="48" height="48" rx="12" fill="white"/>
<path d="M113.041 61.28L112.121 60.38L104.371 68.12L105.301 69.05C106.081 69.83 106.891 70.22 107.691 70.22C108.491 70.22 109.301 69.83 110.081 69.05L113.041 66.09C114.631 64.49 114.631 62.88 113.041 61.28Z" fill="#FFAB3D"/>
<path d="M102.692 50.9299C101.122 49.3599 99.4717 49.3599 97.9017 50.9299L94.9317 53.8899C93.3717 55.4599 93.3717 57.1099 94.9317 58.6799L95.8517 59.5999L103.602 51.8499L102.692 50.9299Z" fill="#FFAB3D"/>
<path opacity="0.4" d="M113.81 51.94C112.5 55.21 109.51 59.48 106.66 62.27C106.25 59.69 104.19 57.67 101.59 57.31C104.39 54.45 108.69 51.42 111.97 50.1C112.55 49.88 113.13 50.05 113.49 50.41C113.87 50.79 114.05 51.36 113.81 51.94Z" fill="#FFAB3D"/>
<path d="M106.66 62.2701C106.16 62.7601 105.66 63.2101 105.18 63.5901L103.21 65.1701C102.96 65.3501 102.71 65.5001 102.43 65.6201C102.43 65.4301 102.41 65.2401 102.39 65.0401C102.28 64.2101 101.9 63.4201 101.23 62.7501C100.54 62.0701 99.7195 61.6801 98.8695 61.5701C98.6695 61.5501 98.4595 61.5401 98.2695 61.5501C98.3795 61.2401 98.5495 60.9501 98.7595 60.7101L100.32 58.7401C100.69 58.2701 101.12 57.7901 101.59 57.3101C104.19 57.6701 106.25 59.6901 106.66 62.2701Z" fill="#FFAB3D"/>
<path opacity="0.4" d="M102.43 65.6199C102.43 66.7199 102.01 67.7699 101.21 68.5599C100.6 69.1799 99.7798 69.5999 98.7798 69.7199L96.3298 69.9899C94.9898 70.1399 93.8398 68.9899 93.9898 67.6399L94.2598 65.1799C94.4998 62.9899 96.3298 61.5899 98.2698 61.5499C98.4598 61.5399 98.6698 61.5499 98.8698 61.5699C99.7198 61.6799 100.54 62.0699 101.23 62.7499C101.9 63.4199 102.28 64.2099 102.39 65.0399C102.41 65.2399 102.43 65.4299 102.43 65.6199Z" fill="#FFAB3D"/>
</svg>
