<svg width="208" height="120" viewBox="0 0 208 120" fill="none" xmlns="http://www.w3.org/2000/svg">
<rect width="208" height="120" fill="#FFC2C2"/>
<rect x="80" y="36" width="48" height="48" rx="12" fill="white"/>
<path opacity="0.4" d="M113.97 54.41V60.91H94V54.41C94 51.98 95.98 50 98.41 50H109.56C111.99 50 113.97 51.98 113.97 54.41Z" fill="#FF8888"/>
<path d="M94 60.92V61.12C94 63.56 95.98 65.53 98.41 65.53H102.25C102.8 65.53 103.25 65.98 103.25 66.53V67.5C103.25 68.05 102.8 68.5 102.25 68.5H99.83C99.42 68.5 99.08 68.84 99.08 69.25C99.08 69.66 99.41 70 99.83 70H108.18C108.59 70 108.93 69.66 108.93 69.25C108.93 68.84 108.59 68.5 108.18 68.5H105.76C105.21 68.5 104.76 68.05 104.76 67.5V66.53C104.76 65.98 105.21 65.53 105.76 65.53H109.57C112.01 65.53 113.98 63.55 113.98 61.12V60.92H94V60.92Z" fill="#FF8888"/>
</svg>
