<svg width="1464" height="1268" viewBox="0 0 1464 1268" fill="none" xmlns="http://www.w3.org/2000/svg">
<mask id="mask0_14414_44859" style="mask-type:alpha" maskUnits="userSpaceOnUse" x="0" y="0" width="1464" height="1268">
<rect width="1464" height="1268" fill="#EAF0F3"/>
</mask>
<g mask="url(#mask0_14414_44859)">
<path fill-rule="evenodd" clip-rule="evenodd" d="M61.6312 -0.724915H-16.7247V77.5826H53.5135L61.6312 69.4699V-0.724915ZM69.9654 77.5826L61.9524 69.5745V-0.724915H140.308V77.5826H69.9654ZM61.9524 85.7924L69.846 77.9036H140.308V156.211H61.9524V85.7924ZM53.6329 77.9036L61.6312 85.897V156.211H-16.7247V77.9036H53.6329ZM-17 -1V77.6285V77.8577V156.257V156.486V234.885V235.114V313.514V313.743V392.142V392.371V471H61.6771H61.9064H140.354H140.584H219.031H219.26H297.708H297.938H376.385H376.615H455.062H455.292H533.739H533.969H612.416H612.646H691.093H691.323H770L770 392.371V313.743V313.514V234.885V156.486V77.8577V77.6285V-1H691.323H691.094H612.646H612.416H533.969H533.739H455.292H455.062H376.615H376.385H297.938H297.708H219.26H219.031H140.584H140.354H61.9064H61.6771H-17ZM140.629 -0.724915H218.985V77.5826H140.629V-0.724915ZM297.662 -0.724915H219.306V77.5826H297.662V-0.724915ZM297.983 -0.724915H376.339V77.5826H297.983V-0.724915ZM455.016 -0.724915H376.66V77.5826H455.016V-0.724915ZM455.337 -0.724915H533.693V77.5826H455.337V-0.724915ZM612.37 -0.724915H534.015V77.5826H612.37V-0.724915ZM612.691 -0.724915H691.047V77.5826H612.691V-0.724915ZM769.725 -0.724915H691.369V77.5826H769.725V-0.724915ZM140.629 77.9036H218.985V156.211H140.629V77.9036ZM297.662 77.9036H219.306V156.211H289.781L297.662 148.334V77.9036ZM305.739 156.211L297.983 148.461V77.9036H376.339V156.211H305.739ZM297.983 164.657L306.087 156.559L306.06 156.532H376.339V234.839H297.983V164.657ZM289.46 156.532L289.433 156.559L297.662 164.783V234.839H219.306V156.532H289.46ZM455.016 77.9036H376.66V156.211H455.016V77.9036ZM455.337 77.9036H533.693V156.211H455.337V77.9036ZM612.37 77.9036H534.015V156.211H612.37V77.9036ZM612.691 77.9036H691.047V134.486L690.914 134.619L669.309 156.211H612.691V77.9036ZM668.988 156.532H612.692V227.125L612.955 226.862L620.937 234.839H691.048V178.632L690.914 178.498L669.174 156.771L668.961 156.559L668.988 156.532ZM691.048 178.207L669.386 156.559L669.413 156.532H682.827L682.8 156.559L691.048 164.801V178.207ZM691.369 178.47V234.839H769.724V156.532H713.266L713.293 156.559L713.08 156.771L691.369 178.47ZM712.841 156.532L712.868 156.559L691.369 178.045V164.639L699.454 156.559L699.427 156.532H712.841ZM712.945 156.211H769.725V77.9036H691.369V134.648L712.945 156.211ZM691.369 135.073L712.52 156.211H699.106L691.369 148.479V135.073ZM691.047 134.911L669.734 156.211H683.148L691.047 148.317V134.911ZM612.691 243.242L612.955 243.505L621.282 235.184L621.258 235.16H691.047V313.468H612.691V243.242ZM604.651 235.16L604.628 235.184L612.37 242.921V313.468H534.015V235.16H604.651ZM612.37 227.446L604.972 234.839H534.015V156.532H612.37V227.446ZM-16.7247 156.532H61.6312V234.839H-16.7247V156.532ZM140.308 156.532H61.9524V234.839H140.308V156.532ZM140.629 156.532H218.985V234.839H140.629V156.532ZM455.017 156.532H376.661V234.839H455.017V156.532ZM455.337 156.532H533.693V234.839H455.337V156.532ZM-16.7247 235.16H61.6312V313.468H-16.7247V235.16ZM140.308 235.16H61.9524V313.468H118.658L118.556 313.366L118.769 313.154L140.308 291.627V235.16ZM140.308 292.052L118.981 313.366L119.083 313.468H132.497L132.395 313.366L140.308 305.458V292.052ZM140.629 305.137V291.732L140.722 291.639L162.463 313.366L162.361 313.468H148.947L149.049 313.366L140.722 305.044L140.629 305.137ZM140.629 321.595L140.722 321.688L148.626 313.789H162.04L140.722 335.093L140.629 335.001V321.595ZM132.818 313.789L140.308 321.274V334.68L119.404 313.789H132.818ZM118.979 313.789H61.9524V392.096H140.308V335.105L118.979 313.789ZM140.629 335.425V392.096H218.985V313.789H162.465L140.935 335.306L140.722 335.518L140.629 335.425ZM162.786 313.468H218.985V235.16H140.629V291.307L140.722 291.214L140.935 291.426L162.675 313.154L162.888 313.366L162.786 313.468ZM297.662 235.16H219.306V313.468H297.662V235.16ZM297.983 235.16H376.339V313.468H297.983V235.16ZM455.016 235.16H376.66V313.468H455.016V235.16ZM455.337 235.16H533.693V313.468H455.337V235.16ZM769.725 235.16H691.369V313.468H769.725V235.16ZM-16.7247 313.789H61.6312V392.096H-16.7247V313.789ZM297.662 313.789H219.306V392.096H297.662V313.789ZM297.983 313.789H376.339V392.096H297.983V313.789ZM455.016 313.789H376.66V392.096H455.016V313.789ZM455.337 313.789H533.693V392.096H455.337V313.789ZM612.37 313.789H534.015V392.096H612.37V313.789ZM612.691 313.789H691.047V392.096H612.691V313.789ZM769.725 313.789H691.369V392.096H769.725V313.789ZM-16.7247 392.417H61.6312V470.725H-16.7247V392.417ZM140.308 392.417H61.9524V470.725H140.308V392.417ZM140.629 392.417H218.985V470.725H140.629V392.417ZM297.662 392.417H219.306V470.725H297.662V392.417ZM297.983 392.417H376.339V470.725H297.983V392.417ZM455.016 392.417H376.66V470.725H455.016V392.417ZM455.337 392.417H533.693V470.725H455.337V392.417ZM612.37 392.417H534.015V470.725H612.37V392.417ZM612.691 392.417H691.047V470.725H612.691V392.417ZM769.724 392.417H691.369V470.725H769.724V392.417Z" fill="url(#paint0_radial_14414_44859)" fill-opacity="0.6"/>
<path fill-rule="evenodd" clip-rule="evenodd" d="M848.631 -0.724915H770.275V77.5826H840.513L848.631 69.4699V-0.724915ZM856.965 77.5826L848.952 69.5745V-0.724915H927.308V77.5826H856.965ZM848.952 85.7924L856.846 77.9036H927.308V156.211H848.952V85.7924ZM840.633 77.9036L848.631 85.897V156.211H770.275V77.9036H840.633ZM770 -1V77.6285V77.8577V156.257V156.486V234.885V235.114V313.514V313.743V392.142V392.371V471H848.677H848.906H927.354H927.584H1006.03H1006.26H1084.71H1084.94H1163.39H1163.61H1242.06H1242.29H1320.74H1320.97H1399.42H1399.65H1478.09H1478.32H1557L1557 392.371V313.743V313.514V234.885V156.486V77.8577V77.6285V-1H1478.32H1478.09H1399.65H1399.42H1320.97H1320.74H1242.29H1242.06H1163.61H1163.39H1084.94H1084.71H1006.26H1006.03H927.584H927.354H848.906H848.677H770ZM927.629 -0.724915H1005.99V77.5826H927.629V-0.724915ZM1084.66 -0.724915H1006.31V77.5826H1084.66V-0.724915ZM1084.98 -0.724915H1163.34V77.5826H1084.98V-0.724915ZM1242.02 -0.724915H1163.66V77.5826H1242.02V-0.724915ZM1242.34 -0.724915H1320.69V77.5826H1242.34V-0.724915ZM1399.37 -0.724915H1321.01V77.5826H1399.37V-0.724915ZM1399.69 -0.724915H1478.05V77.5826H1399.69V-0.724915ZM1556.72 -0.724915H1478.37V77.5826H1556.72V-0.724915ZM927.629 77.9036H1005.99V156.211H927.629V77.9036ZM1084.66 77.9036H1006.31V156.211H1076.78L1084.66 148.334V77.9036ZM1092.74 156.211L1084.98 148.461V77.9036H1163.34V156.211H1092.74ZM1084.98 164.657L1093.09 156.559L1093.06 156.532H1163.34V234.839H1084.98V164.657ZM1076.46 156.532L1076.43 156.559L1084.66 164.783V234.839H1006.31V156.532H1076.46ZM1242.02 77.9036H1163.66V156.211H1242.02V77.9036ZM1242.34 77.9036H1320.69V156.211H1242.34V77.9036ZM1399.37 77.9036H1321.01V156.211H1399.37V77.9036ZM1399.69 77.9036H1478.05V134.486L1477.91 134.619L1456.31 156.211H1399.69V77.9036ZM1455.99 156.532H1399.69V227.125L1399.95 226.862L1407.94 234.839H1478.05V178.632L1477.91 178.498L1456.17 156.771L1455.96 156.559L1455.99 156.532ZM1478.05 178.207L1456.39 156.559L1456.41 156.532H1469.83L1469.8 156.559L1478.05 164.801V178.207ZM1478.37 178.47V234.839H1556.72V156.532H1500.27L1500.29 156.559L1500.08 156.771L1478.37 178.47ZM1499.84 156.532L1499.87 156.559L1478.37 178.045V164.639L1486.45 156.559L1486.43 156.532H1499.84ZM1499.95 156.211H1556.72V77.9036H1478.37V134.648L1499.95 156.211ZM1478.37 135.073L1499.52 156.211H1486.11L1478.37 148.479V135.073ZM1478.05 134.911L1456.73 156.211H1470.15L1478.05 148.317V134.911ZM1399.69 243.242L1399.95 243.505L1408.28 235.184L1408.26 235.16H1478.05V313.468H1399.69V243.242ZM1391.65 235.16L1391.63 235.184L1399.37 242.921V313.468H1321.01V235.16H1391.65ZM1399.37 227.446L1391.97 234.839H1321.01V156.532H1399.37V227.446ZM770.275 156.532H848.631V234.839H770.275V156.532ZM927.308 156.532H848.952V234.839H927.308V156.532ZM927.629 156.532H1005.99V234.839H927.629V156.532ZM1242.02 156.532H1163.66V234.839H1242.02V156.532ZM1242.34 156.532H1320.69V234.839H1242.34V156.532ZM770.275 235.16H848.631V313.468H770.275V235.16ZM927.308 235.16H848.952V313.468H905.658L905.556 313.366L905.769 313.154L927.308 291.627V235.16ZM927.308 292.052L905.981 313.366L906.083 313.468H919.497L919.395 313.366L927.308 305.458V292.052ZM927.629 305.137V291.732L927.722 291.639L949.463 313.366L949.361 313.468H935.947L936.049 313.366L927.722 305.044L927.629 305.137ZM927.629 321.595L927.722 321.688L935.626 313.789H949.04L927.722 335.093L927.629 335.001V321.595ZM919.818 313.789L927.308 321.274V334.68L906.404 313.789H919.818ZM905.979 313.789H848.952V392.096H927.308V335.105L905.979 313.789ZM927.629 335.425V392.096H1005.99V313.789H949.465L927.935 335.306L927.722 335.518L927.629 335.425ZM949.786 313.468H1005.99V235.16H927.629V291.307L927.722 291.214L927.935 291.426L949.675 313.154L949.888 313.366L949.786 313.468ZM1084.66 235.16H1006.31V313.468H1084.66V235.16ZM1084.98 235.16H1163.34V313.468H1084.98V235.16ZM1242.02 235.16H1163.66V313.468H1242.02V235.16ZM1242.34 235.16H1320.69V313.468H1242.34V235.16ZM1556.72 235.16H1478.37V313.468H1556.72V235.16ZM770.275 313.789H848.631V392.096H770.275V313.789ZM1084.66 313.789H1006.31V392.096H1084.66V313.789ZM1084.98 313.789H1163.34V392.096H1084.98V313.789ZM1242.02 313.789H1163.66V392.096H1242.02V313.789ZM1242.34 313.789H1320.69V392.096H1242.34V313.789ZM1399.37 313.789H1321.01V392.096H1399.37V313.789ZM1399.69 313.789H1478.05V392.096H1399.69V313.789ZM1556.72 313.789H1478.37V392.096H1556.72V313.789ZM770.275 392.417H848.631V470.725H770.275V392.417ZM927.308 392.417H848.952V470.725H927.308V392.417ZM927.629 392.417H1005.99V470.725H927.629V392.417ZM1084.66 392.417H1006.31V470.725H1084.66V392.417ZM1084.98 392.417H1163.34V470.725H1084.98V392.417ZM1242.02 392.417H1163.66V470.725H1242.02V392.417ZM1242.34 392.417H1320.69V470.725H1242.34V392.417ZM1399.37 392.417H1321.01V470.725H1399.37V392.417ZM1399.69 392.417H1478.05V470.725H1399.69V392.417ZM1556.72 392.417H1478.37V470.725H1556.72V392.417Z" fill="url(#paint1_radial_14414_44859)" fill-opacity="0.6"/>
<path opacity="0.4" fill-rule="evenodd" clip-rule="evenodd" d="M1478.37 1274.72H1556.72V1196.42H1486.49L1478.37 1204.53V1274.72ZM1470.03 1196.42L1478.05 1204.43V1274.72H1399.69V1196.42H1470.03ZM1478.05 1188.21L1470.15 1196.1H1399.69V1117.79H1478.05V1188.21ZM1486.37 1196.1L1478.37 1188.1V1117.79H1556.72V1196.1H1486.37ZM1557 1275V1196.37V1196.14V1117.74V1117.51V1039.11V1038.89V960.486V960.257V881.857V881.628V803H1478.32H1478.09H1399.65H1399.42H1320.97H1320.74H1242.29H1242.06H1163.61H1163.39H1084.94H1084.71H1006.26H1006.03H927.584H927.354H848.907H848.677H770L770 881.628V960.257V960.486V1039.11V1117.51V1196.14V1196.37V1275H848.677H848.906H927.354H927.584H1006.03H1006.26H1084.71H1084.94H1163.39H1163.61H1242.06H1242.29H1320.74H1320.97H1399.42H1399.65H1478.09H1478.32H1557ZM1399.37 1274.72H1321.01V1196.42H1399.37V1274.72ZM1242.34 1274.72H1320.69V1196.42H1242.34V1274.72ZM1242.02 1274.72H1163.66V1196.42H1242.02V1274.72ZM1084.98 1274.72H1163.34V1196.42H1084.98V1274.72ZM1084.66 1274.72H1006.31V1196.42H1084.66V1274.72ZM927.63 1274.72H1005.99V1196.42H927.63V1274.72ZM927.309 1274.72H848.953V1196.42H927.309V1274.72ZM770.275 1274.72H848.631V1196.42H770.275V1274.72ZM1399.37 1196.1H1321.01V1117.79H1399.37V1196.1ZM1242.34 1196.1H1320.69V1117.79H1250.22L1242.34 1125.67V1196.1ZM1234.26 1117.79L1242.02 1125.54V1196.1H1163.66V1117.79H1234.26ZM1242.02 1109.34L1233.91 1117.44L1233.94 1117.47H1163.66V1039.16H1242.02V1109.34ZM1250.54 1117.47L1250.57 1117.44L1242.34 1109.22V1039.16H1320.69V1117.47H1250.54ZM1084.98 1196.1H1163.34V1117.79H1084.98V1196.1ZM1084.66 1196.1H1006.31V1117.79H1084.66V1196.1ZM927.63 1196.1H1005.99V1117.79H927.63V1196.1ZM927.309 1196.1H848.953V1139.51L849.086 1139.38L870.691 1117.79H927.309V1196.1ZM871.012 1117.47H927.308V1046.87L927.045 1047.14L919.063 1039.16H848.952V1095.37L849.086 1095.5L870.826 1117.23L871.039 1117.44L871.012 1117.47ZM848.952 1095.79L870.614 1117.44L870.587 1117.47H857.173L857.2 1117.44L848.952 1109.2V1095.79ZM848.631 1095.53V1039.16H770.276V1117.47H826.734L826.707 1117.44L826.92 1117.23L848.631 1095.53ZM827.159 1117.47L827.132 1117.44L848.631 1095.96V1109.36L840.546 1117.44L840.573 1117.47H827.159ZM827.055 1117.79H770.275V1196.1H848.631V1139.35L827.055 1117.79ZM848.631 1138.93L827.48 1117.79H840.894L848.631 1125.52V1138.93ZM848.953 1139.09L870.266 1117.79H856.852L848.953 1125.68V1139.09ZM927.309 1030.76L927.045 1030.49L918.718 1038.82L918.742 1038.84H848.953V960.532H927.309V1030.76ZM935.349 1038.84L935.372 1038.82L927.63 1031.08V960.532H1005.99V1038.84H935.349ZM927.63 1046.55L935.028 1039.16H1005.99V1117.47H927.63V1046.55ZM1556.72 1117.47H1478.37V1039.16H1556.72V1117.47ZM1399.69 1117.47H1478.05V1039.16H1399.69V1117.47ZM1399.37 1117.47H1321.01V1039.16H1399.37V1117.47ZM1084.98 1117.47H1163.34V1039.16H1084.98V1117.47ZM1084.66 1117.47H1006.31V1039.16H1084.66V1117.47ZM1556.72 1038.84H1478.37V960.532H1556.72V1038.84ZM1399.69 1038.84H1478.05V960.532H1421.34L1421.44 960.634L1421.23 960.846L1399.69 982.372V1038.84ZM1399.69 981.947L1421.02 960.634L1420.92 960.532H1407.5L1407.6 960.634L1399.69 968.542V981.947ZM1399.37 968.863V982.268L1399.28 982.361L1377.54 960.634L1377.64 960.532H1391.05L1390.95 960.634L1399.28 968.955L1399.37 968.863ZM1399.37 952.405L1399.28 952.312L1391.37 960.211H1377.96L1399.28 938.906L1399.37 938.999V952.405ZM1407.18 960.211L1399.69 952.726V939.32L1420.6 960.211H1407.18ZM1421.02 960.211H1478.05V881.903H1399.69V938.895L1421.02 960.211ZM1399.37 938.574V881.903H1321.01V960.211H1377.54L1399.07 938.694L1399.28 938.481L1399.37 938.574ZM1377.21 960.532H1321.01V1038.84H1399.37V982.693L1399.28 982.786L1399.07 982.573L1377.32 960.846L1377.11 960.634L1377.21 960.532ZM1242.34 1038.84H1320.69V960.532H1242.34V1038.84ZM1242.02 1038.84H1163.66V960.532H1242.02V1038.84ZM1084.98 1038.84H1163.34V960.532H1084.98V1038.84ZM1084.66 1038.84H1006.31V960.532H1084.66V1038.84ZM770.275 1038.84H848.631V960.532H770.275V1038.84ZM1556.72 960.211H1478.37V881.903H1556.72V960.211ZM1242.34 960.211H1320.69V881.903H1242.34V960.211ZM1242.02 960.211H1163.66V881.903H1242.02V960.211ZM1084.98 960.211H1163.34V881.903H1084.98V960.211ZM1084.66 960.211H1006.31V881.903H1084.66V960.211ZM927.63 960.211H1005.99V881.903H927.63V960.211ZM927.309 960.211H848.953V881.903H927.309V960.211ZM770.275 960.211H848.631V881.903H770.275V960.211ZM1556.72 881.582H1478.37V803.275H1556.72V881.582ZM1399.69 881.582H1478.05V803.275H1399.69V881.582ZM1399.37 881.582H1321.01V803.275H1399.37V881.582ZM1242.34 881.582H1320.69V803.275H1242.34V881.582ZM1242.02 881.582H1163.66V803.275H1242.02V881.582ZM1084.98 881.582H1163.34V803.275H1084.98V881.582ZM1084.66 881.582H1006.31V803.275H1084.66V881.582ZM927.63 881.582H1005.99V803.275H927.63V881.582ZM927.309 881.582H848.953V803.275H927.309V881.582ZM770.276 881.582H848.631V803.275H770.276V881.582Z" fill="url(#paint2_radial_14414_44859)" fill-opacity="0.6"/>
<path fill-rule="evenodd" clip-rule="evenodd" d="M691.369 1274.72H769.725V1196.42H699.487L691.369 1204.53V1274.72ZM683.035 1196.42L691.048 1204.43V1274.72H612.692V1196.42H683.035ZM691.048 1188.21L683.154 1196.1H612.692V1117.79H691.048V1188.21ZM699.367 1196.1L691.369 1188.1V1117.79H769.725V1196.1H699.367ZM770 1275V1196.37V1196.14V1117.74V1117.51V1039.11V1038.89V960.486V960.257V881.858V881.629V803H691.323H691.094H612.646H612.416H533.969H533.74H455.292H455.062H376.615H376.385H297.938H297.708H219.261H219.031H140.584H140.354H61.9067H61.6774H-16.9998L-17 881.629V960.257V960.486V1039.11V1117.51V1196.14V1196.37V1275H61.6774H61.9065H140.354H140.584H219.031H219.261H297.708H297.938H376.385H376.615H455.062H455.292H533.74H533.969H612.416H612.646H691.094H691.323H770ZM612.371 1274.72H534.015V1196.42H612.371V1274.72ZM455.338 1274.72H533.694V1196.42H455.338V1274.72ZM455.017 1274.72H376.661V1196.42H455.017V1274.72ZM297.984 1274.72H376.34V1196.42H297.984V1274.72ZM297.663 1274.72H219.307V1196.42H297.663V1274.72ZM140.63 1274.72H218.985V1196.42H140.63V1274.72ZM140.309 1274.72H61.9526V1196.42H140.309V1274.72ZM-16.7247 1274.72H61.6312V1196.42H-16.7247V1274.72ZM612.371 1196.1H534.015V1117.79H612.371V1196.1ZM455.338 1196.1H533.694V1117.79H463.219L455.338 1125.67V1196.1ZM447.261 1117.79L455.017 1125.54V1196.1H376.661V1117.79H447.261ZM455.017 1109.34L446.913 1117.44L446.94 1117.47H376.661V1039.16H455.017V1109.34ZM463.54 1117.47L463.567 1117.44L455.338 1109.22V1039.16H533.694V1117.47H463.54ZM297.984 1196.1H376.34V1117.79H297.984V1196.1ZM297.663 1196.1H219.307V1117.79H297.663V1196.1ZM140.63 1196.1H218.985V1117.79H140.63V1196.1ZM140.309 1196.1H61.9526V1139.51L62.0856 1139.38L83.6911 1117.79H140.309V1196.1ZM84.012 1117.47H140.308V1046.88L140.045 1047.14L132.063 1039.16H61.9524V1095.37L62.0856 1095.5L83.8262 1117.23L84.0389 1117.44L84.012 1117.47ZM61.9524 1095.79L83.6137 1117.44L83.5869 1117.47H70.1729L70.1998 1117.44L61.9524 1109.2V1095.79ZM61.6315 1095.53V1039.16H-16.7245V1117.47H39.7339L39.7071 1117.44L39.9197 1117.23L61.6315 1095.53ZM40.1591 1117.47L40.1323 1117.44L61.6315 1095.96V1109.36L53.5461 1117.44L53.5729 1117.47H40.1591ZM40.0549 1117.79H-16.7247V1196.1H61.6312V1139.35L40.0549 1117.79ZM61.6312 1138.93L40.4801 1117.79H53.8939L61.6312 1125.52V1138.93ZM61.9526 1139.09L83.2659 1117.79H69.852L61.9526 1125.68V1139.09ZM140.309 1030.76L140.045 1030.49L131.718 1038.82L131.742 1038.84H61.9526V960.532H140.309V1030.76ZM148.349 1038.84L148.372 1038.82L140.63 1031.08V960.532H218.985V1038.84H148.349ZM140.63 1046.55L148.028 1039.16H218.985V1117.47H140.63V1046.55ZM769.725 1117.47H691.369V1039.16H769.725V1117.47ZM612.692 1117.47H691.048V1039.16H612.692V1117.47ZM612.371 1117.47H534.015V1039.16H612.371V1117.47ZM297.983 1117.47H376.339V1039.16H297.983V1117.47ZM297.663 1117.47H219.307V1039.16H297.663V1117.47ZM769.725 1038.84H691.369V960.532H769.725V1038.84ZM612.692 1038.84H691.048V960.532H634.342L634.444 960.634L634.231 960.846L612.692 982.373V1038.84ZM612.692 981.948L634.019 960.634L633.917 960.532H620.503L620.605 960.634L612.692 968.542V981.948ZM612.371 968.863V982.268L612.278 982.361L590.537 960.634L590.639 960.532H604.053L603.951 960.634L612.278 968.956L612.371 968.863ZM612.371 952.405L612.278 952.312L604.374 960.211H590.96L612.278 938.907L612.371 938.999V952.405ZM620.182 960.211L612.692 952.726V939.32L633.596 960.211H620.182ZM634.021 960.211H691.048V881.904H612.692V938.895L634.021 960.211ZM612.371 938.575V881.904H534.015V960.211H590.535L612.065 938.694L612.278 938.482L612.371 938.575ZM590.214 960.532H534.015V1038.84H612.371V982.693L612.278 982.786L612.065 982.574L590.325 960.846L590.112 960.634L590.214 960.532ZM455.338 1038.84H533.694V960.532H455.338V1038.84ZM455.017 1038.84H376.661V960.532H455.017V1038.84ZM297.984 1038.84H376.34V960.532H297.984V1038.84ZM297.663 1038.84H219.307V960.532H297.663V1038.84ZM-16.7247 1038.84H61.6312V960.532H-16.7247V1038.84ZM769.725 960.211H691.369V881.904H769.725V960.211ZM455.338 960.211H533.694V881.904H455.338V960.211ZM455.017 960.211H376.661V881.904H455.017V960.211ZM297.984 960.211H376.34V881.904H297.984V960.211ZM297.663 960.211H219.307V881.904H297.663V960.211ZM140.63 960.211H218.985V881.904H140.63V960.211ZM140.309 960.211H61.9526V881.904H140.309V960.211ZM-16.7247 960.211H61.6312V881.904H-16.7247V960.211ZM769.725 881.583H691.369V803.275H769.725V881.583ZM612.692 881.583H691.048V803.275H612.692V881.583ZM612.371 881.583H534.015V803.275H612.371V881.583ZM455.338 881.583H533.694V803.275H455.338V881.583ZM455.017 881.583H376.661V803.275H455.017V881.583ZM297.984 881.583H376.34V803.275H297.984V881.583ZM297.663 881.583H219.307V803.275H297.663V881.583ZM140.63 881.583H218.985V803.275H140.63V881.583ZM140.309 881.583H61.9526V803.275H140.309V881.583ZM-16.7245 881.583H61.6315V803.275H-16.7245V881.583Z" fill="url(#paint3_radial_14414_44859)" fill-opacity="0.6"/>
</g>
<defs>
<radialGradient id="paint0_radial_14414_44859" cx="0" cy="0" r="1" gradientUnits="userSpaceOnUse" gradientTransform="translate(376.5 -265.921) rotate(90) scale(677.451 1129.56)">
<stop stop-color="#2D5BD2"/>
<stop offset="1" stop-color="white" stop-opacity="0"/>
</radialGradient>
<radialGradient id="paint1_radial_14414_44859" cx="0" cy="0" r="1" gradientUnits="userSpaceOnUse" gradientTransform="translate(1163 -28.5) rotate(102.52) scale(352.892 588.402)">
<stop stop-color="#2D5BD2"/>
<stop offset="1" stop-color="white" stop-opacity="0"/>
</radialGradient>
<radialGradient id="paint2_radial_14414_44859" cx="0" cy="0" r="1" gradientUnits="userSpaceOnUse" gradientTransform="translate(1468 1329.5) rotate(-139.149) scale(1031.19 1719.38)">
<stop stop-color="#2D5BD2"/>
<stop offset="1" stop-color="white" stop-opacity="0"/>
</radialGradient>
<radialGradient id="paint3_radial_14414_44859" cx="0" cy="0" r="1" gradientUnits="userSpaceOnUse" gradientTransform="translate(376.5 1539.92) rotate(-90) scale(677.451 1129.56)">
<stop stop-color="#2D5BD2"/>
<stop offset="1" stop-color="white" stop-opacity="0"/>
</radialGradient>
</defs>
</svg>
