<svg width="316" height="340" viewBox="0 0 316 340" fill="none" xmlns="http://www.w3.org/2000/svg">
<path fill-rule="evenodd" clip-rule="evenodd" d="M104.064 46.0369C102.901 48.2734 106.588 56.3666 111.954 63.4147C118.591 72.1648 119.228 69.3299 113.725 56.0234C109.074 44.6802 106.203 41.7471 104.064 46.0369Z" fill="url(#paint0_linear_15772_52416)" fill-opacity="0.07"/>
<path fill-rule="evenodd" clip-rule="evenodd" d="M124.716 86.9148C124.637 87.6507 126.501 93.5571 128.96 99.918C137.056 121.574 140.262 145.962 137.253 162.01C135.348 171.855 131.168 179.692 121.524 191.69C115.429 199.244 113.824 201.743 114.315 203.334C114.868 205.299 115.073 205.311 120.112 202.926C122.972 201.485 126.34 200.526 127.565 200.596C128.827 200.75 132.786 200.237 136.524 199.417C144.39 197.811 149.902 198.327 157.406 201.398C167.953 205.745 175.824 213.768 191.771 236.54C197.072 244.174 202.004 250.956 202.836 251.497C205.781 253.928 210.758 251.169 210.337 247.442C210.223 246.49 207.815 235.196 205.041 222.368C198.359 191.57 197.554 182.8 200.568 174.366C202.972 167.511 208.243 162.419 219.115 156.492C225.144 153.176 226.904 151.01 225.734 148.31C224.746 146.033 222.992 145.891 215.295 147.224C205.404 149.008 193.905 149.584 187.965 148.54C171.545 145.827 160.982 135.475 141.992 103.387C136.598 94.3907 131.573 86.2468 130.679 85.3318C128.879 83.7069 125.103 84.6426 124.698 86.9229L124.716 86.9148ZM160.762 143.387C170.518 152.798 180.352 156.852 193.891 157.307C197.697 157.36 200.917 157.668 201.027 157.921C201.136 158.174 199.826 159.744 198.097 161.496C188.606 171.323 187.802 185.313 194.736 216.002C196.259 222.958 197.321 228.622 196.959 228.478C196.682 228.298 192.906 223.722 188.639 218.244C178.693 205.409 170.335 198.098 161.269 194.412C152.769 190.882 145.677 189.937 137.869 191.218L131.836 192.23L135.831 186.288C144.712 173.218 148.043 156.329 145.632 135.817C145.019 130.27 144.381 125.124 144.339 124.34C144.298 123.556 146.694 126.325 149.832 130.577C152.969 134.829 157.838 140.546 160.762 143.387Z" fill="url(#paint1_linear_15772_52416)" fill-opacity="0.07"/>
<path fill-rule="evenodd" clip-rule="evenodd" d="M188.534 80.6085C185.959 84.3644 183.782 92.2946 182.865 100.799C182.221 107.394 182.652 110.234 184.169 109.576C185.938 108.809 194.522 85.1866 195.139 79.4521C195.327 77.5792 195.121 77.1032 193.953 76.9495C191.737 76.6851 190.795 77.2821 188.538 80.6173L188.534 80.6085Z" fill="url(#paint2_linear_15772_52416)" fill-opacity="0.07"/>
<path fill-rule="evenodd" clip-rule="evenodd" d="M80.5236 146.483C78.6492 148.328 81.3099 150.581 88.7897 153.44C103.066 158.927 111.119 160.597 109.989 157.99C109.085 155.904 92.1584 146.818 86.9964 145.649C82.8486 144.763 81.9853 144.828 80.5278 146.492L80.5236 146.483Z" fill="url(#paint3_linear_15772_52416)" fill-opacity="0.07"/>
<path fill-rule="evenodd" clip-rule="evenodd" d="M246.787 132.656C244.542 134.14 242.027 136.15 241.328 137.066C239.978 138.775 240.015 138.861 241.925 139.36C246.769 140.426 261.759 135.459 263.677 132.074C264.879 130.021 263.034 127.144 260.649 127.157C257.64 127.338 250.727 130.028 246.787 132.656Z" fill="url(#paint4_linear_15772_52416)" fill-opacity="0.07"/>
<path fill-rule="evenodd" clip-rule="evenodd" d="M62.2732 226.602C59.5425 228.78 59.6457 229.91 62.6969 230.033C66.6788 230.295 86.8424 219.203 85.9849 217.225C85.3913 215.856 66.3948 223.37 62.2732 226.602Z" fill="url(#paint5_linear_15772_52416)" fill-opacity="0.07"/>
<path fill-rule="evenodd" clip-rule="evenodd" d="M217.4 192.322C218.251 194.286 232.971 198.732 236.439 198.076C240.459 197.288 240.423 194.865 236.289 193.051C233.148 191.656 223.233 190.335 219.015 190.667C217.37 190.85 216.974 191.34 217.4 192.322Z" fill="url(#paint6_linear_15772_52416)" fill-opacity="0.07"/>
<path fill-rule="evenodd" clip-rule="evenodd" d="M143.176 238.508C140.441 246.755 139.848 253.13 141.865 254.45C142.662 254.964 143.699 255.373 144.252 255.324C146.186 255.153 147.975 249.797 148.313 243.056C148.888 230.487 146.451 228.395 143.185 238.505L143.176 238.508Z" fill="url(#paint7_linear_15772_52416)" fill-opacity="0.07"/>
<path fill-rule="evenodd" clip-rule="evenodd" d="M215.755 266.248C215.968 271.609 218.555 282.647 220.492 286.303C221.897 289.137 222.581 289.702 223.91 289.317C227.007 288.548 226.735 285.892 222.454 275.206C217.819 263.908 215.469 260.718 215.751 266.239L215.755 266.248Z" fill="url(#paint8_linear_15772_52416)" fill-opacity="0.07"/>
<defs>
<linearGradient id="paint0_linear_15772_52416" x1="105.287" y1="44.3997" x2="115.918" y2="68.9183" gradientUnits="userSpaceOnUse">
<stop stop-color="white"/>
<stop offset="1" stop-color="white" stop-opacity="0"/>
</linearGradient>
<linearGradient id="paint1_linear_15772_52416" x1="129.915" y1="83.4112" x2="203.706" y2="253.599" gradientUnits="userSpaceOnUse">
<stop stop-color="white"/>
<stop offset="1" stop-color="white" stop-opacity="0"/>
</linearGradient>
<linearGradient id="paint2_linear_15772_52416" x1="183.571" y1="80.7074" x2="194.202" y2="105.226" gradientUnits="userSpaceOnUse">
<stop stop-color="white"/>
<stop offset="1" stop-color="white" stop-opacity="0"/>
</linearGradient>
<linearGradient id="paint3_linear_15772_52416" x1="90.1139" y1="141.789" x2="99.4941" y2="163.423" gradientUnits="userSpaceOnUse">
<stop stop-color="white"/>
<stop offset="1" stop-color="white" stop-opacity="0"/>
</linearGradient>
<linearGradient id="paint4_linear_15772_52416" x1="250.558" y1="130.48" x2="253.684" y2="137.692" gradientUnits="userSpaceOnUse">
<stop stop-color="white"/>
<stop offset="1" stop-color="white" stop-opacity="0"/>
</linearGradient>
<linearGradient id="paint5_linear_15772_52416" x1="72.3906" y1="221.437" x2="74.2666" y2="225.764" gradientUnits="userSpaceOnUse">
<stop stop-color="white"/>
<stop offset="1" stop-color="white" stop-opacity="0"/>
</linearGradient>
<linearGradient id="paint6_linear_15772_52416" x1="225.615" y1="187.557" x2="231.243" y2="200.537" gradientUnits="userSpaceOnUse">
<stop stop-color="white"/>
<stop offset="1" stop-color="white" stop-opacity="0"/>
</linearGradient>
<linearGradient id="paint7_linear_15772_52416" x1="140.666" y1="234.669" x2="148.795" y2="253.418" gradientUnits="userSpaceOnUse">
<stop stop-color="white"/>
<stop offset="1" stop-color="white" stop-opacity="0"/>
</linearGradient>
<linearGradient id="paint8_linear_15772_52416" x1="214.381" y1="264.391" x2="225.011" y2="288.91" gradientUnits="userSpaceOnUse">
<stop stop-color="white"/>
<stop offset="1" stop-color="white" stop-opacity="0"/>
</linearGradient>
</defs>
</svg>
