<svg width="1920" height="680" viewBox="0 0 1920 680" fill="none" xmlns="http://www.w3.org/2000/svg">
<mask id="mask0_14464_49819" style="mask-type:alpha" maskUnits="userSpaceOnUse" x="0" y="0" width="1920" height="680">
<rect width="1920" height="680" fill="#D9D9D9"/>
</mask>
<g mask="url(#mask0_14464_49819)">
<g opacity="0.07" filter="url(#filter0_f_14464_49819)">
<rect x="-113" y="147" width="443" height="325" rx="162.5" fill="#FF8A3C"/>
</g>
<g opacity="0.07" filter="url(#filter1_f_14464_49819)">
<rect x="1308" y="131" width="588" height="333" rx="166.5" fill="#FEA757"/>
</g>
<g opacity="0.07" filter="url(#filter2_f_14464_49819)">
<rect x="632" y="137" width="366" height="366" rx="183" fill="#FFA97B"/>
</g>
<path opacity="0.05" d="M-20 102C10.4274 136.593 95.5897 211.551 192.821 234.645C314.359 263.513 458.462 231.722 524.615 211.624C590.769 191.526 708.205 150.6 800.513 252.551C892.821 354.501 874.872 504.321 1024.1 569.365C1173.33 634.408 1314.36 491.897 1377.44 430.873C1440.51 369.849 1652.31 111.135 1940 114.059" stroke="url(#paint0_linear_14464_49819)" stroke-width="30"/>
</g>
<g opacity="0.4">
<path fill-rule="evenodd" clip-rule="evenodd" d="M174.26 445.659C173.605 446.946 175.864 451.035 179.094 454.441C183.091 458.671 183.43 457.1 180.045 450.337C177.182 444.569 175.463 443.197 174.26 445.659Z" fill="#97A7BF"/>
<path fill-rule="evenodd" clip-rule="evenodd" d="M186.714 467.258C186.7 467.653 187.925 470.726 189.487 474.016C194.655 485.229 197.31 498.1 196.317 506.781C195.677 512.109 193.74 516.459 189.039 523.255C186.067 527.533 185.304 528.932 185.628 529.76C186 530.785 186.109 530.783 188.716 529.303C190.191 528.417 191.957 527.767 192.616 527.754C193.298 527.784 195.397 527.347 197.367 526.756C201.517 525.575 204.488 525.623 208.624 526.951C214.438 528.834 218.96 532.788 228.375 544.272C231.507 548.124 234.409 551.536 234.875 551.791C236.546 552.965 239.104 551.289 238.735 549.32C238.637 548.816 236.913 542.894 234.934 536.169C230.171 520.023 229.402 515.38 230.691 510.759C231.714 507.004 234.34 504.072 239.932 500.464C243.033 498.447 243.892 497.219 243.161 495.828C242.545 494.655 241.6 494.652 237.531 495.68C232.304 497.038 226.17 497.82 222.949 497.508C214.054 496.739 208 491.654 196.597 475.328C193.363 470.754 190.359 466.619 189.845 466.168C188.819 465.375 186.833 466.03 186.704 467.263L186.714 467.258ZM208.187 495.882C213.772 500.497 219.193 502.254 226.459 501.938C228.499 501.809 230.235 501.841 230.304 501.971C230.372 502.102 229.731 502.993 228.872 503.998C224.17 509.629 224.278 517.122 229.172 533.199C230.255 536.845 231.042 539.821 230.843 539.759C230.687 539.675 228.489 537.39 225.994 534.646C220.175 528.212 215.418 524.659 210.423 523.067C205.736 521.535 201.903 521.324 197.772 522.329L194.581 523.117L196.491 519.785C200.742 512.449 201.875 503.307 199.795 492.469C199.253 489.537 198.713 486.819 198.661 486.403C198.609 485.987 199.998 487.365 201.841 489.502C203.685 491.64 206.512 494.488 208.187 495.882Z" fill="#97A7BF"/>
<path fill-rule="evenodd" clip-rule="evenodd" d="M220.71 460.555C219.524 462.731 218.777 467.234 218.74 472.023C218.748 475.734 219.134 477.313 219.916 476.902C220.829 476.423 224.187 462.95 224.21 459.721C224.211 458.667 224.074 458.406 223.436 458.353C222.227 458.267 221.751 458.628 220.713 460.56L220.71 460.555Z" fill="#97A7BF"/>
<path fill-rule="evenodd" clip-rule="evenodd" d="M165.516 500.864C164.57 501.916 166.062 502.962 170.151 504.093C177.955 506.268 182.313 506.752 181.628 505.448C181.08 504.405 171.748 500.481 168.951 500.12C166.706 499.857 166.246 499.932 165.518 500.869L165.516 500.864Z" fill="#97A7BF"/>
<path fill-rule="evenodd" clip-rule="evenodd" d="M253.839 486.333C252.692 487.212 251.42 488.38 251.079 488.892C250.417 489.849 250.44 489.893 251.476 490.07C254.096 490.413 261.92 487.136 262.828 485.273C263.398 484.141 262.315 482.713 261.044 482.826C259.445 483.056 255.85 484.777 253.839 486.333Z" fill="#97A7BF"/>
<path fill-rule="evenodd" clip-rule="evenodd" d="M158.773 544.032C157.372 545.377 157.495 546.034 159.208 546.021C161.449 546.065 172.081 539.039 171.487 537.909C171.076 537.126 160.89 542.032 158.773 544.032Z" fill="#97A7BF"/>
<path fill-rule="evenodd" clip-rule="evenodd" d="M241.298 519.725C241.8 520.681 249.614 522.241 251.405 521.744C253.48 521.153 253.389 519.925 251.178 519.2C249.498 518.641 244.284 518.44 242.092 518.808C241.239 518.979 241.047 519.246 241.298 519.725Z" fill="#97A7BF"/>
<path fill-rule="evenodd" clip-rule="evenodd" d="M202.635 547.349C201.456 552.072 201.393 555.661 202.575 556.316C203.041 556.57 203.638 556.756 203.944 556.706C205.017 556.531 205.791 553.462 205.696 549.679C205.487 542.628 204.038 541.559 202.64 547.346L202.635 547.349Z" fill="#97A7BF"/>
<path fill-rule="evenodd" clip-rule="evenodd" d="M242.963 559.142C243.221 562.168 245.036 568.264 246.283 570.216C247.192 571.735 247.614 572.012 248.399 571.711C250.232 571.082 250.004 569.593 247.185 563.802C244.139 557.686 242.656 556.024 242.96 559.137L242.963 559.142Z" fill="#97A7BF"/>
</g>
<g opacity="0.5">
<path fill-rule="evenodd" clip-rule="evenodd" d="M1740.09 135.554C1739.26 135.64 1737.99 138.017 1737.35 140.652C1736.55 143.917 1737.42 143.588 1739.64 139.825C1741.54 136.628 1741.66 135.364 1740.09 135.554Z" fill="#FF8A3C"/>
<path fill-rule="evenodd" clip-rule="evenodd" d="M1733.53 148.366C1733.33 148.483 1732.23 150.041 1731.12 151.831C1727.31 157.854 1721.9 163.179 1717.38 165.421C1714.6 166.782 1711.88 167.208 1707.11 167.061C1704.1 166.962 1703.19 167.031 1702.89 167.448C1702.51 167.95 1702.54 168.002 1704.08 168.802C1704.97 169.239 1705.84 169.891 1706.05 170.207C1706.25 170.546 1707.12 171.427 1708.03 172.197C1709.9 173.838 1710.81 175.293 1711.46 177.715C1712.37 181.124 1711.88 184.557 1709.26 192.724C1708.38 195.451 1707.63 197.928 1707.66 198.234C1707.61 199.413 1709.23 200.127 1710.07 199.33C1710.28 199.125 1712.61 196.431 1715.25 193.362C1721.58 185.987 1723.59 184.158 1726.24 183.333C1728.38 182.651 1730.62 183.005 1734.13 184.584C1736.08 185.454 1736.94 185.485 1737.39 184.695C1737.76 184.028 1737.47 183.569 1735.69 181.918C1733.39 179.811 1731.09 177.082 1730.23 175.423C1727.81 170.869 1728.38 166.339 1732.72 155.69C1733.92 152.686 1734.98 149.933 1735.04 149.542C1735.1 148.796 1734.16 148.039 1733.52 148.363L1733.53 148.366ZM1726.39 167.756C1725.9 171.912 1726.75 175.091 1729.18 178.514C1729.89 179.463 1730.42 180.314 1730.37 180.388C1730.33 180.463 1729.7 180.431 1728.94 180.331C1724.74 179.817 1721.14 182.22 1714.88 189.637C1713.45 191.306 1712.26 192.621 1712.22 192.505C1712.22 192.403 1712.63 190.621 1713.18 188.55C1714.47 183.71 1714.71 180.29 1713.91 177.369C1713.18 174.616 1712.08 172.691 1710.3 171.004L1708.92 169.704L1711.13 169.585C1716.02 169.345 1720.81 167.026 1725.41 162.617C1726.66 161.434 1727.81 160.32 1727.99 160.164C1728.18 160.008 1727.95 161.114 1727.49 162.679C1727.03 164.243 1726.54 166.507 1726.39 167.756Z" fill="#FF8A3C"/>
<path fill-rule="evenodd" clip-rule="evenodd" d="M1747.44 162.745C1746.01 162.852 1743.6 163.903 1741.26 165.387C1739.47 166.556 1738.82 167.238 1739.27 167.488C1739.79 167.78 1747.37 165.182 1748.94 164.18C1749.45 163.85 1749.54 163.702 1749.36 163.376C1749.03 162.762 1748.7 162.645 1747.44 162.748L1747.44 162.745Z" fill="#FF8A3C"/>
<path fill-rule="evenodd" clip-rule="evenodd" d="M1710.58 148.633C1709.78 148.504 1709.74 149.556 1710.47 151.893C1711.87 156.358 1713 158.623 1713.42 157.882C1713.75 157.289 1712.73 151.534 1712.02 150.065C1711.45 148.894 1711.27 148.695 1710.58 148.636L1710.58 148.633Z" fill="#FF8A3C"/>
<path fill-rule="evenodd" clip-rule="evenodd" d="M1745.34 186.892C1744.55 186.612 1743.59 186.361 1743.23 186.356C1742.56 186.336 1742.54 186.361 1742.78 186.918C1743.44 188.296 1747.48 191.062 1748.67 190.917C1749.4 190.838 1749.75 189.866 1749.3 189.285C1748.68 188.582 1746.72 187.379 1745.34 186.892Z" fill="#FF8A3C"/>
<path fill-rule="evenodd" clip-rule="evenodd" d="M1687.54 158.907C1686.45 158.65 1686.17 158.915 1686.71 159.742C1687.4 160.842 1694.14 163.792 1694.5 163.15C1694.75 162.705 1689.18 159.306 1687.54 158.907Z" fill="#FF8A3C"/>
<path fill-rule="evenodd" clip-rule="evenodd" d="M1725.22 191.288C1724.91 191.832 1726.61 196.109 1727.41 196.821C1728.35 197.642 1728.91 197.213 1728.57 195.914C1728.32 194.923 1726.78 192.333 1725.91 191.386C1725.56 191.026 1725.37 191.016 1725.22 191.288Z" fill="#FF8A3C"/>
<path fill-rule="evenodd" clip-rule="evenodd" d="M1699.7 181.212C1697.04 182.122 1695.28 183.217 1695.33 183.996C1695.35 184.301 1695.45 184.649 1695.57 184.782C1695.99 185.247 1697.72 184.659 1699.53 183.426C1702.88 181.113 1702.94 180.075 1699.7 181.213L1699.7 181.212Z" fill="#FF8A3C"/>
<path fill-rule="evenodd" clip-rule="evenodd" d="M1706.63 204.461C1705.24 205.536 1702.86 208.328 1702.3 209.545C1701.85 210.462 1701.85 210.754 1702.24 211.04C1703.12 211.731 1703.77 211.154 1705.69 207.97C1707.7 204.575 1708.04 203.335 1706.63 204.459L1706.63 204.461Z" fill="#FF8A3C"/>
</g>
<defs>
<filter id="filter0_f_14464_49819" x="-363" y="-103" width="943" height="825" filterUnits="userSpaceOnUse" color-interpolation-filters="sRGB">
<feFlood flood-opacity="0" result="BackgroundImageFix"/>
<feBlend mode="normal" in="SourceGraphic" in2="BackgroundImageFix" result="shape"/>
<feGaussianBlur stdDeviation="125" result="effect1_foregroundBlur_14464_49819"/>
</filter>
<filter id="filter1_f_14464_49819" x="1108" y="-69" width="988" height="733" filterUnits="userSpaceOnUse" color-interpolation-filters="sRGB">
<feFlood flood-opacity="0" result="BackgroundImageFix"/>
<feBlend mode="normal" in="SourceGraphic" in2="BackgroundImageFix" result="shape"/>
<feGaussianBlur stdDeviation="100" result="effect1_foregroundBlur_14464_49819"/>
</filter>
<filter id="filter2_f_14464_49819" x="432" y="-63" width="766" height="766" filterUnits="userSpaceOnUse" color-interpolation-filters="sRGB">
<feFlood flood-opacity="0" result="BackgroundImageFix"/>
<feBlend mode="normal" in="SourceGraphic" in2="BackgroundImageFix" result="shape"/>
<feGaussianBlur stdDeviation="100" result="effect1_foregroundBlur_14464_49819"/>
</filter>
<linearGradient id="paint0_linear_14464_49819" x1="-20" y1="111.271" x2="1871.34" y2="545.048" gradientUnits="userSpaceOnUse">
<stop stop-color="#FFA200"/>
<stop offset="0.505" stop-color="#FFA200" stop-opacity="0.5"/>
<stop offset="1" stop-color="#FFA200" stop-opacity="0.2"/>
</linearGradient>
</defs>
</svg>
