<svg width="1920" height="729" viewBox="0 0 1920 729" fill="none" xmlns="http://www.w3.org/2000/svg">
<mask id="mask0_14746_48013" style="mask-type:alpha" maskUnits="userSpaceOnUse" x="0" y="0" width="1920" height="729">
<rect width="1920" height="729" fill="#D9D9D9"/>
</mask>
<g mask="url(#mask0_14746_48013)">
<path opacity="0.1" d="M-24 127C6.42735 158.162 91.5897 225.687 188.821 246.49C310.359 272.495 454.462 243.857 520.615 225.752C586.769 207.648 704.205 170.78 796.513 262.62C888.821 354.46 870.872 489.421 1020.1 548.014C1169.33 606.607 1310.36 478.229 1373.44 423.257C1436.51 368.285 1648.31 135.229 1936 137.863" stroke="url(#paint0_linear_14746_48013)" stroke-width="30"/>
<g opacity="0.02" filter="url(#filter0_f_14746_48013)">
<rect x="883" y="210" width="288" height="288" rx="144" fill="#FF3B30"/>
</g>
<g opacity="0.2">
<path fill-rule="evenodd" clip-rule="evenodd" d="M123.672 476.755C123.156 477.372 123.104 479.588 123.361 486.173C124.194 505.939 119.681 514.334 106.348 517.731C104.379 518.243 102.404 519.017 101.941 519.482C101.162 520.256 101.214 520.355 102.1 521.076C102.668 521.489 104.069 521.797 105.212 521.797C107.703 521.85 112.678 523.391 115.169 524.886C118.538 526.998 120.87 534.356 122.119 546.922C122.483 550.214 122.952 553.356 123.209 553.821C123.83 554.956 126.427 555.054 127.306 553.979C127.616 553.566 128.343 549.447 128.911 544.869C130.418 532.002 132.023 526.336 134.93 523.765C136.694 522.171 141.465 520.368 145.409 519.751C147.537 519.443 149.611 518.925 149.975 518.617C150.853 517.948 150.853 515.941 150.027 515.219C149.664 514.964 146.446 514.347 142.872 513.882C129.698 512.078 129.076 511.153 128.35 490.816C128.092 483.458 127.676 477.686 127.312 477.07C126.638 475.785 124.617 475.627 123.685 476.762L123.672 476.755ZM126.526 510.425C127.722 513.101 129.585 514.8 132.697 516.19L135.287 517.325L133.992 518.302C129.638 521.699 127.563 524.84 126.216 530.192C125.542 533.025 125.178 532.868 123.982 529.215C122.74 525.352 120.249 521.955 117.653 520.466C116.411 519.745 115.373 519.076 115.373 518.971C115.373 518.918 116.616 517.889 118.175 516.708C119.78 515.521 121.855 513.311 122.998 511.507C124.088 509.809 125.125 508.418 125.277 508.418C125.429 508.418 126.004 509.343 126.52 510.425H126.526Z" fill="#3E404E"/>
<path fill-rule="evenodd" clip-rule="evenodd" d="M149.083 478.972C146.076 482.113 143.533 486.33 142.132 490.606C140.163 496.371 143.949 493.899 149.651 485.661C153.49 480.1 154.58 477.732 153.694 476.703C152.71 475.516 152.089 475.831 149.076 478.965L149.083 478.972Z" fill="#3E404E"/>
<path fill-rule="evenodd" clip-rule="evenodd" d="M91.6739 486.127C91.3105 486.232 91 486.593 91 486.848C91 487.412 102.562 498.588 104.432 499.768C107.802 502.031 107.491 500.024 103.6 494.62C98.3602 487.36 94.8321 484.842 91.6739 486.127Z" fill="#3E404E"/>
<path fill-rule="evenodd" clip-rule="evenodd" d="M227.086 538.79C225.117 540.023 217.545 549.65 217.545 550.837C217.545 552.588 225.896 545.794 228.433 541.931C230.977 538.173 230.349 536.731 227.086 538.79Z" fill="#3E404E"/>
<path fill-rule="evenodd" clip-rule="evenodd" d="M176.158 538.895C175.121 539.924 175.484 541.262 177.301 543.322C179.482 545.689 186.274 550.424 186.789 549.913C187.357 549.349 185.593 546.515 182.587 543.171C179.27 539.518 177.037 538.022 176.158 538.895Z" fill="#3E404E"/>
<path fill-rule="evenodd" clip-rule="evenodd" d="M199.442 540.029C199.078 540.442 198.457 543.171 198.041 546.102C196.488 557.376 194.096 561.547 187.047 565.2C183.988 566.794 183.419 567.364 183.102 568.754C182.739 570.61 182.944 570.814 186.419 572.047C195.339 575.339 195.907 575.805 196.792 580.487C197.103 582.028 197.466 587.026 197.671 591.558C197.829 596.089 198.186 600.208 198.451 600.667C199.124 602.005 201.305 601.854 202.131 600.411C202.547 599.795 203.168 597.165 203.479 594.646C204.985 583.838 207.211 577.503 210.376 575.188C212.557 573.647 214.367 572.926 218.516 572.099C222.143 571.378 223.392 570.348 222.408 568.754C222.044 568.19 220.901 567.777 219.038 567.567C215.147 567.154 210.792 565.816 208.665 564.426C205.811 562.524 205.19 560.563 204.258 550.575C203.789 545.63 203.221 541.105 202.963 540.436C202.448 539.15 200.373 538.895 199.435 540.023L199.442 540.029ZM201.41 560.826C202.19 563.862 204.417 566.643 207.476 568.446L209.755 569.784L207.165 571.791C205.348 573.181 204.212 574.677 203.175 576.887C202.395 578.585 201.569 579.976 201.41 579.976C201.206 579.976 200.789 578.894 200.373 577.556C199.283 573.64 196.534 571.174 191.348 569.423C190.364 569.063 190.364 569.01 191.606 568.236C194.301 566.485 197.724 562.885 198.92 560.668C199.594 559.383 200.267 558.353 200.472 558.353C200.631 558.353 201.04 559.488 201.404 560.826H201.41Z" fill="#3E404E"/>
<path fill-rule="evenodd" clip-rule="evenodd" d="M144.933 541.105C146.592 545.381 151.626 551.296 153.437 551.041C156.238 550.627 154.368 546.922 149.182 542.548C145.554 539.511 144.154 538.993 144.927 541.105H144.933Z" fill="#3E404E"/>
<path fill-rule="evenodd" clip-rule="evenodd" d="M101.01 544.351C99.3513 545.742 97.1181 547.853 96.0279 549.034C92.7112 552.687 91.773 556.294 94.1119 556.294C95.2549 556.294 100.025 551.349 102.774 547.283C106.764 541.361 106.09 540.18 101.01 544.351Z" fill="#3E404E"/>
<path fill-rule="evenodd" clip-rule="evenodd" d="M216.508 588.108C216.508 588.364 218.219 590.633 220.346 593.151C224.654 598.247 226.986 599.998 228.176 599.021C228.592 598.66 228.955 598.096 228.955 597.735C228.955 596.548 226.26 593.774 222.058 590.685C218.272 587.905 216.508 587.085 216.508 588.114V588.108Z" fill="#3E404E"/>
<path fill-rule="evenodd" clip-rule="evenodd" d="M182.534 592.384C177.037 597.532 174.962 602.064 177.658 602.884C179.165 603.402 180.043 602.372 183.624 596.037C185.752 592.226 186.426 590.58 186.009 590.167C185.646 589.806 184.609 590.423 182.534 592.384Z" fill="#3E404E"/>
</g>
</g>
<defs>
<filter id="filter0_f_14746_48013" x="783" y="110" width="488" height="488" filterUnits="userSpaceOnUse" color-interpolation-filters="sRGB">
<feFlood flood-opacity="0" result="BackgroundImageFix"/>
<feBlend mode="normal" in="SourceGraphic" in2="BackgroundImageFix" result="shape"/>
<feGaussianBlur stdDeviation="50" result="effect1_foregroundBlur_14746_48013"/>
</filter>
<linearGradient id="paint0_linear_14746_48013" x1="956" y1="127" x2="956" y2="563" gradientUnits="userSpaceOnUse">
<stop stop-color="#3E404E" stop-opacity="0.2"/>
<stop offset="0.5" stop-color="#3E404E" stop-opacity="0.5"/>
<stop offset="1" stop-color="#3E404E"/>
</linearGradient>
</defs>
</svg>
