<svg width="80" height="80" viewBox="0 0 80 80" fill="none" xmlns="http://www.w3.org/2000/svg">
<path d="M34 8.4641C37.7128 6.32051 42.2872 6.32051 46 8.4641L64.3109 19.0359C68.0237 21.1795 70.3109 25.141 70.3109 29.4282V50.5718C70.3109 54.859 68.0237 58.8205 64.3109 60.9641L46 71.5359C42.2872 73.6795 37.7128 73.6795 34 71.5359L15.6891 60.9641C11.9763 58.8205 9.68911 54.859 9.68911 50.5718V29.4282C9.68911 25.141 11.9763 21.1795 15.6891 19.0359L34 8.4641Z" fill="#A3B8CC"/>
<mask id="mask0_16366_96333" style="mask-type:alpha" maskUnits="userSpaceOnUse" x="9" y="6" width="62" height="68">
<path d="M34 8.4641C37.7128 6.32051 42.2872 6.32051 46 8.4641L64.3109 19.0359C68.0237 21.1795 70.3109 25.141 70.3109 29.4282V50.5718C70.3109 54.859 68.0237 58.8205 64.3109 60.9641L46 71.5359C42.2872 73.6795 37.7128 73.6795 34 71.5359L15.6891 60.9641C11.9763 58.8205 9.68911 54.859 9.68911 50.5718V29.4282C9.68911 25.141 11.9763 21.1795 15.6891 19.0359L34 8.4641Z" fill="#121F3E"/>
</mask>
<g mask="url(#mask0_16366_96333)">
<g opacity="0.3" filter="url(#filter0_d_16366_96333)">
<circle cx="10" cy="5" r="51" fill="url(#paint0_linear_16366_96333)" shape-rendering="crispEdges"/>
</g>
</g>
<path opacity="0.4" d="M48.7556 33.3026C48.6448 33.2868 48.534 33.2868 48.4231 33.3026C45.969 33.2234 44.0215 31.2126 44.0215 28.7426C44.0215 26.2251 46.064 24.1667 48.5973 24.1667C51.1148 24.1667 53.1731 26.2092 53.1731 28.7426C53.1573 31.2126 51.2098 33.2234 48.7556 33.3026Z" fill="#607E9B"/>
<path opacity="0.4" d="M53.9174 44.2749C52.144 45.4624 49.6582 45.9057 47.3624 45.6049C47.964 44.3066 48.2807 42.8657 48.2965 41.3457C48.2965 39.7624 47.9482 38.2582 47.2832 36.9441C49.6265 36.6274 52.1124 37.0707 53.9015 38.2582C56.4032 39.9049 56.4032 42.6124 53.9174 44.2749Z" fill="#607E9B"/>
<path opacity="0.4" d="M31.1968 33.3026C31.3076 33.2868 31.4185 33.2868 31.5293 33.3026C33.9835 33.2234 35.931 31.2126 35.931 28.7426C35.931 26.2251 33.8885 24.1667 31.3551 24.1667C28.8376 24.1667 26.7793 26.2092 26.7793 28.7426C26.7951 31.2126 28.7426 33.2234 31.1968 33.3026Z" fill="#607E9B"/>
<path opacity="0.4" d="M31.3703 41.3458C31.3703 42.8816 31.7028 44.3383 32.3045 45.6525C30.072 45.89 27.7445 45.415 26.0345 44.2908C23.5328 42.6283 23.5328 39.9208 26.0345 38.2583C27.7286 37.1183 30.1195 36.6591 32.3678 36.9125C31.7186 38.2425 31.3703 39.7466 31.3703 41.3458Z" fill="#607E9B"/>
<path d="M40.1896 46.1275C40.0629 46.1117 39.9204 46.1117 39.7779 46.1275C36.8646 46.0325 34.5371 43.6417 34.5371 40.6967C34.5371 37.6883 36.9596 35.25 39.9838 35.25C42.9921 35.25 45.4304 37.6883 45.4304 40.6967C45.4304 43.6417 43.1188 46.0325 40.1896 46.1275Z" fill="#607E9B"/>
<path d="M35.0451 49.4049C32.6542 51.0041 32.6542 53.6324 35.0451 55.2158C37.7684 57.0366 42.2334 57.0366 44.9567 55.2158C47.3476 53.6166 47.3476 50.9883 44.9567 49.4049C42.2492 47.5841 37.7842 47.5841 35.0451 49.4049Z" fill="#607E9B"/>
<defs>
<filter id="filter0_d_16366_96333" x="-45" y="-46" width="110" height="110" filterUnits="userSpaceOnUse" color-interpolation-filters="sRGB">
<feFlood flood-opacity="0" result="BackgroundImageFix"/>
<feColorMatrix in="SourceAlpha" type="matrix" values="0 0 0 0 0 0 0 0 0 0 0 0 0 0 0 0 0 0 127 0" result="hardAlpha"/>
<feOffset dy="4"/>
<feGaussianBlur stdDeviation="2"/>
<feComposite in2="hardAlpha" operator="out"/>
<feColorMatrix type="matrix" values="0 0 0 0 0 0 0 0 0 0 0 0 0 0 0 0 0 0 0.03 0"/>
<feBlend mode="normal" in2="BackgroundImageFix" result="effect1_dropShadow_16366_96333"/>
<feBlend mode="normal" in="SourceGraphic" in2="effect1_dropShadow_16366_96333" result="shape"/>
</filter>
<linearGradient id="paint0_linear_16366_96333" x1="10" y1="-46" x2="10" y2="56" gradientUnits="userSpaceOnUse">
<stop stop-color="white"/>
<stop offset="1" stop-color="white" stop-opacity="0"/>
</linearGradient>
</defs>
</svg>
