<svg width="80" height="80" viewBox="0 0 80 80" fill="none" xmlns="http://www.w3.org/2000/svg">
<path d="M34 8.4641C37.7128 6.32051 42.2872 6.32051 46 8.4641L64.3109 19.0359C68.0237 21.1795 70.3109 25.141 70.3109 29.4282V50.5718C70.3109 54.859 68.0237 58.8205 64.3109 60.9641L46 71.5359C42.2872 73.6795 37.7128 73.6795 34 71.5359L15.6891 60.9641C11.9763 58.8205 9.68911 54.859 9.68911 50.5718V29.4282C9.68911 25.141 11.9763 21.1795 15.6891 19.0359L34 8.4641Z" fill="#B1C7E7"/>
<mask id="mask0_16366_96135" style="mask-type:alpha" maskUnits="userSpaceOnUse" x="9" y="6" width="62" height="68">
<path d="M34 8.4641C37.7128 6.32051 42.2872 6.32051 46 8.4641L64.3109 19.0359C68.0237 21.1795 70.3109 25.141 70.3109 29.4282V50.5718C70.3109 54.859 68.0237 58.8205 64.3109 60.9641L46 71.5359C42.2872 73.6795 37.7128 73.6795 34 71.5359L15.6891 60.9641C11.9763 58.8205 9.68911 54.859 9.68911 50.5718V29.4282C9.68911 25.141 11.9763 21.1795 15.6891 19.0359L34 8.4641Z" fill="#121F3E"/>
</mask>
<g mask="url(#mask0_16366_96135)">
<g opacity="0.3" filter="url(#filter0_d_16366_96135)">
<circle cx="10" cy="5" r="51" fill="url(#paint0_linear_16366_96135)" shape-rendering="crispEdges"/>
</g>
</g>
<path opacity="0.4" d="M35.2493 24.1667C31.101 24.1667 27.7285 27.5392 27.7285 31.6876C27.7285 35.7567 30.911 39.0501 35.0593 39.1926C35.186 39.1767 35.3127 39.1767 35.4077 39.1926C35.4393 39.1926 35.4552 39.1926 35.4868 39.1926C35.5027 39.1926 35.5027 39.1926 35.5185 39.1926C39.5718 39.0501 42.7543 35.7567 42.7702 31.6876C42.7702 27.5392 39.3977 24.1667 35.2493 24.1667Z" fill="#446BA3"/>
<path d="M43.2935 43.4041C38.876 40.4591 31.6718 40.4591 27.2227 43.4041C25.2118 44.7499 24.1035 46.5707 24.1035 48.5182C24.1035 50.4657 25.2118 52.2707 27.2068 53.6007C29.4235 55.0891 32.3368 55.8332 35.2502 55.8332C38.1635 55.8332 41.0768 55.0891 43.2935 53.6007C45.2885 52.2549 46.3969 50.4499 46.3969 48.4866C46.381 46.5391 45.2885 44.7341 43.2935 43.4041Z" fill="#446BA3"/>
<path opacity="0.4" d="M52.6518 32.6217C52.9051 35.6933 50.7201 38.385 47.696 38.7492C47.6801 38.7492 47.6801 38.7492 47.6643 38.7492H47.6168C47.5218 38.7492 47.4268 38.7492 47.3476 38.7808C45.8118 38.86 44.4026 38.3692 43.3418 37.4667C44.9726 36.01 45.9068 33.825 45.7168 31.45C45.606 30.1675 45.1626 28.9958 44.4976 27.9983C45.0993 27.6975 45.796 27.5075 46.5085 27.4442C49.6118 27.175 52.3826 29.4867 52.6518 32.6217Z" fill="#446BA3"/>
<path d="M55.8171 47.2675C55.6904 48.8033 54.7087 50.1333 53.0621 51.0358C51.4787 51.9066 49.4837 52.3183 47.5046 52.2708C48.6446 51.2416 49.3096 49.9591 49.4362 48.5975C49.5946 46.6341 48.6604 44.75 46.7921 43.2458C45.7312 42.4066 44.4962 41.7416 43.1504 41.2508C46.6496 40.2375 51.0512 40.9183 53.7587 43.1033C55.2154 44.275 55.9596 45.7475 55.8171 47.2675Z" fill="#446BA3"/>
<defs>
<filter id="filter0_d_16366_96135" x="-45" y="-46" width="110" height="110" filterUnits="userSpaceOnUse" color-interpolation-filters="sRGB">
<feFlood flood-opacity="0" result="BackgroundImageFix"/>
<feColorMatrix in="SourceAlpha" type="matrix" values="0 0 0 0 0 0 0 0 0 0 0 0 0 0 0 0 0 0 127 0" result="hardAlpha"/>
<feOffset dy="4"/>
<feGaussianBlur stdDeviation="2"/>
<feComposite in2="hardAlpha" operator="out"/>
<feColorMatrix type="matrix" values="0 0 0 0 0 0 0 0 0 0 0 0 0 0 0 0 0 0 0.03 0"/>
<feBlend mode="normal" in2="BackgroundImageFix" result="effect1_dropShadow_16366_96135"/>
<feBlend mode="normal" in="SourceGraphic" in2="effect1_dropShadow_16366_96135" result="shape"/>
</filter>
<linearGradient id="paint0_linear_16366_96135" x1="10" y1="-46" x2="10" y2="56" gradientUnits="userSpaceOnUse">
<stop stop-color="white"/>
<stop offset="1" stop-color="white" stop-opacity="0"/>
</linearGradient>
</defs>
</svg>
