<svg width="80" height="80" viewBox="0 0 80 80" fill="none" xmlns="http://www.w3.org/2000/svg">
<path d="M34 8.4641C37.7128 6.32051 42.2872 6.32051 46 8.4641L64.3109 19.0359C68.0237 21.1795 70.3109 25.141 70.3109 29.4282V50.5718C70.3109 54.859 68.0237 58.8205 64.3109 60.9641L46 71.5359C42.2872 73.6795 37.7128 73.6795 34 71.5359L15.6891 60.9641C11.9763 58.8205 9.68911 54.859 9.68911 50.5718V29.4282C9.68911 25.141 11.9763 21.1795 15.6891 19.0359L34 8.4641Z" fill="#A3B788"/>
<mask id="mask0_16366_96355" style="mask-type:alpha" maskUnits="userSpaceOnUse" x="9" y="6" width="62" height="68">
<path d="M34 8.4641C37.7128 6.32051 42.2872 6.32051 46 8.4641L64.3109 19.0359C68.0237 21.1795 70.3109 25.141 70.3109 29.4282V50.5718C70.3109 54.859 68.0237 58.8205 64.3109 60.9641L46 71.5359C42.2872 73.6795 37.7128 73.6795 34 71.5359L15.6891 60.9641C11.9763 58.8205 9.68911 54.859 9.68911 50.5718V29.4282C9.68911 25.141 11.9763 21.1795 15.6891 19.0359L34 8.4641Z" fill="#121F3E"/>
</mask>
<g mask="url(#mask0_16366_96355)">
<g opacity="0.3" filter="url(#filter0_d_16366_96355)">
<circle cx="10" cy="5" r="51" fill="url(#paint0_linear_16366_96355)" shape-rendering="crispEdges"/>
</g>
</g>
<path d="M54.3931 32.0517C53.0473 30.5633 50.799 29.8192 47.5373 29.8192H47.1573V29.7558C47.1573 27.0958 47.1573 23.8025 41.204 23.8025H38.7973C32.844 23.8025 32.844 27.1117 32.844 29.7558V29.835H32.464C29.1865 29.835 26.954 30.5792 25.6081 32.0675C24.0406 33.8092 24.0881 36.1525 24.2465 37.7517L24.2623 37.8625L24.4206 39.525C24.4365 39.5408 24.4681 39.5725 24.4998 39.5883C25.0223 39.9367 25.5606 40.285 26.1306 40.6017C26.3523 40.7442 26.5898 40.8708 26.8273 40.9975C29.5348 42.4858 32.5115 43.4833 35.5356 43.9742C35.6781 45.4625 36.3273 47.2042 39.7948 47.2042C43.2623 47.2042 43.9431 45.4783 44.054 43.9425C47.284 43.42 50.4031 42.2958 53.2215 40.6492C53.3165 40.6017 53.3798 40.5542 53.459 40.5067C54.1873 40.095 54.8681 39.6517 55.5331 39.1608C55.5648 39.145 55.5965 39.1133 55.6123 39.0817L55.6756 38.5117L55.7548 37.7675C55.7706 37.6725 55.7706 37.5933 55.7865 37.4825C55.9131 35.8833 55.8815 33.6983 54.3931 32.0517ZM41.7265 42.8975C41.7265 44.5758 41.7265 44.8292 39.779 44.8292C37.8315 44.8292 37.8315 44.5283 37.8315 42.9133V40.9183H41.7265V42.8975ZM35.1081 29.8192V29.7558C35.1081 27.0642 35.1081 26.0667 38.7973 26.0667H41.204C44.8931 26.0667 44.8931 27.08 44.8931 29.7558V29.835H35.1081V29.8192Z" fill="#626B55"/>
<path opacity="0.4" d="M53.4583 40.475C53.3791 40.5225 53.2999 40.57 53.2208 40.6175C50.4024 42.2642 47.2833 43.3725 44.0533 43.9109C43.9266 45.4309 43.2616 47.1726 39.7941 47.1726C36.3266 47.1726 35.6616 45.4467 35.5349 43.9425C32.5108 43.4675 29.5341 42.47 26.8266 40.9659C26.5891 40.8392 26.3516 40.7125 26.1299 40.57C25.5599 40.2534 25.0216 39.905 24.4991 39.5567C24.4674 39.5409 24.4358 39.5092 24.4199 39.4934L25.3858 49.8009C25.7183 52.9517 27.0166 56.1975 33.9833 56.1975H46.0483C53.0149 56.1975 54.3133 52.9517 54.6458 49.785L55.6433 39.05C55.6274 39.0817 55.5958 39.1134 55.5641 39.1292C54.8833 39.62 54.1866 40.0792 53.4583 40.475Z" fill="#626B55"/>
<defs>
<filter id="filter0_d_16366_96355" x="-45" y="-46" width="110" height="110" filterUnits="userSpaceOnUse" color-interpolation-filters="sRGB">
<feFlood flood-opacity="0" result="BackgroundImageFix"/>
<feColorMatrix in="SourceAlpha" type="matrix" values="0 0 0 0 0 0 0 0 0 0 0 0 0 0 0 0 0 0 127 0" result="hardAlpha"/>
<feOffset dy="4"/>
<feGaussianBlur stdDeviation="2"/>
<feComposite in2="hardAlpha" operator="out"/>
<feColorMatrix type="matrix" values="0 0 0 0 0 0 0 0 0 0 0 0 0 0 0 0 0 0 0.03 0"/>
<feBlend mode="normal" in2="BackgroundImageFix" result="effect1_dropShadow_16366_96355"/>
<feBlend mode="normal" in="SourceGraphic" in2="effect1_dropShadow_16366_96355" result="shape"/>
</filter>
<linearGradient id="paint0_linear_16366_96355" x1="10" y1="-46" x2="10" y2="56" gradientUnits="userSpaceOnUse">
<stop stop-color="white"/>
<stop offset="1" stop-color="white" stop-opacity="0"/>
</linearGradient>
</defs>
</svg>
