<svg width="80" height="80" viewBox="0 0 80 80" fill="none" xmlns="http://www.w3.org/2000/svg">
<path d="M34 8.4641C37.7128 6.32051 42.2872 6.32051 46 8.4641L64.3109 19.0359C68.0237 21.1795 70.3109 25.141 70.3109 29.4282V50.5718C70.3109 54.859 68.0237 58.8205 64.3109 60.9641L46 71.5359C42.2872 73.6795 37.7128 73.6795 34 71.5359L15.6891 60.9641C11.9763 58.8205 9.68911 54.859 9.68911 50.5718V29.4282C9.68911 25.141 11.9763 21.1795 15.6891 19.0359L34 8.4641Z" fill="#E2F2CB"/>
<mask id="mask0_16357_95954" style="mask-type:alpha" maskUnits="userSpaceOnUse" x="9" y="6" width="62" height="68">
<path d="M34 8.4641C37.7128 6.32051 42.2872 6.32051 46 8.4641L64.3109 19.0359C68.0237 21.1795 70.3109 25.141 70.3109 29.4282V50.5718C70.3109 54.859 68.0237 58.8205 64.3109 60.9641L46 71.5359C42.2872 73.6795 37.7128 73.6795 34 71.5359L15.6891 60.9641C11.9763 58.8205 9.68911 54.859 9.68911 50.5718V29.4282C9.68911 25.141 11.9763 21.1795 15.6891 19.0359L34 8.4641Z" fill="#121F3E"/>
</mask>
<g mask="url(#mask0_16357_95954)">
<g opacity="0.3" filter="url(#filter0_d_16357_95954)">
<circle cx="10" cy="5" r="51" fill="url(#paint0_linear_16357_95954)" shape-rendering="crispEdges"/>
</g>
</g>
<path d="M39.9973 21C39.4804 21 38.978 21.1058 38.5334 21.3552L24.4639 29.4092C23.5534 29.929 23 30.9113 23 31.9559V48.0351C23 49.0792 23.5534 50.0599 24.4639 50.5813L28.1382 52.6802C29.9235 53.5527 30.582 53.5387 31.3945 53.5387C34.0375 53.5387 35.5462 51.9489 35.5462 49.1858V33.3226C35.5462 33.0983 35.3502 32.9378 35.1281 32.9378H33.3657C33.1398 32.9378 32.9476 33.1024 32.9476 33.3226V49.194C32.9476 50.4188 31.6606 51.651 29.5722 50.6155L25.7526 48.3948C25.6177 48.3219 25.5135 48.189 25.5135 48.0396V31.9604C25.5135 31.8081 25.6164 31.6525 25.7526 31.5756L39.7926 23.5504C39.9242 23.4755 40.0808 23.4755 40.2107 23.5504L54.2507 31.5756C54.3844 31.655 54.4899 31.8032 54.4899 31.9604V48.0396C54.4899 48.1931 54.4122 48.3503 54.2806 48.4244L40.2111 56.4496C40.0866 56.5208 39.9205 56.5208 39.793 56.4496L36.1785 54.3178C36.0706 54.2552 35.924 54.2602 35.8202 54.3178C34.8226 54.8783 34.6349 54.9434 33.6995 55.2652C33.4691 55.3446 33.1183 55.4685 33.8191 55.8578L38.5388 58.6152C38.988 58.8728 39.4887 59 40.0027 59C40.5237 59 41.017 58.8765 41.4666 58.6152L55.5361 50.59C56.4466 50.0648 57 49.0878 57 48.0437V31.9645C57 30.92 56.4466 29.9397 55.5361 29.4178L41.4666 21.3638C41.0257 21.1144 40.52 21.0086 40.0027 21.0086L39.9973 21ZM43.7613 32.4896C39.7548 32.4896 37.3688 34.1799 37.3688 36.9903C37.3688 40.0358 39.737 40.877 43.5823 41.254C48.1825 41.7005 48.5412 42.3701 48.5412 43.2677C48.5412 44.8246 47.289 45.4884 44.3293 45.4884C40.6109 45.4884 39.7935 44.5682 39.5199 42.731C39.4875 42.5343 39.3347 42.3759 39.1317 42.3759H37.3049C37.1948 42.3783 37.0898 42.4227 37.012 42.4999C36.9341 42.5771 36.8892 42.6811 36.8868 42.7903C36.8868 45.1374 38.1747 47.9129 44.3251 47.9129C48.777 47.9129 51.3449 46.1844 51.3449 43.1455C51.3449 40.1412 49.2707 39.3292 44.9524 38.7625C40.5931 38.1863 40.1729 37.9106 40.1729 36.8969C40.1729 36.0606 40.5258 34.9421 43.7576 34.9421C46.6443 34.9421 47.7113 35.5594 48.1489 37.4887C48.1871 37.6698 48.3481 37.818 48.5371 37.818H50.3638C50.4759 37.818 50.5847 37.7496 50.6628 37.6698C50.7392 37.5846 50.7931 37.4887 50.7823 37.3735C50.5 34.0506 48.2647 32.4876 43.7625 32.4876L43.7613 32.4896Z" fill="#83CD29"/>
<defs>
<filter id="filter0_d_16357_95954" x="-45" y="-46" width="110" height="110" filterUnits="userSpaceOnUse" color-interpolation-filters="sRGB">
<feFlood flood-opacity="0" result="BackgroundImageFix"/>
<feColorMatrix in="SourceAlpha" type="matrix" values="0 0 0 0 0 0 0 0 0 0 0 0 0 0 0 0 0 0 127 0" result="hardAlpha"/>
<feOffset dy="4"/>
<feGaussianBlur stdDeviation="2"/>
<feComposite in2="hardAlpha" operator="out"/>
<feColorMatrix type="matrix" values="0 0 0 0 0 0 0 0 0 0 0 0 0 0 0 0 0 0 0.03 0"/>
<feBlend mode="normal" in2="BackgroundImageFix" result="effect1_dropShadow_16357_95954"/>
<feBlend mode="normal" in="SourceGraphic" in2="effect1_dropShadow_16357_95954" result="shape"/>
</filter>
<linearGradient id="paint0_linear_16357_95954" x1="10" y1="-46" x2="10" y2="56" gradientUnits="userSpaceOnUse">
<stop stop-color="white"/>
<stop offset="1" stop-color="white" stop-opacity="0"/>
</linearGradient>
</defs>
</svg>
