<svg width="80" height="80" viewBox="0 0 80 80" fill="none" xmlns="http://www.w3.org/2000/svg">
<path d="M34 8.4641C37.7128 6.32051 42.2872 6.32051 46 8.4641L64.3109 19.0359C68.0237 21.1795 70.3109 25.141 70.3109 29.4282V50.5718C70.3109 54.859 68.0237 58.8205 64.3109 60.9641L46 71.5359C42.2872 73.6795 37.7128 73.6795 34 71.5359L15.6891 60.9641C11.9763 58.8205 9.68911 54.859 9.68911 50.5718V29.4282C9.68911 25.141 11.9763 21.1795 15.6891 19.0359L34 8.4641Z" fill="#E5A7B1"/>
<mask id="mask0_16366_96179" style="mask-type:alpha" maskUnits="userSpaceOnUse" x="9" y="6" width="62" height="68">
<path d="M34 8.4641C37.7128 6.32051 42.2872 6.32051 46 8.4641L64.3109 19.0359C68.0237 21.1795 70.3109 25.141 70.3109 29.4282V50.5718C70.3109 54.859 68.0237 58.8205 64.3109 60.9641L46 71.5359C42.2872 73.6795 37.7128 73.6795 34 71.5359L15.6891 60.9641C11.9763 58.8205 9.68911 54.859 9.68911 50.5718V29.4282C9.68911 25.141 11.9763 21.1795 15.6891 19.0359L34 8.4641Z" fill="#121F3E"/>
</mask>
<g mask="url(#mask0_16366_96179)">
<g opacity="0.3" filter="url(#filter0_d_16366_96179)">
<circle cx="10" cy="5" r="51" fill="url(#paint0_linear_16366_96179)" shape-rendering="crispEdges"/>
</g>
</g>
<path opacity="0.4" d="M54.9935 28.9167V51.0834C54.9935 53.7117 52.856 55.8334 50.2435 55.8334H43.9102C41.2818 55.8334 39.1602 53.7117 39.1602 51.0834V28.9167C39.1602 26.2884 41.2818 24.1667 43.9102 24.1667H50.2435C52.856 24.1667 54.9935 26.2884 54.9935 28.9167Z" fill="#9C3C4C"/>
<path d="M48.2643 30.5C48.2643 31.1492 47.726 31.6875 47.0768 31.6875H39.1602V29.3125H47.0768C47.726 29.3125 48.2643 29.8508 48.2643 30.5Z" fill="#9C3C4C"/>
<path d="M46.5227 49.5C46.5227 50.1492 46.0002 50.6875 45.3352 50.6875H39.1602V48.3125H45.3352C46.0002 48.3125 46.5227 48.8508 46.5227 49.5Z" fill="#9C3C4C"/>
<path d="M48.2643 43.1824C48.2485 43.8316 47.726 44.3541 47.0768 44.3541C47.061 44.3541 47.061 44.3541 47.061 44.3541L39.1602 44.2749V41.8999L47.0768 41.9791C47.7418 41.9791 48.2643 42.5174 48.2643 43.1824Z" fill="#9C3C4C"/>
<path d="M44.7968 36.8333C44.7968 37.4824 44.2585 38.0208 43.6093 38.0208H39.1602V35.6458H43.6093C44.2585 35.6458 44.7968 36.1841 44.7968 36.8333Z" fill="#9C3C4C"/>
<path opacity="0.4" d="M34.3634 28.8376V49.3576C34.3634 50.0701 34.0625 51.1626 33.6984 51.7642L32.4 53.9176C30.9117 56.4193 28.4734 56.4193 26.9692 53.9176L25.6867 51.7642C25.3067 51.1626 25.0059 50.0701 25.0059 49.3576V28.8376C25.0059 26.2726 27.1117 24.1667 29.6925 24.1667C32.2575 24.1667 34.3634 26.2726 34.3634 28.8376Z" fill="#9C3C4C"/>
<path d="M34.3634 30.8958H25.0059V33.2708H34.3634V30.8958Z" fill="#9C3C4C"/>
<defs>
<filter id="filter0_d_16366_96179" x="-45" y="-46" width="110" height="110" filterUnits="userSpaceOnUse" color-interpolation-filters="sRGB">
<feFlood flood-opacity="0" result="BackgroundImageFix"/>
<feColorMatrix in="SourceAlpha" type="matrix" values="0 0 0 0 0 0 0 0 0 0 0 0 0 0 0 0 0 0 127 0" result="hardAlpha"/>
<feOffset dy="4"/>
<feGaussianBlur stdDeviation="2"/>
<feComposite in2="hardAlpha" operator="out"/>
<feColorMatrix type="matrix" values="0 0 0 0 0 0 0 0 0 0 0 0 0 0 0 0 0 0 0.03 0"/>
<feBlend mode="normal" in2="BackgroundImageFix" result="effect1_dropShadow_16366_96179"/>
<feBlend mode="normal" in="SourceGraphic" in2="effect1_dropShadow_16366_96179" result="shape"/>
</filter>
<linearGradient id="paint0_linear_16366_96179" x1="10" y1="-46" x2="10" y2="56" gradientUnits="userSpaceOnUse">
<stop stop-color="white"/>
<stop offset="1" stop-color="white" stop-opacity="0"/>
</linearGradient>
</defs>
</svg>
