<svg width="80" height="80" viewBox="0 0 80 80" fill="none" xmlns="http://www.w3.org/2000/svg">
<path d="M34 8.4641C37.7128 6.32051 42.2872 6.32051 46 8.4641L64.3109 19.0359C68.0237 21.1795 70.3109 25.141 70.3109 29.4282V50.5718C70.3109 54.859 68.0237 58.8205 64.3109 60.9641L46 71.5359C42.2872 73.6795 37.7128 73.6795 34 71.5359L15.6891 60.9641C11.9763 58.8205 9.68911 54.859 9.68911 50.5718V29.4282C9.68911 25.141 11.9763 21.1795 15.6891 19.0359L34 8.4641Z" fill="#F7EFDB"/>
<mask id="mask0_16365_96095" style="mask-type:alpha" maskUnits="userSpaceOnUse" x="9" y="6" width="62" height="68">
<path d="M34 8.4641C37.7128 6.32051 42.2872 6.32051 46 8.4641L64.3109 19.0359C68.0237 21.1795 70.3109 25.141 70.3109 29.4282V50.5718C70.3109 54.859 68.0237 58.8205 64.3109 60.9641L46 71.5359C42.2872 73.6795 37.7128 73.6795 34 71.5359L15.6891 60.9641C11.9763 58.8205 9.68911 54.859 9.68911 50.5718V29.4282C9.68911 25.141 11.9763 21.1795 15.6891 19.0359L34 8.4641Z" fill="#741B8B"/>
</mask>
<g mask="url(#mask0_16365_96095)">
<g opacity="0.3" filter="url(#filter0_d_16365_96095)">
<circle cx="10" cy="5" r="51" fill="url(#paint0_linear_16365_96095)" shape-rendering="crispEdges"/>
</g>
</g>
<path opacity="0.6" d="M43.166 46.3333C43.166 49.1358 41.9468 51.6691 39.9993 53.3949C38.321 54.9149 36.1043 55.8333 33.666 55.8333C28.4252 55.8333 24.166 51.5741 24.166 46.3333C24.166 41.9633 27.1427 38.2583 31.1643 37.1658C32.2568 39.9208 34.6002 42.0424 37.4977 42.8341C38.2893 43.0558 39.1285 43.1666 39.9993 43.1666C40.8702 43.1666 41.7093 43.0558 42.501 42.8341C42.9285 43.9108 43.166 45.0983 43.166 46.3333Z" fill="#F2BD37"/>
<path d="M49.5 33.6667C49.5 34.9017 49.2625 36.0892 48.835 37.1659C47.7425 39.9209 45.3992 42.0426 42.5017 42.8342C41.71 43.0559 40.8708 43.1667 40 43.1667C39.1292 43.1667 38.29 43.0559 37.4983 42.8342C34.6008 42.0426 32.2575 39.9209 31.165 37.1659C30.7375 36.0892 30.5 34.9017 30.5 33.6667C30.5 28.4259 34.7592 24.1667 40 24.1667C45.2408 24.1667 49.5 28.4259 49.5 33.6667Z" fill="#F2BD37"/>
<path opacity="0.4" d="M55.8333 46.3333C55.8333 51.5741 51.5742 55.8333 46.3333 55.8333C43.895 55.8333 41.6783 54.9149 40 53.3949C41.9475 51.6691 43.1667 49.1358 43.1667 46.3333C43.1667 45.0983 42.9292 43.9108 42.5017 42.8341C45.3992 42.0424 47.7425 39.9208 48.835 37.1658C52.8567 38.2583 55.8333 41.9633 55.8333 46.3333Z" fill="#F2BD37"/>
<defs>
<filter id="filter0_d_16365_96095" x="-45" y="-46" width="110" height="110" filterUnits="userSpaceOnUse" color-interpolation-filters="sRGB">
<feFlood flood-opacity="0" result="BackgroundImageFix"/>
<feColorMatrix in="SourceAlpha" type="matrix" values="0 0 0 0 0 0 0 0 0 0 0 0 0 0 0 0 0 0 127 0" result="hardAlpha"/>
<feOffset dy="4"/>
<feGaussianBlur stdDeviation="2"/>
<feComposite in2="hardAlpha" operator="out"/>
<feColorMatrix type="matrix" values="0 0 0 0 0 0 0 0 0 0 0 0 0 0 0 0 0 0 0.03 0"/>
<feBlend mode="normal" in2="BackgroundImageFix" result="effect1_dropShadow_16365_96095"/>
<feBlend mode="normal" in="SourceGraphic" in2="effect1_dropShadow_16365_96095" result="shape"/>
</filter>
<linearGradient id="paint0_linear_16365_96095" x1="10" y1="-46" x2="10" y2="56" gradientUnits="userSpaceOnUse">
<stop stop-color="white"/>
<stop offset="1" stop-color="white" stop-opacity="0"/>
</linearGradient>
</defs>
</svg>
