<svg width="80" height="80" viewBox="0 0 80 80" fill="none" xmlns="http://www.w3.org/2000/svg">
<path d="M34 8.4641C37.7128 6.32051 42.2872 6.32051 46 8.4641L64.3109 19.0359C68.0237 21.1795 70.3109 25.141 70.3109 29.4282V50.5718C70.3109 54.859 68.0237 58.8205 64.3109 60.9641L46 71.5359C42.2872 73.6795 37.7128 73.6795 34 71.5359L15.6891 60.9641C11.9763 58.8205 9.68911 54.859 9.68911 50.5718V29.4282C9.68911 25.141 11.9763 21.1795 15.6891 19.0359L34 8.4641Z" fill="#FFCB83"/>
<mask id="mask0_16366_96318" style="mask-type:alpha" maskUnits="userSpaceOnUse" x="9" y="6" width="62" height="68">
<path d="M34 8.4641C37.7128 6.32051 42.2872 6.32051 46 8.4641L64.3109 19.0359C68.0237 21.1795 70.3109 25.141 70.3109 29.4282V50.5718C70.3109 54.859 68.0237 58.8205 64.3109 60.9641L46 71.5359C42.2872 73.6795 37.7128 73.6795 34 71.5359L15.6891 60.9641C11.9763 58.8205 9.68911 54.859 9.68911 50.5718V29.4282C9.68911 25.141 11.9763 21.1795 15.6891 19.0359L34 8.4641Z" fill="#121F3E"/>
</mask>
<g mask="url(#mask0_16366_96318)">
<g opacity="0.3" filter="url(#filter0_d_16366_96318)">
<circle cx="10" cy="5" r="51" fill="url(#paint0_linear_16366_96318)" shape-rendering="crispEdges"/>
</g>
</g>
<path d="M40.0006 26.8108V53.1891L38.734 54.63C36.9765 56.625 35.5356 56.0866 35.5356 53.4266V42.0266H30.6431C28.4265 42.0266 27.809 40.665 29.2815 39.0025L40.0006 26.8108Z" fill="#FF9500"/>
<path opacity="0.4" d="M50.7192 40.9975L40 53.1892V26.8108L41.2667 25.37C43.0242 23.375 44.465 23.9133 44.465 26.5733V37.9733H49.3575C51.5742 37.9733 52.1917 39.335 50.7192 40.9975Z" fill="#FF9500"/>
<defs>
<filter id="filter0_d_16366_96318" x="-45" y="-46" width="110" height="110" filterUnits="userSpaceOnUse" color-interpolation-filters="sRGB">
<feFlood flood-opacity="0" result="BackgroundImageFix"/>
<feColorMatrix in="SourceAlpha" type="matrix" values="0 0 0 0 0 0 0 0 0 0 0 0 0 0 0 0 0 0 127 0" result="hardAlpha"/>
<feOffset dy="4"/>
<feGaussianBlur stdDeviation="2"/>
<feComposite in2="hardAlpha" operator="out"/>
<feColorMatrix type="matrix" values="0 0 0 0 0 0 0 0 0 0 0 0 0 0 0 0 0 0 0.03 0"/>
<feBlend mode="normal" in2="BackgroundImageFix" result="effect1_dropShadow_16366_96318"/>
<feBlend mode="normal" in="SourceGraphic" in2="effect1_dropShadow_16366_96318" result="shape"/>
</filter>
<linearGradient id="paint0_linear_16366_96318" x1="10" y1="-46" x2="10" y2="56" gradientUnits="userSpaceOnUse">
<stop stop-color="white"/>
<stop offset="1" stop-color="white" stop-opacity="0"/>
</linearGradient>
</defs>
</svg>
