<svg width="80" height="80" viewBox="0 0 80 80" fill="none" xmlns="http://www.w3.org/2000/svg">
<path d="M34 8.4641C37.7128 6.32051 42.2872 6.32051 46 8.4641L64.3109 19.0359C68.0237 21.1795 70.3109 25.141 70.3109 29.4282V50.5718C70.3109 54.859 68.0237 58.8205 64.3109 60.9641L46 71.5359C42.2872 73.6795 37.7128 73.6795 34 71.5359L15.6891 60.9641C11.9763 58.8205 9.68911 54.859 9.68911 50.5718V29.4282C9.68911 25.141 11.9763 21.1795 15.6891 19.0359L34 8.4641Z" fill="#4F6589"/>
<mask id="mask0_16359_95991" style="mask-type:alpha" maskUnits="userSpaceOnUse" x="9" y="6" width="62" height="68">
<path d="M34 8.4641C37.7128 6.32051 42.2872 6.32051 46 8.4641L64.3109 19.0359C68.0237 21.1795 70.3109 25.141 70.3109 29.4282V50.5718C70.3109 54.859 68.0237 58.8205 64.3109 60.9641L46 71.5359C42.2872 73.6795 37.7128 73.6795 34 71.5359L15.6891 60.9641C11.9763 58.8205 9.68911 54.859 9.68911 50.5718V29.4282C9.68911 25.141 11.9763 21.1795 15.6891 19.0359L34 8.4641Z" fill="#BAD5FF"/>
</mask>
<g mask="url(#mask0_16359_95991)">
<g opacity="0.3" filter="url(#filter0_d_16359_95991)">
<circle cx="10" cy="5" r="51" fill="url(#paint0_linear_16359_95991)" shape-rendering="crispEdges"/>
</g>
</g>
<g clip-path="url(#clip0_16359_95991)">
<path d="M40.0002 43.4061C41.8708 43.4061 43.3872 41.8812 43.3872 40.0001C43.3872 38.1189 41.8708 36.594 40.0002 36.594C38.1297 36.594 36.6133 38.1189 36.6133 40.0001C36.6133 41.8812 38.1297 43.4061 40.0002 43.4061Z" fill="#61DAFB"/>
<path d="M40.0001 46.9781C50.0373 46.9781 58.174 43.8538 58.174 39.9998C58.174 36.1458 50.0373 33.0215 40.0001 33.0215C29.9629 33.0215 21.8262 36.1458 21.8262 39.9998C21.8262 43.8538 29.9629 46.9781 40.0001 46.9781Z" stroke="#61DAFB"/>
<path d="M33.9899 43.489C39.0085 52.2305 45.7674 57.7548 49.0863 55.8278C52.4053 53.9008 51.0274 45.2522 46.0088 36.5107C40.9902 27.7692 34.2313 22.245 30.9124 24.172C27.5935 26.099 28.9713 34.7475 33.9899 43.489Z" stroke="#61DAFB"/>
<path d="M33.9898 36.5107C28.9712 45.2522 27.5934 53.9007 30.9123 55.8277C34.2313 57.7547 40.9902 52.2305 46.0087 43.489C51.0273 34.7475 52.4052 26.099 49.0862 24.172C45.7673 22.245 39.0084 27.7692 33.9898 36.5107Z" stroke="#61DAFB"/>
</g>
<defs>
<filter id="filter0_d_16359_95991" x="-45" y="-46" width="110" height="110" filterUnits="userSpaceOnUse" color-interpolation-filters="sRGB">
<feFlood flood-opacity="0" result="BackgroundImageFix"/>
<feColorMatrix in="SourceAlpha" type="matrix" values="0 0 0 0 0 0 0 0 0 0 0 0 0 0 0 0 0 0 127 0" result="hardAlpha"/>
<feOffset dy="4"/>
<feGaussianBlur stdDeviation="2"/>
<feComposite in2="hardAlpha" operator="out"/>
<feColorMatrix type="matrix" values="0 0 0 0 0 0 0 0 0 0 0 0 0 0 0 0 0 0 0.03 0"/>
<feBlend mode="normal" in2="BackgroundImageFix" result="effect1_dropShadow_16359_95991"/>
<feBlend mode="normal" in="SourceGraphic" in2="effect1_dropShadow_16359_95991" result="shape"/>
</filter>
<linearGradient id="paint0_linear_16359_95991" x1="10" y1="-46" x2="10" y2="56" gradientUnits="userSpaceOnUse">
<stop stop-color="white"/>
<stop offset="1" stop-color="white" stop-opacity="0"/>
</linearGradient>
<clipPath id="clip0_16359_95991">
<rect width="38" height="34" fill="white" transform="translate(21 23)"/>
</clipPath>
</defs>
</svg>
