<svg width="80" height="80" viewBox="0 0 80 80" fill="none" xmlns="http://www.w3.org/2000/svg">
<path d="M34 8.4641C37.7128 6.32051 42.2872 6.32051 46 8.4641L64.3109 19.0359C68.0237 21.1795 70.3109 25.141 70.3109 29.4282V50.5718C70.3109 54.859 68.0237 58.8205 64.3109 60.9641L46 71.5359C42.2872 73.6795 37.7128 73.6795 34 71.5359L15.6891 60.9641C11.9763 58.8205 9.68911 54.859 9.68911 50.5718V29.4282C9.68911 25.141 11.9763 21.1795 15.6891 19.0359L34 8.4641Z" fill="#B6C5C9"/>
<mask id="mask0_16366_96232" style="mask-type:alpha" maskUnits="userSpaceOnUse" x="9" y="6" width="62" height="68">
<path d="M34 8.4641C37.7128 6.32051 42.2872 6.32051 46 8.4641L64.3109 19.0359C68.0237 21.1795 70.3109 25.141 70.3109 29.4282V50.5718C70.3109 54.859 68.0237 58.8205 64.3109 60.9641L46 71.5359C42.2872 73.6795 37.7128 73.6795 34 71.5359L15.6891 60.9641C11.9763 58.8205 9.68911 54.859 9.68911 50.5718V29.4282C9.68911 25.141 11.9763 21.1795 15.6891 19.0359L34 8.4641Z" fill="#121F3E"/>
</mask>
<g mask="url(#mask0_16366_96232)">
<g opacity="0.3" filter="url(#filter0_d_16366_96232)">
<circle cx="10" cy="5" r="51" fill="url(#paint0_linear_16366_96232)" shape-rendering="crispEdges"/>
</g>
</g>
<path opacity="0.4" d="M24.166 41.3934V38.6068C24.166 36.9601 25.5118 35.5984 27.1743 35.5984C30.0402 35.5984 31.2118 33.5718 29.771 31.0859C28.9477 29.6609 29.4385 27.8084 30.8793 26.9851L33.6185 25.4176C34.8693 24.6734 36.4843 25.1168 37.2285 26.3676L37.4027 26.6684C38.8277 29.1543 41.171 29.1543 42.6118 26.6684L42.786 26.3676C43.5302 25.1168 45.1452 24.6734 46.396 25.4176L49.1352 26.9851C50.576 27.8084 51.0668 29.6609 50.2435 31.0859C48.8027 33.5718 49.9744 35.5984 52.8402 35.5984C54.4869 35.5984 55.8485 36.9443 55.8485 38.6068V41.3934C55.8485 43.0401 54.5027 44.4018 52.8402 44.4018C49.9744 44.4018 48.8027 46.4284 50.2435 48.9143C51.0668 50.3551 50.576 52.1918 49.1352 53.0151L46.396 54.5826C45.1452 55.3268 43.5302 54.8834 42.786 53.6326L42.6118 53.3318C41.1868 50.8459 38.8435 50.8459 37.4027 53.3318L37.2285 53.6326C36.4843 54.8834 34.8693 55.3268 33.6185 54.5826L30.8793 53.0151C29.4385 52.1918 28.9477 50.3393 29.771 48.9143C31.2118 46.4284 30.0402 44.4018 27.1743 44.4018C25.5118 44.4018 24.166 43.0401 24.166 41.3934Z" fill="#39555D"/>
<path d="M39.9993 45.1459C42.8413 45.1459 45.1452 42.842 45.1452 40.0001C45.1452 37.1581 42.8413 34.8542 39.9993 34.8542C37.1574 34.8542 34.8535 37.1581 34.8535 40.0001C34.8535 42.842 37.1574 45.1459 39.9993 45.1459Z" fill="#39555D"/>
<defs>
<filter id="filter0_d_16366_96232" x="-45" y="-46" width="110" height="110" filterUnits="userSpaceOnUse" color-interpolation-filters="sRGB">
<feFlood flood-opacity="0" result="BackgroundImageFix"/>
<feColorMatrix in="SourceAlpha" type="matrix" values="0 0 0 0 0 0 0 0 0 0 0 0 0 0 0 0 0 0 127 0" result="hardAlpha"/>
<feOffset dy="4"/>
<feGaussianBlur stdDeviation="2"/>
<feComposite in2="hardAlpha" operator="out"/>
<feColorMatrix type="matrix" values="0 0 0 0 0 0 0 0 0 0 0 0 0 0 0 0 0 0 0.03 0"/>
<feBlend mode="normal" in2="BackgroundImageFix" result="effect1_dropShadow_16366_96232"/>
<feBlend mode="normal" in="SourceGraphic" in2="effect1_dropShadow_16366_96232" result="shape"/>
</filter>
<linearGradient id="paint0_linear_16366_96232" x1="10" y1="-46" x2="10" y2="56" gradientUnits="userSpaceOnUse">
<stop stop-color="white"/>
<stop offset="1" stop-color="white" stop-opacity="0"/>
</linearGradient>
</defs>
</svg>
