<svg width="80" height="80" viewBox="0 0 80 80" fill="none" xmlns="http://www.w3.org/2000/svg">
<path d="M34 8.4641C37.7128 6.32051 42.2872 6.32051 46 8.4641L64.3109 19.0359C68.0237 21.1795 70.3109 25.141 70.3109 29.4282V50.5718C70.3109 54.859 68.0237 58.8205 64.3109 60.9641L46 71.5359C42.2872 73.6795 37.7128 73.6795 34 71.5359L15.6891 60.9641C11.9763 58.8205 9.68911 54.859 9.68911 50.5718V29.4282C9.68911 25.141 11.9763 21.1795 15.6891 19.0359L34 8.4641Z" fill="#F3B493"/>
<mask id="mask0_16366_96115" style="mask-type:alpha" maskUnits="userSpaceOnUse" x="9" y="6" width="62" height="68">
<path d="M34 8.4641C37.7128 6.32051 42.2872 6.32051 46 8.4641L64.3109 19.0359C68.0237 21.1795 70.3109 25.141 70.3109 29.4282V50.5718C70.3109 54.859 68.0237 58.8205 64.3109 60.9641L46 71.5359C42.2872 73.6795 37.7128 73.6795 34 71.5359L15.6891 60.9641C11.9763 58.8205 9.68911 54.859 9.68911 50.5718V29.4282C9.68911 25.141 11.9763 21.1795 15.6891 19.0359L34 8.4641Z" fill="#121F3E"/>
</mask>
<g mask="url(#mask0_16366_96115)">
<g opacity="0.3" filter="url(#filter0_d_16366_96115)">
<circle cx="10" cy="5" r="51" fill="url(#paint0_linear_16366_96115)" shape-rendering="crispEdges"/>
</g>
</g>
<path opacity="0.4" d="M46.714 24.1667H33.2873C28.9173 24.1667 27.334 25.7501 27.334 30.1992V49.8009C27.334 54.2501 28.9173 55.8334 33.2873 55.8334H46.6982C51.084 55.8334 52.6673 54.2501 52.6673 49.8009V30.1992C52.6673 25.7501 51.084 24.1667 46.714 24.1667Z" fill="white"/>
<path d="M43.1673 30.8958H36.834C36.1848 30.8958 35.6465 30.3574 35.6465 29.7083C35.6465 29.0591 36.1848 28.5208 36.834 28.5208H43.1673C43.8165 28.5208 44.3548 29.0591 44.3548 29.7083C44.3548 30.3574 43.8165 30.8958 43.1673 30.8958Z" fill="white"/>
<path d="M39.9993 51.5583C41.5296 51.5583 42.7702 50.3177 42.7702 48.7874C42.7702 47.2571 41.5296 46.0166 39.9993 46.0166C38.4691 46.0166 37.2285 47.2571 37.2285 48.7874C37.2285 50.3177 38.4691 51.5583 39.9993 51.5583Z" fill="white"/>
<defs>
<filter id="filter0_d_16366_96115" x="-45" y="-46" width="110" height="110" filterUnits="userSpaceOnUse" color-interpolation-filters="sRGB">
<feFlood flood-opacity="0" result="BackgroundImageFix"/>
<feColorMatrix in="SourceAlpha" type="matrix" values="0 0 0 0 0 0 0 0 0 0 0 0 0 0 0 0 0 0 127 0" result="hardAlpha"/>
<feOffset dy="4"/>
<feGaussianBlur stdDeviation="2"/>
<feComposite in2="hardAlpha" operator="out"/>
<feColorMatrix type="matrix" values="0 0 0 0 0 0 0 0 0 0 0 0 0 0 0 0 0 0 0.03 0"/>
<feBlend mode="normal" in2="BackgroundImageFix" result="effect1_dropShadow_16366_96115"/>
<feBlend mode="normal" in="SourceGraphic" in2="effect1_dropShadow_16366_96115" result="shape"/>
</filter>
<linearGradient id="paint0_linear_16366_96115" x1="10" y1="-46" x2="10" y2="56" gradientUnits="userSpaceOnUse">
<stop stop-color="white"/>
<stop offset="1" stop-color="white" stop-opacity="0"/>
</linearGradient>
</defs>
</svg>
