<svg width="80" height="80" viewBox="0 0 80 80" fill="none" xmlns="http://www.w3.org/2000/svg">
<path d="M34 8.4641C37.7128 6.32051 42.2872 6.32051 46 8.4641L64.3109 19.0359C68.0237 21.1795 70.3109 25.141 70.3109 29.4282V50.5718C70.3109 54.859 68.0237 58.8205 64.3109 60.9641L46 71.5359C42.2872 73.6795 37.7128 73.6795 34 71.5359L15.6891 60.9641C11.9763 58.8205 9.68911 54.859 9.68911 50.5718V29.4282C9.68911 25.141 11.9763 21.1795 15.6891 19.0359L34 8.4641Z" fill="#CDE1BE"/>
<mask id="mask0_16364_96076" style="mask-type:alpha" maskUnits="userSpaceOnUse" x="9" y="6" width="62" height="68">
<path d="M34 8.4641C37.7128 6.32051 42.2872 6.32051 46 8.4641L64.3109 19.0359C68.0237 21.1795 70.3109 25.141 70.3109 29.4282V50.5718C70.3109 54.859 68.0237 58.8205 64.3109 60.9641L46 71.5359C42.2872 73.6795 37.7128 73.6795 34 71.5359L15.6891 60.9641C11.9763 58.8205 9.68911 54.859 9.68911 50.5718V29.4282C9.68911 25.141 11.9763 21.1795 15.6891 19.0359L34 8.4641Z" fill="#121F3E"/>
</mask>
<g mask="url(#mask0_16364_96076)">
<g opacity="0.3" filter="url(#filter0_d_16364_96076)">
<circle cx="10" cy="5" r="51" fill="url(#paint0_linear_16364_96076)" shape-rendering="crispEdges"/>
</g>
</g>
<path opacity="0.4" d="M54.6462 30.1359V35.2501C54.6462 38.8759 53.4904 40.0318 49.8646 40.0318H49.7063V37.4351C49.7063 32.4951 47.5054 30.2942 42.5654 30.2942H39.9688V30.1359C39.9688 26.5101 41.1246 25.3542 44.7504 25.3542H49.8646C53.4904 25.3542 54.6462 26.5101 54.6462 30.1359Z" fill="#799A60"/>
<path d="M47.3316 37.435V42.565C47.3316 46.175 46.1758 47.3309 42.5658 47.3309H37.4358C33.8258 47.3309 32.6699 46.175 32.6699 42.565V37.435C32.6699 33.825 33.8258 32.6692 37.4358 32.6692H42.5658C46.1758 32.6692 47.3316 33.825 47.3316 37.435Z" fill="#799A60"/>
<path opacity="0.4" d="M40.031 49.7058V49.8641C40.031 53.4899 38.8752 54.6458 35.2493 54.6458H30.1352C26.5093 54.6458 25.3535 53.4899 25.3535 49.8641V44.7499C25.3535 41.1241 26.5093 39.9683 30.1352 39.9683H30.2935V42.5649C30.2935 47.5049 32.4944 49.7058 37.4344 49.7058H40.031V49.7058Z" fill="#799A60"/>
<defs>
<filter id="filter0_d_16364_96076" x="-45" y="-46" width="110" height="110" filterUnits="userSpaceOnUse" color-interpolation-filters="sRGB">
<feFlood flood-opacity="0" result="BackgroundImageFix"/>
<feColorMatrix in="SourceAlpha" type="matrix" values="0 0 0 0 0 0 0 0 0 0 0 0 0 0 0 0 0 0 127 0" result="hardAlpha"/>
<feOffset dy="4"/>
<feGaussianBlur stdDeviation="2"/>
<feComposite in2="hardAlpha" operator="out"/>
<feColorMatrix type="matrix" values="0 0 0 0 0 0 0 0 0 0 0 0 0 0 0 0 0 0 0.03 0"/>
<feBlend mode="normal" in2="BackgroundImageFix" result="effect1_dropShadow_16364_96076"/>
<feBlend mode="normal" in="SourceGraphic" in2="effect1_dropShadow_16364_96076" result="shape"/>
</filter>
<linearGradient id="paint0_linear_16364_96076" x1="10" y1="-46" x2="10" y2="56" gradientUnits="userSpaceOnUse">
<stop stop-color="white"/>
<stop offset="1" stop-color="white" stop-opacity="0"/>
</linearGradient>
</defs>
</svg>
