<svg width="80" height="80" viewBox="0 0 80 80" fill="none" xmlns="http://www.w3.org/2000/svg">
<path d="M34 8.4641C37.7128 6.32051 42.2872 6.32051 46 8.4641L64.3109 19.0359C68.0237 21.1795 70.3109 25.141 70.3109 29.4282V50.5718C70.3109 54.859 68.0237 58.8205 64.3109 60.9641L46 71.5359C42.2872 73.6795 37.7128 73.6795 34 71.5359L15.6891 60.9641C11.9763 58.8205 9.68911 54.859 9.68911 50.5718V29.4282C9.68911 25.141 11.9763 21.1795 15.6891 19.0359L34 8.4641Z" fill="#E1E596"/>
<mask id="mask0_16386_96577" style="mask-type:alpha" maskUnits="userSpaceOnUse" x="9" y="6" width="62" height="68">
<path d="M34 8.4641C37.7128 6.32051 42.2872 6.32051 46 8.4641L64.3109 19.0359C68.0237 21.1795 70.3109 25.141 70.3109 29.4282V50.5718C70.3109 54.859 68.0237 58.8205 64.3109 60.9641L46 71.5359C42.2872 73.6795 37.7128 73.6795 34 71.5359L15.6891 60.9641C11.9763 58.8205 9.68911 54.859 9.68911 50.5718V29.4282C9.68911 25.141 11.9763 21.1795 15.6891 19.0359L34 8.4641Z" fill="#121F3E"/>
</mask>
<g mask="url(#mask0_16386_96577)">
<g opacity="0.3" filter="url(#filter0_d_16386_96577)">
<circle cx="10" cy="5" r="51" fill="url(#paint0_linear_16386_96577)" shape-rendering="crispEdges"/>
</g>
<path opacity="0.4" d="M39.9993 55.8334C48.7439 55.8334 55.8327 48.7446 55.8327 40.0001C55.8327 31.2556 48.7439 24.1667 39.9993 24.1667C31.2548 24.1667 24.166 31.2556 24.166 40.0001C24.166 48.7446 31.2548 55.8334 39.9993 55.8334Z" fill="#6E7046"/>
<path d="M45.8739 46.2225C45.668 46.2225 45.4622 46.175 45.2722 46.0484L40.3639 43.1192C39.1447 42.3909 38.2422 40.7917 38.2422 39.3825V32.8909C38.2422 32.2417 38.7805 31.7034 39.4297 31.7034C40.0789 31.7034 40.6172 32.2417 40.6172 32.8909V39.3825C40.6172 39.9525 41.0922 40.7917 41.583 41.0767L46.4914 44.0059C47.0614 44.3384 47.2355 45.0667 46.903 45.6367C46.6655 46.0167 46.2697 46.2225 45.8739 46.2225Z" fill="#6E7046"/>
</g>
<defs>
<filter id="filter0_d_16386_96577" x="-45" y="-46" width="110" height="110" filterUnits="userSpaceOnUse" color-interpolation-filters="sRGB">
<feFlood flood-opacity="0" result="BackgroundImageFix"/>
<feColorMatrix in="SourceAlpha" type="matrix" values="0 0 0 0 0 0 0 0 0 0 0 0 0 0 0 0 0 0 127 0" result="hardAlpha"/>
<feOffset dy="4"/>
<feGaussianBlur stdDeviation="2"/>
<feComposite in2="hardAlpha" operator="out"/>
<feColorMatrix type="matrix" values="0 0 0 0 0 0 0 0 0 0 0 0 0 0 0 0 0 0 0.03 0"/>
<feBlend mode="normal" in2="BackgroundImageFix" result="effect1_dropShadow_16386_96577"/>
<feBlend mode="normal" in="SourceGraphic" in2="effect1_dropShadow_16386_96577" result="shape"/>
</filter>
<linearGradient id="paint0_linear_16386_96577" x1="10" y1="-46" x2="10" y2="56" gradientUnits="userSpaceOnUse">
<stop stop-color="white"/>
<stop offset="1" stop-color="white" stop-opacity="0"/>
</linearGradient>
</defs>
</svg>
