<svg width="80" height="80" viewBox="0 0 80 80" fill="none" xmlns="http://www.w3.org/2000/svg">
<path d="M34 8.4641C37.7128 6.32051 42.2872 6.32051 46 8.4641L64.3109 19.0359C68.0237 21.1795 70.3109 25.141 70.3109 29.4282V50.5718C70.3109 54.859 68.0237 58.8205 64.3109 60.9641L46 71.5359C42.2872 73.6795 37.7128 73.6795 34 71.5359L15.6891 60.9641C11.9763 58.8205 9.68911 54.859 9.68911 50.5718V29.4282C9.68911 25.141 11.9763 21.1795 15.6891 19.0359L34 8.4641Z" fill="#BCDFE4"/>
<mask id="mask0_16361_96028" style="mask-type:alpha" maskUnits="userSpaceOnUse" x="9" y="6" width="62" height="68">
<path d="M34 8.4641C37.7128 6.32051 42.2872 6.32051 46 8.4641L64.3109 19.0359C68.0237 21.1795 70.3109 25.141 70.3109 29.4282V50.5718C70.3109 54.859 68.0237 58.8205 64.3109 60.9641L46 71.5359C42.2872 73.6795 37.7128 73.6795 34 71.5359L15.6891 60.9641C11.9763 58.8205 9.68911 54.859 9.68911 50.5718V29.4282C9.68911 25.141 11.9763 21.1795 15.6891 19.0359L34 8.4641Z" fill="#121F3E"/>
</mask>
<g mask="url(#mask0_16361_96028)">
<g opacity="0.3" filter="url(#filter0_d_16361_96028)">
<circle cx="10" cy="5" r="51" fill="url(#paint0_linear_16361_96028)" shape-rendering="crispEdges"/>
</g>
</g>
<g clip-path="url(#clip0_16361_96028)">
<path d="M42 22H38C30.4575 22 26.6863 22 24.3431 24.3431C22 26.6863 22 30.4575 22 38V42C22 49.5425 22 53.3137 24.3431 55.6569C26.6863 58 30.4575 58 38 58H42C49.5425 58 53.3137 58 55.6569 55.6569C58 53.3137 58 49.5425 58 42V38C58 30.4575 58 26.6863 55.6569 24.3431C53.3137 22 49.5425 22 42 22Z" fill="#F7DF1E"/>
<path d="M46.1825 50.1252C46.9077 51.3092 47.8511 52.1795 49.5197 52.1795C50.9214 52.1795 51.8168 51.479 51.8168 50.511C51.8168 49.351 50.8968 48.9401 49.3539 48.2652L48.5082 47.9024C46.0671 46.8624 44.4454 45.5595 44.4454 42.8052C44.4454 40.2681 46.3785 38.3367 49.3997 38.3367C51.5505 38.3367 53.0968 39.0852 54.2111 41.0452L51.5768 42.7367C50.9968 41.6967 50.3711 41.287 49.3997 41.287C48.4088 41.287 47.7808 41.9155 47.7808 42.7367C47.7808 43.7515 48.4094 44.1624 49.8608 44.791L50.7065 45.1532C53.5808 46.3858 55.2037 47.6424 55.2037 50.4675C55.2037 53.5132 52.8111 55.1818 49.5979 55.1818C46.4562 55.1818 44.4265 53.6847 43.4334 51.7224L46.1825 50.1252ZM34.2322 50.4184C34.7637 51.3612 35.2471 52.1584 36.4094 52.1584C37.5208 52.1584 38.2219 51.7235 38.2219 50.0327V38.5298H41.6048V50.0784C41.6048 53.5812 39.5511 55.1755 36.5534 55.1755C33.8448 55.1755 32.2762 53.7738 31.4785 52.0855L34.2322 50.4184Z" fill="black"/>
</g>
<defs>
<filter id="filter0_d_16361_96028" x="-45" y="-46" width="110" height="110" filterUnits="userSpaceOnUse" color-interpolation-filters="sRGB">
<feFlood flood-opacity="0" result="BackgroundImageFix"/>
<feColorMatrix in="SourceAlpha" type="matrix" values="0 0 0 0 0 0 0 0 0 0 0 0 0 0 0 0 0 0 127 0" result="hardAlpha"/>
<feOffset dy="4"/>
<feGaussianBlur stdDeviation="2"/>
<feComposite in2="hardAlpha" operator="out"/>
<feColorMatrix type="matrix" values="0 0 0 0 0 0 0 0 0 0 0 0 0 0 0 0 0 0 0.03 0"/>
<feBlend mode="normal" in2="BackgroundImageFix" result="effect1_dropShadow_16361_96028"/>
<feBlend mode="normal" in="SourceGraphic" in2="effect1_dropShadow_16361_96028" result="shape"/>
</filter>
<linearGradient id="paint0_linear_16361_96028" x1="10" y1="-46" x2="10" y2="56" gradientUnits="userSpaceOnUse">
<stop stop-color="white"/>
<stop offset="1" stop-color="white" stop-opacity="0"/>
</linearGradient>
<clipPath id="clip0_16361_96028">
<rect width="36" height="36" fill="white" transform="translate(22 22)"/>
</clipPath>
</defs>
</svg>
