<svg width="80" height="80" viewBox="0 0 80 80" fill="none" xmlns="http://www.w3.org/2000/svg">
<path d="M34 8.4641C37.7128 6.32051 42.2872 6.32051 46 8.4641L64.3109 19.0359C68.0237 21.1795 70.3109 25.141 70.3109 29.4282V50.5718C70.3109 54.859 68.0237 58.8205 64.3109 60.9641L46 71.5359C42.2872 73.6795 37.7128 73.6795 34 71.5359L15.6891 60.9641C11.9763 58.8205 9.68911 54.859 9.68911 50.5718V29.4282C9.68911 25.141 11.9763 21.1795 15.6891 19.0359L34 8.4641Z" fill="#CBF0F2"/>
<mask id="mask0_16386_96537" style="mask-type:alpha" maskUnits="userSpaceOnUse" x="9" y="6" width="62" height="68">
<path d="M34 8.4641C37.7128 6.32051 42.2872 6.32051 46 8.4641L64.3109 19.0359C68.0237 21.1795 70.3109 25.141 70.3109 29.4282V50.5718C70.3109 54.859 68.0237 58.8205 64.3109 60.9641L46 71.5359C42.2872 73.6795 37.7128 73.6795 34 71.5359L15.6891 60.9641C11.9763 58.8205 9.68911 54.859 9.68911 50.5718V29.4282C9.68911 25.141 11.9763 21.1795 15.6891 19.0359L34 8.4641Z" fill="#121F3E"/>
</mask>
<g mask="url(#mask0_16386_96537)">
<g opacity="0.3" filter="url(#filter0_d_16386_96537)">
<circle cx="10" cy="5" r="51" fill="url(#paint0_linear_16386_96537)" shape-rendering="crispEdges"/>
</g>
</g>
<path opacity="0.4" d="M41.5833 26.1458H32.0833C26.6683 26.1458 24.5625 28.2516 24.5625 33.6666V46.3333C24.5625 49.9749 26.5417 53.8541 32.0833 53.8541H41.5833C46.9983 53.8541 49.1042 51.7483 49.1042 46.3333V33.6666C49.1042 28.2516 46.9983 26.1458 41.5833 26.1458Z" fill="#4F9498"/>
<path d="M39.2091 39.0183C40.8531 39.0183 42.1858 37.6856 42.1858 36.0416C42.1858 34.3976 40.8531 33.0649 39.2091 33.0649C37.5651 33.0649 36.2324 34.3976 36.2324 36.0416C36.2324 37.6856 37.5651 39.0183 39.2091 39.0183Z" fill="#4F9498"/>
<path d="M55.2789 30.7691C54.6298 30.4366 53.2681 30.0566 51.4156 31.355L49.0723 33.0016C49.0881 33.2233 49.1039 33.4291 49.1039 33.6666V46.3333C49.1039 46.5708 49.0723 46.7766 49.0723 46.9983L51.4156 48.645C52.3973 49.3416 53.2523 49.5633 53.9331 49.5633C54.5189 49.5633 54.9781 49.405 55.2789 49.2466C55.9281 48.9141 57.0206 48.0116 57.0206 45.7475V34.2683C57.0206 32.0041 55.9281 31.1016 55.2789 30.7691Z" fill="#4F9498"/>
<defs>
<filter id="filter0_d_16386_96537" x="-45" y="-46" width="110" height="110" filterUnits="userSpaceOnUse" color-interpolation-filters="sRGB">
<feFlood flood-opacity="0" result="BackgroundImageFix"/>
<feColorMatrix in="SourceAlpha" type="matrix" values="0 0 0 0 0 0 0 0 0 0 0 0 0 0 0 0 0 0 127 0" result="hardAlpha"/>
<feOffset dy="4"/>
<feGaussianBlur stdDeviation="2"/>
<feComposite in2="hardAlpha" operator="out"/>
<feColorMatrix type="matrix" values="0 0 0 0 0 0 0 0 0 0 0 0 0 0 0 0 0 0 0.03 0"/>
<feBlend mode="normal" in2="BackgroundImageFix" result="effect1_dropShadow_16386_96537"/>
<feBlend mode="normal" in="SourceGraphic" in2="effect1_dropShadow_16386_96537" result="shape"/>
</filter>
<linearGradient id="paint0_linear_16386_96537" x1="10" y1="-46" x2="10" y2="56" gradientUnits="userSpaceOnUse">
<stop stop-color="white"/>
<stop offset="1" stop-color="white" stop-opacity="0"/>
</linearGradient>
</defs>
</svg>
