<svg width="80" height="80" viewBox="0 0 80 80" fill="none" xmlns="http://www.w3.org/2000/svg">
<path d="M34 8.4641C37.7128 6.32051 42.2872 6.32051 46 8.4641L64.3109 19.0359C68.0237 21.1795 70.3109 25.141 70.3109 29.4282V50.5718C70.3109 54.859 68.0237 58.8205 64.3109 60.9641L46 71.5359C42.2872 73.6795 37.7128 73.6795 34 71.5359L15.6891 60.9641C11.9763 58.8205 9.68911 54.859 9.68911 50.5718V29.4282C9.68911 25.141 11.9763 21.1795 15.6891 19.0359L34 8.4641Z" fill="#7CACBA"/>
<mask id="mask0_16386_96594" style="mask-type:alpha" maskUnits="userSpaceOnUse" x="9" y="6" width="62" height="68">
<path d="M34 8.4641C37.7128 6.32051 42.2872 6.32051 46 8.4641L64.3109 19.0359C68.0237 21.1795 70.3109 25.141 70.3109 29.4282V50.5718C70.3109 54.859 68.0237 58.8205 64.3109 60.9641L46 71.5359C42.2872 73.6795 37.7128 73.6795 34 71.5359L15.6891 60.9641C11.9763 58.8205 9.68911 54.859 9.68911 50.5718V29.4282C9.68911 25.141 11.9763 21.1795 15.6891 19.0359L34 8.4641Z" fill="#741B8B"/>
</mask>
<g mask="url(#mask0_16386_96594)">
<g opacity="0.3" filter="url(#filter0_d_16386_96594)">
<circle cx="10" cy="5" r="51" fill="url(#paint0_linear_16386_96594)" shape-rendering="crispEdges"/>
</g>
</g>
<g clip-path="url(#clip0_16386_96594)">
<path d="M44.5858 33.6126C43.8508 34.1026 41.5233 35.3626 41.1733 35.6951C40.9057 35.9538 40.548 36.0984 40.1758 36.0984C39.8036 36.0984 39.4459 35.9538 39.1783 35.6951C38.8283 35.4151 36.5008 34.0851 35.7658 33.6126C35.0308 33.1401 34.9783 32.3876 35.9058 32.0026C37.2615 31.4134 38.7239 31.1094 40.2021 31.1094C41.6802 31.1094 43.1426 31.4134 44.4983 32.0026C45.3558 32.3701 45.3908 33.0526 44.4983 33.5776M57.1333 46.3176C55.5251 42.676 53.2789 39.3513 50.5008 36.5001C49.6135 35.5785 48.9751 34.4463 48.6458 33.2101C48.4708 32.6326 48.3483 32.0376 48.2258 31.4601C48.0068 29.8703 47.5955 28.3131 47.0008 26.8226C46.4433 25.5113 45.5044 24.398 44.306 23.6272C43.1076 22.8564 41.7052 22.4637 40.2808 22.5001C38.8441 22.4474 37.4235 22.8172 36.1949 23.5637C34.9662 24.3102 33.9835 25.4007 33.3683 26.7001C33.0068 27.4466 32.7365 28.2339 32.5633 29.0451C32.2658 30.3751 32.0033 31.7576 31.6883 33.1051C31.4169 34.2549 30.8074 35.2972 29.9383 36.0976C27.1595 38.81 24.8633 41.9762 23.1483 45.4601C22.8925 45.9557 22.676 46.4706 22.5008 47.0001C22.1683 48.1551 23.0083 48.9601 24.2508 48.7501C25.0208 48.5926 25.7908 48.4351 26.5258 48.2076C27.2608 47.9801 27.5233 48.2076 27.6983 48.8201C28.2157 50.6302 29.1594 52.2899 30.4505 53.6601C31.7415 55.0303 33.3422 56.071 35.1183 56.6951C42.3283 59.4251 50.7458 55.5401 52.6183 48.6801C52.7408 48.2076 52.9158 48.0326 53.4408 48.2076C54.2458 48.4526 55.0683 48.6276 55.8908 48.8201C56.0714 48.8728 56.2614 48.8844 56.447 48.8541C56.6327 48.8238 56.8091 48.7523 56.9635 48.6449C57.1179 48.5375 57.2463 48.3969 57.3393 48.2334C57.4323 48.0699 57.4875 47.8877 57.5008 47.7001C57.5215 47.257 57.4249 46.8163 57.2208 46.4226" fill="#51727C"/>
</g>
<defs>
<filter id="filter0_d_16386_96594" x="-45" y="-46" width="110" height="110" filterUnits="userSpaceOnUse" color-interpolation-filters="sRGB">
<feFlood flood-opacity="0" result="BackgroundImageFix"/>
<feColorMatrix in="SourceAlpha" type="matrix" values="0 0 0 0 0 0 0 0 0 0 0 0 0 0 0 0 0 0 127 0" result="hardAlpha"/>
<feOffset dy="4"/>
<feGaussianBlur stdDeviation="2"/>
<feComposite in2="hardAlpha" operator="out"/>
<feColorMatrix type="matrix" values="0 0 0 0 0 0 0 0 0 0 0 0 0 0 0 0 0 0 0.03 0"/>
<feBlend mode="normal" in2="BackgroundImageFix" result="effect1_dropShadow_16386_96594"/>
<feBlend mode="normal" in="SourceGraphic" in2="effect1_dropShadow_16386_96594" result="shape"/>
</filter>
<linearGradient id="paint0_linear_16386_96594" x1="10" y1="-46" x2="10" y2="56" gradientUnits="userSpaceOnUse">
<stop stop-color="white"/>
<stop offset="1" stop-color="white" stop-opacity="0"/>
</linearGradient>
<clipPath id="clip0_16386_96594">
<rect width="42" height="42" fill="white" transform="translate(19 19)"/>
</clipPath>
</defs>
</svg>
