<svg width="80" height="80" viewBox="0 0 80 80" fill="none" xmlns="http://www.w3.org/2000/svg">
<path d="M34 8.4641C37.7128 6.32051 42.2872 6.32051 46 8.4641L64.3109 19.0359C68.0237 21.1795 70.3109 25.141 70.3109 29.4282V50.5718C70.3109 54.859 68.0237 58.8205 64.3109 60.9641L46 71.5359C42.2872 73.6795 37.7128 73.6795 34 71.5359L15.6891 60.9641C11.9763 58.8205 9.68911 54.859 9.68911 50.5718V29.4282C9.68911 25.141 11.9763 21.1795 15.6891 19.0359L34 8.4641Z" fill="#C8B5D6"/>
<mask id="mask0_16366_96156" style="mask-type:alpha" maskUnits="userSpaceOnUse" x="9" y="6" width="62" height="68">
<path d="M34 8.4641C37.7128 6.32051 42.2872 6.32051 46 8.4641L64.3109 19.0359C68.0237 21.1795 70.3109 25.141 70.3109 29.4282V50.5718C70.3109 54.859 68.0237 58.8205 64.3109 60.9641L46 71.5359C42.2872 73.6795 37.7128 73.6795 34 71.5359L15.6891 60.9641C11.9763 58.8205 9.68911 54.859 9.68911 50.5718V29.4282C9.68911 25.141 11.9763 21.1795 15.6891 19.0359L34 8.4641Z" fill="#E8B5BD"/>
</mask>
<g mask="url(#mask0_16366_96156)">
<path d="M54.3134 42.0266L52.8568 40.6016L40.5859 52.8566L42.0584 54.3291C43.2934 55.5641 44.5759 56.1816 45.8426 56.1816C47.1093 56.1816 48.3918 55.5641 49.6268 54.3291L54.3134 49.6424C56.8309 47.1091 56.8309 44.5599 54.3134 42.0266Z" fill="#906DAA"/>
<path d="M37.9263 25.6393C35.4404 23.1534 32.8279 23.1534 30.3421 25.6393L25.6396 30.3259C23.1696 32.8118 23.1696 35.4243 25.6396 37.9101L27.0963 39.3668L39.3671 27.0959L37.9263 25.6393Z" fill="#906DAA"/>
<path opacity="0.4" d="M55.5319 27.2384C53.4578 32.4159 48.7236 39.1767 44.2111 43.5942C43.5619 39.5092 40.3003 36.3109 36.1836 35.7409C40.6169 31.2126 47.4253 26.4151 52.6186 24.3251C53.5369 23.9767 54.4553 24.2459 55.0253 24.8159C55.6269 25.4176 55.9119 26.3201 55.5319 27.2384Z" fill="#906DAA"/>
<path d="M44.2119 43.5941C43.4202 44.3699 42.6286 45.0824 41.8686 45.6841L38.7494 48.1857C38.3536 48.4707 37.9577 48.7082 37.5144 48.8982C37.5144 48.5974 37.4827 48.2966 37.4511 47.9799C37.2769 46.6657 36.6752 45.4149 35.6144 44.3541C34.5219 43.2774 33.2236 42.6599 31.8777 42.4857C31.5611 42.4541 31.2286 42.4382 30.9277 42.4541C31.1019 41.9632 31.3711 41.5041 31.7036 41.1241L34.1736 38.0049C34.7594 37.2607 35.4402 36.5007 36.1844 35.7407C40.3011 36.3107 43.5627 39.5091 44.2119 43.5941Z" fill="#906DAA"/>
<path opacity="0.4" d="M37.5151 48.8984C37.5151 50.64 36.8501 52.3025 35.5834 53.5534C34.6176 54.535 33.3193 55.2 31.7359 55.39L27.8568 55.8175C25.7351 56.055 23.9143 54.2342 24.1518 52.0967L24.5793 48.2017C24.9593 44.7342 27.8568 42.5175 30.9284 42.4542C31.2293 42.4384 31.5618 42.4542 31.8784 42.4859C33.2243 42.66 34.5226 43.2775 35.6151 44.3542C36.6759 45.415 37.2776 46.6659 37.4518 47.98C37.4834 48.2967 37.5151 48.5975 37.5151 48.8984Z" fill="#906DAA"/>
<g opacity="0.3" filter="url(#filter0_d_16366_96156)">
<circle cx="10" cy="5" r="51" fill="url(#paint0_linear_16366_96156)" shape-rendering="crispEdges"/>
</g>
</g>
<defs>
<filter id="filter0_d_16366_96156" x="-45" y="-46" width="110" height="110" filterUnits="userSpaceOnUse" color-interpolation-filters="sRGB">
<feFlood flood-opacity="0" result="BackgroundImageFix"/>
<feColorMatrix in="SourceAlpha" type="matrix" values="0 0 0 0 0 0 0 0 0 0 0 0 0 0 0 0 0 0 127 0" result="hardAlpha"/>
<feOffset dy="4"/>
<feGaussianBlur stdDeviation="2"/>
<feComposite in2="hardAlpha" operator="out"/>
<feColorMatrix type="matrix" values="0 0 0 0 0 0 0 0 0 0 0 0 0 0 0 0 0 0 0.03 0"/>
<feBlend mode="normal" in2="BackgroundImageFix" result="effect1_dropShadow_16366_96156"/>
<feBlend mode="normal" in="SourceGraphic" in2="effect1_dropShadow_16366_96156" result="shape"/>
</filter>
<linearGradient id="paint0_linear_16366_96156" x1="10" y1="-46" x2="10" y2="56" gradientUnits="userSpaceOnUse">
<stop stop-color="white"/>
<stop offset="1" stop-color="white" stop-opacity="0"/>
</linearGradient>
</defs>
</svg>
