<svg width="80" height="80" viewBox="0 0 80 80" fill="none" xmlns="http://www.w3.org/2000/svg">
<path d="M34 8.4641C37.7128 6.32051 42.2872 6.32051 46 8.4641L64.3109 19.0359C68.0237 21.1795 70.3109 25.141 70.3109 29.4282V50.5718C70.3109 54.859 68.0237 58.8205 64.3109 60.9641L46 71.5359C42.2872 73.6795 37.7128 73.6795 34 71.5359L15.6891 60.9641C11.9763 58.8205 9.68911 54.859 9.68911 50.5718V29.4282C9.68911 25.141 11.9763 21.1795 15.6891 19.0359L34 8.4641Z" fill="#A3C6E3"/>
<mask id="mask0_16396_96612" style="mask-type:alpha" maskUnits="userSpaceOnUse" x="9" y="6" width="62" height="68">
<path d="M34 8.4641C37.7128 6.32051 42.2872 6.32051 46 8.4641L64.3109 19.0359C68.0237 21.1795 70.3109 25.141 70.3109 29.4282V50.5718C70.3109 54.859 68.0237 58.8205 64.3109 60.9641L46 71.5359C42.2872 73.6795 37.7128 73.6795 34 71.5359L15.6891 60.9641C11.9763 58.8205 9.68911 54.859 9.68911 50.5718V29.4282C9.68911 25.141 11.9763 21.1795 15.6891 19.0359L34 8.4641Z" fill="#121F3E"/>
</mask>
<g mask="url(#mask0_16396_96612)">
<g opacity="0.3" filter="url(#filter0_d_16396_96612)">
<circle cx="10" cy="5" r="51" fill="url(#paint0_linear_16396_96612)" shape-rendering="crispEdges"/>
</g>
</g>
<g clip-path="url(#clip0_16396_96612)">
<path d="M39.9388 22C31.4392 22 31.3479 25.2992 31.3479 25.9783C31.3479 27.0086 31.3479 30.1 31.3479 30.1H40.1024V31.3374C40.1024 31.3374 30.9872 31.3374 27.8706 31.3374C25.2691 31.3374 22 32.9191 22 39.9283C22 46.3668 24.5501 48.8567 27.1238 48.8567C27.888 48.8567 30.1818 48.8567 30.1818 48.8567C30.1818 48.8567 30.1818 45.6608 30.1818 44.5612C30.1818 42.7641 31.0723 39.4374 35.2238 39.4374C40.4307 39.4374 41.7597 39.4374 43.9067 39.4374C45.1837 39.4374 48.785 38.8824 48.785 34.7227C48.785 30.3203 48.785 28.8678 48.785 26.7965C48.7853 25.7646 48.6089 22 39.9388 22ZM35.1115 24.7717C35.9827 24.7717 36.6867 25.4753 36.6867 26.3468C36.6867 27.2177 35.9827 27.922 35.1115 27.922C34.2403 27.922 33.5364 27.218 33.5364 26.3468C33.5364 25.4753 34.2403 24.7717 35.1115 24.7717Z" fill="url(#paint1_linear_16396_96612)"/>
<path d="M40.0614 58C48.557 58 48.6627 54.6385 48.6627 54.0216C48.6627 52.9914 48.6627 49.9 48.6627 49.9H39.8977V48.6625C39.8977 48.6625 49.0718 48.6625 52.1295 48.6625C54.7507 48.6625 58.0002 47.0412 58.0002 40.0716C58.0002 32.439 54.5514 31.1433 52.8764 31.1433C52.1119 31.1433 49.8183 31.1433 49.8183 31.1433C49.8183 31.1433 49.8183 34.4867 49.8183 35.4388C49.8183 37.2358 48.9573 40.5625 44.7764 40.5625C39.5695 40.5625 38.4024 40.5625 36.0932 40.5625C34.8194 40.5625 31.2148 41.1831 31.2148 45.2772C31.2148 50.0145 31.2148 51.2549 31.2148 53.2035C31.2148 54.9151 32.2608 58 40.0614 58ZM44.889 55.2283C44.0178 55.2283 43.3138 54.5243 43.3138 53.6531C43.3138 52.7819 44.0174 52.078 44.889 52.078C45.7598 52.078 46.4641 52.7819 46.4641 53.6531C46.4641 54.5243 45.7598 55.2283 44.889 55.2283Z" fill="url(#paint2_linear_16396_96612)"/>
</g>
<defs>
<filter id="filter0_d_16396_96612" x="-45" y="-46" width="110" height="110" filterUnits="userSpaceOnUse" color-interpolation-filters="sRGB">
<feFlood flood-opacity="0" result="BackgroundImageFix"/>
<feColorMatrix in="SourceAlpha" type="matrix" values="0 0 0 0 0 0 0 0 0 0 0 0 0 0 0 0 0 0 127 0" result="hardAlpha"/>
<feOffset dy="4"/>
<feGaussianBlur stdDeviation="2"/>
<feComposite in2="hardAlpha" operator="out"/>
<feColorMatrix type="matrix" values="0 0 0 0 0 0 0 0 0 0 0 0 0 0 0 0 0 0 0.03 0"/>
<feBlend mode="normal" in2="BackgroundImageFix" result="effect1_dropShadow_16396_96612"/>
<feBlend mode="normal" in="SourceGraphic" in2="effect1_dropShadow_16396_96612" result="shape"/>
</filter>
<linearGradient id="paint0_linear_16396_96612" x1="10" y1="-46" x2="10" y2="56" gradientUnits="userSpaceOnUse">
<stop stop-color="white"/>
<stop offset="1" stop-color="white" stop-opacity="0"/>
</linearGradient>
<linearGradient id="paint1_linear_16396_96612" x1="25.3737" y1="25.2158" x2="43.2681" y2="43.1702" gradientUnits="userSpaceOnUse">
<stop stop-color="#387EB8"/>
<stop offset="1" stop-color="#366994"/>
</linearGradient>
<linearGradient id="paint2_linear_16396_96612" x1="36.2486" y1="36.687" x2="55.434" y2="55.0676" gradientUnits="userSpaceOnUse">
<stop stop-color="#FFE052"/>
<stop offset="1" stop-color="#FFC331"/>
</linearGradient>
<clipPath id="clip0_16396_96612">
<rect width="36" height="36" fill="white" transform="translate(22 22)"/>
</clipPath>
</defs>
</svg>
