<svg width="80" height="80" viewBox="0 0 80 80" fill="none" xmlns="http://www.w3.org/2000/svg">
<path d="M34 8.4641C37.7128 6.32051 42.2872 6.32051 46 8.4641L64.3109 19.0359C68.0237 21.1795 70.3109 25.141 70.3109 29.4282V50.5718C70.3109 54.859 68.0237 58.8205 64.3109 60.9641L46 71.5359C42.2872 73.6795 37.7128 73.6795 34 71.5359L15.6891 60.9641C11.9763 58.8205 9.68911 54.859 9.68911 50.5718V29.4282C9.68911 25.141 11.9763 21.1795 15.6891 19.0359L34 8.4641Z" fill="#BCCEE4"/>
<mask id="mask0_16386_96562" style="mask-type:alpha" maskUnits="userSpaceOnUse" x="9" y="6" width="62" height="68">
<path d="M34 8.4641C37.7128 6.32051 42.2872 6.32051 46 8.4641L64.3109 19.0359C68.0237 21.1795 70.3109 25.141 70.3109 29.4282V50.5718C70.3109 54.859 68.0237 58.8205 64.3109 60.9641L46 71.5359C42.2872 73.6795 37.7128 73.6795 34 71.5359L15.6891 60.9641C11.9763 58.8205 9.68911 54.859 9.68911 50.5718V29.4282C9.68911 25.141 11.9763 21.1795 15.6891 19.0359L34 8.4641Z" fill="#121F3E"/>
</mask>
<g mask="url(#mask0_16386_96562)">
<g opacity="0.3" filter="url(#filter0_d_16386_96562)">
<circle cx="10" cy="5" r="51" fill="url(#paint0_linear_16386_96562)" shape-rendering="crispEdges"/>
</g>
</g>
<path opacity="0.4" d="M48.2012 29.3125C45.4937 29.3125 42.2637 30.3417 42.2637 35.25V44.75C42.2637 49.6583 45.4937 50.6875 48.2012 50.6875C50.9087 50.6875 54.1387 49.6583 54.1387 44.75V35.25C54.1387 30.3417 50.9087 29.3125 48.2012 29.3125Z" fill="#5B7089"/>
<path opacity="0.4" d="M31.7988 29.3125C29.0913 29.3125 25.8613 30.3417 25.8613 35.25V44.75C25.8613 49.6583 29.0913 50.6875 31.7988 50.6875C34.5063 50.6875 37.7363 49.6583 37.7363 44.75V35.25C37.7363 30.3417 34.5063 29.3125 31.7988 29.3125Z" fill="#5B7089"/>
<path d="M42.2647 38.8125H37.7363V41.1875H42.2647V38.8125Z" fill="#5B7089"/>
<path d="M56.625 45.1459C55.9758 45.1459 55.4375 44.6076 55.4375 43.9584V36.0417C55.4375 35.3926 55.9758 34.8542 56.625 34.8542C57.2742 34.8542 57.8125 35.3926 57.8125 36.0417V43.9584C57.8125 44.6076 57.2742 45.1459 56.625 45.1459Z" fill="#5B7089"/>
<path d="M23.375 45.1459C22.7258 45.1459 22.1875 44.6076 22.1875 43.9584V36.0417C22.1875 35.3926 22.7258 34.8542 23.375 34.8542C24.0242 34.8542 24.5625 35.3926 24.5625 36.0417V43.9584C24.5625 44.6076 24.0242 45.1459 23.375 45.1459Z" fill="#5B7089"/>
<defs>
<filter id="filter0_d_16386_96562" x="-45" y="-46" width="110" height="110" filterUnits="userSpaceOnUse" color-interpolation-filters="sRGB">
<feFlood flood-opacity="0" result="BackgroundImageFix"/>
<feColorMatrix in="SourceAlpha" type="matrix" values="0 0 0 0 0 0 0 0 0 0 0 0 0 0 0 0 0 0 127 0" result="hardAlpha"/>
<feOffset dy="4"/>
<feGaussianBlur stdDeviation="2"/>
<feComposite in2="hardAlpha" operator="out"/>
<feColorMatrix type="matrix" values="0 0 0 0 0 0 0 0 0 0 0 0 0 0 0 0 0 0 0.03 0"/>
<feBlend mode="normal" in2="BackgroundImageFix" result="effect1_dropShadow_16386_96562"/>
<feBlend mode="normal" in="SourceGraphic" in2="effect1_dropShadow_16386_96562" result="shape"/>
</filter>
<linearGradient id="paint0_linear_16386_96562" x1="10" y1="-46" x2="10" y2="56" gradientUnits="userSpaceOnUse">
<stop stop-color="white"/>
<stop offset="1" stop-color="white" stop-opacity="0"/>
</linearGradient>
</defs>
</svg>
