<svg width="80" height="80" viewBox="0 0 80 80" fill="none" xmlns="http://www.w3.org/2000/svg">
<path d="M34 8.4641C37.7128 6.32051 42.2872 6.32051 46 8.4641L64.3109 19.0359C68.0237 21.1795 70.3109 25.141 70.3109 29.4282V50.5718C70.3109 54.859 68.0237 58.8205 64.3109 60.9641L46 71.5359C42.2872 73.6795 37.7128 73.6795 34 71.5359L15.6891 60.9641C11.9763 58.8205 9.68911 54.859 9.68911 50.5718V29.4282C9.68911 25.141 11.9763 21.1795 15.6891 19.0359L34 8.4641Z" fill="#252A37"/>
<mask id="mask0_16363_96056" style="mask-type:alpha" maskUnits="userSpaceOnUse" x="9" y="6" width="62" height="68">
<path d="M34 8.4641C37.7128 6.32051 42.2872 6.32051 46 8.4641L64.3109 19.0359C68.0237 21.1795 70.3109 25.141 70.3109 29.4282V50.5718C70.3109 54.859 68.0237 58.8205 64.3109 60.9641L46 71.5359C42.2872 73.6795 37.7128 73.6795 34 71.5359L15.6891 60.9641C11.9763 58.8205 9.68911 54.859 9.68911 50.5718V29.4282C9.68911 25.141 11.9763 21.1795 15.6891 19.0359L34 8.4641Z" fill="#121F3E"/>
</mask>
<g mask="url(#mask0_16363_96056)">
<g opacity="0.3" filter="url(#filter0_d_16363_96056)">
<circle cx="10" cy="5" r="51" fill="url(#paint0_linear_16363_96056)" shape-rendering="crispEdges"/>
</g>
</g>
<path d="M41.375 40C41.375 36.7775 43.9225 34.1675 47.0625 34.1675C50.205 34.1675 52.75 36.775 52.75 40C52.75 43.2225 50.205 45.8325 47.0625 45.8325C43.925 45.8325 41.375 43.225 41.375 40Z" fill="#1ABCFE"/>
<path d="M30 51.6675C30 48.445 32.5475 45.8325 35.6875 45.8325H41.375V51.6675C41.375 54.8875 38.8275 57.5 35.6875 57.5C32.5475 57.5 30 54.8875 30 51.6675Z" fill="#0ACF83"/>
<path d="M41.375 22.5V34.1675H47.0625C50.205 34.1675 52.75 31.555 52.75 28.3325C52.75 25.1125 50.205 22.5 47.0625 22.5H41.375Z" fill="#FF7262"/>
<path d="M30 28.3325C30 31.555 32.5475 34.1675 35.6875 34.1675H41.375V22.5H35.6875C32.5475 22.5 30 25.1125 30 28.3325Z" fill="#F24E1E"/>
<path d="M30 40C30 43.2225 32.5475 45.8325 35.6875 45.8325H41.375V34.1675H35.6875C32.5475 34.1675 30 36.775 30 40Z" fill="#A259FF"/>
<defs>
<filter id="filter0_d_16363_96056" x="-45" y="-46" width="110" height="110" filterUnits="userSpaceOnUse" color-interpolation-filters="sRGB">
<feFlood flood-opacity="0" result="BackgroundImageFix"/>
<feColorMatrix in="SourceAlpha" type="matrix" values="0 0 0 0 0 0 0 0 0 0 0 0 0 0 0 0 0 0 127 0" result="hardAlpha"/>
<feOffset dy="4"/>
<feGaussianBlur stdDeviation="2"/>
<feComposite in2="hardAlpha" operator="out"/>
<feColorMatrix type="matrix" values="0 0 0 0 0 0 0 0 0 0 0 0 0 0 0 0 0 0 0.03 0"/>
<feBlend mode="normal" in2="BackgroundImageFix" result="effect1_dropShadow_16363_96056"/>
<feBlend mode="normal" in="SourceGraphic" in2="effect1_dropShadow_16363_96056" result="shape"/>
</filter>
<linearGradient id="paint0_linear_16363_96056" x1="10" y1="-46" x2="10" y2="56" gradientUnits="userSpaceOnUse">
<stop stop-color="white"/>
<stop offset="1" stop-color="white" stop-opacity="0"/>
</linearGradient>
</defs>
</svg>
