<svg width="32" height="32" viewBox="0 0 32 32" fill="none" xmlns="http://www.w3.org/2000/svg">
<path opacity="0.4" d="M24.5055 17.12V23.6933C24.5055 25.3867 23.1855 27.2 21.5989 27.7333L17.3455 29.1467C16.5989 29.4 15.3855 29.4 14.6522 29.1467L10.3989 27.7333C8.79885 27.2 7.49219 25.3867 7.49219 23.6933L7.50552 17.12L13.3989 20.96C14.8389 21.9067 17.2122 21.9067 18.6522 20.96L24.5055 17.12Z" fill="#FFA200"/>
<path d="M26.6381 8.61333L18.6514 3.37333C17.2114 2.42666 14.8381 2.42666 13.3981 3.37333L5.37141 8.61333C2.79807 10.28 2.79807 14.0533 5.37141 15.7333L7.50474 17.12L13.3981 20.96C14.8381 21.9067 17.2114 21.9067 18.6514 20.96L24.5047 17.12L26.3314 15.92V20C26.3314 20.5467 26.7847 21 27.3314 21C27.8781 21 28.3314 20.5467 28.3314 20V13.44C28.8647 11.72 28.3181 9.72 26.6381 8.61333Z" fill="#FFA200"/>
</svg>
