<svg width="32" height="32" viewBox="0 0 32 32" fill="none" xmlns="http://www.w3.org/2000/svg">
<path opacity="0.4" d="M13.1073 7.4267L8.48061 10.24L6.37394 6.77338C5.60061 5.50672 6.00062 3.82667 7.28062 3.05333C8.54729 2.28 10.2273 2.67999 11.0006 3.95999L13.1073 7.4267Z" fill="#EB8DCB"/>
<path opacity="0.4" d="M25.6942 23.52L25.6809 23.5334L23.9475 24.5867L22.2142 25.64L20.4809 26.6934L18.7475 27.7467L17.0142 28.8H17.0009C15.2542 29.8667 13.0942 29.2267 12.2008 27.4L9.42753 21.7467C8.4542 19.7734 8.76086 17.3733 10.2542 15.7333C10.6009 15.36 11.0009 15.0133 11.4675 14.7333L15.7475 12.1333C16.2275 11.8533 16.7075 11.6401 17.2008 11.5201C19.3342 10.9334 21.6008 11.7601 22.9075 13.5334L26.6542 18.6C27.8675 20.2667 27.4409 22.4667 25.6942 23.52Z" fill="#EB8DCB"/>
<path d="M17.201 11.5466C16.7077 11.6666 16.2277 11.8667 15.7477 12.16L11.4677 14.76C10.9877 15.04 10.601 15.3867 10.2544 15.76C10.241 15.76 10.241 15.7467 10.241 15.7467L8.04104 12.1067C7.65437 11.4667 7.85437 10.6267 8.48104 10.2534L13.1077 7.44004C13.7477 7.05337 14.5744 7.25332 14.961 7.87998L17.1744 11.52C17.1877 11.5334 17.201 11.5333 17.201 11.5466Z" fill="#EB8DCB"/>
<path d="M22.2151 25.64L20.4818 26.6934L18.2551 23.0267C17.9751 22.5467 18.1218 21.9333 18.5884 21.6266C19.0818 21.3466 19.6951 21.4933 19.9885 21.96L22.2151 25.64Z" fill="#EB8DCB"/>
<path d="M18.7476 27.76L17.0143 28.8133L14.7876 25.1466C14.4943 24.6666 14.6409 24.0533 15.1209 23.7466C15.6009 23.4666 16.2143 23.6133 16.5209 24.08L18.7476 27.76Z" fill="#EB8DCB"/>
<path d="M25.68 23.5334L23.9466 24.5867L21.72 20.92C21.44 20.44 21.5866 19.8267 22.0533 19.52C22.5466 19.24 23.16 19.3867 23.4533 19.8533L25.68 23.5334Z" fill="#EB8DCB"/>
</svg>
