<svg width="32" height="32" viewBox="0 0 32 32" fill="none" xmlns="http://www.w3.org/2000/svg">
<path d="M28.8935 9.2667C28.0402 6.37337 25.6269 3.96003 22.7335 3.1067C20.5335 2.4667 19.0135 2.52003 17.9602 3.3067C16.6935 4.25337 16.5469 5.96003 16.5469 7.17337V10.4934C16.5469 13.7734 18.0402 15.44 20.9735 15.44H24.8002C26.0002 15.44 27.7202 15.2934 28.6669 14.0267C29.4802 12.9867 29.5469 11.4667 28.8935 9.2667Z" fill="#0170FF"/>
<path opacity="0.4" d="M25.2152 17.8133C24.8685 17.4133 24.3618 17.1867 23.8418 17.1867H19.0685C16.7218 17.1867 14.8151 15.28 14.8151 12.9333V8.16002C14.8151 7.64002 14.5885 7.13335 14.1885 6.78668C13.8018 6.44002 13.2685 6.28002 12.7618 6.34668C9.62848 6.74668 6.74848 8.46668 4.86848 11.0534C2.97515 13.6534 2.28182 16.8267 2.88182 20C3.74848 24.5867 7.41515 28.2534 12.0152 29.12C12.7485 29.2667 13.4818 29.3334 14.2151 29.3334C16.6285 29.3334 18.9618 28.5867 20.9485 27.1334C23.5351 25.2534 25.2552 22.3734 25.6551 19.24C25.7218 18.72 25.5618 18.2 25.2152 17.8133Z" fill="#0170FF"/>
</svg>
