<svg width="32" height="32" viewBox="0 0 32 32" fill="none" xmlns="http://www.w3.org/2000/svg">
<path opacity="0.4" d="M24.6252 22.44L25.1452 26.6533C25.2785 27.76 24.0918 28.5333 23.1452 27.96L17.5585 24.64C16.9452 24.64 16.3452 24.6 15.7585 24.52C16.7452 23.36 17.3318 21.8933 17.3318 20.3067C17.3318 16.52 14.0518 13.4534 9.99849 13.4534C8.45183 13.4534 7.02517 13.8934 5.8385 14.6667C5.7985 14.3334 5.78516 14 5.78516 13.6533C5.78516 7.58667 11.0518 2.66669 17.5585 2.66669C24.0652 2.66669 29.3318 7.58667 29.3318 13.6533C29.3318 17.2533 27.4785 20.44 24.6252 22.44Z" fill="#0170FF"/>
<path d="M17.3346 20.3066C17.3346 21.8933 16.748 23.36 15.7613 24.52C14.4413 26.12 12.348 27.1466 10.0013 27.1466L6.5213 29.2133C5.93463 29.5733 5.18796 29.08 5.26796 28.4L5.6013 25.7734C3.81463 24.5334 2.66797 22.5466 2.66797 20.3066C2.66797 17.96 3.92131 15.8933 5.84131 14.6667C7.02798 13.8933 8.45464 13.4534 10.0013 13.4534C14.0546 13.4534 17.3346 16.52 17.3346 20.3066Z" fill="#0170FF"/>
</svg>
