<svg width="32" height="32" viewBox="0 0 32 32" fill="none" xmlns="http://www.w3.org/2000/svg">
<path d="M29.3346 11.5867C29.3346 13.1734 29.0813 14.64 28.6413 16H3.3613C2.9213 14.64 2.66797 13.1734 2.66797 11.5867C2.66797 7.46669 5.98797 4.13336 10.0813 4.13336C12.4946 4.13336 14.6546 5.3067 16.0013 7.10669C17.348 5.3067 19.508 4.13336 21.9213 4.13336C26.0146 4.13336 29.3346 7.46669 29.3346 11.5867Z" fill="#FF9340"/>
<path opacity="0.4" d="M28.6394 16C26.5327 22.6667 20.0394 26.6533 16.826 27.7467C16.3727 27.9067 15.626 27.9067 15.1727 27.7467C11.9594 26.6533 5.46604 22.6667 3.35938 16H28.6394Z" fill="#FF9340"/>
</svg>
