<svg width="32" height="32" viewBox="0 0 32 32" fill="none" xmlns="http://www.w3.org/2000/svg">
<path opacity="0.4" d="M28 9.33335V22.6667C28 26.6667 26 29.3334 21.3333 29.3334H12C13.6133 28.12 14.6667 26.1734 14.6667 24C14.6667 20.32 11.68 17.3334 8 17.3334C6.49333 17.3334 5.10667 17.8267 4 18.6667V9.33335C4 5.33335 6 2.66669 10.6667 2.66669H21.3333C26 2.66669 28 5.33335 28 9.33335Z" fill="#EF9D2D"/>
<path fill-rule="evenodd" clip-rule="evenodd" d="M19.332 5C19.8843 5 20.332 5.44772 20.332 6V8.66667C20.332 9.58105 21.0843 10.3333 21.9987 10.3333H24.6654C25.2176 10.3333 25.6654 10.781 25.6654 11.3333C25.6654 11.8856 25.2176 12.3333 24.6654 12.3333H21.9987C19.9797 12.3333 18.332 10.6856 18.332 8.66667V6C18.332 5.44772 18.7797 5 19.332 5Z" fill="#EF9D2D"/>
<path d="M7.9987 17.3333C4.3187 17.3333 1.33203 20.32 1.33203 24C1.33203 27.68 4.3187 30.6666 7.9987 30.6666C11.6787 30.6666 14.6654 27.68 14.6654 24C14.6654 20.32 11.6787 17.3333 7.9987 17.3333ZM6.8787 25.6933C7.21204 26.0267 7.21204 26.5733 6.8787 26.92C6.70537 27.0933 6.49205 27.1733 6.26538 27.1733C6.03871 27.1733 5.82535 27.0933 5.65202 26.92L3.34538 24.6133C3.01204 24.28 3.01204 23.7333 3.34538 23.3866L5.65202 21.08C5.98535 20.7466 6.53204 20.7466 6.8787 21.08C7.21204 21.4133 7.21204 21.96 6.8787 22.3066L5.18538 24L6.8787 25.6933ZM12.6387 24.6133L10.332 26.92C10.1587 27.0933 9.94538 27.1733 9.71871 27.1733C9.49204 27.1733 9.27868 27.0933 9.10535 26.92C8.77201 26.5866 8.77201 26.04 9.10535 25.6933L10.7987 24L9.10535 22.3066C8.77201 21.9733 8.77201 21.4266 9.10535 21.08C9.43868 20.7466 9.98536 20.7466 10.332 21.08L12.6387 23.3866C12.972 23.7333 12.972 24.2667 12.6387 24.6133Z" fill="#EF9D2D"/>
</svg>
