<svg width="32" height="32" viewBox="0 0 32 32" fill="none" xmlns="http://www.w3.org/2000/svg">
<path d="M13.5053 20.0133L12.132 18.64L13.452 17.32C13.8386 16.9333 13.8386 16.2933 13.452 15.9066C13.0653 15.52 12.4253 15.52 12.0386 15.9066L10.7186 17.2266L9.43865 15.9466C9.05198 15.56 8.41198 15.56 8.02531 15.9466C7.63865 16.3333 7.63865 16.9733 8.02531 17.36L9.30531 18.64L7.98531 19.96C7.59865 20.3466 7.59865 20.9866 7.98531 21.3733C8.18531 21.5733 8.43865 21.6666 8.69198 21.6666C8.94531 21.6666 9.19865 21.5733 9.39865 21.3733L10.7186 20.0533L12.092 21.4266C12.292 21.6266 12.5453 21.72 12.7986 21.72C13.052 21.72 13.3053 21.6266 13.5053 21.4266C13.892 21.04 13.892 20.4 13.5053 20.0133Z" fill="#EF9D2D"/>
<path d="M18.0537 20C17.3204 20 16.707 19.4 16.707 18.6666C16.707 17.9333 17.2937 17.3333 18.027 17.3333H18.0537C18.787 17.3333 19.387 17.9333 19.387 18.6666C19.387 19.4 18.8004 20 18.0537 20Z" fill="#EF9D2D"/>
<path d="M23.3076 20C22.5743 20 21.9609 19.4 21.9609 18.6666C21.9609 17.9333 22.5476 17.3333 23.2809 17.3333H23.3076C24.0409 17.3333 24.6409 17.9333 24.6409 18.6666C24.6409 19.4 24.0543 20 23.3076 20Z" fill="#EF9D2D"/>
<path d="M20.6654 22.6267C19.932 22.6267 19.332 22.04 19.332 21.3067V21.28C19.332 20.5467 19.932 19.9467 20.6654 19.9467C21.3987 19.9467 21.9987 20.5467 21.9987 21.28C21.9987 22.0133 21.412 22.6267 20.6654 22.6267Z" fill="#EF9D2D"/>
<path d="M20.6654 17.3734C19.932 17.3734 19.332 16.7867 19.332 16.0534V16.0267C19.332 15.2934 19.932 14.6934 20.6654 14.6934C21.3987 14.6934 21.9987 15.2934 21.9987 16.0267C21.9987 16.76 21.412 17.3734 20.6654 17.3734Z" fill="#EF9D2D"/>
<path opacity="0.4" d="M29.3346 14.76V22.2C29.3346 26.1333 26.1346 29.3333 22.2013 29.3333H9.8013C5.86797 29.3333 2.66797 26.1333 2.66797 22.2V14.76C2.66797 10.8266 5.86797 7.62665 9.8013 7.62665H22.2013C26.1346 7.62665 29.3346 10.8266 29.3346 14.76Z" fill="#EF9D2D"/>
<path d="M18.1858 3.61335L18.1725 4.86669C18.1592 6.04002 17.1858 7.01335 15.9992 7.01335C15.7992 7.01335 15.6792 7.14669 15.6792 7.32002C15.6792 7.49335 15.8125 7.62669 15.9858 7.62669H13.8392C13.8258 7.53335 13.8125 7.42669 13.8125 7.32002C13.8125 6.12002 14.7858 5.14669 15.9725 5.14669C16.1725 5.14669 16.3058 5.01335 16.3058 4.84002L16.3192 3.58669C16.3325 3.08002 16.7458 2.66669 17.2525 2.66669H17.2658C17.7858 2.66669 18.1858 3.09335 18.1858 3.61335Z" fill="#EF9D2D"/>
</svg>
