<svg width="32" height="32" viewBox="0 0 32 32" fill="none" xmlns="http://www.w3.org/2000/svg">
<path opacity="0.4" d="M14.3319 3.2667C15.2652 2.48003 16.7719 2.48003 17.6785 3.2667L19.7852 5.0667C20.1852 5.40003 20.9452 5.68003 21.4785 5.68003H23.7452C25.1585 5.68003 26.3185 6.84003 26.3185 8.25336V10.52C26.3185 11.0534 26.5985 11.8 26.9319 12.2L28.7319 14.3067C29.5185 15.24 29.5185 16.7467 28.7319 17.6534L26.9319 19.76C26.5985 20.16 26.3185 20.9067 26.3185 21.44V23.7067C26.3185 25.12 25.1585 26.28 23.7452 26.28H21.4785C20.9452 26.28 20.1985 26.56 19.7985 26.8934L17.6919 28.6934C16.7585 29.48 15.2519 29.48 14.3452 28.6934L12.2385 26.8934C11.8385 26.56 11.0785 26.28 10.5585 26.28H8.22521C6.81188 26.28 5.65187 25.12 5.65187 23.7067V21.4267C5.65187 20.9067 5.38521 20.1467 5.05187 19.76L3.25188 17.64C2.47854 16.72 2.47854 15.2267 3.25188 14.3067L5.05187 12.1867C5.38521 11.7867 5.65187 11.04 5.65187 10.52V8.2667C5.65187 6.85336 6.81188 5.69336 8.22521 5.69336H10.5319C11.0652 5.69336 11.8119 5.41336 12.2119 5.08003L14.3319 3.2667Z" fill="#FFA200"/>
<path d="M19.7474 21.6533L16.0007 13.2133L12.2541 21.6533L10.4141 20.84L15.0807 10.3467H16.9207L21.5874 20.84L19.7474 21.6533Z" fill="#FFA200"/>
<path d="M18.3346 18.7466H13.668C13.1213 18.7466 12.668 18.2933 12.668 17.7466C12.668 17.2 13.1213 16.7466 13.668 16.7466H18.3346C18.8813 16.7466 19.3346 17.2 19.3346 17.7466C19.3346 18.2933 18.8813 18.7466 18.3346 18.7466Z" fill="#FFA200"/>
</svg>
