<svg width="32" height="32" viewBox="0 0 32 32" fill="none" xmlns="http://www.w3.org/2000/svg">
<path opacity="0.4" d="M22.9063 7C20.6263 7 17.9062 7.86667 17.9062 12V20C17.9062 24.1333 20.6263 25 22.9063 25C25.1863 25 27.9063 24.1333 27.9063 20V12C27.9063 7.86667 25.1863 7 22.9063 7Z" fill="#EB8DCB"/>
<path opacity="0.4" d="M9.09375 7C6.81375 7 4.09375 7.86667 4.09375 12V20C4.09375 24.1333 6.81375 25 9.09375 25C11.3738 25 14.0938 24.1333 14.0938 20V12C14.0938 7.86667 11.3738 7 9.09375 7Z" fill="#EB8DCB"/>
<path d="M17.9071 15H14.0938V17H17.9071V15Z" fill="#EB8DCB"/>
<path d="M30 20.3334C29.4533 20.3334 29 19.88 29 19.3334V12.6667C29 12.12 29.4533 11.6667 30 11.6667C30.5467 11.6667 31 12.12 31 12.6667V19.3334C31 19.88 30.5467 20.3334 30 20.3334Z" fill="#EB8DCB"/>
<path d="M2 20.3334C1.45333 20.3334 1 19.88 1 19.3334V12.6667C1 12.12 1.45333 11.6667 2 11.6667C2.54667 11.6667 3 12.12 3 12.6667V19.3334C3 19.88 2.54667 20.3334 2 20.3334Z" fill="#EB8DCB"/>
</svg>
