<svg width="32" height="32" viewBox="0 0 32 32" fill="none" xmlns="http://www.w3.org/2000/svg">
<path d="M28.1214 9.30665C26.988 8.05332 25.0947 7.42665 22.348 7.42665H22.028V7.37332C22.028 5.13332 22.028 2.35999 17.0147 2.35999H14.988C9.97468 2.35999 9.97468 5.14665 9.97468 7.37332V7.43999H9.65468C6.89468 7.43999 5.01469 8.06665 3.88135 9.31999C2.56135 10.7867 2.60135 12.76 2.73469 14.1067L2.74802 14.2L2.88135 15.6C2.89469 15.6133 2.92135 15.64 2.94802 15.6533C3.38802 15.9467 3.84135 16.24 4.32135 16.5067C4.50802 16.6267 4.70802 16.7333 4.90802 16.84C7.18802 18.0933 9.69469 18.9333 12.2414 19.3467C12.3614 20.6 12.908 22.0667 15.828 22.0667C18.748 22.0667 19.3214 20.6133 19.4147 19.32C22.1347 18.88 24.7614 17.9333 27.1347 16.5467C27.2147 16.5067 27.268 16.4667 27.3347 16.4267C27.948 16.08 28.5214 15.7067 29.0814 15.2933C29.108 15.28 29.1347 15.2533 29.148 15.2267L29.2014 14.7467L29.268 14.12C29.2814 14.04 29.2814 13.9733 29.2947 13.88C29.4014 12.5333 29.3747 10.6933 28.1214 9.30665ZM17.4547 18.44C17.4547 19.8533 17.4547 20.0667 15.8147 20.0667C14.1747 20.0667 14.1747 19.8133 14.1747 18.4533V16.7733H17.4547V18.44ZM11.8814 7.42665V7.37332C11.8814 5.10665 11.8814 4.26665 14.988 4.26665H17.0147C20.1214 4.26665 20.1214 5.11999 20.1214 7.37332V7.43999H11.8814V7.42665Z" fill="#0170FF"/>
<path opacity="0.4" d="M27.3322 16.4C27.2656 16.44 27.1989 16.48 27.1322 16.52C24.7589 17.9067 22.1322 18.84 19.4122 19.2933C19.3056 20.5733 18.7456 22.04 15.8256 22.04C12.9056 22.04 12.3456 20.5867 12.2389 19.32C9.69224 18.92 7.18557 18.08 4.90557 16.8133C4.70557 16.7067 4.50557 16.6 4.31891 16.48C3.83891 16.2133 3.38557 15.92 2.94557 15.6267C2.91891 15.6133 2.89224 15.5867 2.87891 15.5733L3.69224 24.2533C3.97224 26.9067 5.06557 29.64 10.9322 29.64H21.0922C26.9589 29.64 28.0522 26.9067 28.3322 24.24L29.1722 15.2C29.1589 15.2267 29.1322 15.2533 29.1056 15.2667C28.5322 15.68 27.9456 16.0667 27.3322 16.4Z" fill="#0170FF"/>
</svg>
