<svg width="32" height="32" viewBox="0 0 32 32" fill="none" xmlns="http://www.w3.org/2000/svg">
<path opacity="0.4" d="M29.3346 10.4134V20.2134C28.948 20.0267 28.5213 19.8934 28.0413 19.8134L27.628 19.7467L27.2813 19.0267C26.548 17.5334 25.348 16.6667 24.0013 16.6667C22.6546 16.6667 21.4546 17.5334 20.7213 19.0267L20.3613 19.7467L19.9613 19.8134C18.3746 20.08 17.2279 20.96 16.8146 22.2134C16.4146 23.48 16.828 24.8667 17.9613 26.0134L18.3746 26.4267L18.3346 26.5867C18.068 27.7734 18.1746 28.68 18.428 29.3334H10.4146C5.5613 29.3334 2.66797 26.44 2.66797 21.5867V10.4134C2.66797 5.56002 5.5613 2.66669 10.4146 2.66669H21.588C26.4413 2.66669 29.3346 5.56002 29.3346 10.4134Z" fill="#3FCD82"/>
<path d="M25.4945 19.92L25.9212 20.7867C26.1345 21.2133 26.6812 21.6133 27.1345 21.6933L27.7078 21.7867C29.4545 22.08 29.8545 23.36 28.6145 24.6133L28.0812 25.1467C27.7212 25.5067 27.5345 26.2 27.6412 26.7066L27.7078 27.0266C28.1878 29.1333 27.0678 29.9466 25.2412 28.84L24.8545 28.6C24.3879 28.32 23.6145 28.32 23.1478 28.6L22.7612 28.84C20.9212 29.9466 19.8145 29.1333 20.2945 27.0266L20.3612 26.7066C20.4678 26.2133 20.2812 25.5067 19.9212 25.1467L19.3879 24.6133C18.1479 23.3466 18.5478 22.08 20.2945 21.7867L20.8678 21.6933C21.3345 21.6133 21.8678 21.2133 22.0812 20.7867L22.5078 19.92C23.3345 18.2533 24.6678 18.2533 25.4945 19.92Z" fill="#3FCD82"/>
<path fill-rule="evenodd" clip-rule="evenodd" d="M21.5075 10.5563C21.944 10.8947 22.0235 11.5228 21.6852 11.9593L18.5992 15.9403C17.8061 16.9434 16.3436 17.1263 15.3234 16.338L15.3164 16.3326L12.881 14.4161C12.7305 14.3019 12.5207 14.3303 12.4064 14.4777C12.4063 14.4778 12.4065 14.4776 12.4064 14.4777L9.2337 18.5969C8.89669 19.0344 8.26879 19.1159 7.83125 18.7789C7.39371 18.4419 7.31221 17.814 7.64921 17.3765L10.8235 13.2552C11.6154 12.2304 13.0837 12.0452 14.1062 12.8354L14.1132 12.8408L16.5486 14.7572C16.7007 14.8727 16.9149 14.8429 17.0284 14.7023L20.1045 10.734C20.4428 10.2975 21.071 10.218 21.5075 10.5563Z" fill="#3FCD82"/>
</svg>
