<svg width="32" height="32" viewBox="0 0 32 32" fill="none" xmlns="http://www.w3.org/2000/svg">
<path opacity="0.4" d="M10.6667 29.3334H21.3333C25.0133 29.3334 28 26.3467 28 22.6667V9.33335C28 5.65335 25.0133 2.66669 21.3333 2.66669H10.6667C6.98667 2.66669 4 5.65335 4 9.33335V22.6667C4 26.3467 6.98667 29.3334 10.6667 29.3334Z" fill="#FFA200"/>
<path d="M19.9989 7.61334H11.9989C10.6255 7.61334 9.49219 8.73334 9.49219 10.12V11.4533C9.49219 12.8267 10.6122 13.96 11.9989 13.96H19.9989C21.3722 13.96 22.5055 12.84 22.5055 11.4533V10.12C22.5055 8.73334 21.3855 7.61334 19.9989 7.61334Z" fill="#FFA200"/>
<path d="M10.8818 19.8933C10.6952 19.8933 10.5218 19.8533 10.3618 19.7866C10.2018 19.72 10.0552 19.6266 9.93516 19.5066C9.68182 19.2533 9.53516 18.92 9.53516 18.56C9.53516 18.3866 9.57516 18.2133 9.64182 18.0533C9.70849 17.88 9.80182 17.7466 9.93516 17.6133C10.2418 17.3066 10.7085 17.16 11.1352 17.2533C11.2152 17.2666 11.3085 17.2933 11.3885 17.3333C11.4685 17.36 11.5485 17.4 11.6152 17.4533C11.6952 17.4933 11.7618 17.56 11.8152 17.6133C11.9352 17.7466 12.0418 17.88 12.1085 18.0533C12.1752 18.2133 12.2018 18.3866 12.2018 18.56C12.2018 18.92 12.0685 19.2533 11.8152 19.5066C11.5618 19.76 11.2285 19.8933 10.8818 19.8933Z" fill="#FFA200"/>
<path d="M16.2005 19.8933C15.8539 19.8933 15.5205 19.76 15.2672 19.5067C15.0139 19.2533 14.8672 18.92 14.8672 18.56C14.8672 18.2133 15.0139 17.8667 15.2672 17.6133C15.7605 17.12 16.6539 17.12 17.1472 17.6133C17.2672 17.7467 17.3739 17.88 17.4405 18.0533C17.5072 18.2133 17.5339 18.3867 17.5339 18.56C17.5339 18.92 17.4005 19.2533 17.1472 19.5067C16.8939 19.76 16.5605 19.8933 16.2005 19.8933Z" fill="#FFA200"/>
<path d="M21.5326 19.8933C21.1859 19.8933 20.8526 19.76 20.5992 19.5067C20.3459 19.2533 20.1992 18.92 20.1992 18.56C20.1992 18.2133 20.3459 17.8667 20.5992 17.6133C21.0926 17.12 21.9859 17.12 22.4792 17.6133C22.7326 17.8667 22.8792 18.2133 22.8792 18.56C22.8792 18.7333 22.8392 18.9067 22.7726 19.0667C22.7059 19.2267 22.6126 19.3733 22.4792 19.5067C22.2259 19.76 21.8926 19.8933 21.5326 19.8933Z" fill="#FFA200"/>
<path d="M10.8818 25.2267C10.5218 25.2267 10.1885 25.0933 9.93516 24.84C9.68182 24.5866 9.53516 24.2533 9.53516 23.8933C9.53516 23.5467 9.68182 23.2 9.93516 22.9466C10.0552 22.8266 10.2018 22.7333 10.3618 22.6667C10.6952 22.5333 11.0552 22.5333 11.3885 22.6667C11.4685 22.6933 11.5485 22.7333 11.6152 22.7867C11.6952 22.8267 11.7618 22.8933 11.8152 22.9466C12.0685 23.2 12.2152 23.5467 12.2152 23.8933C12.2152 24.2533 12.0685 24.5866 11.8152 24.84C11.5618 25.0933 11.2285 25.2267 10.8818 25.2267Z" fill="#FFA200"/>
<path d="M16.2005 25.2266C15.8539 25.2266 15.5205 25.0933 15.2672 24.84C15.0139 24.5866 14.8672 24.2533 14.8672 23.8933C14.8672 23.8 14.8805 23.72 14.8939 23.6266C14.9205 23.5466 14.9472 23.4666 14.9739 23.3866C15.0139 23.3066 15.0539 23.2266 15.0939 23.1466C15.1472 23.08 15.2005 23.0133 15.2672 22.9466C15.3872 22.8266 15.5339 22.7333 15.6939 22.6666C16.1872 22.4666 16.7739 22.5733 17.1472 22.9466C17.4005 23.2 17.5339 23.5466 17.5339 23.8933C17.5339 24.2533 17.4005 24.5866 17.1472 24.84C17.0272 24.96 16.8805 25.0533 16.7205 25.12C16.5605 25.1866 16.3872 25.2266 16.2005 25.2266Z" fill="#FFA200"/>
<path d="M21.5348 25.2266C21.3615 25.2266 21.1882 25.1866 21.0282 25.12C20.8682 25.0533 20.7215 24.96 20.6015 24.84C20.3482 24.5866 20.2148 24.2533 20.2148 23.8933C20.2148 23.5466 20.3482 23.2 20.6015 22.9466C20.9615 22.5733 21.5615 22.4666 22.0548 22.6666C22.2148 22.7333 22.3615 22.8266 22.4815 22.9466C22.7348 23.2 22.8682 23.5466 22.8682 23.8933C22.8682 24.2533 22.7348 24.5866 22.4815 24.84C22.2282 25.0933 21.8948 25.2266 21.5348 25.2266Z" fill="#FFA200"/>
</svg>
