<svg width="32" height="32" viewBox="0 0 32 32" fill="none" xmlns="http://www.w3.org/2000/svg">
<path opacity="0.4" d="M21.652 2.66669H10.3454C6.66536 2.66669 5.33203 4.00002 5.33203 7.74669V24.2534C5.33203 28 6.66536 29.3334 10.3454 29.3334H21.6387C25.332 29.3334 26.6654 28 26.6654 24.2534V7.74669C26.6654 4.00002 25.332 2.66669 21.652 2.66669Z" fill="#EF9D2D"/>
<path d="M18.6654 8.33331H13.332C12.7854 8.33331 12.332 7.87998 12.332 7.33331C12.332 6.78665 12.7854 6.33331 13.332 6.33331H18.6654C19.212 6.33331 19.6654 6.78665 19.6654 7.33331C19.6654 7.87998 19.212 8.33331 18.6654 8.33331Z" fill="#EF9D2D"/>
<path d="M16.0013 25.7333C17.29 25.7333 18.3346 24.6886 18.3346 23.4C18.3346 22.1113 17.29 21.0667 16.0013 21.0667C14.7126 21.0667 13.668 22.1113 13.668 23.4C13.668 24.6886 14.7126 25.7333 16.0013 25.7333Z" fill="#EF9D2D"/>
</svg>
