<svg width="32" height="32" viewBox="0 0 32 32" fill="none" xmlns="http://www.w3.org/2000/svg">
<path d="M20.7866 2.33331C16.8266 2.33331 13.6133 5.54665 13.6133 9.50665C13.6133 13.4667 16.8266 16.68 20.7866 16.68C24.7466 16.68 27.96 13.4667 27.96 9.50665C27.96 5.54665 24.7466 2.33331 20.7866 2.33331Z" fill="#FFA200"/>
<path opacity="0.4" d="M8.47904 17.3734C6.03904 17.3734 4.03906 19.36 4.03906 21.8134C4.03906 24.2667 6.02571 26.2534 8.47904 26.2534C10.919 26.2534 12.9191 24.2667 12.9191 21.8134C12.9191 19.36 10.919 17.3734 8.47904 17.3734Z" fill="#FFA200"/>
<path opacity="0.4" d="M22.1607 22.16C20.0941 22.16 18.4141 23.84 18.4141 25.9066C18.4141 27.9733 20.0941 29.6533 22.1607 29.6533C24.2274 29.6533 25.9074 27.9733 25.9074 25.9066C25.9074 23.84 24.2274 22.16 22.1607 22.16Z" fill="#FFA200"/>
</svg>
