<svg width="32" height="32" viewBox="0 0 32 32" fill="none" xmlns="http://www.w3.org/2000/svg">
<path opacity="0.4" d="M16.0013 29.3333C23.3651 29.3333 29.3346 23.3638 29.3346 16C29.3346 8.63619 23.3651 2.66666 16.0013 2.66666C8.63751 2.66666 2.66797 8.63619 2.66797 16C2.66797 23.3638 8.63751 29.3333 16.0013 29.3333Z" fill="#EF9D2D"/>
<path d="M10.6672 19.6666C10.4139 19.6666 10.1606 19.5733 9.96057 19.3733L7.29391 16.7067C6.90724 16.32 6.90724 15.6799 7.29391 15.2932L9.96057 12.6266C10.3472 12.2399 10.9872 12.2399 11.3739 12.6266C11.7606 13.0132 11.7606 13.6533 11.3739 14.04L9.4139 16L11.3739 17.9599C11.7606 18.3466 11.7606 18.9867 11.3739 19.3733C11.1739 19.5733 10.9206 19.6666 10.6672 19.6666Z" fill="#EF9D2D"/>
<path d="M21.3326 19.6666C21.0793 19.6666 20.8259 19.5733 20.6259 19.3733C20.2393 18.9867 20.2393 18.3466 20.6259 17.9599L22.5859 16L20.6259 14.04C20.2393 13.6533 20.2393 13.0132 20.6259 12.6266C21.0126 12.2399 21.6526 12.2399 22.0393 12.6266L24.7059 15.2932C25.0926 15.6799 25.0926 16.32 24.7059 16.7067L22.0393 19.3733C21.8393 19.5733 21.5859 19.6666 21.3326 19.6666Z" fill="#EF9D2D"/>
<path d="M14.6681 20.1067C14.5348 20.1067 14.4015 20.08 14.2815 20.0267C13.7748 19.8133 13.5348 19.2267 13.7615 18.7067L16.4281 12.48C16.6415 11.9733 17.2281 11.7333 17.7348 11.96C18.2415 12.1733 18.4815 12.76 18.2548 13.28L15.5881 19.5067C15.4281 19.88 15.0548 20.1067 14.6681 20.1067Z" fill="#EF9D2D"/>
</svg>
