<svg width="1920" height="1270" viewBox="0 0 1920 1270" fill="none" xmlns="http://www.w3.org/2000/svg">
<mask id="mask0_14897_51273" style="mask-type:alpha" maskUnits="userSpaceOnUse" x="0" y="0" width="1920" height="1270">
<rect width="1920" height="1270" fill="#0170FF"/>
</mask>
<g mask="url(#mask0_14897_51273)">
<g opacity="0.07">
<line y1="81.334" x2="1920" y2="81.334" stroke="url(#paint0_linear_14897_51273)"/>
<line y1="652.334" x2="1920" y2="652.334" stroke="url(#paint1_linear_14897_51273)"/>
<line y1="570.5" x2="1920" y2="570.5" stroke="url(#paint2_linear_14897_51273)"/>
<line y1="163.166" x2="1920" y2="163.166" stroke="url(#paint3_linear_14897_51273)"/>
<line y1="734.166" x2="1920" y2="734.166" stroke="url(#paint4_linear_14897_51273)"/>
<line y1="245" x2="1920" y2="245" stroke="url(#paint5_linear_14897_51273)"/>
<line y1="816" x2="1920" y2="816" stroke="url(#paint6_linear_14897_51273)"/>
<line y1="326.834" x2="1920" y2="326.834" stroke="url(#paint7_linear_14897_51273)"/>
<line y1="897.834" x2="1920" y2="897.834" stroke="url(#paint8_linear_14897_51273)"/>
<line y1="1117.5" x2="1920" y2="1117.5" stroke="url(#paint9_linear_14897_51273)"/>
<line y1="408.666" x2="1920" y2="408.666" stroke="url(#paint10_linear_14897_51273)"/>
<line y1="979.666" x2="1920" y2="979.666" stroke="url(#paint11_linear_14897_51273)"/>
<line y1="1199.33" x2="1920" y2="1199.33" stroke="url(#paint12_linear_14897_51273)"/>
<line y1="1265.33" x2="1920" y2="1265.33" stroke="url(#paint13_linear_14897_51273)"/>
<line y1="490.5" x2="1920" y2="490.5" stroke="url(#paint14_linear_14897_51273)"/>
<line y1="1061.5" x2="1920" y2="1061.5" stroke="url(#paint15_linear_14897_51273)"/>
</g>
<g opacity="0.07">
<line x1="52.5" y1="2.18556e-08" x2="52.4999" y2="1215" stroke="url(#paint16_linear_14897_51273)"/>
<line x1="292.5" y1="2.18556e-08" x2="292.5" y2="1215" stroke="url(#paint17_linear_14897_51273)"/>
<line x1="532.5" y1="2.18556e-08" x2="532.5" y2="1215" stroke="url(#paint18_linear_14897_51273)"/>
<line x1="772.5" y1="2.18556e-08" x2="772.5" y2="1215" stroke="url(#paint19_linear_14897_51273)"/>
<line x1="1012.5" y1="2.18556e-08" x2="1012.5" y2="1215" stroke="url(#paint20_linear_14897_51273)"/>
<line x1="1252.5" y1="2.18556e-08" x2="1252.5" y2="1215" stroke="url(#paint21_linear_14897_51273)"/>
<line x1="132.5" y1="2.18556e-08" x2="132.5" y2="1215" stroke="url(#paint22_linear_14897_51273)"/>
<line x1="372.5" y1="2.18556e-08" x2="372.5" y2="1215" stroke="url(#paint23_linear_14897_51273)"/>
<line x1="612.5" y1="2.18556e-08" x2="612.5" y2="1215" stroke="url(#paint24_linear_14897_51273)"/>
<line x1="852.5" y1="2.18556e-08" x2="852.5" y2="1215" stroke="url(#paint25_linear_14897_51273)"/>
<line x1="1092.5" y1="2.18556e-08" x2="1092.5" y2="1215" stroke="url(#paint26_linear_14897_51273)"/>
<line x1="1332.5" y1="2.18556e-08" x2="1332.5" y2="1215" stroke="url(#paint27_linear_14897_51273)"/>
<line x1="212.5" y1="2.18556e-08" x2="212.5" y2="1215" stroke="url(#paint28_linear_14897_51273)"/>
<line x1="452.5" y1="2.18556e-08" x2="452.5" y2="1215" stroke="url(#paint29_linear_14897_51273)"/>
<line x1="692.5" y1="2.18556e-08" x2="692.5" y2="1215" stroke="url(#paint30_linear_14897_51273)"/>
<line x1="932.5" y1="2.18556e-08" x2="932.5" y2="1215" stroke="url(#paint31_linear_14897_51273)"/>
<line x1="1172.5" y1="2.18556e-08" x2="1172.5" y2="1215" stroke="url(#paint32_linear_14897_51273)"/>
<line x1="1412.5" y1="2.18556e-08" x2="1412.5" y2="1215" stroke="url(#paint33_linear_14897_51273)"/>
</g>
<g opacity="0.07">
<line x1="1492.5" y1="2.18556e-08" x2="1492.5" y2="1215" stroke="url(#paint34_linear_14897_51273)"/>
<line x1="1732.5" y1="2.18556e-08" x2="1732.5" y2="1215" stroke="url(#paint35_linear_14897_51273)"/>
<line x1="1572.5" y1="2.18556e-08" x2="1572.5" y2="1215" stroke="url(#paint36_linear_14897_51273)"/>
<line x1="1812.5" y1="2.18556e-08" x2="1812.5" y2="1215" stroke="url(#paint37_linear_14897_51273)"/>
<line x1="1652.5" y1="2.18556e-08" x2="1652.5" y2="1215" stroke="url(#paint38_linear_14897_51273)"/>
<line x1="1892.5" y1="2.18556e-08" x2="1892.5" y2="1215" stroke="url(#paint39_linear_14897_51273)"/>
</g>
<g opacity="0.05" filter="url(#filter0_d_14897_51273)">
<path d="M2067.54 532.28C2022.84 509.182 1973.28 497.055 1922.95 496.902C1872.63 496.75 1823 508.576 1778.15 531.402C1733.31 554.229 1694.54 587.402 1665.05 628.178C1635.56 668.954 1616.2 716.162 1608.57 765.902C1600.94 815.641 1605.25 866.482 1621.16 914.223C1637.07 961.965 1664.11 1005.23 1700.04 1040.46C1735.98 1075.68 1779.79 1101.84 1827.84 1116.78C1875.89 1131.73 1926.81 1135.02 1976.39 1126.38L1957.23 1016.35C1925.11 1021.94 1892.13 1019.81 1861 1010.13C1829.88 1000.46 1801.5 983.508 1778.22 960.691C1754.94 937.875 1737.42 909.846 1727.12 878.92C1716.81 847.994 1714.02 815.06 1718.96 782.84C1723.91 750.62 1736.45 720.039 1755.55 693.625C1774.65 667.212 1799.77 645.723 1828.82 630.936C1857.87 616.15 1890.02 608.489 1922.62 608.588C1955.21 608.687 1987.32 616.542 2016.28 631.505L2067.54 532.28Z" fill="url(#paint40_linear_14897_51273)" shape-rendering="crispEdges"/>
</g>
<g opacity="0.05" filter="url(#filter1_d_14897_51273)">
<path d="M-161.75 793.195C-116.364 814.929 -66.4575 825.549 -16.1549 824.177C34.1477 822.806 83.4016 809.482 127.536 785.308C171.67 761.133 209.417 726.801 237.656 685.151C265.896 643.501 283.817 595.727 289.939 545.78C296.061 495.832 290.208 445.145 272.863 397.908C255.518 350.67 227.179 308.239 190.19 274.121C153.201 240.003 108.623 215.179 60.1401 201.7C11.6578 188.22 -39.3365 186.474 -88.6277 196.603L-66.1452 306.003C-34.2154 299.441 -1.1824 300.573 30.2235 309.305C61.6294 318.036 90.5062 334.117 114.467 356.218C138.428 378.318 156.785 405.804 168.021 436.404C179.256 467.003 183.048 499.838 179.083 532.193C175.117 564.548 163.508 595.494 145.215 622.474C126.922 649.455 102.47 671.694 73.8809 687.354C45.2918 703.014 13.3861 711.644 -19.1989 712.533C-51.7838 713.421 -84.1124 706.542 -113.512 692.463L-161.75 793.195Z" fill="url(#paint41_linear_14897_51273)" shape-rendering="crispEdges"/>
</g>
</g>
<defs>
<filter id="filter0_d_14897_51273" x="1584.9" y="480.9" width="502.645" height="674.184" filterUnits="userSpaceOnUse" color-interpolation-filters="sRGB">
<feFlood flood-opacity="0" result="BackgroundImageFix"/>
<feColorMatrix in="SourceAlpha" type="matrix" values="0 0 0 0 0 0 0 0 0 0 0 0 0 0 0 0 0 0 127 0" result="hardAlpha"/>
<feOffset dy="4"/>
<feGaussianBlur stdDeviation="10"/>
<feComposite in2="hardAlpha" operator="out"/>
<feColorMatrix type="matrix" values="0 0 0 0 0 0 0 0 0 0 0 0 0 0 0 0 0 0 0.05 0"/>
<feBlend mode="normal" in2="BackgroundImageFix" result="effect1_dropShadow_14897_51273"/>
<feBlend mode="normal" in="SourceGraphic" in2="effect1_dropShadow_14897_51273" result="shape"/>
</filter>
<filter id="filter1_d_14897_51273" x="-181.75" y="174.112" width="494.045" height="674.183" filterUnits="userSpaceOnUse" color-interpolation-filters="sRGB">
<feFlood flood-opacity="0" result="BackgroundImageFix"/>
<feColorMatrix in="SourceAlpha" type="matrix" values="0 0 0 0 0 0 0 0 0 0 0 0 0 0 0 0 0 0 127 0" result="hardAlpha"/>
<feOffset dy="4"/>
<feGaussianBlur stdDeviation="10"/>
<feComposite in2="hardAlpha" operator="out"/>
<feColorMatrix type="matrix" values="0 0 0 0 0 0 0 0 0 0 0 0 0 0 0 0 0 0 0.05 0"/>
<feBlend mode="normal" in2="BackgroundImageFix" result="effect1_dropShadow_14897_51273"/>
<feBlend mode="normal" in="SourceGraphic" in2="effect1_dropShadow_14897_51273" result="shape"/>
</filter>
<linearGradient id="paint0_linear_14897_51273" x1="0" y1="82.334" x2="1920" y2="82.334" gradientUnits="userSpaceOnUse">
<stop stop-color="white" stop-opacity="0"/>
<stop offset="0.5" stop-color="white"/>
<stop offset="1" stop-color="white" stop-opacity="0"/>
</linearGradient>
<linearGradient id="paint1_linear_14897_51273" x1="0" y1="653.334" x2="1920" y2="653.334" gradientUnits="userSpaceOnUse">
<stop stop-color="white" stop-opacity="0"/>
<stop offset="0.5" stop-color="white"/>
<stop offset="1" stop-color="white" stop-opacity="0"/>
</linearGradient>
<linearGradient id="paint2_linear_14897_51273" x1="0" y1="571.5" x2="1920" y2="571.5" gradientUnits="userSpaceOnUse">
<stop stop-color="white" stop-opacity="0"/>
<stop offset="0.5" stop-color="white"/>
<stop offset="1" stop-color="white" stop-opacity="0"/>
</linearGradient>
<linearGradient id="paint3_linear_14897_51273" x1="0" y1="164.166" x2="1920" y2="164.166" gradientUnits="userSpaceOnUse">
<stop stop-color="white" stop-opacity="0"/>
<stop offset="0.5" stop-color="white"/>
<stop offset="1" stop-color="white" stop-opacity="0"/>
</linearGradient>
<linearGradient id="paint4_linear_14897_51273" x1="0" y1="735.166" x2="1920" y2="735.166" gradientUnits="userSpaceOnUse">
<stop stop-color="white" stop-opacity="0"/>
<stop offset="0.5" stop-color="white"/>
<stop offset="1" stop-color="white" stop-opacity="0"/>
</linearGradient>
<linearGradient id="paint5_linear_14897_51273" x1="0" y1="246" x2="1920" y2="246" gradientUnits="userSpaceOnUse">
<stop stop-color="white" stop-opacity="0"/>
<stop offset="0.5" stop-color="white"/>
<stop offset="1" stop-color="white" stop-opacity="0"/>
</linearGradient>
<linearGradient id="paint6_linear_14897_51273" x1="0" y1="817" x2="1920" y2="817" gradientUnits="userSpaceOnUse">
<stop stop-color="white" stop-opacity="0"/>
<stop offset="0.5" stop-color="white"/>
<stop offset="1" stop-color="white" stop-opacity="0"/>
</linearGradient>
<linearGradient id="paint7_linear_14897_51273" x1="0" y1="327.834" x2="1920" y2="327.834" gradientUnits="userSpaceOnUse">
<stop stop-color="white" stop-opacity="0"/>
<stop offset="0.5" stop-color="white"/>
<stop offset="1" stop-color="white" stop-opacity="0"/>
</linearGradient>
<linearGradient id="paint8_linear_14897_51273" x1="0" y1="898.834" x2="1920" y2="898.834" gradientUnits="userSpaceOnUse">
<stop stop-color="white" stop-opacity="0"/>
<stop offset="0.5" stop-color="white"/>
<stop offset="1" stop-color="white" stop-opacity="0"/>
</linearGradient>
<linearGradient id="paint9_linear_14897_51273" x1="0" y1="1118.5" x2="1920" y2="1118.5" gradientUnits="userSpaceOnUse">
<stop stop-color="white" stop-opacity="0"/>
<stop offset="0.5" stop-color="white"/>
<stop offset="1" stop-color="white" stop-opacity="0"/>
</linearGradient>
<linearGradient id="paint10_linear_14897_51273" x1="0" y1="409.666" x2="1920" y2="409.666" gradientUnits="userSpaceOnUse">
<stop stop-color="white" stop-opacity="0"/>
<stop offset="0.5" stop-color="white"/>
<stop offset="1" stop-color="white" stop-opacity="0"/>
</linearGradient>
<linearGradient id="paint11_linear_14897_51273" x1="0" y1="980.666" x2="1920" y2="980.666" gradientUnits="userSpaceOnUse">
<stop stop-color="white" stop-opacity="0"/>
<stop offset="0.5" stop-color="white"/>
<stop offset="1" stop-color="white" stop-opacity="0"/>
</linearGradient>
<linearGradient id="paint12_linear_14897_51273" x1="0" y1="1200.33" x2="1920" y2="1200.33" gradientUnits="userSpaceOnUse">
<stop stop-color="white" stop-opacity="0"/>
<stop offset="0.5" stop-color="white"/>
<stop offset="1" stop-color="white" stop-opacity="0"/>
</linearGradient>
<linearGradient id="paint13_linear_14897_51273" x1="0" y1="1266.33" x2="1920" y2="1266.33" gradientUnits="userSpaceOnUse">
<stop stop-color="white" stop-opacity="0"/>
<stop offset="0.5" stop-color="white"/>
<stop offset="1" stop-color="white" stop-opacity="0"/>
</linearGradient>
<linearGradient id="paint14_linear_14897_51273" x1="0" y1="491.5" x2="1920" y2="491.5" gradientUnits="userSpaceOnUse">
<stop stop-color="white" stop-opacity="0"/>
<stop offset="0.5" stop-color="white"/>
<stop offset="1" stop-color="white" stop-opacity="0"/>
</linearGradient>
<linearGradient id="paint15_linear_14897_51273" x1="0" y1="1062.5" x2="1920" y2="1062.5" gradientUnits="userSpaceOnUse">
<stop stop-color="white" stop-opacity="0"/>
<stop offset="0.5" stop-color="white"/>
<stop offset="1" stop-color="white" stop-opacity="0"/>
</linearGradient>
<linearGradient id="paint16_linear_14897_51273" x1="51.5" y1="-2.18556e-08" x2="51.4999" y2="1215" gradientUnits="userSpaceOnUse">
<stop stop-color="white" stop-opacity="0"/>
<stop offset="0.5" stop-color="white"/>
<stop offset="1" stop-color="white" stop-opacity="0"/>
</linearGradient>
<linearGradient id="paint17_linear_14897_51273" x1="291.5" y1="-2.18556e-08" x2="291.5" y2="1215" gradientUnits="userSpaceOnUse">
<stop stop-color="white" stop-opacity="0"/>
<stop offset="0.5" stop-color="white"/>
<stop offset="1" stop-color="white" stop-opacity="0"/>
</linearGradient>
<linearGradient id="paint18_linear_14897_51273" x1="531.5" y1="-2.18556e-08" x2="531.5" y2="1215" gradientUnits="userSpaceOnUse">
<stop stop-color="white" stop-opacity="0"/>
<stop offset="0.5" stop-color="white"/>
<stop offset="1" stop-color="white" stop-opacity="0"/>
</linearGradient>
<linearGradient id="paint19_linear_14897_51273" x1="771.5" y1="-2.18556e-08" x2="771.5" y2="1215" gradientUnits="userSpaceOnUse">
<stop stop-color="white" stop-opacity="0"/>
<stop offset="0.5" stop-color="white"/>
<stop offset="1" stop-color="white" stop-opacity="0"/>
</linearGradient>
<linearGradient id="paint20_linear_14897_51273" x1="1011.5" y1="-2.18556e-08" x2="1011.5" y2="1215" gradientUnits="userSpaceOnUse">
<stop stop-color="white" stop-opacity="0"/>
<stop offset="0.5" stop-color="white"/>
<stop offset="1" stop-color="white" stop-opacity="0"/>
</linearGradient>
<linearGradient id="paint21_linear_14897_51273" x1="1251.5" y1="-2.18556e-08" x2="1251.5" y2="1215" gradientUnits="userSpaceOnUse">
<stop stop-color="white" stop-opacity="0"/>
<stop offset="0.5" stop-color="white"/>
<stop offset="1" stop-color="white" stop-opacity="0"/>
</linearGradient>
<linearGradient id="paint22_linear_14897_51273" x1="131.5" y1="-2.18556e-08" x2="131.5" y2="1215" gradientUnits="userSpaceOnUse">
<stop stop-color="white" stop-opacity="0"/>
<stop offset="0.5" stop-color="white"/>
<stop offset="1" stop-color="white" stop-opacity="0"/>
</linearGradient>
<linearGradient id="paint23_linear_14897_51273" x1="371.5" y1="-2.18556e-08" x2="371.5" y2="1215" gradientUnits="userSpaceOnUse">
<stop stop-color="white" stop-opacity="0"/>
<stop offset="0.5" stop-color="white"/>
<stop offset="1" stop-color="white" stop-opacity="0"/>
</linearGradient>
<linearGradient id="paint24_linear_14897_51273" x1="611.5" y1="-2.18556e-08" x2="611.5" y2="1215" gradientUnits="userSpaceOnUse">
<stop stop-color="white" stop-opacity="0"/>
<stop offset="0.5" stop-color="white"/>
<stop offset="1" stop-color="white" stop-opacity="0"/>
</linearGradient>
<linearGradient id="paint25_linear_14897_51273" x1="851.5" y1="-2.18556e-08" x2="851.5" y2="1215" gradientUnits="userSpaceOnUse">
<stop stop-color="white" stop-opacity="0"/>
<stop offset="0.5" stop-color="white"/>
<stop offset="1" stop-color="white" stop-opacity="0"/>
</linearGradient>
<linearGradient id="paint26_linear_14897_51273" x1="1091.5" y1="-2.18556e-08" x2="1091.5" y2="1215" gradientUnits="userSpaceOnUse">
<stop stop-color="white" stop-opacity="0"/>
<stop offset="0.5" stop-color="white"/>
<stop offset="1" stop-color="white" stop-opacity="0"/>
</linearGradient>
<linearGradient id="paint27_linear_14897_51273" x1="1331.5" y1="-2.18556e-08" x2="1331.5" y2="1215" gradientUnits="userSpaceOnUse">
<stop stop-color="white" stop-opacity="0"/>
<stop offset="0.5" stop-color="white"/>
<stop offset="1" stop-color="white" stop-opacity="0"/>
</linearGradient>
<linearGradient id="paint28_linear_14897_51273" x1="211.5" y1="-2.18556e-08" x2="211.5" y2="1215" gradientUnits="userSpaceOnUse">
<stop stop-color="white" stop-opacity="0"/>
<stop offset="0.5" stop-color="white"/>
<stop offset="1" stop-color="white" stop-opacity="0"/>
</linearGradient>
<linearGradient id="paint29_linear_14897_51273" x1="451.5" y1="-2.18556e-08" x2="451.5" y2="1215" gradientUnits="userSpaceOnUse">
<stop stop-color="white" stop-opacity="0"/>
<stop offset="0.5" stop-color="white"/>
<stop offset="1" stop-color="white" stop-opacity="0"/>
</linearGradient>
<linearGradient id="paint30_linear_14897_51273" x1="691.5" y1="-2.18556e-08" x2="691.5" y2="1215" gradientUnits="userSpaceOnUse">
<stop stop-color="white" stop-opacity="0"/>
<stop offset="0.5" stop-color="white"/>
<stop offset="1" stop-color="white" stop-opacity="0"/>
</linearGradient>
<linearGradient id="paint31_linear_14897_51273" x1="931.5" y1="-2.18556e-08" x2="931.5" y2="1215" gradientUnits="userSpaceOnUse">
<stop stop-color="white" stop-opacity="0"/>
<stop offset="0.5" stop-color="white"/>
<stop offset="1" stop-color="white" stop-opacity="0"/>
</linearGradient>
<linearGradient id="paint32_linear_14897_51273" x1="1171.5" y1="-2.18556e-08" x2="1171.5" y2="1215" gradientUnits="userSpaceOnUse">
<stop stop-color="white" stop-opacity="0"/>
<stop offset="0.5" stop-color="white"/>
<stop offset="1" stop-color="white" stop-opacity="0"/>
</linearGradient>
<linearGradient id="paint33_linear_14897_51273" x1="1411.5" y1="-2.18556e-08" x2="1411.5" y2="1215" gradientUnits="userSpaceOnUse">
<stop stop-color="white" stop-opacity="0"/>
<stop offset="0.5" stop-color="white"/>
<stop offset="1" stop-color="white" stop-opacity="0"/>
</linearGradient>
<linearGradient id="paint34_linear_14897_51273" x1="1491.5" y1="-2.18556e-08" x2="1491.5" y2="1215" gradientUnits="userSpaceOnUse">
<stop stop-color="white" stop-opacity="0"/>
<stop offset="0.5" stop-color="white"/>
<stop offset="1" stop-color="white" stop-opacity="0"/>
</linearGradient>
<linearGradient id="paint35_linear_14897_51273" x1="1731.5" y1="-2.18556e-08" x2="1731.5" y2="1215" gradientUnits="userSpaceOnUse">
<stop stop-color="white" stop-opacity="0"/>
<stop offset="0.5" stop-color="white"/>
<stop offset="1" stop-color="white" stop-opacity="0"/>
</linearGradient>
<linearGradient id="paint36_linear_14897_51273" x1="1571.5" y1="-2.18556e-08" x2="1571.5" y2="1215" gradientUnits="userSpaceOnUse">
<stop stop-color="white" stop-opacity="0"/>
<stop offset="0.5" stop-color="white"/>
<stop offset="1" stop-color="white" stop-opacity="0"/>
</linearGradient>
<linearGradient id="paint37_linear_14897_51273" x1="1811.5" y1="-2.18556e-08" x2="1811.5" y2="1215" gradientUnits="userSpaceOnUse">
<stop stop-color="white" stop-opacity="0"/>
<stop offset="0.5" stop-color="white"/>
<stop offset="1" stop-color="white" stop-opacity="0"/>
</linearGradient>
<linearGradient id="paint38_linear_14897_51273" x1="1651.5" y1="-2.18556e-08" x2="1651.5" y2="1215" gradientUnits="userSpaceOnUse">
<stop stop-color="white" stop-opacity="0"/>
<stop offset="0.5" stop-color="white"/>
<stop offset="1" stop-color="white" stop-opacity="0"/>
</linearGradient>
<linearGradient id="paint39_linear_14897_51273" x1="1891.5" y1="-2.18556e-08" x2="1891.5" y2="1215" gradientUnits="userSpaceOnUse">
<stop stop-color="white" stop-opacity="0"/>
<stop offset="0.5" stop-color="white"/>
<stop offset="1" stop-color="white" stop-opacity="0"/>
</linearGradient>
<linearGradient id="paint40_linear_14897_51273" x1="1734.21" y1="1075.36" x2="1981" y2="891.135" gradientUnits="userSpaceOnUse">
<stop stop-color="white"/>
<stop offset="1" stop-color="white" stop-opacity="0"/>
</linearGradient>
<linearGradient id="paint41_linear_14897_51273" x1="154.985" y1="240.268" x2="-86.1161" y2="431.884" gradientUnits="userSpaceOnUse">
<stop stop-color="white"/>
<stop offset="1" stop-color="white" stop-opacity="0"/>
</linearGradient>
</defs>
</svg>
