<svg width="24" height="24" viewBox="0 0 24 24" fill="none" xmlns="http://www.w3.org/2000/svg">
<path d="M21.0391 13.28L20.1191 12.38L12.3691 20.12L13.2991 21.05C14.0791 21.83 14.8891 22.22 15.6891 22.22C16.4891 22.22 17.2991 21.83 18.0791 21.05L21.0391 18.09C22.6291 16.49 22.6291 14.88 21.0391 13.28Z" fill="#B983FF"/>
<path d="M10.6898 2.93C9.11976 1.36 7.46977 1.36 5.89977 2.93L2.92977 5.89C1.36977 7.46 1.36977 9.11 2.92977 10.68L3.84977 11.6L11.5998 3.85L10.6898 2.93Z" fill="#B983FF"/>
<path opacity="0.4" d="M21.8098 3.94003C20.4998 7.21003 17.5098 11.48 14.6598 14.27C14.2498 11.69 12.1898 9.67003 9.58984 9.31003C12.3898 6.45003 16.6898 3.42003 19.9698 2.10003C20.5498 1.88003 21.1298 2.05003 21.4898 2.41003C21.8698 2.79003 22.0498 3.36003 21.8098 3.94003Z" fill="#B983FF"/>
<path d="M14.6595 14.27C14.1595 14.76 13.6595 15.21 13.1795 15.59L11.2095 17.17C10.9595 17.35 10.7095 17.5 10.4295 17.62C10.4295 17.43 10.4095 17.24 10.3895 17.04C10.2795 16.21 9.89953 15.42 9.22953 14.75C8.53953 14.07 7.71953 13.68 6.86953 13.57C6.66953 13.55 6.45953 13.54 6.26953 13.55C6.37953 13.24 6.54953 12.95 6.75953 12.71L8.31953 10.74C8.68953 10.27 9.11953 9.79 9.58953 9.31C12.1895 9.67 14.2495 11.69 14.6595 14.27Z" fill="#B983FF"/>
<path opacity="0.4" d="M10.4298 17.62C10.4298 18.72 10.0098 19.77 9.20976 20.56C8.59976 21.18 7.77977 21.6 6.77977 21.72L4.32976 21.99C2.98976 22.14 1.83976 20.99 1.98976 19.64L2.25976 17.18C2.49976 14.99 4.32976 13.59 6.26976 13.55C6.45976 13.54 6.66976 13.55 6.86976 13.57C7.71976 13.68 8.53976 14.07 9.22976 14.75C9.89976 15.42 10.2798 16.21 10.3898 17.04C10.4098 17.24 10.4298 17.43 10.4298 17.62Z" fill="#B983FF"/>
</svg>
