<svg width="24" height="24" viewBox="0 0 24 24" fill="none" xmlns="http://www.w3.org/2000/svg">
<path opacity="0.4" d="M12 22C17.5228 22 22 17.5228 22 12C22 6.47715 17.5228 2 12 2C6.47715 2 2 6.47715 2 12C2 17.5228 6.47715 22 12 22Z" fill="#FE89A6"/>
<path d="M7.99945 14.75C7.80945 14.75 7.61945 14.68 7.46945 14.53L5.46945 12.53C5.17945 12.24 5.17945 11.7599 5.46945 11.4699L7.46945 9.46994C7.75945 9.17994 8.23945 9.17994 8.52945 9.46994C8.81945 9.75994 8.81945 10.24 8.52945 10.53L7.05945 12L8.52945 13.4699C8.81945 13.7599 8.81945 14.24 8.52945 14.53C8.37945 14.68 8.18945 14.75 7.99945 14.75Z" fill="#FE89A6"/>
<path d="M15.9995 14.75C15.8095 14.75 15.6195 14.68 15.4695 14.53C15.1795 14.24 15.1795 13.7599 15.4695 13.4699L16.9395 12L15.4695 10.53C15.1795 10.24 15.1795 9.75994 15.4695 9.46994C15.7595 9.17994 16.2395 9.17994 16.5295 9.46994L18.5295 11.4699C18.8195 11.7599 18.8195 12.24 18.5295 12.53L16.5295 14.53C16.3795 14.68 16.1895 14.75 15.9995 14.75Z" fill="#FE89A6"/>
<path d="M11.0001 15.08C10.9001 15.08 10.8001 15.06 10.7101 15.02C10.3301 14.86 10.1501 14.42 10.3201 14.03L12.3201 9.35998C12.4801 8.97998 12.9201 8.79996 13.3001 8.96996C13.6801 9.12996 13.8601 9.57001 13.6901 9.96001L11.6901 14.63C11.5701 14.91 11.2901 15.08 11.0001 15.08Z" fill="#FE89A6"/>
</svg>
