<svg width="24" height="24" viewBox="0 0 24 24" fill="none" xmlns="http://www.w3.org/2000/svg">
<path d="M18 15V19C18 20.65 16.65 22 15 22H9C7.35 22 6 20.65 6 19V13.98L9.89001 14C10.62 14 11.34 14.17 12 14.5C12.66 14.83 13.38 15 14.12 15H18Z" fill="#3FCD82"/>
<path opacity="0.4" d="M18 10.83V15H14.12C13.38 15 12.66 14.83 12 14.5C11.34 14.17 10.62 14 9.89001 14L6 13.98V10.83C6 10.37 6.26003 9.74003 6.59003 9.41003L8.71002 7.29003C8.89002 7.11003 9 6.85003 9 6.59003V4.91003C9.16 4.97003 9.32 5.00003 9.5 5.00003H14.5C14.68 5.00003 14.84 4.97003 15 4.91003V6.59003C15 6.85003 15.11 7.11003 15.29 7.29003L17.41 9.41003C17.74 9.74003 18 10.37 18 10.83Z" fill="#3FCD82"/>
<path d="M14.5 2H9.5C8.67 2 8 2.67 8 3.5C8 4.15 8.42 4.71 9 4.91C9.16 4.97 9.32 5 9.5 5H14.5C14.68 5 14.84 4.97 15 4.91C15.58 4.71 16 4.15 16 3.5C16 2.67 15.33 2 14.5 2Z" fill="#3FCD82"/>
</svg>
