<svg width="88" height="88" viewBox="0 0 88 88" fill="none" xmlns="http://www.w3.org/2000/svg">
<rect width="88" height="88" fill="#FFE5B8"/>
<path opacity="0.6" d="M53.6487 41.45V44H27.332V41.45C27.332 37.5833 30.482 34.4333 34.3487 34.4333H46.632C50.4987 34.4333 53.6487 37.5833 53.6487 41.45Z" fill="#FFA200"/>
<path opacity="0.4" d="M53.6487 44V53.65C53.6487 57.5167 50.4987 60.6667 46.632 60.6667H34.3487C30.482 60.6667 27.332 57.5167 27.332 53.65V44H53.6487Z" fill="#FFA200"/>
<path d="M33.168 32.5333C32.4846 32.5333 31.918 31.9666 31.918 31.2833V28.3666C31.918 27.6833 32.4846 27.1166 33.168 27.1166C33.8513 27.1166 34.418 27.6833 34.418 28.3666V31.2833C34.418 31.9833 33.8513 32.5333 33.168 32.5333Z" fill="#FFA200"/>
<path d="M39.832 32.5333C39.1487 32.5333 38.582 31.9666 38.582 31.2833V28.3666C38.582 27.6833 39.1487 27.1166 39.832 27.1166C40.5154 27.1166 41.082 27.6833 41.082 28.3666V31.2833C41.082 31.9833 40.5154 32.5333 39.832 32.5333Z" fill="#FFA200"/>
<path d="M46.5 32.5333C45.8167 32.5333 45.25 31.9666 45.25 31.2833V28.3666C45.25 27.6833 45.8167 27.1166 46.5 27.1166C47.1833 27.1166 47.75 27.6833 47.75 28.3666V31.2833C47.75 31.9833 47.1833 32.5333 46.5 32.5333Z" fill="#FFA200"/>
<path d="M60.0849 47.8666C60.0849 51.45 57.1849 54.35 53.6016 54.35V41.3666C57.1682 41.3666 60.0849 44.2833 60.0849 47.8666Z" fill="#FFA200"/>
</svg>
