<svg width="88" height="88" viewBox="0 0 88 88" fill="none" xmlns="http://www.w3.org/2000/svg">
<rect width="88" height="88" fill="#B5EDCF"/>
<path opacity="0.4" d="M40.3851 33.2833L34.6017 36.8L31.9684 32.4667C31.0017 30.8834 31.5018 28.7833 33.1018 27.8166C34.6851 26.85 36.7851 27.3499 37.7517 28.9499L40.3851 33.2833Z" fill="#3FCD82"/>
<path opacity="0.4" d="M56.1158 53.4001L56.0991 53.4167L53.9325 54.7334L51.7658 56.05L49.5991 57.3667L47.4324 58.6834L45.2658 60H45.2491C43.0658 61.3333 40.3658 60.5334 39.2491 58.25L35.7825 51.1834C34.5658 48.7167 34.9491 45.7167 36.8158 43.6667C37.2491 43.2 37.7491 42.7667 38.3325 42.4167L43.6824 39.1667C44.2824 38.8167 44.8824 38.5501 45.4991 38.4001C48.1658 37.6667 50.9991 38.7001 52.6324 40.9167L57.3158 47.2501C58.8325 49.3334 58.2991 52.0834 56.1158 53.4001Z" fill="#3FCD82"/>
<path d="M45.5013 38.4334C44.8846 38.5834 44.2846 38.8334 43.6846 39.2001L38.3346 42.4501C37.7346 42.8001 37.2513 43.2334 36.818 43.7001C36.8013 43.7001 36.8013 43.6834 36.8013 43.6834L34.0513 39.1334C33.568 38.3334 33.818 37.2834 34.6013 36.8167L40.3846 33.3001C41.1846 32.8168 42.218 33.0667 42.7013 33.85L45.468 38.4001C45.4846 38.4168 45.5013 38.4167 45.5013 38.4334Z" fill="#3FCD82"/>
<path d="M51.7679 56.0499L49.6012 57.3667L46.8179 52.7833C46.4679 52.1833 46.6513 51.4166 47.2346 51.0332C47.8513 50.6832 48.6179 50.8666 48.9846 51.4499L51.7679 56.0499Z" fill="#3FCD82"/>
<path d="M47.4316 58.7L45.2649 60.0166L42.4816 55.4333C42.1149 54.8333 42.2982 54.0667 42.8982 53.6833C43.4982 53.3333 44.2649 53.5167 44.6482 54.1L47.4316 58.7Z" fill="#3FCD82"/>
<path d="M56.1 53.4167L53.9333 54.7333L51.1499 50.15C50.7999 49.55 50.9833 48.7833 51.5666 48.4C52.1833 48.05 52.95 48.2333 53.3166 48.8167L56.1 53.4167Z" fill="#3FCD82"/>
</svg>
