<svg width="88" height="88" viewBox="0 0 88 88" fill="none" xmlns="http://www.w3.org/2000/svg">
<rect width="88" height="88" fill="#FFD2CF"/>
<path opacity="0.4" d="M60.099 41.4L58.4657 48.3666C57.0657 54.3833 54.299 56.8166 49.099 56.3166C48.2657 56.25 47.3657 56.1 46.399 55.8666L43.599 55.2C36.649 53.55 34.499 50.1166 36.1323 43.15L37.7657 36.1666C38.099 34.75 38.499 33.5166 38.999 32.5C40.949 28.4666 44.2657 27.3833 49.8323 28.7L52.6157 29.35C59.599 30.9833 61.7323 34.4333 60.099 41.4Z" fill="#FE6257"/>
<path d="M49.0986 56.3167C48.0653 57.0167 46.7653 57.6 45.182 58.1167L42.5486 58.9833C35.9319 61.1167 32.4486 59.3333 30.2986 52.7167L28.1653 46.1333C26.0319 39.5167 27.7986 36.0167 34.4153 33.8833L37.0486 33.0167C37.7319 32.8 38.3819 32.6167 38.9986 32.5C38.4986 33.5167 38.0986 34.75 37.7653 36.1667L36.1319 43.15C34.4986 50.1167 36.6486 53.55 43.5986 55.2L46.3986 55.8667C47.3653 56.1 48.2653 56.25 49.0986 56.3167Z" fill="#FE6257"/>
<path d="M53.1503 41.5167C53.0503 41.5167 52.9503 41.5 52.8336 41.4833L44.7503 39.4333C44.0836 39.2667 43.6836 38.5833 43.8503 37.9167C44.0169 37.25 44.7003 36.85 45.3669 37.0167L53.4503 39.0667C54.1169 39.2333 54.5169 39.9167 54.3503 40.5833C54.2169 41.1333 53.7003 41.5167 53.1503 41.5167Z" fill="#FE6257"/>
<path d="M48.2685 47.15C48.1685 47.15 48.0685 47.1333 47.9518 47.1167L43.1018 45.8833C42.4352 45.7167 42.0352 45.0333 42.2018 44.3667C42.3685 43.7 43.0518 43.3 43.7185 43.4667L48.5685 44.7C49.2352 44.8667 49.6352 45.55 49.4685 46.2167C49.3352 46.7833 48.8352 47.15 48.2685 47.15Z" fill="#FE6257"/>
</svg>
