<svg width="88" height="88" viewBox="0 0 88 88" fill="none" xmlns="http://www.w3.org/2000/svg">
<rect width="88" height="88" fill="#B4D5FF"/>
<path opacity="0.4" d="M53.9654 41.9833V48.65C53.9654 49.0833 53.9487 49.5 53.8987 49.9C53.5154 54.4 50.8654 56.6333 45.982 56.6333H45.3154C44.8987 56.6333 44.4987 56.8333 44.2487 57.1667L42.2487 59.8333C41.3654 61.0167 39.932 61.0167 39.0487 59.8333L37.0487 57.1667C36.832 56.8833 36.3487 56.6333 35.982 56.6333H35.3154C29.9987 56.6333 27.332 55.3167 27.332 48.65V41.9833C27.332 37.1 29.582 34.45 34.0654 34.0667C34.4654 34.0167 34.882 34 35.3154 34H45.982C51.2987 34 53.9654 36.6667 53.9654 41.9833Z" fill="#0170FF"/>
<path d="M40.651 47.3333C39.7177 47.3333 38.9844 46.5833 38.9844 45.6667C38.9844 44.75 39.7344 44 40.651 44C41.5677 44 42.3177 44.75 42.3177 45.6667C42.3177 46.5833 41.5844 47.3333 40.651 47.3333Z" fill="#0170FF"/>
<path d="M46.4831 47.3333C45.5497 47.3333 44.8164 46.5833 44.8164 45.6667C44.8164 44.75 45.5664 44 46.4831 44C47.3997 44 48.1497 44.75 48.1497 45.6667C48.1497 46.5833 47.3997 47.3333 46.4831 47.3333Z" fill="#0170FF"/>
<path d="M34.8346 47.3333C33.9013 47.3333 33.168 46.5833 33.168 45.6667C33.168 44.75 33.918 44 34.8346 44C35.7513 44 36.5013 44.75 36.5013 45.6667C36.5013 46.5833 35.7513 47.3333 34.8346 47.3333Z" fill="#0170FF"/>
<path d="M60.6331 35.3167V41.9833C60.6331 46.8833 58.3831 49.5167 53.8997 49.9C53.9497 49.5 53.9664 49.0833 53.9664 48.65V41.9833C53.9664 36.6667 51.2997 34 45.9831 34H35.3164C34.8831 34 34.4664 34.0167 34.0664 34.0667C34.4497 29.5833 37.0997 27.3333 41.9831 27.3333H52.6497C57.9664 27.3333 60.6331 30 60.6331 35.3167Z" fill="#0170FF"/>
</svg>
