<svg width="242" height="260" viewBox="0 0 242 260" fill="none" xmlns="http://www.w3.org/2000/svg">
<g opacity="0.6">
<path fill-rule="evenodd" clip-rule="evenodd" d="M85.6187 31.9523C84.3887 33.6721 86.8127 39.9072 90.8008 45.3401C95.7303 52.0851 96.5603 49.9039 93.0614 39.6533C90.113 30.9152 87.8978 28.6533 85.6187 31.9523Z" fill="#FE6257"/>
<path fill-rule="evenodd" clip-rule="evenodd" d="M99.1833 64.9786C99.0785 65.5406 100.212 70.1418 101.789 75.1135C106.941 92.0295 108.074 110.865 104.776 123.074C102.707 130.562 98.9558 136.426 90.6498 145.286C85.4019 150.863 83.9911 152.723 84.2874 153.962C84.6117 155.491 84.7723 155.507 88.8896 153.859C91.2314 152.857 93.9465 152.243 94.9102 152.341C95.898 152.505 99.0546 152.254 102.054 151.761C108.36 150.813 112.684 151.41 118.435 154.039C126.516 157.758 132.273 164.201 143.563 182.259C147.312 188.311 150.818 193.695 151.444 194.141C153.632 196.113 157.721 194.176 157.602 191.301C157.567 190.565 156.313 181.809 154.858 171.862C151.347 147.98 151.214 141.219 154.079 134.855C156.371 129.68 160.827 125.963 169.754 121.807C174.707 119.481 176.222 117.882 175.452 115.767C174.803 113.983 173.425 113.811 167.269 114.555C159.354 115.565 150.238 115.591 145.606 114.574C132.792 111.897 125.043 103.567 111.884 78.2491C108.139 71.1477 104.638 64.7145 103.984 63.9797C102.655 62.6673 99.6191 63.2486 99.1681 64.9841L99.1833 64.9786ZM124.415 109.632C131.581 117.21 139.115 120.678 149.783 121.518C152.787 121.697 155.313 122.05 155.385 122.248C155.457 122.446 154.332 123.604 152.865 124.886C144.805 132.085 143.367 142.794 147.083 166.602C147.887 171.997 148.401 176.383 148.124 176.259C147.915 176.11 145.195 172.461 142.139 168.102C135.019 157.889 128.837 151.974 121.887 148.816C115.376 145.798 109.828 144.816 103.588 145.516L98.7642 146.074L102.261 141.659C110.025 131.948 113.625 119.105 112.898 103.273C112.732 98.993 112.523 95.0198 112.536 94.4166C112.548 93.8134 114.282 96.0262 116.516 99.4035C118.751 102.781 122.268 107.346 124.415 109.632Z" fill="#FE6257"/>
<path fill-rule="evenodd" clip-rule="evenodd" d="M150.213 61.4541C148.018 64.3482 145.969 70.6398 144.896 77.4658C144.118 82.7629 144.344 85.0836 145.573 84.6362C147.007 84.1143 154.775 65.4893 155.497 60.8863C155.722 59.3822 155.578 58.9858 154.659 58.7966C152.912 58.4595 152.141 58.8899 150.215 61.4615L150.213 61.4541Z" fill="#FE6257"/>
<path fill-rule="evenodd" clip-rule="evenodd" d="M61.1002 109.164C59.4971 110.496 61.4515 112.254 67.1751 114.594C78.0972 119.083 84.3528 120.548 83.6313 118.566C83.0541 116.98 70.2745 109.725 66.2715 108.712C63.0513 107.939 62.3647 107.964 61.1029 109.172L61.1002 109.164Z" fill="#FE6257"/>
<path fill-rule="evenodd" clip-rule="evenodd" d="M193.053 104.117C191.193 105.168 189.087 106.608 188.48 107.277C187.311 108.526 187.335 108.592 188.809 109.029C192.559 109.984 204.672 106.697 206.392 104.2C207.466 102.687 206.19 100.457 204.311 100.393C201.929 100.437 196.319 102.254 193.053 104.117Z" fill="#FE6257"/>
<path fill-rule="evenodd" clip-rule="evenodd" d="M42.0716 169.555C39.7414 171.227 39.7809 172.185 42.2825 172.472C45.543 172.931 62.5503 164.796 61.925 163.078C61.4921 161.888 45.5866 167.079 42.0716 169.555Z" fill="#FE6257"/>
<path fill-rule="evenodd" clip-rule="evenodd" d="M167.646 149.532C168.175 150.986 179.242 154.599 181.961 154.208C185.114 153.734 185.244 151.965 182.172 150.539C179.84 149.442 172.276 148.229 169 148.365C167.719 148.458 167.381 148.805 167.646 149.532Z" fill="#FE6257"/>
<path fill-rule="evenodd" clip-rule="evenodd" d="M105.358 182.078C102.631 188.608 101.775 193.717 103.36 194.862C103.986 195.307 104.817 195.678 105.275 195.661C106.877 195.602 108.659 191.361 109.326 185.947C110.523 175.85 108.637 174.067 105.366 182.075L105.358 182.078Z" fill="#FE6257"/>
<path fill-rule="evenodd" clip-rule="evenodd" d="M161.68 206.066C161.412 210.429 162.762 219.449 164.165 222.455C165.167 224.785 165.725 225.255 166.934 224.965C169.742 224.392 169.727 222.227 166.847 213.464C163.706 204.197 161.897 201.563 161.677 206.058L161.68 206.066Z" fill="#FE6257"/>
</g>
</svg>
