<svg width="668" height="672" viewBox="0 0 668 672" fill="none" xmlns="http://www.w3.org/2000/svg">
<g clip-path="url(#clip0_15770_52381)">
<rect width="668" height="672" fill="white"/>
<rect x="-2" width="672" height="672" fill="#1E1F26"/>
<rect opacity="0.9" x="223" y="261" width="160" height="160" rx="32" transform="rotate(-13.6419 223 261)" fill="#30313E"/>
<g style="mix-blend-mode:overlay" filter="url(#filter0_d_15770_52381)">
<mask id="path-3-outside-1_15770_52381" maskUnits="userSpaceOnUse" x="278.236" y="281.341" width="81.9107" height="77.4948" fill="black">
<rect fill="white" x="278.236" y="281.341" width="81.9107" height="77.4948"/>
<path d="M315.974 350.32C309.91 351.792 304.519 351.289 299.802 348.811C295.085 346.334 292.028 342.219 290.632 336.466L281.746 299.848L292.397 297.264L301.075 333.026C301.767 335.876 303.118 337.936 305.127 339.205C307.188 340.461 309.955 340.667 313.427 339.825C316.9 338.982 319.238 337.537 320.442 335.488C321.698 333.427 321.981 330.971 321.289 328.121L312.611 292.359L323.339 289.755L332.225 326.372C333.621 332.125 332.79 337.184 329.733 341.548C326.676 345.912 322.09 348.836 315.974 350.32ZM333.004 287.41L343.733 284.806L356.939 339.227L346.21 341.83L333.004 287.41Z"/>
</mask>
<path d="M315.974 350.32C309.91 351.792 304.519 351.289 299.802 348.811C295.085 346.334 292.028 342.219 290.632 336.466L281.746 299.848L292.397 297.264L301.075 333.026C301.767 335.876 303.118 337.936 305.127 339.205C307.188 340.461 309.955 340.667 313.427 339.825C316.9 338.982 319.238 337.537 320.442 335.488C321.698 333.427 321.981 330.971 321.289 328.121L312.611 292.359L323.339 289.755L332.225 326.372C333.621 332.125 332.79 337.184 329.733 341.548C326.676 345.912 322.09 348.836 315.974 350.32ZM333.004 287.41L343.733 284.806L356.939 339.227L346.21 341.83L333.004 287.41Z" fill="url(#paint0_linear_15770_52381)" fill-opacity="0.38" shape-rendering="crispEdges"/>
<path d="M299.802 348.811L298.746 350.823L298.746 350.823L299.802 348.811ZM281.746 299.848L281.211 297.64L279.003 298.176L279.538 300.384L281.746 299.848ZM292.397 297.264L294.605 296.728L294.069 294.52L291.861 295.056L292.397 297.264ZM305.127 339.205L303.914 341.126L303.929 341.135L303.944 341.145L305.127 339.205ZM320.442 335.488L318.502 334.306L318.493 334.321L318.484 334.337L320.442 335.488ZM312.611 292.359L312.075 290.151L309.867 290.686L310.403 292.894L312.611 292.359ZM323.339 289.755L325.547 289.219L325.011 287.011L322.803 287.547L323.339 289.755ZM329.733 341.548L331.594 342.852L331.594 342.852L329.733 341.548ZM315.974 350.32L315.438 348.112C309.814 349.477 305.005 348.977 300.858 346.8L299.802 348.811L298.746 350.823C304.034 353.6 310.006 354.106 316.51 352.528L315.974 350.32ZM299.802 348.811L300.858 346.8C296.787 344.662 294.101 341.127 292.84 335.93L290.632 336.466L288.424 337.001C289.955 343.31 293.382 348.006 298.746 350.823L299.802 348.811ZM290.632 336.466L292.84 335.93L283.954 299.312L281.746 299.848L279.538 300.384L288.424 337.001L290.632 336.466ZM281.746 299.848L282.282 302.056L292.933 299.472L292.397 297.264L291.861 295.056L281.211 297.64L281.746 299.848ZM292.397 297.264L290.189 297.799L298.868 333.562L301.075 333.026L303.283 332.49L294.605 296.728L292.397 297.264ZM301.075 333.026L298.868 333.562C299.664 336.844 301.294 339.472 303.914 341.126L305.127 339.205L306.34 337.284C304.941 336.4 303.87 334.909 303.283 332.49L301.075 333.026ZM305.127 339.205L303.944 341.145C306.722 342.838 310.184 342.95 313.963 342.033L313.427 339.825L312.891 337.617C309.725 338.385 307.653 338.084 306.309 337.265L305.127 339.205ZM313.427 339.825L313.963 342.033C317.734 341.117 320.758 339.435 322.401 336.64L320.442 335.488L318.484 334.337C317.719 335.638 316.065 336.847 312.891 337.617L313.427 339.825ZM320.442 335.488L322.382 336.67C324.017 333.988 324.298 330.887 323.497 327.585L321.289 328.121L319.081 328.656C319.663 331.056 319.379 332.866 318.502 334.306L320.442 335.488ZM321.289 328.121L323.497 327.585L314.818 291.823L312.611 292.359L310.403 292.894L319.081 328.656L321.289 328.121ZM312.611 292.359L313.146 294.566L323.875 291.963L323.339 289.755L322.803 287.547L312.075 290.151L312.611 292.359ZM323.339 289.755L321.131 290.291L330.017 326.908L332.225 326.372L334.433 325.837L325.547 289.219L323.339 289.755ZM332.225 326.372L330.017 326.908C331.278 332.106 330.511 336.478 327.873 340.244L329.733 341.548L331.594 342.852C335.07 337.89 335.964 332.145 334.433 325.837L332.225 326.372ZM329.733 341.548L327.873 340.244C325.188 344.076 321.12 346.734 315.438 348.112L315.974 350.32L316.51 352.528C323.06 350.939 328.164 347.748 331.594 342.852L329.733 341.548ZM333.004 287.41L332.469 285.202L330.261 285.738L330.796 287.946L333.004 287.41ZM343.733 284.806L345.941 284.27L345.405 282.063L343.197 282.598L343.733 284.806ZM356.939 339.227L357.475 341.435L359.683 340.899L359.147 338.691L356.939 339.227ZM346.21 341.83L344.002 342.366L344.538 344.574L346.746 344.038L346.21 341.83ZM333.004 287.41L333.54 289.618L344.269 287.014L343.733 284.806L343.197 282.598L332.469 285.202L333.004 287.41ZM343.733 284.806L341.525 285.342L354.731 339.763L356.939 339.227L359.147 338.691L345.941 284.27L343.733 284.806ZM356.939 339.227L356.403 337.019L345.675 339.622L346.21 341.83L346.746 344.038L357.475 341.435L356.939 339.227ZM346.21 341.83L348.418 341.295L335.212 286.874L333.004 287.41L330.796 287.946L344.002 342.366L346.21 341.83Z" fill="white" fill-opacity="0.53" mask="url(#path-3-outside-1_15770_52381)"/>
</g>
<mask id="mask0_15770_52381" style="mask-type:alpha" maskUnits="userSpaceOnUse" x="-2" y="0" width="672" height="672">
<rect x="-2" width="672" height="672" fill="#1E1F26"/>
</mask>
<g mask="url(#mask0_15770_52381)">
<rect opacity="0.1" x="119.84" y="121.84" width="428.188" height="428.188" rx="133.494" stroke="#5D5F72" stroke-width="1.67917"/>
<rect opacity="0.05" x="39.3083" y="41.3064" width="589.388" height="589.388" rx="214.094" stroke="#5D5F72" stroke-width="1.67917"/>
<rect opacity="0.02" x="-68.1604" y="-66.1604" width="804.321" height="804.321" rx="321.56" stroke="#5D5F72" stroke-width="1.67917"/>
</g>
<g filter="url(#filter1_d_15770_52381)">
<rect x="298.039" y="218.934" width="160" height="160" rx="32" transform="rotate(17 298.039 218.934)" fill="#30313E"/>
</g>
<g filter="url(#filter2_d_15770_52381)">
<rect x="420.566" y="273.126" width="35" height="20" rx="10" transform="rotate(17 420.566 273.126)" fill="url(#paint1_linear_15770_52381)" shape-rendering="crispEdges"/>
<path d="M434.315 282.842L435.326 283.151L433.636 288.677C433.462 289.248 433.172 289.716 432.766 290.082C432.363 290.446 431.879 290.683 431.314 290.793C430.75 290.899 430.14 290.853 429.486 290.652C428.831 290.452 428.299 290.15 427.891 289.746C427.484 289.339 427.214 288.872 427.081 288.344C426.952 287.814 426.974 287.264 427.149 286.694L428.838 281.168L429.849 281.477L428.184 286.921C428.06 287.329 428.038 287.719 428.121 288.092C428.204 288.462 428.383 288.788 428.659 289.072C428.938 289.353 429.31 289.565 429.775 289.707C430.239 289.849 430.666 289.881 431.055 289.804C431.445 289.724 431.776 289.554 432.049 289.293C432.326 289.03 432.526 288.694 432.651 288.287L434.315 282.842ZM437.833 283.918L438.923 288.048L438.988 288.068L442.202 285.254L443.392 285.617L439.491 288.988L440.84 293.963L439.65 293.6L438.54 289.535L438.475 289.515L435.281 292.264L434.092 291.9L438.057 288.549L436.643 283.554L437.833 283.918Z" fill="white"/>
</g>
<g style="mix-blend-mode:overlay" filter="url(#filter3_d_15770_52381)">
<mask id="path-12-outside-2_15770_52381" maskUnits="userSpaceOnUse" x="295.913" y="275.154" width="115.962" height="90.0691" fill="black">
<rect fill="white" x="295.913" y="275.154" width="115.962" height="90.0691"/>
<path d="M320.149 339.8C314.182 337.975 309.8 334.795 307.004 330.259C304.208 325.724 303.675 320.625 305.406 314.964L316.423 278.93L326.904 282.135L316.145 317.327C315.287 320.132 315.399 322.592 316.481 324.708C317.614 326.839 319.89 328.427 323.307 329.471C326.724 330.516 329.473 330.464 331.553 329.316C333.684 328.182 335.178 326.213 336.036 323.408L346.795 288.216L357.353 291.444L346.336 327.477C344.605 333.139 341.313 337.068 336.458 339.265C331.604 341.461 326.168 341.64 320.149 339.8ZM390.446 360.12L378.435 356.448L373.363 335.824L357.626 350.086L345.691 346.437L370.46 323.978L362.905 293.141L374.84 296.79L379.491 315.78L393.966 302.638L405.901 306.287L382.418 327.55L390.446 360.12Z"/>
</mask>
<path d="M320.149 339.8C314.182 337.975 309.8 334.795 307.004 330.259C304.208 325.724 303.675 320.625 305.406 314.964L316.423 278.93L326.904 282.135L316.145 317.327C315.287 320.132 315.399 322.592 316.481 324.708C317.614 326.839 319.89 328.427 323.307 329.471C326.724 330.516 329.473 330.464 331.553 329.316C333.684 328.182 335.178 326.213 336.036 323.408L346.795 288.216L357.353 291.444L346.336 327.477C344.605 333.139 341.313 337.068 336.458 339.265C331.604 341.461 326.168 341.64 320.149 339.8ZM390.446 360.12L378.435 356.448L373.363 335.824L357.626 350.086L345.691 346.437L370.46 323.978L362.905 293.141L374.84 296.79L379.491 315.78L393.966 302.638L405.901 306.287L382.418 327.55L390.446 360.12Z" fill="url(#paint2_linear_15770_52381)" fill-opacity="0.38" shape-rendering="crispEdges"/>
<path d="M307.004 330.259L305.07 331.452L305.07 331.452L307.004 330.259ZM316.423 278.93L317.087 276.758L314.914 276.093L314.25 278.266L316.423 278.93ZM326.904 282.135L329.077 282.799L329.741 280.626L327.568 279.962L326.904 282.135ZM316.481 324.708L314.459 325.742L314.467 325.758L314.475 325.774L316.481 324.708ZM331.553 329.316L330.486 327.31L330.47 327.318L330.454 327.327L331.553 329.316ZM346.795 288.216L347.459 286.043L345.287 285.379L344.622 287.552L346.795 288.216ZM357.353 291.444L359.525 292.108L360.19 289.935L358.017 289.271L357.353 291.444ZM336.458 339.265L337.395 341.334L337.395 341.334L336.458 339.265ZM320.149 339.8L320.813 337.627C315.279 335.935 311.396 333.054 308.938 329.067L307.004 330.259L305.07 331.452C308.205 336.536 313.085 340.016 319.485 341.972L320.149 339.8ZM307.004 330.259L308.938 329.067C306.525 325.153 306.015 320.743 307.579 315.628L305.406 314.964L303.234 314.3C301.336 320.508 301.891 326.295 305.07 331.452L307.004 330.259ZM305.406 314.964L307.579 315.628L318.595 279.595L316.423 278.93L314.25 278.266L303.234 314.3L305.406 314.964ZM316.423 278.93L315.759 281.103L326.24 284.307L326.904 282.135L327.568 279.962L317.087 276.758L316.423 278.93ZM326.904 282.135L324.731 281.471L313.972 316.663L316.145 317.327L318.317 317.991L329.077 282.799L326.904 282.135ZM316.145 317.327L313.972 316.663C312.985 319.892 313.048 322.985 314.459 325.742L316.481 324.708L318.504 323.673C317.751 322.2 317.59 320.372 318.317 317.991L316.145 317.327ZM316.481 324.708L314.475 325.774C316.003 328.647 318.924 330.507 322.643 331.644L323.307 329.471L323.971 327.299C320.855 326.346 319.226 325.031 318.487 323.641L316.481 324.708ZM323.307 329.471L322.643 331.644C326.354 332.779 329.813 332.872 332.651 331.304L331.553 329.316L330.454 327.327C329.133 328.057 327.094 328.254 323.971 327.299L323.307 329.471ZM331.553 329.316L332.619 331.322C335.393 329.847 337.215 327.322 338.208 324.072L336.036 323.408L333.863 322.744C333.141 325.105 331.974 326.518 330.486 327.31L331.553 329.316ZM336.036 323.408L338.208 324.072L348.968 288.88L346.795 288.216L344.622 287.552L333.863 322.744L336.036 323.408ZM346.795 288.216L346.131 290.389L356.688 293.617L357.353 291.444L358.017 289.271L347.459 286.043L346.795 288.216ZM357.353 291.444L355.18 290.78L344.163 326.813L346.336 327.477L348.509 328.142L359.525 292.108L357.353 291.444ZM346.336 327.477L344.163 326.813C342.6 331.928 339.711 335.299 335.522 337.195L336.458 339.265L337.395 341.334C342.914 338.837 346.611 334.35 348.509 328.142L346.336 327.477ZM336.458 339.265L335.522 337.195C331.259 339.123 326.404 339.336 320.813 337.627L320.149 339.8L319.485 341.972C325.931 343.943 331.949 343.799 337.395 341.334L336.458 339.265ZM390.446 360.12L389.782 362.293L393.61 363.463L392.652 359.577L390.446 360.12ZM378.435 356.448L376.228 356.991L376.537 358.244L377.77 358.621L378.435 356.448ZM373.363 335.824L375.569 335.282L374.66 331.583L371.837 334.141L373.363 335.824ZM357.626 350.086L356.961 352.259L358.195 352.636L359.151 351.77L357.626 350.086ZM345.691 346.437L344.165 344.754L341.202 347.441L345.027 348.61L345.691 346.437ZM370.46 323.978L371.986 325.661L372.988 324.752L372.666 323.437L370.46 323.978ZM362.905 293.141L363.569 290.969L359.748 289.8L360.699 293.682L362.905 293.141ZM374.84 296.79L377.047 296.25L376.739 294.995L375.504 294.618L374.84 296.79ZM379.491 315.78L377.284 316.32L378.192 320.028L381.018 317.462L379.491 315.78ZM393.966 302.638L394.63 300.465L393.395 300.087L392.439 300.956L393.966 302.638ZM405.901 306.287L407.426 307.971L410.393 305.284L406.565 304.114L405.901 306.287ZM382.418 327.55L380.893 325.866L379.887 326.776L380.212 328.094L382.418 327.55ZM390.446 360.12L391.11 357.948L379.099 354.275L378.435 356.448L377.77 358.621L389.782 362.293L390.446 360.12ZM378.435 356.448L380.641 355.906L375.569 335.282L373.363 335.824L371.157 336.367L376.228 356.991L378.435 356.448ZM373.363 335.824L371.837 334.141L356.1 348.403L357.626 350.086L359.151 351.77L374.889 337.508L373.363 335.824ZM357.626 350.086L358.29 347.913L346.355 344.265L345.691 346.437L345.027 348.61L356.961 352.259L357.626 350.086ZM345.691 346.437L347.217 348.12L371.986 325.661L370.46 323.978L368.934 322.295L344.165 344.754L345.691 346.437ZM370.46 323.978L372.666 323.437L365.112 292.601L362.905 293.141L360.699 293.682L368.253 324.518L370.46 323.978ZM362.905 293.141L362.241 295.314L374.176 298.963L374.84 296.79L375.504 294.618L363.569 290.969L362.905 293.141ZM374.84 296.79L372.633 297.331L377.284 316.32L379.491 315.78L381.698 315.239L377.047 296.25L374.84 296.79ZM379.491 315.78L381.018 317.462L395.493 304.32L393.966 302.638L392.439 300.956L377.964 314.098L379.491 315.78ZM393.966 302.638L393.302 304.81L405.236 308.459L405.901 306.287L406.565 304.114L394.63 300.465L393.966 302.638ZM405.901 306.287L404.376 304.602L380.893 325.866L382.418 327.55L383.943 329.234L407.426 307.971L405.901 306.287ZM382.418 327.55L380.212 328.094L388.24 360.664L390.446 360.12L392.652 359.577L384.624 327.006L382.418 327.55Z" fill="white" fill-opacity="0.53" mask="url(#path-12-outside-2_15770_52381)"/>
</g>
</g>
<defs>
<filter id="filter0_d_15770_52381" x="259.065" y="282.062" width="120.558" height="111.23" filterUnits="userSpaceOnUse" color-interpolation-filters="sRGB">
<feFlood flood-opacity="0" result="BackgroundImageFix"/>
<feColorMatrix in="SourceAlpha" type="matrix" values="0 0 0 0 0 0 0 0 0 0 0 0 0 0 0 0 0 0 127 0" result="hardAlpha"/>
<feOffset dy="19.9393"/>
<feGaussianBlur stdDeviation="9.96967"/>
<feComposite in2="hardAlpha" operator="out"/>
<feColorMatrix type="matrix" values="0 0 0 0 0 0 0 0 0 0 0 0 0 0 0 0 0 0 0.1 0"/>
<feBlend mode="normal" in2="BackgroundImageFix" result="effect1_dropShadow_15770_52381"/>
<feBlend mode="normal" in="SourceGraphic" in2="effect1_dropShadow_15770_52381" result="shape"/>
</filter>
<filter id="filter1_d_15770_52381" x="240.051" y="211.726" width="222.207" height="222.204" filterUnits="userSpaceOnUse" color-interpolation-filters="sRGB">
<feFlood flood-opacity="0" result="BackgroundImageFix"/>
<feColorMatrix in="SourceAlpha" type="matrix" values="0 0 0 0 0 0 0 0 0 0 0 0 0 0 0 0 0 0 127 0" result="hardAlpha"/>
<feOffset dy="4"/>
<feGaussianBlur stdDeviation="10"/>
<feComposite in2="hardAlpha" operator="out"/>
<feColorMatrix type="matrix" values="0 0 0 0 0 0 0 0 0 0 0 0 0 0 0 0 0 0 0.05 0"/>
<feBlend mode="normal" in2="BackgroundImageFix" result="effect1_dropShadow_15770_52381"/>
<feBlend mode="normal" in="SourceGraphic" in2="effect1_dropShadow_15770_52381" result="shape"/>
</filter>
<filter id="filter2_d_15770_52381" x="410.719" y="273.126" width="47.3164" height="37.3594" filterUnits="userSpaceOnUse" color-interpolation-filters="sRGB">
<feFlood flood-opacity="0" result="BackgroundImageFix"/>
<feColorMatrix in="SourceAlpha" type="matrix" values="0 0 0 0 0 0 0 0 0 0 0 0 0 0 0 0 0 0 127 0" result="hardAlpha"/>
<feOffset dy="4"/>
<feGaussianBlur stdDeviation="2"/>
<feComposite in2="hardAlpha" operator="out"/>
<feColorMatrix type="matrix" values="0 0 0 0 0 0 0 0 0 0 0 0 0 0 0 0 0 0 0.05 0"/>
<feBlend mode="normal" in2="BackgroundImageFix" result="effect1_dropShadow_15770_52381"/>
<feBlend mode="normal" in="SourceGraphic" in2="effect1_dropShadow_15770_52381" result="shape"/>
</filter>
<filter id="filter3_d_15770_52381" x="282.201" y="276.094" width="148.133" height="127.248" filterUnits="userSpaceOnUse" color-interpolation-filters="sRGB">
<feFlood flood-opacity="0" result="BackgroundImageFix"/>
<feColorMatrix in="SourceAlpha" type="matrix" values="0 0 0 0 0 0 0 0 0 0 0 0 0 0 0 0 0 0 127 0" result="hardAlpha"/>
<feOffset dy="19.9393"/>
<feGaussianBlur stdDeviation="9.96967"/>
<feComposite in2="hardAlpha" operator="out"/>
<feColorMatrix type="matrix" values="0 0 0 0 0 0 0 0 0 0 0 0 0 0 0 0 0 0 0.1 0"/>
<feBlend mode="normal" in2="BackgroundImageFix" result="effect1_dropShadow_15770_52381"/>
<feBlend mode="normal" in="SourceGraphic" in2="effect1_dropShadow_15770_52381" result="shape"/>
</filter>
<linearGradient id="paint0_linear_15770_52381" x1="312.956" y1="292.275" x2="326.162" y2="346.695" gradientUnits="userSpaceOnUse">
<stop stop-color="white"/>
<stop offset="1" stop-color="white" stop-opacity="0.5"/>
</linearGradient>
<linearGradient id="paint1_linear_15770_52381" x1="438.066" y1="273.126" x2="438.066" y2="293.126" gradientUnits="userSpaceOnUse">
<stop stop-color="#FFC847"/>
<stop offset="1" stop-color="#FF9A47"/>
</linearGradient>
<linearGradient id="paint2_linear_15770_52381" x1="359.836" y1="292.203" x2="343.464" y2="345.756" gradientUnits="userSpaceOnUse">
<stop stop-color="white"/>
<stop offset="1" stop-color="white" stop-opacity="0.5"/>
</linearGradient>
<clipPath id="clip0_15770_52381">
<rect width="668" height="672" fill="white"/>
</clipPath>
</defs>
</svg>
