<svg width="92" height="92" viewBox="0 0 92 92" fill="none" xmlns="http://www.w3.org/2000/svg">
<rect x="4" y="16" width="72" height="72" rx="36" fill="#10302A" stroke="white" stroke-width="8"/>
<path d="M39.875 52.0816C39.875 48.7531 42.5339 46.0547 45.8139 46.0547C49.0938 46.0547 51.7529 48.7531 51.7529 52.0816C51.7529 55.4103 49.0938 58.1086 45.8139 58.1086C42.5339 58.1086 39.875 55.4103 39.875 52.0816Z" fill="#1ABCFE"/>
<path d="M28 64.1342C28 60.8058 30.6589 58.1074 33.9389 58.1074H39.8779V64.1342C39.8779 67.4629 37.2189 70.1612 33.9389 70.1612C30.6589 70.1612 28 67.4629 28 64.1342Z" fill="#0ACF83"/>
<path d="M39.875 34V46.0537H45.8139C49.0939 46.0537 51.7529 43.3555 51.7529 40.0269C51.7529 36.6984 49.0939 34 45.8139 34H39.875Z" fill="#FF7262"/>
<path d="M28 40.0269C28 43.3555 30.6589 46.0537 33.9389 46.0537H39.8779V34H33.9389C30.6589 34 28 36.6984 28 40.0269Z" fill="#F24E1E"/>
<path d="M28 52.0816C28 55.4103 30.6589 58.1086 33.9389 58.1086H39.8779V46.0547H33.9389C30.6589 46.0547 28 48.7531 28 52.0816Z" fill="#A259FF"/>
<path d="M81.289 17.6862L80.0675 14.0599C79.7344 13.0588 78.9571 12.2579 77.9355 11.9242L74.3155 10.7006C71.1841 9.65502 71.2507 5.25011 74.3821 4.27124L87.5963 0.155545C90.2169 -0.645347 92.6598 1.77958 91.8381 4.38248L87.7295 17.6417C86.7523 20.7563 82.3328 20.8008 81.289 17.6862Z" fill="#121F3E"/>
</svg>
