<svg width="92" height="93" viewBox="0 0 92 93" fill="none" xmlns="http://www.w3.org/2000/svg">
<rect x="16" y="16.0118" width="72" height="72" rx="36" fill="#E0EEB5" stroke="white" stroke-width="8"/>
<g clip-path="url(#clip0_16886_57346)">
<mask id="mask0_16886_57346" style="mask-type:luminance" maskUnits="userSpaceOnUse" x="36" y="36" width="32" height="33">
<path d="M36 36.0117H68V68.0117H36V36.0117Z" fill="white"/>
</mask>
<g mask="url(#mask0_16886_57346)">
<path d="M42.72 56.2357C42.7184 56.8999 42.52 57.5487 42.1498 58.1002C41.7797 58.6517 41.2544 59.0812 40.6403 59.3342C40.0262 59.5873 39.3508 59.6527 38.6996 59.5222C38.0484 59.3916 37.4504 59.071 36.9813 58.6008C36.5122 58.1305 36.193 57.5318 36.064 56.8803C35.935 56.2287 36.002 55.5535 36.2565 54.9401C36.5111 54.3266 36.9417 53.8023 37.4941 53.4334C38.0465 53.0646 38.6958 52.8677 39.36 52.8677H42.72V56.2357ZM44.416 56.2357C44.3938 55.7801 44.4643 55.3248 44.6233 54.8973C44.7824 54.4698 45.0266 54.0791 45.3411 53.7488C45.6557 53.4185 46.0341 53.1556 46.4533 52.9759C46.8725 52.7963 47.3239 52.7036 47.78 52.7036C48.2361 52.7036 48.6875 52.7963 49.1067 52.9759C49.5259 53.1556 49.9043 53.4185 50.2189 53.7488C50.5334 54.0791 50.7776 54.4698 50.9366 54.8973C51.0957 55.3248 51.1662 55.7801 51.144 56.2357V64.6517C51.1019 65.5155 50.729 66.33 50.1028 66.9265C49.4765 67.5229 48.6448 67.8556 47.78 67.8556C46.9152 67.8556 46.0835 67.5229 45.4572 66.9265C44.8309 66.33 44.4581 65.5155 44.416 64.6517V56.2357Z" fill="#E01E5A"/>
<path d="M47.7762 42.7317C47.112 42.7301 46.4631 42.5317 45.9116 42.1616C45.3601 41.7914 44.9307 41.2661 44.6776 40.652C44.4245 40.0379 44.3591 39.3626 44.4897 38.7113C44.6202 38.0601 44.9409 37.4621 45.4111 36.993C45.8813 36.5239 46.48 36.2047 47.1316 36.0757C47.7831 35.9467 48.4583 36.0137 49.0718 36.2682C49.6853 36.5228 50.2096 36.9535 50.5784 37.5058C50.9473 38.0582 51.1442 38.7075 51.1442 39.3717V42.7317H47.7762ZM47.7762 44.4277C48.2317 44.4055 48.6871 44.476 49.1145 44.6351C49.542 44.7941 49.9328 45.0383 50.263 45.3528C50.5933 45.6674 50.8563 46.0458 51.0359 46.465C51.2156 46.8842 51.3083 47.3356 51.3083 47.7917C51.3083 48.2478 51.2156 48.6992 51.0359 49.1184C50.8563 49.5376 50.5933 49.916 50.263 50.2306C49.9328 50.5451 49.542 50.7893 49.1145 50.9484C48.6871 51.1074 48.2317 51.1779 47.7762 51.1557H39.3602C38.4963 51.1136 37.6818 50.7408 37.0854 50.1145C36.4889 49.4882 36.1562 48.6566 36.1562 47.7917C36.1562 46.9269 36.4889 46.0952 37.0854 45.4689C37.6818 44.8427 38.4963 44.4698 39.3602 44.4277H47.7762Z" fill="#36C5F0"/>
<path d="M61.2804 47.7877C61.2819 47.1235 61.4803 46.4747 61.8505 45.9232C62.2207 45.3717 62.746 44.9423 63.3601 44.6892C63.9742 44.4361 64.6495 44.3707 65.3008 44.5013C65.952 44.6318 66.55 44.9525 67.0191 45.4227C67.4882 45.8929 67.8074 46.4916 67.9364 47.1432C68.0654 47.7947 67.9984 48.4699 67.7438 49.0834C67.4893 49.6969 67.0586 50.2212 66.5062 50.59C65.9539 50.9589 65.3046 51.1557 64.6404 51.1557H61.2804V47.7877ZM59.5844 47.7877C59.6088 48.2446 59.5399 48.7017 59.3818 49.1311C59.2238 49.5605 58.98 49.9531 58.6652 50.2852C58.3504 50.6172 57.9713 50.8817 57.551 51.0624C57.1306 51.2431 56.6779 51.3363 56.2204 51.3363C55.7628 51.3363 55.3101 51.2431 54.8898 51.0624C54.4694 50.8817 54.0903 50.6172 53.7755 50.2852C53.4608 49.9531 53.2169 49.5605 53.0589 49.1311C52.9009 48.7017 52.8319 48.2446 52.8564 47.7877V39.3717C52.8985 38.5079 53.2713 37.6934 53.8976 37.097C54.5238 36.5005 55.3555 36.1678 56.2204 36.1678C57.0852 36.1678 57.9169 36.5005 58.5432 37.097C59.1694 37.6934 59.5422 38.5079 59.5844 39.3717V47.7877Z" fill="#2EB67D"/>
<path d="M56.2274 61.2918C56.8916 61.2934 57.5404 61.4918 58.0919 61.8619C58.6434 62.2321 59.0729 62.7574 59.3259 63.3715C59.579 63.9856 59.6444 64.6609 59.5139 65.3122C59.3833 65.9634 59.0627 66.5614 58.5925 67.0305C58.1222 67.4996 57.5235 67.8188 56.872 67.9478C56.2204 68.0768 55.5452 68.0098 54.9318 67.7552C54.3183 67.5007 53.794 67.07 53.4251 66.5177C53.0563 65.9653 52.8594 65.316 52.8594 64.6518V61.2918H56.2274ZM56.2274 59.5958C55.7718 59.618 55.3165 59.5475 54.889 59.3884C54.4615 59.2294 54.0708 58.9852 53.7405 58.6706C53.4102 58.3561 53.1473 57.9777 52.9676 57.5585C52.788 57.1392 52.6953 56.6879 52.6953 56.2318C52.6953 55.7757 52.788 55.3243 52.9676 54.9051C53.1473 54.4858 53.4102 54.1075 53.7405 53.7929C54.0708 53.4783 54.4615 53.2341 54.889 53.0751C55.3165 52.9161 55.7718 52.8455 56.2274 52.8678H64.6434C65.5072 52.9099 66.3217 53.2827 66.9182 53.909C67.5146 54.5352 67.8473 55.3669 67.8473 56.2318C67.8473 57.0966 67.5146 57.9283 66.9182 58.5546C66.3217 59.1808 65.5072 59.5536 64.6434 59.5958H56.2274Z" fill="#ECB22E"/>
</g>
</g>
<path d="M18.5235 10.8675L15.0127 12.3893C14.0431 12.8054 13.3104 13.6472 13.0637 14.6933L12.1485 18.4033C11.3697 21.6114 6.97478 21.9151 5.73629 18.877L0.52497 6.0554C-0.493259 3.51134 1.71785 0.873302 4.38058 1.47344L17.9381 4.45354C21.1238 5.1656 21.5394 9.56575 18.5235 10.8675Z" fill="#121F3E"/>
<defs>
<clipPath id="clip0_16886_57346">
<rect width="32" height="32" fill="white" transform="translate(36 36.0117)"/>
</clipPath>
</defs>
</svg>
