<svg width="1920" height="1160" viewBox="0 0 1920 1160" fill="none" xmlns="http://www.w3.org/2000/svg">
<mask id="mask0_16886_57215" style="mask-type:alpha" maskUnits="userSpaceOnUse" x="0" y="0" width="1920" height="1160">
<rect width="1920" height="1160" fill="#D9D9D9"/>
</mask>
<g mask="url(#mask0_16886_57215)">
<g opacity="0.1" filter="url(#filter0_f_16886_57215)">
<rect x="174" y="-99" width="554" height="554" rx="277" fill="#2E6359"/>
</g>
<g opacity="0.1" filter="url(#filter1_f_16886_57215)">
<rect x="1300" y="-157" width="523" height="523" rx="261.5" fill="#FEA757"/>
</g>
<g opacity="0.1" filter="url(#filter2_f_16886_57215)">
<rect x="859" y="93" width="523" height="523" rx="261.5" fill="#F9CB54"/>
</g>
</g>
<circle opacity="0.5" cx="270" cy="811" r="2" fill="#D9E362"/>
<circle opacity="0.7" cx="246" cy="710" r="8" fill="#9CD161"/>
<circle opacity="0.7" cx="922" cy="679" r="8" fill="#588B1E"/>
<circle opacity="0.4" cx="226" cy="951" r="5" fill="#20968F"/>
<circle opacity="0.4" cx="1594" cy="783" r="4" fill="#0170FF"/>
<circle opacity="0.4" cx="1628" cy="1020" r="4" fill="#FE6257"/>
<circle opacity="0.6" cx="1588" cy="955" r="2" fill="#3FCD82"/>
<circle opacity="0.5" cx="1169" cy="676" r="5" fill="#D1E9DA"/>
<circle cx="1566" cy="597" r="4" fill="#FFE2AB"/>
<circle cx="1186" cy="597" r="4" fill="#FFA200"/>
<circle opacity="0.7" cx="719" cy="610" r="2" fill="#2E6359"/>
<circle cx="368.5" cy="577.5" r="2.5" fill="#3FCD82"/>
<circle opacity="0.8" cx="258.5" cy="558.5" r="4.5" fill="#2E6359"/>
<circle cx="303" cy="597" r="4" fill="#DBE6F0"/>
<defs>
<filter id="filter0_f_16886_57215" x="-326" y="-599" width="1554" height="1554" filterUnits="userSpaceOnUse" color-interpolation-filters="sRGB">
<feFlood flood-opacity="0" result="BackgroundImageFix"/>
<feBlend mode="normal" in="SourceGraphic" in2="BackgroundImageFix" result="shape"/>
<feGaussianBlur stdDeviation="250" result="effect1_foregroundBlur_16886_57215"/>
</filter>
<filter id="filter1_f_16886_57215" x="1100" y="-357" width="923" height="923" filterUnits="userSpaceOnUse" color-interpolation-filters="sRGB">
<feFlood flood-opacity="0" result="BackgroundImageFix"/>
<feBlend mode="normal" in="SourceGraphic" in2="BackgroundImageFix" result="shape"/>
<feGaussianBlur stdDeviation="100" result="effect1_foregroundBlur_16886_57215"/>
</filter>
<filter id="filter2_f_16886_57215" x="659" y="-107" width="923" height="923" filterUnits="userSpaceOnUse" color-interpolation-filters="sRGB">
<feFlood flood-opacity="0" result="BackgroundImageFix"/>
<feBlend mode="normal" in="SourceGraphic" in2="BackgroundImageFix" result="shape"/>
<feGaussianBlur stdDeviation="100" result="effect1_foregroundBlur_16886_57215"/>
</filter>
</defs>
</svg>
