<svg width="40" height="40" viewBox="0 0 40 40" fill="none" xmlns="http://www.w3.org/2000/svg">
<rect opacity="0.3" width="40" height="40" rx="20" fill="#FFA200"/>
<path opacity="0.4" d="M28.3611 20.73C27.9911 20.73 27.6811 20.45 27.6411 20.08C27.4011 17.88 26.2211 15.9 24.4011 14.64C24.0711 14.41 23.9911 13.96 24.2211 13.63C24.4511 13.3 24.9011 13.22 25.2311 13.45C27.4011 14.96 28.8011 17.32 29.0911 19.93C29.1311 20.33 28.8411 20.69 28.4411 20.73C28.4111 20.73 28.3911 20.73 28.3611 20.73Z" fill="#FFA200"/>
<path opacity="0.4" d="M11.7393 20.78C11.7193 20.78 11.6893 20.78 11.6693 20.78C11.2693 20.74 10.9793 20.38 11.0193 19.98C11.2893 17.37 12.6693 15.01 14.8193 13.49C15.1393 13.26 15.5993 13.34 15.8293 13.66C16.0593 13.99 15.9793 14.44 15.6593 14.67C13.8593 15.95 12.6893 17.93 12.4693 20.12C12.4293 20.5 12.1093 20.78 11.7393 20.78Z" fill="#FFA200"/>
<path opacity="0.4" d="M23.9886 29.1C22.7586 29.69 21.4386 29.99 20.0586 29.99C18.6186 29.99 17.2486 29.67 15.9686 29.02C15.6086 28.85 15.4686 28.41 15.6486 28.05C15.8186 27.69 16.2586 27.55 16.6186 27.72C17.2486 28.04 17.9186 28.26 18.5986 28.39C19.5186 28.57 20.4586 28.58 21.3786 28.42C22.0586 28.3 22.7286 28.09 23.3486 27.79C23.7186 27.62 24.1586 27.76 24.3186 28.13C24.4986 28.49 24.3586 28.93 23.9886 29.1Z" fill="#FFA200"/>
<path d="M20.0505 10.01C18.5005 10.01 17.2305 11.27 17.2305 12.83C17.2305 14.39 18.4905 15.65 20.0505 15.65C21.6105 15.65 22.8705 14.39 22.8705 12.83C22.8705 11.27 21.6105 10.01 20.0505 10.01Z" fill="#FFA200"/>
<path d="M13.0505 21.87C11.5005 21.87 10.2305 23.13 10.2305 24.69C10.2305 26.25 11.4905 27.51 13.0505 27.51C14.6105 27.51 15.8705 26.25 15.8705 24.69C15.8705 23.13 14.6005 21.87 13.0505 21.87Z" fill="#FFA200"/>
<path d="M26.9489 21.87C25.3989 21.87 24.1289 23.13 24.1289 24.69C24.1289 26.25 25.3889 27.51 26.9489 27.51C28.5089 27.51 29.7689 26.25 29.7689 24.69C29.7689 23.13 28.5089 21.87 26.9489 21.87Z" fill="#FFA200"/>
</svg>
