<svg width="40" height="40" viewBox="0 0 40 40" fill="none" xmlns="http://www.w3.org/2000/svg">
<rect opacity="0.3" width="40" height="40" rx="20" fill="#FFA200"/>
<path opacity="0.4" d="M20.0011 25.35C20.9013 25.35 21.6311 24.6202 21.6311 23.72C21.6311 22.8197 20.9013 22.09 20.0011 22.09C19.1009 22.09 18.3711 22.8197 18.3711 23.72C18.3711 24.6202 19.1009 25.35 20.0011 25.35Z" fill="#FFA200"/>
<path d="M24.65 17.4399H15.35C11.25 17.4399 10 18.6899 10 22.7899V24.6499C10 28.7499 11.25 29.9999 15.35 29.9999H24.65C28.75 29.9999 30 28.7499 30 24.6499V22.7899C30 18.6899 28.75 17.4399 24.65 17.4399ZM20 26.7399C18.33 26.7399 16.98 25.3799 16.98 23.7199C16.98 22.0599 18.33 20.6999 20 20.6999C21.67 20.6999 23.02 22.0599 23.02 23.7199C23.02 25.3799 21.67 26.7399 20 26.7399Z" fill="#FFA200"/>
<path opacity="0.4" d="M15.1188 17.45V16.28C15.1188 13.35 15.9488 11.4 19.9988 11.4C24.3288 11.4 24.8787 13.51 24.8787 15.35C24.8787 15.74 25.1888 16.05 25.5788 16.05C25.9688 16.05 26.2788 15.74 26.2788 15.35C26.2788 11.8 24.1688 10 19.9988 10C14.3688 10 13.7188 13.58 13.7188 16.28V17.53C14.1387 17.48 14.6088 17.45 15.1188 17.45Z" fill="#FFA200"/>
</svg>
