<svg width="40" height="40" viewBox="0 0 40 40" fill="none" xmlns="http://www.w3.org/2000/svg">
<rect opacity="0.3" width="40" height="40" rx="20" fill="#FFA200"/>
<path opacity="0.4" d="M27.24 13.58H26.84L23.46 10.2C23.19 9.93 22.75 9.93 22.47 10.2C22.2 10.47 22.2 10.91 22.47 11.19L24.86 13.58H15.14L17.53 11.19C17.8 10.92 17.8 10.48 17.53 10.2C17.26 9.93 16.82 9.93 16.54 10.2L13.17 13.58H12.77C11.87 13.58 10 13.58 10 16.14C10 17.11 10.2 17.75 10.62 18.17C10.86 18.42 11.15 18.55 11.46 18.62C11.75 18.69 12.06 18.7 12.36 18.7H27.64C27.95 18.7 28.24 18.68 28.52 18.62C29.36 18.42 30 17.82 30 16.14C30 13.58 28.13 13.58 27.24 13.58Z" fill="#FFA200"/>
<path d="M27.6609 18.7H12.3609C12.0709 18.7 11.7509 18.69 11.4609 18.61L12.7209 26.3C13.0109 28.02 13.7609 30 17.0909 30H22.7009C26.0709 30 26.6709 28.31 27.0309 26.42L28.5409 18.61C28.2609 18.68 27.9609 18.7 27.6609 18.7ZM22.8809 23.05L19.6309 26.05C19.4909 26.18 19.3009 26.25 19.1209 26.25C18.9309 26.25 18.7409 26.18 18.5909 26.03L17.0909 24.53C16.8009 24.24 16.8009 23.76 17.0909 23.47C17.3809 23.18 17.8609 23.18 18.1509 23.47L19.1409 24.46L21.8609 21.95C22.1609 21.67 22.6409 21.69 22.9209 21.99C23.2109 22.3 23.1909 22.77 22.8809 23.05Z" fill="#FFA200"/>
</svg>
