<svg width="40" height="40" viewBox="0 0 40 40" fill="none" xmlns="http://www.w3.org/2000/svg">
<rect opacity="0.3" width="40" height="40" rx="20" fill="#FFA200"/>
<path d="M20 10C17.38 10 15.25 12.13 15.25 14.75C15.25 17.32 17.26 19.4 19.88 19.49C19.96 19.48 20.04 19.48 20.1 19.49C20.12 19.49 20.13 19.49 20.15 19.49C20.16 19.49 20.16 19.49 20.17 19.49C22.73 19.4 24.74 17.32 24.75 14.75C24.75 12.13 22.62 10 20 10Z" fill="#FFA200"/>
<path opacity="0.4" d="M25.0809 22.16C22.2909 20.3 17.7409 20.3 14.9309 22.16C13.6609 23 12.9609 24.15 12.9609 25.38C12.9609 26.61 13.6609 27.75 14.9209 28.59C16.3209 29.53 18.1609 30 20.0009 30C21.8409 30 23.6809 29.53 25.0809 28.59C26.3409 27.74 27.0409 26.6 27.0409 25.36C27.0309 24.14 26.3409 22.99 25.0809 22.16Z" fill="#FFA200"/>
<path d="M19.3683 27.26C19.2083 27.26 19.0483 27.19 18.9283 27.08L17.6683 25.82C17.4283 25.58 17.4283 25.18 17.6683 24.94C17.9083 24.7 18.3083 24.7 18.5483 24.94L19.3683 25.76L21.4483 23.68C21.6883 23.44 22.0883 23.44 22.3283 23.68C22.5683 23.92 22.5683 24.32 22.3283 24.56L19.8083 27.08C19.6883 27.2 19.5283 27.26 19.3683 27.26Z" fill="#FFA200"/>
</svg>
