<svg width="557" height="510" viewBox="0 0 557 510" fill="none" xmlns="http://www.w3.org/2000/svg">
<g clip-path="url(#clip0_15746_52332)">
<rect width="557" height="510" fill="#ECEBFD"/>
<rect opacity="0.1" x="150.5" y="127.5" width="255" height="255" rx="79.5" stroke="#646192"/>
<rect opacity="0.05" x="102.5" y="79.5" width="351" height="351" rx="127.5" stroke="#646192"/>
<rect opacity="0.02" x="38.5" y="15.5" width="479" height="479" rx="191.5" stroke="#646192"/>
<rect opacity="0.2" x="218" y="231" width="120" height="120" rx="32" fill="white"/>
<rect opacity="0.4" x="206" y="199" width="144" height="144" rx="32" fill="white"/>
<rect x="198" y="175" width="160" height="160" rx="32" fill="white"/>
<rect x="198" y="175" width="160" height="160" rx="32" fill="url(#paint0_linear_15746_52332)" fill-opacity="0.4"/>
<path opacity="0.4" d="M286.501 289.734C285.401 289.734 284.368 289 284.068 287.867C283.735 286.534 284.501 285.167 285.835 284.8C299.368 281.234 308.801 268.967 308.801 254.967C308.801 237.967 294.968 224.134 277.968 224.134C263.535 224.134 254.068 232.567 249.635 237.667H259.435C260.801 237.667 261.935 238.8 261.935 240.167C261.935 241.534 260.868 242.7 259.468 242.7H244.701C244.468 242.7 244.235 242.667 244.001 242.6C243.701 242.5 243.435 242.367 243.201 242.2C242.901 242 242.668 241.734 242.501 241.434C242.335 241.1 242.201 240.767 242.168 240.4C242.168 240.3 242.168 240.234 242.168 240.134V225C242.168 223.634 243.301 222.5 244.668 222.5C246.035 222.5 247.168 223.634 247.168 225V232.967C252.601 227.134 262.835 219.167 278.001 219.167C297.768 219.167 313.835 235.234 313.835 255C313.835 271.267 302.868 285.534 287.135 289.667C286.935 289.7 286.701 289.734 286.501 289.734Z" fill="#746FCC"/>
<path d="M275.635 290.767C275.568 290.767 275.468 290.767 275.401 290.733C271.835 290.5 268.335 289.7 265.001 288.4C264.035 288.033 263.401 287.067 263.401 286.033C263.401 285.733 263.468 285.433 263.568 285.167C264.068 283.9 265.535 283.233 266.801 283.733C269.668 284.867 272.701 285.533 275.768 285.767H275.801C277.135 285.833 278.135 286.967 278.135 288.3C278.135 288.333 278.135 288.4 278.135 288.433C278.035 289.733 276.935 290.767 275.635 290.767ZM257.268 283.6C256.701 283.6 256.168 283.433 255.701 283.067C252.901 280.833 250.468 278.2 248.435 275.233C248.135 274.8 247.968 274.333 247.968 273.833C247.968 273 248.368 272.233 249.068 271.767C250.168 271 251.801 271.3 252.535 272.4C254.301 274.967 256.401 277.233 258.835 279.133C259.401 279.6 259.768 280.3 259.768 281.067C259.768 281.633 259.601 282.2 259.235 282.667C258.768 283.267 258.035 283.6 257.268 283.6ZM246.135 267.333C245.035 267.333 244.068 266.633 243.768 265.6C242.701 262.167 242.168 258.6 242.168 255C242.168 253.633 243.301 252.5 244.668 252.5C246.035 252.5 247.168 253.633 247.168 255C247.168 258.1 247.635 261.167 248.535 264.1C248.601 264.333 248.635 264.6 248.635 264.867C248.635 265.967 247.935 266.9 246.901 267.233C246.635 267.3 246.401 267.333 246.135 267.333Z" fill="#746FCC"/>
<path opacity="0.4" d="M278.001 268.334C285.365 268.334 291.335 262.364 291.335 255C291.335 247.637 285.365 241.667 278.001 241.667C270.638 241.667 264.668 247.637 264.668 255C264.668 262.364 270.638 268.334 278.001 268.334Z" fill="#746FCC"/>
<path d="M215.95 458.273V467H214.104V460.024H214.053L212.055 461.277V459.641L214.215 458.273H215.95ZM218.024 467V465.67L221.13 462.794C221.395 462.538 221.616 462.308 221.795 462.104C221.977 461.899 222.115 461.699 222.208 461.503C222.302 461.304 222.349 461.089 222.349 460.859C222.349 460.604 222.291 460.384 222.174 460.199C222.058 460.011 221.899 459.868 221.697 459.768C221.495 459.666 221.267 459.615 221.011 459.615C220.744 459.615 220.511 459.669 220.312 459.777C220.113 459.885 219.96 460.04 219.852 460.241C219.744 460.443 219.69 460.683 219.69 460.962H217.939C217.939 460.391 218.068 459.895 218.326 459.474C218.585 459.054 218.947 458.729 219.413 458.499C219.879 458.268 220.416 458.153 221.024 458.153C221.649 458.153 222.193 458.264 222.656 458.486C223.122 458.705 223.484 459.009 223.743 459.398C224.001 459.787 224.13 460.233 224.13 460.736C224.13 461.065 224.065 461.391 223.934 461.712C223.806 462.033 223.578 462.389 223.248 462.781C222.919 463.17 222.454 463.638 221.855 464.183L220.581 465.432V465.491H224.245V467H218.024ZM229.307 467V458.273H230.364V462.159H235.017V458.273H236.074V467H235.017V463.097H230.364V467H229.307ZM240.712 467.136C240.121 467.136 239.603 466.996 239.157 466.714C238.714 466.433 238.367 466.04 238.117 465.534C237.87 465.028 237.746 464.437 237.746 463.761C237.746 463.08 237.87 462.484 238.117 461.976C238.367 461.467 238.714 461.072 239.157 460.791C239.603 460.51 240.121 460.369 240.712 460.369C241.303 460.369 241.82 460.51 242.263 460.791C242.71 461.072 243.056 461.467 243.303 461.976C243.553 462.484 243.678 463.08 243.678 463.761C243.678 464.437 243.553 465.028 243.303 465.534C243.056 466.04 242.71 466.433 242.263 466.714C241.82 466.996 241.303 467.136 240.712 467.136ZM240.712 466.233C241.161 466.233 241.531 466.118 241.82 465.888C242.11 465.658 242.325 465.355 242.464 464.98C242.603 464.605 242.673 464.199 242.673 463.761C242.673 463.324 242.603 462.916 242.464 462.538C242.325 462.161 242.11 461.855 241.82 461.622C241.531 461.389 241.161 461.273 240.712 461.273C240.263 461.273 239.894 461.389 239.604 461.622C239.315 461.855 239.1 462.161 238.961 462.538C238.822 462.916 238.752 463.324 238.752 463.761C238.752 464.199 238.822 464.605 238.961 464.98C239.1 465.355 239.315 465.658 239.604 465.888C239.894 466.118 240.263 466.233 240.712 466.233ZM249.338 464.324V460.455H250.344V467H249.338V465.892H249.27C249.117 466.224 248.878 466.507 248.554 466.74C248.23 466.97 247.821 467.085 247.327 467.085C246.918 467.085 246.554 466.996 246.236 466.817C245.918 466.635 245.668 466.362 245.486 465.999C245.304 465.632 245.213 465.17 245.213 464.614V460.455H246.219V464.545C246.219 465.023 246.353 465.403 246.62 465.688C246.89 465.972 247.233 466.114 247.651 466.114C247.901 466.114 248.155 466.05 248.414 465.922C248.675 465.794 248.894 465.598 249.07 465.334C249.249 465.07 249.338 464.733 249.338 464.324ZM252.186 467V460.455H253.158V461.443H253.226C253.345 461.119 253.561 460.857 253.874 460.655C254.186 460.453 254.538 460.352 254.93 460.352C255.004 460.352 255.097 460.354 255.207 460.357C255.318 460.359 255.402 460.364 255.459 460.369V461.392C255.425 461.384 255.347 461.371 255.224 461.354C255.105 461.334 254.979 461.324 254.845 461.324C254.527 461.324 254.243 461.391 253.993 461.524C253.746 461.655 253.55 461.837 253.405 462.07C253.263 462.3 253.192 462.562 253.192 462.858V467H252.186ZM261.287 461.92L260.384 462.176C260.327 462.026 260.243 461.879 260.132 461.737C260.025 461.592 259.877 461.473 259.689 461.379C259.502 461.286 259.262 461.239 258.969 461.239C258.569 461.239 258.235 461.331 257.968 461.516C257.703 461.697 257.571 461.929 257.571 462.21C257.571 462.46 257.662 462.658 257.844 462.803C258.026 462.947 258.31 463.068 258.696 463.165L259.668 463.403C260.253 463.545 260.689 463.763 260.976 464.055C261.263 464.345 261.407 464.719 261.407 465.176C261.407 465.551 261.299 465.886 261.083 466.182C260.87 466.477 260.571 466.71 260.188 466.881C259.804 467.051 259.358 467.136 258.85 467.136C258.182 467.136 257.63 466.991 257.192 466.702C256.755 466.412 256.478 465.989 256.361 465.432L257.316 465.193C257.407 465.545 257.578 465.81 257.831 465.986C258.087 466.162 258.421 466.25 258.833 466.25C259.301 466.25 259.674 466.151 259.949 465.952C260.228 465.75 260.367 465.509 260.367 465.227C260.367 465 260.287 464.81 260.128 464.656C259.969 464.5 259.725 464.384 259.395 464.307L258.304 464.051C257.705 463.909 257.265 463.689 256.983 463.391C256.705 463.089 256.566 462.713 256.566 462.261C256.566 461.892 256.669 461.565 256.877 461.281C257.087 460.997 257.373 460.774 257.733 460.612C258.097 460.45 258.509 460.369 258.969 460.369C259.617 460.369 260.125 460.511 260.495 460.795C260.867 461.08 261.131 461.455 261.287 461.92Z" fill="#97A7BF"/>
<path d="M286.504 458.273V467H284.659V460.024H284.608L282.609 461.277V459.641L284.77 458.273H286.504ZM291.928 467.119C291.479 467.116 291.046 467.041 290.628 466.893C290.213 466.746 289.841 466.506 289.512 466.173C289.182 465.841 288.921 465.401 288.728 464.852C288.537 464.304 288.442 463.631 288.442 462.832C288.445 462.099 288.529 461.445 288.694 460.868C288.861 460.288 289.1 459.797 289.409 459.393C289.722 458.99 290.096 458.683 290.53 458.473C290.965 458.26 291.452 458.153 291.992 458.153C292.574 458.153 293.088 458.267 293.534 458.494C293.98 458.719 294.338 459.024 294.608 459.411C294.881 459.797 295.046 460.23 295.103 460.71H293.283C293.212 460.406 293.063 460.168 292.836 459.994C292.608 459.821 292.327 459.734 291.992 459.734C291.424 459.734 290.992 459.982 290.696 460.476C290.404 460.97 290.255 461.642 290.249 462.491H290.309C290.439 462.233 290.615 462.013 290.837 461.831C291.061 461.646 291.316 461.506 291.6 461.409C291.887 461.31 292.189 461.26 292.507 461.26C293.025 461.26 293.485 461.382 293.888 461.626C294.292 461.868 294.61 462.2 294.843 462.624C295.076 463.047 295.192 463.531 295.192 464.077C295.192 464.668 295.054 465.193 294.779 465.653C294.506 466.114 294.124 466.474 293.632 466.736C293.144 466.994 292.576 467.122 291.928 467.119ZM291.919 465.67C292.203 465.67 292.458 465.602 292.682 465.466C292.907 465.33 293.083 465.145 293.211 464.912C293.338 464.679 293.402 464.418 293.402 464.128C293.402 463.838 293.338 463.578 293.211 463.348C293.086 463.118 292.912 462.935 292.691 462.798C292.469 462.662 292.216 462.594 291.932 462.594C291.719 462.594 291.522 462.634 291.34 462.713C291.161 462.793 291.003 462.903 290.867 463.045C290.733 463.187 290.628 463.352 290.551 463.54C290.475 463.724 290.436 463.922 290.436 464.132C290.436 464.413 290.5 464.67 290.628 464.903C290.759 465.136 290.935 465.322 291.157 465.462C291.381 465.601 291.635 465.67 291.919 465.67ZM300.225 467V458.273H301.282V466.062H305.338V467H300.225ZM309.583 467.136C308.952 467.136 308.408 466.997 307.951 466.719C307.496 466.438 307.145 466.045 306.898 465.543C306.654 465.037 306.532 464.449 306.532 463.778C306.532 463.108 306.654 462.517 306.898 462.006C307.145 461.491 307.489 461.091 307.929 460.804C308.373 460.514 308.89 460.369 309.48 460.369C309.821 460.369 310.158 460.426 310.49 460.54C310.823 460.653 311.125 460.838 311.398 461.094C311.671 461.347 311.888 461.682 312.05 462.099C312.212 462.517 312.293 463.031 312.293 463.642V464.068H307.248V463.199H311.27C311.27 462.83 311.196 462.5 311.049 462.21C310.904 461.92 310.696 461.692 310.426 461.524C310.159 461.357 309.844 461.273 309.48 461.273C309.08 461.273 308.733 461.372 308.441 461.571C308.151 461.767 307.928 462.023 307.772 462.338C307.615 462.653 307.537 462.991 307.537 463.352V463.932C307.537 464.426 307.623 464.845 307.793 465.189C307.966 465.53 308.206 465.79 308.513 465.969C308.82 466.145 309.176 466.233 309.583 466.233C309.847 466.233 310.086 466.196 310.299 466.122C310.515 466.045 310.701 465.932 310.857 465.781C311.013 465.628 311.134 465.437 311.219 465.21L312.191 465.483C312.088 465.812 311.917 466.102 311.675 466.352C311.434 466.599 311.135 466.793 310.78 466.932C310.425 467.068 310.026 467.136 309.583 467.136ZM318.459 461.92L317.556 462.176C317.499 462.026 317.415 461.879 317.304 461.737C317.196 461.592 317.049 461.473 316.861 461.379C316.674 461.286 316.434 461.239 316.141 461.239C315.74 461.239 315.407 461.331 315.14 461.516C314.875 461.697 314.743 461.929 314.743 462.21C314.743 462.46 314.834 462.658 315.016 462.803C315.198 462.947 315.482 463.068 315.868 463.165L316.84 463.403C317.425 463.545 317.861 463.763 318.148 464.055C318.435 464.345 318.578 464.719 318.578 465.176C318.578 465.551 318.471 465.886 318.255 466.182C318.042 466.477 317.743 466.71 317.36 466.881C316.976 467.051 316.53 467.136 316.022 467.136C315.354 467.136 314.801 466.991 314.364 466.702C313.926 466.412 313.65 465.989 313.533 465.432L314.488 465.193C314.578 465.545 314.75 465.81 315.003 465.986C315.259 466.162 315.593 466.25 316.005 466.25C316.473 466.25 316.846 466.151 317.121 465.952C317.4 465.75 317.539 465.509 317.539 465.227C317.539 465 317.459 464.81 317.3 464.656C317.141 464.5 316.897 464.384 316.567 464.307L315.476 464.051C314.877 463.909 314.436 463.689 314.155 463.391C313.877 463.089 313.738 462.713 313.738 462.261C313.738 461.892 313.841 461.565 314.049 461.281C314.259 460.997 314.544 460.774 314.905 460.612C315.269 460.45 315.681 460.369 316.141 460.369C316.789 460.369 317.297 460.511 317.667 460.795C318.039 461.08 318.303 461.455 318.459 461.92ZM324.729 461.92L323.825 462.176C323.768 462.026 323.685 461.879 323.574 461.737C323.466 461.592 323.318 461.473 323.131 461.379C322.943 461.286 322.703 461.239 322.411 461.239C322.01 461.239 321.676 461.331 321.409 461.516C321.145 461.697 321.013 461.929 321.013 462.21C321.013 462.46 321.104 462.658 321.286 462.803C321.467 462.947 321.751 463.068 322.138 463.165L323.109 463.403C323.695 463.545 324.131 463.763 324.418 464.055C324.705 464.345 324.848 464.719 324.848 465.176C324.848 465.551 324.74 465.886 324.524 466.182C324.311 466.477 324.013 466.71 323.629 466.881C323.246 467.051 322.8 467.136 322.291 467.136C321.624 467.136 321.071 466.991 320.634 466.702C320.196 466.412 319.919 465.989 319.803 465.432L320.757 465.193C320.848 465.545 321.02 465.81 321.273 465.986C321.528 466.162 321.862 466.25 322.274 466.25C322.743 466.25 323.115 466.151 323.391 465.952C323.669 465.75 323.808 465.509 323.808 465.227C323.808 465 323.729 464.81 323.57 464.656C323.411 464.5 323.166 464.384 322.837 464.307L321.746 464.051C321.146 463.909 320.706 463.689 320.425 463.391C320.146 463.089 320.007 462.713 320.007 462.261C320.007 461.892 320.111 461.565 320.318 461.281C320.528 460.997 320.814 460.774 321.175 460.612C321.538 460.45 321.95 460.369 322.411 460.369C323.058 460.369 323.567 460.511 323.936 460.795C324.308 461.08 324.572 461.455 324.729 461.92ZM329.021 467.136C328.43 467.136 327.912 466.996 327.466 466.714C327.022 466.433 326.676 466.04 326.426 465.534C326.179 465.028 326.055 464.437 326.055 463.761C326.055 463.08 326.179 462.484 326.426 461.976C326.676 461.467 327.022 461.072 327.466 460.791C327.912 460.51 328.43 460.369 329.021 460.369C329.612 460.369 330.129 460.51 330.572 460.791C331.018 461.072 331.365 461.467 331.612 461.976C331.862 462.484 331.987 463.08 331.987 463.761C331.987 464.437 331.862 465.028 331.612 465.534C331.365 466.04 331.018 466.433 330.572 466.714C330.129 466.996 329.612 467.136 329.021 467.136ZM329.021 466.233C329.47 466.233 329.839 466.118 330.129 465.888C330.419 465.658 330.633 465.355 330.772 464.98C330.912 464.605 330.981 464.199 330.981 463.761C330.981 463.324 330.912 462.916 330.772 462.538C330.633 462.161 330.419 461.855 330.129 461.622C329.839 461.389 329.47 461.273 329.021 461.273C328.572 461.273 328.203 461.389 327.913 461.622C327.623 461.855 327.409 462.161 327.27 462.538C327.13 462.916 327.061 463.324 327.061 463.761C327.061 464.199 327.13 464.605 327.27 464.98C327.409 465.355 327.623 465.658 327.913 465.888C328.203 466.118 328.572 466.233 329.021 466.233ZM334.528 463.062V467H333.522V460.455H334.494V461.477H334.579C334.732 461.145 334.965 460.878 335.278 460.676C335.59 460.472 335.994 460.369 336.488 460.369C336.931 460.369 337.319 460.46 337.651 460.642C337.984 460.821 338.242 461.094 338.427 461.46C338.612 461.824 338.704 462.284 338.704 462.841V467H337.698V462.909C337.698 462.395 337.565 461.994 337.298 461.707C337.031 461.418 336.664 461.273 336.198 461.273C335.877 461.273 335.59 461.342 335.337 461.482C335.087 461.621 334.89 461.824 334.745 462.091C334.6 462.358 334.528 462.682 334.528 463.062ZM345.178 461.92L344.275 462.176C344.218 462.026 344.134 461.879 344.023 461.737C343.915 461.592 343.767 461.473 343.58 461.379C343.392 461.286 343.152 461.239 342.86 461.239C342.459 461.239 342.125 461.331 341.858 461.516C341.594 461.697 341.462 461.929 341.462 462.21C341.462 462.46 341.553 462.658 341.735 462.803C341.917 462.947 342.201 463.068 342.587 463.165L343.559 463.403C344.144 463.545 344.58 463.763 344.867 464.055C345.154 464.345 345.297 464.719 345.297 465.176C345.297 465.551 345.189 465.886 344.973 466.182C344.76 466.477 344.462 466.71 344.078 466.881C343.695 467.051 343.249 467.136 342.74 467.136C342.073 467.136 341.52 466.991 341.083 466.702C340.645 466.412 340.368 465.989 340.252 465.432L341.206 465.193C341.297 465.545 341.469 465.81 341.722 465.986C341.978 466.162 342.311 466.25 342.723 466.25C343.192 466.25 343.564 466.151 343.84 465.952C344.118 465.75 344.257 465.509 344.257 465.227C344.257 465 344.178 464.81 344.019 464.656C343.86 464.5 343.615 464.384 343.286 464.307L342.195 464.051C341.596 463.909 341.155 463.689 340.874 463.391C340.596 463.089 340.456 462.713 340.456 462.261C340.456 461.892 340.56 461.565 340.767 461.281C340.978 460.997 341.263 460.774 341.624 460.612C341.988 460.45 342.4 460.369 342.86 460.369C343.507 460.369 344.016 460.511 344.385 460.795C344.757 461.08 345.022 461.455 345.178 461.92Z" fill="#97A7BF"/>
<circle cx="272" cy="463" r="2" fill="#BBB8E3"/>
</g>
<defs>
<linearGradient id="paint0_linear_15746_52332" x1="278" y1="175" x2="278" y2="335" gradientUnits="userSpaceOnUse">
<stop stop-color="#ECEBFD" stop-opacity="0"/>
<stop offset="1" stop-color="#ECEBFD"/>
</linearGradient>
<clipPath id="clip0_15746_52332">
<rect width="557" height="510" fill="white"/>
</clipPath>
</defs>
</svg>
