<svg width="208" height="120" viewBox="0 0 208 120" fill="none" xmlns="http://www.w3.org/2000/svg">
<rect width="208" height="120" fill="#D8DFE8"/>
<rect x="80" y="36" width="48" height="48" rx="24" fill="white"/>
<rect opacity="0.1" x="61.5" y="17.5" width="85" height="85" rx="42.5" stroke="#879FBE"/>
<rect opacity="0.2" x="72" y="28" width="64" height="64" rx="32" fill="white"/>
<path opacity="0.4" d="M111.08 63.7203C110.49 60.1903 107.1 57.3203 103.52 57.3203C99.6303 57.3203 96.2103 60.4703 95.8803 64.3503C95.7503 65.8503 96.2303 67.2703 97.2203 68.3403C98.2003 69.4103 99.5803 70.0003 101.08 70.0003H105.76C107.45 70.0003 108.93 69.3403 109.94 68.1503C110.95 66.9603 111.35 65.3803 111.08 63.7203Z" fill="#8894A3"/>
<path d="M102.28 55.86C103.898 55.86 105.21 54.5482 105.21 52.93C105.21 51.3118 103.898 50 102.28 50C100.661 50 99.3496 51.3118 99.3496 52.93C99.3496 54.5482 100.661 55.86 102.28 55.86Z" fill="#8894A3"/>
<path d="M108.94 57.0304C110.288 57.0304 111.38 55.938 111.38 54.5904C111.38 53.2428 110.288 52.1504 108.94 52.1504C107.592 52.1504 106.5 53.2428 106.5 54.5904C106.5 55.938 107.592 57.0304 108.94 57.0304Z" fill="#8894A3"/>
<path d="M112.55 60.9303C113.627 60.9303 114.5 60.0572 114.5 58.9803C114.5 57.9033 113.627 57.0303 112.55 57.0303C111.473 57.0303 110.6 57.9033 110.6 58.9803C110.6 60.0572 111.473 60.9303 112.55 60.9303Z" fill="#8894A3"/>
<path d="M95.94 58.9796C97.2876 58.9796 98.38 57.8872 98.38 56.5396C98.38 55.192 97.2876 54.0996 95.94 54.0996C94.5924 54.0996 93.5 55.192 93.5 56.5396C93.5 57.8872 94.5924 58.9796 95.94 58.9796Z" fill="#8894A3"/>
</svg>
