<svg width="208" height="120" viewBox="0 0 208 120" fill="none" xmlns="http://www.w3.org/2000/svg">
<rect width="208" height="120" fill="#ADDCF1"/>
<rect x="80" y="36" width="48" height="48" rx="24" fill="white"/>
<rect opacity="0.1" x="61.5" y="17.5" width="85" height="85" rx="42.5" stroke="#7AB5D0"/>
<rect opacity="0.2" x="72" y="28" width="64" height="64" rx="32" fill="white"/>
<path opacity="0.4" d="M114 64.5V67.5C114 69 113 70 111.5 70H98C98.41 70 98.83 69.94 99.22 69.81C99.33 69.77 99.44 69.73 99.55 69.68C99.9 69.54 100.24 69.34 100.54 69.08C100.63 69.01 100.73 68.92 100.82 68.83L100.86 68.79L107.66 62H111.5C113 62 114 63 114 64.5Z" fill="#309ED1"/>
<path opacity="0.6" d="M110.369 59.29L107.659 62L100.859 68.79C101.559 68.07 101.999 67.08 101.999 66V56.34L104.709 53.63C105.769 52.57 107.189 52.57 108.249 53.63L110.369 55.75C111.429 56.81 111.429 58.23 110.369 59.29Z" fill="#309ED1"/>
<path d="M99.5 50H96.5C95 50 94 51 94 52.5V66C94 66.27 94.03 66.54 94.08 66.8C94.11 66.93 94.14 67.06 94.18 67.19C94.23 67.34 94.28 67.49 94.34 67.63C94.35 67.64 94.35 67.65 94.35 67.65C94.36 67.65 94.36 67.65 94.35 67.66C94.49 67.94 94.65 68.21 94.84 68.46C94.95 68.59 95.06 68.71 95.17 68.83C95.28 68.95 95.4 69.05 95.53 69.15L95.54 69.16C95.79 69.35 96.06 69.51 96.34 69.65C96.35 69.64 96.35 69.64 96.35 69.65C96.5 69.72 96.65 69.77 96.81 69.82C96.94 69.86 97.07 69.89 97.2 69.92C97.46 69.97 97.73 70 98 70C98.41 70 98.83 69.94 99.22 69.81C99.33 69.77 99.44 69.73 99.55 69.68C99.9 69.54 100.24 69.34 100.54 69.08C100.63 69.01 100.73 68.92 100.82 68.83L100.86 68.79C101.56 68.07 102 67.08 102 66V52.5C102 51 101 50 99.5 50ZM98 67.5C97.17 67.5 96.5 66.83 96.5 66C96.5 65.17 97.17 64.5 98 64.5C98.83 64.5 99.5 65.17 99.5 66C99.5 66.83 98.83 67.5 98 67.5Z" fill="#309ED1"/>
</svg>
