<svg width="208" height="120" viewBox="0 0 208 120" fill="none" xmlns="http://www.w3.org/2000/svg">
<rect width="208" height="120" fill="#D4E3B9"/>
<rect x="80" y="36" width="48" height="48" rx="24" fill="white"/>
<rect opacity="0.1" x="61.5" y="17.5" width="85" height="85" rx="42.5" stroke="#91A372"/>
<rect opacity="0.2" x="72" y="28" width="64" height="64" rx="32" fill="white"/>
<path opacity="0.4" d="M113.97 54.41V60.91H94V54.41C94 51.98 95.98 50 98.41 50H109.56C111.99 50 113.97 51.98 113.97 54.41Z" fill="#86A847"/>
<path d="M94 60.9199V61.1199C94 63.5599 95.98 65.5299 98.41 65.5299H102.25C102.8 65.5299 103.25 65.9799 103.25 66.5299V67.4999C103.25 68.0499 102.8 68.4999 102.25 68.4999H99.83C99.42 68.4999 99.08 68.8399 99.08 69.2499C99.08 69.6599 99.41 69.9999 99.83 69.9999H108.18C108.59 69.9999 108.93 69.6599 108.93 69.2499C108.93 68.8399 108.59 68.4999 108.18 68.4999H105.76C105.21 68.4999 104.76 68.0499 104.76 67.4999V66.5299C104.76 65.9799 105.21 65.5299 105.76 65.5299H109.57C112.01 65.5299 113.98 63.5499 113.98 61.1199V60.9199H94V60.9199Z" fill="#86A847"/>
</svg>
