<svg width="208" height="120" viewBox="0 0 208 120" fill="none" xmlns="http://www.w3.org/2000/svg">
<rect width="208" height="120" fill="#B7DCB1"/>
<rect x="80" y="36" width="48" height="48" rx="24" fill="white"/>
<rect opacity="0.1" x="61.5" y="17.5" width="85" height="85" rx="42.5" stroke="#7CA875"/>
<rect opacity="0.2" x="72" y="28" width="64" height="64" rx="32" fill="white"/>
<path d="M104 50.5898V61.6098L94.65 68.1498C93.8 67.1398 93.75 65.6098 94.7 63.8998L97.82 58.2898L100.76 52.9998C101.65 51.3998 102.82 50.5898 104 50.5898Z" fill="#64B957"/>
<path opacity="0.6" d="M113.35 68.1504C112.7 68.9404 111.57 69.4104 110.06 69.4104H97.9404C96.4304 69.4104 95.3004 68.9404 94.6504 68.1504L104 61.6104L113.35 68.1504Z" fill="#64B957"/>
<path opacity="0.4" d="M113.35 68.1498L104 61.6098V50.5898C105.18 50.5898 106.35 51.3998 107.24 52.9998L110.18 58.2898L113.3 63.8998C114.25 65.6098 114.2 67.1398 113.35 68.1498Z" fill="#64B957"/>
</svg>
