<svg width="208" height="120" viewBox="0 0 208 120" fill="none" xmlns="http://www.w3.org/2000/svg">
<rect width="208" height="120" fill="#B6B9FA"/>
<rect x="80" y="36" width="48" height="48" rx="24" fill="white"/>
<rect opacity="0.1" x="61.5" y="17.5" width="85" height="85" rx="42.5" stroke="#8387C9"/>
<rect opacity="0.2" x="72" y="28" width="64" height="64" rx="32" fill="white"/>
<path d="M107.591 49.75C104.621 49.75 102.211 52.16 102.211 55.13C102.211 58.1 104.621 60.51 107.591 60.51C110.561 60.51 112.971 58.1 112.971 55.13C112.971 52.16 110.561 49.75 107.591 49.75Z" fill="#747AF6"/>
<path opacity="0.4" d="M98.3593 61.0303C96.5293 61.0303 95.0293 62.5203 95.0293 64.3603C95.0293 66.2003 96.5193 67.6903 98.3593 67.6903C100.189 67.6903 101.689 66.2003 101.689 64.3603C101.689 62.5203 100.189 61.0303 98.3593 61.0303Z" fill="#747AF6"/>
<path opacity="0.4" d="M108.621 64.6201C107.071 64.6201 105.811 65.8801 105.811 67.4301C105.811 68.9801 107.071 70.2401 108.621 70.2401C110.171 70.2401 111.431 68.9801 111.431 67.4301C111.431 65.8801 110.171 64.6201 108.621 64.6201Z" fill="#747AF6"/>
</svg>
