<svg width="208" height="120" viewBox="0 0 208 120" fill="none" xmlns="http://www.w3.org/2000/svg">
<rect width="208" height="120" fill="#FFDBAB"/>
<rect x="80" y="36" width="48" height="48" rx="24" fill="white"/>
<rect opacity="0.1" x="61.5" y="17.5" width="85" height="85" rx="42.5" stroke="#C69B63"/>
<rect opacity="0.2" x="72" y="28" width="64" height="64" rx="32" fill="white"/>
<path opacity="0.4" d="M107 50H101C99.34 50 98 51.34 98 53V67C98 68.66 99.34 70 101 70H107C108.66 70 110 68.66 110 67V53C110 51.34 108.66 50 107 50Z" fill="#FCB352"/>
<path d="M110.67 53.3301H110.33C110.21 53.3301 110.1 53.3301 109.98 53.3401C109.99 53.3901 110 53.4401 110 53.5001V55.0001V65.0001V66.5001C110 66.5601 109.99 66.6101 109.98 66.6601C110.09 66.6701 110.2 66.6701 110.33 66.6701H110.67C113.33 66.6701 114 66.0001 114 63.3301V56.6701C114 54.0001 113.33 53.3301 110.67 53.3301Z" fill="#FCB352"/>
<path d="M98 66.5001V65.0001V55.0001V53.5001C98 53.4401 98.01 53.3901 98.02 53.3401C97.9 53.3301 97.79 53.3301 97.67 53.3301H97.33C94.67 53.3301 94 54.0001 94 56.6701V63.3301C94 66.0001 94.67 66.6701 97.33 66.6701H97.67C97.79 66.6701 97.9 66.6701 98.02 66.6601C98.01 66.6101 98 66.5601 98 66.5001Z" fill="#FCB352"/>
</svg>
