<svg width="208" height="120" viewBox="0 0 208 120" fill="none" xmlns="http://www.w3.org/2000/svg">
<rect width="208" height="120" fill="#D9C4E4"/>
<rect x="80" y="36" width="48" height="48" rx="24" fill="white"/>
<rect opacity="0.1" x="61.5" y="17.5" width="85" height="85" rx="42.5" stroke="#A683B9"/>
<rect opacity="0.2" x="72" y="28" width="64" height="64" rx="32" fill="white"/>
<path opacity="0.4" d="M114 55.81V64.19C114 67.83 111.83 70 108.19 70H99.81C99.61 70 99.41 69.99 99.22 69.98C97.99 69.9 96.95 69.55 96.13 68.95C95.71 68.66 95.34 68.29 95.05 67.87C94.36 66.92 94 65.68 94 64.19V55.81C94 52.37 95.94 50.24 99.22 50.03C99.41 50.01 99.61 50 99.81 50H108.19C109.68 50 110.92 50.36 111.87 51.05C112.29 51.34 112.66 51.71 112.95 52.13C113.64 53.08 114 54.32 114 55.81Z" fill="#C278EB"/>
<path d="M108.67 53.6396H99.33C98.18 53.6396 97.25 54.5696 97.25 55.7196V56.8996C97.25 57.3096 97.59 57.6496 98 57.6496C98.41 57.6496 98.75 57.3096 98.75 56.8996V55.7196C98.75 55.3996 99.01 55.1396 99.33 55.1396H103.25V64.8596H101.47C101.06 64.8596 100.72 65.1996 100.72 65.6096C100.72 66.0196 101.06 66.3596 101.47 66.3596H106.54C106.95 66.3596 107.29 66.0196 107.29 65.6096C107.29 65.1996 106.95 64.8596 106.54 64.8596H104.76V55.1396H108.68C109 55.1396 109.26 55.3996 109.26 55.7196V56.8996C109.26 57.3096 109.6 57.6496 110.01 57.6496C110.42 57.6496 110.76 57.3096 110.76 56.8996V55.7196C110.75 54.5796 109.82 53.6396 108.67 53.6396Z" fill="#C278EB"/>
</svg>
