<svg width="208" height="120" viewBox="0 0 208 120" fill="none" xmlns="http://www.w3.org/2000/svg">
<rect width="208" height="120" fill="#BDCFE6"/>
<rect x="80" y="36" width="48" height="48" rx="24" fill="white"/>
<rect opacity="0.1" x="61.5" y="17.5" width="85" height="85" rx="42.5" stroke="#89A1C1"/>
<rect opacity="0.2" x="72" y="28" width="64" height="64" rx="32" fill="white"/>
<path d="M104 50C101.38 50 99.25 52.13 99.25 54.75C99.25 57.32 101.26 59.4 103.88 59.49C103.96 59.48 104.04 59.48 104.1 59.49C104.12 59.49 104.13 59.49 104.15 59.49C104.16 59.49 104.16 59.49 104.17 59.49C106.73 59.4 108.74 57.32 108.75 54.75C108.75 52.13 106.62 50 104 50Z" fill="#7EA6DA"/>
<path opacity="0.4" d="M109.081 62.1596C106.291 60.2996 101.741 60.2996 98.9309 62.1596C97.6609 62.9996 96.9609 64.1496 96.9609 65.3796C96.9609 66.6096 97.6609 67.7496 98.9209 68.5896C100.321 69.5296 102.161 69.9996 104.001 69.9996C105.841 69.9996 107.681 69.5296 109.081 68.5896C110.341 67.7396 111.041 66.5996 111.041 65.3596C111.031 64.1396 110.341 62.9896 109.081 62.1596Z" fill="#7EA6DA"/>
<path d="M103.37 67.26C103.21 67.26 103.05 67.19 102.93 67.08L101.67 65.82C101.43 65.58 101.43 65.18 101.67 64.94C101.91 64.7 102.31 64.7 102.55 64.94L103.37 65.76L105.45 63.68C105.69 63.44 106.09 63.44 106.33 63.68C106.57 63.92 106.57 64.32 106.33 64.56L103.81 67.08C103.69 67.2 103.53 67.26 103.37 67.26Z" fill="#7EA6DA"/>
</svg>
