<svg width="208" height="120" viewBox="0 0 208 120" fill="none" xmlns="http://www.w3.org/2000/svg">
<rect width="208" height="120" fill="#FFC2C2"/>
<rect x="80" y="36" width="48" height="48" rx="24" fill="white"/>
<rect opacity="0.1" x="61.5" y="17.5" width="85" height="85" rx="42.5" stroke="#CC7979"/>
<rect opacity="0.2" x="72" y="28" width="64" height="64" rx="32" fill="white"/>
<path opacity="0.4" d="M103 68.0102C107.976 68.0102 112.01 63.9763 112.01 59.0002C112.01 54.0241 107.976 49.9902 103 49.9902C98.0241 49.9902 93.9902 54.0241 93.9902 59.0002C93.9902 63.9763 98.0241 68.0102 103 68.0102Z" fill="#FF8888"/>
<path d="M106 58.25H100C99.59 58.25 99.25 57.91 99.25 57.5C99.25 57.09 99.59 56.75 100 56.75H106C106.41 56.75 106.75 57.09 106.75 57.5C106.75 57.91 106.41 58.25 106 58.25Z" fill="#FF8888"/>
<path d="M103 61.25H100C99.59 61.25 99.25 60.91 99.25 60.5C99.25 60.09 99.59 59.75 100 59.75H103C103.41 59.75 103.75 60.09 103.75 60.5C103.75 60.91 103.41 61.25 103 61.25Z" fill="#FF8888"/>
<path d="M113.99 66.95C113.66 66.34 112.96 66 112.02 66C111.31 66 110.7 66.29 110.34 66.79C109.98 67.29 109.9 67.96 110.12 68.63C110.55 69.93 111.3 70.22 111.71 70.27C111.77 70.28 111.83 70.28 111.9 70.28C112.34 70.28 113.02 70.09 113.68 69.1C114.21 68.33 114.31 67.56 113.99 66.95Z" fill="#FF8888"/>
</svg>
