<svg width="208" height="120" viewBox="0 0 208 120" fill="none" xmlns="http://www.w3.org/2000/svg">
<rect width="208" height="120" fill="#B9D8FF"/>
<rect opacity="0.1" x="61.5" y="17.5" width="85" height="85" rx="42.5" stroke="#78A7E2"/>
<rect opacity="0.2" x="72" y="28" width="64" height="64" rx="32" fill="white"/>
<rect x="80" y="36" width="48" height="48" rx="24" fill="white"/>
<path d="M109 70.75H99C98.59 70.75 98.25 70.41 98.25 70C98.25 69.59 98.59 69.25 99 69.25H109C109.41 69.25 109.75 69.59 109.75 70C109.75 70.41 109.41 70.75 109 70.75Z" fill="#0170FF"/>
<path opacity="0.4" d="M110 67H98C95.79 67 94 65.21 94 63V54C94 51.79 95.79 50 98 50H110C112.21 50 114 51.79 114 54V63C114 65.21 112.21 67 110 67Z" fill="#0170FF"/>
<path d="M109.26 57.0703H105.58C105.17 57.0703 104.83 56.7303 104.83 56.3203C104.83 55.9103 105.17 55.5703 105.58 55.5703H109.26C109.67 55.5703 110.01 55.9103 110.01 56.3203C110.01 56.7303 109.68 57.0703 109.26 57.0703Z" fill="#0170FF"/>
<path d="M102 57.3203C101.45 57.3203 101 56.8703 101 56.3203C101 55.7703 101.44 55.3203 102 55.3203C102.55 55.3203 103 55.7703 103 56.3203C103 56.8703 102.56 57.3203 102 57.3203Z" fill="#0170FF"/>
<path d="M98.8496 57.3203C98.2996 57.3203 97.8496 56.8703 97.8496 56.3203C97.8496 55.7703 98.2896 55.3203 98.8496 55.3203H98.8596C99.4096 55.3203 99.8596 55.7703 99.8596 56.3203C99.8596 56.8703 99.3996 57.3203 98.8496 57.3203Z" fill="#0170FF"/>
<path d="M109.26 62.8604H98.7502C98.3402 62.8604 97.9902 62.5204 97.9902 62.1104C97.9902 61.7004 98.3202 61.3604 98.7302 61.3604H109.26C109.67 61.3604 110.01 61.7004 110.01 62.1104C110.01 62.5204 109.68 62.8604 109.26 62.8604Z" fill="#0170FF"/>
</svg>
