<svg width="557" height="510" viewBox="0 0 557 510" fill="none" xmlns="http://www.w3.org/2000/svg">
<g clip-path="url(#clip0_15745_52294)">
<rect width="557" height="510" fill="#FAEDD2"/>
<rect opacity="0.1" x="150.5" y="127.5" width="255" height="255" rx="79.5" stroke="#8C7950"/>
<rect opacity="0.05" x="102.5" y="79.5" width="351" height="351" rx="127.5" stroke="#8C7950"/>
<rect opacity="0.02" x="38.5" y="15.5" width="479" height="479" rx="191.5" stroke="#8C7950"/>
<rect opacity="0.2" x="218" y="231" width="120" height="120" rx="32" fill="white"/>
<rect opacity="0.4" x="206" y="199" width="144" height="144" rx="32" fill="white"/>
<rect x="198" y="175" width="160" height="160" rx="32" fill="white"/>
<rect x="198" y="175" width="160" height="160" rx="32" fill="url(#paint0_linear_15745_52294)" fill-opacity="0.4"/>
<path opacity="0.4" d="M300.234 221.667H293.901C286.634 221.667 282.801 225.5 282.801 232.767V239.1C282.801 246.367 286.634 250.2 293.901 250.2H300.234C307.501 250.2 311.334 246.367 311.334 239.1V232.767C311.334 225.5 307.501 221.667 300.234 221.667Z" fill="#FFB824"/>
<path opacity="0.4" d="M262.135 259.767H255.801C248.501 259.767 244.668 263.6 244.668 270.867V277.2C244.668 284.5 248.501 288.333 255.768 288.333H262.101C269.368 288.333 273.201 284.5 273.201 277.233V270.9C273.235 263.6 269.401 259.767 262.135 259.767Z" fill="#FFB824"/>
<path d="M258.968 250.267C266.866 250.267 273.268 243.865 273.268 235.967C273.268 228.069 266.866 221.667 258.968 221.667C251.07 221.667 244.668 228.069 244.668 235.967C244.668 243.865 251.07 250.267 258.968 250.267Z" fill="#FFB824"/>
<path d="M297.034 288.333C304.932 288.333 311.334 281.931 311.334 274.033C311.334 266.136 304.932 259.733 297.034 259.733C289.137 259.733 282.734 266.136 282.734 274.033C282.734 281.931 289.137 288.333 297.034 288.333Z" fill="#FFB824"/>
<path d="M209.762 467V465.67L212.869 462.794C213.133 462.538 213.354 462.308 213.533 462.104C213.715 461.899 213.853 461.699 213.947 461.503C214.04 461.304 214.087 461.089 214.087 460.859C214.087 460.604 214.029 460.384 213.913 460.199C213.796 460.011 213.637 459.868 213.435 459.768C213.234 459.666 213.005 459.615 212.749 459.615C212.482 459.615 212.249 459.669 212.05 459.777C211.852 459.885 211.698 460.04 211.59 460.241C211.482 460.443 211.428 460.683 211.428 460.962H209.677C209.677 460.391 209.806 459.895 210.065 459.474C210.323 459.054 210.685 458.729 211.151 458.499C211.617 458.268 212.154 458.153 212.762 458.153C213.387 458.153 213.931 458.264 214.394 458.486C214.86 458.705 215.222 459.009 215.481 459.398C215.739 459.787 215.869 460.233 215.869 460.736C215.869 461.065 215.803 461.391 215.673 461.712C215.545 462.033 215.316 462.389 214.987 462.781C214.657 463.17 214.192 463.638 213.593 464.183L212.319 465.432V465.491H215.984V467H209.762ZM220.743 467.192C220.01 467.189 219.379 467.009 218.85 466.651C218.325 466.293 217.92 465.774 217.636 465.095C217.355 464.416 217.216 463.599 217.218 462.645C217.218 461.693 217.359 460.882 217.64 460.212C217.924 459.541 218.329 459.031 218.855 458.682C219.383 458.33 220.012 458.153 220.743 458.153C221.473 458.153 222.1 458.33 222.626 458.682C223.154 459.034 223.561 459.545 223.845 460.216C224.129 460.884 224.27 461.693 224.267 462.645C224.267 463.602 224.125 464.42 223.841 465.099C223.559 465.778 223.156 466.297 222.63 466.655C222.105 467.013 221.475 467.192 220.743 467.192ZM220.743 465.662C221.243 465.662 221.642 465.411 221.94 464.908C222.238 464.405 222.386 463.651 222.383 462.645C222.383 461.983 222.315 461.432 222.179 460.991C222.045 460.551 221.855 460.22 221.608 459.999C221.363 459.777 221.075 459.666 220.743 459.666C220.245 459.666 219.848 459.915 219.549 460.412C219.251 460.909 219.1 461.653 219.098 462.645C219.098 463.315 219.164 463.875 219.298 464.324C219.434 464.77 219.626 465.105 219.873 465.33C220.12 465.551 220.41 465.662 220.743 465.662ZM229.307 467V458.273H230.364V462.159H235.017V458.273H236.074V467H235.017V463.097H230.364V467H229.307ZM240.712 467.136C240.121 467.136 239.603 466.996 239.157 466.714C238.714 466.433 238.367 466.04 238.117 465.534C237.87 465.028 237.746 464.437 237.746 463.761C237.746 463.08 237.87 462.484 238.117 461.976C238.367 461.467 238.714 461.072 239.157 460.791C239.603 460.51 240.121 460.369 240.712 460.369C241.303 460.369 241.82 460.51 242.263 460.791C242.71 461.072 243.056 461.467 243.303 461.976C243.553 462.484 243.678 463.08 243.678 463.761C243.678 464.437 243.553 465.028 243.303 465.534C243.056 466.04 242.71 466.433 242.263 466.714C241.82 466.996 241.303 467.136 240.712 467.136ZM240.712 466.233C241.161 466.233 241.531 466.118 241.82 465.888C242.11 465.658 242.325 465.355 242.464 464.98C242.603 464.605 242.673 464.199 242.673 463.761C242.673 463.324 242.603 462.916 242.464 462.538C242.325 462.161 242.11 461.855 241.82 461.622C241.531 461.389 241.161 461.273 240.712 461.273C240.263 461.273 239.894 461.389 239.604 461.622C239.315 461.855 239.1 462.161 238.961 462.538C238.822 462.916 238.752 463.324 238.752 463.761C238.752 464.199 238.822 464.605 238.961 464.98C239.1 465.355 239.315 465.658 239.604 465.888C239.894 466.118 240.263 466.233 240.712 466.233ZM249.338 464.324V460.455H250.344V467H249.338V465.892H249.27C249.117 466.224 248.878 466.507 248.554 466.74C248.23 466.97 247.821 467.085 247.327 467.085C246.918 467.085 246.554 466.996 246.236 466.817C245.918 466.635 245.668 466.362 245.486 465.999C245.304 465.632 245.213 465.17 245.213 464.614V460.455H246.219V464.545C246.219 465.023 246.353 465.403 246.62 465.688C246.89 465.972 247.233 466.114 247.651 466.114C247.901 466.114 248.155 466.05 248.414 465.922C248.675 465.794 248.894 465.598 249.07 465.334C249.249 465.07 249.338 464.733 249.338 464.324ZM252.186 467V460.455H253.158V461.443H253.226C253.345 461.119 253.561 460.857 253.874 460.655C254.186 460.453 254.538 460.352 254.93 460.352C255.004 460.352 255.097 460.354 255.207 460.357C255.318 460.359 255.402 460.364 255.459 460.369V461.392C255.425 461.384 255.347 461.371 255.224 461.354C255.105 461.334 254.979 461.324 254.845 461.324C254.527 461.324 254.243 461.391 253.993 461.524C253.746 461.655 253.55 461.837 253.405 462.07C253.263 462.3 253.192 462.562 253.192 462.858V467H252.186ZM261.287 461.92L260.384 462.176C260.327 462.026 260.243 461.879 260.132 461.737C260.025 461.592 259.877 461.473 259.689 461.379C259.502 461.286 259.262 461.239 258.969 461.239C258.569 461.239 258.235 461.331 257.968 461.516C257.703 461.697 257.571 461.929 257.571 462.21C257.571 462.46 257.662 462.658 257.844 462.803C258.026 462.947 258.31 463.068 258.696 463.165L259.668 463.403C260.253 463.545 260.689 463.763 260.976 464.055C261.263 464.345 261.407 464.719 261.407 465.176C261.407 465.551 261.299 465.886 261.083 466.182C260.87 466.477 260.571 466.71 260.188 466.881C259.804 467.051 259.358 467.136 258.85 467.136C258.182 467.136 257.63 466.991 257.192 466.702C256.755 466.412 256.478 465.989 256.361 465.432L257.316 465.193C257.407 465.545 257.578 465.81 257.831 465.986C258.087 466.162 258.421 466.25 258.833 466.25C259.301 466.25 259.674 466.151 259.949 465.952C260.228 465.75 260.367 465.509 260.367 465.227C260.367 465 260.287 464.81 260.128 464.656C259.969 464.5 259.725 464.384 259.395 464.307L258.304 464.051C257.705 463.909 257.265 463.689 256.983 463.391C256.705 463.089 256.566 462.713 256.566 462.261C256.566 461.892 256.669 461.565 256.877 461.281C257.087 460.997 257.373 460.774 257.733 460.612C258.097 460.45 258.509 460.369 258.969 460.369C259.617 460.369 260.125 460.511 260.495 460.795C260.867 461.08 261.131 461.455 261.287 461.92Z" fill="#97A7BF"/>
<path d="M286.504 458.273V467H284.659V460.024H284.608L282.609 461.277V459.641L284.77 458.273H286.504ZM291.736 458.153C292.185 458.153 292.617 458.229 293.032 458.379C293.449 458.53 293.821 458.77 294.148 459.099C294.478 459.429 294.738 459.866 294.928 460.412C295.121 460.955 295.219 461.621 295.222 462.411C295.222 463.152 295.138 463.814 294.971 464.396C294.806 464.976 294.569 465.469 294.259 465.875C293.949 466.281 293.576 466.591 293.138 466.804C292.701 467.014 292.212 467.119 291.672 467.119C291.09 467.119 290.576 467.007 290.13 466.783C289.684 466.555 289.324 466.247 289.051 465.858C288.782 465.466 288.618 465.026 288.561 464.537H290.381C290.452 464.855 290.601 465.102 290.828 465.278C291.056 465.452 291.337 465.538 291.672 465.538C292.24 465.538 292.672 465.291 292.968 464.797C293.263 464.3 293.412 463.619 293.415 462.756H293.355C293.225 463.011 293.049 463.232 292.827 463.416C292.605 463.598 292.351 463.739 292.064 463.838C291.78 463.938 291.478 463.987 291.157 463.987C290.642 463.987 290.184 463.866 289.78 463.625C289.377 463.384 289.059 463.051 288.826 462.628C288.593 462.205 288.476 461.722 288.476 461.179C288.473 460.594 288.608 460.072 288.881 459.615C289.154 459.158 289.534 458.8 290.023 458.541C290.515 458.28 291.086 458.151 291.736 458.153ZM291.749 459.602C291.462 459.602 291.206 459.67 290.982 459.807C290.76 459.943 290.584 460.126 290.453 460.357C290.326 460.587 290.263 460.844 290.266 461.128C290.266 461.415 290.328 461.673 290.453 461.903C290.581 462.131 290.755 462.312 290.973 462.449C291.195 462.582 291.448 462.649 291.732 462.649C291.945 462.649 292.142 462.609 292.324 462.53C292.506 462.45 292.664 462.341 292.797 462.202C292.934 462.06 293.04 461.896 293.117 461.712C293.194 461.527 293.232 461.331 293.232 461.124C293.229 460.848 293.164 460.595 293.036 460.365C292.908 460.135 292.732 459.95 292.507 459.811C292.283 459.672 292.03 459.602 291.749 459.602ZM300.225 467V458.273H301.282V466.062H305.338V467H300.225ZM309.583 467.136C308.952 467.136 308.408 466.997 307.951 466.719C307.496 466.438 307.145 466.045 306.898 465.543C306.654 465.037 306.532 464.449 306.532 463.778C306.532 463.108 306.654 462.517 306.898 462.006C307.145 461.491 307.489 461.091 307.929 460.804C308.373 460.514 308.89 460.369 309.48 460.369C309.821 460.369 310.158 460.426 310.49 460.54C310.823 460.653 311.125 460.838 311.398 461.094C311.671 461.347 311.888 461.682 312.05 462.099C312.212 462.517 312.293 463.031 312.293 463.642V464.068H307.248V463.199H311.27C311.27 462.83 311.196 462.5 311.049 462.21C310.904 461.92 310.696 461.692 310.426 461.524C310.159 461.357 309.844 461.273 309.48 461.273C309.08 461.273 308.733 461.372 308.441 461.571C308.151 461.767 307.928 462.023 307.772 462.338C307.615 462.653 307.537 462.991 307.537 463.352V463.932C307.537 464.426 307.623 464.845 307.793 465.189C307.966 465.53 308.206 465.79 308.513 465.969C308.82 466.145 309.176 466.233 309.583 466.233C309.847 466.233 310.086 466.196 310.299 466.122C310.515 466.045 310.701 465.932 310.857 465.781C311.013 465.628 311.134 465.437 311.219 465.21L312.191 465.483C312.088 465.812 311.917 466.102 311.675 466.352C311.434 466.599 311.135 466.793 310.78 466.932C310.425 467.068 310.026 467.136 309.583 467.136ZM318.459 461.92L317.556 462.176C317.499 462.026 317.415 461.879 317.304 461.737C317.196 461.592 317.049 461.473 316.861 461.379C316.674 461.286 316.434 461.239 316.141 461.239C315.74 461.239 315.407 461.331 315.14 461.516C314.875 461.697 314.743 461.929 314.743 462.21C314.743 462.46 314.834 462.658 315.016 462.803C315.198 462.947 315.482 463.068 315.868 463.165L316.84 463.403C317.425 463.545 317.861 463.763 318.148 464.055C318.435 464.345 318.578 464.719 318.578 465.176C318.578 465.551 318.471 465.886 318.255 466.182C318.042 466.477 317.743 466.71 317.36 466.881C316.976 467.051 316.53 467.136 316.022 467.136C315.354 467.136 314.801 466.991 314.364 466.702C313.926 466.412 313.65 465.989 313.533 465.432L314.488 465.193C314.578 465.545 314.75 465.81 315.003 465.986C315.259 466.162 315.593 466.25 316.005 466.25C316.473 466.25 316.846 466.151 317.121 465.952C317.4 465.75 317.539 465.509 317.539 465.227C317.539 465 317.459 464.81 317.3 464.656C317.141 464.5 316.897 464.384 316.567 464.307L315.476 464.051C314.877 463.909 314.436 463.689 314.155 463.391C313.877 463.089 313.738 462.713 313.738 462.261C313.738 461.892 313.841 461.565 314.049 461.281C314.259 460.997 314.544 460.774 314.905 460.612C315.269 460.45 315.681 460.369 316.141 460.369C316.789 460.369 317.297 460.511 317.667 460.795C318.039 461.08 318.303 461.455 318.459 461.92ZM324.729 461.92L323.825 462.176C323.768 462.026 323.685 461.879 323.574 461.737C323.466 461.592 323.318 461.473 323.131 461.379C322.943 461.286 322.703 461.239 322.411 461.239C322.01 461.239 321.676 461.331 321.409 461.516C321.145 461.697 321.013 461.929 321.013 462.21C321.013 462.46 321.104 462.658 321.286 462.803C321.467 462.947 321.751 463.068 322.138 463.165L323.109 463.403C323.695 463.545 324.131 463.763 324.418 464.055C324.705 464.345 324.848 464.719 324.848 465.176C324.848 465.551 324.74 465.886 324.524 466.182C324.311 466.477 324.013 466.71 323.629 466.881C323.246 467.051 322.8 467.136 322.291 467.136C321.624 467.136 321.071 466.991 320.634 466.702C320.196 466.412 319.919 465.989 319.803 465.432L320.757 465.193C320.848 465.545 321.02 465.81 321.273 465.986C321.528 466.162 321.862 466.25 322.274 466.25C322.743 466.25 323.115 466.151 323.391 465.952C323.669 465.75 323.808 465.509 323.808 465.227C323.808 465 323.729 464.81 323.57 464.656C323.411 464.5 323.166 464.384 322.837 464.307L321.746 464.051C321.146 463.909 320.706 463.689 320.425 463.391C320.146 463.089 320.007 462.713 320.007 462.261C320.007 461.892 320.111 461.565 320.318 461.281C320.528 460.997 320.814 460.774 321.175 460.612C321.538 460.45 321.95 460.369 322.411 460.369C323.058 460.369 323.567 460.511 323.936 460.795C324.308 461.08 324.572 461.455 324.729 461.92ZM329.021 467.136C328.43 467.136 327.912 466.996 327.466 466.714C327.022 466.433 326.676 466.04 326.426 465.534C326.179 465.028 326.055 464.437 326.055 463.761C326.055 463.08 326.179 462.484 326.426 461.976C326.676 461.467 327.022 461.072 327.466 460.791C327.912 460.51 328.43 460.369 329.021 460.369C329.612 460.369 330.129 460.51 330.572 460.791C331.018 461.072 331.365 461.467 331.612 461.976C331.862 462.484 331.987 463.08 331.987 463.761C331.987 464.437 331.862 465.028 331.612 465.534C331.365 466.04 331.018 466.433 330.572 466.714C330.129 466.996 329.612 467.136 329.021 467.136ZM329.021 466.233C329.47 466.233 329.839 466.118 330.129 465.888C330.419 465.658 330.633 465.355 330.772 464.98C330.912 464.605 330.981 464.199 330.981 463.761C330.981 463.324 330.912 462.916 330.772 462.538C330.633 462.161 330.419 461.855 330.129 461.622C329.839 461.389 329.47 461.273 329.021 461.273C328.572 461.273 328.203 461.389 327.913 461.622C327.623 461.855 327.409 462.161 327.27 462.538C327.13 462.916 327.061 463.324 327.061 463.761C327.061 464.199 327.13 464.605 327.27 464.98C327.409 465.355 327.623 465.658 327.913 465.888C328.203 466.118 328.572 466.233 329.021 466.233ZM334.528 463.062V467H333.522V460.455H334.494V461.477H334.579C334.732 461.145 334.965 460.878 335.278 460.676C335.59 460.472 335.994 460.369 336.488 460.369C336.931 460.369 337.319 460.46 337.651 460.642C337.984 460.821 338.242 461.094 338.427 461.46C338.612 461.824 338.704 462.284 338.704 462.841V467H337.698V462.909C337.698 462.395 337.565 461.994 337.298 461.707C337.031 461.418 336.664 461.273 336.198 461.273C335.877 461.273 335.59 461.342 335.337 461.482C335.087 461.621 334.89 461.824 334.745 462.091C334.6 462.358 334.528 462.682 334.528 463.062ZM345.178 461.92L344.275 462.176C344.218 462.026 344.134 461.879 344.023 461.737C343.915 461.592 343.767 461.473 343.58 461.379C343.392 461.286 343.152 461.239 342.86 461.239C342.459 461.239 342.125 461.331 341.858 461.516C341.594 461.697 341.462 461.929 341.462 462.21C341.462 462.46 341.553 462.658 341.735 462.803C341.917 462.947 342.201 463.068 342.587 463.165L343.559 463.403C344.144 463.545 344.58 463.763 344.867 464.055C345.154 464.345 345.297 464.719 345.297 465.176C345.297 465.551 345.189 465.886 344.973 466.182C344.76 466.477 344.462 466.71 344.078 466.881C343.695 467.051 343.249 467.136 342.74 467.136C342.073 467.136 341.52 466.991 341.083 466.702C340.645 466.412 340.368 465.989 340.252 465.432L341.206 465.193C341.297 465.545 341.469 465.81 341.722 465.986C341.978 466.162 342.311 466.25 342.723 466.25C343.192 466.25 343.564 466.151 343.84 465.952C344.118 465.75 344.257 465.509 344.257 465.227C344.257 465 344.178 464.81 344.019 464.656C343.86 464.5 343.615 464.384 343.286 464.307L342.195 464.051C341.596 463.909 341.155 463.689 340.874 463.391C340.596 463.089 340.456 462.713 340.456 462.261C340.456 461.892 340.56 461.565 340.767 461.281C340.978 460.997 341.263 460.774 341.624 460.612C341.988 460.45 342.4 460.369 342.86 460.369C343.507 460.369 344.016 460.511 344.385 460.795C344.757 461.08 345.022 461.455 345.178 461.92Z" fill="#97A7BF"/>
<circle cx="272" cy="463" r="2" fill="#FDD687"/>
</g>
<defs>
<linearGradient id="paint0_linear_15745_52294" x1="278" y1="175" x2="278" y2="335" gradientUnits="userSpaceOnUse">
<stop stop-color="#FAEDD2" stop-opacity="0"/>
<stop offset="1" stop-color="#FAEDD2"/>
</linearGradient>
<clipPath id="clip0_15745_52294">
<rect width="557" height="510" fill="white"/>
</clipPath>
</defs>
</svg>
