<svg width="1920" height="795" viewBox="0 0 1920 795" fill="none" xmlns="http://www.w3.org/2000/svg">
<mask id="mask0_16889_58802" style="mask-type:alpha" maskUnits="userSpaceOnUse" x="0" y="0" width="1920" height="795">
<rect width="1920" height="795" fill="#0E2145"/>
</mask>
<g mask="url(#mask0_16889_58802)">
<g style="mix-blend-mode:overlay" opacity="0.2">
<line y1="15.3335" x2="1920" y2="15.3335" stroke="url(#paint0_linear_16889_58802)"/>
<line y1="97.1665" x2="1920" y2="97.1665" stroke="url(#paint1_linear_16889_58802)"/>
<line y1="179" x2="1920" y2="179" stroke="url(#paint2_linear_16889_58802)"/>
<line y1="260.833" x2="1920" y2="260.833" stroke="url(#paint3_linear_16889_58802)"/>
<line y1="342.667" x2="1920" y2="342.667" stroke="url(#paint4_linear_16889_58802)"/>
<line y1="424.5" x2="1920" y2="424.5" stroke="url(#paint5_linear_16889_58802)"/>
</g>
<g style="mix-blend-mode:overlay" opacity="0.2">
<line y1="586.333" x2="1920" y2="586.333" stroke="url(#paint6_linear_16889_58802)"/>
<line y1="504.5" x2="1920" y2="504.5" stroke="url(#paint7_linear_16889_58802)"/>
<line y1="668.167" x2="1920" y2="668.167" stroke="url(#paint8_linear_16889_58802)"/>
<line y1="750" x2="1920" y2="750" stroke="url(#paint9_linear_16889_58802)"/>
</g>
<g style="mix-blend-mode:overlay" opacity="0.2">
<line x1="0.5" y1="-110" x2="0.499958" y2="845" stroke="url(#paint10_linear_16889_58802)"/>
<line x1="240.5" y1="-110" x2="240.5" y2="845" stroke="url(#paint11_linear_16889_58802)"/>
<line x1="480.5" y1="-110" x2="480.5" y2="845" stroke="url(#paint12_linear_16889_58802)"/>
<line x1="720.5" y1="-110" x2="720.5" y2="845" stroke="url(#paint13_linear_16889_58802)"/>
<line x1="960.5" y1="-110" x2="960.5" y2="845" stroke="url(#paint14_linear_16889_58802)"/>
<line x1="1200.5" y1="-110" x2="1200.5" y2="845" stroke="url(#paint15_linear_16889_58802)"/>
<line x1="80.5" y1="-110" x2="80.5" y2="845" stroke="url(#paint16_linear_16889_58802)"/>
<line x1="320.5" y1="-110" x2="320.5" y2="845" stroke="url(#paint17_linear_16889_58802)"/>
<line x1="560.5" y1="-110" x2="560.5" y2="845" stroke="url(#paint18_linear_16889_58802)"/>
<line x1="800.5" y1="-110" x2="800.5" y2="845" stroke="url(#paint19_linear_16889_58802)"/>
<line x1="1040.5" y1="-110" x2="1040.5" y2="845" stroke="url(#paint20_linear_16889_58802)"/>
<line x1="1280.5" y1="-110" x2="1280.5" y2="845" stroke="url(#paint21_linear_16889_58802)"/>
<line x1="160.5" y1="-110" x2="160.5" y2="845" stroke="url(#paint22_linear_16889_58802)"/>
<line x1="400.5" y1="-110" x2="400.5" y2="845" stroke="url(#paint23_linear_16889_58802)"/>
<line x1="640.5" y1="-110" x2="640.5" y2="845" stroke="url(#paint24_linear_16889_58802)"/>
<line x1="880.5" y1="-110" x2="880.5" y2="845" stroke="url(#paint25_linear_16889_58802)"/>
<line x1="1120.5" y1="-110" x2="1120.5" y2="845" stroke="url(#paint26_linear_16889_58802)"/>
<line x1="1360.5" y1="-110" x2="1360.5" y2="845" stroke="url(#paint27_linear_16889_58802)"/>
</g>
<g style="mix-blend-mode:overlay" opacity="0.2">
<line x1="1440.5" y1="-110" x2="1440.5" y2="845" stroke="url(#paint28_linear_16889_58802)"/>
<line x1="1680.5" y1="-110" x2="1680.5" y2="845" stroke="url(#paint29_linear_16889_58802)"/>
<line x1="1520.5" y1="-110" x2="1520.5" y2="845" stroke="url(#paint30_linear_16889_58802)"/>
<line x1="1760.5" y1="-110" x2="1760.5" y2="845" stroke="url(#paint31_linear_16889_58802)"/>
<line x1="1600.5" y1="-110" x2="1600.5" y2="845" stroke="url(#paint32_linear_16889_58802)"/>
<line x1="1840.5" y1="-110" x2="1840.5" y2="845" stroke="url(#paint33_linear_16889_58802)"/>
</g>
<g opacity="0.3" filter="url(#filter0_f_16889_58802)">
<path d="M1999 785.393C1999 1065.95 1771.56 1293.39 1491 1293.39C1210.44 1293.39 983 1065.95 983 785.393C983 504.832 1210.44 277.393 1491 277.393C1771.56 277.393 1999 504.832 1999 785.393ZM1303.4 785.393C1303.4 889.004 1387.39 972.997 1491 972.997C1594.61 972.997 1678.6 889.004 1678.6 785.393C1678.6 681.781 1594.61 597.788 1491 597.788C1387.39 597.788 1303.4 681.781 1303.4 785.393Z" fill="url(#paint34_linear_16889_58802)"/>
</g>
<g opacity="0.2" filter="url(#filter1_f_16889_58802)">
<path d="M467 946C467 1226.56 239.561 1454 -41 1454C-321.561 1454 -549 1226.56 -549 946C-549 665.439 -321.561 438 -41 438C239.561 438 467 665.439 467 946ZM-228.605 946C-228.605 1049.61 -144.611 1133.6 -41 1133.6C62.6111 1133.6 146.605 1049.61 146.605 946C146.605 842.389 62.6111 758.395 -41 758.395C-144.611 758.395 -228.605 842.389 -228.605 946Z" fill="url(#paint35_linear_16889_58802)"/>
</g>
<g style="mix-blend-mode:overlay" opacity="0.05">
<path d="M1375.68 672.391C1164.98 513.676 1122.84 214.206 1281.55 3.50572C1440.27 -207.194 1739.74 -249.336 1950.44 -90.6206C2161.14 68.0946 2203.28 367.565 2044.57 578.265C1885.85 788.964 1586.38 831.106 1375.68 672.391ZM1672.54 278.299C1665.59 273.063 1655.71 274.453 1650.47 281.404C1645.24 288.355 1646.63 298.235 1653.58 303.471C1660.53 308.707 1670.41 307.317 1675.65 300.366C1680.88 293.415 1679.49 283.535 1672.54 278.299Z" fill="url(#paint36_linear_16889_58802)"/>
</g>
<path opacity="0.02" d="M-20 73C10.1169 121.101 94.4103 225.33 190.649 257.443C310.947 297.583 453.579 253.378 519.058 225.432C584.537 197.486 700.774 140.578 792.14 282.34C883.506 424.102 865.74 632.426 1013.45 722.869C1161.16 813.312 1300.74 615.15 1363.18 530.296C1425.61 445.442 1635.24 85.7027 1920 89.7675" stroke="url(#paint37_linear_16889_58802)" stroke-width="30"/>
</g>
<defs>
<filter id="filter0_f_16889_58802" x="583" y="-122.607" width="1816" height="1816" filterUnits="userSpaceOnUse" color-interpolation-filters="sRGB">
<feFlood flood-opacity="0" result="BackgroundImageFix"/>
<feBlend mode="normal" in="SourceGraphic" in2="BackgroundImageFix" result="shape"/>
<feGaussianBlur stdDeviation="200" result="effect1_foregroundBlur_16889_58802"/>
</filter>
<filter id="filter1_f_16889_58802" x="-949" y="38" width="1816" height="1816" filterUnits="userSpaceOnUse" color-interpolation-filters="sRGB">
<feFlood flood-opacity="0" result="BackgroundImageFix"/>
<feBlend mode="normal" in="SourceGraphic" in2="BackgroundImageFix" result="shape"/>
<feGaussianBlur stdDeviation="200" result="effect1_foregroundBlur_16889_58802"/>
</filter>
<linearGradient id="paint0_linear_16889_58802" x1="0" y1="16.3335" x2="1920" y2="16.3335" gradientUnits="userSpaceOnUse">
<stop stop-color="white" stop-opacity="0"/>
<stop offset="0.5" stop-color="white"/>
<stop offset="1" stop-color="white" stop-opacity="0"/>
</linearGradient>
<linearGradient id="paint1_linear_16889_58802" x1="0" y1="98.1665" x2="1920" y2="98.1665" gradientUnits="userSpaceOnUse">
<stop stop-color="white" stop-opacity="0"/>
<stop offset="0.5" stop-color="white"/>
<stop offset="1" stop-color="white" stop-opacity="0"/>
</linearGradient>
<linearGradient id="paint2_linear_16889_58802" x1="0" y1="180" x2="1920" y2="180" gradientUnits="userSpaceOnUse">
<stop stop-color="white" stop-opacity="0"/>
<stop offset="0.5" stop-color="white"/>
<stop offset="1" stop-color="white" stop-opacity="0"/>
</linearGradient>
<linearGradient id="paint3_linear_16889_58802" x1="0" y1="261.833" x2="1920" y2="261.833" gradientUnits="userSpaceOnUse">
<stop stop-color="white" stop-opacity="0"/>
<stop offset="0.5" stop-color="white"/>
<stop offset="1" stop-color="white" stop-opacity="0"/>
</linearGradient>
<linearGradient id="paint4_linear_16889_58802" x1="0" y1="343.667" x2="1920" y2="343.667" gradientUnits="userSpaceOnUse">
<stop stop-color="white" stop-opacity="0"/>
<stop offset="0.5" stop-color="white"/>
<stop offset="1" stop-color="white" stop-opacity="0"/>
</linearGradient>
<linearGradient id="paint5_linear_16889_58802" x1="0" y1="425.5" x2="1920" y2="425.5" gradientUnits="userSpaceOnUse">
<stop stop-color="white" stop-opacity="0"/>
<stop offset="0.5" stop-color="white"/>
<stop offset="1" stop-color="white" stop-opacity="0"/>
</linearGradient>
<linearGradient id="paint6_linear_16889_58802" x1="0" y1="587.333" x2="1920" y2="587.333" gradientUnits="userSpaceOnUse">
<stop stop-color="white" stop-opacity="0"/>
<stop offset="0.5" stop-color="white"/>
<stop offset="1" stop-color="white" stop-opacity="0"/>
</linearGradient>
<linearGradient id="paint7_linear_16889_58802" x1="0" y1="505.5" x2="1920" y2="505.5" gradientUnits="userSpaceOnUse">
<stop stop-color="white" stop-opacity="0"/>
<stop offset="0.5" stop-color="white"/>
<stop offset="1" stop-color="white" stop-opacity="0"/>
</linearGradient>
<linearGradient id="paint8_linear_16889_58802" x1="0" y1="669.167" x2="1920" y2="669.167" gradientUnits="userSpaceOnUse">
<stop stop-color="white" stop-opacity="0"/>
<stop offset="0.5" stop-color="white"/>
<stop offset="1" stop-color="white" stop-opacity="0"/>
</linearGradient>
<linearGradient id="paint9_linear_16889_58802" x1="0" y1="751" x2="1920" y2="751" gradientUnits="userSpaceOnUse">
<stop stop-color="white" stop-opacity="0"/>
<stop offset="0.5" stop-color="white"/>
<stop offset="1" stop-color="white" stop-opacity="0"/>
</linearGradient>
<linearGradient id="paint10_linear_16889_58802" x1="-0.5" y1="-110" x2="-0.500042" y2="845" gradientUnits="userSpaceOnUse">
<stop stop-color="white" stop-opacity="0"/>
<stop offset="0.5" stop-color="white"/>
<stop offset="1" stop-color="white" stop-opacity="0"/>
</linearGradient>
<linearGradient id="paint11_linear_16889_58802" x1="239.5" y1="-110" x2="239.5" y2="845" gradientUnits="userSpaceOnUse">
<stop stop-color="white" stop-opacity="0"/>
<stop offset="0.5" stop-color="white"/>
<stop offset="1" stop-color="white" stop-opacity="0"/>
</linearGradient>
<linearGradient id="paint12_linear_16889_58802" x1="479.5" y1="-110" x2="479.5" y2="845" gradientUnits="userSpaceOnUse">
<stop stop-color="white" stop-opacity="0"/>
<stop offset="0.5" stop-color="white"/>
<stop offset="1" stop-color="white" stop-opacity="0"/>
</linearGradient>
<linearGradient id="paint13_linear_16889_58802" x1="719.5" y1="-110" x2="719.5" y2="845" gradientUnits="userSpaceOnUse">
<stop stop-color="white" stop-opacity="0"/>
<stop offset="0.5" stop-color="white"/>
<stop offset="1" stop-color="white" stop-opacity="0"/>
</linearGradient>
<linearGradient id="paint14_linear_16889_58802" x1="959.5" y1="-110" x2="959.5" y2="845" gradientUnits="userSpaceOnUse">
<stop stop-color="white" stop-opacity="0"/>
<stop offset="0.5" stop-color="white"/>
<stop offset="1" stop-color="white" stop-opacity="0"/>
</linearGradient>
<linearGradient id="paint15_linear_16889_58802" x1="1199.5" y1="-110" x2="1199.5" y2="845" gradientUnits="userSpaceOnUse">
<stop stop-color="white" stop-opacity="0"/>
<stop offset="0.5" stop-color="white"/>
<stop offset="1" stop-color="white" stop-opacity="0"/>
</linearGradient>
<linearGradient id="paint16_linear_16889_58802" x1="79.5" y1="-110" x2="79.5" y2="845" gradientUnits="userSpaceOnUse">
<stop stop-color="white" stop-opacity="0"/>
<stop offset="0.5" stop-color="white"/>
<stop offset="1" stop-color="white" stop-opacity="0"/>
</linearGradient>
<linearGradient id="paint17_linear_16889_58802" x1="319.5" y1="-110" x2="319.5" y2="845" gradientUnits="userSpaceOnUse">
<stop stop-color="white" stop-opacity="0"/>
<stop offset="0.5" stop-color="white"/>
<stop offset="1" stop-color="white" stop-opacity="0"/>
</linearGradient>
<linearGradient id="paint18_linear_16889_58802" x1="559.5" y1="-110" x2="559.5" y2="845" gradientUnits="userSpaceOnUse">
<stop stop-color="white" stop-opacity="0"/>
<stop offset="0.5" stop-color="white"/>
<stop offset="1" stop-color="white" stop-opacity="0"/>
</linearGradient>
<linearGradient id="paint19_linear_16889_58802" x1="799.5" y1="-110" x2="799.5" y2="845" gradientUnits="userSpaceOnUse">
<stop stop-color="white" stop-opacity="0"/>
<stop offset="0.5" stop-color="white"/>
<stop offset="1" stop-color="white" stop-opacity="0"/>
</linearGradient>
<linearGradient id="paint20_linear_16889_58802" x1="1039.5" y1="-110" x2="1039.5" y2="845" gradientUnits="userSpaceOnUse">
<stop stop-color="white" stop-opacity="0"/>
<stop offset="0.5" stop-color="white"/>
<stop offset="1" stop-color="white" stop-opacity="0"/>
</linearGradient>
<linearGradient id="paint21_linear_16889_58802" x1="1279.5" y1="-110" x2="1279.5" y2="845" gradientUnits="userSpaceOnUse">
<stop stop-color="white" stop-opacity="0"/>
<stop offset="0.5" stop-color="white"/>
<stop offset="1" stop-color="white" stop-opacity="0"/>
</linearGradient>
<linearGradient id="paint22_linear_16889_58802" x1="159.5" y1="-110" x2="159.5" y2="845" gradientUnits="userSpaceOnUse">
<stop stop-color="white" stop-opacity="0"/>
<stop offset="0.5" stop-color="white"/>
<stop offset="1" stop-color="white" stop-opacity="0"/>
</linearGradient>
<linearGradient id="paint23_linear_16889_58802" x1="399.5" y1="-110" x2="399.5" y2="845" gradientUnits="userSpaceOnUse">
<stop stop-color="white" stop-opacity="0"/>
<stop offset="0.5" stop-color="white"/>
<stop offset="1" stop-color="white" stop-opacity="0"/>
</linearGradient>
<linearGradient id="paint24_linear_16889_58802" x1="639.5" y1="-110" x2="639.5" y2="845" gradientUnits="userSpaceOnUse">
<stop stop-color="white" stop-opacity="0"/>
<stop offset="0.5" stop-color="white"/>
<stop offset="1" stop-color="white" stop-opacity="0"/>
</linearGradient>
<linearGradient id="paint25_linear_16889_58802" x1="879.5" y1="-110" x2="879.5" y2="845" gradientUnits="userSpaceOnUse">
<stop stop-color="white" stop-opacity="0"/>
<stop offset="0.5" stop-color="white"/>
<stop offset="1" stop-color="white" stop-opacity="0"/>
</linearGradient>
<linearGradient id="paint26_linear_16889_58802" x1="1119.5" y1="-110" x2="1119.5" y2="845" gradientUnits="userSpaceOnUse">
<stop stop-color="white" stop-opacity="0"/>
<stop offset="0.5" stop-color="white"/>
<stop offset="1" stop-color="white" stop-opacity="0"/>
</linearGradient>
<linearGradient id="paint27_linear_16889_58802" x1="1359.5" y1="-110" x2="1359.5" y2="845" gradientUnits="userSpaceOnUse">
<stop stop-color="white" stop-opacity="0"/>
<stop offset="0.5" stop-color="white"/>
<stop offset="1" stop-color="white" stop-opacity="0"/>
</linearGradient>
<linearGradient id="paint28_linear_16889_58802" x1="1439.5" y1="-110" x2="1439.5" y2="845" gradientUnits="userSpaceOnUse">
<stop stop-color="white" stop-opacity="0"/>
<stop offset="0.5" stop-color="white"/>
<stop offset="1" stop-color="white" stop-opacity="0"/>
</linearGradient>
<linearGradient id="paint29_linear_16889_58802" x1="1679.5" y1="-110" x2="1679.5" y2="845" gradientUnits="userSpaceOnUse">
<stop stop-color="white" stop-opacity="0"/>
<stop offset="0.5" stop-color="white"/>
<stop offset="1" stop-color="white" stop-opacity="0"/>
</linearGradient>
<linearGradient id="paint30_linear_16889_58802" x1="1519.5" y1="-110" x2="1519.5" y2="845" gradientUnits="userSpaceOnUse">
<stop stop-color="white" stop-opacity="0"/>
<stop offset="0.5" stop-color="white"/>
<stop offset="1" stop-color="white" stop-opacity="0"/>
</linearGradient>
<linearGradient id="paint31_linear_16889_58802" x1="1759.5" y1="-110" x2="1759.5" y2="845" gradientUnits="userSpaceOnUse">
<stop stop-color="white" stop-opacity="0"/>
<stop offset="0.5" stop-color="white"/>
<stop offset="1" stop-color="white" stop-opacity="0"/>
</linearGradient>
<linearGradient id="paint32_linear_16889_58802" x1="1599.5" y1="-110" x2="1599.5" y2="845" gradientUnits="userSpaceOnUse">
<stop stop-color="white" stop-opacity="0"/>
<stop offset="0.5" stop-color="white"/>
<stop offset="1" stop-color="white" stop-opacity="0"/>
</linearGradient>
<linearGradient id="paint33_linear_16889_58802" x1="1839.5" y1="-110" x2="1839.5" y2="845" gradientUnits="userSpaceOnUse">
<stop stop-color="white" stop-opacity="0"/>
<stop offset="0.5" stop-color="white"/>
<stop offset="1" stop-color="white" stop-opacity="0"/>
</linearGradient>
<linearGradient id="paint34_linear_16889_58802" x1="1491" y1="277.393" x2="1491" y2="1293.39" gradientUnits="userSpaceOnUse">
<stop stop-color="#ABD624"/>
<stop offset="1" stop-color="#ABD624" stop-opacity="0"/>
</linearGradient>
<linearGradient id="paint35_linear_16889_58802" x1="-41" y1="438" x2="-41" y2="1454" gradientUnits="userSpaceOnUse">
<stop stop-color="#ABD624"/>
<stop offset="1" stop-color="#ABD624"/>
</linearGradient>
<linearGradient id="paint36_linear_16889_58802" x1="2044.57" y1="578.265" x2="1281.55" y2="3.50572" gradientUnits="userSpaceOnUse">
<stop stop-color="white"/>
<stop offset="1" stop-color="white" stop-opacity="0"/>
</linearGradient>
<linearGradient id="paint37_linear_16889_58802" x1="950" y1="73" x2="950" y2="746" gradientUnits="userSpaceOnUse">
<stop stop-color="white"/>
<stop offset="1" stop-color="white" stop-opacity="0"/>
</linearGradient>
</defs>
</svg>
