<svg width="149" height="32" viewBox="0 0 149 32" fill="none" xmlns="http://www.w3.org/2000/svg">
<g clip-path="url(#clip0_14401_49056)">
<mask id="mask0_14401_49056" style="mask-type:luminance" maskUnits="userSpaceOnUse" x="0" y="0" width="149" height="32">
<path d="M149 0H0V32H149V0Z" fill="white"/>
</mask>
<g mask="url(#mask0_14401_49056)">
<path d="M3.81904 25.2046C3.16815 25.2061 2.52854 25.0371 1.96556 24.7152C1.40258 24.3932 0.936411 23.9297 0.614673 23.372C0.297858 22.8182 0.139857 22.1899 0.157595 21.5544C0.175333 20.9189 0.368141 20.3002 0.715366 19.7644L7.31411 9.55092C7.6529 9.00345 8.13231 8.55384 8.70389 8.24751C9.27547 7.94118 9.91896 7.78899 10.5693 7.80632C11.2197 7.82366 11.8539 8.00989 12.4079 8.34622C12.9618 8.68254 13.4159 9.15703 13.7242 9.72174C14.0259 10.2834 14.1668 10.9153 14.1318 11.5499C14.0968 12.1844 13.8873 12.7976 13.5256 13.3237L6.93102 23.5373C6.59663 24.051 6.13608 24.4731 5.59208 24.7645C5.04807 25.056 4.43821 25.2074 3.81904 25.2046Z" fill="white"/>
<path d="M15.1366 25.2047C14.4868 25.2066 13.8482 25.0383 13.2862 24.717C12.7241 24.3957 12.2588 23.9329 11.9379 23.3761C11.6217 22.8239 11.4641 22.1972 11.4818 21.5634C11.4995 20.9295 11.692 20.3124 12.0385 19.7781L18.6248 9.58812C18.9589 9.03281 19.4369 8.57512 20.0098 8.26201C20.5827 7.9489 21.2297 7.79164 21.8846 7.80637C22.5395 7.8211 23.1786 8.00728 23.7363 8.34582C24.2941 8.68436 24.7505 9.16306 25.0586 9.73282C25.3588 10.2996 25.4953 10.9368 25.4534 11.5749C25.4115 12.2129 25.1927 12.8274 24.8209 13.3514L18.2361 23.5414C17.9027 24.0529 17.444 24.4734 16.9023 24.764C16.3606 25.0547 15.7534 25.2063 15.1366 25.2047Z" fill="white"/>
<path d="M26.202 25.2901C28.0782 25.2901 29.5992 23.8224 29.5992 22.0119C29.5992 20.2014 28.0782 18.7337 26.202 18.7337C24.3257 18.7337 22.8047 20.2014 22.8047 22.0119C22.8047 23.8224 24.3257 25.2901 26.202 25.2901Z" fill="white"/>
<path fill-rule="evenodd" clip-rule="evenodd" d="M148.862 8.63738H143.897L140.418 17.4799L136.956 8.63738H131.992L138.027 22.6099L134.273 31.8478H139.201L148.862 8.63738ZM118.67 16.4091C118.67 18.6414 120.649 20.1104 122.594 20.1104C124.505 20.1104 126.383 18.7434 126.383 16.408C126.383 14.0725 124.505 12.704 122.594 12.704C120.649 12.704 118.67 14.1743 118.67 16.408V16.4091ZM126.383 24.2112V22.4432C125.376 23.9452 123.027 24.5129 121.822 24.5129C117.832 24.5129 113.841 21.4125 113.841 16.4077C113.841 11.4043 117.831 8.30394 121.822 8.30394C122.828 8.30394 125.176 8.63468 126.383 10.3709V8.64287H131.01V24.2139L126.383 24.2125V24.2112ZM112.524 24.2112H107.896V22.2763C107.123 23.7095 105.248 24.5445 103.302 24.5445C99.2774 24.5445 95.7222 21.3766 95.7222 16.471C95.7222 11.4731 99.2774 8.30092 103.302 8.30092C105.246 8.30092 107.126 9.10015 107.896 10.5347V0.154602H112.524V24.2112ZM107.796 16.3735C107.796 14.0392 106.086 12.6711 104.175 12.6711C102.195 12.6711 100.551 14.1386 100.551 16.3735C100.551 18.6802 102.195 20.1408 104.173 20.1408C106.121 20.1436 107.796 18.6086 107.796 16.3735ZM84.2805 15.9711C84.2805 13.6037 85.522 12.8032 87.1647 12.8032C88.7403 12.8032 89.8811 13.8367 89.8811 15.9036V24.2087H94.5419V14.9044C94.5419 10.47 92.3274 8.30115 88.8057 8.30115C86.9617 8.30115 85.1177 9.33466 84.2789 10.9027V8.63738H79.6207V24.2087H84.2804L84.2805 15.9711ZM70.1558 24.4758C65.7296 24.4758 62.0373 21.2748 62.0373 16.372C62.0373 11.4664 65.7254 8.29706 70.1558 8.29706C74.5862 8.29706 78.3064 11.4661 78.3064 16.372C78.3064 21.2778 74.582 24.4771 70.1558 24.4771V24.4758ZM70.1558 19.9423C72.0991 19.9423 73.711 18.5395 73.711 16.3733C73.711 14.2719 72.1005 12.8375 70.1558 12.8375C69.6876 12.8303 69.2227 12.9171 68.7896 13.0926C68.3565 13.2682 67.9642 13.5288 67.6365 13.8586C67.307 14.1901 67.0484 14.5836 66.8762 15.0156C66.704 15.4476 66.6217 15.9094 66.6341 16.3733C66.6355 18.5422 68.245 19.942 70.1558 19.942V19.9423ZM53.6812 12.8043C55.0554 12.8043 56.2633 13.8722 56.2633 15.9048V24.2112H60.8909V15.3674C60.8909 10.6658 58.5715 8.29837 54.8541 8.29837C53.7496 8.29837 51.6694 8.62911 50.1594 11.0655C49.2871 9.26455 47.6108 8.33022 45.1334 8.33022C44.2734 8.32589 43.4302 8.5658 42.7048 9.02126C41.9794 9.47672 41.4024 10.1285 41.0428 10.8986V8.63878H36.3789V24.2098H41.0386V15.9709C41.0386 13.6036 42.3472 12.803 43.755 12.803C45.0971 12.803 46.3023 13.8365 46.3372 15.8042V24.2098H50.9983V15.9709C50.9983 13.7069 52.206 12.8057 53.6812 12.8057V12.8043Z" fill="white"/>
</g>
</g>
<defs>
<clipPath id="clip0_14401_49056">
<rect width="149" height="32" fill="white"/>
</clipPath>
</defs>
</svg>
