<svg width="95" height="32" viewBox="0 0 95 32" fill="none" xmlns="http://www.w3.org/2000/svg">
<g clip-path="url(#clip0_14401_49086)">
<mask id="mask0_14401_49086" style="mask-type:luminance" maskUnits="userSpaceOnUse" x="0" y="0" width="95" height="32">
<path d="M95 0H0V32H95V0Z" fill="white"/>
</mask>
<g mask="url(#mask0_14401_49086)">
<path d="M29.0169 0.100159H2.98531C2.22132 0.102838 1.48938 0.407997 0.949149 0.949071C0.408919 1.49015 0.104237 2.22323 0.101562 2.98842V29.0608C0.104237 29.826 0.408919 30.559 0.949149 31.1001C1.48938 31.6412 2.22132 31.9463 2.98531 31.949H29.0169C29.7809 31.9463 30.5128 31.6412 31.0531 31.1001C31.5933 30.559 31.898 29.826 31.9007 29.0608V2.98842C31.898 2.22323 31.5933 1.49015 31.0531 0.949071C30.5128 0.407997 29.7809 0.102838 29.0169 0.100159Z" fill="white"/>
<path d="M44.7333 24.8195H47.7733V11.5231H44.7333V24.8195ZM55.8527 16.9613C54.2939 16.4669 52.8651 16.0506 52.8651 15.0878V15.0358C52.8651 14.2552 53.5406 13.7087 54.7356 13.7087C55.3072 13.7087 55.9567 13.8389 56.6321 14.073H56.6583C56.7168 14.1037 56.7776 14.1298 56.8401 14.1511C57.3337 14.3072 58.6067 14.5153 59.7239 12.798C58.321 11.8613 56.5024 11.2889 54.8397 11.2889C52.1897 11.2889 50.1114 12.8241 50.1114 15.3481V15.4001C50.1114 17.9501 52.2937 18.7567 54.2682 19.3031C55.827 19.7715 57.2299 20.1358 57.2299 21.1766V21.2286C57.2299 22.1133 56.4765 22.6598 55.1775 22.6598C54.3201 22.6598 53.3589 22.4256 52.3975 21.9833C52.1117 21.8792 50.7088 21.3848 49.4875 23.1022C51.1502 24.4032 53.2025 25.0797 55.0991 25.0797C57.8529 25.0797 60.0352 23.7007 60.0352 20.8905V20.8384C59.9833 18.4445 57.8012 17.5598 55.8527 16.9613ZM36.4459 21.3067L32.8867 11.5231H29.6133L35.069 24.9233H37.7968L43.2268 11.5228H40.0313L36.4459 21.3067ZM74.1163 11.2369C70.0375 11.2369 67.0238 14.3853 67.0238 18.2103C67.0238 22.0093 70.0115 25.1057 74.0643 25.1057C78.1693 25.1057 81.1827 21.9572 81.1827 18.1583C81.1828 14.3333 78.1693 11.2369 74.1163 11.2369ZM74.1163 22.4776C71.7521 22.4776 70.0635 20.5261 70.0635 18.1583C70.0635 15.8165 71.6223 13.891 74.0643 13.891C76.4543 13.891 78.1431 15.8425 78.1431 18.2103C78.1173 20.5782 76.5583 22.4776 74.1163 22.4776ZM90.1978 11.2369C88.1454 11.2369 86.8984 12.3297 86.041 13.5787V11.5231H83.0014V24.8195H86.041V17.3256C86.041 15.27 87.2621 14.0211 89.0287 14.0211C90.8473 14.0211 91.8605 15.192 91.8605 17.2736V24.8195H94.9001V16.3629C94.9263 13.2664 93.1853 11.2369 90.1978 11.2369ZM61.9839 24.8195H65.0236V11.5231H61.9839V24.8195Z" fill="white"/>
<path d="M10.7258 10.118C11.7908 10.118 12.6742 9.28533 12.6742 8.19248C12.6742 7.09962 11.7909 6.26697 10.7258 6.26697C9.66064 6.26697 8.77734 7.09962 8.77734 8.19248C8.77734 9.28533 9.66064 10.118 10.7258 10.118Z" fill="#2D5BD2"/>
<path d="M6.70127 20.396C6.59737 20.8904 6.51942 21.4108 6.51942 21.8272C6.51942 23.5184 7.42872 24.6373 9.37717 24.6373C10.9879 24.6373 12.2869 23.6746 13.2222 22.1394L12.6506 24.4552H15.8461L17.6647 17.1177C18.1324 15.2703 19.0157 14.2815 20.3406 14.2815C21.4056 14.2815 22.0553 14.932 22.0553 16.0248C22.0587 16.376 22.015 16.7261 21.9253 17.0657L20.9903 20.4482C20.8595 20.9142 20.7896 21.3952 20.7824 21.8793C20.7824 23.4926 21.7174 24.6636 23.6921 24.6636C25.3808 24.6636 26.7317 23.5708 27.4592 20.9688L26.2119 20.474C25.5884 22.2174 25.0428 22.5297 24.6011 22.5297C24.1854 22.5297 23.9516 22.2434 23.9516 21.671C23.9516 21.4106 24.0036 21.1246 24.0816 20.7863L24.9909 17.5077C25.1976 16.8332 25.3027 16.1316 25.3027 15.4261C25.3027 12.9542 23.8218 11.6792 22.0292 11.6792C20.3405 11.6792 18.6259 13.1884 17.7686 14.8016L18.3921 11.9134H13.5079L12.8325 14.4373H15.1187L13.7158 20.0837C12.5987 22.5556 10.5722 22.5817 10.3384 22.5297C9.92273 22.4256 9.66298 22.2692 9.66298 21.723C9.66298 21.4108 9.71492 20.9685 9.87082 20.422L12.0012 11.9134H6.59732L5.92188 14.4374H8.18188L6.70127 20.396Z" fill="#2D5BD2"/>
</g>
</g>
<defs>
<clipPath id="clip0_14401_49086">
<rect width="95" height="32" fill="white"/>
</clipPath>
</defs>
</svg>
