<svg width="135" height="32" viewBox="0 0 135 32" fill="none" xmlns="http://www.w3.org/2000/svg">
<g clip-path="url(#clip0_14401_49067)">
<mask id="mask0_14401_49067" style="mask-type:luminance" maskUnits="userSpaceOnUse" x="0" y="0" width="135" height="32">
<path d="M135 0H0V32H135V0Z" fill="white"/>
</mask>
<g mask="url(#mask0_14401_49067)">
<mask id="mask1_14401_49067" style="mask-type:luminance" maskUnits="userSpaceOnUse" x="15" y="3" width="105" height="26">
<path d="M119.936 3.60358H15.0625V28.3964H119.936V3.60358Z" fill="white"/>
</mask>
<g mask="url(#mask1_14401_49067)">
<path d="M118.481 3.98911C118.368 3.96104 118.254 3.9444 118.138 3.93945C117.355 3.93945 116.62 4.3863 116.62 5.5788C116.18 11.4393 115.689 17.3002 114.906 22.8631C115.396 22.7637 115.739 22.9128 116.081 23.0618C116.963 17.3997 119.068 8.90688 119.607 6.47279C119.705 6.12511 119.803 5.72778 119.803 5.42976C119.852 4.58515 119.314 4.08843 118.481 3.98911Z" fill="white"/>
<path d="M40.1836 6.27386C39.4004 6.57188 38.7146 6.52223 37.9312 6.27386C35.385 12.8301 32.3981 20.2307 29.7539 25.7438C30.978 25.4458 32.1533 25.5451 32.8878 25.7438C33.5733 24.0055 34.3567 22.0187 35.0912 20.032C37.6864 19.9326 40.3305 19.9326 42.9257 20.032C43.6602 21.9194 44.3947 23.8564 45.1292 25.7438C46.3044 25.4458 47.4795 25.4955 48.3119 25.7438C46.4513 22.0685 42.6318 12.5818 40.1836 6.27386ZM39.0574 9.65131C40.1346 12.6314 41.2609 15.6612 42.485 18.6909C40.2326 18.7903 37.9311 18.7903 35.6787 18.6909C37.0498 15.1148 38.3719 11.638 39.0574 9.65131Z" fill="white"/>
<path d="M26.0813 17.7969C28.7251 13.0784 33.1324 5.33045 34.3564 3.6911C33.2301 3.93946 32.1529 3.93946 31.1247 3.6911C30.1944 5.42948 26.8648 10.9427 24.7593 14.5188C22.6047 10.893 20.0585 6.67121 18.3936 3.6911C17.0715 3.98912 16.5325 3.98912 15.2109 3.6911C17.8061 7.71424 22.0172 15.3134 23.4372 17.7969L23.2413 28.2272C23.2413 28.2272 24.1717 28.0783 24.7593 28.0783C25.2682 28.0903 25.7755 28.1401 26.2772 28.2272L26.0813 17.7969Z" fill="white"/>
<path d="M77.3982 6.02551C70.6404 6.02551 67.0664 10.3963 67.0664 16.0585C67.0664 22.267 70.9347 25.9921 77.3982 25.9921C84.3513 25.9921 87.779 21.7206 87.779 16.1081C87.7789 9.80029 83.7147 6.02551 77.3982 6.02551ZM77.4472 24.8995C72.9425 24.8995 70.2982 21.6214 70.2982 16.0585C70.2982 9.80036 73.5789 7.26724 77.3003 7.21758H77.4962C81.6582 7.21758 84.6946 10.0983 84.6946 16.0585C84.5964 22.0189 81.5606 24.8995 77.4472 24.8995Z" fill="white"/>
<path d="M100.805 4.8335C94.0477 4.8335 88.9062 8.70759 88.9062 15.9592C88.9062 21.9195 92.3338 27.1345 100.854 27.1345C108.101 27.1345 112.801 23.1114 112.801 16.0585C112.801 9.40286 108.395 4.8335 100.805 4.8335ZM92.0889 15.9095C92.0889 8.31025 96.6917 6.0255 100.805 6.0255C105.897 6.0255 109.619 9.15458 109.619 16.0585C109.619 23.5584 105.114 25.9921 100.805 25.9921C96.2511 25.9922 92.0889 23.2604 92.0889 15.9095Z" fill="white"/>
<path d="M114.807 25.1975C113.779 25.1975 113.289 25.992 113.289 26.7868C113.289 27.7802 114.072 28.2769 115.003 28.2769C115.688 28.2769 116.472 27.83 116.472 26.6875C116.521 25.7935 115.786 25.1975 114.807 25.1975Z" fill="white"/>
<path d="M66.1343 6.27386C65.0875 6.52222 63.9984 6.52222 62.9516 6.27386C63.0985 9.30363 63.1964 12.3332 63.1964 15.3632C59.6219 15.4625 56.0474 15.4625 52.473 15.3632C52.473 12.3334 52.5709 9.30385 52.7178 6.27386C51.6711 6.52222 50.5819 6.52222 49.5352 6.27386C49.829 12.7804 49.78 19.2374 49.5352 25.694C50.5819 25.4456 51.6711 25.4456 52.7178 25.694C52.571 22.6642 52.473 19.6841 52.473 16.6543C56.0475 16.6047 59.622 16.6047 63.1964 16.6543C63.1964 19.6841 63.0985 22.6642 62.9516 25.694C63.9984 25.4456 65.0875 25.4456 66.1343 25.694C65.8893 19.2374 65.8893 12.7804 66.1343 6.27386Z" fill="white"/>
</g>
</g>
</g>
<defs>
<clipPath id="clip0_14401_49067">
<rect width="135" height="32" fill="white"/>
</clipPath>
</defs>
</svg>
