<svg width="134" height="32" viewBox="0 0 134 32" fill="none" xmlns="http://www.w3.org/2000/svg">
<g clip-path="url(#clip0_14401_49096)">
<mask id="mask0_14401_49096" style="mask-type:luminance" maskUnits="userSpaceOnUse" x="0" y="0" width="134" height="32">
<path d="M134 0H0V32H134V0Z" fill="white"/>
</mask>
<g mask="url(#mask0_14401_49096)">
<path d="M117.657 10.8158C118.403 10.8158 119.016 10.4295 119.099 9.93036L119.834 1.63393C119.834 0.813881 118.871 0.140686 117.66 0.140686C116.45 0.140686 115.488 0.813882 115.488 1.63407L116.223 9.93058C116.303 10.4296 116.917 10.816 117.66 10.816H117.657M113.161 13.4074C113.535 12.7647 113.507 12.0424 113.113 11.7214L106.274 6.9377C105.563 6.52711 104.497 7.02132 103.892 8.06768C103.285 9.11271 103.393 10.2798 104.102 10.6906L111.674 14.2066C112.147 14.3816 112.793 14.0449 113.163 13.4026L113.161 13.4075M122.158 13.403C122.531 14.0453 123.174 14.3822 123.647 14.207L131.219 10.691C131.933 10.2804 132.034 9.11306 131.433 8.0681C130.825 7.02279 129.757 6.52753 129.048 6.93812L122.209 11.7217C121.818 12.0422 121.789 12.7651 122.16 13.4076L122.158 13.4028M117.657 21.1793C118.403 21.1793 119.016 21.5624 119.099 22.062L119.834 30.3572C119.834 31.18 118.871 31.8514 117.66 31.8514C116.45 31.8514 115.488 31.1797 115.488 30.3572L116.223 22.062C116.304 21.5626 116.917 21.1793 117.66 21.1793H117.658M122.158 18.5874C122.531 17.9434 123.174 17.6094 123.647 17.7865L131.219 21.2998C131.933 21.7109 132.034 22.8792 131.433 23.9251C130.824 24.9671 129.757 25.4636 129.047 25.0536L122.209 20.2745C121.818 19.9516 121.789 19.2282 122.16 18.586H122.157M113.161 18.5865C113.535 19.2282 113.507 19.9515 113.113 20.2751L106.274 25.054C105.563 25.464 104.497 24.9674 103.892 23.9255C103.285 22.8796 103.393 21.7113 104.102 21.3002L111.674 17.7868C112.147 17.6098 112.792 17.9437 113.163 18.5879H113.161" fill="white"/>
<path d="M74.5235 20.2594C74.5287 20.5118 74.4975 20.7636 74.4309 21.0072C74.1409 21.965 73.1463 22.775 71.9021 22.775C70.8648 22.775 70.0408 22.1874 70.0408 20.9464C70.0408 19.0469 72.1374 18.5223 74.5241 18.5355L74.5235 20.2595L74.5235 20.2594ZM78.2669 16.9491C78.2669 13.8169 76.9248 11.0608 72.3899 11.0608C70.062 11.0608 68.2147 11.7128 67.2062 12.2939L67.9448 14.8117C68.8665 14.2315 70.3357 13.7511 71.7254 13.7511C74.0257 13.7448 74.4024 15.0501 74.4024 15.8856V16.0833C69.388 16.076 66.2186 17.8073 66.2186 21.3343C66.2186 23.4894 67.8329 25.5079 70.6392 25.5079C72.3635 25.5079 73.8078 24.8216 74.6721 23.7211H74.7574C74.7574 23.7211 75.3293 26.1104 78.4866 25.1962C78.3219 24.2026 78.268 23.1419 78.268 21.8664L78.2676 16.9488M0.140625 6.79512C0.140625 6.79512 3.41728 20.184 3.94051 22.357C4.55085 24.8933 5.65092 25.827 8.82093 25.1965L10.8668 16.8959C11.3856 14.8332 11.7328 13.3624 12.067 11.2662H12.1252C12.3598 13.3847 12.6928 14.8395 13.1196 16.9028C13.1196 16.9028 13.9518 20.6713 14.379 22.65C14.8063 24.6288 15.9964 25.8756 19.1018 25.1965L23.9771 6.79456H20.0422L18.377 14.751C17.9293 17.0661 17.5237 18.8771 17.2104 20.9945H17.1547C16.8702 18.8957 16.5079 17.1585 16.0532 14.9024L14.321 6.79456H10.2204L8.36646 14.698C7.84175 17.1003 7.34968 19.0394 7.03796 21.0863H6.98154C6.66149 19.1588 6.23551 16.7208 5.77448 14.3965C5.77448 14.3965 4.67384 8.74318 4.28673 6.79456L0.140836 6.79512M31.4205 20.2594C31.4258 20.5119 31.3943 20.7638 31.3268 21.0072C31.0376 21.965 30.0422 22.775 28.7981 22.775C27.7606 22.775 26.9378 22.1874 26.9378 20.9464C26.9378 19.0469 29.0338 18.5223 31.421 18.5355L31.4205 20.259V20.2594ZM35.1635 16.9491C35.1635 13.8169 33.8214 11.0608 29.2873 11.0608C26.9588 11.0608 25.1098 11.7128 24.1019 12.2939L24.8396 14.8117C25.7611 14.2315 27.23 13.7511 28.6205 13.7511C30.9224 13.7448 31.2991 15.0501 31.2991 15.8856V16.0833C26.2828 16.076 23.1146 17.8073 23.1146 21.3343C23.1146 23.4894 24.7281 25.5079 27.5323 25.5079C29.259 25.5079 30.7024 24.8216 31.5677 23.7211H31.6523C31.6523 23.7211 32.2259 26.1104 35.3825 25.1962C35.2175 24.2026 35.1639 23.1419 35.1639 21.8664V16.9491M41.4108 21.2903V6.7954H37.6625V25.1972H41.4104V21.2903M90.4403 6.7954V20.3699C90.4403 22.2424 90.7943 23.5528 91.5491 24.3548C92.2105 25.0559 93.2971 25.5098 94.6004 25.5098C95.7089 25.5098 96.7987 25.2988 97.313 25.1089L97.2646 22.1891C96.7991 22.3046 96.3209 22.3613 95.8412 22.3579C94.5641 22.3579 94.137 21.5421 94.137 19.8618V14.6678H97.4008V11.1461H94.1368V6.79512H90.44M80.7663 11.3729V25.1972H84.6326V18.1189C84.627 17.7767 84.6551 17.4347 84.7164 17.098C85.0025 15.6145 86.1394 14.6675 87.7727 14.6675C88.1464 14.6712 88.5193 14.7038 88.888 14.7652V11.1461C88.6083 11.0856 88.3226 11.0571 88.0364 11.0612C86.5937 11.0612 84.9522 11.9895 84.2633 13.981H84.1586V11.3729H80.7663ZM44.0349 11.3729V25.1972H47.8017V17.0906C47.7933 16.706 47.8532 16.3229 47.9786 15.9591C48.2908 15.1433 49.0525 14.1868 50.268 14.1868C51.7887 14.1868 52.4989 15.4682 52.4989 17.3176V25.1961H56.2626V16.9908C56.2591 16.6116 56.3121 16.234 56.42 15.8703C56.729 14.9413 57.5495 14.186 58.6797 14.186C60.2206 14.186 60.9603 15.4449 60.9603 17.6217V25.1957H64.7264V17.0531C64.7264 12.7596 62.5401 11.0598 60.0716 11.0598C58.9795 11.0598 58.1165 11.3326 57.336 11.8096C56.6807 12.2122 56.0929 12.7826 55.5799 13.5326H55.5242C54.929 12.0428 53.5283 11.0607 51.7036 11.0607C49.3591 11.0607 48.3054 12.2459 47.6663 13.2509H47.6098V11.3725H44.0342" fill="white"/>
<path d="M133.12 24.525H133.176C133.252 24.525 133.3 24.4939 133.3 24.4476C133.3 24.3951 133.255 24.3665 133.185 24.3665C133.161 24.3665 133.136 24.3714 133.12 24.3714V24.5247L133.12 24.525ZM133.111 24.8977H132.911V24.2472C133.005 24.2302 133.101 24.2219 133.198 24.2225C133.345 24.2225 133.411 24.2432 133.46 24.2758C133.482 24.2919 133.5 24.3134 133.513 24.3382C133.525 24.3631 133.531 24.3906 133.53 24.4183C133.53 24.4851 133.468 24.5416 133.378 24.566V24.5743C133.414 24.5854 133.447 24.6073 133.471 24.6371C133.495 24.6669 133.51 24.7033 133.513 24.7416C133.522 24.7954 133.537 24.8479 133.559 24.8979H133.332C133.309 24.8544 133.294 24.8074 133.287 24.7588C133.274 24.6929 133.243 24.6599 133.176 24.6599H133.11L133.111 24.8975V24.8977ZM133.194 24.0352C133.056 24.0358 132.925 24.0907 132.828 24.1878C132.731 24.285 132.677 24.4165 132.677 24.5535C132.678 24.6905 132.732 24.8217 132.83 24.9185C132.927 25.0152 133.059 25.0696 133.196 25.0696C133.333 25.0696 133.465 25.0152 133.562 24.9185C133.66 24.8217 133.714 24.6905 133.715 24.5535C133.715 24.4165 133.661 24.285 133.564 24.1878C133.467 24.0907 133.335 24.0358 133.198 24.0352H133.194ZM133.207 23.8586C133.407 23.8593 133.598 23.9391 133.739 24.0804C133.88 24.2218 133.959 24.4131 133.958 24.6125C133.958 24.8118 133.878 25.0029 133.737 25.1437C133.595 25.2845 133.404 25.3636 133.204 25.3636C133.004 25.3636 132.812 25.2845 132.671 25.1437C132.529 25.0029 132.45 24.8118 132.449 24.6125C132.449 24.4131 132.528 24.2218 132.669 24.0804C132.81 23.9391 133.001 23.8593 133.201 23.8586H133.206" fill="white"/>
</g>
</g>
<defs>
<clipPath id="clip0_14401_49096">
<rect width="134" height="32" fill="white"/>
</clipPath>
</defs>
</svg>
