<svg width="104" height="32" viewBox="0 0 104 32" fill="none" xmlns="http://www.w3.org/2000/svg">
<g clip-path="url(#clip0_14401_49110)">
<mask id="mask0_14401_49110" style="mask-type:luminance" maskUnits="userSpaceOnUse" x="0" y="0" width="104" height="32">
<path d="M104 0H0V32H104V0Z" fill="white"/>
</mask>
<g mask="url(#mask0_14401_49110)">
<path d="M0.109375 22.6152V0.576538H3.94353V22.6152H0.109375Z" fill="white"/>
<path d="M13.7592 6.62658C8.8433 6.62658 5.44141 10.4429 5.44141 14.8111C5.44141 19.6863 9.14227 23.0448 13.7974 23.0448C18.2153 23.0448 22.0492 19.7481 22.0492 14.8006C22.0492 10.6402 18.8723 6.62653 13.7592 6.62653L13.7592 6.62658ZM13.7141 10.3612C16.2867 10.3612 18.1806 12.3832 18.1806 14.8252C18.1851 16.0075 17.7245 17.1433 16.9001 17.983C16.0757 18.8227 14.9548 19.2975 13.7838 19.3032C11.0554 19.3032 9.3384 17.1197 9.3384 14.832C9.33834 12.3247 11.2767 10.3612 13.7141 10.3612Z" fill="white"/>
<path d="M31.6811 6.62659C26.7652 6.62659 23.3633 10.4429 23.3633 14.8111C23.3633 19.6863 27.0641 23.0448 31.7192 23.0448C36.1372 23.0448 39.971 19.7481 39.971 14.8006C39.971 11.8872 38.7215 10.5945 38.7215 10.5945L39.7842 10.2265V7.08454H34.3386C33.4838 6.78518 32.5859 6.63045 31.6811 6.62659ZM31.6359 10.3612C34.2086 10.3612 36.1025 12.3832 36.1025 14.8252C36.107 16.0075 35.6464 17.1433 34.822 17.983C33.9975 18.8227 32.8767 19.2975 31.7057 19.3032C28.9773 19.3032 27.2603 17.1197 27.2603 14.832C27.2603 12.3247 29.1986 10.3612 31.636 10.3612H31.6359Z" fill="white"/>
<path d="M36.0748 23.6927C36.0748 26.2819 33.9871 28.1847 31.6781 28.1847C28.9497 28.1847 27.2257 25.9802 27.2257 23.6927H23.3359C23.3359 28.5679 27.0368 31.9264 31.6919 31.9264C36.1099 31.9264 39.9437 28.6402 39.9437 23.6927H36.0748Z" fill="white"/>
<path d="M41.5078 22.6152V7.08496H45.342V22.6152H41.5078Z" fill="white"/>
<path d="M49.0638 22.6152V10.5635H47.0078V7.08491H49.0638V2.31586H52.898V7.08491H55.0096V10.5635H52.898V22.6152H49.0638Z" fill="white"/>
<path d="M45.9568 2.67413C45.9568 3.18116 45.8079 3.6768 45.529 4.09838C45.25 4.51996 44.8534 4.84855 44.3895 5.04258C43.9256 5.23661 43.4151 5.28738 42.9225 5.18846C42.43 5.08954 41.9776 4.84538 41.6226 4.48686C41.2675 4.12833 41.0257 3.67155 40.9277 3.17426C40.8297 2.67697 40.88 2.16152 41.0722 1.69308C41.2643 1.22465 41.5898 0.82427 42.0073 0.542578C42.4248 0.260887 42.9157 0.110535 43.4179 0.110535C44.0913 0.110535 44.737 0.380626 45.2132 0.861393C45.6893 1.34216 45.9568 1.99422 45.9568 2.67413Z" fill="white"/>
<path d="M63.6311 6.61614C58.692 6.61614 55.5078 10.4345 55.5078 14.9515C55.5078 19.6193 58.7025 23.0554 63.711 23.0554C68.3831 23.0554 70.6812 20.1096 70.6812 20.1096L68.1182 17.5182C68.1182 17.5182 66.183 19.6257 63.7596 19.6257C61.7395 19.6257 60.1243 18.4872 59.5607 16.3996H71.5078V15.3336C71.5078 11.08 69.0695 6.61603 63.6312 6.61603L63.6311 6.61614ZM63.5096 10.0246C65.2758 10.0246 67.0822 10.9787 67.4861 13.2578H59.4566C59.7747 11.6557 61.1626 10.0246 63.5096 10.0246Z" fill="white"/>
<path d="M81.0977 23.058C76.1445 23.058 72.7695 19.2489 72.7695 14.7577C72.7695 10.1228 76.5839 6.61377 81.0818 6.61377C85.43 6.61377 87.6557 9.71313 87.6557 9.71313L84.981 12.4015C84.981 12.4015 83.4317 10.3802 81.0636 10.3802C78.4391 10.3802 76.6445 12.4074 76.6445 14.8171C76.6445 17.3615 78.5535 19.3136 81.0344 19.3136C83.4405 19.3136 84.9775 17.2956 84.9775 17.2956L87.679 19.9825C87.679 19.9825 85.4749 23.058 81.098 23.058H81.0977Z" fill="white"/>
<path d="M89.0742 22.6267V0.520752H92.9084V8.64262C92.9084 8.64262 94.3765 6.61385 97.57 6.61385C101.585 6.61385 103.911 9.62727 103.911 13.4814V22.6267H100.077V14.0665C100.077 11.4772 98.48 10.403 96.7113 10.403C94.6962 10.403 92.9083 11.561 92.9083 14.2669V22.6267H89.0742Z" fill="white"/>
</g>
</g>
<defs>
<clipPath id="clip0_14401_49110">
<rect width="104" height="32" fill="white"/>
</clipPath>
</defs>
</svg>
