<svg width="103" height="20" viewBox="0 0 103 20" fill="none" xmlns="http://www.w3.org/2000/svg">
<g clip-path="url(#clip0_14401_49105)">
<path d="M74.5235 14.2597C74.5287 14.5122 74.4975 14.764 74.4309 15.0076C74.1409 15.9654 73.1463 16.7754 71.9021 16.7754C70.8648 16.7754 70.0408 16.1878 70.0408 14.9468C70.0408 13.0473 72.1374 12.5227 74.5241 12.5359L74.5235 14.2599L74.5235 14.2597ZM78.2669 10.9495C78.2669 7.81727 76.9248 5.06112 72.3899 5.06112C70.062 5.06112 68.2147 5.71315 67.2062 6.29428L67.9448 8.81208C68.8665 8.23186 70.3357 7.75151 71.7254 7.75151C74.0257 7.74518 74.4024 9.0505 74.4024 9.88595V10.0837C69.388 10.0763 66.2186 11.8077 66.2186 15.3347C66.2186 17.4898 67.8329 19.5083 70.6392 19.5083C72.3635 19.5083 73.8078 18.822 74.6721 17.7214H74.7574C74.7574 17.7214 75.3293 20.1108 78.4866 19.1966C78.3219 18.2029 78.268 17.1423 78.268 15.8668L78.2676 10.9491M0.140625 0.795484C0.140625 0.795484 3.41728 14.1844 3.94051 16.3573C4.55085 18.8936 5.65092 19.8273 8.82093 19.1969L10.8668 10.8963C11.3856 8.83353 11.7328 7.3628 12.067 5.26655H12.1252C12.3598 7.38502 12.6928 8.83986 13.1196 10.9031C13.1196 10.9031 13.9518 14.6717 14.379 16.6504C14.8063 18.6291 15.9964 19.876 19.1018 19.1969L23.9771 0.794922H20.0422L18.377 8.75139C17.9293 11.0664 17.5237 12.8774 17.2104 14.9948H17.1547C16.8702 12.8961 16.5079 11.1589 16.0532 8.90281L14.321 0.794922H10.2204L8.36646 8.69836C7.84175 11.1007 7.34968 13.0397 7.03796 15.0867H6.98154C6.66149 13.1592 6.23551 10.7212 5.77448 8.39686C5.77448 8.39686 4.67384 2.74355 4.28673 0.794922L0.140836 0.795484M31.4205 14.2597C31.4258 14.5122 31.3943 14.7642 31.3268 15.0076C31.0376 15.9654 30.0422 16.7754 28.7981 16.7754C27.7606 16.7754 26.9378 16.1878 26.9378 14.9468C26.9378 13.0473 29.0338 12.5227 31.421 12.5359L31.4205 14.2593V14.2597ZM35.1635 10.9495C35.1635 7.81727 33.8214 5.06112 29.2873 5.06112C26.9588 5.06112 25.1098 5.71315 24.1019 6.29428L24.8396 8.81208C25.7611 8.23186 27.23 7.75151 28.6205 7.75151C30.9224 7.74518 31.2991 9.0505 31.2991 9.88595V10.0837C26.2828 10.0763 23.1146 11.8077 23.1146 15.3347C23.1146 17.4898 24.7281 19.5083 27.5323 19.5083C29.259 19.5083 30.7024 18.822 31.5677 17.7214H31.6523C31.6523 17.7214 32.2259 20.1108 35.3825 19.1966C35.2175 18.2029 35.1639 17.1423 35.1639 15.8668V10.9495M41.4108 15.2907V0.795765H37.6625V19.1975H41.4104V15.2907M90.4403 0.795765V14.3703C90.4403 16.2428 90.7943 17.5531 91.5491 18.3551C92.2105 19.0563 93.2971 19.5101 94.6004 19.5101C95.7089 19.5101 96.7987 19.2992 97.313 19.1093L97.2646 16.1895C96.7991 16.3049 96.3209 16.3617 95.8412 16.3582C94.5641 16.3582 94.137 15.5424 94.137 13.8622V8.66812H97.4008V5.1465H94.1368V0.795484H90.44M80.7663 5.37331V19.1975H84.6326V12.1193C84.627 11.7771 84.6551 11.4351 84.7164 11.0984C85.0025 9.61489 86.1394 8.66791 87.7727 8.66791C88.1464 8.67155 88.5193 8.70421 88.888 8.7656V5.1465C88.6083 5.08601 88.3226 5.0575 88.0364 5.06154C86.5937 5.06154 84.9522 5.98989 84.2633 7.98135H84.1586V5.37331H80.7663ZM44.0349 5.37331V19.1975H47.8017V11.091C47.7933 10.7064 47.8532 10.3233 47.9786 9.95951C48.2908 9.14369 49.0525 8.1872 50.268 8.1872C51.7887 8.1872 52.4989 9.46861 52.4989 11.3179V19.1965H56.2626V10.9912C56.2591 10.612 56.3121 10.2343 56.42 9.87068C56.729 8.9417 57.5495 8.18636 58.6797 8.18636C60.2206 8.18636 60.9603 9.44526 60.9603 11.622V19.196H64.7264V11.0535C64.7264 6.75993 62.5401 5.06021 60.0716 5.06021C58.9795 5.06021 58.1165 5.33301 57.336 5.80992C56.6807 6.21256 56.0929 6.783 55.5799 7.533H55.5242C54.929 6.0432 53.5283 5.06105 51.7036 5.06105C49.3591 5.06105 48.3054 6.24624 47.6663 7.25126H47.6098V5.37282H44.0342" fill="white"/>
<path d="M100.221 16.2138H100.409C100.659 16.2138 100.819 16.1105 100.819 15.9568C100.819 15.7822 100.669 15.6874 100.437 15.6874C100.357 15.6874 100.276 15.7035 100.221 15.7035V16.2129L100.221 16.2138ZM100.192 17.4521H99.5287V15.2909C99.8426 15.2346 100.161 15.2072 100.48 15.2089C100.968 15.2089 101.187 15.2778 101.347 15.386C101.422 15.4396 101.482 15.5108 101.523 15.5935C101.564 15.6761 101.584 15.7675 101.581 15.8596C101.581 16.0813 101.377 16.2692 101.076 16.3502V16.3778C101.198 16.4146 101.306 16.4873 101.386 16.5864C101.466 16.6855 101.515 16.8064 101.525 16.9334C101.554 17.1121 101.604 17.2866 101.675 17.4528H100.924C100.848 17.3083 100.798 17.152 100.775 16.9907C100.733 16.7717 100.63 16.6622 100.408 16.6622H100.191L100.192 17.4514V17.4521ZM100.466 14.5867C100.011 14.5886 99.5756 14.771 99.2549 15.0938C98.9341 15.4166 98.7545 15.8535 98.7555 16.3086C98.7565 16.7636 98.9379 17.1997 99.26 17.5212C99.5822 17.8426 100.019 18.0231 100.474 18.0231C100.929 18.0231 101.365 17.8426 101.687 17.5212C102.01 17.1997 102.191 16.7636 102.192 16.3086C102.193 15.8535 102.013 15.4166 101.693 15.0938C101.372 14.771 100.936 14.5886 100.481 14.5867H100.466ZM100.509 14C101.171 14.0024 101.806 14.2675 102.273 14.7371C102.74 15.2066 103.001 15.8423 103 16.5045C102.999 17.1668 102.735 17.8015 102.266 18.2694C101.797 18.7372 101.162 19 100.5 19C99.8377 19 99.2026 18.7372 98.7338 18.2694C98.2651 17.8015 98.0012 17.1668 98 16.5045C97.9988 15.8423 98.2604 15.2066 98.7274 14.7371C99.1944 14.2675 99.8286 14.0024 100.491 14H100.506" fill="white"/>
</g>
<defs>
<clipPath id="clip0_14401_49105">
<rect width="103" height="20" fill="white"/>
</clipPath>
</defs>
</svg>
