<svg width="24" height="24" viewBox="0 0 24 24" fill="none" xmlns="http://www.w3.org/2000/svg">
<g clip-path="url(#clip0_367_15)">
<path d="M13.5384 0H14.4401C17.2168 0.26 19.6584 2.46333 20.1468 5.21833C21.7518 5.18333 23.2551 6.54 23.2418 8.17C23.2518 11.06 23.2401 13.9483 23.2468 16.8383C23.2651 18.815 22.4084 20.7817 20.9434 22.1117C19.8084 23.1883 18.2984 23.805 16.7568 24H15.7118C14.5018 23.9067 13.2984 23.5483 12.2768 22.885C10.9718 21.96 9.92843 20.725 8.7601 19.64C8.96677 20.1483 9.0701 20.7233 8.89177 21.2567C8.62677 21.955 7.9251 22.51 7.15843 22.475C4.2401 22.585 1.49177 20.3517 0.900099 17.51C0.730099 16.6467 0.546765 15.5867 1.2251 14.8867C1.6951 14.3067 2.47677 14.18 3.17843 14.2917C2.40343 13.535 2.11343 12.3067 2.58343 11.3133C2.65843 11.0733 2.91343 10.8317 2.74343 10.5767C2.47843 10.0317 2.1951 9.46333 2.24677 8.83833C2.2451 7.52833 3.2351 6.40167 4.43677 5.98667C4.90343 4.45667 6.5851 3.45167 8.15177 3.87667C8.83177 3.13667 9.79843 2.59833 10.8334 2.74833C11.3701 2.73333 11.8101 3.13833 12.3168 3.18167C12.2768 2.72 11.9868 2.31 12.0168 1.83667C11.9801 0.95 12.7084 0.195 13.5384 0V0ZM13.5601 1.575C13.5351 1.79 13.5551 2.00667 13.6084 2.215C15.2801 2.175 16.9668 3.11167 17.6318 4.67667C17.9934 5.31333 17.8801 6.07 18.1301 6.73833C18.3868 6.79 18.5884 6.71667 18.7351 6.51333C18.9151 3.795 16.3034 1.175 13.5601 1.575V1.575ZM13.5734 4.41833C14.1684 4.51333 14.8268 4.60333 15.2434 5.09167C15.5918 5.45333 15.7184 5.95333 15.7684 6.43833C15.7918 6.8 16.3851 6.87167 16.4568 6.50167C16.6351 4.97833 15.1368 3.55667 13.6234 3.75667C13.5368 3.96833 13.5318 4.195 13.5734 4.41833ZM9.0701 5.395C9.05177 5.79667 9.07677 6.21333 9.25677 6.58167C8.7351 6.08667 8.2851 5.38333 7.50843 5.29667C6.80177 5.21 6.17177 5.71667 5.9101 6.34333C5.82343 6.82167 5.9251 7.29167 6.11177 7.73167C5.3201 7.02167 4.01677 7.57833 3.76343 8.55167C3.5201 9.86667 4.88177 10.4967 5.5401 11.3967C5.12843 11.1567 4.56843 11.205 4.22343 11.5417C3.70843 11.9617 3.7501 12.8333 4.2601 13.24C6.92843 15.7933 9.57177 18.3717 12.2368 20.9267C14.0201 22.7583 17.1368 22.9933 19.2268 21.5517C20.8884 20.475 21.8651 18.48 21.7468 16.5083C21.7418 13.785 21.7484 11.06 21.7434 8.33667C21.8001 7.53833 21.1334 6.77333 20.3284 6.75167C19.5334 6.68667 18.7668 7.36833 18.7584 8.17167C18.7334 9.37833 18.7601 10.5867 18.7484 11.7933C18.5784 11.6283 18.4118 11.4617 18.2434 11.2967C16.1001 9.14833 13.9518 7.00667 11.8101 4.85833C11.4684 4.50333 11.0168 4.19833 10.5018 4.23833C9.81843 4.22167 9.25343 4.765 9.0701 5.395V5.395ZM2.26177 15.9767C2.07177 18.705 4.68343 21.33 7.4351 20.925C7.46843 20.7117 7.4401 20.4983 7.3951 20.2883C5.71843 20.3283 4.0351 19.39 3.36843 17.82C3.0101 17.185 3.10677 16.435 2.8801 15.7633C2.61677 15.6967 2.41177 15.7683 2.26177 15.9767V15.9767ZM4.53177 15.9983C4.34177 17.5383 5.86843 18.9383 7.38343 18.7333C7.43843 18.52 7.47677 18.3017 7.43843 18.0817C6.87843 17.9733 6.25677 17.93 5.83677 17.49C5.4301 17.13 5.26843 16.5883 5.22343 16.065C5.21343 15.685 4.58843 15.6083 4.53177 15.9983Z" fill="black"/>
<path d="M13.56 1.57505C16.3033 1.17505 18.915 3.79505 18.735 6.51338C18.5883 6.71672 18.3867 6.79005 18.13 6.73838C17.88 6.07005 17.9933 5.31338 17.6317 4.67672C16.9667 3.11172 15.28 2.17505 13.6083 2.21505C13.555 2.00672 13.535 1.79005 13.56 1.57505V1.57505Z" fill="#31D2F7"/>
<path d="M2.26172 15.9767C2.41172 15.7684 2.61672 15.6967 2.88006 15.7634C3.10672 16.435 3.01006 17.185 3.36839 17.82C4.03506 19.39 5.71839 20.3284 7.39506 20.2884C7.44006 20.4984 7.46839 20.7117 7.43506 20.925C4.68339 21.33 2.07172 18.705 2.26172 15.9767V15.9767Z" fill="#31D2F7"/>
<path d="M4.5317 15.9984C4.58837 15.6084 5.21337 15.685 5.22337 16.065C5.26837 16.5884 5.43004 17.13 5.8367 17.49C6.2567 17.93 6.87837 17.9734 7.43837 18.0817C7.4767 18.3017 7.43837 18.52 7.38337 18.7334C5.86837 18.9384 4.3417 17.5384 4.5317 15.9984V15.9984Z" fill="#31D2F7"/>
<path d="M13.5732 4.41833C13.5316 4.195 13.5366 3.96833 13.6232 3.75667C15.1366 3.55667 16.6349 4.97833 16.4566 6.50166C16.3849 6.87166 15.7916 6.8 15.7682 6.43833C15.7182 5.95333 15.5916 5.45333 15.2432 5.09166C14.8266 4.60333 14.1682 4.51333 13.5732 4.41833V4.41833Z" fill="#31D2F8"/>
<path d="M9.06985 5.39507C9.25318 4.76507 9.81818 4.22173 10.5015 4.2384C11.0165 4.1984 11.4682 4.5034 11.8098 4.8584C13.9515 7.00673 16.0998 9.1484 18.2432 11.2967C17.3948 12.1517 16.4332 12.9101 15.7032 13.8734C14.6532 15.4167 14.8648 17.6734 16.1648 19.0034C16.3782 19.2451 16.8482 19.1884 16.8682 18.8217C16.6498 18.3317 16.2565 17.9467 16.0365 17.4584C15.4982 16.2717 15.7748 14.7801 16.6798 13.8467C17.3482 13.1417 18.0782 12.4984 18.7482 11.7934C18.7598 10.5867 18.7332 9.3784 18.7582 8.17173C18.7665 7.3684 19.5332 6.68673 20.3282 6.75173C21.1332 6.7734 21.7998 7.5384 21.7432 8.33673C21.7482 11.0601 21.7415 13.7851 21.7465 16.5084C21.8648 18.4801 20.8882 20.4751 19.2265 21.5517C17.1365 22.9934 14.0198 22.7584 12.2365 20.9267C9.57152 18.3717 6.92818 15.7934 4.25985 13.2401C3.74985 12.8334 3.70818 11.9617 4.22318 11.5417C4.56818 11.2051 5.12818 11.1567 5.53985 11.3967C6.81485 12.5367 7.95652 13.8167 9.20485 14.9834C9.47818 15.3001 9.82985 14.9917 9.92318 14.6884C8.60818 13.2984 7.22652 11.9717 5.87985 10.6134C5.16818 9.93173 4.51818 9.18674 3.76318 8.55174C4.01652 7.5784 5.31985 7.02173 6.11152 7.73173C7.87818 9.3484 9.51485 11.1051 11.2282 12.7801C11.3915 12.9717 11.6748 13.0667 11.8882 12.8884C12.0682 12.6784 11.9182 12.4084 11.7515 12.2484C9.81318 10.2717 7.80652 8.36007 5.90985 6.3434C6.17152 5.71673 6.80152 5.21007 7.50818 5.29673C8.28485 5.3834 8.73485 6.08673 9.25652 6.58173C10.7415 8.02507 12.1715 9.52507 13.6765 10.9484C13.8798 10.8267 14.2765 10.6251 14.0265 10.3434C13.2732 9.4334 12.3582 8.66674 11.5532 7.80174C10.7198 7.00507 9.97318 6.11507 9.06985 5.39507V5.39507Z" fill="#FFC83D"/>
<path d="M9.06999 5.39502C9.97332 6.11502 10.72 7.00502 11.5533 7.80169C12.3583 8.66669 13.2733 9.43335 14.0267 10.3434C14.2767 10.625 13.88 10.8267 13.6767 10.9484C12.1717 9.52502 10.7417 8.02502 9.25665 6.58169C9.07665 6.21335 9.05165 5.79669 9.06999 5.39502V5.39502Z" fill="#D48C00"/>
<path d="M6.11139 7.73159C5.92472 7.29159 5.82306 6.8216 5.90973 6.34326C7.80639 8.35993 9.81306 10.2716 11.7514 12.2483C11.9181 12.4083 12.0681 12.6783 11.8881 12.8883C11.6747 13.0666 11.3914 12.9716 11.2281 12.7799C9.51473 11.1049 7.87806 9.34826 6.11139 7.73159V7.73159Z" fill="#D48C00"/>
<path d="M3.76314 8.55176C4.51814 9.18676 5.16814 9.93176 5.87981 10.6134C7.22648 11.9718 8.60814 13.2984 9.92314 14.6884C9.82981 14.9918 9.47814 15.3001 9.20481 14.9834C7.95648 13.8168 6.81481 12.5368 5.53981 11.3968C4.88148 10.4968 3.51981 9.86676 3.76314 8.55176V8.55176Z" fill="#D48C00"/>
<path d="M18.2431 11.2966C18.4114 11.4616 18.5781 11.6283 18.7481 11.7933C18.0781 12.4983 17.3481 13.1416 16.6798 13.8466C15.7748 14.78 15.4981 16.2716 16.0364 17.4583C16.2564 17.9466 16.6498 18.3316 16.8681 18.8216C16.8481 19.1883 16.3781 19.245 16.1648 19.0033C14.8648 17.6733 14.6531 15.4166 15.7031 13.8733C16.4331 12.91 17.3948 12.1516 18.2431 11.2966Z" fill="#D48C00"/>
</g>
<defs>
<clipPath id="clip0_367_15">
<rect width="24" height="24" fill="white"/>
</clipPath>
</defs>
</svg>
