<svg width="1920" height="1074" viewBox="0 0 1920 1074" fill="none" xmlns="http://www.w3.org/2000/svg">
<mask id="mask0_14401_48889" style="mask-type:alpha" maskUnits="userSpaceOnUse" x="0" y="0" width="1920" height="1074">
<rect width="1920" height="1074" fill="#D9D9D9"/>
</mask>
<g mask="url(#mask0_14401_48889)">
<path fill-rule="evenodd" clip-rule="evenodd" d="M251.631 114.275H173.275V192.583H243.513L251.631 184.47V114.275ZM259.965 192.583L251.952 184.575V114.275H330.308V192.583H259.965ZM251.952 200.792L259.846 192.904H330.308V271.211H251.952V200.792ZM243.633 192.904L251.631 200.897V271.211H173.275V192.904H243.633ZM173 114V192.629V192.858V271.257V271.486V349.885V350.114V428.514V428.743V507.142V507.371V586H251.677H251.906H330.354H330.584H409.031H409.26H487.708H487.938H566.385H566.615H645.062H645.292H723.739H723.969H802.416H802.646H881.093H881.323H960L960 507.371V428.743V428.514V349.885V271.486V192.858V192.629V114H881.323H881.094H802.646H802.416H723.969H723.739H645.292H645.062H566.615H566.385H487.938H487.708H409.26H409.031H330.584H330.354H251.906H251.677H173ZM330.629 114.275H408.985V192.583H330.629V114.275ZM487.662 114.275H409.306V192.583H487.662V114.275ZM487.983 114.275H566.339V192.583H487.983V114.275ZM645.016 114.275H566.66V192.583H645.016V114.275ZM645.337 114.275H723.693V192.583H645.337V114.275ZM802.37 114.275H724.015V192.583H802.37V114.275ZM802.691 114.275H881.047V192.583H802.691V114.275ZM959.725 114.275H881.369V192.583H959.725V114.275ZM330.629 192.904H408.985V271.211H330.629V192.904ZM487.662 192.904H409.306V271.211H479.781L487.662 263.334V192.904ZM495.739 271.211L487.983 263.461V192.904H566.339V271.211H495.739ZM487.983 279.657L496.087 271.559L496.06 271.532H566.339V349.839H487.983V279.657ZM479.46 271.532L479.433 271.559L487.662 279.783V349.839H409.306V271.532H479.46ZM645.016 192.904H566.66V271.211H645.016V192.904ZM645.337 192.904H723.693V271.211H645.337V192.904ZM802.37 192.904H724.015V271.211H802.37V192.904ZM802.691 192.904H881.047V249.486L880.914 249.619L859.309 271.211H802.691V192.904ZM858.988 271.532H802.692V342.125L802.955 341.862L810.937 349.839H881.048V293.632L880.914 293.498L859.174 271.771L858.961 271.559L858.988 271.532ZM881.048 293.207L859.386 271.559L859.413 271.532H872.827L872.8 271.559L881.048 279.801V293.207ZM881.369 293.47V349.839H959.724V271.532H903.266L903.293 271.559L903.08 271.771L881.369 293.47ZM902.841 271.532L902.868 271.559L881.369 293.045V279.639L889.454 271.559L889.427 271.532H902.841ZM902.945 271.211H959.725V192.904H881.369V249.648L902.945 271.211ZM881.369 250.073L902.52 271.211H889.106L881.369 263.479V250.073ZM881.047 249.911L859.734 271.211H873.148L881.047 263.317V249.911ZM802.691 358.242L802.955 358.505L811.282 350.184L811.258 350.16H881.047V428.468H802.691V358.242ZM794.651 350.16L794.628 350.184L802.37 357.921V428.468H724.015V350.16H794.651ZM802.37 342.446L794.972 349.839H724.015V271.532H802.37V342.446ZM173.275 271.532H251.631V349.839H173.275V271.532ZM330.308 271.532H251.952V349.839H330.308V271.532ZM330.629 271.532H408.985V349.839H330.629V271.532ZM645.017 271.532H566.661V349.839H645.017V271.532ZM645.337 271.532H723.693V349.839H645.337V271.532ZM173.275 350.16H251.631V428.468H173.275V350.16ZM330.308 350.16H251.952V428.468H308.658L308.556 428.366L308.769 428.154L330.308 406.627V350.16ZM330.308 407.052L308.981 428.366L309.083 428.468H322.497L322.395 428.366L330.308 420.458V407.052ZM330.629 420.137V406.732L330.722 406.639L352.463 428.366L352.361 428.468H338.947L339.049 428.366L330.722 420.044L330.629 420.137ZM330.629 436.595L330.722 436.688L338.626 428.789H352.04L330.722 450.093L330.629 450.001V436.595ZM322.818 428.789L330.308 436.274V449.68L309.404 428.789H322.818ZM308.979 428.789H251.952V507.096H330.308V450.105L308.979 428.789ZM330.629 450.425V507.096H408.985V428.789H352.465L330.935 450.306L330.722 450.518L330.629 450.425ZM352.786 428.468H408.985V350.16H330.629V406.307L330.722 406.214L330.935 406.426L352.675 428.154L352.888 428.366L352.786 428.468ZM487.662 350.16H409.306V428.468H487.662V350.16ZM487.983 350.16H566.339V428.468H487.983V350.16ZM645.016 350.16H566.66V428.468H645.016V350.16ZM645.337 350.16H723.693V428.468H645.337V350.16ZM959.725 350.16H881.369V428.468H959.725V350.16ZM173.275 428.789H251.631V507.096H173.275V428.789ZM487.662 428.789H409.306V507.096H487.662V428.789ZM487.983 428.789H566.339V507.096H487.983V428.789ZM645.016 428.789H566.66V507.096H645.016V428.789ZM645.337 428.789H723.693V507.096H645.337V428.789ZM802.37 428.789H724.015V507.096H802.37V428.789ZM802.691 428.789H881.047V507.096H802.691V428.789ZM959.725 428.789H881.369V507.096H959.725V428.789ZM173.275 507.417H251.631V585.725H173.275V507.417ZM330.308 507.417H251.952V585.725H330.308V507.417ZM330.629 507.417H408.985V585.725H330.629V507.417ZM487.662 507.417H409.306V585.725H487.662V507.417ZM487.983 507.417H566.339V585.725H487.983V507.417ZM645.016 507.417H566.66V585.725H645.016V507.417ZM645.337 507.417H723.693V585.725H645.337V507.417ZM802.37 507.417H724.015V585.725H802.37V507.417ZM802.691 507.417H881.047V585.725H802.691V507.417ZM959.724 507.417H881.369V585.725H959.724V507.417Z" fill="url(#paint0_radial_14401_48889)" fill-opacity="0.6"/>
<path fill-rule="evenodd" clip-rule="evenodd" d="M1038.63 114.275H960.275V192.583H1030.51L1038.63 184.47V114.275ZM1046.97 192.583L1038.95 184.575V114.275H1117.31V192.583H1046.97ZM1038.95 200.792L1046.85 192.904H1117.31V271.211H1038.95V200.792ZM1030.63 192.904L1038.63 200.897V271.211H960.275V192.904H1030.63ZM960 114V192.629V192.858V271.257V271.486V349.885V350.114V428.514V428.743V507.142V507.371V586H1038.68H1038.91H1117.35H1117.58H1196.03H1196.26H1274.71H1274.94H1353.39H1353.61H1432.06H1432.29H1510.74H1510.97H1589.42H1589.65H1668.09H1668.32H1747L1747 507.371V428.743V428.514V349.885V271.486V192.858V192.629V114H1668.32H1668.09H1589.65H1589.42H1510.97H1510.74H1432.29H1432.06H1353.61H1353.39H1274.94H1274.71H1196.26H1196.03H1117.58H1117.35H1038.91H1038.68H960ZM1117.63 114.275H1195.99V192.583H1117.63V114.275ZM1274.66 114.275H1196.31V192.583H1274.66V114.275ZM1274.98 114.275H1353.34V192.583H1274.98V114.275ZM1432.02 114.275H1353.66V192.583H1432.02V114.275ZM1432.34 114.275H1510.69V192.583H1432.34V114.275ZM1589.37 114.275H1511.01V192.583H1589.37V114.275ZM1589.69 114.275H1668.05V192.583H1589.69V114.275ZM1746.72 114.275H1668.37V192.583H1746.72V114.275ZM1117.63 192.904H1195.99V271.211H1117.63V192.904ZM1274.66 192.904H1196.31V271.211H1266.78L1274.66 263.334V192.904ZM1282.74 271.211L1274.98 263.461V192.904H1353.34V271.211H1282.74ZM1274.98 279.657L1283.09 271.559L1283.06 271.532H1353.34V349.839H1274.98V279.657ZM1266.46 271.532L1266.43 271.559L1274.66 279.783V349.839H1196.31V271.532H1266.46ZM1432.02 192.904H1353.66V271.211H1432.02V192.904ZM1432.34 192.904H1510.69V271.211H1432.34V192.904ZM1589.37 192.904H1511.01V271.211H1589.37V192.904ZM1589.69 192.904H1668.05V249.486L1667.91 249.619L1646.31 271.211H1589.69V192.904ZM1645.99 271.532H1589.69V342.125L1589.95 341.862L1597.94 349.839H1668.05V293.632L1667.91 293.498L1646.17 271.771L1645.96 271.559L1645.99 271.532ZM1668.05 293.207L1646.39 271.559L1646.41 271.532H1659.83L1659.8 271.559L1668.05 279.801V293.207ZM1668.37 293.47V349.839H1746.72V271.532H1690.27L1690.29 271.559L1690.08 271.771L1668.37 293.47ZM1689.84 271.532L1689.87 271.559L1668.37 293.045V279.639L1676.45 271.559L1676.43 271.532H1689.84ZM1689.95 271.211H1746.72V192.904H1668.37V249.648L1689.95 271.211ZM1668.37 250.073L1689.52 271.211H1676.11L1668.37 263.479V250.073ZM1668.05 249.911L1646.73 271.211H1660.15L1668.05 263.317V249.911ZM1589.69 358.242L1589.95 358.505L1598.28 350.184L1598.26 350.16H1668.05V428.468H1589.69V358.242ZM1581.65 350.16L1581.63 350.184L1589.37 357.921V428.468H1511.01V350.16H1581.65ZM1589.37 342.446L1581.97 349.839H1511.01V271.532H1589.37V342.446ZM960.275 271.532H1038.63V349.839H960.275V271.532ZM1117.31 271.532H1038.95V349.839H1117.31V271.532ZM1117.63 271.532H1195.99V349.839H1117.63V271.532ZM1432.02 271.532H1353.66V349.839H1432.02V271.532ZM1432.34 271.532H1510.69V349.839H1432.34V271.532ZM960.275 350.16H1038.63V428.468H960.275V350.16ZM1117.31 350.16H1038.95V428.468H1095.66L1095.56 428.366L1095.77 428.154L1117.31 406.627V350.16ZM1117.31 407.052L1095.98 428.366L1096.08 428.468H1109.5L1109.4 428.366L1117.31 420.458V407.052ZM1117.63 420.137V406.732L1117.72 406.639L1139.46 428.366L1139.36 428.468H1125.95L1126.05 428.366L1117.72 420.044L1117.63 420.137ZM1117.63 436.595L1117.72 436.688L1125.63 428.789H1139.04L1117.72 450.093L1117.63 450.001V436.595ZM1109.82 428.789L1117.31 436.274V449.68L1096.4 428.789H1109.82ZM1095.98 428.789H1038.95V507.096H1117.31V450.105L1095.98 428.789ZM1117.63 450.425V507.096H1195.99V428.789H1139.46L1117.93 450.306L1117.72 450.518L1117.63 450.425ZM1139.79 428.468H1195.99V350.16H1117.63V406.307L1117.72 406.214L1117.93 406.426L1139.68 428.154L1139.89 428.366L1139.79 428.468ZM1274.66 350.16H1196.31V428.468H1274.66V350.16ZM1274.98 350.16H1353.34V428.468H1274.98V350.16ZM1432.02 350.16H1353.66V428.468H1432.02V350.16ZM1432.34 350.16H1510.69V428.468H1432.34V350.16ZM1746.72 350.16H1668.37V428.468H1746.72V350.16ZM960.275 428.789H1038.63V507.096H960.275V428.789ZM1274.66 428.789H1196.31V507.096H1274.66V428.789ZM1274.98 428.789H1353.34V507.096H1274.98V428.789ZM1432.02 428.789H1353.66V507.096H1432.02V428.789ZM1432.34 428.789H1510.69V507.096H1432.34V428.789ZM1589.37 428.789H1511.01V507.096H1589.37V428.789ZM1589.69 428.789H1668.05V507.096H1589.69V428.789ZM1746.72 428.789H1668.37V507.096H1746.72V428.789ZM960.275 507.417H1038.63V585.725H960.275V507.417ZM1117.31 507.417H1038.95V585.725H1117.31V507.417ZM1117.63 507.417H1195.99V585.725H1117.63V507.417ZM1274.66 507.417H1196.31V585.725H1274.66V507.417ZM1274.98 507.417H1353.34V585.725H1274.98V507.417ZM1432.02 507.417H1353.66V585.725H1432.02V507.417ZM1432.34 507.417H1510.69V585.725H1432.34V507.417ZM1589.37 507.417H1511.01V585.725H1589.37V507.417ZM1589.69 507.417H1668.05V585.725H1589.69V507.417ZM1746.72 507.417H1668.37V585.725H1746.72V507.417Z" fill="url(#paint1_radial_14401_48889)" fill-opacity="0.6"/>
<path fill-rule="evenodd" clip-rule="evenodd" d="M1668.37 993.725H1746.72V915.417H1676.49L1668.37 923.53V993.725ZM1660.03 915.417L1668.05 923.425V993.725H1589.69V915.417H1660.03ZM1668.05 907.208L1660.15 915.096H1589.69V836.789H1668.05V907.208ZM1676.37 915.096L1668.37 907.103V836.789H1746.72V915.096H1676.37ZM1747 994V915.371V915.142V836.743V836.514V758.115V757.885V679.486V679.257V600.858V600.628V522H1668.32H1668.09H1589.65H1589.42H1510.97H1510.74H1432.29H1432.06H1353.61H1353.39H1274.94H1274.71H1196.26H1196.03H1117.58H1117.35H1038.91H1038.68H960L960 600.628V679.257V679.486V758.115V836.514V915.142V915.371V994H1038.68H1038.91H1117.35H1117.58H1196.03H1196.26H1274.71H1274.94H1353.39H1353.61H1432.06H1432.29H1510.74H1510.97H1589.42H1589.65H1668.09H1668.32H1747ZM1589.37 993.725H1511.01V915.417H1589.37V993.725ZM1432.34 993.725H1510.69V915.417H1432.34V993.725ZM1432.02 993.725H1353.66V915.417H1432.02V993.725ZM1274.98 993.725H1353.34V915.417H1274.98V993.725ZM1274.66 993.725H1196.31V915.417H1274.66V993.725ZM1117.63 993.725H1195.99V915.417H1117.63V993.725ZM1117.31 993.725H1038.95V915.417H1117.31V993.725ZM960.275 993.725H1038.63V915.417H960.275V993.725ZM1589.37 915.096H1511.01V836.789H1589.37V915.096ZM1432.34 915.096H1510.69V836.789H1440.22L1432.34 844.665V915.096ZM1424.26 836.789L1432.02 844.539V915.096H1353.66V836.789H1424.26ZM1432.02 828.343L1423.91 836.441L1423.94 836.468H1353.66V758.161H1432.02V828.343ZM1440.54 836.468L1440.57 836.441L1432.34 828.217V758.161H1510.69V836.468H1440.54ZM1274.98 915.096H1353.34V836.789H1274.98V915.096ZM1274.66 915.096H1196.31V836.789H1274.66V915.096ZM1117.63 915.096H1195.99V836.789H1117.63V915.096ZM1117.31 915.096H1038.95V858.514L1039.09 858.381L1060.69 836.789H1117.31V915.096ZM1061.01 836.468H1117.31V765.875L1117.05 766.138L1109.06 758.161H1038.95V814.368L1039.09 814.501L1060.83 836.229L1061.04 836.441L1061.01 836.468ZM1038.95 814.793L1060.61 836.441L1060.59 836.468H1047.17L1047.2 836.441L1038.95 828.199V814.793ZM1038.63 814.53V758.161H960.276V836.468H1016.73L1016.71 836.441L1016.92 836.229L1038.63 814.53ZM1017.16 836.468L1017.13 836.441L1038.63 814.955V828.361L1030.55 836.441L1030.57 836.468H1017.16ZM1017.05 836.789H960.275V915.096H1038.63V858.352L1017.05 836.789ZM1038.63 857.927L1017.48 836.789H1030.89L1038.63 844.521V857.927ZM1038.95 858.089L1060.27 836.789H1046.85L1038.95 844.683V858.089ZM1117.31 749.758L1117.05 749.495L1108.72 757.816L1108.74 757.84H1038.95V679.532H1117.31V749.758ZM1125.35 757.84L1125.37 757.816L1117.63 750.079V679.532H1195.99V757.84H1125.35ZM1117.63 765.554L1125.03 758.161H1195.99V836.468H1117.63V765.554ZM1746.72 836.468H1668.37V758.161H1746.72V836.468ZM1589.69 836.468H1668.05V758.161H1589.69V836.468ZM1589.37 836.468H1511.01V758.161H1589.37V836.468ZM1274.98 836.468H1353.34V758.161H1274.98V836.468ZM1274.66 836.468H1196.31V758.161H1274.66V836.468ZM1746.72 757.84H1668.37V679.532H1746.72V757.84ZM1589.69 757.84H1668.05V679.532H1611.34L1611.44 679.634L1611.23 679.846L1589.69 701.373V757.84ZM1589.69 700.948L1611.02 679.634L1610.92 679.532H1597.5L1597.6 679.634L1589.69 687.542V700.948ZM1589.37 687.863V701.268L1589.28 701.361L1567.54 679.634L1567.64 679.532H1581.05L1580.95 679.634L1589.28 687.956L1589.37 687.863ZM1589.37 671.405L1589.28 671.312L1581.37 679.211H1567.96L1589.28 657.907L1589.37 657.999V671.405ZM1597.18 679.211L1589.69 671.726V658.32L1610.6 679.211H1597.18ZM1611.02 679.211H1668.05V600.904H1589.69V657.895L1611.02 679.211ZM1589.37 657.574V600.904H1511.01V679.211H1567.54L1589.07 657.694L1589.28 657.482L1589.37 657.574ZM1567.21 679.532H1511.01V757.84H1589.37V701.693L1589.28 701.786L1589.07 701.574L1567.32 679.846L1567.11 679.634L1567.21 679.532ZM1432.34 757.84H1510.69V679.532H1432.34V757.84ZM1432.02 757.84H1353.66V679.532H1432.02V757.84ZM1274.98 757.84H1353.34V679.532H1274.98V757.84ZM1274.66 757.84H1196.31V679.532H1274.66V757.84ZM960.275 757.84H1038.63V679.532H960.275V757.84ZM1746.72 679.211H1668.37V600.904H1746.72V679.211ZM1432.34 679.211H1510.69V600.904H1432.34V679.211ZM1432.02 679.211H1353.66V600.904H1432.02V679.211ZM1274.98 679.211H1353.34V600.904H1274.98V679.211ZM1274.66 679.211H1196.31V600.904H1274.66V679.211ZM1117.63 679.211H1195.99V600.904H1117.63V679.211ZM1117.31 679.211H1038.95V600.904H1117.31V679.211ZM960.275 679.211H1038.63V600.904H960.275V679.211ZM1746.72 600.583H1668.37V522.275H1746.72V600.583ZM1589.69 600.583H1668.05V522.275H1589.69V600.583ZM1589.37 600.583H1511.01V522.275H1589.37V600.583ZM1432.34 600.583H1510.69V522.275H1432.34V600.583ZM1432.02 600.583H1353.66V522.275H1432.02V600.583ZM1274.98 600.583H1353.34V522.275H1274.98V600.583ZM1274.66 600.583H1196.31V522.275H1274.66V600.583ZM1117.63 600.583H1195.99V522.275H1117.63V600.583ZM1117.31 600.583H1038.95V522.275H1117.31V600.583ZM960.276 600.583H1038.63V522.275H960.276V600.583Z" fill="url(#paint2_radial_14401_48889)" fill-opacity="0.6"/>
<path fill-rule="evenodd" clip-rule="evenodd" d="M881.369 993.725H959.725V915.417H889.487L881.369 923.53V993.725ZM873.035 915.417L881.048 923.425V993.725H802.692V915.417H873.035ZM881.048 907.208L873.154 915.096H802.692V836.789H881.048V907.208ZM889.367 915.096L881.369 907.103V836.789H959.725V915.096H889.367ZM960 994V915.371V915.142V836.743V836.514V758.115V757.885V679.486V679.257V600.858V600.628V522H881.323H881.094H802.646H802.416H723.969H723.74H645.292H645.062H566.615H566.385H487.938H487.708H409.261H409.031H330.584H330.354H251.907H251.677H173L173 600.628V679.257V679.486V758.115V836.514V915.142V915.371V994H251.677H251.906H330.354H330.584H409.031H409.261H487.708H487.938H566.385H566.615H645.062H645.292H723.74H723.969H802.416H802.646H881.094H881.323H960ZM802.371 993.725H724.015V915.417H802.371V993.725ZM645.338 993.725H723.694V915.417H645.338V993.725ZM645.017 993.725H566.661V915.417H645.017V993.725ZM487.984 993.725H566.34V915.417H487.984V993.725ZM487.663 993.725H409.307V915.417H487.663V993.725ZM330.63 993.725H408.985V915.417H330.63V993.725ZM330.309 993.725H251.953V915.417H330.309V993.725ZM173.275 993.725H251.631V915.417H173.275V993.725ZM802.371 915.096H724.015V836.789H802.371V915.096ZM645.338 915.096H723.694V836.789H653.219L645.338 844.665V915.096ZM637.261 836.789L645.017 844.539V915.096H566.661V836.789H637.261ZM645.017 828.343L636.913 836.441L636.94 836.468H566.661V758.161H645.017V828.343ZM653.54 836.468L653.567 836.441L645.338 828.217V758.161H723.694V836.468H653.54ZM487.984 915.096H566.34V836.789H487.984V915.096ZM487.663 915.096H409.307V836.789H487.663V915.096ZM330.63 915.096H408.985V836.789H330.63V915.096ZM330.309 915.096H251.953V858.514L252.086 858.381L273.691 836.789H330.309V915.096ZM274.012 836.468H330.308V765.875L330.045 766.138L322.063 758.161H251.952V814.368L252.086 814.501L273.826 836.229L274.039 836.441L274.012 836.468ZM251.952 814.793L273.614 836.441L273.587 836.468H260.173L260.2 836.441L251.952 828.199V814.793ZM251.631 814.53V758.161H173.276V836.468H229.734L229.707 836.441L229.92 836.229L251.631 814.53ZM230.159 836.468L230.132 836.441L251.631 814.955V828.361L243.546 836.441L243.573 836.468H230.159ZM230.055 836.789H173.275V915.096H251.631V858.352L230.055 836.789ZM251.631 857.927L230.48 836.789H243.894L251.631 844.521V857.927ZM251.953 858.089L273.266 836.789H259.852L251.953 844.683V858.089ZM330.309 749.758L330.045 749.495L321.718 757.816L321.742 757.84H251.953V679.532H330.309V749.758ZM338.349 757.84L338.372 757.816L330.63 750.079V679.532H408.985V757.84H338.349ZM330.63 765.554L338.028 758.161H408.985V836.468H330.63V765.554ZM959.725 836.468H881.369V758.161H959.725V836.468ZM802.692 836.468H881.048V758.161H802.692V836.468ZM802.371 836.468H724.015V758.161H802.371V836.468ZM487.983 836.468H566.339V758.161H487.983V836.468ZM487.663 836.468H409.307V758.161H487.663V836.468ZM959.725 757.84H881.369V679.532H959.725V757.84ZM802.692 757.84H881.048V679.532H824.342L824.444 679.634L824.231 679.846L802.692 701.373V757.84ZM802.692 700.948L824.019 679.634L823.917 679.532H810.503L810.605 679.634L802.692 687.542V700.948ZM802.371 687.863V701.268L802.278 701.361L780.537 679.634L780.639 679.532H794.053L793.951 679.634L802.278 687.956L802.371 687.863ZM802.371 671.405L802.278 671.312L794.374 679.211H780.96L802.278 657.907L802.371 657.999V671.405ZM810.182 679.211L802.692 671.726V658.32L823.596 679.211H810.182ZM824.021 679.211H881.048V600.904H802.692V657.895L824.021 679.211ZM802.371 657.574V600.904H724.015V679.211H780.535L802.065 657.694L802.278 657.482L802.371 657.574ZM780.214 679.532H724.015V757.84H802.371V701.693L802.278 701.786L802.065 701.574L780.325 679.846L780.112 679.634L780.214 679.532ZM645.338 757.84H723.694V679.532H645.338V757.84ZM645.017 757.84H566.661V679.532H645.017V757.84ZM487.984 757.84H566.34V679.532H487.984V757.84ZM487.663 757.84H409.307V679.532H487.663V757.84ZM173.275 757.84H251.631V679.532H173.275V757.84ZM959.725 679.211H881.369V600.904H959.725V679.211ZM645.338 679.211H723.694V600.904H645.338V679.211ZM645.017 679.211H566.661V600.904H645.017V679.211ZM487.984 679.211H566.34V600.904H487.984V679.211ZM487.663 679.211H409.307V600.904H487.663V679.211ZM330.63 679.211H408.985V600.904H330.63V679.211ZM330.309 679.211H251.953V600.904H330.309V679.211ZM173.275 679.211H251.631V600.904H173.275V679.211ZM959.725 600.583H881.369V522.275H959.725V600.583ZM802.692 600.583H881.048V522.275H802.692V600.583ZM802.371 600.583H724.015V522.275H802.371V600.583ZM645.338 600.583H723.694V522.275H645.338V600.583ZM645.017 600.583H566.661V522.275H645.017V600.583ZM487.984 600.583H566.34V522.275H487.984V600.583ZM487.663 600.583H409.307V522.275H487.663V600.583ZM330.63 600.583H408.985V522.275H330.63V600.583ZM330.309 600.583H251.953V522.275H330.309V600.583ZM173.276 600.583H251.631V522.275H173.276V600.583Z" fill="url(#paint3_radial_14401_48889)" fill-opacity="0.6"/>
<g opacity="0.16" filter="url(#filter0_f_14401_48889)">
<rect x="13" y="428.24" width="554" height="537.971" rx="268.986" fill="#2D5BD2" fill-opacity="0.8"/>
</g>
<g opacity="0.7" filter="url(#filter1_f_14401_48889)">
<path d="M0 482C16.8903 508.159 64.1641 564.842 118.137 582.306C185.603 604.136 265.595 580.096 302.317 564.898C339.039 549.7 404.228 518.751 455.468 595.846C506.709 672.941 496.745 786.234 579.583 835.42C662.422 884.606 740.705 776.839 775.719 730.693C810.734 684.547 928.301 488.908 1088 491.119" stroke="#FFC651" stroke-width="60"/>
</g>
</g>
<defs>
<filter id="filter0_f_14401_48889" x="-167" y="248.24" width="914" height="897.971" filterUnits="userSpaceOnUse" color-interpolation-filters="sRGB">
<feFlood flood-opacity="0" result="BackgroundImageFix"/>
<feBlend mode="normal" in="SourceGraphic" in2="BackgroundImageFix" result="shape"/>
<feGaussianBlur stdDeviation="90" result="effect1_foregroundBlur_14401_48889"/>
</filter>
<filter id="filter1_f_14401_48889" x="-265.203" y="221.1" width="1593.62" height="896.979" filterUnits="userSpaceOnUse" color-interpolation-filters="sRGB">
<feFlood flood-opacity="0" result="BackgroundImageFix"/>
<feBlend mode="normal" in="SourceGraphic" in2="BackgroundImageFix" result="shape"/>
<feGaussianBlur stdDeviation="120" result="effect1_foregroundBlur_14401_48889"/>
</filter>
<radialGradient id="paint0_radial_14401_48889" cx="0" cy="0" r="1" gradientUnits="userSpaceOnUse" gradientTransform="translate(566.5 -150.921) rotate(90) scale(677.451 1129.56)">
<stop stop-color="#615B20"/>
<stop offset="1" stop-color="white" stop-opacity="0"/>
</radialGradient>
<radialGradient id="paint1_radial_14401_48889" cx="0" cy="0" r="1" gradientUnits="userSpaceOnUse" gradientTransform="translate(783 -97) rotate(39.3065) scale(705.638 1176.56)">
<stop stop-color="#615B20"/>
<stop offset="1" stop-color="white" stop-opacity="0"/>
</radialGradient>
<radialGradient id="paint2_radial_14401_48889" cx="0" cy="0" r="1" gradientUnits="userSpaceOnUse" gradientTransform="translate(2091 1317) rotate(-135.077) scale(1041.59 1736.72)">
<stop stop-color="#615B20"/>
<stop offset="1" stop-color="white" stop-opacity="0"/>
</radialGradient>
<radialGradient id="paint3_radial_14401_48889" cx="0" cy="0" r="1" gradientUnits="userSpaceOnUse" gradientTransform="translate(566.5 1258.92) rotate(-90) scale(677.451 1129.56)">
<stop stop-color="#615B20"/>
<stop offset="1" stop-color="white" stop-opacity="0"/>
</radialGradient>
</defs>
</svg>
