<svg width="132" height="132" viewBox="0 0 132 132" fill="none" xmlns="http://www.w3.org/2000/svg">
<circle cx="66" cy="66" r="66" fill="#ADBDE7"/>
<rect x="13" y="13" width="106" height="106" rx="53" stroke="#2D5BD2" stroke-width="2"/>
<path d="M75.8515 63.8667H70.7015V51.8667C70.7015 49.0667 69.1848 48.5 67.3348 50.6L66.0015 52.1167L54.7182 64.95C53.1682 66.7 53.8182 68.1334 56.1515 68.1334H61.3015V80.1334C61.3015 82.9334 62.8181 83.5 64.6681 81.4L66.0015 79.8834L77.2848 67.05C78.8348 65.3 78.1848 63.8667 75.8515 63.8667Z" fill="#FFA200"/>
<path d="M71.6207 27.5526C71.5751 27.1484 71.3873 26.8353 71.0571 26.6133C70.7269 26.3884 70.3113 26.2759 69.8103 26.2759C69.4516 26.2759 69.1414 26.3329 68.8795 26.4467C68.6176 26.5578 68.4141 26.7115 68.2689 26.9079C68.1266 27.1014 68.0554 27.322 68.0554 27.5697C68.0554 27.7775 68.1038 27.9568 68.2006 28.1077C68.3002 28.2586 68.4297 28.3852 68.5891 28.4877C68.7514 28.5873 68.925 28.6713 69.11 28.7396C69.2951 28.8051 69.473 28.8592 69.6438 28.9019L70.4977 29.1239C70.7767 29.1922 71.0628 29.2847 71.356 29.4014C71.6492 29.5181 71.921 29.6719 72.1715 29.8626C72.422 30.0533 72.6241 30.2896 72.7778 30.5714C72.9344 30.8532 73.0126 31.1905 73.0126 31.5833C73.0126 32.0786 72.8845 32.5184 72.6284 32.9027C72.375 33.2869 72.0064 33.5901 71.5225 33.8121C71.0414 34.0342 70.4593 34.1452 69.7761 34.1452C69.1214 34.1452 68.555 34.0413 68.0768 33.8335C67.5985 33.6257 67.2242 33.3311 66.9538 32.9496C66.6834 32.5653 66.5339 32.1099 66.5055 31.5833H67.8291C67.8547 31.8993 67.9572 32.1626 68.1365 32.3732C68.3187 32.581 68.5507 32.7361 68.8325 32.8386C69.1172 32.9382 69.4289 32.9881 69.7676 32.9881C70.1405 32.9881 70.4721 32.9297 70.7625 32.813C71.0557 32.6934 71.2862 32.5283 71.4542 32.3177C71.6221 32.1042 71.7061 31.8551 71.7061 31.5705C71.7061 31.3115 71.6321 31.0994 71.4841 30.9343C71.3389 30.7692 71.141 30.6326 70.8906 30.5244C70.6429 30.4162 70.3625 30.3209 70.0494 30.2383L69.0161 29.9565C68.3159 29.7658 67.7608 29.4854 67.3509 29.1154C66.9438 28.7453 66.7403 28.2557 66.7403 27.6465C66.7403 27.1427 66.8769 26.7029 67.1502 26.3272C67.4235 25.9514 67.7935 25.6597 68.2604 25.4519C68.7272 25.2412 69.2538 25.1359 69.8402 25.1359C70.4323 25.1359 70.9546 25.2398 71.4072 25.4476C71.8626 25.6554 72.2213 25.9415 72.4832 26.3058C72.7451 26.6673 72.8817 27.0829 72.8931 27.5526H71.6207Z" fill="#2D5BD2"/>
<path d="M80.091 29.8929L79.8136 30.8793L76.3631 29.9163L76.6405 28.9298L80.091 29.8929ZM77.9913 27.6755L79.221 28.0187L77.5412 33.991C77.4741 34.2294 77.4593 34.4188 77.4966 34.5593C77.5348 34.697 77.6039 34.8035 77.704 34.8787C77.8076 34.9519 77.9265 35.0073 78.0609 35.0448C78.1596 35.0723 78.2479 35.0896 78.3258 35.0965C78.4036 35.1035 78.4643 35.1086 78.5077 35.1119L78.4443 36.1891C78.3653 36.1966 78.2561 36.1957 78.1168 36.1864C77.9767 36.1798 77.8076 36.1503 77.6094 36.098C77.2843 36.0131 76.9989 35.8714 76.7532 35.6728C76.5074 35.4742 76.3337 35.2247 76.2318 34.9244C76.13 34.6241 76.1327 34.2835 76.2398 33.9026L77.9913 27.6755Z" fill="#2D5BD2"/>
<path d="M84.8546 40.1409C84.4991 39.9256 84.2178 39.6653 84.0106 39.3601C83.8049 39.0524 83.6952 38.7214 83.6814 38.3669C83.6701 38.014 83.7765 37.6541 84.0004 37.2872C84.1932 36.9713 84.4128 36.7483 84.6591 36.6179C84.9054 36.4876 85.1684 36.4255 85.448 36.4319C85.7277 36.4382 86.0138 36.4884 86.3066 36.5825C86.5993 36.6766 86.888 36.7883 87.1726 36.9174C87.5323 37.0821 87.8243 37.2157 88.0485 37.3182C88.2742 37.4183 88.4523 37.468 88.5829 37.4672C88.7134 37.4664 88.8188 37.4004 88.8989 37.2692L88.9144 37.2437C89.1087 36.9254 89.1692 36.6243 89.0958 36.3402C89.0249 36.0576 88.8129 35.8094 88.4599 35.5955C88.0922 35.3728 87.7528 35.2787 87.4416 35.3132C87.1344 35.3467 86.8805 35.4375 86.68 35.5857L85.7962 34.7308C86.1255 34.4644 86.4709 34.2975 86.8322 34.2301C87.1974 34.1618 87.5623 34.1732 87.9269 34.2643C88.293 34.3529 88.6452 34.4997 88.9837 34.7047C89.2076 34.8404 89.4287 35.011 89.6468 35.2163C89.8689 35.4207 90.0472 35.6585 90.1818 35.9297C90.3188 36.2024 90.3793 36.5103 90.3633 36.8534C90.3488 37.194 90.2169 37.5685 89.9678 37.9766L87.6985 41.6939L86.6321 41.0479L87.0993 40.2826L87.0555 40.256C86.8988 40.3542 86.7084 40.4285 86.4841 40.479C86.2598 40.5295 86.0095 40.5327 85.7331 40.4883C85.4566 40.444 85.1638 40.3282 84.8546 40.1409ZM85.6259 39.4101C85.9278 39.5929 86.2222 39.6897 86.5092 39.7005C86.7985 39.7127 87.0578 39.6567 87.287 39.5327C87.5201 39.4076 87.7041 39.2345 87.8391 39.0134L88.2796 38.2919C88.2169 38.3071 88.1192 38.2979 87.9864 38.264C87.8576 38.2292 87.7151 38.1812 87.5591 38.12C87.4045 38.0563 87.2543 37.9936 87.1086 37.932C86.9643 37.8678 86.8434 37.8146 86.7459 37.7722C86.5178 37.6706 86.2968 37.5983 86.0829 37.5553C85.8715 37.5137 85.6771 37.5208 85.4997 37.5764C85.3263 37.6311 85.1802 37.7556 85.0616 37.95C84.8969 38.2196 84.8722 38.4842 84.9873 38.7436C85.1038 39.0006 85.3167 39.2228 85.6259 39.4101Z" fill="#2D5BD2"/>
<path d="M89.9535 44.6688L94.7553 40.2016L95.5992 41.1018L94.8365 41.8114L94.8832 41.8613C95.2234 41.7081 95.5707 41.6727 95.925 41.7551C96.2834 41.8377 96.594 42.0192 96.8568 42.2995C96.9113 42.3577 96.9735 42.4282 97.0433 42.5109C97.1151 42.5958 97.1693 42.664 97.2058 42.7155L96.3118 43.5473C96.2871 43.5002 96.2363 43.4231 96.1592 43.3159C96.0843 43.2068 96.002 43.1045 95.9124 43.009C95.7061 42.7889 95.4752 42.6363 95.2198 42.5512C94.9685 42.4662 94.7137 42.4505 94.4556 42.504C94.1996 42.5555 93.9674 42.6782 93.759 42.8721L90.8267 45.6001L89.9535 44.6688Z" fill="#2D5BD2"/>
<path d="M102.075 51.6002L101.164 52.0702L99.5112 48.8921L100.422 48.422L102.075 51.6002ZM102.261 48.5537L102.85 49.6863L97.3375 52.5318C97.1175 52.6454 96.9689 52.7637 96.8917 52.8868C96.8171 53.0086 96.7865 53.1317 96.7999 53.2562C96.8171 53.3818 96.8579 53.5065 96.9223 53.6302C96.9696 53.7212 97.0173 53.7974 97.0654 53.8591C97.1135 53.9208 97.1512 53.9686 97.1785 54.0025L96.3477 54.6908C96.2883 54.6382 96.2144 54.5578 96.126 54.4497C96.0352 54.3428 95.9412 54.1991 95.8441 54.0186C95.684 53.7232 95.5926 53.418 95.5699 53.103C95.5473 52.788 95.6109 52.4908 95.7608 52.2116C95.9108 51.9324 96.1616 51.7021 96.5132 51.5206L102.261 48.5537Z" fill="#2D5BD2"/>
<path d="M97.9619 68.9672L106.686 69.5616L106.473 72.6712C106.426 73.35 106.264 73.9038 105.986 74.3328C105.709 74.7619 105.348 75.0725 104.904 75.2648C104.462 75.4573 103.975 75.5353 103.441 75.499C102.904 75.4624 102.429 75.3173 102.016 75.0637C101.605 74.8132 101.29 74.4551 101.071 73.9894C100.854 73.5267 100.769 72.9574 100.816 72.2815L100.963 70.1431L102.079 70.2192L101.94 72.2383C101.911 72.6671 101.961 73.02 102.09 73.297C102.222 73.5742 102.413 73.7841 102.663 73.9267C102.913 74.0692 103.203 74.1517 103.532 74.1742C103.861 74.1966 104.158 74.1541 104.422 74.0465C104.687 73.939 104.9 73.7553 105.064 73.4954C105.227 73.2383 105.323 72.8911 105.353 72.4537L105.467 70.801L97.8716 70.2834L97.9619 68.9672Z" fill="#2D5BD2"/>
<path d="M99.2234 79.8498L95.5526 78.5502L95.9816 77.3478L104.225 80.2661L103.802 81.4524L100.734 80.3666L100.707 80.443C100.988 80.7056 101.174 81.0203 101.263 81.3873C101.353 81.7542 101.312 82.1776 101.141 82.6575C100.99 83.0811 100.771 83.4202 100.484 83.6748C100.195 83.9321 99.847 84.0866 99.4387 84.1384C99.0321 84.1937 98.5712 84.1302 98.056 83.9478L94.1236 82.5556L94.5526 81.3532L98.3401 82.6941C98.7936 82.8546 99.1867 82.8624 99.5195 82.7175C99.8549 82.5736 100.097 82.2938 100.245 81.8783C100.346 81.5941 100.377 81.318 100.337 81.0501C100.295 80.7848 100.181 80.5465 99.9932 80.3352C99.8074 80.1274 99.5508 79.9656 99.2234 79.8498Z" fill="#2D5BD2"/>
<path d="M90.068 87.1557C90.4235 86.654 90.849 86.2972 91.3445 86.0854C91.8399 85.8736 92.3682 85.81 92.9291 85.8948C93.4901 85.9795 94.0476 86.2167 94.6018 86.6064C95.1583 86.9977 95.5718 87.4432 95.8421 87.943C96.1124 88.4428 96.2304 88.9607 96.1959 89.4967C96.1615 90.0327 95.9665 90.5516 95.611 91.0532C95.2555 91.5549 94.83 91.9116 94.3345 92.1235C93.839 92.3353 93.3097 92.3981 92.7464 92.3117C92.1831 92.2253 91.6232 91.9865 91.0667 91.5952C90.5125 91.2055 90.1014 90.7616 89.8334 90.2634C89.5654 89.7653 89.4486 89.2482 89.4831 88.7122C89.5175 88.1762 89.7125 87.6573 90.068 87.1557ZM90.9422 87.7756C90.7118 88.1007 90.607 88.4307 90.6279 88.7656C90.6488 89.1004 90.7663 89.4196 90.9803 89.7232C91.1926 90.0291 91.4711 90.3032 91.8157 90.5455C92.158 90.7862 92.5094 90.955 92.8699 91.0518C93.231 91.1527 93.5746 91.1577 93.9007 91.0668C94.2267 90.9759 94.5049 90.7679 94.7354 90.4427C94.9674 90.1153 95.0726 89.7821 95.0511 89.4433C95.0278 89.1069 94.9089 88.7849 94.6942 88.4773C94.4802 88.1737 94.2021 87.9016 93.8598 87.6609C93.5152 87.4186 93.1634 87.2479 92.8046 87.1487C92.4441 87.0518 92.1021 87.0496 91.7783 87.1421C91.453 87.237 91.1742 87.4481 90.9422 87.7756Z" fill="#2D5BD2"/>
<path d="M87.4189 98.1964L86.7707 97.4027L89.5538 95.1472L90.2021 95.9409L87.4189 98.1964ZM90.4496 97.7628L89.4578 98.5666L85.5334 93.7615C85.3767 93.5697 85.23 93.4486 85.0933 93.3982C84.9584 93.35 84.8312 93.345 84.7117 93.3832C84.5918 93.4254 84.4777 93.4904 84.3693 93.5782C84.2897 93.6427 84.2245 93.7047 84.1738 93.7641C84.1231 93.8235 84.0839 93.87 84.0561 93.9035L83.2099 93.2318C83.2493 93.1632 83.3132 93.0748 83.4013 92.9667C83.4877 92.8565 83.6095 92.7357 83.767 92.6045C84.0243 92.3886 84.3054 92.2377 84.6102 92.1519C84.915 92.0661 85.2199 92.0682 85.5249 92.1581C85.8298 92.248 86.1075 92.4462 86.3578 92.7526L90.4496 97.7628Z" fill="#2D5BD2"/>
<path d="M75.4878 96.5003C76.0521 96.2562 76.6008 96.1723 77.1341 96.2486C77.6673 96.3249 78.1515 96.545 78.5865 96.9089C79.0215 97.2727 79.3744 97.7651 79.6452 98.3861C79.9172 99.0097 80.0387 99.6054 80.0098 100.173C79.981 100.741 79.8126 101.245 79.5046 101.685C79.1966 102.125 78.7605 102.468 78.1962 102.712C77.6319 102.956 77.0832 103.04 76.5499 102.963C76.0167 102.887 75.532 102.666 75.0958 102.299C74.6596 101.933 74.3056 101.438 74.0336 100.814C73.7629 100.193 73.6425 99.6001 73.6724 99.0351C73.7024 98.47 73.8714 97.9673 74.1794 97.527C74.4873 97.0867 74.9235 96.7445 75.4878 96.5003ZM75.9122 97.4844C75.5465 97.6427 75.2855 97.8703 75.1294 98.1674C74.9732 98.4645 74.9076 98.7984 74.9326 99.1691C74.955 99.5409 75.0504 99.9198 75.2188 100.306C75.386 100.69 75.5984 101.016 75.8559 101.286C76.112 101.56 76.4028 101.743 76.7285 101.835C77.0542 101.926 77.3999 101.893 77.7656 101.735C78.134 101.576 78.397 101.345 78.5546 101.045C78.7096 100.745 78.7754 100.408 78.7519 100.033C78.7269 99.6628 78.6307 99.2857 78.4635 98.9021C78.2951 98.5159 78.0835 98.1872 77.8286 97.916C77.5711 97.646 77.28 97.4664 76.9555 97.3773C76.6283 97.2893 76.2806 97.325 75.9122 97.4844Z" fill="#2D5BD2"/>
<path d="M66.528 95.4696C67.0441 95.3989 67.4976 95.4058 67.8885 95.4902C68.2767 95.5749 68.6031 95.7127 68.8679 95.9034C69.1328 96.0941 69.3413 96.3141 69.4935 96.5633L68.4681 97.1605C68.3749 97.0469 68.2553 96.9297 68.1093 96.8089C67.9601 96.6856 67.7687 96.5897 67.5351 96.5211C67.2987 96.453 67.0056 96.4428 66.6559 96.4907C66.1765 96.5563 65.7964 96.7276 65.5156 97.0045C65.2345 97.2786 65.129 97.6694 65.199 98.177L65.3752 99.4544L65.4556 99.4434C65.5127 99.2948 65.6015 99.126 65.722 98.9371C65.8396 98.7486 66.014 98.5754 66.2451 98.4173C66.4761 98.2593 66.7905 98.153 67.1881 98.0986C67.7014 98.0283 68.1805 98.0848 68.6253 98.2681C69.0677 98.4546 69.4412 98.7669 69.7459 99.205C70.0482 99.6463 70.247 100.212 70.3423 100.903C70.4376 101.594 70.4023 102.202 70.2363 102.728C70.0675 103.254 69.7953 103.676 69.4197 103.995C69.0445 104.316 68.5961 104.512 68.0743 104.584C67.6711 104.639 67.336 104.616 67.0691 104.515C66.8027 104.416 66.5881 104.287 66.4254 104.129C66.2599 103.97 66.1297 103.829 66.0349 103.704L65.9418 103.717L66.0871 104.77L64.8476 104.939L63.9313 98.2988C63.8543 97.7405 63.9208 97.2645 64.1309 96.8709C64.3409 96.4772 64.6554 96.1641 65.0745 95.9315C65.4907 95.6992 65.9752 95.5453 66.528 95.4696ZM67.0537 99.1858C66.6898 99.2356 66.3941 99.3623 66.1665 99.5658C65.9364 99.7726 65.7785 100.044 65.6927 100.381C65.6045 100.72 65.5913 101.114 65.6532 101.562C65.7135 102 65.8315 102.376 66.0071 102.691C66.1828 103.006 66.4089 103.239 66.6856 103.391C66.9627 103.545 67.2859 103.597 67.6554 103.547C68.0361 103.494 68.3398 103.352 68.5663 103.12C68.7933 102.891 68.9485 102.6 69.0319 102.246C69.1126 101.893 69.1243 101.51 69.0671 101.095C69.0083 100.669 68.8919 100.305 68.7178 100.001C68.5437 99.6972 68.3173 99.4724 68.0386 99.3267C67.7571 99.1814 67.4287 99.1344 67.0537 99.1858Z" fill="#2D5BD2"/>
<path d="M60.8759 97.4641L59.9794 103.961L58.7569 103.794L58.8993 102.762L58.8316 102.752C58.6649 103.086 58.4183 103.332 58.0917 103.491C57.7619 103.653 57.4067 103.708 57.0259 103.656C56.947 103.645 56.8543 103.629 56.7479 103.609C56.6387 103.588 56.5536 103.569 56.4928 103.553L56.6597 102.343C56.7085 102.364 56.7966 102.392 56.924 102.426C57.051 102.464 57.1794 102.492 57.3091 102.509C57.608 102.55 57.8833 102.523 58.1349 102.428C58.3833 102.336 58.5905 102.188 58.7566 101.983C58.9223 101.782 59.0247 101.54 59.0636 101.258L59.611 97.2909L60.8759 97.4641Z" fill="#2D5BD2"/>
<path d="M50.8347 94.0357C51.2161 94.2007 51.5302 94.4204 51.777 94.6947C52.0227 94.9715 52.1765 95.2847 52.2385 95.634C52.2978 95.9823 52.2416 96.3534 52.0698 96.7474C51.9218 97.0866 51.7348 97.3375 51.5086 97.5002C51.2824 97.6628 51.0304 97.76 50.7526 97.7918C50.4748 97.8236 50.1845 97.8127 49.8817 97.7593C49.579 97.7058 49.2778 97.6345 48.9783 97.5452C48.5996 97.4309 48.2922 97.3382 48.0561 97.2671C47.8189 97.1986 47.6357 97.1736 47.5066 97.1922C47.3774 97.2107 47.282 97.2904 47.2206 97.4313L47.2087 97.4587C47.0596 97.8005 47.0408 98.1072 47.1522 98.3787C47.261 98.6491 47.5048 98.8662 47.8836 99.0301C48.2781 99.2008 48.6271 99.2479 48.9306 99.1714C49.2304 99.0964 49.4694 98.9719 49.6478 98.7979L50.6397 99.5248C50.3498 99.8336 50.0305 100.046 49.6819 100.162C49.3295 100.279 48.9665 100.318 48.593 100.277C48.2183 100.239 47.8494 100.141 47.4863 99.9841C47.2459 99.8801 47.0037 99.7412 46.7597 99.5673C46.5119 99.395 46.3028 99.1836 46.1326 98.9331C45.9597 98.6815 45.8578 98.3847 45.8268 98.0425C45.7948 97.703 45.8743 97.314 46.0655 96.8757L47.8063 92.8835L48.9505 93.3786L48.5921 94.2005L48.6391 94.2209C48.7809 94.1023 48.9594 94.0028 49.1746 93.9222C49.3899 93.8417 49.6374 93.8045 49.9172 93.8109C50.1971 93.8172 50.5029 93.8921 50.8347 94.0357ZM50.1703 94.8648C49.8464 94.7246 49.5416 94.6687 49.256 94.6971C48.9677 94.7244 48.7185 94.8151 48.5085 94.9692C48.2947 95.1248 48.136 95.3213 48.0325 95.5588L47.6945 96.3337C47.7546 96.3101 47.8526 96.306 47.9887 96.3214C48.1211 96.3384 48.2687 96.3666 48.4316 96.4061C48.5933 96.4481 48.7506 96.4898 48.9034 96.5311C49.0551 96.575 49.1821 96.6114 49.2844 96.6402C49.5242 96.7098 49.753 96.7514 49.9706 96.7649C50.1857 96.7773 50.3773 96.7439 50.5454 96.6647C50.7097 96.5869 50.8374 96.4437 50.9284 96.2349C51.0547 95.9453 51.0432 95.6798 50.8938 95.4383C50.7433 95.1995 50.5021 95.0084 50.1703 94.8648Z" fill="#2D5BD2"/>
<path d="M46.7218 88.3361L41.0176 95.3205L40.0489 94.5355L40.7214 93.7121L40.6385 93.6449C40.4946 93.7041 40.3117 93.7592 40.0899 93.8103C39.8681 93.8614 39.6187 93.8608 39.3417 93.8085C39.0629 93.7584 38.7653 93.6052 38.4491 93.3489C38.0377 93.0155 37.7553 92.6144 37.6016 92.1455C37.448 91.6766 37.4388 91.1727 37.5739 90.6337C37.7069 90.0929 37.9975 89.548 38.4459 88.9991C38.8942 88.4501 39.3704 88.0538 39.8745 87.8101C40.3767 87.5686 40.8746 87.472 41.3682 87.5202C41.8599 87.5707 42.3114 87.7626 42.7227 88.0959C43.0324 88.3468 43.2433 88.6038 43.3555 88.867C43.4654 89.1283 43.519 89.3732 43.5161 89.6017C43.5133 89.8302 43.4976 90.0227 43.4691 90.1791L43.5288 90.2275L45.73 87.5323L46.7218 88.3361ZM42.1199 91.993C42.4116 91.6359 42.6153 91.2807 42.731 90.9275C42.8468 90.5743 42.8684 90.2419 42.7958 89.9302C42.7214 89.6208 42.5416 89.3505 42.2563 89.1193C41.9599 88.8792 41.6483 88.7567 41.3215 88.7519C40.9928 88.7494 40.6668 88.8424 40.3436 89.0312C40.0182 89.2181 39.7169 89.4814 39.4396 89.8209C39.1659 90.156 38.971 90.4981 38.8548 90.8473C38.7365 91.1948 38.7149 91.5272 38.7901 91.8446C38.8631 92.1602 39.0489 92.439 39.3474 92.681C39.6349 92.914 39.9385 93.0372 40.2582 93.0508C40.5756 93.0626 40.8933 92.9775 41.2111 92.7953C41.5289 92.6132 41.8318 92.3458 42.1199 91.993Z" fill="#2D5BD2"/>
<path d="M35.4199 84.9469L38.6054 82.707L39.3435 83.7487L32.1903 88.7784L31.462 87.7507L34.1235 85.8793L34.0766 85.8131C33.699 85.8907 33.3339 85.8604 32.9812 85.7221C32.6285 85.5838 32.3049 85.3068 32.0103 84.8911C31.7503 84.5241 31.5988 84.1504 31.556 83.7699C31.5115 83.3871 31.5859 83.0146 31.7793 82.6525C31.9688 82.2896 32.287 81.951 32.7341 81.6366L36.1466 79.2372L36.8847 80.2788L33.598 82.5899C33.2045 82.8666 32.971 83.1821 32.8976 83.5364C32.8219 83.8924 32.9116 84.2504 33.1667 84.6104C33.3412 84.8565 33.5499 85.0403 33.793 85.1618C34.0343 85.2808 34.2958 85.3249 34.5774 85.2939C34.855 85.2623 35.1359 85.1466 35.4199 84.9469Z" fill="#2D5BD2"/>
<path d="M37.5513 74.3482C37.6154 74.5278 37.659 74.6966 37.6821 74.8545C37.7079 75.0114 37.7176 75.1318 37.7112 75.2156L36.6218 75.2751C36.6024 75.0344 36.558 74.8297 36.4888 74.6609C36.4195 74.4922 36.3011 74.3635 36.1334 74.2749C35.9649 74.1836 35.7255 74.1354 35.4155 74.1305L34.9519 74.127L29.4953 78.6043L29.0362 77.3174L33.2758 74.0545L33.2529 73.9902L27.897 74.1244L27.4364 72.8335L35.3521 72.8982C35.7162 72.9022 36.0421 72.9559 36.3299 73.0594C36.6204 73.1619 36.8669 73.3192 37.0695 73.5313C37.2721 73.7434 37.4327 74.0157 37.5513 74.3482Z" fill="#2D5BD2"/>
<path d="M33.3745 40.1925L41.145 44.2032L40.5854 45.279L32.8353 46.2808L32.7979 46.3528L38.4968 49.2943L37.8879 50.4647L30.1174 46.454L30.681 45.3706L38.4406 44.369L38.478 44.297L32.7715 41.3516L33.3745 40.1925Z" fill="#2D5BD2"/>
<path d="M45.0507 41.6455C44.6301 42.094 44.16 42.3895 43.6402 42.5319C43.1204 42.6742 42.5884 42.6653 42.0441 42.505C41.4999 42.3447 40.9798 42.0338 40.4837 41.5723C39.9856 41.109 39.6367 40.6113 39.4369 40.0794C39.2372 39.5476 39.1908 39.0185 39.298 38.4922C39.4051 37.9659 39.6689 37.4785 40.0895 37.03C40.51 36.5814 40.9802 36.286 41.4999 36.1436C42.0197 36.0012 42.5528 36.0111 43.0991 36.1734C43.6454 36.3356 44.1676 36.6484 44.6657 37.1118C45.1618 37.5733 45.5086 38.069 45.7063 38.5989C45.904 39.1289 45.9493 39.657 45.8422 40.1833C45.735 40.7095 45.4712 41.1969 45.0507 41.6455ZM44.2689 40.9124C44.5415 40.6217 44.6902 40.309 44.7151 39.9745C44.74 39.64 44.6671 39.3078 44.4964 38.9779C44.3277 38.646 44.0891 38.3366 43.7807 38.0496C43.4743 37.7646 43.1491 37.5496 42.8052 37.4045C42.4611 37.2555 42.1213 37.2038 41.7859 37.2494C41.4505 37.295 41.1465 37.4632 40.8739 37.7539C40.5994 38.0467 40.4498 38.3624 40.425 38.7009C40.4022 39.0374 40.4762 39.3726 40.647 39.7064C40.8177 40.0363 41.0562 40.3437 41.3626 40.6287C41.671 40.9157 41.9963 41.1327 42.3383 41.2798C42.6822 41.4249 43.0209 41.4736 43.3542 41.426C43.6895 41.3764 43.9944 41.2052 44.2689 40.9124Z" fill="#2D5BD2"/>
<path d="M51.1989 37.5111L46.1309 32.9133L47.2594 32.2297L50.8682 35.6747L50.923 35.6415L49.5163 30.8626L50.6448 30.179L54.2388 33.6079L54.2936 33.5748L52.8871 28.8207L54.0156 28.1371L55.7858 34.7326L54.672 35.4073L51.0652 32.0559L50.9813 32.1068L52.3091 36.8386L51.1989 37.5111Z" fill="#2D5BD2"/>
<path d="M57.2586 26.1279L58.8384 32.1546L57.6992 32.4726L55.9055 26.5055L57.2586 26.1279ZM58.9738 34.8121C58.7462 34.8756 58.5292 34.8505 58.3228 34.7367C58.1155 34.6202 57.9813 34.4478 57.9201 34.2196C57.8541 33.9957 57.8797 33.7817 57.9967 33.5776C58.113 33.3708 58.2849 33.2356 58.5125 33.1721C58.7346 33.1101 58.9492 33.1374 59.1565 33.2539C59.363 33.3677 59.4992 33.5365 59.5651 33.7605C59.6047 33.9119 59.6039 34.0614 59.5626 34.2089C59.5233 34.3529 59.4523 34.4791 59.3497 34.5875C59.2472 34.6959 59.1219 34.7708 58.9738 34.8121Z" fill="#2D5BD2"/>
</svg>
