<svg width="24" height="24" viewBox="0 0 24 24" fill="none" xmlns="http://www.w3.org/2000/svg">
<path opacity="0.4" d="M21.6602 10.44L20.6802 14.62C19.8402 18.23 18.1802 19.69 15.0602 19.39C14.5602 19.35 14.0202 19.26 13.4402 19.12L11.7602 18.72C7.59018 17.73 6.30018 15.67 7.28018 11.49L8.26018 7.30001C8.46018 6.45001 8.70018 5.71001 9.00018 5.10001C10.1702 2.68001 12.1602 2.03001 15.5002 2.82001L17.1702 3.21001C21.3602 4.19001 22.6402 6.26001 21.6602 10.44Z" fill="white"/>
<path d="M15.0599 19.39C14.4399 19.81 13.6599 20.16 12.7099 20.47L11.1299 20.99C7.15985 22.27 5.06985 21.2 3.77985 17.23L2.49985 13.28C1.21985 9.30998 2.27985 7.20998 6.24985 5.92998L7.82985 5.40998C8.23985 5.27998 8.62985 5.16998 8.99985 5.09998C8.69985 5.70998 8.45985 6.44998 8.25985 7.29998L7.27985 11.49C6.29985 15.67 7.58985 17.73 11.7599 18.72L13.4399 19.12C14.0199 19.26 14.5599 19.35 15.0599 19.39Z" fill="white"/>
<path d="M17.4899 10.51C17.4299 10.51 17.3699 10.5 17.2999 10.49L12.4499 9.26002C12.0499 9.16002 11.8099 8.75002 11.9099 8.35002C12.0099 7.95002 12.4199 7.71002 12.8199 7.81002L17.6699 9.04002C18.0699 9.14002 18.3099 9.55002 18.2099 9.95002C18.1299 10.28 17.8199 10.51 17.4899 10.51Z" fill="white"/>
<path d="M14.5601 13.89C14.5001 13.89 14.4401 13.88 14.3701 13.87L11.4601 13.13C11.0601 13.03 10.8201 12.62 10.9201 12.22C11.0201 11.82 11.4301 11.58 11.8301 11.68L14.7401 12.42C15.1401 12.52 15.3801 12.93 15.2801 13.33C15.2001 13.67 14.9001 13.89 14.5601 13.89Z" fill="white"/>
</svg>
