<svg width="68" height="68" viewBox="0 0 68 68" fill="none" xmlns="http://www.w3.org/2000/svg">
<rect width="68" height="68" fill="url(#paint0_linear_15169_51218)"/>
<path d="M32.875 43.375H29.5C27.85 43.375 26.5 44.725 26.5 46.375V46.75H25C24.385 46.75 23.875 47.26 23.875 47.875C23.875 48.49 24.385 49 25 49H43C43.615 49 44.125 48.49 44.125 47.875C44.125 47.26 43.615 46.75 43 46.75H41.5V46.375C41.5 44.725 40.15 43.375 38.5 43.375H35.125V39.94C34.75 39.985 34.375 40 34 40C33.625 40 33.25 39.985 32.875 39.94V43.375Z" fill="url(#paint1_linear_15169_51218)"/>
<path d="M43.7219 33.46C44.7119 33.085 45.5819 32.47 46.2719 31.78C47.6669 30.235 48.5819 28.39 48.5819 26.23C48.5819 24.07 46.8869 22.375 44.7269 22.375H43.8869C42.9119 20.38 40.8719 19 38.5019 19H29.5019C27.1319 19 25.0919 20.38 24.1169 22.375H23.2769C21.1169 22.375 19.4219 24.07 19.4219 26.23C19.4219 28.39 20.3369 30.235 21.7319 31.78C22.4219 32.47 23.2919 33.085 24.2819 33.46C25.8419 37.3 29.5919 40 34.0019 40C38.4119 40 42.1619 37.3 43.7219 33.46ZM38.2619 28.675L37.3319 29.815C37.1819 29.98 37.0769 30.31 37.0919 30.535L37.1819 32.005C37.2419 32.905 36.5969 33.37 35.7569 33.04L34.3919 32.5C34.1819 32.425 33.8219 32.425 33.6119 32.5L32.2469 33.04C31.4069 33.37 30.7619 32.905 30.8219 32.005L30.9119 30.535C30.9269 30.31 30.8219 29.98 30.6719 29.815L29.7419 28.675C29.1569 27.985 29.4119 27.22 30.2819 26.995L31.7069 26.635C31.9319 26.575 32.2019 26.365 32.3219 26.17L33.1169 24.94C33.6119 24.175 34.3919 24.175 34.8869 24.94L35.6819 26.17C35.8019 26.365 36.0719 26.575 36.2969 26.635L37.7219 26.995C38.5919 27.22 38.8469 27.985 38.2619 28.675Z" fill="url(#paint2_linear_15169_51218)"/>
<defs>
<linearGradient id="paint0_linear_15169_51218" x1="31.2799" y1="56.4073" x2="81.6184" y2="28.865" gradientUnits="userSpaceOnUse">
<stop stop-color="#277DFF"/>
<stop offset="1" stop-color="#7EB2FF"/>
</linearGradient>
<linearGradient id="paint1_linear_15169_51218" x1="34" y1="39.94" x2="34" y2="49" gradientUnits="userSpaceOnUse">
<stop stop-color="white"/>
<stop offset="1" stop-color="white" stop-opacity="0"/>
</linearGradient>
<linearGradient id="paint2_linear_15169_51218" x1="34.0019" y1="19" x2="34.0019" y2="40" gradientUnits="userSpaceOnUse">
<stop stop-color="white"/>
<stop offset="1" stop-color="white" stop-opacity="0"/>
</linearGradient>
</defs>
</svg>
