<svg width="132" height="132" viewBox="0 0 132 132" fill="none" xmlns="http://www.w3.org/2000/svg">
<circle cx="66" cy="66" r="66" fill="#6AA7F7"/>
<path d="M100.637 89.5772L101.336 90.1355L102.115 95.0573C102.205 95.6344 102.295 96.1219 102.385 96.5198C102.477 96.9199 102.595 97.2557 102.738 97.5273C102.882 97.8036 103.076 98.0389 103.32 98.2333C103.599 98.4566 103.895 98.5826 104.208 98.6113C104.518 98.6425 104.82 98.5873 105.116 98.4457C105.411 98.3041 105.674 98.0896 105.903 97.802C106.147 97.4964 106.297 97.1789 106.352 96.8497C106.407 96.5251 106.372 96.2107 106.246 95.9064C106.118 95.6048 105.902 95.333 105.599 95.0911L106.331 94.1741C106.797 94.5463 107.121 94.9805 107.302 95.4768C107.482 95.973 107.523 96.4849 107.424 97.0124C107.323 97.5426 107.088 98.0395 106.718 98.5031C106.345 98.9694 105.917 99.3039 105.433 99.5068C104.949 99.7097 104.458 99.7801 103.96 99.7179C103.463 99.6558 103.009 99.4614 102.6 99.1347C102.307 98.901 102.064 98.6194 101.869 98.2899C101.674 97.965 101.509 97.5366 101.374 97.0046C101.24 96.4773 101.11 95.7903 100.984 94.9436L100.499 91.6302L100.437 91.5806L97.4841 95.2794L96.6294 94.597L100.637 89.5772ZM92.6767 97.9762C93.1242 97.602 93.6016 97.354 94.109 97.2322C94.6163 97.1104 95.1077 97.1143 95.5832 97.2438C96.0587 97.3733 96.4725 97.6279 96.8245 98.0075L95.9091 98.7729C95.578 98.4492 95.1733 98.2908 94.6951 98.2975C94.2164 98.3089 93.7775 98.4815 93.3783 98.8152C93.0579 99.0831 92.8358 99.3962 92.7121 99.7546C92.5858 100.115 92.5609 100.486 92.6375 100.867C92.7137 101.252 92.891 101.612 93.1695 101.945C93.4544 102.286 93.7835 102.527 94.1567 102.668C94.5296 102.814 94.9105 102.857 95.2996 102.795C95.6886 102.733 96.0507 102.564 96.386 102.288C96.6271 102.091 96.8416 101.849 97.0296 101.562C97.2197 101.278 97.3472 101.009 97.4121 100.756L98.3862 100.123L101.128 104.363L97.0697 107.756L96.3681 106.917L99.6329 104.188L97.9814 101.654L97.9356 101.693C97.8817 101.954 97.7691 102.227 97.5977 102.513C97.4263 102.799 97.2096 103.051 96.9477 103.27C96.4697 103.67 95.9481 103.912 95.383 103.995C94.8175 104.084 94.2632 104.02 93.72 103.805C93.1744 103.591 92.69 103.231 92.2669 102.725C91.8502 102.227 91.5901 101.689 91.4864 101.11C91.3823 100.536 91.4302 99.9732 91.63 99.4216C91.832 98.8725 92.1809 98.3907 92.6767 97.9762ZM85.5646 102.752C86.2259 102.4 86.8849 102.281 87.5416 102.393C88.1999 102.508 88.8349 102.844 89.4465 103.401C90.0597 103.961 90.6263 104.73 91.1463 105.707C91.6632 106.678 91.9817 107.573 92.1018 108.391C92.2205 109.214 92.1438 109.931 91.8716 110.541C91.5981 111.156 91.1336 111.638 90.4782 111.987C89.8227 112.335 89.1651 112.451 88.5053 112.333C87.8441 112.219 87.2069 111.882 86.5937 111.322C85.9791 110.767 85.4133 110.004 84.8965 109.032C84.3765 108.055 84.0556 107.156 83.934 106.334C83.8139 105.516 83.89 104.802 84.1621 104.191C84.4359 103.584 84.9034 103.104 85.5646 102.752ZM86.0784 103.718C85.423 104.067 85.082 104.654 85.0555 105.479C85.029 106.304 85.3271 107.301 85.9498 108.472C86.3639 109.25 86.8 109.868 87.2579 110.327C87.7129 110.787 88.1717 111.078 88.6345 111.199C89.0943 111.323 89.5407 111.269 89.9737 111.039C90.6233 110.693 90.9605 110.103 90.9853 109.267C91.0116 108.435 90.7142 107.435 90.093 106.267C89.6789 105.489 89.2451 104.871 88.7916 104.414C88.3382 103.957 87.8824 103.668 87.4241 103.548C86.963 103.429 86.5144 103.486 86.0784 103.718ZM77.5393 105.999C78.2591 105.792 78.9287 105.811 79.5479 106.057C80.168 106.307 80.7196 106.767 81.2026 107.438C81.6865 108.113 82.0816 108.982 82.3879 110.046C82.6923 111.103 82.8185 112.045 82.7664 112.87C82.7121 113.7 82.4885 114.385 82.0958 114.926C81.7008 115.471 81.1466 115.846 80.4331 116.051C79.7197 116.257 79.0525 116.233 78.4314 115.981C77.8081 115.733 77.2545 115.271 76.7706 114.596C76.2843 113.926 75.889 113.062 75.5846 112.005C75.2784 110.941 75.1508 109.994 75.202 109.166C75.254 108.34 75.4764 107.657 75.8691 107.116C76.2628 106.579 76.8195 106.206 77.5393 105.999ZM77.8419 107.05C77.1285 107.256 76.6733 107.759 76.4764 108.561C76.2795 109.363 76.3645 110.4 76.7312 111.674C76.9751 112.522 77.2736 113.217 77.6266 113.76C77.9764 114.305 78.3651 114.684 78.7926 114.899C79.2168 115.115 79.6647 115.155 80.1361 115.019C80.8431 114.816 81.2953 114.308 81.4927 113.496C81.6909 112.687 81.6071 111.647 81.2412 110.376C80.9973 109.529 80.7009 108.835 80.352 108.294C80.0031 107.753 79.617 107.376 79.1936 107.163C78.767 106.951 78.3165 106.914 77.8419 107.05ZM59.8089 114.49L61.041 114.536C61.1007 114.893 61.2167 115.209 61.3889 115.484C61.5578 115.759 61.7681 115.993 62.0197 116.184C62.2678 116.379 62.5459 116.529 62.8538 116.633C63.1617 116.737 63.4845 116.796 63.8224 116.808C64.4384 116.831 65.0023 116.696 65.514 116.403C66.0223 116.11 66.4351 115.666 66.7524 115.071C67.0663 114.476 67.2396 113.738 67.2723 112.857C67.305 111.976 67.1868 111.227 66.9178 110.61C66.6455 109.993 66.2667 109.519 65.7814 109.19C65.2928 108.86 64.7405 108.683 64.1245 108.661C63.7866 108.648 63.4603 108.682 63.1455 108.764C62.8308 108.845 62.5425 108.972 62.2807 109.144C62.0155 109.32 61.7885 109.539 61.5997 109.801C61.4074 110.066 61.2684 110.372 61.1825 110.721L59.9504 110.675C60.0624 110.158 60.2486 109.699 60.5089 109.298C60.7692 108.896 61.0869 108.558 61.4619 108.283C61.8368 108.012 62.2539 107.81 62.7132 107.678C63.1691 107.546 63.6538 107.489 64.1672 107.508C65.035 107.54 65.7988 107.781 66.4588 108.23C67.1187 108.679 67.628 109.301 67.9865 110.097C68.3451 110.893 68.5044 111.828 68.4647 112.901C68.4249 113.974 68.1967 114.894 67.7802 115.662C67.3637 116.429 66.8098 117.012 66.1184 117.411C65.427 117.81 64.6474 117.993 63.7796 117.961C63.2663 117.942 62.7871 117.85 62.3422 117.684C61.894 117.518 61.493 117.284 61.1394 116.982C60.7856 116.684 60.4938 116.325 60.2639 115.905C60.0339 115.489 59.8822 115.017 59.8089 114.49ZM55.3379 106.248C56.0044 106.424 56.5473 106.737 56.9666 107.187C57.3827 107.636 57.6565 108.183 57.7878 108.828C57.9159 109.472 57.8793 110.176 57.6778 110.938C57.4747 111.707 57.1579 112.342 56.7276 112.842C56.2941 113.341 55.7855 113.683 55.2018 113.868C54.6149 114.053 53.9882 114.057 53.3217 113.881C52.6551 113.705 52.1138 113.392 51.6977 112.943C51.2784 112.493 51.0051 111.944 50.8778 111.297C50.7474 110.649 50.7837 109.94 50.9868 109.171C51.1883 108.408 51.5053 107.779 51.938 107.283C52.3674 106.786 52.8756 106.446 53.4625 106.261C54.0462 106.076 54.6713 106.072 55.3379 106.248ZM55.0687 107.267C54.5624 107.133 54.1115 107.153 53.7161 107.326C53.3207 107.499 52.9886 107.777 52.7199 108.158C52.4511 108.54 52.2516 108.977 52.1212 109.471C51.9909 109.964 51.9479 110.445 51.9924 110.912C52.0368 111.38 52.1878 111.788 52.4452 112.138C52.7027 112.487 53.0845 112.728 53.5908 112.862C54.0972 112.996 54.5484 112.974 54.9447 112.798C55.341 112.621 55.6739 112.341 55.9435 111.956C56.2131 111.571 56.4131 111.132 56.5434 110.639C56.6738 110.145 56.7163 109.666 56.671 109.202C56.6257 108.737 56.4739 108.332 56.2156 107.986C55.9573 107.64 55.575 107.4 55.0687 107.267ZM44.6125 105.552L42.6259 109.605L41.5724 109.089L44.9329 102.232L45.9865 102.748L45.4177 103.909L45.4891 103.944C45.8205 103.674 46.2156 103.501 46.6745 103.423C47.1319 103.348 47.6195 103.438 48.1374 103.691C48.566 103.901 48.901 104.182 49.1424 104.533C49.3824 104.887 49.5043 105.301 49.5081 105.775C49.5104 106.252 49.3686 106.782 49.0827 107.366L46.9474 111.723L45.8938 111.207L47.9942 106.921C48.2392 106.421 48.2948 105.954 48.1609 105.519C48.024 105.083 47.7368 104.757 47.2993 104.543C47.0374 104.415 46.7382 104.351 46.4017 104.352C46.0623 104.352 45.7325 104.445 45.4123 104.631C45.0891 104.816 44.8226 105.123 44.6125 105.552ZM43.1026 101.144L38.6938 107.379L37.7682 106.725L38.4341 105.783L38.3692 105.737C38.0374 105.965 37.6547 106.07 37.2212 106.052C36.7876 106.034 36.3841 105.892 36.0107 105.628C35.9403 105.579 35.8533 105.515 35.7497 105.438C35.6461 105.36 35.5691 105.3 35.5188 105.256L36.2077 104.282C36.2344 104.313 36.3002 104.378 36.4051 104.476C36.5054 104.576 36.6191 104.67 36.7463 104.76C37.0494 104.975 37.365 105.102 37.6931 105.144C38.0165 105.186 38.3257 105.144 38.6206 105.02C38.911 104.897 39.1556 104.694 39.3546 104.413L42.1446 100.467L43.1026 101.144ZM30.9481 98.5593L31.9159 99.0724C31.8423 99.2451 31.795 99.4361 31.7738 99.6452C31.748 99.8544 31.7763 100.074 31.8587 100.304C31.9412 100.535 32.1057 100.768 32.3524 101.004C32.6901 101.327 33.0459 101.518 33.42 101.578C33.7893 101.638 34.0874 101.549 34.3143 101.312C34.5159 101.101 34.5985 100.862 34.5621 100.593C34.5257 100.324 34.3836 99.993 34.1358 99.6L33.5092 98.6152C33.1304 98.0235 32.9381 97.4886 32.9322 97.0105C32.9241 96.5348 33.1044 96.1041 33.4733 95.7186C33.7758 95.4025 34.1371 95.2069 34.5574 95.132C34.9754 95.0548 35.4147 95.099 35.8755 95.2646C36.3363 95.4303 36.781 95.7181 37.2097 96.1283C37.7725 96.6667 38.1214 97.2345 38.2565 97.8316C38.3916 98.4288 38.2837 99.009 37.9328 99.5723L36.9357 99.0036C37.1431 98.6334 37.2113 98.272 37.1403 97.9196C37.0668 97.5649 36.8564 97.2214 36.5092 96.8892C36.114 96.5112 35.7201 96.2948 35.3274 96.2402C34.93 96.1857 34.6179 96.277 34.3911 96.5141C34.2078 96.7057 34.1213 96.9303 34.1317 97.1879C34.1398 97.4479 34.2518 97.7432 34.4677 98.0736L35.1812 99.169C35.5719 99.7722 35.7655 100.313 35.762 100.791C35.7539 101.27 35.5676 101.699 35.2033 102.08C34.9054 102.391 34.5545 102.583 34.1506 102.655C33.7442 102.725 33.3237 102.683 32.8889 102.529C32.4518 102.372 32.0392 102.108 31.6513 101.737C31.1053 101.214 30.7911 100.684 30.7089 100.147C30.6243 99.6073 30.7041 99.0781 30.9481 98.5593ZM32.0811 90.1478C32.5113 90.7448 32.7505 91.3547 32.799 91.9775C32.8428 92.5995 32.711 93.199 32.4036 93.7759C32.0916 94.3521 31.6183 94.8688 30.9837 95.3261C30.3491 95.7834 29.7064 96.0708 29.0558 96.1883C28.4005 96.305 27.7869 96.2529 27.215 96.0318C26.6384 95.8099 26.1486 95.4193 25.7456 94.86C25.5131 94.5373 25.3373 94.1799 25.2181 93.7878C25.099 93.3957 25.0674 92.9834 25.1234 92.5508C25.1767 92.1202 25.3458 91.6859 25.6306 91.2478C25.9155 90.8097 26.347 90.3823 26.9251 89.9658L27.3285 89.6751L30.7697 94.4508L29.9468 95.0437L27.2032 91.2361C26.8536 91.488 26.5921 91.7826 26.4185 92.1201C26.2431 92.4549 26.168 92.8072 26.1935 93.1769C26.217 93.544 26.3527 93.8997 26.6007 94.2439C26.8739 94.623 27.2044 94.8833 27.5922 95.0246C27.9754 95.1652 28.3695 95.2019 28.7746 95.1347C29.1796 95.0675 29.5529 94.9109 29.8944 94.6648L30.443 94.2695C30.9109 93.9324 31.2494 93.5659 31.4585 93.1701C31.663 92.7736 31.7453 92.3691 31.7054 91.9566C31.6629 91.546 31.5031 91.1485 31.226 90.764C31.0458 90.5139 30.8481 90.3132 30.6328 90.1619C30.413 90.0098 30.1785 89.9112 29.9294 89.866C29.6776 89.8228 29.4151 89.8383 29.1419 89.9126L28.7374 88.807C29.119 88.679 29.5105 88.6441 29.9119 88.7021C30.3105 88.7621 30.6968 88.9127 31.0708 89.1539C31.4421 89.397 31.7788 89.7283 32.0811 90.1478ZM21.5678 83.7818L22.2879 84.6072C22.1575 84.7422 22.0449 84.9035 21.9503 85.0912C21.8514 85.2773 21.7992 85.4926 21.7938 85.7372C21.7884 85.9817 21.8586 86.2582 22.0045 86.5669C22.2043 86.9894 22.4681 87.2954 22.796 87.485C23.1195 87.673 23.4296 87.6969 23.7262 87.5567C23.9899 87.432 24.1529 87.2377 24.215 86.9737C24.2772 86.7097 24.2629 86.3498 24.1721 85.8941L23.9394 84.7504C23.7974 84.0623 23.8092 83.4939 23.9747 83.0454C24.1373 82.5983 24.4598 82.2607 24.9422 82.0326C25.3378 81.8456 25.7452 81.7924 26.1645 81.8728C26.5823 81.9502 26.9768 82.1487 27.3478 82.4682C27.7188 82.7877 28.0311 83.2157 28.2846 83.752C28.6175 84.4562 28.7402 85.1112 28.6527 85.7172C28.5652 86.3231 28.2569 86.8263 27.7276 87.2268L27 86.339C27.3262 86.0675 27.5192 85.7544 27.5789 85.3999C27.6372 85.0424 27.5636 84.6464 27.3583 84.212C27.1245 83.7175 26.8341 83.3746 26.4869 83.1831C26.1354 82.99 25.8113 82.9636 25.5146 83.1038C25.2749 83.2171 25.1138 83.396 25.0313 83.6402C24.9458 83.886 24.9448 84.2017 25.0282 84.5876L25.3025 85.8657C25.4515 86.5688 25.4389 87.143 25.2645 87.5884C25.0857 88.0322 24.7581 88.3667 24.2816 88.5919C23.8921 88.7761 23.4958 88.8296 23.0927 88.7525C22.6883 88.6724 22.3107 88.4825 21.96 88.1827C21.6079 87.8799 21.3171 87.4857 21.0876 87.0003C20.7647 86.3171 20.6609 85.7099 20.7764 85.1788C20.8905 84.6446 21.1543 84.1789 21.5678 83.7818ZM25.1642 75.702L17.7055 77.3396L17.4539 76.1936L24.9126 74.556L25.1642 75.702ZM16.3345 77.0299C16.3835 77.2532 16.3497 77.4625 16.2331 77.6578C16.1158 77.8499 15.9503 77.9693 15.7366 78.0162C15.523 78.0631 15.3227 78.024 15.1357 77.8988C14.948 77.7703 14.8296 77.5944 14.7806 77.371C14.7315 77.1477 14.7657 76.94 14.883 76.7479C14.9996 76.5526 15.1647 76.4316 15.3784 76.3846C15.5921 76.3377 15.7927 76.3785 15.9804 76.507C16.1674 76.6322 16.2854 76.8065 16.3345 77.0299ZM19.9208 71.6416L24.4993 71.2675L24.5949 72.4369L16.9839 73.0588L16.8916 71.9291L18.0808 71.8319L18.0727 71.7328C17.6716 71.586 17.339 71.3405 17.0747 70.9963C16.8072 70.6523 16.65 70.193 16.603 69.6182C16.5609 69.1029 16.6297 68.6433 16.8096 68.2395C16.9861 67.836 17.2787 67.5095 17.6873 67.26C18.0926 67.0107 18.6189 66.8596 19.2664 66.8067L24.1026 66.4116L24.1981 67.581L19.4412 67.9696C18.8433 68.0185 18.3902 68.2118 18.082 68.5496C17.7704 68.8876 17.6367 69.3275 17.681 69.8693C17.7115 70.2426 17.8197 70.5696 18.0056 70.8504C18.1912 71.1279 18.4462 71.3381 18.7704 71.4812C19.0947 71.6243 19.4782 71.6778 19.9208 71.6416ZM25.2408 57.1691L24.5292 60.2295L14.6119 57.9236L15.355 54.7276C15.5787 53.7656 15.9687 52.9885 16.5249 52.3965C17.0779 51.8037 17.7664 51.4108 18.5905 51.2179C19.4114 51.0242 20.3351 51.0468 21.3617 51.2854C22.3947 51.5256 23.2413 51.9165 23.9015 52.4579C24.5584 52.9985 25.0052 53.6673 25.2419 54.4641C25.4754 55.2602 25.475 56.1619 25.2408 57.1691ZM23.7431 58.7809L24.1574 56.9989C24.3481 56.1789 24.3479 55.4626 24.1569 54.8499C23.9659 54.2372 23.609 53.7306 23.0862 53.33C22.5635 52.9294 21.8985 52.6353 21.0915 52.4476C20.2909 52.2615 19.5712 52.232 18.9326 52.3591C18.2907 52.4855 17.7543 52.7725 17.3236 53.2202C16.8896 53.6672 16.5825 54.278 16.4024 55.0528L15.9565 56.9704L23.7431 58.7809ZM26.9338 50.6611L19.8777 47.7414L20.3263 46.6573L27.3824 49.577L26.9338 50.6611ZM18.9297 46.7036C18.8423 46.9149 18.6949 47.0673 18.4876 47.1609C18.2816 47.2514 18.0775 47.2548 17.8754 47.1712C17.6733 47.0876 17.5313 46.9409 17.4494 46.7313C17.3688 46.5186 17.3723 46.3066 17.4597 46.0953C17.5471 45.884 17.6939 45.7331 17.8999 45.6425C18.1072 45.549 18.3119 45.544 18.5141 45.6277C18.7162 45.7113 18.8576 45.8594 18.9381 46.0721C19.02 46.2818 19.0172 46.4922 18.9297 46.7036ZM23.1285 41.0634L24.0078 41.5276L22.086 45.168L21.2067 44.7038L23.1285 41.0634ZM28.5355 47.1784L20.8503 43.1214C20.4634 42.9171 20.1889 42.6561 20.0269 42.3382C19.8649 42.0203 19.796 41.6822 19.8202 41.324C19.8445 40.9657 19.9417 40.6254 20.1119 40.303C20.2465 40.0479 20.3769 39.8507 20.503 39.7111C20.6291 39.5716 20.7307 39.4715 20.8076 39.411L21.5467 40.1834C21.5013 40.2269 21.4406 40.2885 21.3647 40.3684C21.2904 40.4454 21.2137 40.5586 21.1348 40.708C20.9538 41.051 20.9095 41.3443 21.002 41.588C21.096 41.8288 21.3101 42.0374 21.6442 42.2138L29.0832 46.1408L28.5355 47.1784ZM26.4437 36.0878L27.2592 36.6568L24.9039 40.0328L24.0884 39.4639L26.4437 36.0878ZM31.0567 42.822L23.9294 37.8497C23.5706 37.5994 23.3304 37.3065 23.2088 36.9711C23.0871 36.6357 23.0604 36.2917 23.1285 35.9391C23.1966 35.5866 23.335 35.2608 23.5436 34.9618C23.7086 34.7253 23.8623 34.5456 24.0046 34.4226C24.147 34.2997 24.2601 34.2129 24.3439 34.1622L24.9823 35.0198C24.9318 35.0574 24.864 35.1111 24.7789 35.181C24.6956 35.2482 24.6056 35.3511 24.5089 35.4897C24.287 35.8078 24.207 36.0934 24.2688 36.3467C24.3324 36.5972 24.5192 36.8305 24.8291 37.0467L31.728 41.8597L31.0567 42.822ZM35.9016 37.25C35.3965 37.7851 34.8428 38.1352 34.2403 38.3002C33.6376 38.4606 33.0241 38.4443 32.3995 38.2513C31.7748 38.0536 31.1781 37.6863 30.6093 37.1494C30.0405 36.6125 29.637 36.0356 29.3988 35.4188C29.1605 34.7973 29.0959 34.1849 29.2052 33.5815C29.3142 32.9735 29.6054 32.4188 30.0786 31.9175C30.3516 31.6283 30.6694 31.3881 31.032 31.1972C31.3946 31.0062 31.7936 30.8974 32.2289 30.8707C32.6618 30.8418 33.1203 30.9259 33.6042 31.123C34.0882 31.32 34.5893 31.6631 35.1075 32.1523L35.469 32.4936L31.4285 36.7741L30.6909 36.0779L33.9125 32.6651C33.5992 32.3693 33.2604 32.168 32.8963 32.0613C32.5344 31.9522 32.1743 31.945 31.816 32.0397C31.4599 32.132 31.1363 32.3325 30.845 32.641C30.5243 32.9808 30.3311 33.3545 30.2654 33.762C30.1997 34.1648 30.238 34.5588 30.3804 34.9439C30.5228 35.329 30.7471 35.666 31.0531 35.9549L31.5448 36.419C31.9642 36.8149 32.388 37.0782 32.8161 37.2089C33.2441 37.3348 33.6569 37.3394 34.0544 37.2224C34.4496 37.1031 34.8098 36.8712 35.1352 36.5265C35.3468 36.3024 35.5065 36.0703 35.6145 35.8304C35.7223 35.5858 35.7749 35.3369 35.7723 35.0838C35.7673 34.8284 35.7025 34.5735 35.578 34.3192L36.5874 33.7133C36.7851 34.064 36.8933 34.4419 36.912 34.847C36.9283 35.2498 36.8533 35.6575 36.687 36.0703C36.5183 36.4808 36.2565 36.874 35.9016 37.25ZM39.2827 33.6781L34.6065 27.641L35.5026 26.9469L36.2089 27.8587L36.2718 27.81C36.1505 27.4261 36.1619 27.0295 36.306 26.6202C36.4502 26.2109 36.703 25.8662 37.0646 25.5861C37.1328 25.5333 37.2189 25.4687 37.3232 25.3921C37.4274 25.3156 37.5077 25.2596 37.5642 25.2243L38.2948 26.1676C38.2573 26.1841 38.1761 26.2281 38.0513 26.2997C37.927 26.3666 37.8033 26.4477 37.6801 26.5431C37.3867 26.7704 37.1723 27.035 37.0372 27.3367C36.9025 27.6338 36.8516 27.9416 36.8844 28.2599C36.9178 28.5737 37.0401 28.8668 37.2511 29.1393L40.2103 32.9597L39.2827 33.6781ZM46.1946 29.381C45.5488 29.7336 44.9139 29.8952 44.2898 29.8658C43.6672 29.832 43.0887 29.6266 42.5545 29.2499C42.0216 28.8687 41.5678 28.3348 41.193 27.6482C40.8181 26.9617 40.6129 26.2883 40.5772 25.6281C40.5428 24.9634 40.6709 24.361 40.9614 23.821C41.2532 23.2765 41.7017 22.8391 42.3067 22.5088C42.6558 22.3182 43.0323 22.1882 43.4362 22.1187C43.8401 22.0493 44.2532 22.0692 44.6754 22.1786C45.096 22.285 45.5059 22.5068 45.9052 22.8439C46.3045 23.181 46.6749 23.6623 47.0164 24.2877L47.2546 24.7241L42.088 27.5447L41.6021 26.6546L45.7213 24.4057C45.5149 24.0275 45.255 23.7313 44.9417 23.5172C44.6314 23.3014 44.2911 23.1832 43.9211 23.1624C43.5539 23.1401 43.1842 23.2306 42.8118 23.4339C42.4016 23.6578 42.1023 23.9534 41.9138 24.3206C41.7267 24.6833 41.6413 25.0698 41.6576 25.4801C41.6738 25.8903 41.7828 26.2802 41.9845 26.6497L42.3085 27.2431C42.5849 27.7493 42.9064 28.1307 43.2731 28.3874C43.6412 28.6397 44.0323 28.7716 44.4466 28.7834C44.8592 28.7922 45.2735 28.6831 45.6895 28.456C45.9601 28.3083 46.1838 28.137 46.3607 27.9423C46.5389 27.743 46.6659 27.5226 46.7417 27.2811C46.816 27.0367 46.8332 26.7742 46.7934 26.4939L47.9408 26.23C48.0203 26.6246 48.0063 27.0174 47.8988 27.4084C47.7897 27.7965 47.5922 28.1611 47.3064 28.5022C47.019 28.8403 46.6484 29.1333 46.1946 29.381ZM50.2593 22.3348L51.6467 26.7141L50.5282 27.0684L48.2219 19.7887L49.3024 19.4463L49.6628 20.5838L49.7576 20.5537C49.8111 20.13 49.9761 19.7509 50.2526 19.4165C50.5281 19.0789 50.9407 18.823 51.4905 18.6488C51.9834 18.4927 52.4467 18.4571 52.8804 18.5422C53.3132 18.6242 53.6968 18.8364 54.0313 19.1789C54.3648 19.5183 54.6296 19.9976 54.8258 20.6169L56.2913 25.2426L55.1728 25.5969L53.7314 21.0471C53.5502 20.4752 53.2605 20.0767 52.8624 19.8517C52.4633 19.6235 52.0047 19.5915 51.4865 19.7557C51.1295 19.8688 50.8349 20.0473 50.6027 20.2912C50.3737 20.5341 50.2257 20.8296 50.1587 21.1777C50.0916 21.5257 50.1252 21.9114 50.2593 22.3348ZM60.5152 16.7227L60.662 17.7062L56.748 18.2904L56.6012 17.307L60.5152 16.7227ZM57.4719 15.3272L58.6323 15.154L59.7069 22.3527C59.7558 22.6805 59.84 22.9192 59.9596 23.0689C60.0819 23.2149 60.2226 23.3045 60.3817 23.3377C60.5436 23.3671 60.7098 23.3691 60.8802 23.3437C61.0081 23.3246 61.112 23.3024 61.192 23.277C61.2715 23.2484 61.3351 23.2255 61.3828 23.2083L61.7744 24.2155C61.7002 24.2568 61.5948 24.3027 61.4582 24.3532C61.3222 24.407 61.1459 24.4501 60.9296 24.4824C60.6018 24.5313 60.27 24.5088 59.9343 24.4148C59.6018 24.3204 59.3108 24.1443 59.0612 23.8867C58.8149 23.6285 58.659 23.2798 58.5934 22.8406L57.4719 15.3272ZM76.4868 18.2481L75.2636 18.093C75.2359 17.732 75.1485 17.4069 75.0014 17.1176C74.8577 16.8288 74.669 16.5776 74.4355 16.3643C74.2057 16.148 73.942 15.9743 73.6446 15.843C73.3472 15.7117 73.0309 15.6248 72.6955 15.5823C72.0839 15.5047 71.5103 15.589 70.9746 15.8351C70.4421 16.0816 69.9915 16.4872 69.6225 17.0518C69.2568 17.6168 69.0185 18.3366 68.9076 19.2112C68.7967 20.0858 68.8477 20.8424 69.0608 21.4808C69.2771 22.1196 69.6122 22.6248 70.0662 22.9965C70.5235 23.3685 71.058 23.5933 71.6695 23.6709C72.0049 23.7134 72.333 23.7083 72.6537 23.6554C72.9745 23.6026 73.2729 23.5018 73.5491 23.353C73.8289 23.2014 74.0745 23.0037 74.2858 22.7599C74.5008 22.5132 74.6666 22.2202 74.7832 21.8808L76.0063 22.036C75.8488 22.5405 75.6225 22.9812 75.3275 23.3581C75.0324 23.7349 74.6859 24.0435 74.288 24.2837C73.8904 24.5206 73.457 24.6844 72.9878 24.7752C72.5219 24.8665 72.0341 24.8798 71.5244 24.8151C70.6629 24.7059 69.9235 24.3983 69.3061 23.8923C68.6888 23.3864 68.2369 22.721 67.9506 21.8962C67.6644 21.0715 67.5888 20.1264 67.7239 19.0611C67.859 17.9958 68.1682 17.0995 68.6513 16.3723C69.1344 15.6451 69.738 15.1136 70.4622 14.7778C71.1863 14.4421 71.9791 14.3288 72.8406 14.4381C73.3502 14.5027 73.8193 14.6374 74.2477 14.842C74.6794 15.0471 75.0579 15.3157 75.3833 15.6476C75.7092 15.9762 75.9679 16.3598 76.1595 16.7984C76.3515 17.2337 76.4606 17.717 76.4868 18.2481ZM79.4019 26.5709C78.9462 26.4081 78.5633 26.1745 78.2532 25.8701C77.9443 25.5626 77.7391 25.206 77.6377 24.8002C77.5375 24.3913 77.571 23.9528 77.7382 23.4846C77.8854 23.0726 78.0859 22.7676 78.3397 22.5697C78.5945 22.3686 78.8839 22.2433 79.2079 22.1936C79.5318 22.1439 79.8705 22.1417 80.2239 22.1871C80.5815 22.2304 80.9351 22.2898 81.2846 22.3655C81.7417 22.4654 82.111 22.5498 82.3926 22.6188C82.6784 22.6857 82.8965 22.7056 83.047 22.6784C83.2006 22.6523 83.3092 22.5503 83.3728 22.3724L83.3862 22.335C83.5512 21.8731 83.5531 21.469 83.3917 21.1227C83.2335 20.7775 82.9 20.5141 82.3912 20.3323C81.8637 20.1438 81.4089 20.1116 81.0268 20.2355C80.6446 20.3594 80.3458 20.5307 80.1304 20.7493L79.2156 20.0001C79.559 19.6301 79.9302 19.3791 80.3293 19.2471C80.7326 19.1132 81.1373 19.0642 81.5433 19.1002C81.9535 19.1341 82.3397 19.2158 82.7017 19.3451C82.9327 19.4276 83.1879 19.5505 83.4675 19.7138C83.7513 19.875 84.0035 20.0901 84.2242 20.359C84.448 20.629 84.5928 20.9676 84.6585 21.3747C84.7242 21.7818 84.655 22.271 84.4509 22.8421L82.758 27.58L81.6532 27.1852L82.0011 26.2114L81.9449 26.1914C81.8143 26.3207 81.6297 26.443 81.3914 26.5585C81.153 26.6739 80.8664 26.7422 80.5316 26.7634C80.1967 26.7845 79.8201 26.7204 79.4019 26.5709ZM79.9251 25.6386C80.362 25.7947 80.761 25.8405 81.122 25.7759C81.486 25.7124 81.7931 25.5722 82.043 25.3553C82.2961 25.1395 82.4762 24.8818 82.5832 24.5822L82.9446 23.571C82.8777 23.6104 82.7563 23.6251 82.5804 23.6151C82.4087 23.603 82.2137 23.5773 81.9955 23.538C81.7814 23.4968 81.5732 23.454 81.3708 23.4099C81.1726 23.3637 81.0114 23.3272 80.8872 23.3004C80.5867 23.2353 80.2965 23.2003 80.0167 23.1953C79.7412 23.1884 79.4974 23.2403 79.2853 23.3511C79.0775 23.4598 78.9234 23.6547 78.8231 23.9356C78.6859 24.3195 78.7242 24.6605 78.9379 24.9586C79.1559 25.2547 79.485 25.4814 79.9251 25.6386ZM91.2543 23.3151L90.7805 24.1893L87.3012 22.3039L87.7749 21.4297L91.2543 23.3151ZM89.6607 20.3707L90.6922 20.9297L87.2245 27.3289C87.0666 27.6203 86.9904 27.8617 86.996 28.0532C87.006 28.2434 87.0646 28.3996 87.1718 28.5217C87.2835 28.6426 87.4151 28.7441 87.5667 28.8262C87.6803 28.8878 87.7767 28.9325 87.8559 28.9603C87.9366 28.9852 88.0012 29.0051 88.0497 29.0201L87.7573 30.0604C87.6732 30.0488 87.5613 30.0221 87.4218 29.9804C87.2807 29.9416 87.114 29.8701 86.9217 29.7659C86.6303 29.608 86.3787 29.3906 86.1668 29.1137C85.9579 28.8384 85.8311 28.5228 85.7865 28.1669C85.7448 27.8125 85.8297 27.4401 86.0413 27.0496L89.6607 20.3707ZM91.4467 33.0425C90.8624 32.5953 90.4571 32.0805 90.2308 31.4983C90.0091 30.9154 89.9621 30.3034 90.0896 29.6623C90.2219 29.0206 90.5257 28.3891 91.0011 27.768C91.4765 27.1469 92.0087 26.686 92.5977 26.3855C93.1913 26.0844 93.7938 25.9571 94.4052 26.0035C95.0213 26.0493 95.603 26.2817 96.1505 26.7007C96.4663 26.9425 96.7379 27.2338 96.9652 27.5748C97.1926 27.9158 97.342 28.3014 97.4133 28.7317C97.4867 29.1593 97.4503 29.624 97.3042 30.1257C97.1581 30.6274 96.8685 31.1612 96.4354 31.7271L96.1332 32.1218L91.4589 28.5441L92.0753 27.7387L95.8021 30.5913C96.064 30.2491 96.2293 29.8914 96.2979 29.5182C96.3691 29.147 96.3392 28.7881 96.208 28.4414C96.0795 28.0968 95.8467 27.7955 95.5098 27.5377C95.1387 27.2536 94.7471 27.1 94.335 27.0767C93.9276 27.0529 93.5397 27.1316 93.1713 27.3129C92.8029 27.4943 92.4908 27.7521 92.235 28.0863L91.824 28.6233C91.4735 29.0812 91.2553 29.5299 91.1695 29.9692C91.0883 30.4079 91.1264 30.8189 91.2837 31.2023C91.4431 31.5831 91.7109 31.9175 92.0873 32.2055C92.3321 32.3929 92.5793 32.5279 92.8291 32.6106C93.0835 32.6926 93.3365 32.7193 93.588 32.6906C93.8416 32.6592 94.0884 32.5685 94.3285 32.4184L95.0352 33.36C94.7068 33.5928 94.3421 33.7394 93.9411 33.7998C93.5421 33.8575 93.1288 33.825 92.7011 33.7021C92.2754 33.5766 91.8573 33.3568 91.4467 33.0425ZM95.0746 40.3798C94.701 39.9536 94.4347 39.5392 94.2756 39.1365C94.1141 38.736 94.0322 38.356 94.03 37.9965C94.0275 37.6416 94.0735 37.317 94.1681 37.0226L95.2777 37.2929C95.2429 37.4644 95.2117 37.6702 95.1842 37.9103C95.1542 38.1526 95.1822 38.4234 95.2682 38.7226C95.3539 39.0265 95.5486 39.3517 95.8523 39.6982C96.2586 40.1617 96.7061 40.446 97.1948 40.551C97.6835 40.6559 98.1671 40.4987 98.6456 40.0792L99.8121 39.0567L99.7465 38.9819C99.585 39.0089 99.3746 39.0303 99.1152 39.0461C98.8605 39.0622 98.5761 39.0118 98.262 38.8949C97.9526 38.7782 97.634 38.533 97.3063 38.1591C96.9 37.6955 96.6448 37.1832 96.5408 36.622C96.4389 36.0634 96.5034 35.4934 96.7343 34.912C96.9673 34.3331 97.3829 33.7815 97.9811 33.2571C98.5693 32.7415 99.1721 32.396 99.7896 32.2205C100.41 32.0429 101.001 32.0336 101.564 32.1928C102.129 32.3497 102.623 32.67 103.047 33.1535C103.375 33.5273 103.572 33.8786 103.64 34.2071C103.712 34.536 103.721 34.8278 103.667 35.0826C103.617 35.3377 103.571 35.5413 103.528 35.6935L103.607 35.7833L104.519 34.9836L105.266 35.836L99.3592 41.0139C98.8657 41.4465 98.3661 41.6861 97.8604 41.7327C97.3545 41.784 96.8642 41.6848 96.3898 41.4351C95.915 41.1902 95.4766 40.8384 95.0746 40.3798ZM98.2038 37.584C98.514 37.9379 98.8572 38.166 99.2333 38.2682C99.6094 38.3705 100.005 38.3519 100.421 38.2125C100.836 38.073 101.256 37.8176 101.68 37.4462C102.093 37.0835 102.404 36.7012 102.611 36.2991C102.818 35.897 102.905 35.4952 102.87 35.0936C102.835 34.6921 102.661 34.3118 102.346 33.9529C102.018 33.5791 101.651 33.3505 101.243 33.2673C100.837 33.1866 100.42 33.2238 99.9918 33.3788C99.5657 33.5363 99.1582 33.7855 98.7694 34.1263C98.3706 34.4759 98.0726 34.8474 97.8753 35.2407C97.6826 35.6343 97.6072 36.031 97.649 36.4307C97.6955 36.8307 97.8804 37.2151 98.2038 37.584ZM102.157 45.3695C101.814 44.7711 101.656 44.1645 101.683 43.5499C101.711 42.9382 101.909 42.3593 102.276 41.8132C102.645 41.27 103.172 40.8026 103.856 40.4109C104.547 40.016 105.221 39.7964 105.879 39.7521C106.539 39.7107 107.14 39.833 107.681 40.1189C108.225 40.4077 108.667 40.8513 109.01 41.4497C109.352 42.0481 109.509 42.6532 109.481 43.2649C109.454 43.8795 109.255 44.4593 108.883 45.0041C108.513 45.5519 107.983 46.0232 107.292 46.4181C106.608 46.8098 105.937 47.0255 105.28 47.0652C104.625 47.1078 104.025 46.9847 103.482 46.696C102.941 46.4101 102.499 45.9679 102.157 45.3695ZM103.071 44.8462C103.331 45.3008 103.662 45.6081 104.063 45.7683C104.464 45.9284 104.894 45.9704 105.355 45.8942C105.815 45.8179 106.267 45.6531 106.71 45.3997C107.153 45.1463 107.526 44.8396 107.828 44.4798C108.13 44.1199 108.315 43.7258 108.383 43.2974C108.451 42.869 108.355 42.4276 108.095 41.973C107.835 41.5184 107.503 41.2119 107.099 41.0534C106.695 40.8948 106.262 40.8545 105.799 40.9324C105.335 41.0103 104.882 41.176 104.439 41.4294C103.996 41.6828 103.625 41.9886 103.326 42.3468C103.027 42.705 102.844 43.0975 102.779 43.5242C102.714 43.951 102.811 44.3916 103.071 44.8462ZM104.738 49.9089L111.889 47.2292L112.286 48.2907L111.206 48.6954L111.234 48.7699C111.637 48.7677 112.012 48.896 112.361 49.1548C112.709 49.4136 112.963 49.7572 113.124 50.1855C113.154 50.2662 113.19 50.3676 113.233 50.4898C113.275 50.612 113.305 50.7053 113.322 50.7697L112.204 51.1884C112.2 51.1477 112.182 51.0571 112.15 50.9167C112.123 50.7782 112.082 50.636 112.028 50.4901C111.897 50.1425 111.708 49.8595 111.46 49.641C111.216 49.4245 110.937 49.2848 110.623 49.2219C110.314 49.1609 109.998 49.1909 109.675 49.3119L105.15 51.0076L104.738 49.9089ZM106.457 54.8167L113.849 52.8996L114.143 54.0354L106.752 55.9524L106.457 54.8167ZM115.231 53.1576C115.173 52.9363 115.199 52.7258 115.308 52.5263C115.418 52.33 115.579 52.2044 115.791 52.1494C116.003 52.0945 116.204 52.1261 116.396 52.2442C116.588 52.3655 116.713 52.5369 116.771 52.7582C116.828 52.9796 116.802 53.1884 116.692 53.3848C116.583 53.5843 116.422 53.7115 116.21 53.7664C115.999 53.8213 115.796 53.7881 115.604 53.6668C115.413 53.5487 115.288 53.379 115.231 53.1576ZM107.365 61.2568C107.279 60.5261 107.366 59.8767 107.626 59.3086C107.889 58.7434 108.295 58.2832 108.844 57.928C109.396 57.5756 110.061 57.3535 110.838 57.2617C111.615 57.1698 112.316 57.2304 112.942 57.4434C113.572 57.6593 114.083 58.0027 114.476 58.4736C114.872 58.9473 115.111 59.5265 115.192 60.2112C115.238 60.6061 115.219 61.004 115.133 61.4046C115.046 61.8053 114.874 62.1811 114.615 62.5322C114.359 62.8828 114.001 63.1805 113.539 63.4253C113.078 63.6702 112.493 63.8344 111.785 63.9181L111.291 63.9765L110.6 58.1308L111.607 58.0117L112.159 62.6724C112.586 62.6218 112.958 62.4911 113.274 62.2803C113.589 62.0727 113.826 61.8011 113.983 61.4654C114.141 61.1331 114.195 60.7562 114.145 60.3349C114.09 59.8708 113.927 59.4829 113.657 59.1711C113.39 58.8623 113.063 58.6389 112.677 58.5011C112.29 58.3632 111.887 58.3191 111.469 58.3685L110.798 58.4479C110.225 58.5156 109.751 58.6718 109.376 58.9163C109.005 59.1638 108.737 59.4776 108.572 59.8576C108.41 60.2372 108.356 60.6623 108.412 61.133C108.448 61.4391 108.524 61.7105 108.639 61.9473C108.757 62.1869 108.914 62.3869 109.11 62.5473C109.309 62.7073 109.546 62.8212 109.821 62.8888L109.638 64.0518C109.242 63.9785 108.883 63.819 108.56 63.5735C108.241 63.3276 107.976 63.0085 107.766 62.6161C107.56 62.2233 107.426 61.7702 107.365 61.2568ZM113.486 71.9102L113.255 70.8397C113.434 70.7845 113.61 70.6976 113.784 70.5789C113.96 70.4637 114.11 70.3004 114.233 70.0889C114.356 69.8774 114.428 69.6013 114.449 69.2606C114.478 68.7942 114.395 68.3988 114.2 68.0744C114.007 67.7535 113.747 67.5828 113.42 67.5623C113.129 67.5441 112.892 67.6356 112.71 67.8368C112.528 68.0379 112.367 68.3599 112.226 68.8028L111.878 69.9167C111.67 70.5878 111.385 71.0797 111.023 71.3925C110.665 71.7055 110.219 71.8454 109.687 71.8121C109.25 71.7848 108.868 71.6347 108.539 71.3618C108.211 71.0921 107.961 70.7279 107.791 70.2689C107.62 69.8099 107.554 69.2843 107.591 68.6922C107.639 67.9149 107.848 67.282 108.217 66.7937C108.587 66.3054 109.1 66.0137 109.757 65.9186L109.965 67.0474C109.548 67.1276 109.228 67.3085 109.004 67.5901C108.781 67.875 108.654 68.2573 108.624 68.7369C108.59 69.2827 108.678 69.7233 108.89 70.0586C109.105 70.3975 109.376 70.5772 109.703 70.5977C109.968 70.6142 110.195 70.5354 110.385 70.3614C110.579 70.1875 110.732 69.9115 110.846 69.5334L111.223 68.2817C111.432 67.5941 111.72 67.0974 112.088 66.7917C112.459 66.4894 112.907 66.3547 113.433 66.3876C113.863 66.4145 114.236 66.559 114.552 66.8212C114.867 67.0867 115.106 67.4354 115.269 67.8673C115.431 68.3025 115.495 68.788 115.461 69.3239C115.414 70.0781 115.212 70.6599 114.854 71.0692C114.496 71.4819 114.04 71.7622 113.486 71.9102ZM116.983 76.9457L109.829 75.4023L110.057 74.2716L117.25 75.6201L116.983 76.9457ZM107.058 74.2555C107.106 74.015 107.234 73.8261 107.441 73.6886C107.647 73.5511 107.871 73.5066 108.112 73.555C108.352 73.6035 108.541 73.7312 108.678 73.9381C108.816 74.145 108.86 74.3686 108.812 74.6091C108.764 74.8495 108.636 75.0385 108.429 75.176C108.222 75.3135 107.998 75.358 107.758 75.3095C107.599 75.2774 107.461 75.2073 107.344 75.0993C107.226 74.9944 107.14 74.8672 107.086 74.7177C107.034 74.572 107.025 74.4179 107.058 74.2555Z" fill="#121F3E"/>
<path d="M65.0621 53.5345C65.3843 52.6639 66.6157 52.6639 66.9379 53.5345L69.8918 61.5174C69.9931 61.7911 70.2089 62.0069 70.4826 62.1082L78.4655 65.0621C79.3361 65.3843 79.3361 66.6157 78.4655 66.9379L70.4826 69.8918C70.2089 69.9931 69.9931 70.2089 69.8918 70.4826L66.9379 78.4655C66.6157 79.3361 65.3843 79.3361 65.0621 78.4655L62.1082 70.4826C62.0069 70.2089 61.7911 69.9931 61.5174 69.8918L53.5345 66.9379C52.6639 66.6157 52.6639 65.3843 53.5345 65.0621L61.5174 62.1082C61.7911 62.0069 62.0069 61.7911 62.1082 61.5174L65.0621 53.5345Z" fill="#0E2145"/>
<circle cx="66" cy="66" r="29" stroke="#121F3E" stroke-width="2"/>
<circle cx="66" cy="66" r="61" stroke="#121F3E" stroke-width="2"/>
</svg>
