<svg width="80" height="80" viewBox="0 0 80 80" fill="none" xmlns="http://www.w3.org/2000/svg">
<path d="M34 8.4641C37.7128 6.32051 42.2872 6.32051 46 8.4641L64.3109 19.0359C68.0237 21.1795 70.3109 25.141 70.3109 29.4282V50.5718C70.3109 54.859 68.0237 58.8205 64.3109 60.9641L46 71.5359C42.2872 73.6795 37.7128 73.6795 34 71.5359L15.6891 60.9641C11.9763 58.8205 9.68911 54.859 9.68911 50.5718V29.4282C9.68911 25.141 11.9763 21.1795 15.6891 19.0359L34 8.4641Z" fill="#FCD4DF"/>
<mask id="mask0_16377_96413" style="mask-type:alpha" maskUnits="userSpaceOnUse" x="9" y="6" width="62" height="68">
<path d="M34 8.4641C37.7128 6.32051 42.2872 6.32051 46 8.4641L64.3109 19.0359C68.0237 21.1795 70.3109 25.141 70.3109 29.4282V50.5718C70.3109 54.859 68.0237 58.8205 64.3109 60.9641L46 71.5359C42.2872 73.6795 37.7128 73.6795 34 71.5359L15.6891 60.9641C11.9763 58.8205 9.68911 54.859 9.68911 50.5718V29.4282C9.68911 25.141 11.9763 21.1795 15.6891 19.0359L34 8.4641Z" fill="#121F3E"/>
</mask>
<g mask="url(#mask0_16377_96413)">
<g opacity="0.3" filter="url(#filter0_d_16377_96413)">
<circle cx="10" cy="5" r="51" fill="url(#paint0_linear_16377_96413)" shape-rendering="crispEdges"/>
</g>
</g>
<path d="M40 22.1875C32.8008 22.1875 26.9375 28.0508 26.9375 35.25V50.5814C26.9361 52.4829 27.6825 54.3087 29.0156 55.6646C29.6694 56.3433 30.4533 56.8833 31.3204 57.2523C32.1875 57.6213 33.1201 57.8119 34.0625 57.8125C36.7982 57.8125 39.0485 56.6532 40.7511 54.3673C41.0836 53.922 41.4599 53.2733 41.8956 52.5229C43.0326 50.5658 44.5889 47.8865 46.5839 46.5305C48.4966 45.2309 50.0893 43.5959 51.1855 41.8013C52.4324 39.7729 53.0625 37.5686 53.0625 35.25C53.0625 28.0508 47.2029 22.1875 40 22.1875ZM47.125 35.8438C46.8101 35.8438 46.508 35.7186 46.2853 35.4959C46.0626 35.2732 45.9375 34.9712 45.9375 34.6562C45.9375 31.7098 43.2738 29.3125 40 29.3125C36.7262 29.3125 34.0625 31.7098 34.0625 34.6562V36.914C36.0805 36.3321 38.3969 36.4152 38.8333 36.4375C39.485 36.4437 40.1224 36.6286 40.6764 36.9719C41.2303 37.3153 41.6794 37.804 41.9748 38.3849C42.2702 38.9658 42.4006 39.6166 42.3519 40.2665C42.3031 40.9164 42.077 41.5404 41.6981 42.0707C41.6759 42.1011 41.6529 42.1308 41.6276 42.1598C40.3993 43.5699 38.9557 45.5352 38.7732 46.2418C38.6878 46.5404 38.4888 46.7938 38.2189 46.9474C37.949 47.1011 37.6296 47.1429 37.3292 47.0639C37.0289 46.9849 36.7714 46.7913 36.6121 46.5247C36.4527 46.2581 36.4042 45.9396 36.4768 45.6377C36.8858 44.0835 39.2177 41.3181 39.7914 40.6539C39.9096 40.4748 39.977 40.267 39.9865 40.0527C39.996 39.8384 39.9473 39.6255 39.8456 39.4367C39.7438 39.2478 39.5927 39.09 39.4085 38.9801C39.2243 38.8702 39.0137 38.8123 38.7991 38.8125H38.7338C37.5018 38.7464 35.3279 38.8719 34.0625 39.4293V43.5625C34.0625 43.8774 33.9374 44.1795 33.7147 44.4022C33.492 44.6249 33.1899 44.75 32.875 44.75C32.5601 44.75 32.258 44.6249 32.0353 44.4022C31.8126 44.1795 31.6875 43.8774 31.6875 43.5625V34.6562C31.6875 30.3998 35.4163 26.9375 40 26.9375C44.5838 26.9375 48.3125 30.3998 48.3125 34.6562C48.3125 34.9712 48.1874 35.2732 47.9647 35.4959C47.742 35.7186 47.4399 35.8438 47.125 35.8438Z" fill="#A66879"/>
<defs>
<filter id="filter0_d_16377_96413" x="-45" y="-46" width="110" height="110" filterUnits="userSpaceOnUse" color-interpolation-filters="sRGB">
<feFlood flood-opacity="0" result="BackgroundImageFix"/>
<feColorMatrix in="SourceAlpha" type="matrix" values="0 0 0 0 0 0 0 0 0 0 0 0 0 0 0 0 0 0 127 0" result="hardAlpha"/>
<feOffset dy="4"/>
<feGaussianBlur stdDeviation="2"/>
<feComposite in2="hardAlpha" operator="out"/>
<feColorMatrix type="matrix" values="0 0 0 0 0 0 0 0 0 0 0 0 0 0 0 0 0 0 0.03 0"/>
<feBlend mode="normal" in2="BackgroundImageFix" result="effect1_dropShadow_16377_96413"/>
<feBlend mode="normal" in="SourceGraphic" in2="effect1_dropShadow_16377_96413" result="shape"/>
</filter>
<linearGradient id="paint0_linear_16377_96413" x1="10" y1="-46" x2="10" y2="56" gradientUnits="userSpaceOnUse">
<stop stop-color="white"/>
<stop offset="1" stop-color="white" stop-opacity="0"/>
</linearGradient>
</defs>
</svg>
