<svg width="80" height="80" viewBox="0 0 80 80" fill="none" xmlns="http://www.w3.org/2000/svg">
<path d="M34 8.4641C37.7128 6.32051 42.2872 6.32051 46 8.4641L64.3109 19.0359C68.0237 21.1795 70.3109 25.141 70.3109 29.4282V50.5718C70.3109 54.859 68.0237 58.8205 64.3109 60.9641L46 71.5359C42.2872 73.6795 37.7128 73.6795 34 71.5359L15.6891 60.9641C11.9763 58.8205 9.68911 54.859 9.68911 50.5718V29.4282C9.68911 25.141 11.9763 21.1795 15.6891 19.0359L34 8.4641Z" fill="#F7EFDB"/>
<mask id="mask0_16379_96443" style="mask-type:alpha" maskUnits="userSpaceOnUse" x="9" y="6" width="62" height="68">
<path d="M34 8.4641C37.7128 6.32051 42.2872 6.32051 46 8.4641L64.3109 19.0359C68.0237 21.1795 70.3109 25.141 70.3109 29.4282V50.5718C70.3109 54.859 68.0237 58.8205 64.3109 60.9641L46 71.5359C42.2872 73.6795 37.7128 73.6795 34 71.5359L15.6891 60.9641C11.9763 58.8205 9.68911 54.859 9.68911 50.5718V29.4282C9.68911 25.141 11.9763 21.1795 15.6891 19.0359L34 8.4641Z" fill="#741B8B"/>
</mask>
<g mask="url(#mask0_16379_96443)">
<g opacity="0.3" filter="url(#filter0_d_16379_96443)">
<circle cx="10" cy="5" r="51" fill="url(#paint0_linear_16379_96443)" shape-rendering="crispEdges"/>
</g>
</g>
<path opacity="0.4" d="M46.7132 26.7791H33.2865C29.3757 26.7791 26.209 29.9616 26.209 33.8566V48.7557C26.209 52.6507 29.3915 55.8332 33.2865 55.8332H46.6973C50.6082 55.8332 53.7748 52.6507 53.7748 48.7557V33.8566C53.7907 29.9457 50.6082 26.7791 46.7132 26.7791Z" fill="#F2BD37"/>
<path d="M43.7213 24.1667H36.2796C34.6329 24.1667 33.2871 25.4967 33.2871 27.1434V28.6317C33.2871 30.2784 34.6171 31.6084 36.2638 31.6084H43.7213C45.3679 31.6084 46.6979 30.2784 46.6979 28.6317V27.1434C46.7138 25.4967 45.3679 24.1667 43.7213 24.1667Z" fill="#F2BD37"/>
<path d="M38.1152 47.8374C37.8144 47.8374 37.5135 47.7266 37.276 47.4891L34.901 45.1141C34.4418 44.6549 34.4418 43.8949 34.901 43.4358C35.3602 42.9766 36.1202 42.9766 36.5793 43.4358L38.1152 44.9716L43.6093 39.4774C44.0685 39.0183 44.8285 39.0183 45.2877 39.4774C45.7469 39.9366 45.7469 40.6966 45.2877 41.1558L38.9543 47.4891C38.7327 47.7266 38.416 47.8374 38.1152 47.8374Z" fill="#F2BD37"/>
<defs>
<filter id="filter0_d_16379_96443" x="-45" y="-46" width="110" height="110" filterUnits="userSpaceOnUse" color-interpolation-filters="sRGB">
<feFlood flood-opacity="0" result="BackgroundImageFix"/>
<feColorMatrix in="SourceAlpha" type="matrix" values="0 0 0 0 0 0 0 0 0 0 0 0 0 0 0 0 0 0 127 0" result="hardAlpha"/>
<feOffset dy="4"/>
<feGaussianBlur stdDeviation="2"/>
<feComposite in2="hardAlpha" operator="out"/>
<feColorMatrix type="matrix" values="0 0 0 0 0 0 0 0 0 0 0 0 0 0 0 0 0 0 0.03 0"/>
<feBlend mode="normal" in2="BackgroundImageFix" result="effect1_dropShadow_16379_96443"/>
<feBlend mode="normal" in="SourceGraphic" in2="effect1_dropShadow_16379_96443" result="shape"/>
</filter>
<linearGradient id="paint0_linear_16379_96443" x1="10" y1="-46" x2="10" y2="56" gradientUnits="userSpaceOnUse">
<stop stop-color="white"/>
<stop offset="1" stop-color="white" stop-opacity="0"/>
</linearGradient>
</defs>
</svg>
