<svg width="80" height="80" viewBox="0 0 80 80" fill="none" xmlns="http://www.w3.org/2000/svg">
<g clip-path="url(#clip0_16377_96405)">
<path d="M34 8.4641C37.7128 6.32051 42.2872 6.32051 46 8.4641L64.3109 19.0359C68.0237 21.1795 70.3109 25.141 70.3109 29.4282V50.5718C70.3109 54.859 68.0237 58.8205 64.3109 60.9641L46 71.5359C42.2872 73.6795 37.7128 73.6795 34 71.5359L15.6891 60.9641C11.9763 58.8205 9.68911 54.859 9.68911 50.5718V29.4282C9.68911 25.141 11.9763 21.1795 15.6891 19.0359L34 8.4641Z" fill="#BCDFE4"/>
<mask id="mask0_16377_96405" style="mask-type:alpha" maskUnits="userSpaceOnUse" x="9" y="6" width="62" height="68">
<path d="M34 8.4641C37.7128 6.32051 42.2872 6.32051 46 8.4641L64.3109 19.0359C68.0237 21.1795 70.3109 25.141 70.3109 29.4282V50.5718C70.3109 54.859 68.0237 58.8205 64.3109 60.9641L46 71.5359C42.2872 73.6795 37.7128 73.6795 34 71.5359L15.6891 60.9641C11.9763 58.8205 9.68911 54.859 9.68911 50.5718V29.4282C9.68911 25.141 11.9763 21.1795 15.6891 19.0359L34 8.4641Z" fill="#121F3E"/>
</mask>
<g mask="url(#mask0_16377_96405)">
</g>
<path d="M44.2519 39.2282L31.1074 36.9126V54.0233C31.1076 54.2092 31.1443 54.3932 31.2156 54.5649C31.2869 54.7366 31.3913 54.8925 31.5229 55.0238C31.6544 55.1552 31.8105 55.2593 31.9823 55.3303C32.1541 55.4013 32.3382 55.4378 32.5241 55.4376H55.2054C55.3914 55.4381 55.5758 55.4018 55.7479 55.331C55.9199 55.2601 56.0764 55.156 56.2082 55.0247C56.34 54.8933 56.4446 54.7373 56.516 54.5654C56.5874 54.3936 56.6243 54.2094 56.6244 54.0233V47.7188L44.2519 39.2282Z" fill="#185C37"/>
<path d="M44.2519 24.5625H32.5241C32.3382 24.5623 32.1541 24.5988 31.9823 24.6698C31.8105 24.7408 31.6544 24.8449 31.5229 24.9763C31.3913 25.1076 31.2869 25.2635 31.2156 25.4352C31.1443 25.6069 31.1076 25.7909 31.1074 25.9768V32.2813L44.2519 40L51.2118 42.3156L56.6244 40V32.2813L44.2519 24.5625Z" fill="#21A366"/>
<path d="M31.1074 32.2812H44.2519V40H31.1074V32.2812Z" fill="#107C41"/>
<path opacity="0.2" d="M39.5228 31.5557H31.0273V49.3242H39.5228C39.9279 49.3223 40.3159 49.1727 40.6027 48.9077C40.8896 48.6428 41.0521 48.2838 41.0551 47.9086V32.9712C41.0521 32.596 40.8896 32.2371 40.6027 31.9721C40.3159 31.7072 39.9279 31.5575 39.5228 31.5557Z" fill="black"/>
<path d="M24.7929 31.5093H38.9692C39.3448 31.509 39.7051 31.6578 39.9709 31.923C40.2368 32.1882 40.3865 32.5481 40.3871 32.9236V47.0762C40.3865 47.4517 40.2368 47.8116 39.9709 48.0768C39.7051 48.342 39.3448 48.4908 38.9692 48.4905H24.7929C24.6069 48.4908 24.4227 48.4545 24.2507 48.3836C24.0788 48.3127 23.9225 48.2085 23.7908 48.0772C23.6592 47.9459 23.5547 47.7898 23.4833 47.6181C23.412 47.4463 23.3752 47.2622 23.375 47.0762V32.9236C23.3752 32.7376 23.412 32.5535 23.4833 32.3817C23.5547 32.21 23.6592 32.054 23.7908 31.9226C23.9225 31.7913 24.0788 31.6872 24.2507 31.6162C24.4227 31.5453 24.6069 31.509 24.7929 31.5093Z" fill="url(#paint0_linear_16377_96405)"/>
<path d="M27.7695 44.5993L30.7513 39.987L28.0201 35.4009H30.2134L31.7037 38.3376C31.8415 38.6154 31.9412 38.8221 31.9863 38.9598H32.0065C32.1039 38.7366 32.2072 38.5216 32.3153 38.3114L33.9089 35.4056H35.9277L33.1263 39.9656L35.9989 44.6028H33.8507L32.1288 41.3835C32.0489 41.2451 31.981 41.1001 31.9258 40.9501H31.8973C31.8471 41.0962 31.7801 41.2361 31.6978 41.3669L29.9248 44.5993H27.7695Z" fill="white"/>
<path d="M55.2066 24.5625H44.252V32.2813H56.6245V25.9768C56.6244 25.7908 56.5876 25.6067 56.5162 25.4349C56.4448 25.2632 56.3403 25.1072 56.2087 24.9758C56.077 24.8445 55.9207 24.7404 55.7488 24.6695C55.5769 24.5985 55.3926 24.5622 55.2066 24.5625Z" fill="#33C481"/>
<path d="M44.252 40H56.6245V47.7188H44.252V40Z" fill="#107C41"/>
<g opacity="0.3" filter="url(#filter0_d_16377_96405)">
<circle cx="10" cy="5" r="51" fill="url(#paint1_linear_16377_96405)" shape-rendering="crispEdges"/>
</g>
</g>
<defs>
<filter id="filter0_d_16377_96405" x="-45" y="-46" width="110" height="110" filterUnits="userSpaceOnUse" color-interpolation-filters="sRGB">
<feFlood flood-opacity="0" result="BackgroundImageFix"/>
<feColorMatrix in="SourceAlpha" type="matrix" values="0 0 0 0 0 0 0 0 0 0 0 0 0 0 0 0 0 0 127 0" result="hardAlpha"/>
<feOffset dy="4"/>
<feGaussianBlur stdDeviation="2"/>
<feComposite in2="hardAlpha" operator="out"/>
<feColorMatrix type="matrix" values="0 0 0 0 0 0 0 0 0 0 0 0 0 0 0 0 0 0 0.03 0"/>
<feBlend mode="normal" in2="BackgroundImageFix" result="effect1_dropShadow_16377_96405"/>
<feBlend mode="normal" in="SourceGraphic" in2="effect1_dropShadow_16377_96405" result="shape"/>
</filter>
<linearGradient id="paint0_linear_16377_96405" x1="26.3366" y1="30.3978" x2="37.4255" y2="49.602" gradientUnits="userSpaceOnUse">
<stop stop-color="#18884F"/>
<stop offset="0.5" stop-color="#117E43"/>
<stop offset="1" stop-color="#0B6631"/>
</linearGradient>
<linearGradient id="paint1_linear_16377_96405" x1="10" y1="-46" x2="10" y2="56" gradientUnits="userSpaceOnUse">
<stop stop-color="white"/>
<stop offset="1" stop-color="white" stop-opacity="0"/>
</linearGradient>
<clipPath id="clip0_16377_96405">
<rect width="80" height="80" fill="white"/>
</clipPath>
</defs>
</svg>
