<svg width="80" height="80" viewBox="0 0 80 80" fill="none" xmlns="http://www.w3.org/2000/svg">
<g clip-path="url(#clip0_16377_96386)">
<path d="M34 8.4641C37.7128 6.32051 42.2872 6.32051 46 8.4641L64.3109 19.0359C68.0237 21.1795 70.3109 25.141 70.3109 29.4282V50.5718C70.3109 54.859 68.0237 58.8205 64.3109 60.9641L46 71.5359C42.2872 73.6795 37.7128 73.6795 34 71.5359L15.6891 60.9641C11.9763 58.8205 9.68911 54.859 9.68911 50.5718V29.4282C9.68911 25.141 11.9763 21.1795 15.6891 19.0359L34 8.4641Z" fill="#4F6589"/>
<mask id="mask0_16377_96386" style="mask-type:alpha" maskUnits="userSpaceOnUse" x="9" y="6" width="62" height="68">
<path d="M34 8.4641C37.7128 6.32051 42.2872 6.32051 46 8.4641L64.3109 19.0359C68.0237 21.1795 70.3109 25.141 70.3109 29.4282V50.5718C70.3109 54.859 68.0237 58.8205 64.3109 60.9641L46 71.5359C42.2872 73.6795 37.7128 73.6795 34 71.5359L15.6891 60.9641C11.9763 58.8205 9.68911 54.859 9.68911 50.5718V29.4282C9.68911 25.141 11.9763 21.1795 15.6891 19.0359L34 8.4641Z" fill="#BAD5FF"/>
</mask>
<g mask="url(#mask0_16377_96386)">
</g>
<g clip-path="url(#clip1_16377_96386)">
<path opacity="0.4" d="M55.2946 37.5301L53.743 44.1484C52.413 49.8642 49.7846 52.1759 44.8446 51.7009C44.053 51.6376 43.198 51.4951 42.2796 51.2734L39.6196 50.6401C33.0171 49.0726 30.9746 45.8109 32.5263 39.1926L34.078 32.5584C34.3946 31.2126 34.7746 30.0409 35.2496 29.0751C37.1021 25.2434 40.253 24.2142 45.5413 25.4651L48.1855 26.0826C54.8196 27.6342 56.8463 30.9117 55.2946 37.5301Z" fill="#D8E7FF"/>
<path d="M44.8451 51.7008C43.8634 52.3658 42.6284 52.92 41.1242 53.4108L38.6226 54.2341C32.3367 56.2608 29.0276 54.5666 26.9851 48.2808L24.9584 42.0266C22.9317 35.7408 24.6101 32.4158 30.8959 30.3891L33.3976 29.5658C34.0467 29.36 34.6642 29.1858 35.2501 29.075C34.7751 30.0408 34.3951 31.2125 34.0784 32.5583L32.5267 39.1925C30.9751 45.8108 33.0176 49.0724 39.6201 50.64L42.2801 51.2733C43.1984 51.495 44.0534 51.6375 44.8451 51.7008Z" fill="#D8E7FF"/>
<path d="M48.6932 37.6407C48.5982 37.6407 48.5032 37.6249 48.3923 37.6091L40.7132 35.6616C40.0798 35.5032 39.6998 34.8541 39.8582 34.2207C40.0165 33.5874 40.6657 33.2074 41.299 33.3657L48.9782 35.3132C49.6115 35.4716 49.9915 36.1207 49.8332 36.7541C49.7065 37.2766 49.2157 37.6407 48.6932 37.6407Z" fill="#D8E7FF"/>
<path d="M44.0531 42.9926C43.9581 42.9926 43.8631 42.9767 43.7523 42.9609L39.1448 41.7892C38.5115 41.6309 38.1315 40.9817 38.2898 40.3484C38.4481 39.7151 39.0973 39.3351 39.7306 39.4934L44.3381 40.6651C44.9715 40.8234 45.3515 41.4726 45.1931 42.1059C45.0665 42.6442 44.5915 42.9926 44.0531 42.9926Z" fill="#D8E7FF"/>
</g>
<g opacity="0.3" filter="url(#filter0_d_16377_96386)">
<circle cx="10" cy="5" r="51" fill="url(#paint0_linear_16377_96386)" shape-rendering="crispEdges"/>
</g>
</g>
<defs>
<filter id="filter0_d_16377_96386" x="-45" y="-46" width="110" height="110" filterUnits="userSpaceOnUse" color-interpolation-filters="sRGB">
<feFlood flood-opacity="0" result="BackgroundImageFix"/>
<feColorMatrix in="SourceAlpha" type="matrix" values="0 0 0 0 0 0 0 0 0 0 0 0 0 0 0 0 0 0 127 0" result="hardAlpha"/>
<feOffset dy="4"/>
<feGaussianBlur stdDeviation="2"/>
<feComposite in2="hardAlpha" operator="out"/>
<feColorMatrix type="matrix" values="0 0 0 0 0 0 0 0 0 0 0 0 0 0 0 0 0 0 0.03 0"/>
<feBlend mode="normal" in2="BackgroundImageFix" result="effect1_dropShadow_16377_96386"/>
<feBlend mode="normal" in="SourceGraphic" in2="effect1_dropShadow_16377_96386" result="shape"/>
</filter>
<linearGradient id="paint0_linear_16377_96386" x1="10" y1="-46" x2="10" y2="56" gradientUnits="userSpaceOnUse">
<stop stop-color="white"/>
<stop offset="1" stop-color="white" stop-opacity="0"/>
</linearGradient>
<clipPath id="clip0_16377_96386">
<rect width="80" height="80" fill="white"/>
</clipPath>
<clipPath id="clip1_16377_96386">
<rect width="38" height="38" fill="white" transform="translate(21 21)"/>
</clipPath>
</defs>
</svg>
