<svg width="120" height="120" viewBox="0 0 120 120" fill="none" xmlns="http://www.w3.org/2000/svg">
<rect width="120" height="120" fill="#A1A1D2"/>
<path opacity="0.4" d="M80 88.3333H76.6667V87.5C76.6667 83.8333 73.6667 80.8333 70 80.8333H62.5V73.2C61.6667 73.3 60.8333 73.3333 60 73.3333C59.1667 73.3333 58.3333 73.3 57.5 73.2V80.8333H50C46.3333 80.8333 43.3333 83.8333 43.3333 87.5V88.3333H40C38.6333 88.3333 37.5 89.4666 37.5 90.8333C37.5 92.2 38.6333 93.3333 40 93.3333H80C81.3667 93.3333 82.5 92.2 82.5 90.8333C82.5 89.4666 81.3667 88.3333 80 88.3333Z" fill="#474782"/>
<path opacity="0.4" d="M38.3996 58.8001C36.1996 57.9668 34.2663 56.6001 32.7329 55.0668C29.6329 51.6334 27.5996 47.5334 27.5996 42.7334C27.5996 37.9334 31.3663 34.1667 36.1663 34.1667H38.0329C37.1663 35.9334 36.6663 37.9001 36.6663 40.0001V50.0001C36.6663 53.1334 37.2663 56.1001 38.3996 58.8001Z" fill="#474782"/>
<path opacity="0.4" d="M92.3996 42.7334C92.3996 47.5334 90.3663 51.6334 87.2663 55.0668C85.7329 56.6001 83.7996 57.9668 81.5996 58.8001C82.7329 56.1001 83.3329 53.1334 83.3329 50.0001V40.0001C83.3329 37.9001 82.8329 35.9334 81.9663 34.1667H83.8329C88.6329 34.1667 92.3996 37.9334 92.3996 42.7334Z" fill="#474782"/>
<path d="M69.9994 26.6667H49.9993C42.6327 26.6667 36.666 32.6334 36.666 40.0001V50.0001C36.666 62.9001 47.0993 73.3334 59.9994 73.3334C72.8994 73.3334 83.3327 62.9001 83.3327 50.0001V40.0001C83.3327 32.6334 77.366 26.6667 69.9994 26.6667ZM69.466 48.1667L67.3994 50.7001C67.066 51.0667 66.8327 51.8001 66.866 52.3001L67.066 55.5667C67.1994 57.5667 65.766 58.6001 63.8994 57.8667L60.866 56.6667C60.3994 56.5001 59.5993 56.5001 59.1327 56.6667L56.0993 57.8667C54.2327 58.6001 52.7994 57.5667 52.9327 55.5667L53.1327 52.3001C53.166 51.8001 52.9327 51.0667 52.5993 50.7001L50.5327 48.1667C49.2327 46.6334 49.7994 44.9334 51.7327 44.4334L54.8994 43.6334C55.3994 43.5001 55.9994 43.0334 56.266 42.6001L58.0327 39.8667C59.1327 38.1667 60.866 38.1667 61.966 39.8667L63.7327 42.6001C63.9993 43.0334 64.5993 43.5001 65.0993 43.6334L68.266 44.4334C70.1993 44.9334 70.766 46.6334 69.466 48.1667Z" fill="#474782"/>
<path opacity="0.4" d="M69.4671 48.1666L67.4005 50.6999C67.0671 51.0666 66.8338 51.7999 66.8671 52.2999L67.0671 55.5666C67.2005 57.5666 65.7671 58.5999 63.9005 57.8666L60.8671 56.6666C60.4005 56.4999 59.6005 56.4999 59.1338 56.6666L56.1005 57.8666C54.2338 58.5999 52.8005 57.5666 52.9338 55.5666L53.1338 52.2999C53.1671 51.7999 52.9338 51.0666 52.6005 50.6999L50.5338 48.1666C49.2338 46.6332 49.8005 44.9332 51.7338 44.4332L54.9005 43.6332C55.4005 43.4999 56.0005 43.0332 56.2671 42.5999L58.0338 39.8666C59.1338 38.1666 60.8671 38.1666 61.9671 39.8666L63.7338 42.5999C64.0005 43.0332 64.6005 43.4999 65.1005 43.6332L68.2671 44.4332C70.2005 44.9332 70.7671 46.6332 69.4671 48.1666Z" fill="#474782"/>
</svg>
