<svg width="120" height="120" viewBox="0 0 120 120" fill="none" xmlns="http://www.w3.org/2000/svg">
<rect width="120" height="120" fill="#F3B492"/>
<path d="M84.4329 38.9333L63.5329 27.6666C61.3329 26.4666 58.6663 26.4666 56.4663 27.6666L35.5663 38.9333C34.0329 39.7666 33.0996 41.3666 33.0996 43.1999C33.0996 44.9999 34.0329 46.6333 35.5663 47.4666L56.4663 58.7333C57.5663 59.3333 58.7996 59.6333 59.9996 59.6333C61.1996 59.6333 62.4329 59.3333 63.5329 58.7333L84.4329 47.4666C85.9663 46.6333 86.8996 45.0333 86.8996 43.1999C86.8996 41.3666 85.9663 39.7666 84.4329 38.9333Z" fill="#D06D38"/>
<path opacity="0.4" d="M53.0327 62.6333L33.566 52.8999C32.066 52.1666 30.3327 52.2333 28.9327 53.0999C27.4993 53.9999 26.666 55.4999 26.666 57.1666V75.5333C26.666 78.6999 28.4327 81.5666 31.266 82.9999L50.6993 92.7332C51.366 93.0666 52.0993 93.2332 52.8327 93.2332C53.6993 93.2332 54.566 92.9999 55.3327 92.5333C56.766 91.6666 57.5993 90.1333 57.5993 88.4666V70.0999C57.6327 66.8999 55.866 64.0333 53.0327 62.6333Z" fill="#D06D38"/>
<path opacity="0.4" d="M91.0671 53.1C89.6337 52.2333 87.9004 52.1333 86.4337 52.9L67.0004 62.6333C64.1671 64.0666 62.4004 66.9 62.4004 70.1V88.4667C62.4004 90.1333 63.2337 91.6666 64.6671 92.5333C65.4337 93 66.3004 93.2333 67.1671 93.2333C67.9004 93.2333 68.6337 93.0666 69.3004 92.7333L88.7337 83C91.5671 81.5666 93.3337 78.7333 93.3337 75.5333V57.1666C93.3337 55.5 92.5004 54 91.0671 53.1Z" fill="#D06D38"/>
</svg>
