<svg width="120" height="120" viewBox="0 0 120 120" fill="none" xmlns="http://www.w3.org/2000/svg">
<rect width="120" height="120" fill="#E5A7B1"/>
<path opacity="0.4" d="M75.9008 83.2667H44.1008C42.7008 83.2667 41.4341 82.3667 40.9675 81.0667L27.1008 42.2334C26.0008 39.1334 29.5341 36.5 32.1675 38.4L45.5008 47.9334C47.2675 49.2001 49.8008 48.4334 50.5675 46.4001L56.8675 29.6C57.9341 26.7 62.0341 26.7 63.1008 29.6L69.4008 46.4001C70.1675 48.4667 72.6675 49.2001 74.4675 47.9334L87.8008 38.4C90.4675 36.5 93.9675 39.1667 92.8675 42.2334L79.0008 81.0667C78.5675 82.3667 77.3008 83.2667 75.9008 83.2667Z" fill="#9C3C4C"/>
<path d="M76.6673 93.3333H43.334C41.9673 93.3333 40.834 92.1999 40.834 90.8333C40.834 89.4666 41.9673 88.3333 43.334 88.3333H76.6673C78.034 88.3333 79.1673 89.4666 79.1673 90.8333C79.1673 92.1999 78.034 93.3333 76.6673 93.3333Z" fill="#9C3C4C"/>
<path d="M68.3327 69.1667H51.666C50.2993 69.1667 49.166 68.0334 49.166 66.6667C49.166 65.3001 50.2993 64.1667 51.666 64.1667H68.3327C69.6993 64.1667 70.8327 65.3001 70.8327 66.6667C70.8327 68.0334 69.6993 69.1667 68.3327 69.1667Z" fill="#9C3C4C"/>
</svg>
