<svg width="120" height="120" viewBox="0 0 120 120" fill="none" xmlns="http://www.w3.org/2000/svg">
<rect width="120" height="120" fill="#F39898"/>
<path opacity="0.4" d="M79.8327 45.6999L79.366 45.4333L74.7327 42.7666L65.166 37.2333C62.2327 35.5333 57.766 35.5333 54.8327 37.2333L45.266 42.7666L40.6327 45.4666L40.0327 45.7999C34.066 49.7999 33.666 50.5333 33.666 56.9666V72.3333C33.666 78.7666 34.066 79.4999 40.166 83.5999L54.8327 92.0666C56.2993 92.9333 58.1327 93.3333 59.9993 93.3333C61.8327 93.3333 63.6994 92.9333 65.166 92.0666L79.966 83.4999C85.9327 79.4999 86.3327 78.7666 86.3327 72.3333V56.9666C86.3327 50.5333 85.9327 49.7999 79.8327 45.6999Z" fill="#B24545"/>
<path d="M40.6328 45.4667L45.2661 42.7667L54.3995 37.5001L54.8328 37.2334C57.7661 35.5334 62.2328 35.5334 65.1661 37.2334L65.5995 37.5001L74.7328 42.7667L79.3661 45.4334V38.3001C79.3661 30.8001 75.2328 26.6667 67.7328 26.6667H52.2328C44.7328 26.6667 40.6328 30.8001 40.6328 38.3001V45.4667Z" fill="#B24545"/>
<path d="M69.4671 64.4666L67.4005 66.9999C67.0671 67.3666 66.8338 68.0999 66.8671 68.5999L67.0671 71.8666C67.2005 73.8666 65.7671 74.8999 63.9005 74.1666L60.8671 72.9666C60.4005 72.7999 59.6005 72.7999 59.1338 72.9666L56.1005 74.1666C54.2338 74.8999 52.8005 73.8666 52.9338 71.8666L53.1338 68.5999C53.1671 68.0999 52.9338 67.3666 52.6005 66.9999L50.5338 64.4666C49.2338 62.9333 49.8005 61.2333 51.7338 60.7333L54.9005 59.9333C55.4005 59.7999 56.0005 59.3333 56.2671 58.8999L58.0338 56.1666C59.1338 54.4666 60.8671 54.4666 61.9671 56.1666L63.7338 58.8999C64.0005 59.3333 64.6005 59.7999 65.1005 59.9333L68.2671 60.7333C70.2005 61.2333 70.7671 62.9333 69.4671 64.4666Z" fill="#B24545"/>
</svg>
