<svg width="120" height="120" viewBox="0 0 120 120" fill="none" xmlns="http://www.w3.org/2000/svg">
<rect width="120" height="120" fill="#B6C5C9"/>
<path d="M71.9666 25.8333C62.0666 25.8333 54.0332 33.8666 54.0332 43.7666C54.0332 53.6666 62.0666 61.6999 71.9666 61.6999C81.8666 61.6999 89.8999 53.6666 89.8999 43.7666C89.8999 33.8666 81.8666 25.8333 71.9666 25.8333Z" fill="#39555D"/>
<path opacity="0.4" d="M41.1996 63.4333C35.0996 63.4333 30.0996 68.4 30.0996 74.5334C30.0996 80.6667 35.0662 85.6334 41.1996 85.6334C47.2996 85.6334 52.2996 80.6667 52.2996 74.5334C52.2996 68.4 47.2996 63.4333 41.1996 63.4333Z" fill="#39555D"/>
<path opacity="0.4" d="M75.3999 75.3999C70.2332 75.3999 66.0332 79.5999 66.0332 84.7666C66.0332 89.9332 70.2332 94.1333 75.3999 94.1333C80.5665 94.1333 84.7665 89.9332 84.7665 84.7666C84.7665 79.5999 80.5665 75.3999 75.3999 75.3999Z" fill="#39555D"/>
</svg>
