<svg width="120" height="120" viewBox="0 0 120 120" fill="none" xmlns="http://www.w3.org/2000/svg">
<rect width="120" height="120" fill="#FFCB83"/>
<path opacity="0.4" d="M59.8997 93.3334C78.3092 93.3334 93.2331 78.4096 93.2331 60.0001C93.2331 41.5906 78.3092 26.6667 59.8997 26.6667C41.4902 26.6667 26.5664 41.5906 26.5664 60.0001C26.5664 78.4096 41.4902 93.3334 59.8997 93.3334Z" fill="#A86D1A"/>
<path d="M60.0009 84.1666C52.8342 84.1666 46.1009 80.6666 42.0009 74.7666C41.2009 73.6333 41.5009 72.0666 42.6342 71.3C43.7676 70.5 45.3342 70.8 46.1009 71.9333C49.2676 76.4666 54.4676 79.2 60.0009 79.2C65.5342 79.2 70.7342 76.5 73.9009 71.9333C74.7009 70.8 76.2342 70.5333 77.3676 71.3C78.5009 72.1 78.7676 73.6333 78.0009 74.7666C73.9009 80.6666 67.1676 84.1666 60.0009 84.1666Z" fill="#A86D1A"/>
</svg>
