<svg width="80" height="80" viewBox="0 0 80 80" fill="none" xmlns="http://www.w3.org/2000/svg">
<rect x="8" y="8" width="64" height="64" rx="32" fill="url(#paint0_linear_16961_59013)"/>
<rect x="4" y="4" width="72" height="72" rx="36" stroke="white" stroke-opacity="0.5" stroke-width="8"/>
<g style="mix-blend-mode:overlay">
<path d="M45.1182 53.3333H34.8782C29.2915 53.3333 28.1848 49.9599 29.9982 45.8533L31.9182 41.4933C31.9182 41.4933 35.9982 41.3333 39.9982 42.6666C43.9982 43.9999 47.7715 41.4799 47.7715 41.4799L48.0248 41.3199L50.0115 45.8666C51.7982 49.9733 50.6248 53.3333 45.1182 53.3333Z" fill="white"/>
<path opacity="0.4" d="M48.0285 41.32L47.7752 41.48C47.7752 41.48 44.0019 44 40.0019 42.6666C36.0019 41.3333 31.9219 41.4933 31.9219 41.4933L35.6552 32.9866H35.2552C34.3885 32.9866 33.5885 32.64 33.0152 32.0666C32.4419 31.4933 32.0952 30.6933 32.0952 29.8266C32.0952 28.0933 33.5085 26.6666 35.2552 26.6666H44.7352C45.6152 26.6666 46.4019 27.0266 46.9752 27.6C47.7219 28.3466 48.1085 29.44 47.8152 30.6C47.4685 32.04 46.0819 32.9866 44.5885 32.9866H44.3752L48.0285 41.32Z" fill="white"/>
</g>
<defs>
<linearGradient id="paint0_linear_16961_59013" x1="40" y1="8" x2="40" y2="72" gradientUnits="userSpaceOnUse">
<stop stop-color="#FFB091"/>
<stop offset="1" stop-color="#F15F25"/>
</linearGradient>
</defs>
</svg>
