<svg width="1464" height="750" viewBox="0 0 1464 750" fill="none" xmlns="http://www.w3.org/2000/svg">
<mask id="mask0_14879_52474" style="mask-type:alpha" maskUnits="userSpaceOnUse" x="0" y="0" width="1464" height="750">
<rect width="1464" height="750" fill="#1D2934"/>
</mask>
<g mask="url(#mask0_14879_52474)">
<rect x="634" y="598" width="196" height="64" rx="20" fill="#0170FF"/>
<path d="M678.829 633.64C679.499 633.2 680.379 633.68 680.379 634.48V635.77C680.379 637.04 679.389 638.4 678.199 638.8L675.009 639.86C674.449 640.05 673.539 640.05 672.989 639.86L669.799 638.8C668.599 638.4 667.619 637.04 667.619 635.77V634.47C667.619 633.68 668.499 633.2 669.159 633.63L671.219 634.97C672.009 635.5 673.009 635.76 674.009 635.76C675.009 635.76 676.009 635.5 676.799 634.97L678.829 633.64Z" fill="white"/>
<path d="M681.98 624.46L675.99 620.53C674.91 619.82 673.13 619.82 672.05 620.53L666.03 624.46C664.1 625.71 664.1 628.54 666.03 629.8L667.63 630.84L672.05 633.72C673.13 634.43 674.91 634.43 675.99 633.72L680.38 630.84L681.75 629.94V633C681.75 633.41 682.09 633.75 682.5 633.75C682.91 633.75 683.25 633.41 683.25 633V628.08C683.65 626.79 683.24 625.29 681.98 624.46Z" fill="white"/>
<path d="M695.233 635.5V625.318H701.378V626.412H696.466V629.852H701.06V630.946H696.466V634.406H701.457V635.5H695.233ZM704.316 627.864L706.146 630.986L707.975 627.864H709.327L706.862 631.682L709.327 635.5H707.975L706.146 632.537L704.316 635.5H702.964L705.39 631.682L702.964 627.864H704.316ZM711.002 638.364V627.864H712.135V629.077H712.274C712.36 628.944 712.48 628.775 712.632 628.57C712.788 628.361 713.01 628.175 713.298 628.013C713.59 627.847 713.985 627.764 714.482 627.764C715.125 627.764 715.691 627.925 716.182 628.246C716.673 628.568 717.055 629.024 717.33 629.614C717.606 630.204 717.743 630.9 717.743 631.702C717.743 632.51 717.606 633.211 717.33 633.805C717.055 634.395 716.674 634.852 716.187 635.177C715.7 635.498 715.138 635.659 714.502 635.659C714.011 635.659 713.618 635.578 713.323 635.415C713.028 635.25 712.801 635.062 712.642 634.854C712.483 634.642 712.36 634.466 712.274 634.327H712.175V638.364H711.002ZM712.155 631.682C712.155 632.259 712.24 632.767 712.409 633.208C712.578 633.646 712.825 633.989 713.149 634.237C713.474 634.482 713.872 634.605 714.343 634.605C714.833 634.605 715.242 634.476 715.57 634.217C715.902 633.955 716.151 633.604 716.316 633.163C716.485 632.719 716.57 632.225 716.57 631.682C716.57 631.145 716.487 630.661 716.321 630.23C716.159 629.796 715.912 629.453 715.58 629.201C715.252 628.946 714.84 628.818 714.343 628.818C713.865 628.818 713.464 628.939 713.139 629.181C712.815 629.42 712.569 629.754 712.404 630.185C712.238 630.613 712.155 631.112 712.155 631.682ZM720.706 625.318V635.5H719.533V625.318H720.706ZM725.957 635.659C725.268 635.659 724.663 635.495 724.143 635.167C723.626 634.839 723.221 634.38 722.93 633.79C722.641 633.2 722.497 632.51 722.497 631.722C722.497 630.926 722.641 630.232 722.93 629.638C723.221 629.045 723.626 628.585 724.143 628.256C724.663 627.928 725.268 627.764 725.957 627.764C726.647 627.764 727.25 627.928 727.767 628.256C728.287 628.585 728.692 629.045 728.98 629.638C729.272 630.232 729.418 630.926 729.418 631.722C729.418 632.51 729.272 633.2 728.98 633.79C728.692 634.38 728.287 634.839 727.767 635.167C727.25 635.495 726.647 635.659 725.957 635.659ZM725.957 634.605C726.481 634.605 726.912 634.471 727.25 634.202C727.588 633.934 727.838 633.581 728.001 633.143C728.163 632.706 728.244 632.232 728.244 631.722C728.244 631.211 728.163 630.736 728.001 630.295C727.838 629.854 727.588 629.498 727.25 629.226C726.912 628.954 726.481 628.818 725.957 628.818C725.434 628.818 725.003 628.954 724.665 629.226C724.327 629.498 724.076 629.854 723.914 630.295C723.752 630.736 723.67 631.211 723.67 631.722C723.67 632.232 723.752 632.706 723.914 633.143C724.076 633.581 724.327 633.934 724.665 634.202C725.003 634.471 725.434 634.605 725.957 634.605ZM731.209 635.5V627.864H732.342V629.017H732.422C732.561 628.639 732.813 628.333 733.177 628.097C733.542 627.862 733.953 627.744 734.41 627.744C734.497 627.744 734.604 627.746 734.733 627.749C734.863 627.753 734.961 627.758 735.027 627.764V628.957C734.987 628.947 734.896 628.933 734.753 628.913C734.614 628.889 734.467 628.878 734.311 628.878C733.94 628.878 733.608 628.956 733.317 629.112C733.028 629.264 732.8 629.476 732.631 629.748C732.465 630.016 732.382 630.323 732.382 630.668V635.5H731.209ZM739.387 635.659C738.651 635.659 738.016 635.497 737.483 635.172C736.952 634.844 736.543 634.386 736.255 633.8C735.97 633.21 735.827 632.524 735.827 631.741C735.827 630.959 735.97 630.27 736.255 629.673C736.543 629.073 736.944 628.606 737.458 628.271C737.975 627.933 738.578 627.764 739.268 627.764C739.665 627.764 740.058 627.83 740.446 627.963C740.834 628.096 741.187 628.311 741.505 628.609C741.823 628.904 742.077 629.295 742.265 629.783C742.454 630.27 742.549 630.87 742.549 631.582V632.08H736.662V631.065H741.356C741.356 630.634 741.269 630.25 741.097 629.912C740.928 629.574 740.686 629.307 740.371 629.112C740.06 628.916 739.692 628.818 739.268 628.818C738.8 628.818 738.396 628.934 738.055 629.166C737.716 629.395 737.456 629.693 737.274 630.061C737.092 630.429 737.001 630.823 737.001 631.244V631.92C737.001 632.497 737.1 632.986 737.299 633.387C737.501 633.785 737.781 634.088 738.139 634.297C738.497 634.502 738.913 634.605 739.387 634.605C739.695 634.605 739.974 634.562 740.222 634.476C740.474 634.386 740.691 634.254 740.873 634.078C741.056 633.899 741.197 633.677 741.296 633.412L742.43 633.73C742.31 634.115 742.11 634.453 741.828 634.744C741.546 635.033 741.198 635.258 740.784 635.42C740.37 635.58 739.904 635.659 739.387 635.659ZM756.623 628.5H755.39C755.318 628.145 755.19 627.834 755.008 627.565C754.829 627.297 754.61 627.071 754.351 626.889C754.096 626.704 753.813 626.564 753.501 626.472C753.19 626.379 752.865 626.332 752.527 626.332C751.91 626.332 751.352 626.488 750.851 626.8C750.354 627.111 749.958 627.57 749.663 628.177C749.372 628.783 749.226 629.527 749.226 630.409C749.226 631.291 749.372 632.035 749.663 632.641C749.958 633.248 750.354 633.707 750.851 634.018C751.352 634.33 751.91 634.486 752.527 634.486C752.865 634.486 753.19 634.439 753.501 634.347C753.813 634.254 754.096 634.116 754.351 633.934C754.61 633.748 754.829 633.521 755.008 633.253C755.19 632.981 755.318 632.67 755.39 632.318H756.623C756.531 632.839 756.362 633.304 756.116 633.715C755.871 634.126 755.566 634.476 755.202 634.764C754.837 635.049 754.428 635.266 753.974 635.415C753.523 635.565 753.041 635.639 752.527 635.639C751.658 635.639 750.886 635.427 750.21 635.003C749.534 634.579 749.002 633.975 748.614 633.193C748.226 632.411 748.032 631.483 748.032 630.409C748.032 629.335 748.226 628.407 748.614 627.625C749.002 626.843 749.534 626.24 750.21 625.815C750.886 625.391 751.658 625.179 752.527 625.179C753.041 625.179 753.523 625.254 753.974 625.403C754.428 625.552 754.837 625.771 755.202 626.059C755.566 626.344 755.871 626.692 756.116 627.103C756.362 627.511 756.531 627.976 756.623 628.5ZM761.559 635.659C760.87 635.659 760.265 635.495 759.744 635.167C759.227 634.839 758.823 634.38 758.531 633.79C758.243 633.2 758.099 632.51 758.099 631.722C758.099 630.926 758.243 630.232 758.531 629.638C758.823 629.045 759.227 628.585 759.744 628.256C760.265 627.928 760.87 627.764 761.559 627.764C762.248 627.764 762.852 627.928 763.369 628.256C763.889 628.585 764.293 629.045 764.582 629.638C764.873 630.232 765.019 630.926 765.019 631.722C765.019 632.51 764.873 633.2 764.582 633.79C764.293 634.38 763.889 634.839 763.369 635.167C762.852 635.495 762.248 635.659 761.559 635.659ZM761.559 634.605C762.083 634.605 762.513 634.471 762.852 634.202C763.19 633.934 763.44 633.581 763.602 633.143C763.765 632.706 763.846 632.232 763.846 631.722C763.846 631.211 763.765 630.736 763.602 630.295C763.44 629.854 763.19 629.498 762.852 629.226C762.513 628.954 762.083 628.818 761.559 628.818C761.035 628.818 760.604 628.954 760.266 629.226C759.928 629.498 759.678 629.854 759.516 630.295C759.353 630.736 759.272 631.211 759.272 631.722C759.272 632.232 759.353 632.706 759.516 633.143C759.678 633.581 759.928 633.934 760.266 634.202C760.604 634.471 761.035 634.605 761.559 634.605ZM771.623 632.378V627.864H772.796V635.5H771.623V634.207H771.543C771.364 634.595 771.086 634.925 770.708 635.197C770.33 635.465 769.853 635.599 769.276 635.599C768.799 635.599 768.375 635.495 768.003 635.286C767.632 635.074 767.34 634.756 767.128 634.332C766.916 633.904 766.81 633.366 766.81 632.716V627.864H767.983V632.636C767.983 633.193 768.139 633.637 768.451 633.969C768.766 634.3 769.167 634.466 769.654 634.466C769.946 634.466 770.242 634.391 770.544 634.242C770.849 634.093 771.104 633.864 771.309 633.556C771.518 633.248 771.623 632.855 771.623 632.378ZM774.945 635.5V627.864H776.078V629.017H776.158C776.297 628.639 776.549 628.333 776.914 628.097C777.278 627.862 777.689 627.744 778.147 627.744C778.233 627.744 778.341 627.746 778.47 627.749C778.599 627.753 778.697 627.758 778.763 627.764V628.957C778.723 628.947 778.632 628.933 778.49 628.913C778.35 628.889 778.203 628.878 778.047 628.878C777.676 628.878 777.345 628.956 777.053 629.112C776.765 629.264 776.536 629.476 776.367 629.748C776.201 630.016 776.118 630.323 776.118 630.668V635.5H774.945ZM785.563 629.574L784.509 629.872C784.443 629.696 784.345 629.526 784.216 629.36C784.09 629.191 783.917 629.052 783.699 628.942C783.48 628.833 783.2 628.778 782.858 628.778C782.391 628.778 782.002 628.886 781.69 629.102C781.382 629.314 781.228 629.584 781.228 629.912C781.228 630.204 781.334 630.434 781.546 630.603C781.758 630.772 782.09 630.913 782.54 631.026L783.674 631.304C784.357 631.47 784.865 631.723 785.2 632.065C785.535 632.403 785.702 632.839 785.702 633.372C785.702 633.81 785.576 634.201 785.324 634.545C785.076 634.89 784.728 635.162 784.28 635.361C783.833 635.56 783.313 635.659 782.719 635.659C781.94 635.659 781.296 635.49 780.785 635.152C780.275 634.814 779.952 634.32 779.816 633.67L780.93 633.392C781.036 633.803 781.236 634.111 781.531 634.317C781.829 634.522 782.219 634.625 782.699 634.625C783.246 634.625 783.68 634.509 784.002 634.277C784.327 634.042 784.489 633.76 784.489 633.432C784.489 633.167 784.396 632.945 784.211 632.766C784.025 632.583 783.74 632.447 783.356 632.358L782.083 632.06C781.384 631.894 780.87 631.637 780.542 631.289C780.217 630.938 780.055 630.499 780.055 629.972C780.055 629.541 780.175 629.16 780.417 628.828C780.663 628.497 780.996 628.237 781.417 628.048C781.841 627.859 782.322 627.764 782.858 627.764C783.614 627.764 784.207 627.93 784.638 628.261C785.073 628.593 785.381 629.03 785.563 629.574ZM790.67 635.659C789.934 635.659 789.3 635.497 788.766 635.172C788.236 634.844 787.826 634.386 787.538 633.8C787.253 633.21 787.11 632.524 787.11 631.741C787.11 630.959 787.253 630.27 787.538 629.673C787.826 629.073 788.227 628.606 788.741 628.271C789.258 627.933 789.861 627.764 790.551 627.764C790.949 627.764 791.341 627.83 791.729 627.963C792.117 628.096 792.47 628.311 792.788 628.609C793.106 628.904 793.36 629.295 793.549 629.783C793.738 630.27 793.832 630.87 793.832 631.582V632.08H787.946V631.065H792.639C792.639 630.634 792.553 630.25 792.38 629.912C792.211 629.574 791.969 629.307 791.654 629.112C791.343 628.916 790.975 628.818 790.551 628.818C790.083 628.818 789.679 628.934 789.338 629.166C789 629.395 788.739 629.693 788.557 630.061C788.375 630.429 788.284 630.823 788.284 631.244V631.92C788.284 632.497 788.383 632.986 788.582 633.387C788.784 633.785 789.064 634.088 789.422 634.297C789.78 634.502 790.196 634.605 790.67 634.605C790.978 634.605 791.257 634.562 791.505 634.476C791.757 634.386 791.974 634.254 792.157 634.078C792.339 633.899 792.48 633.677 792.579 633.412L793.713 633.73C793.593 634.115 793.393 634.453 793.111 634.744C792.829 635.033 792.481 635.258 792.067 635.42C791.653 635.58 791.187 635.659 790.67 635.659ZM801.026 629.574L799.972 629.872C799.906 629.696 799.808 629.526 799.679 629.36C799.553 629.191 799.38 629.052 799.162 628.942C798.943 628.833 798.663 628.778 798.321 628.778C797.854 628.778 797.465 628.886 797.153 629.102C796.845 629.314 796.691 629.584 796.691 629.912C796.691 630.204 796.797 630.434 797.009 630.603C797.221 630.772 797.552 630.913 798.003 631.026L799.137 631.304C799.819 631.47 800.328 631.723 800.663 632.065C800.998 632.403 801.165 632.839 801.165 633.372C801.165 633.81 801.039 634.201 800.787 634.545C800.539 634.89 800.191 635.162 799.743 635.361C799.296 635.56 798.775 635.659 798.182 635.659C797.403 635.659 796.759 635.49 796.248 635.152C795.738 634.814 795.415 634.32 795.279 633.67L796.392 633.392C796.498 633.803 796.699 634.111 796.994 634.317C797.292 634.522 797.682 634.625 798.162 634.625C798.709 634.625 799.143 634.509 799.465 634.277C799.79 634.042 799.952 633.76 799.952 633.432C799.952 633.167 799.859 632.945 799.674 632.766C799.488 632.583 799.203 632.447 798.819 632.358L797.546 632.06C796.846 631.894 796.333 631.637 796.005 631.289C795.68 630.938 795.517 630.499 795.517 629.972C795.517 629.541 795.638 629.16 795.88 628.828C796.126 628.497 796.459 628.237 796.88 628.048C797.304 627.859 797.784 627.764 798.321 627.764C799.077 627.764 799.67 627.93 800.101 628.261C800.535 628.593 800.844 629.03 801.026 629.574Z" fill="white"/>
<path opacity="0.05" d="M-43 41C-19.3101 85.3127 46.9949 181.334 122.696 210.918C217.322 247.897 329.516 207.173 381.022 181.428C432.527 155.683 523.96 103.256 595.828 233.854C667.696 364.452 653.722 556.37 769.908 639.69C886.095 723.011 995.894 540.455 1045 462.283C1094.11 384.112 1259.01 52.7023 1483 56.447" stroke="url(#paint0_linear_14879_52474)" stroke-width="30"/>
</g>
<defs>
<linearGradient id="paint0_linear_14879_52474" x1="720" y1="41" x2="720" y2="661" gradientUnits="userSpaceOnUse">
<stop stop-color="white"/>
<stop offset="1" stop-color="white" stop-opacity="0"/>
</linearGradient>
</defs>
</svg>
