<svg width="1916" height="729" viewBox="0 0 1916 729" fill="none" xmlns="http://www.w3.org/2000/svg">
<mask id="mask0_14650_61398" style="mask-type:alpha" maskUnits="userSpaceOnUse" x="0" y="0" width="1920" height="729">
<rect width="1920" height="729" fill="#D9D9D9"/>
</mask>
<g mask="url(#mask0_14650_61398)">
<path opacity="0.07" d="M1779.73 27V136.172L1743.67 100.111V27H1743.01L1743.12 27.1126V99.5586L1707.06 63.4976V27H1706.51V63.4976L1670.45 99.5586V27H1450.23V63.4976L1414.17 99.5586V27H1413.51L1377.56 62.9485V27H1377.01V63.4976L1340.95 99.5586V27H1121V137.108H1230.17L1194.11 173.169H1121V173.831L1121.11 173.718H1193.56L1157.5 209.779H1121V210.328H1157.5L1193.56 246.389H1121V246.939H1193.56L1157.5 283H1121V283.549H1156.95L1121 319.5V320.162H1193.56L1157.5 356.223H1121V685.997H1340.94V613.439L1377 649.5V685.997H1377.55V649.5L1413.61 613.439V685.885L1413.5 685.997H1414.16V612.889L1450.23 576.828V686H1670.44V649.502L1670.56 649.39L1670.44 649.277V613.441L1706.5 649.502V686H1707.05V650.052L1743 686H1743.66V613.441L1779.73 649.502V686H1780V356.225H1670.83L1706.89 320.164H1780V319.503L1779.88 319.615H1707.44L1743.5 283.554H1780V283.005H1743.5L1707.44 246.944H1780V246.395H1707.44L1743.5 210.334H1780V209.785H1744.05L1780 173.836V173.174H1707.44L1743.5 137.113H1780V27H1779.72H1779.73ZM1706.78 64.0001L1743.12 100.336V136.559H1670.44V100.336L1706.78 64.0001H1706.78ZM1743.67 100.885L1779.34 136.559H1743.67V100.885ZM1523.84 649.115L1487.78 613.054H1560.22L1596.29 649.115H1523.84ZM1377.94 575.892L1414 539.831H1487L1523.06 575.892H1377.94ZM1303.94 649.115H1231.5L1267.56 613.054H1340L1303.94 649.115ZM1157.89 429.836L1193.95 393.775V466.221L1157.89 502.282V429.836ZM1230.17 356.775L1194.5 392.448V356.775H1230.17ZM1231.11 283.164V210.169L1267.17 174.108V319.777L1231.11 355.838V283.392L1231.22 283.28L1231.11 283.167V283.164ZM1340.01 99.9486H1267.56L1231.5 63.8875H1303.95L1340.01 99.9486ZM1487.23 63.8875H1559.68L1523.61 99.9486H1451.17L1487.23 63.8875ZM1670.06 393.388L1706.12 429.449H1633.67L1597.61 393.388H1670.06ZM1633.17 429.723L1596.84 466.059H1560.61V393.385H1596.84L1633.17 429.72V429.723ZM1669.9 612.892V648.728L1597.61 576.444H1669.9V612.667L1669.79 612.78L1669.9 612.892ZM1523.84 575.892L1487.51 539.557L1523.84 503.221H1560.07V575.895H1523.84V575.892ZM1487 539.282H1414.56L1450.62 503.221H1523.06L1487 539.282ZM1194.34 612.505L1158.28 576.444H1303.4L1267.33 612.505H1194.34ZM1230.56 503.608V575.892H1158.28L1230.56 503.608ZM1450.78 100.885L1486.45 136.559H1450.78V100.885ZM1596.83 100.498L1632.9 136.559H1487.78L1523.84 100.498H1596.83ZM1669.9 210.169V283.164L1633.84 319.225V173.556L1669.9 137.495V209.941L1669.78 210.054L1669.9 210.166V210.169ZM1524.39 502.669L1560.06 466.995V502.669H1524.39ZM1377.94 502.669L1414 466.608H1450.78H1559.68L1523.61 502.669H1377.94ZM1304.33 575.892V540.218L1340.01 575.892H1304.33ZM1340.39 576.441V612.115L1304.72 576.441H1340.39ZM1303.78 575.892H1231.11V539.669L1267.44 503.333L1303.78 539.669V575.892H1303.78ZM1304.33 210.169L1340.39 174.108V246.392V319.225L1304.33 283.164V210.169ZM1377.28 137.22L1377.39 137.108H1487L1523.06 173.169H1377.39L1341.33 137.108H1377.17L1377.28 137.22H1377.28ZM1597.22 355.836V283.389L1633.29 247.328V319.774L1597.22 355.836ZM1267.17 502.828L1231.11 538.889V393.769L1267.17 429.83V502.825V502.828ZM1266.79 356.772L1231.11 392.446V356.772H1266.79ZM1231.23 393.107L1267.18 357.159V429.056L1231.23 393.107ZM1340.95 356.223V283.939L1377.01 320V392.995L1340.95 429.056V356.223ZM1376.62 173.166H1340.95V137.492L1376.62 173.166ZM1340.95 173.715H1377.17L1413.51 210.051L1377.17 246.387H1340.95V173.713V173.715ZM1596.68 283.162L1560.62 319.223V210.166L1560.73 210.054L1560.62 209.941V174.105L1596.68 210.166V283.162ZM1596.68 355.836L1560.73 319.887L1596.68 283.939V355.836ZM1560.07 465.669L1524.01 429.608V283.939L1559.96 319.887L1560.07 320V356.223V465.666V465.669ZM1414.01 210.328H1487.01L1523.07 246.389H1487.23L1487.12 246.277L1487.01 246.389H1450.24H1377.95L1414.01 210.328H1414.01ZM1523.46 355.836L1487.4 319.774V247.328L1523.46 283.389V355.836ZM1414.17 283.389L1450.23 247.328V283.162L1450.12 283.274L1450.23 283.387V356.495V392.992L1414.17 429.053V283.384V283.389ZM1449.85 246.939L1414.17 282.612V246.939H1449.85ZM1450.23 393.772V466.056H1377.95L1450.23 393.772ZM1450.78 246.939H1486.46L1450.78 282.612V246.939ZM1486.84 247.326V319.223L1450.9 283.274L1486.84 247.326ZM1487.78 246.939H1523.62L1523.73 247.051L1523.84 246.939H1560.07V319.223L1487.78 246.939H1487.78ZM1524.39 246.389L1560.07 210.715V246.389H1524.39ZM1523.73 246.277L1487.78 210.328H1559.68L1523.73 246.277ZM1413.62 246.939V283.162L1377.28 319.497L1340.95 283.162V246.939H1413.62H1413.62ZM1377.56 320L1413.62 283.939V356.385L1377.56 392.446V320ZM1413.62 357.159V429.605L1377.56 465.666V393.22L1413.62 357.159ZM1377.01 465.666L1341.06 429.718L1377.01 393.769V465.666ZM1376.62 466.053H1340.95V430.379L1376.62 466.053ZM1450.78 356.495V283.936L1486.84 319.997V392.992L1450.78 429.053V356.495ZM1487.39 320.546L1523.45 356.607V429.053L1487.39 392.992V320.546ZM1560.07 137.102V209.386L1487.78 137.102H1560.07ZM1559.68 209.776H1487.23L1451.17 173.715H1523.62L1559.68 209.776ZM1450.4 173.715L1486.46 209.776H1414.01L1377.95 173.715H1450.4ZM1450.78 429.833L1487.12 393.497L1523.45 429.833V466.056H1450.78V429.833H1450.78ZM1524.01 430.382L1559.68 466.056H1524.01V430.382ZM1560.62 320.549L1596.29 356.223H1560.62V320.549ZM1633.29 246.549L1597.23 282.61V210.164L1633.29 174.103V246.549ZM1596.96 209.664L1560.62 173.328V137.105H1633.29V173.328L1596.96 209.664H1596.96ZM1340.4 172.779L1304.73 137.105H1340.4V172.779ZM1304.34 137.495L1340.29 173.444L1304.34 209.392V137.495ZM1267.73 502.828V430.382L1303.79 466.443V538.889L1267.73 502.828ZM1303.79 465.669L1267.73 429.608V357.162L1303.79 393.223V465.669ZM1268.12 356.772H1340.4V429.056L1268.12 356.772ZM1377.17 466.605L1377.29 466.718L1377.4 466.605H1413.23L1340.95 538.889V466.605H1377.17H1377.17ZM1597.62 356.223L1669.9 283.939V356.223H1597.62ZM1633.84 172.779V137.105H1669.52L1633.84 172.779ZM1487.12 136.443L1451.18 100.495H1523.07L1487.12 136.443ZM1304.73 136.556L1340.4 100.882V136.556H1304.73ZM1304.07 136.443L1268.12 100.495H1340.02L1304.07 136.443ZM1303.41 137.105L1231.12 209.389V137.105H1303.41ZM1303.79 137.492V209.938L1267.73 245.999V173.553L1303.79 137.492ZM1267.73 246.777L1303.79 210.715V283.162L1267.73 319.223V246.777ZM1304.07 283.661L1340.4 319.997V356.22H1267.73V319.997L1304.07 283.661H1304.07ZM1267.18 356.22H1231.51L1267.18 320.546V356.22ZM1304.07 576.548L1340.02 612.497H1268.12L1304.07 576.548ZM1304.34 539.436V393.769L1340.29 429.718L1340.4 429.83V466.602V539.436L1340.29 539.548L1340.4 539.661V575.497L1304.34 539.436ZM1341.34 539.274L1377.41 503.213H1449.85L1413.79 539.274H1341.34ZM1413.24 539.823L1377.29 575.771L1341.34 539.823H1413.24ZM1560.63 575.884V503.6L1632.91 575.884H1560.63ZM1561.01 503.21H1633.46L1669.52 539.271H1597.07L1561.01 503.21ZM1561.01 502.661L1596.96 466.712L1632.91 502.661H1561.01ZM1560.63 502.274V466.6H1596.3L1560.63 502.274ZM1560.63 392.827V357.154L1596.3 392.827H1560.63ZM1669.9 63.3356H1634.22L1669.9 27.6617V63.3356ZM1669.9 63.8848V136.559H1633.67L1597.34 100.223L1633.67 63.8875H1669.9V63.8848ZM1596.83 99.9458H1524.39L1560.45 63.8848H1632.9L1596.83 99.9458ZM1340.94 136.556V100.882L1376.62 136.556H1340.94ZM1230.72 63.8848L1266.78 99.9458H1194.34L1158.28 63.8848H1230.72ZM1194.34 100.495H1267.33L1303.39 136.556H1158.28L1194.34 100.495ZM1230.56 357.162V392.998L1230.45 393.11L1230.56 393.223V502.828L1194.5 538.889V393.22L1230.56 357.159V357.162ZM1193.95 466.995V539.441L1157.89 575.502V503.056L1193.95 466.995ZM1157.34 575.502L1121.39 539.557L1157.34 503.608V575.505L1157.34 575.502ZM1193.84 612.777L1157.5 649.112H1121.27V576.439H1157.5L1193.83 612.774L1193.84 612.777ZM1194.34 613.051H1266.79L1230.72 649.112H1158.28L1194.34 613.051H1194.34ZM1340.95 540.218L1376.62 575.892H1340.95V540.218ZM1450.78 576.828L1486.45 612.502H1450.78V576.828ZM1451.17 576.441H1560.07H1596.84L1632.9 612.502H1487.23L1451.17 576.441H1451.17ZM1561 613.051H1633.45L1669.51 649.112H1597.06L1561 613.051ZM1669.51 649.662L1633.56 685.61L1597.61 649.662H1669.51ZM1706.9 575.889L1706.78 575.777L1706.67 575.889H1633.68L1597.61 539.828H1743.29L1779.35 575.889H1706.9H1706.9ZM1670.29 539.279L1634.23 503.218H1706.67L1742.73 539.279H1670.29ZM1706.67 502.669H1633.68L1597.61 466.608H1742.73L1706.67 502.669ZM1597.61 466.059L1633.68 429.998H1706.67L1742.73 466.059H1597.61H1597.61ZM1707.45 429.998H1779.35L1743.4 465.946L1707.45 429.998ZM1706.9 429.449L1670.84 393.388H1743.29L1779.35 429.449H1706.9ZM1597.07 392.838L1561 356.777H1596.84L1596.95 356.89L1597.07 356.777H1706.67L1742.73 392.838H1597.07ZM1633.45 63.3384H1487.78L1523.84 27.2746H1669.51L1633.45 63.3356L1633.45 63.3384ZM1523.06 27.2746L1450.78 99.5586V27.2746H1523.06ZM1450.23 100.108L1450.12 100.22L1450.23 100.333V136.556H1377.94L1450.23 64.2719V100.108ZM1413.62 27.6617V100.108L1377.56 136.169V63.7255L1413.62 27.6617ZM1377.01 64.2719V136.169L1341.06 100.22L1377.01 64.2719ZM1340.39 27.2746V99.5586L1268.11 27.2746H1340.39ZM1267.33 27.2746L1303.39 63.3356H1157.73L1121.66 27.2746H1267.33H1267.33ZM1156.95 63.3356H1121.27V27.6617L1156.95 63.3356ZM1121.27 63.8848H1157.5L1193.83 100.22L1157.5 136.556H1121.27V63.8848ZM1230.56 137.495V173.169H1194.89L1230.56 137.495ZM1194.34 173.718H1230.56V246.392H1194.34L1194.22 246.28L1158 210.056L1194.34 173.721V173.718ZM1230.56 246.941V282.615L1194.89 246.941H1230.56ZM1194.22 247.054L1230.17 283.002H1158.28L1194.22 247.054ZM1121.66 319.615L1157.72 283.554H1230.17L1194.11 319.615H1121.66ZM1230.56 283.941V356.225H1158.28L1230.56 283.941ZM1193.95 356.775V392.998L1157.61 429.333L1121.27 392.998V356.775H1193.95ZM1121.27 393.775L1157.34 429.836V502.831L1121.27 538.892V393.772V393.775ZM1156.95 575.892H1121.27V540.218L1156.95 575.892ZM1121.27 649.664H1156.95L1121.27 685.338V649.664ZM1157.73 649.664H1303.39L1267.33 685.725H1121.66L1157.72 649.664H1157.73ZM1268.11 685.725L1340.39 613.441V685.725H1268.11ZM1377.28 649L1341.06 612.777L1340.95 612.664V576.441H1377.17L1377.28 576.554L1377.39 576.441H1413.62V612.664L1377.28 649ZM1414.17 576.441H1449.84L1414.17 612.115V576.441ZM1450.78 613.051H1487L1523.34 649.387L1487 685.723H1450.78V613.049V613.051ZM1487.78 685.725L1523.84 649.664H1596.83L1632.9 685.725H1487.78H1487.78ZM1634.22 685.725L1669.9 650.052V685.725H1634.22ZM1670.45 576.441H1706.12L1670.45 612.115V576.441ZM1670.56 612.777L1706.51 576.828V648.725L1670.56 612.777ZM1743.12 685.336L1707.06 649.274V576.828L1743.12 612.889V685.336ZM1779.73 648.725L1707.44 576.441H1779.73V648.725ZM1779.73 575.505L1744.05 539.831H1779.73V575.505ZM1743.5 539.282L1707.17 502.946L1743.5 466.611H1779.73V539.285H1743.5V539.282ZM1779.73 466.059H1744.05L1779.73 430.385V466.059ZM1707.44 356.775H1779.73V429.059L1707.44 356.775ZM1670.44 355.836V320.162H1706.12L1670.44 355.836ZM1706.67 319.612H1670.44V246.939H1706.67L1706.78 247.051L1743 283.274L1706.67 319.61V319.612ZM1670.44 246.389V210.715L1706.12 246.389H1670.44ZM1706.78 246.277L1670.83 210.328H1742.73L1706.78 246.277ZM1779.34 173.718L1743.28 209.779H1670.83L1706.89 173.718H1779.34ZM1670.44 209.392V137.108H1742.73L1670.44 209.392Z" fill="url(#paint0_radial_14650_61398)"/>
</g>
<defs>
<radialGradient id="paint0_radial_14650_61398" cx="0" cy="0" r="1" gradientUnits="userSpaceOnUse" gradientTransform="translate(1440.74 356.5) scale(256.676 256.674)">
<stop stop-color="#3A30DC"/>
<stop offset="0.21" stop-color="#3A30DC"/>
<stop offset="0.43" stop-color="#3A30DC"/>
<stop offset="1" stop-color="#3A30DC" stop-opacity="0"/>
</radialGradient>
</defs>
</svg>
