<svg width="1920" height="518" viewBox="0 0 1920 518" fill="none" xmlns="http://www.w3.org/2000/svg">
<mask id="mask0_14374_113771" style="mask-type:alpha" maskUnits="userSpaceOnUse" x="0" y="0" width="1920" height="518">
<rect width="1920" height="518" fill="#0E2145"/>
</mask>
<g mask="url(#mask0_14374_113771)">
<g style="mix-blend-mode:overlay" opacity="0.1">
<rect x="1665" width="110" height="520" fill="url(#paint0_linear_14374_113771)"/>
</g>
<g style="mix-blend-mode:overlay" opacity="0.1">
<rect x="143" width="110" height="520" fill="url(#paint1_linear_14374_113771)"/>
</g>
<g style="mix-blend-mode:overlay" opacity="0.2">
<line y1="29.667" x2="1920" y2="29.667" stroke="url(#paint2_linear_14374_113771)"/>
<line y1="111.5" x2="1920" y2="111.5" stroke="url(#paint3_linear_14374_113771)"/>
</g>
<g style="mix-blend-mode:overlay" opacity="0.2">
<line y1="273.333" x2="1920" y2="273.333" stroke="url(#paint4_linear_14374_113771)"/>
<line y1="191.5" x2="1920" y2="191.5" stroke="url(#paint5_linear_14374_113771)"/>
<line y1="355.167" x2="1920" y2="355.167" stroke="url(#paint6_linear_14374_113771)"/>
<line y1="437" x2="1920" y2="437" stroke="url(#paint7_linear_14374_113771)"/>
</g>
<g style="mix-blend-mode:overlay" opacity="0.2">
<line x1="0.5" y1="-423" x2="0.499958" y2="532" stroke="url(#paint8_linear_14374_113771)"/>
<line x1="240.5" y1="-423" x2="240.5" y2="532" stroke="url(#paint9_linear_14374_113771)"/>
<line x1="480.5" y1="-423" x2="480.5" y2="532" stroke="url(#paint10_linear_14374_113771)"/>
<line x1="720.5" y1="-423" x2="720.5" y2="532" stroke="url(#paint11_linear_14374_113771)"/>
<line x1="960.5" y1="-423" x2="960.5" y2="532" stroke="url(#paint12_linear_14374_113771)"/>
<line x1="1200.5" y1="-423" x2="1200.5" y2="532" stroke="url(#paint13_linear_14374_113771)"/>
<line x1="80.5" y1="-423" x2="80.5" y2="532" stroke="url(#paint14_linear_14374_113771)"/>
<line x1="320.5" y1="-423" x2="320.5" y2="532" stroke="url(#paint15_linear_14374_113771)"/>
<line x1="560.5" y1="-423" x2="560.5" y2="532" stroke="url(#paint16_linear_14374_113771)"/>
<line x1="800.5" y1="-423" x2="800.5" y2="532" stroke="url(#paint17_linear_14374_113771)"/>
<line x1="1040.5" y1="-423" x2="1040.5" y2="532" stroke="url(#paint18_linear_14374_113771)"/>
<line x1="1280.5" y1="-423" x2="1280.5" y2="532" stroke="url(#paint19_linear_14374_113771)"/>
<line x1="160.5" y1="-423" x2="160.5" y2="532" stroke="url(#paint20_linear_14374_113771)"/>
<line x1="400.5" y1="-423" x2="400.5" y2="532" stroke="url(#paint21_linear_14374_113771)"/>
<line x1="640.5" y1="-423" x2="640.5" y2="532" stroke="url(#paint22_linear_14374_113771)"/>
<line x1="880.5" y1="-423" x2="880.5" y2="532" stroke="url(#paint23_linear_14374_113771)"/>
<line x1="1120.5" y1="-423" x2="1120.5" y2="532" stroke="url(#paint24_linear_14374_113771)"/>
<line x1="1360.5" y1="-423" x2="1360.5" y2="532" stroke="url(#paint25_linear_14374_113771)"/>
</g>
<g style="mix-blend-mode:overlay" opacity="0.2">
<line x1="1440.5" y1="-423" x2="1440.5" y2="532" stroke="url(#paint26_linear_14374_113771)"/>
<line x1="1680.5" y1="-423" x2="1680.5" y2="532" stroke="url(#paint27_linear_14374_113771)"/>
<line x1="1520.5" y1="-423" x2="1520.5" y2="532" stroke="url(#paint28_linear_14374_113771)"/>
<line x1="1760.5" y1="-423" x2="1760.5" y2="532" stroke="url(#paint29_linear_14374_113771)"/>
<line x1="1600.5" y1="-423" x2="1600.5" y2="532" stroke="url(#paint30_linear_14374_113771)"/>
<line x1="1840.5" y1="-423" x2="1840.5" y2="532" stroke="url(#paint31_linear_14374_113771)"/>
</g>
<g opacity="0.03" filter="url(#filter0_f_14374_113771)">
<path d="M1999 419C1999 670.29 1795.29 874 1544 874C1292.71 874 1089 670.29 1089 419C1089 167.71 1292.71 -36 1544 -36C1795.29 -36 1999 167.71 1999 419ZM1375.97 419C1375.97 511.801 1451.2 587.032 1544 587.032C1636.8 587.032 1712.03 511.801 1712.03 419C1712.03 326.199 1636.8 250.968 1544 250.968C1451.2 250.968 1375.97 326.199 1375.97 419Z" fill="white"/>
</g>
<g opacity="0.1" filter="url(#filter1_f_14374_113771)">
<path d="M265.91 87.8774C-3.3205 166.803 -285.557 12.5313 -364.483 -256.699C-443.409 -525.929 -289.137 -808.166 -19.9065 -887.092C249.324 -966.018 531.56 -811.746 610.486 -542.515C689.412 -273.285 535.14 8.95142 265.91 87.8774ZM70.2256 -579.635C-29.2012 -550.488 -86.174 -446.258 -57.0266 -346.831C-27.8792 -247.404 76.3509 -190.432 175.778 -219.579C275.205 -248.726 332.177 -352.956 303.03 -452.383C273.883 -551.81 169.652 -608.783 70.2256 -579.635Z" fill="white"/>
</g>
<g opacity="0.05" filter="url(#filter2_f_14374_113771)">
<path d="M467 633C467 913.561 239.561 1141 -41 1141C-321.561 1141 -549 913.561 -549 633C-549 352.439 -321.561 125 -41 125C239.561 125 467 352.439 467 633ZM-228.605 633C-228.605 736.611 -144.611 820.605 -41 820.605C62.6111 820.605 146.605 736.611 146.605 633C146.605 529.389 62.6111 445.395 -41 445.395C-144.611 445.395 -228.605 529.389 -228.605 633Z" fill="white"/>
</g>
</g>
<defs>
<filter id="filter0_f_14374_113771" x="689" y="-436" width="1710" height="1710" filterUnits="userSpaceOnUse" color-interpolation-filters="sRGB">
<feFlood flood-opacity="0" result="BackgroundImageFix"/>
<feBlend mode="normal" in="SourceGraphic" in2="BackgroundImageFix" result="shape"/>
<feGaussianBlur stdDeviation="200" result="effect1_foregroundBlur_14374_113771"/>
</filter>
<filter id="filter1_f_14374_113771" x="-785.129" y="-1307.74" width="1816.26" height="1816.26" filterUnits="userSpaceOnUse" color-interpolation-filters="sRGB">
<feFlood flood-opacity="0" result="BackgroundImageFix"/>
<feBlend mode="normal" in="SourceGraphic" in2="BackgroundImageFix" result="shape"/>
<feGaussianBlur stdDeviation="200" result="effect1_foregroundBlur_14374_113771"/>
</filter>
<filter id="filter2_f_14374_113771" x="-949" y="-275" width="1816" height="1816" filterUnits="userSpaceOnUse" color-interpolation-filters="sRGB">
<feFlood flood-opacity="0" result="BackgroundImageFix"/>
<feBlend mode="normal" in="SourceGraphic" in2="BackgroundImageFix" result="shape"/>
<feGaussianBlur stdDeviation="200" result="effect1_foregroundBlur_14374_113771"/>
</filter>
<linearGradient id="paint0_linear_14374_113771" x1="1720" y1="0" x2="1720" y2="520" gradientUnits="userSpaceOnUse">
<stop stop-color="white"/>
<stop offset="1" stop-color="white" stop-opacity="0"/>
</linearGradient>
<linearGradient id="paint1_linear_14374_113771" x1="198" y1="0" x2="198" y2="520" gradientUnits="userSpaceOnUse">
<stop stop-color="white"/>
<stop offset="1" stop-color="white" stop-opacity="0"/>
</linearGradient>
<linearGradient id="paint2_linear_14374_113771" x1="0" y1="30.667" x2="1920" y2="30.667" gradientUnits="userSpaceOnUse">
<stop stop-color="white" stop-opacity="0"/>
<stop offset="0.5" stop-color="white"/>
<stop offset="1" stop-color="white" stop-opacity="0"/>
</linearGradient>
<linearGradient id="paint3_linear_14374_113771" x1="0" y1="112.5" x2="1920" y2="112.5" gradientUnits="userSpaceOnUse">
<stop stop-color="white" stop-opacity="0"/>
<stop offset="0.5" stop-color="white"/>
<stop offset="1" stop-color="white" stop-opacity="0"/>
</linearGradient>
<linearGradient id="paint4_linear_14374_113771" x1="0" y1="274.333" x2="1920" y2="274.333" gradientUnits="userSpaceOnUse">
<stop stop-color="white" stop-opacity="0"/>
<stop offset="0.5" stop-color="white"/>
<stop offset="1" stop-color="white" stop-opacity="0"/>
</linearGradient>
<linearGradient id="paint5_linear_14374_113771" x1="0" y1="192.5" x2="1920" y2="192.5" gradientUnits="userSpaceOnUse">
<stop stop-color="white" stop-opacity="0"/>
<stop offset="0.5" stop-color="white"/>
<stop offset="1" stop-color="white" stop-opacity="0"/>
</linearGradient>
<linearGradient id="paint6_linear_14374_113771" x1="0" y1="356.167" x2="1920" y2="356.167" gradientUnits="userSpaceOnUse">
<stop stop-color="white" stop-opacity="0"/>
<stop offset="0.5" stop-color="white"/>
<stop offset="1" stop-color="white" stop-opacity="0"/>
</linearGradient>
<linearGradient id="paint7_linear_14374_113771" x1="0" y1="438" x2="1920" y2="438" gradientUnits="userSpaceOnUse">
<stop stop-color="white" stop-opacity="0"/>
<stop offset="0.5" stop-color="white"/>
<stop offset="1" stop-color="white" stop-opacity="0"/>
</linearGradient>
<linearGradient id="paint8_linear_14374_113771" x1="-0.5" y1="-423" x2="-0.500042" y2="532" gradientUnits="userSpaceOnUse">
<stop stop-color="white" stop-opacity="0"/>
<stop offset="0.5" stop-color="white"/>
<stop offset="1" stop-color="white" stop-opacity="0"/>
</linearGradient>
<linearGradient id="paint9_linear_14374_113771" x1="239.5" y1="-423" x2="239.5" y2="532" gradientUnits="userSpaceOnUse">
<stop stop-color="white" stop-opacity="0"/>
<stop offset="0.5" stop-color="white"/>
<stop offset="1" stop-color="white" stop-opacity="0"/>
</linearGradient>
<linearGradient id="paint10_linear_14374_113771" x1="479.5" y1="-423" x2="479.5" y2="532" gradientUnits="userSpaceOnUse">
<stop stop-color="white" stop-opacity="0"/>
<stop offset="0.5" stop-color="white"/>
<stop offset="1" stop-color="white" stop-opacity="0"/>
</linearGradient>
<linearGradient id="paint11_linear_14374_113771" x1="719.5" y1="-423" x2="719.5" y2="532" gradientUnits="userSpaceOnUse">
<stop stop-color="white" stop-opacity="0"/>
<stop offset="0.5" stop-color="white"/>
<stop offset="1" stop-color="white" stop-opacity="0"/>
</linearGradient>
<linearGradient id="paint12_linear_14374_113771" x1="959.5" y1="-423" x2="959.5" y2="532" gradientUnits="userSpaceOnUse">
<stop stop-color="white" stop-opacity="0"/>
<stop offset="0.5" stop-color="white"/>
<stop offset="1" stop-color="white" stop-opacity="0"/>
</linearGradient>
<linearGradient id="paint13_linear_14374_113771" x1="1199.5" y1="-423" x2="1199.5" y2="532" gradientUnits="userSpaceOnUse">
<stop stop-color="white" stop-opacity="0"/>
<stop offset="0.5" stop-color="white"/>
<stop offset="1" stop-color="white" stop-opacity="0"/>
</linearGradient>
<linearGradient id="paint14_linear_14374_113771" x1="79.5" y1="-423" x2="79.5" y2="532" gradientUnits="userSpaceOnUse">
<stop stop-color="white" stop-opacity="0"/>
<stop offset="0.5" stop-color="white"/>
<stop offset="1" stop-color="white" stop-opacity="0"/>
</linearGradient>
<linearGradient id="paint15_linear_14374_113771" x1="319.5" y1="-423" x2="319.5" y2="532" gradientUnits="userSpaceOnUse">
<stop stop-color="white" stop-opacity="0"/>
<stop offset="0.5" stop-color="white"/>
<stop offset="1" stop-color="white" stop-opacity="0"/>
</linearGradient>
<linearGradient id="paint16_linear_14374_113771" x1="559.5" y1="-423" x2="559.5" y2="532" gradientUnits="userSpaceOnUse">
<stop stop-color="white" stop-opacity="0"/>
<stop offset="0.5" stop-color="white"/>
<stop offset="1" stop-color="white" stop-opacity="0"/>
</linearGradient>
<linearGradient id="paint17_linear_14374_113771" x1="799.5" y1="-423" x2="799.5" y2="532" gradientUnits="userSpaceOnUse">
<stop stop-color="white" stop-opacity="0"/>
<stop offset="0.5" stop-color="white"/>
<stop offset="1" stop-color="white" stop-opacity="0"/>
</linearGradient>
<linearGradient id="paint18_linear_14374_113771" x1="1039.5" y1="-423" x2="1039.5" y2="532" gradientUnits="userSpaceOnUse">
<stop stop-color="white" stop-opacity="0"/>
<stop offset="0.5" stop-color="white"/>
<stop offset="1" stop-color="white" stop-opacity="0"/>
</linearGradient>
<linearGradient id="paint19_linear_14374_113771" x1="1279.5" y1="-423" x2="1279.5" y2="532" gradientUnits="userSpaceOnUse">
<stop stop-color="white" stop-opacity="0"/>
<stop offset="0.5" stop-color="white"/>
<stop offset="1" stop-color="white" stop-opacity="0"/>
</linearGradient>
<linearGradient id="paint20_linear_14374_113771" x1="159.5" y1="-423" x2="159.5" y2="532" gradientUnits="userSpaceOnUse">
<stop stop-color="white" stop-opacity="0"/>
<stop offset="0.5" stop-color="white"/>
<stop offset="1" stop-color="white" stop-opacity="0"/>
</linearGradient>
<linearGradient id="paint21_linear_14374_113771" x1="399.5" y1="-423" x2="399.5" y2="532" gradientUnits="userSpaceOnUse">
<stop stop-color="white" stop-opacity="0"/>
<stop offset="0.5" stop-color="white"/>
<stop offset="1" stop-color="white" stop-opacity="0"/>
</linearGradient>
<linearGradient id="paint22_linear_14374_113771" x1="639.5" y1="-423" x2="639.5" y2="532" gradientUnits="userSpaceOnUse">
<stop stop-color="white" stop-opacity="0"/>
<stop offset="0.5" stop-color="white"/>
<stop offset="1" stop-color="white" stop-opacity="0"/>
</linearGradient>
<linearGradient id="paint23_linear_14374_113771" x1="879.5" y1="-423" x2="879.5" y2="532" gradientUnits="userSpaceOnUse">
<stop stop-color="white" stop-opacity="0"/>
<stop offset="0.5" stop-color="white"/>
<stop offset="1" stop-color="white" stop-opacity="0"/>
</linearGradient>
<linearGradient id="paint24_linear_14374_113771" x1="1119.5" y1="-423" x2="1119.5" y2="532" gradientUnits="userSpaceOnUse">
<stop stop-color="white" stop-opacity="0"/>
<stop offset="0.5" stop-color="white"/>
<stop offset="1" stop-color="white" stop-opacity="0"/>
</linearGradient>
<linearGradient id="paint25_linear_14374_113771" x1="1359.5" y1="-423" x2="1359.5" y2="532" gradientUnits="userSpaceOnUse">
<stop stop-color="white" stop-opacity="0"/>
<stop offset="0.5" stop-color="white"/>
<stop offset="1" stop-color="white" stop-opacity="0"/>
</linearGradient>
<linearGradient id="paint26_linear_14374_113771" x1="1439.5" y1="-423" x2="1439.5" y2="532" gradientUnits="userSpaceOnUse">
<stop stop-color="white" stop-opacity="0"/>
<stop offset="0.5" stop-color="white"/>
<stop offset="1" stop-color="white" stop-opacity="0"/>
</linearGradient>
<linearGradient id="paint27_linear_14374_113771" x1="1679.5" y1="-423" x2="1679.5" y2="532" gradientUnits="userSpaceOnUse">
<stop stop-color="white" stop-opacity="0"/>
<stop offset="0.5" stop-color="white"/>
<stop offset="1" stop-color="white" stop-opacity="0"/>
</linearGradient>
<linearGradient id="paint28_linear_14374_113771" x1="1519.5" y1="-423" x2="1519.5" y2="532" gradientUnits="userSpaceOnUse">
<stop stop-color="white" stop-opacity="0"/>
<stop offset="0.5" stop-color="white"/>
<stop offset="1" stop-color="white" stop-opacity="0"/>
</linearGradient>
<linearGradient id="paint29_linear_14374_113771" x1="1759.5" y1="-423" x2="1759.5" y2="532" gradientUnits="userSpaceOnUse">
<stop stop-color="white" stop-opacity="0"/>
<stop offset="0.5" stop-color="white"/>
<stop offset="1" stop-color="white" stop-opacity="0"/>
</linearGradient>
<linearGradient id="paint30_linear_14374_113771" x1="1599.5" y1="-423" x2="1599.5" y2="532" gradientUnits="userSpaceOnUse">
<stop stop-color="white" stop-opacity="0"/>
<stop offset="0.5" stop-color="white"/>
<stop offset="1" stop-color="white" stop-opacity="0"/>
</linearGradient>
<linearGradient id="paint31_linear_14374_113771" x1="1839.5" y1="-423" x2="1839.5" y2="532" gradientUnits="userSpaceOnUse">
<stop stop-color="white" stop-opacity="0"/>
<stop offset="0.5" stop-color="white"/>
<stop offset="1" stop-color="white" stop-opacity="0"/>
</linearGradient>
</defs>
</svg>
