<svg width="24" height="24" viewBox="0 0 24 24" fill="none" xmlns="http://www.w3.org/2000/svg">
<g clip-path="url(#clip0_359_2202)">
<path d="M11.23 0H12.7217C15.225 0.173333 17.6767 1.115 19.6117 2.72C22.19 4.81333 23.8067 8.015 24 11.3267V12.63C23.8483 15.2417 22.8383 17.8 21.1283 19.7817C19.05 22.26 15.93 23.7833 12.7117 24H11.3317C8.815 23.8317 6.34167 22.895 4.39833 21.2767C1.835 19.2083 0.24 16.0433 0 12.7683V11.2933C0.216667 7.95333 1.86 4.725 4.48833 2.64333C6.39167 1.09 8.78667 0.188333 11.23 0V0ZM11.045 1.54833C7.32667 1.84 3.89 4.31333 2.40667 7.73333C1.52 9.69167 1.31667 11.9217 1.7 14.0283C2.28 17.0383 4.25167 19.7433 6.95167 21.2017C9.12667 22.415 11.735 22.7633 14.1667 22.2717C16.8867 21.7033 19.355 20.0117 20.8417 17.66C22.4317 15.2217 22.8817 12.11 22.1483 9.305C21.465 6.67333 19.705 4.35 17.3617 2.97167C15.4783 1.83333 13.235 1.35667 11.045 1.54833V1.54833Z" fill="black"/>
<path d="M6.70504 8.52664C7.88004 7.89497 9.47837 8.37164 10.1334 9.52997C10.47 10.0383 10.4867 10.66 10.4817 11.2483C10.2484 11.2466 10.015 11.2466 9.78004 11.245C9.72004 10.3083 8.99504 9.40497 8.0167 9.37831C6.95337 9.24997 6.0067 10.1966 5.9867 11.2366C5.7367 11.24 5.48504 11.2433 5.23504 11.2483C5.15504 10.16 5.67837 8.99497 6.70504 8.52664V8.52664Z" fill="black"/>
<path d="M14.3982 8.8966C15.4665 7.89993 17.3449 8.0916 18.2065 9.2666C18.6549 9.82327 18.7865 10.5499 18.7632 11.2483C18.5149 11.2433 18.2649 11.2399 18.0149 11.2366C17.9532 10.7899 17.8515 10.3216 17.5165 9.99327C16.9232 9.28827 15.7815 9.1616 15.0449 9.7116C14.5315 10.0483 14.3032 10.6599 14.2215 11.2466C13.9849 11.2466 13.7482 11.2466 13.5115 11.2466C13.4532 10.3799 13.7049 9.46327 14.3982 8.8966V8.8966Z" fill="black"/>
<path d="M6.78816 15.67C6.61982 15.2184 7.01982 14.6684 7.50482 14.7101C8.04149 14.7201 8.26316 15.3134 8.58149 15.6567C10.2115 17.7617 13.7832 17.7551 15.4098 15.6517C15.6482 15.3534 15.8598 15.025 16.1548 14.7784C16.5898 14.5617 17.1315 14.8467 17.2365 15.3134C17.2815 15.755 16.9615 16.1134 16.7332 16.4584C15.7098 17.7567 14.1265 18.5717 12.4882 18.7317C10.5148 18.8934 8.49482 18.0017 7.25982 16.4617C7.07982 16.2117 6.89816 15.9584 6.78816 15.67V15.67Z" fill="black"/>
<path d="M11.0452 1.54832C13.2352 1.35666 15.4786 1.83332 17.3619 2.97166C19.7052 4.34999 21.4652 6.67333 22.1486 9.30499C22.8819 12.11 22.4319 15.2217 20.8419 17.66C19.3552 20.0117 16.8869 21.7033 14.1669 22.2717C11.7352 22.7633 9.1269 22.415 6.9519 21.2017C4.2519 19.7433 2.28024 17.0383 1.70024 14.0283C1.31691 11.9217 1.52024 9.69166 2.40691 7.73332C3.89024 4.31333 7.3269 1.83999 11.0452 1.54832V1.54832ZM6.70524 8.52666C5.67857 8.99499 5.15524 10.16 5.23524 11.2483C5.48524 11.2433 5.7369 11.24 5.9869 11.2367C6.0069 10.1967 6.95357 9.24999 8.0169 9.37832C8.99524 9.40499 9.72024 10.3083 9.78024 11.245C10.0152 11.2467 10.2486 11.2467 10.4819 11.2483C10.4869 10.66 10.4702 10.0383 10.1336 9.52999C9.47857 8.37166 7.88024 7.89499 6.70524 8.52666ZM14.3986 8.89666C13.7052 9.46332 13.4536 10.38 13.5119 11.2467H14.2219C14.3036 10.66 14.5319 10.0483 15.0452 9.71166C15.7819 9.16166 16.9236 9.28832 17.5169 9.99332C17.8519 10.3217 17.9536 10.79 18.0152 11.2367C18.2652 11.24 18.5152 11.2433 18.7636 11.2483C18.7869 10.55 18.6552 9.82332 18.2069 9.26666C17.3452 8.09166 15.4669 7.89999 14.3986 8.89666V8.89666ZM5.24857 12.5833C4.26857 13.4067 4.2619 15.0917 5.2469 15.9133C5.77857 16.4383 6.55024 16.5267 7.26024 16.4617C8.49524 18.0017 10.5152 18.8933 12.4886 18.7317C14.1269 18.5717 15.7102 17.7567 16.7336 16.4583C17.4019 16.515 18.1302 16.465 18.6569 15.9983C19.6969 15.23 19.7736 13.5333 18.8336 12.6567C17.9552 11.7267 16.2802 11.815 15.5069 12.8367C14.8186 13.6183 14.9202 14.7933 15.4102 15.6517C13.7836 17.755 10.2119 17.7617 8.5819 15.6567C9.01857 14.86 9.17524 13.8167 8.63024 13.03C7.95024 11.8833 6.20357 11.6617 5.24857 12.5833V12.5833Z" fill="#FFC83D"/>
<path d="M5.24797 12.5834C6.20297 11.6617 7.94963 11.8834 8.62963 13.0301C9.17463 13.8167 9.01797 14.8601 8.5813 15.6567C8.26297 15.3134 8.0413 14.7201 7.50463 14.7101C7.01963 14.6684 6.61963 15.2184 6.78797 15.6701C6.89797 15.9584 7.07963 16.2117 7.25963 16.4617C6.54963 16.5267 5.77797 16.4384 5.2463 15.9134C4.2613 15.0917 4.26797 13.4067 5.24797 12.5834V12.5834Z" fill="#F7894A"/>
<path d="M15.5063 12.8368C16.2797 11.8151 17.9547 11.7268 18.833 12.6568C19.773 13.5335 19.6963 15.2301 18.6563 15.9985C18.1297 16.4651 17.4013 16.5151 16.733 16.4585C16.9613 16.1135 17.2813 15.7551 17.2363 15.3135C17.1313 14.8468 16.5897 14.5618 16.1547 14.7785C15.8597 15.0251 15.648 15.3535 15.4097 15.6518C14.9197 14.7935 14.818 13.6185 15.5063 12.8368Z" fill="#F7894A"/>
</g>
<defs>
<clipPath id="clip0_359_2202">
<rect width="24" height="24" fill="white"/>
</clipPath>
</defs>
</svg>
