<svg width="24" height="24" viewBox="0 0 24 24" fill="none" xmlns="http://www.w3.org/2000/svg">
<g clip-path="url(#clip0_359_2211)">
<path d="M8.15 0H10.875C12.1033 0.171667 13.2083 1.13833 13.4317 2.37333C13.5533 3.63667 13.5217 4.91 13.47 6.17667C13.4467 7.27333 12.4267 8.225 11.3417 8.24333C10.555 8.26833 9.76667 8.23667 8.97833 8.25667C8.97667 10.0117 8.97 11.7667 8.98167 13.5217C10.2333 12.3217 11.355 10.88 13.0017 10.1967C14.4217 9.575 16.0017 9.77833 17.5067 9.745C19.08 9.71333 20.6517 10.2917 21.8317 11.3317C23.0683 12.405 23.835 13.9733 24 15.5967V16.6117C23.845 18.99 22.2117 21.1033 20.05 22.0383C17.655 23.0333 15.14 23.84 12.535 24H11.2967C8.02667 23.775 4.95167 22.46 2.13 20.8633C1.07333 20.245 0.121667 19.245 0 17.9717V17.3083C0.985 13.415 2.065 9.545 3.08833 5.66167C3.39333 4.595 3.57167 3.46667 4.16667 2.51C5.00833 1.11 6.52333 0.15 8.15 0V0ZM8.09 1.54333C6.61167 1.70833 5.375 2.905 5.00167 4.32C3.86333 8.555 2.735 12.7933 1.6 17.0283C1.44167 17.6483 1.49333 18.385 1.97833 18.8517C2.86333 19.715 4.025 20.1967 5.12 20.7267C7.625 21.9067 10.3967 22.715 13.19 22.4267C15.3617 22.1583 17.4917 21.55 19.4817 20.645C20.325 20.275 21.0883 19.6983 21.6067 18.9317C22.7233 17.3883 22.7883 15.1667 21.7733 13.5583C20.94 12.205 19.42 11.2933 17.825 11.2533C16.995 11.2367 16.1633 11.245 15.3317 11.2483C14.1267 11.25 12.935 11.7383 12.065 12.57C10.89 13.725 9.78 14.9467 8.595 16.0883C7.995 16.3767 7.395 15.8167 7.48833 15.2C7.535 12.3817 7.49 9.56333 7.52167 6.74333C8.85167 6.72333 10.1867 6.79 11.5133 6.71333C12.135 6.49 11.9583 5.75333 11.9867 5.24667C11.9783 4.97667 11.9717 4.70667 11.965 4.43667L12.0417 4.43167C11.955 3.90333 11.9933 3.36667 11.9683 2.835C11.9383 2.09167 11.2317 1.50667 10.5067 1.49667C9.70333 1.46 8.89167 1.44667 8.09 1.54333V1.54333Z" fill="black"/>
<path d="M8.0897 1.54313C8.89137 1.44646 9.70304 1.4598 10.5064 1.49646C11.2314 1.50646 11.938 2.09146 11.968 2.8348C11.993 3.36646 11.9547 3.90313 12.0414 4.43146L11.9647 4.43647C11.2414 4.5048 10.5147 4.4798 9.7897 4.4698C9.7197 4.05813 9.7247 3.5698 9.36637 3.2848C8.7947 2.74146 7.6647 3.05646 7.54304 3.8648C7.3847 4.4798 7.83304 5.1798 8.48137 5.2248C9.64804 5.28146 10.818 5.22646 11.9864 5.24646C11.958 5.75313 12.1347 6.4898 11.513 6.71313C10.1864 6.7898 8.85137 6.72313 7.52137 6.74313C7.4897 9.56313 7.5347 12.3815 7.48804 15.1998C7.3947 15.8165 7.9947 16.3765 8.5947 16.0881C9.7797 14.9465 10.8897 13.7248 12.0647 12.5698C12.9347 11.7381 14.1264 11.2498 15.3314 11.2481C16.163 11.2448 16.9947 11.2365 17.8247 11.2531C19.4197 11.2931 20.9397 12.2048 21.773 13.5581C22.788 15.1665 22.723 17.3881 21.6064 18.9315C21.088 19.6981 20.3247 20.2748 19.4814 20.6448C17.4914 21.5498 15.3614 22.1581 13.1897 22.4265C10.3964 22.7148 7.6247 21.9065 5.1197 20.7265C4.0247 20.1965 2.86304 19.7148 1.97804 18.8515C1.49304 18.3848 1.44137 17.6481 1.5997 17.0281C2.7347 12.7931 3.86304 8.5548 5.00137 4.3198C5.3747 2.9048 6.61137 1.70813 8.0897 1.54313V1.54313ZM18.0914 15.0598C17.973 15.5998 17.9514 16.1781 17.658 16.6631C17.2297 17.4265 16.393 17.9765 15.5047 17.9731C14.3347 17.9881 13.1647 17.9681 11.9947 17.9748C11.748 17.9681 11.4964 18.0148 11.283 18.1448C11.1647 18.4148 11.3214 18.7765 11.6497 18.7415C12.9297 18.7581 14.2097 18.7515 15.4897 18.7448C17.2597 18.7331 18.8497 17.0915 18.7364 15.3131C18.7447 14.9681 18.313 15.0448 18.0914 15.0598V15.0598Z" fill="#FFC83D"/>
<path d="M7.54319 3.8648C7.66486 3.05646 8.79486 2.74146 9.36653 3.2848C9.72486 3.5698 9.71986 4.05813 9.78986 4.4698C10.5149 4.4798 11.2415 4.5048 11.9649 4.43646C11.9715 4.70646 11.9782 4.97646 11.9865 5.24646C10.8182 5.22646 9.64819 5.28146 8.48153 5.2248C7.83319 5.1798 7.38486 4.4798 7.54319 3.8648V3.8648Z" fill="#D48C00"/>
<path d="M18.0913 15.0599C18.3129 15.0449 18.7446 14.9683 18.7363 15.3133C18.8496 17.0916 17.2596 18.7333 15.4896 18.7449C14.2096 18.7516 12.9296 18.7583 11.6496 18.7416C11.3213 18.7766 11.1646 18.4149 11.2829 18.1449C11.4963 18.0149 11.7479 17.9683 11.9946 17.9749C13.1646 17.9683 14.3346 17.9883 15.5046 17.9733C16.3929 17.9766 17.2296 17.4266 17.6579 16.6633C17.9513 16.1783 17.9729 15.5999 18.0913 15.0599Z" fill="#D48C00"/>
</g>
<defs>
<clipPath id="clip0_359_2211">
<rect width="24" height="24" fill="white"/>
</clipPath>
</defs>
</svg>
