<svg width="1464" height="192" viewBox="0 0 1464 192" fill="none" xmlns="http://www.w3.org/2000/svg">
<mask id="mask0_14511_45761" style="mask-type:alpha" maskUnits="userSpaceOnUse" x="0" y="0" width="1464" height="192">
<rect width="1464" height="192" fill="#212237"/>
</mask>
<g mask="url(#mask0_14511_45761)">
<path opacity="0.1" d="M1191.25 112.21C1159.2 -1.91887 1280.69 -26.2205 1369.46 11.4844C1424.77 33.195 1464.6 -21.4371 1527.63 1.30059C1601.3 27.8894 1527.25 95.3699 1621.39 135.691C1717.19 177.612 1679.44 348.519 1582.39 350.218C1489.16 351.916 1515.21 385.272 1426.42 445.786C1337.62 506.301 1195.32 421.045 1226.97 320.831C1258.63 231.233 1227.59 240.649 1191.25 112.21Z" stroke="url(#paint0_linear_14511_45761)" stroke-width="2.5"/>
<path opacity="0.05" d="M157.202 114.829C191.031 228.445 69.9289 254.637 -19.4128 218.32C-75.0533 197.474 -114.026 252.72 -177.401 230.967C-251.485 205.53 -178.492 136.903 -273.244 98.0542C-369.687 57.6317 -334.605 -113.844 -237.599 -117.054C-144.406 -120.205 -170.972 -153.151 -83.1319 -215.042C4.70778 -276.933 148.325 -193.905 118.234 -93.2102C87.9789 -3.12995 118.866 -13.0279 157.202 114.829Z" stroke="url(#paint1_linear_14511_45761)" stroke-width="2.5"/>
<path opacity="0.1" d="M1245.77 139.737C1222.36 57.4124 1312.95 31.2557 1379.85 60.6599C1423.81 79.0327 1457.58 39.9541 1504.35 56.8598C1566.02 79.1626 1512.06 126.609 1580.4 158.932C1651.07 193.496 1629.19 324.804 1548.79 325.937C1473.73 327.07 1494.96 355.615 1426.11 398.785C1357.26 441.954 1251.46 380.318 1272.55 300.96C1293.64 236.48 1273.41 235.713 1245.77 139.737Z" stroke="url(#paint2_linear_14511_45761)" stroke-width="2.5"/>
<path opacity="0.05" d="M102.26 88.1542C126.956 170.104 36.7792 197.67 -30.5697 169.312C-74.8058 151.626 -107.965 191.226 -154.995 175.052C-217.01 153.713 -163.788 105.431 -232.627 74.1773C-303.829 40.7187 -283.995 -90.9142 -203.628 -93.3003C-128.595 -95.6033 -150.266 -123.814 -82.0955 -168.051C-13.9254 -212.288 92.8246 -152.309 72.9738 -72.6316C52.8912 -7.83076 73.1255 -7.37861 102.26 88.1542Z" stroke="url(#paint3_linear_14511_45761)" stroke-width="2.5"/>
<path opacity="0.1" d="M1299.3 169.202C1284.52 118.953 1344.2 91.0529 1389.23 112.053C1421.82 127.019 1449.52 103.622 1480.03 114.639C1529.68 132.573 1495.8 159.832 1538.35 184.039C1583.89 211.12 1577.85 302.37 1514.14 302.935C1457.27 303.5 1473.67 327.127 1424.78 352.81C1375.89 378.492 1306.6 340.681 1317.13 282.462C1327.65 243.313 1318.24 232.386 1299.3 169.202Z" stroke="url(#paint4_linear_14511_45761)" stroke-width="2.5"/>
<path opacity="0.05" d="M48.2826 59.5276C63.841 109.54 4.59631 138.367 -40.7495 118.072C-73.5683 103.615 -100.901 127.44 -131.582 116.901C-181.5 99.7427 -148.05 71.9594 -190.971 48.4176C-236.927 22.0496 -232.318 -69.2835 -168.62 -70.8413C-111.77 -72.2924 -128.537 -95.6606 -80.0484 -122.102C-31.5598 -148.544 38.3108 -111.817 28.6899 -53.4403C18.7718 -14.1319 28.3593 -3.35371 48.2826 59.5276Z" stroke="url(#paint5_linear_14511_45761)" stroke-width="2.5"/>
</g>
<defs>
<linearGradient id="paint0_linear_14511_45761" x1="1186" y1="-4.99994" x2="1441.15" y2="455.023" gradientUnits="userSpaceOnUse">
<stop stop-color="white"/>
<stop offset="1" stop-color="white" stop-opacity="0"/>
</linearGradient>
<linearGradient id="paint1_linear_14511_45761" x1="164.281" y1="231.943" x2="-98.0098" y2="-224.048" gradientUnits="userSpaceOnUse">
<stop stop-color="white"/>
<stop offset="1" stop-color="white" stop-opacity="0"/>
</linearGradient>
<linearGradient id="paint2_linear_14511_45761" x1="1418.94" y1="150.18" x2="1309.68" y2="404.306" gradientUnits="userSpaceOnUse">
<stop stop-color="white"/>
<stop offset="1" stop-color="white" stop-opacity="0"/>
</linearGradient>
<linearGradient id="paint3_linear_14511_45761" x1="-71.0469" y1="80.4118" x2="34.2336" y2="-175.386" gradientUnits="userSpaceOnUse">
<stop stop-color="white"/>
<stop offset="1" stop-color="white" stop-opacity="0"/>
</linearGradient>
<linearGradient id="paint4_linear_14511_45761" x1="1312.4" y1="105" x2="1445.26" y2="361.093" gradientUnits="userSpaceOnUse">
<stop stop-color="white"/>
<stop offset="1" stop-color="white" stop-opacity="0"/>
</linearGradient>
<linearGradient id="paint5_linear_14511_45761" x1="36.1823" y1="123.926" x2="-100.651" y2="-130.065" gradientUnits="userSpaceOnUse">
<stop stop-color="white"/>
<stop offset="1" stop-color="white" stop-opacity="0"/>
</linearGradient>
</defs>
</svg>
