<svg width="190" height="44" viewBox="0 0 190 44" fill="none" xmlns="http://www.w3.org/2000/svg">
<path d="M19 6.73232C20.8564 5.66052 23.1436 5.66052 25 6.73232L33.7227 11.7684C35.5787 12.8402 36.7225 14.8204 36.7227 16.9637V27.036C36.7226 29.1795 35.579 31.1605 33.7227 32.2323L25 37.2684C23.1437 38.3401 20.8563 38.3401 19 37.2684L10.2773 32.2323C8.421 31.1605 7.27738 29.1795 7.27734 27.036V16.9637C7.27748 14.8204 8.42126 12.8402 10.2773 11.7684L19 6.73232ZM22.9033 14.3934C22.4325 13.8691 21.5659 13.8689 21.0967 14.3934C20.3481 15.2256 19.4813 16.4284 18.8896 18.0194C17.806 20.936 18.2721 23.4639 18.5312 24.5106C18.1397 24.7529 17.4376 25.2712 17.1338 26.1405C16.9279 26.7303 16.9914 27.246 17.1152 27.9091C17.2002 28.367 17.3175 28.9159 17.4873 29.5428C17.6314 30.0779 18.419 30.1678 18.6982 29.6805C18.8422 29.429 19.0242 29.1766 19.2559 28.9384C19.5409 28.6442 19.8401 28.431 20.1064 28.2753C20.1424 28.254 20.1883 28.2671 20.207 28.3016C20.2877 28.4534 20.4047 28.6317 20.5674 28.8114L20.5703 28.8153C20.7416 29.003 20.9948 29.1053 21.2568 29.1053H22.7441C23.0061 29.1053 23.2584 29.003 23.4297 28.8153L23.4326 28.8114C23.5966 28.6318 23.7119 28.4533 23.7939 28.3016C23.8127 28.2672 23.8581 28.2541 23.8926 28.2753C24.1604 28.431 24.4605 28.6441 24.7441 28.9384C24.9757 29.1765 25.1589 29.4291 25.3027 29.6805C25.582 30.1677 26.3685 30.0777 26.5127 29.5428C26.6811 28.9158 26.8008 28.367 26.8857 27.9091C27.0096 27.246 27.0721 26.7303 26.8662 26.1405C26.5639 25.2711 25.8608 24.7529 25.4678 24.5106C25.7269 23.4639 26.1946 20.9361 25.1094 18.0194C24.5177 16.4283 23.6505 15.2256 22.9033 14.3934ZM22 18.0214C23.1458 18.0215 24.0742 18.8806 24.0742 19.9403C24.0742 21 23.1458 21.8591 22 21.8593C20.854 21.8593 19.9249 21.0001 19.9248 19.9403C19.9248 18.8805 20.854 18.0214 22 18.0214Z" fill="#97A7BF"/>
<path d="M44.8184 29.0001V13.7274H50.844C51.9974 13.7274 52.9818 13.9337 53.7971 14.3463C54.6174 14.754 55.2414 15.3332 55.6689 16.0839C56.1014 16.8296 56.3177 17.7071 56.3177 18.7164C56.3177 19.7306 56.099 20.6031 55.6615 21.3339C55.224 22.0598 54.5901 22.6166 53.7598 23.0044C52.9345 23.3921 51.9352 23.586 50.762 23.586H46.7275V20.9909H50.2399C50.8564 20.9909 51.3685 20.9063 51.7762 20.7373C52.1838 20.5683 52.4871 20.3147 52.686 19.9767C52.8898 19.6386 52.9917 19.2185 52.9917 18.7164C52.9917 18.2093 52.8898 17.7817 52.686 17.4337C52.4871 17.0857 52.1813 16.8222 51.7687 16.6432C51.361 16.4593 50.8465 16.3673 50.225 16.3673H48.0475V29.0001H44.8184ZM53.0663 22.0498L56.8621 29.0001H53.2975L49.5837 22.0498H53.0663ZM63.5309 29.2238C62.3725 29.2238 61.3707 28.9777 60.5255 28.4855C59.6853 27.9884 59.0365 27.2973 58.5792 26.4124C58.1218 25.5225 57.8931 24.4909 57.8931 23.3176C57.8931 22.1343 58.1218 21.1002 58.5792 20.2153C59.0365 19.3254 59.6853 18.6343 60.5255 18.1421C61.3707 17.645 62.3725 17.3964 63.5309 17.3964C64.6892 17.3964 65.6885 17.645 66.5287 18.1421C67.3739 18.6343 68.0252 19.3254 68.4826 20.2153C68.94 21.1002 69.1686 22.1343 69.1686 23.3176C69.1686 24.4909 68.94 25.5225 68.4826 26.4124C68.0252 27.2973 67.3739 27.9884 66.5287 28.4855C65.6885 28.9777 64.6892 29.2238 63.5309 29.2238ZM63.5458 26.7629C64.0728 26.7629 64.5128 26.6137 64.8657 26.3154C65.2187 26.0122 65.4847 25.5995 65.6637 25.0775C65.8476 24.5555 65.9396 23.9614 65.9396 23.2952C65.9396 22.629 65.8476 22.0349 65.6637 21.5129C65.4847 20.9909 65.2187 20.5782 64.8657 20.275C64.5128 19.9717 64.0728 19.8201 63.5458 19.8201C63.0138 19.8201 62.5664 19.9717 62.2034 20.275C61.8455 20.5782 61.5745 20.9909 61.3906 21.5129C61.2116 22.0349 61.1221 22.629 61.1221 23.2952C61.1221 23.9614 61.2116 24.5555 61.3906 25.0775C61.5745 25.5995 61.8455 26.0122 62.2034 26.3154C62.5664 26.6137 63.0138 26.7629 63.5458 26.7629ZM76.4098 29.2238C75.2365 29.2238 74.2272 28.9752 73.3821 28.4781C72.5419 27.976 71.8956 27.2799 71.4431 26.39C70.9957 25.5001 70.772 24.476 70.772 23.3176C70.772 22.1443 70.9982 21.1152 71.4506 20.2302C71.908 19.3403 72.5568 18.6468 73.397 18.1496C74.2372 17.6475 75.2365 17.3964 76.3949 17.3964C77.3941 17.3964 78.2691 17.5779 79.0199 17.9408C79.7706 18.3037 80.3647 18.8133 80.8022 19.4696C81.2397 20.1258 81.4808 20.8964 81.5255 21.7813H78.5277C78.4431 21.2096 78.2194 20.7497 77.8565 20.4017C77.4985 20.0488 77.0287 19.8723 76.4471 19.8723C75.9549 19.8723 75.5248 20.0065 75.1569 20.275C74.794 20.5385 74.5106 20.9238 74.3068 21.4309C74.1029 21.938 74.001 22.5519 74.001 23.2728C74.001 24.0037 74.1005 24.6251 74.2993 25.1372C74.5032 25.6492 74.789 26.0395 75.1569 26.308C75.5248 26.5764 75.9549 26.7107 76.4471 26.7107C76.81 26.7107 77.1356 26.6361 77.424 26.487C77.7173 26.3378 77.9584 26.1215 78.1473 25.8382C78.3412 25.5498 78.468 25.2043 78.5277 24.8016H81.5255C81.4758 25.6766 81.2372 26.4472 80.8096 27.1134C80.387 27.7746 79.8029 28.2916 79.0571 28.6645C78.3114 29.0374 77.4289 29.2238 76.4098 29.2238ZM86.4381 25.7039L86.4455 21.8932H86.9079L90.5769 17.5456H94.2236L89.2943 23.3027H88.5411L86.4381 25.7039ZM83.5595 29.0001V13.7274H86.7364V29.0001H83.5595ZM90.7186 29.0001L87.3479 24.0111L89.4658 21.7664L94.4399 29.0001H90.7186ZM100.53 29.2238C99.3524 29.2238 98.3382 28.9852 97.4881 28.5079C96.6429 28.0257 95.9916 27.3446 95.5342 26.4646C95.0768 25.5796 94.8482 24.5331 94.8482 23.325C94.8482 22.1468 95.0768 21.1127 95.5342 20.2228C95.9916 19.3328 96.6354 18.6393 97.4657 18.1421C98.3009 17.645 99.2803 17.3964 100.404 17.3964C101.159 17.3964 101.863 17.5182 102.514 17.7618C103.17 18.0005 103.742 18.3609 104.229 18.8431C104.721 19.3254 105.104 19.9319 105.378 20.6627C105.651 21.3886 105.788 22.2387 105.788 23.2132V24.0857H96.1159V22.1169H102.797C102.797 21.6595 102.698 21.2544 102.499 20.9014C102.3 20.5484 102.024 20.2725 101.671 20.0736C101.323 19.8698 100.918 19.7679 100.456 19.7679C99.9739 19.7679 99.5463 19.8797 99.1734 20.1034C98.8055 20.3222 98.5172 20.618 98.3084 20.9909C98.0996 21.3588 97.9927 21.7689 97.9877 22.2213V24.0931C97.9877 24.6599 98.0921 25.1496 98.3009 25.5622C98.5147 25.9749 98.8155 26.2931 99.2033 26.5168C99.5911 26.7405 100.051 26.8524 100.583 26.8524C100.936 26.8524 101.259 26.8027 101.552 26.7032C101.845 26.6038 102.096 26.4546 102.305 26.2558C102.514 26.0569 102.673 25.8133 102.783 25.525L105.721 25.7189C105.572 26.4248 105.266 27.0413 104.803 27.5683C104.346 28.0903 103.754 28.498 103.029 28.7913C102.308 29.0796 101.475 29.2238 100.53 29.2238ZM113.954 17.5456V19.9319H107.056V17.5456H113.954ZM108.622 14.8012H111.798V25.4802C111.798 25.7735 111.843 26.0022 111.933 26.1663C112.022 26.3254 112.147 26.4372 112.306 26.5019C112.47 26.5665 112.659 26.5988 112.872 26.5988C113.022 26.5988 113.171 26.5864 113.32 26.5615C113.469 26.5317 113.583 26.5093 113.663 26.4944L114.162 28.8584C114.003 28.9081 113.78 28.9653 113.491 29.0299C113.203 29.0995 112.852 29.1418 112.44 29.1567C111.674 29.1865 111.003 29.0846 110.426 28.851C109.855 28.6173 109.41 28.2544 109.091 27.7622C108.773 27.27 108.617 26.6485 108.622 25.8978V14.8012ZM120.943 29.0001V13.7274H124.172V26.3378H130.72V29.0001H120.943ZM132.858 13.7274H136.84L141.046 23.9887H141.225L145.431 13.7274H149.414V29.0001H146.281V19.0594H146.155L142.202 28.9255H140.069L136.117 19.0221H135.99V29.0001H132.858V13.7274ZM160.359 18.1198C160.299 17.5182 160.043 17.0509 159.591 16.7178C159.139 16.3847 158.525 16.2181 157.749 16.2181C157.222 16.2181 156.777 16.2927 156.414 16.4419C156.051 16.586 155.773 16.7874 155.579 17.0459C155.39 17.3044 155.296 17.5978 155.296 17.9259C155.286 18.1993 155.343 18.438 155.467 18.6418C155.596 18.8456 155.773 19.0221 155.997 19.1713C156.22 19.3154 156.479 19.4422 156.772 19.5516C157.065 19.656 157.379 19.7455 157.712 19.8201L159.084 20.1482C159.75 20.2973 160.362 20.4962 160.918 20.7448C161.475 20.9934 161.957 21.2991 162.365 21.662C162.773 22.025 163.089 22.4525 163.312 22.9447C163.541 23.4369 163.658 24.0012 163.663 24.6375C163.658 25.5722 163.419 26.3826 162.947 27.0686C162.48 27.7497 161.803 28.2792 160.918 28.6571C160.038 29.0299 158.977 29.2164 157.734 29.2164C156.501 29.2164 155.427 29.0274 154.513 28.6496C153.603 28.2718 152.892 27.7125 152.38 26.9717C151.873 26.226 151.607 25.3037 151.582 24.205H154.706C154.741 24.7171 154.888 25.1446 155.146 25.4877C155.41 25.8257 155.76 26.0818 156.198 26.2558C156.64 26.4248 157.14 26.5093 157.697 26.5093C158.244 26.5093 158.719 26.4298 159.121 26.2707C159.529 26.1116 159.845 25.8904 160.068 25.607C160.292 25.3236 160.404 24.998 160.404 24.6301C160.404 24.287 160.302 23.9987 160.098 23.765C159.899 23.5313 159.606 23.3325 159.218 23.1684C158.835 23.0044 158.366 22.8552 157.809 22.721L156.146 22.3034C154.858 21.9902 153.841 21.5005 153.096 20.8343C152.35 20.1681 151.98 19.2707 151.984 18.1421C151.98 17.2174 152.226 16.4095 152.723 15.7185C153.225 15.0274 153.913 14.488 154.788 14.1002C155.663 13.7125 156.658 13.5186 157.771 13.5186C158.905 13.5186 159.894 13.7125 160.739 14.1002C161.59 14.488 162.251 15.0274 162.723 15.7185C163.195 16.4095 163.439 17.21 163.454 18.1198H160.359Z" fill="#97A7BF"/>
</svg>
