<svg width="406" height="302" viewBox="0 0 406 302" fill="none" xmlns="http://www.w3.org/2000/svg">
<mask id="mask0_14954_52062" style="mask-type:alpha" maskUnits="userSpaceOnUse" x="0" y="0" width="406" height="302">
<rect width="405.823" height="301.875" transform="matrix(-1 0 0 1 406 0)" fill="#D9D9D9"/>
</mask>
<g mask="url(#mask0_14954_52062)">
<g opacity="0.5">
<mask id="path-2-inside-1_14954_52062" fill="white">
<path d="M16.0233 202.563C14.0073 156.306 28.6309 110.858 57.2433 74.4568C85.8557 38.0554 126.563 13.11 171.987 4.1422C217.41 -4.82558 264.544 2.77787 304.843 25.5743C345.143 48.3707 375.941 84.8513 391.656 128.403L390.816 128.706C375.174 85.3551 344.518 49.0426 304.404 26.3513C264.29 3.65991 217.374 -3.9085 172.16 5.01795C126.945 13.9444 86.4256 38.7749 57.9451 75.0085C29.4646 111.242 14.9084 156.481 16.9151 202.524L16.0233 202.563Z"/>
</mask>
<path d="M16.0233 202.563C14.0073 156.306 28.6309 110.858 57.2433 74.4568C85.8557 38.0554 126.563 13.11 171.987 4.1422C217.41 -4.82558 264.544 2.77787 304.843 25.5743C345.143 48.3707 375.941 84.8513 391.656 128.403L390.816 128.706C375.174 85.3551 344.518 49.0426 304.404 26.3513C264.29 3.65991 217.374 -3.9085 172.16 5.01795C126.945 13.9444 86.4256 38.7749 57.9451 75.0085C29.4646 111.242 14.9084 156.481 16.9151 202.524L16.0233 202.563Z" stroke="url(#paint0_linear_14954_52062)" stroke-width="2.84788" stroke-dasharray="4.27 4.27" mask="url(#path-2-inside-1_14954_52062)"/>
</g>
<g opacity="0.5">
<mask id="path-3-inside-2_14954_52062" fill="white">
<path d="M391.396 260.571C375.511 304.062 344.57 340.421 304.181 363.06C263.793 385.698 216.63 393.117 171.242 383.972C125.854 374.826 85.2443 349.722 56.7746 313.209C28.3049 276.696 13.8593 231.191 16.0564 184.942L16.948 184.985C14.7611 231.02 29.1401 276.315 57.4786 312.66C85.817 349.005 126.239 373.993 171.418 383.097C216.597 392.2 263.543 384.815 303.745 362.281C343.947 339.747 374.746 303.555 390.557 260.265L391.396 260.571Z"/>
</mask>
<path d="M391.396 260.571C375.511 304.062 344.57 340.421 304.181 363.06C263.793 385.698 216.63 393.117 171.242 383.972C125.854 374.826 85.2443 349.722 56.7746 313.209C28.3049 276.696 13.8593 231.191 16.0564 184.942L16.948 184.985C14.7611 231.02 29.1401 276.315 57.4786 312.66C85.817 349.005 126.239 373.993 171.418 383.097C216.597 392.2 263.543 384.815 303.745 362.281C343.947 339.747 374.746 303.555 390.557 260.265L391.396 260.571Z" stroke="url(#paint1_linear_14954_52062)" stroke-width="2.84788" stroke-dasharray="4.27 4.27" mask="url(#path-3-inside-2_14954_52062)"/>
</g>
<circle opacity="0.08" cx="170.873" cy="170.873" r="170.873" transform="matrix(-1 0 0 1 380.371 23.2617)" fill="url(#paint2_linear_14954_52062)"/>
<circle opacity="0.1" cx="136.698" cy="136.698" r="136.698" transform="matrix(-1 0 0 1 346.195 57.4336)" fill="url(#paint3_linear_14954_52062)"/>
<circle opacity="0.4" cx="91.1321" cy="91.1321" r="91.1321" transform="matrix(-1 0 0 1 300.629 103)" fill="white"/>
<g filter="url(#filter0_d_14954_52062)">
<circle cx="7.11969" cy="7.11969" r="7.11969" transform="matrix(-0.999045 -0.0436902 -0.0436902 0.999045 398.102 118.289)" fill="#0170FF"/>
<circle cx="7.11969" cy="7.11969" r="8.13822" transform="matrix(-0.999045 -0.0436902 -0.0436902 0.999045 398.102 118.289)" stroke="white" stroke-width="2.03704"/>
</g>
<g filter="url(#filter1_d_14954_52062)">
<circle cx="7.11969" cy="7.11969" r="7.11969" transform="matrix(-0.962529 -0.27118 -0.27118 0.962529 24.7891 177.594)" fill="#0170FF"/>
<circle cx="7.11969" cy="7.11969" r="8.13822" transform="matrix(-0.962529 -0.27118 -0.27118 0.962529 24.7891 177.594)" stroke="white" stroke-width="2.03704"/>
</g>
</g>
<path d="M215.091 122.45C215.091 122.45 228.762 128.85 231.228 118.033C233.694 107.216 238.61 90.5336 255.437 92.8849C272.264 95.2362 283.308 98.2968 288.904 87.739C294.499 77.1812 333.236 82.0184 326.235 114.779C314.771 168.467 213.666 154.514 213.666 154.514L207.426 143.267L215.091 122.45Z" fill="#382256"/>
<path d="M301.032 82.7332C295.397 82.7332 290.606 84.5229 288.882 87.7411C285.847 93.4683 281.211 95.1857 274.919 95.1857C269.609 95.1857 263.119 93.9608 255.415 92.887C254.386 92.7409 253.348 92.6663 252.309 92.6637C237.965 92.6637 233.512 107.914 231.206 118.035C230.077 122.991 226.609 124.33 223.154 124.33C219.085 124.33 215.069 122.452 215.069 122.452L207.418 143.282L213.657 154.529C213.657 154.529 225.479 156.171 241.479 156.171C272.301 156.171 318.68 150.129 326.226 114.794C331.09 92.0266 313.866 82.7463 301.029 82.7463L301.032 82.7332ZM301.029 81.7611C307.725 81.7611 316.966 84.339 322.818 91.5734C327.671 97.5699 329.182 105.671 327.189 114.998C323.77 131.01 312.24 142.671 292.918 149.659C279.161 154.634 261.855 157.156 241.479 157.156C232.135 157.18 222.799 156.632 213.522 155.515L213.033 155.446L212.797 155.015L206.557 143.768L206.337 143.374L206.492 142.95L214.146 122.124L214.514 121.116L215.5 121.572C215.536 121.572 219.371 123.355 223.164 123.355C227.085 123.355 229.403 121.546 230.254 117.825C231.489 112.407 233.19 106.174 236.418 101.038C240.323 94.8344 245.672 91.6884 252.319 91.6884C253.404 91.6899 254.489 91.7678 255.563 91.9215C257.419 92.1777 259.195 92.447 260.913 92.7031C266.308 93.511 270.968 94.2104 274.928 94.2104C281.621 94.2104 285.414 92.2073 288.021 87.2912C289.857 83.8267 294.717 81.7578 301.026 81.7578L301.029 81.7611Z" fill="#1D1E1B"/>
<path d="M277.368 229.18C279.538 267.95 272.915 289.387 272.915 289.387L149.44 290.901C144.869 267.149 150.464 238.464 150.464 238.464C150.464 238.464 139.338 223.906 130.646 223.909C117.162 223.909 105.547 226.78 96.2205 206.541C86.8942 186.302 114.742 182.644 139.614 168.631C164.487 154.619 198.396 156.152 198.396 156.152C198.396 156.152 232.221 146.629 266.186 172.112" fill="#07ACEE"/>
<path d="M149.048 291.399L273.278 289.875L273.386 289.53C273.452 289.317 280.007 267.564 277.856 229.152L276.871 229.208C278.864 264.828 273.357 285.997 272.539 288.9L149.859 290.404C145.498 267.088 150.903 238.846 150.959 238.557L151.002 238.337L150.867 238.163C150.407 237.559 139.492 223.415 130.661 223.415C129.144 223.415 127.643 223.451 126.188 223.487C114.731 223.766 104.843 224.009 96.6823 206.332C94.7317 202.096 94.3836 198.477 95.5856 195.272C98.2652 188.198 108.537 183.67 120.428 178.429C126.484 175.759 133.347 172.734 139.873 169.06C164.331 155.267 198.05 156.627 198.388 156.643H198.467L198.546 156.62C198.628 156.597 207.084 154.269 219.563 155.067C231.077 155.799 248.462 159.421 265.889 172.501L266.48 171.713C248.836 158.476 231.241 154.817 219.583 154.079C207.587 153.32 199.223 155.418 198.339 155.652C196.5 155.586 163.507 154.601 139.37 168.196C132.891 171.848 126.346 174.734 120.014 177.522C107.92 182.855 97.4737 187.46 94.6462 194.927C93.3327 198.392 93.704 202.26 95.7728 206.749C104.189 225.014 114.386 224.765 126.195 224.482C127.643 224.446 129.151 224.41 130.648 224.41C138.497 224.41 148.657 236.974 149.938 238.6C149.432 241.332 144.631 268.526 148.952 291.005L149.048 291.399Z" fill="#1D1D1B"/>
<path d="M195.462 197.175C193.831 197.175 192.51 195.851 192.51 194.217C192.51 192.583 193.831 191.258 195.462 191.258C197.092 191.258 198.414 192.583 198.414 194.217C198.414 195.851 197.092 197.175 195.462 197.175Z" fill="#51CEF4"/>
<path d="M198.232 89.5359C198.029 82.0446 203.929 75.8076 211.409 75.6052C218.889 75.4027 225.118 81.3116 225.32 88.8029C225.523 96.2942 219.623 102.531 212.143 102.734C204.663 102.936 198.434 97.0272 198.232 89.5359Z" fill="#382256"/>
<path d="M211.756 103.247C214.079 103.242 216.363 102.663 218.407 101.56C220.451 100.458 222.191 98.8664 223.47 96.9283C224.749 94.9903 225.529 92.7657 225.739 90.453C225.949 88.1404 225.584 85.8116 224.676 83.6745L224.222 83.8683L224.676 83.6745C223.676 81.3468 222.066 79.333 220.015 77.8465C217.964 76.36 215.548 75.4563 213.025 75.2313C210.502 75.0062 207.965 75.4682 205.683 76.5682C203.402 77.6682 201.46 79.3652 200.065 81.4793C198.669 83.5934 197.872 86.0458 197.757 88.5763C197.643 91.1068 198.215 93.6212 199.414 95.8528C200.612 98.0843 202.392 99.9499 204.565 101.252C206.739 102.553 209.223 103.243 211.756 103.247ZM211.756 76.092C214.999 76.0851 218.129 77.2829 220.539 79.453C222.949 81.6231 224.467 84.6108 224.799 87.8368C225.13 91.0627 224.252 94.2968 222.335 96.9119C220.417 99.527 217.596 101.337 214.42 101.99C211.243 102.643 207.937 102.093 205.143 100.447C202.349 98.8013 200.266 96.1762 199.298 93.0812C198.33 89.9861 198.545 86.6418 199.903 83.6969C201.261 80.7519 203.664 78.4162 206.647 77.1428C208.26 76.4513 209.998 76.0938 211.753 76.092H211.756Z" fill="#1D1E1B"/>
<path d="M170.568 129.096C170.568 129.096 161.701 120.315 166.243 112.122C170.784 103.928 172.949 104.795 175.063 100.319C177.178 95.8434 185.707 91.7812 193.082 94.4313C193.082 94.4313 202.859 88.0342 211.144 90.7566C219.429 93.4789 222.125 97.6988 224.099 104.454C226.073 111.209 228.279 114.306 229.829 118.992C231.379 123.678 233.31 136.745 214.786 145.073C196.261 153.401 170.568 129.096 170.568 129.096Z" fill="#382256"/>
<path d="M206.344 147.281C209.319 147.317 212.268 146.718 214.994 145.524C234.477 136.766 231.64 122.885 230.303 118.839C229.652 116.951 228.895 115.1 228.037 113.296C226.653 110.398 225.497 107.396 224.58 104.318C222.609 97.5431 219.791 93.0769 211.306 90.2922C203.454 87.7143 194.528 92.9521 193.021 93.9045C189.589 92.7288 185.659 92.8503 181.928 94.2526C178.477 95.5464 175.744 97.7434 174.618 100.124C173.715 102.039 172.809 102.929 171.663 104.065C170.198 105.507 168.379 107.3 165.814 111.907C161.138 120.33 170.129 129.384 170.221 129.473C174.906 133.713 180.019 137.455 185.478 140.638C193.149 145.048 200.216 147.281 206.344 147.281ZM206.735 90.5811C208.184 90.5706 209.625 90.7924 211.004 91.2379C219.115 93.9012 221.703 97.9897 223.637 104.603C224.571 107.726 225.744 110.773 227.144 113.716C227.986 115.488 228.73 117.304 229.371 119.158C230.642 123.007 233.312 136.214 214.593 144.634C196.663 152.696 171.384 129.2 170.917 128.757C170.704 128.54 162.402 120.081 166.684 112.37C169.173 107.887 170.953 106.15 172.359 104.755C173.528 103.605 174.536 102.613 175.515 100.545C177.452 96.4397 185.616 92.2658 192.919 94.9061L193.153 94.9915L193.356 94.8568C193.432 94.7944 199.973 90.5811 206.735 90.5811Z" fill="#1D1E1B"/>
<path d="M193.978 156.147C193.978 156.147 188.845 156.991 188.067 161.818C187.167 167.371 192.7 174.376 203.337 167.134C203.337 167.134 208.092 174.789 218.18 167.374C226.718 161.099 225.296 155.552 217.126 154.179C210.043 152.974 193.978 156.147 193.978 156.147Z" fill="white"/>
<path d="M210.004 171.092C212.631 171.092 215.462 169.979 218.476 167.763C222.903 164.508 224.985 161.195 224.331 158.443C223.767 156.059 221.238 154.371 217.212 153.684C210.129 152.479 194.592 155.517 193.896 155.655C193.601 155.707 188.399 156.732 187.591 161.73C187.089 164.824 188.438 167.969 190.944 169.572C192.776 170.738 196.783 172.025 203.226 167.799C204.502 169.42 206.315 170.533 208.339 170.935C208.888 171.04 209.445 171.093 210.004 171.092ZM213.17 154.391C214.468 154.373 215.764 154.462 217.048 154.656C220.66 155.271 222.906 156.696 223.373 158.669C223.928 161.014 221.984 163.963 217.892 166.968C214.454 169.496 211.301 170.505 208.52 169.969C206.595 169.582 204.892 168.471 203.761 166.866L203.489 166.429L203.065 166.718C198.467 169.851 194.343 170.57 191.466 168.741C189.286 167.355 188.117 164.6 188.557 161.884C189.269 157.477 193.87 156.656 194.064 156.63C194.215 156.604 205.472 154.4 213.17 154.4V154.391Z" fill="#1D1E1B"/>
<path d="M194.67 152.649L194.972 156.566C194.972 156.566 198.341 172.024 214.971 161.394C216.142 160.642 217.005 159.496 217.403 158.162C217.801 156.829 217.708 155.397 217.142 154.126C215.421 150.271 213.033 143.618 211.739 134.315C211.739 134.315 218.59 133.631 218.228 127.527C217.867 121.422 213.181 119.849 210.16 121.136C210.16 121.136 198.174 127.579 189.56 103.098C189.56 103.098 177.206 106.572 173.347 118.496C169.489 130.42 170.257 144.833 179.14 149.989C188.023 155.144 194.67 152.649 194.67 152.649Z" fill="#FFCDB2"/>
<path d="M204.648 165.62C207.722 165.62 211.268 164.346 215.239 161.808C216.504 160.988 217.436 159.745 217.867 158.301C218.299 156.856 218.202 155.305 217.593 153.926C215.882 150.087 213.587 143.661 212.3 134.722C213.941 134.394 219.045 132.978 218.72 127.497C218.549 124.594 217.383 122.335 215.436 121.127C214.625 120.626 213.707 120.325 212.757 120.247C211.807 120.169 210.853 120.318 209.971 120.68H209.932C209.902 120.68 206.907 122.243 202.954 120.7C197.896 118.729 193.43 112.575 190.031 102.914L189.877 102.48L189.434 102.605C189.306 102.641 176.781 106.29 172.883 118.322C170.85 124.604 170.177 131.179 170.981 136.83C171.897 143.231 174.633 147.92 178.896 150.396C186.429 154.767 192.359 153.775 194.231 153.279L194.497 156.652C194.55 156.902 195.886 162.79 200.934 164.885C202.111 165.374 203.374 165.624 204.648 165.62ZM212.237 121.212C213.182 121.211 214.108 121.473 214.914 121.967C216.096 122.7 217.541 124.266 217.738 127.55C218.066 133.133 211.955 133.789 211.695 133.816L211.183 133.868L211.255 134.374C212.546 143.674 214.927 150.353 216.693 154.32C217.208 155.482 217.292 156.789 216.931 158.008C216.57 159.226 215.787 160.276 214.723 160.97C209.328 164.422 204.819 165.436 201.331 163.991C196.934 162.169 195.588 156.931 195.479 156.484L195.128 151.953L194.514 152.183C194.412 152.219 187.946 154.504 179.408 149.555C170.797 144.561 170.088 130.22 173.825 118.641C177.148 108.375 187.059 104.461 189.26 103.705C192.79 113.557 197.282 119.573 202.622 121.642C206.865 123.284 210.05 121.741 210.372 121.573C210.964 121.33 211.597 121.208 212.237 121.212Z" fill="#1D1E1B"/>
<path d="M212.039 131.499C212.125 131.513 212.213 131.503 212.294 131.471C212.375 131.44 212.446 131.387 212.499 131.318C214.082 129.259 214.608 127.466 214.059 125.988C213.271 123.861 210.572 123.279 210.447 123.256C210.321 123.23 210.191 123.255 210.084 123.325C209.976 123.395 209.902 123.505 209.875 123.631C209.849 123.756 209.874 123.887 209.944 123.994C210.015 124.101 210.124 124.176 210.25 124.202C210.283 124.202 212.548 124.704 213.149 126.327C213.57 127.473 213.094 128.954 211.727 130.727C211.688 130.777 211.66 130.835 211.643 130.896C211.626 130.957 211.622 131.021 211.631 131.084C211.639 131.147 211.659 131.208 211.691 131.262C211.723 131.317 211.766 131.365 211.816 131.404C211.88 131.455 211.958 131.488 212.039 131.499Z" fill="black"/>
<path d="M187.461 122.371C194.239 124.042 203.529 121.336 205.033 123.822C206.537 126.308 205.233 129.546 201.509 130.239C197.785 130.932 194.123 130.705 186.633 129.874C179.142 129.043 171.855 127.674 172.84 123.681C173.826 119.688 177.497 119.914 187.461 122.371Z" fill="#FFB49F"/>
<path d="M177.306 128.006C177.287 127.312 177.833 126.734 178.526 126.715C179.218 126.696 179.795 127.244 179.814 127.938C179.832 128.633 179.286 129.211 178.594 129.229C177.901 129.248 177.324 128.701 177.306 128.006Z" fill="black"/>
<path d="M190.044 129.611C190.025 128.917 190.571 128.339 191.264 128.32C191.956 128.301 192.533 128.849 192.552 129.543C192.571 130.238 192.025 130.816 191.332 130.835C190.639 130.853 190.063 130.306 190.044 129.611Z" fill="black"/>
<path d="M182.255 134.232C182.357 134.232 182.456 134.2 182.539 134.141C182.622 134.083 182.685 134 182.718 133.904L186.623 123.474C186.651 123.356 186.635 123.232 186.577 123.125C186.519 123.018 186.424 122.936 186.309 122.896C186.195 122.855 186.069 122.858 185.957 122.904C185.844 122.95 185.753 123.036 185.7 123.146L181.796 133.575C181.75 133.698 181.755 133.833 181.809 133.952C181.863 134.071 181.962 134.163 182.085 134.209C182.14 134.228 182.198 134.236 182.255 134.232Z" fill="#1D1D1B"/>
<path d="M183.141 120.046C183.227 120.046 183.312 120.023 183.387 119.981C183.5 119.914 183.582 119.806 183.616 119.679C183.65 119.553 183.632 119.418 183.568 119.304C181.289 115.364 175.404 118.441 175.154 118.572C175.045 118.636 174.965 118.74 174.93 118.862C174.895 118.984 174.909 119.115 174.968 119.227C175.027 119.339 175.128 119.424 175.248 119.464C175.368 119.504 175.5 119.496 175.614 119.442C175.667 119.416 180.908 116.69 182.714 119.8C182.757 119.875 182.819 119.937 182.894 119.98C182.969 120.024 183.054 120.046 183.141 120.046Z" fill="black"/>
<path d="M197.344 123.724C197.437 123.724 197.528 123.698 197.607 123.648C197.686 123.598 197.748 123.527 197.788 123.443C197.828 123.358 197.844 123.264 197.832 123.172C197.821 123.079 197.784 122.992 197.725 122.92C196.293 121.153 194.769 120.178 193.157 120.017C192.057 119.9 190.954 120.199 190.063 120.854C189.966 120.938 189.906 121.057 189.895 121.184C189.885 121.312 189.924 121.439 190.005 121.538C190.086 121.637 190.203 121.701 190.33 121.716C190.458 121.73 190.586 121.694 190.687 121.616C190.809 121.518 193.577 119.376 196.963 123.544C197.008 123.601 197.067 123.646 197.133 123.678C197.199 123.709 197.271 123.725 197.344 123.724Z" fill="black"/>
<path d="M193.674 152.918C193.674 152.918 199.201 151.385 202.18 149.023L193.674 152.918Z" fill="#4BD657"/>
<path d="M193.676 153.411C193.72 153.412 193.764 153.406 193.807 153.394C194.037 153.332 199.465 151.805 202.486 149.408C202.582 149.325 202.642 149.208 202.654 149.082C202.666 148.955 202.629 148.829 202.55 148.73C202.471 148.63 202.357 148.565 202.231 148.548C202.106 148.53 201.978 148.562 201.875 148.636C199.009 150.909 193.6 152.429 193.544 152.445C193.431 152.478 193.333 152.551 193.269 152.65C193.205 152.749 193.178 152.868 193.194 152.985C193.21 153.102 193.267 153.209 193.356 153.287C193.444 153.365 193.558 153.409 193.676 153.411Z" fill="black"/>
<path d="M221.475 89.425H221.596C221.767 89.3931 221.919 89.2946 222.017 89.1511C222.116 89.0077 222.154 88.831 222.122 88.6598C221.416 84.8242 219.751 82.092 217.173 80.5748C212.976 78.0856 207.939 79.7013 207.728 79.7703C207.563 79.8247 207.426 79.9427 207.347 80.0982C207.269 80.2537 207.255 80.434 207.31 80.5995C207.364 80.765 207.482 80.902 207.638 80.9806C207.793 81.0591 207.973 81.0726 208.139 81.0182C208.211 80.9952 212.845 79.5306 216.513 81.7078C218.743 83.0214 220.197 85.4547 220.831 88.8996C220.861 89.0479 220.942 89.1813 221.059 89.277C221.177 89.3728 221.324 89.425 221.475 89.425Z" fill="white"/>
<path d="M188.441 146.867C189.101 146.872 189.754 146.734 190.356 146.463C193.561 145.015 194.251 140.224 194.297 140.027C194.31 139.926 194.292 139.823 194.245 139.733C194.198 139.643 194.124 139.569 194.034 139.521C193.943 139.474 193.84 139.456 193.739 139.471C193.638 139.485 193.544 139.53 193.469 139.6C187.01 145.679 181.03 139.6 180.777 139.328C180.734 139.275 180.68 139.232 180.62 139.202C180.56 139.171 180.493 139.153 180.426 139.149C180.358 139.145 180.29 139.155 180.227 139.179C180.163 139.202 180.105 139.238 180.056 139.285C180.007 139.332 179.968 139.389 179.942 139.451C179.916 139.514 179.903 139.581 179.905 139.649C179.906 139.717 179.92 139.783 179.948 139.845C179.977 139.907 180.017 139.962 180.067 140.007C180.13 140.073 186.254 146.345 192.999 141.285C192.586 142.7 191.686 144.785 189.965 145.554C188.461 146.23 186.547 145.81 184.278 144.299C184.224 144.264 184.163 144.239 184.1 144.226C184.036 144.214 183.971 144.214 183.907 144.227C183.844 144.24 183.784 144.265 183.73 144.301C183.676 144.337 183.63 144.383 183.594 144.437C183.559 144.491 183.534 144.552 183.521 144.615C183.509 144.679 183.509 144.744 183.522 144.807C183.535 144.871 183.56 144.931 183.596 144.985C183.632 145.038 183.678 145.085 183.732 145.12C185.44 146.286 187.033 146.867 188.441 146.867Z" fill="#1D1D1B"/>
<path d="M199.45 120.347H199.559C201.716 120.333 203.779 119.462 205.295 117.927C206.811 116.392 207.654 114.317 207.64 112.16C207.627 110.003 206.756 107.939 205.221 106.424C203.685 104.908 201.611 104.064 199.453 104.078H199.345C197.188 104.109 195.132 104.995 193.628 106.54C192.123 108.085 191.293 110.164 191.319 112.321C191.35 114.458 192.219 116.498 193.741 118C195.262 119.501 197.313 120.344 199.45 120.347ZM199.45 105.063C201.33 105.076 203.128 105.833 204.451 107.169C205.773 108.505 206.512 110.31 206.506 112.19C206.5 114.07 205.748 115.871 204.417 117.197C203.085 118.524 201.283 119.269 199.403 119.269C197.523 119.269 195.72 118.524 194.388 117.197C193.057 115.871 192.306 114.07 192.3 112.19C192.293 110.31 193.032 108.505 194.355 107.169C195.677 105.833 197.475 105.076 199.355 105.063H199.45Z" fill="#1D1D1B"/>
<path d="M179.284 117.098H179.399C181.674 117.083 183.848 116.166 185.446 114.547C187.043 112.929 187.933 110.742 187.918 108.468C187.903 106.194 186.985 104.019 185.367 102.421C183.749 100.824 181.562 99.9346 179.288 99.9494H179.176C176.903 99.9814 174.735 100.914 173.149 102.542C171.562 104.171 170.686 106.362 170.713 108.635C170.745 110.889 171.662 113.039 173.266 114.622C174.869 116.206 177.031 117.095 179.284 117.098ZM179.284 100.935C181.283 100.948 183.195 101.753 184.601 103.174C186.007 104.594 186.793 106.514 186.786 108.513C186.78 110.512 185.981 112.426 184.565 113.837C183.15 115.248 181.232 116.04 179.234 116.04C177.235 116.04 175.318 115.248 173.902 113.837C172.486 112.426 171.687 110.512 171.681 108.513C171.674 106.514 172.46 104.594 173.866 103.174C175.272 101.753 177.184 100.948 179.183 100.935H179.284Z" fill="#1D1D1B"/>
<path d="M188.448 109.526C188.568 109.527 188.685 109.484 188.776 109.405C190.638 107.763 192.017 109.149 192.168 109.313C192.259 109.397 192.377 109.444 192.5 109.445C192.623 109.445 192.742 109.4 192.833 109.318C192.925 109.236 192.982 109.122 192.994 109C193.006 108.877 192.971 108.755 192.897 108.656C192.165 107.852 190.231 106.817 188.126 108.673C188.051 108.739 187.999 108.827 187.975 108.924C187.951 109.021 187.958 109.123 187.993 109.216C188.029 109.309 188.092 109.39 188.174 109.446C188.257 109.503 188.354 109.533 188.454 109.533L188.448 109.526Z" fill="black"/>
<path d="M195.202 116.909C195.317 116.908 195.43 116.878 195.53 116.82C195.605 116.777 195.67 116.719 195.722 116.65C195.775 116.581 195.813 116.503 195.835 116.419C195.857 116.336 195.862 116.248 195.85 116.163C195.839 116.077 195.81 115.995 195.766 115.92C194.679 114.068 194.381 112.364 194.876 110.853C195.697 108.344 198.466 107.123 198.489 107.109C198.568 107.075 198.64 107.026 198.7 106.964C198.76 106.902 198.808 106.829 198.84 106.749C198.872 106.669 198.888 106.583 198.887 106.497C198.886 106.41 198.867 106.325 198.833 106.246C198.799 106.166 198.75 106.095 198.688 106.034C198.626 105.974 198.553 105.927 198.473 105.895C198.393 105.863 198.307 105.847 198.221 105.848C198.134 105.849 198.049 105.867 197.97 105.901C197.835 105.96 194.64 107.356 193.629 110.433C193.005 112.318 193.343 114.373 194.614 116.584C194.673 116.686 194.759 116.77 194.863 116.827C194.966 116.884 195.083 116.912 195.202 116.909Z" fill="white"/>
<path d="M174.065 112.985C174.18 112.984 174.293 112.953 174.392 112.895C174.492 112.837 174.574 112.754 174.631 112.655C174.688 112.555 174.718 112.442 174.718 112.327C174.718 112.212 174.688 112.099 174.63 112C173.546 110.144 173.248 108.44 173.743 106.929C174.564 104.42 177.333 103.199 177.356 103.186C177.439 103.154 177.515 103.106 177.579 103.045C177.643 102.983 177.694 102.91 177.729 102.828C177.764 102.746 177.781 102.658 177.781 102.569C177.781 102.481 177.763 102.393 177.728 102.311C177.693 102.23 177.641 102.156 177.577 102.095C177.513 102.034 177.436 101.986 177.353 101.955C177.27 101.924 177.181 101.911 177.092 101.915C177.004 101.919 176.917 101.941 176.837 101.98C176.702 102.036 173.507 103.435 172.496 106.509C171.872 108.394 172.21 110.45 173.481 112.663C173.541 112.764 173.626 112.847 173.729 112.904C173.832 112.96 173.948 112.988 174.065 112.985Z" fill="white"/>
<path d="M265.356 192.535C285.227 190.026 267.777 168.267 253.328 162.96C248.858 164.274 232.911 154.35 227.585 156.757C232.547 186.224 248.05 194.736 265.356 192.535Z" fill="#0598C6"/>
<path d="M250.23 131.029C250.23 131.029 245.423 129.286 244.677 126.839C243.932 124.393 243.498 113.231 240.737 106.916C238.067 100.778 232.783 101.852 232.09 112.754C232.09 112.754 227.89 103.343 222.895 108.065C222.895 108.065 219.352 104.331 212.525 102.535C206.66 100.991 205.543 107.622 210.301 110.16C214.291 112.288 215.884 113.139 217.066 114.383C217.066 114.383 212.492 119.119 218.524 120.488C218.524 120.488 222.087 123.414 219.598 125.775C217.109 128.136 214.153 117.542 210.548 116.252C206.942 114.961 203.579 119.71 208.196 128.731C212.814 137.752 214.314 142.241 220.695 145.643C225.454 148.181 232.609 154.046 232.609 154.046L250.23 131.029Z" fill="#FFCDB2"/>
<path d="M232.638 154.522H232.694C232.824 154.503 232.941 154.435 233.022 154.331L250.614 131.344C250.661 131.282 250.693 131.211 250.707 131.135C250.721 131.059 250.717 130.981 250.695 130.906C250.673 130.832 250.634 130.764 250.581 130.708C250.528 130.652 250.463 130.608 250.39 130.582C249.116 130.119 245.691 128.52 245.136 126.71C244.91 125.965 244.706 124.29 244.447 122.175C243.902 117.758 243.084 111.082 241.192 106.741C239.964 103.92 238.132 102.429 236.283 102.754C233.984 103.158 232.326 106.225 231.751 111.072C230.766 109.381 228.897 106.803 226.539 106.343C225.295 106.097 224.08 106.458 222.927 107.414C221.876 106.429 218.435 103.598 212.668 102.081C209.522 101.253 207.742 102.626 207.135 104.189C206.373 106.133 207.135 109.049 210.09 110.619C213.64 112.511 215.295 113.394 216.412 114.432C215.798 115.18 214.563 116.947 215.046 118.569C215.374 119.719 216.487 120.54 218.33 120.963C218.658 121.272 219.972 122.523 220.024 123.843C220.029 124.147 219.966 124.447 219.839 124.724C219.713 125 219.527 125.244 219.295 125.439C219.237 125.511 219.163 125.567 219.078 125.603C218.993 125.639 218.901 125.652 218.809 125.643C217.945 125.522 216.694 123.41 215.591 121.548C214.11 119.046 212.576 116.458 210.75 115.795C210.075 115.525 209.332 115.474 208.626 115.646C207.92 115.818 207.285 116.207 206.81 116.757C205.201 118.583 204.616 122.743 207.795 128.96C208.425 130.188 208.997 131.331 209.529 132.398C212.961 139.294 214.852 143.067 220.5 146.079C225.163 148.565 232.263 154.371 232.322 154.43C232.414 154.496 232.525 154.528 232.638 154.522ZM249.442 131.249L232.552 153.326C230.976 152.052 225.118 147.415 220.957 145.192C215.581 142.325 213.732 138.624 210.399 131.938C209.867 130.868 209.292 129.722 208.662 128.49C205.706 122.717 206.143 118.967 207.539 117.391C207.882 116.988 208.345 116.704 208.86 116.58C209.375 116.456 209.916 116.499 210.406 116.701C211.9 117.243 213.407 119.788 214.737 122.031C216.129 124.382 217.331 126.411 218.678 126.599C218.915 126.628 219.156 126.602 219.381 126.521C219.606 126.441 219.81 126.309 219.975 126.136C220.31 125.844 220.577 125.483 220.756 125.076C220.935 124.669 221.021 124.228 221.009 123.784C220.94 121.814 218.96 120.172 218.875 120.11C218.815 120.062 218.746 120.028 218.671 120.011C217.144 119.663 216.248 119.078 216.008 118.271C215.627 117 216.927 115.282 217.459 114.727C217.547 114.636 217.597 114.514 217.597 114.387C217.597 114.261 217.547 114.139 217.459 114.048C216.225 112.734 214.569 111.864 210.563 109.732C208.12 108.419 207.45 106.077 208.057 104.527C208.665 102.977 210.284 102.452 212.425 103.014C219.042 104.754 222.53 108.37 222.563 108.406C222.607 108.453 222.66 108.491 222.719 108.518C222.779 108.544 222.842 108.558 222.907 108.56C223.038 108.563 223.164 108.515 223.259 108.425C224.287 107.44 225.298 107.082 226.355 107.293C229.354 107.887 231.61 112.908 231.649 112.961C231.695 113.06 231.773 113.142 231.87 113.193C231.968 113.244 232.079 113.262 232.188 113.243C232.296 113.224 232.395 113.169 232.468 113.087C232.542 113.004 232.585 112.9 232.592 112.79C232.989 106.521 234.851 103.986 236.46 103.703C237.81 103.467 239.278 104.774 240.296 107.115C242.128 111.332 242.939 117.919 243.475 122.28C243.741 124.444 243.951 126.155 244.204 126.983C244.851 129.101 248.069 130.664 249.442 131.249Z" fill="#1D1D1B"/>
<path d="M218.959 120.522C218.959 120.522 222.571 121.021 227.605 114.68L218.959 120.522Z" fill="#FFCDB2"/>
<path d="M219.152 121.004C220.111 121.004 223.556 120.571 227.993 114.968C228.067 114.865 228.099 114.738 228.081 114.612C228.064 114.487 227.998 114.373 227.899 114.294C227.799 114.215 227.674 114.178 227.547 114.19C227.421 114.202 227.304 114.262 227.221 114.357C222.482 120.341 219.057 120.019 219.011 120.016C218.947 120.007 218.881 120.011 218.818 120.028C218.755 120.045 218.695 120.074 218.644 120.113C218.592 120.153 218.548 120.203 218.516 120.259C218.483 120.316 218.462 120.378 218.453 120.443C218.444 120.507 218.448 120.573 218.465 120.636C218.482 120.699 218.511 120.758 218.551 120.81C218.59 120.862 218.64 120.905 218.696 120.938C218.753 120.971 218.815 120.992 218.88 121.001C218.971 121.008 219.062 121.009 219.152 121.004Z" fill="#1D1D1B"/>
<path d="M217.093 114.385C218.901 112.158 220.848 110.048 222.922 108.066L217.093 114.385Z" fill="#FFCDB2"/>
<path d="M217.093 114.877C217.167 114.877 217.241 114.86 217.308 114.828C217.375 114.796 217.434 114.748 217.48 114.69C219.275 112.483 221.205 110.391 223.26 108.424C223.308 108.38 223.348 108.327 223.376 108.267C223.403 108.208 223.419 108.144 223.422 108.078C223.424 108.013 223.413 107.947 223.39 107.886C223.367 107.825 223.332 107.768 223.287 107.721C223.242 107.673 223.188 107.635 223.128 107.608C223.068 107.582 223.003 107.568 222.938 107.566C222.872 107.565 222.807 107.577 222.746 107.602C222.686 107.626 222.63 107.662 222.584 107.708C220.493 109.707 218.53 111.835 216.705 114.079C216.625 114.182 216.588 114.313 216.604 114.442C216.619 114.572 216.685 114.691 216.787 114.772C216.874 114.841 216.982 114.878 217.093 114.877Z" fill="#1D1D1B"/>
<path d="M232.105 112.758C232.063 114.377 231.65 114.771 232.328 119.654L232.105 112.758Z" fill="#FFCDB2"/>
<path d="M232.327 120.134H232.396C232.525 120.115 232.642 120.046 232.72 119.941C232.799 119.837 232.833 119.706 232.816 119.576C232.307 115.964 232.416 114.884 232.518 113.856C232.55 113.527 232.586 113.199 232.596 112.775C232.599 112.645 232.55 112.519 232.46 112.424C232.371 112.329 232.247 112.274 232.117 112.27C231.988 112.27 231.864 112.32 231.772 112.41C231.68 112.501 231.627 112.623 231.624 112.752C231.624 113.123 231.585 113.432 231.552 113.757C231.447 114.792 231.329 115.967 231.854 119.714C231.87 119.829 231.927 119.934 232.013 120.011C232.1 120.088 232.211 120.132 232.327 120.134Z" fill="#1D1D1B"/>
<path d="M218.81 126.163C218.81 126.163 225.69 125.939 227.617 129.631L218.81 126.163Z" fill="#FFCDB2"/>
<path d="M227.618 130.123C227.696 130.122 227.774 130.103 227.844 130.067C227.957 130.006 228.043 129.904 228.082 129.781C228.121 129.658 228.111 129.525 228.054 129.41C226.008 125.489 219.086 125.67 218.794 125.68C218.663 125.684 218.539 125.74 218.45 125.835C218.361 125.931 218.313 126.058 218.317 126.189C218.322 126.319 218.378 126.443 218.473 126.532C218.569 126.621 218.696 126.669 218.826 126.665C218.892 126.665 225.421 126.494 227.181 129.867C227.224 129.945 227.287 130.01 227.364 130.055C227.44 130.1 227.528 130.124 227.618 130.123Z" fill="#1D1D1B"/>
<path d="M225.482 116.996C225.492 118.265 225.746 119.521 226.23 120.694L225.482 116.996Z" fill="#FFCDB2"/>
<path d="M226.233 121.176C226.305 121.175 226.375 121.159 226.44 121.13C226.558 121.073 226.649 120.973 226.693 120.85C226.738 120.727 226.731 120.591 226.676 120.473C226.225 119.366 225.987 118.184 225.974 116.989C225.974 116.858 225.922 116.733 225.829 116.64C225.737 116.548 225.612 116.496 225.481 116.496C225.351 116.496 225.225 116.548 225.133 116.64C225.04 116.733 224.989 116.858 224.989 116.989C224.998 118.331 225.269 119.658 225.786 120.897C225.827 120.981 225.89 121.052 225.969 121.101C226.048 121.151 226.14 121.177 226.233 121.176Z" fill="#1D1D1B"/>
<path d="M267.766 192.806C227 183.247 238.454 159.967 238.454 159.967L232.244 153.606L249.422 131.003L256.847 132.868C256.847 132.868 271.195 118.228 305.912 151.498C340.63 184.767 280.718 217.527 275.392 233.018" fill="#07ACEE"/>
<path d="M275.86 233.186C277.318 228.953 283.084 223.249 289.803 216.648C302.046 204.58 317.286 189.56 317.171 173.268C317.115 165.479 313.444 158.037 306.256 151.151C291.77 137.27 279.032 129.894 268.392 129.224C261.312 128.778 257.608 131.549 256.711 132.334L249.227 130.456L231.596 153.656L237.868 160.08C236.881 162.507 236.408 165.112 236.478 167.732C236.549 170.351 237.162 172.927 238.279 175.297C242.193 183.583 252.071 189.635 267.657 193.287L267.883 192.328C252.619 188.748 242.961 182.883 239.175 174.894C235.54 167.222 238.863 160.26 238.899 160.191L239.05 159.863L232.896 153.558L249.618 131.556L257.003 133.408L257.2 133.208C257.233 133.171 260.79 129.684 268.441 130.199C275.581 130.682 287.817 134.83 305.573 151.847C312.561 158.546 316.134 165.748 316.186 173.261C316.298 189.136 301.222 203.996 289.11 215.933C282.323 222.622 276.461 228.411 274.93 232.851L275.86 233.186Z" fill="#1D1D1B"/>
<path d="M256.62 133.551L249.487 131.762L232.992 153.468L238.956 159.576L238.913 159.668C244.686 156.634 255.461 148.94 256.82 133.371C256.699 133.482 256.62 133.551 256.62 133.551Z" fill="#0598C6"/>
<path d="M124.148 189.169C158.265 125.586 126.66 116.305 126.66 116.305L126.785 105.981L98.7966 100.664L94.6949 108.174C94.6949 108.174 77.6647 107.554 71.9474 163.117C65.5306 225.456 98.7145 231.039 150.82 238.171" fill="#07ACEE"/>
<path d="M150.825 238.665C150.955 238.674 151.084 238.631 151.183 238.544C151.281 238.458 151.342 238.336 151.35 238.206C151.359 238.075 151.315 237.946 151.229 237.848C151.143 237.749 151.021 237.689 150.891 237.68C126.82 234.396 104.082 231.27 89.7277 220.932C74.7662 210.164 69.433 192.346 72.4378 163.135C75.3605 134.726 81.3044 121.407 85.7476 115.233C90.529 108.609 94.6404 108.632 94.6831 108.636C94.7736 108.637 94.863 108.614 94.9416 108.569C95.0201 108.524 95.0851 108.458 95.1298 108.38L99.0705 101.184L126.304 106.353L126.182 116.271C126.181 116.378 126.214 116.482 126.278 116.568C126.341 116.654 126.431 116.717 126.534 116.747C126.603 116.77 133.581 118.927 137.249 127.735C141.101 136.969 141.88 155.08 123.729 188.904C123.696 188.961 123.674 189.025 123.665 189.091C123.657 189.156 123.661 189.223 123.679 189.287C123.697 189.351 123.727 189.411 123.769 189.462C123.81 189.514 123.862 189.557 123.92 189.588C123.979 189.62 124.043 189.639 124.109 189.645C124.175 189.651 124.242 189.644 124.305 189.623C124.368 189.603 124.426 189.57 124.476 189.527C124.526 189.483 124.567 189.43 124.596 189.371C132.724 174.222 137.794 160.873 139.669 149.688C141.154 140.821 140.655 133.288 138.146 127.321C134.724 119.144 128.711 116.484 127.171 115.923L127.292 105.953C127.294 105.837 127.254 105.725 127.181 105.635C127.108 105.546 127.005 105.485 126.892 105.463L98.9031 100.15C98.8007 100.13 98.6943 100.143 98.5997 100.187C98.5052 100.231 98.4273 100.305 98.3775 100.396L94.4105 107.664C93.294 107.759 89.4389 108.537 85.0844 114.488C78.4312 123.571 73.8533 139.905 71.4725 163.034C69.8962 178.347 70.6515 190.523 73.7712 200.26C76.6939 209.353 81.728 216.371 89.1562 221.714C103.707 232.186 126.563 235.316 150.759 238.629L150.825 238.665Z" fill="#1D1D1B"/>
<path d="M95.3255 108.568L99.2662 101.344L126.148 106.45L126.027 116.368L126.122 116.41C119.85 118.469 106.747 120.601 95.0561 108.565C95.2302 108.565 95.3255 108.568 95.3255 108.568Z" fill="#0598C6"/>
<path d="M232.11 210.988C230.48 210.988 229.158 209.663 229.158 208.029C229.158 206.395 230.48 205.07 232.11 205.07C233.741 205.07 235.062 206.395 235.062 208.029C235.062 209.663 233.741 210.988 232.11 210.988Z" fill="#51CEF4"/>
<path d="M170.423 180.82C168.793 180.82 167.471 179.495 167.471 177.861C167.471 176.227 168.793 174.902 170.423 174.902C172.053 174.902 173.375 176.227 173.375 177.861C173.375 179.495 172.053 180.82 170.423 180.82Z" fill="#51CEF4"/>
<path d="M149.213 219.23C149.108 219.849 149.201 220.485 149.481 221.046C149.761 221.608 150.212 222.066 150.769 222.354C151.326 222.643 151.961 222.746 152.581 222.649C153.201 222.553 153.774 222.261 154.218 221.817C154.661 221.373 154.952 220.8 155.047 220.18C155.143 219.56 155.039 218.925 154.75 218.368C154.461 217.811 154.002 217.361 153.44 217.082C152.878 216.803 152.242 216.71 151.624 216.817C151.022 216.92 150.467 217.208 150.035 217.641C149.603 218.073 149.316 218.628 149.213 219.23Z" fill="#51CEF4"/>
<path d="M208.452 238.769C208.346 239.388 208.439 240.024 208.719 240.586C208.999 241.147 209.45 241.605 210.007 241.893C210.565 242.182 211.2 242.285 211.82 242.188C212.44 242.092 213.013 241.8 213.456 241.356C213.899 240.912 214.19 240.339 214.286 239.719C214.381 239.099 214.277 238.464 213.988 237.907C213.7 237.35 213.241 236.9 212.679 236.621C212.117 236.342 211.48 236.249 210.862 236.356C210.26 236.459 209.705 236.747 209.274 237.18C208.842 237.612 208.555 238.167 208.452 238.769Z" fill="#51CEF4"/>
<path d="M160.069 263.582C159.963 264.2 160.057 264.836 160.336 265.398C160.616 265.96 161.067 266.418 161.625 266.706C162.182 266.994 162.817 267.097 163.437 267.001C164.057 266.904 164.63 266.613 165.073 266.169C165.517 265.725 165.807 265.151 165.903 264.531C165.999 263.911 165.895 263.277 165.606 262.72C165.317 262.163 164.858 261.712 164.296 261.433C163.734 261.154 163.098 261.061 162.479 261.168C161.877 261.272 161.322 261.56 160.891 261.992C160.459 262.424 160.172 262.98 160.069 263.582Z" fill="#51CEF4"/>
<path d="M287.657 189.292C284.639 188.619 283.273 192.31 286.015 193.758C289.02 194.428 290.386 190.74 287.657 189.292Z" fill="#51CEF4"/>
<path d="M297.028 155.59C294.011 154.933 292.644 158.607 295.386 160.056C298.404 160.729 299.757 157.038 297.028 155.59Z" fill="#51CEF4"/>
<path d="M254.071 166.496C251.053 165.839 249.687 169.514 252.429 170.962C255.434 171.622 256.8 167.934 254.071 166.496Z" fill="#51CEF4"/>
<path d="M279.544 139.101C276.526 138.444 275.16 142.122 277.902 143.571C280.906 144.241 282.273 140.556 279.544 139.101Z" fill="#51CEF4"/>
<path d="M111.158 180.373C112.882 177.395 116.412 179.411 115.427 182.813C113.703 185.792 110.176 183.776 111.158 180.373Z" fill="#51CEF4"/>
<path d="M81.1932 159.459C82.9172 156.481 86.4475 158.497 85.4623 161.903C83.7349 164.881 80.208 162.861 81.1932 159.459Z" fill="#51CEF4"/>
<path d="M119.814 134.287C121.542 131.309 125.068 133.325 124.083 136.731C122.359 139.709 118.832 137.693 119.814 134.287Z" fill="#51CEF4"/>
<path d="M82.5251 131.576C84.2524 128.597 87.7794 130.617 86.7942 134.019C85.0701 136.997 81.5432 134.971 82.5251 131.576Z" fill="#51CEF4"/>
<path d="M97.5358 109.917C107.026 111.007 116.001 110.534 124.342 108.156C130.767 106.305 136.342 102.266 140.103 96.738C143.864 91.2099 145.573 84.5409 144.936 77.8853C143.576 63.6364 137.935 50.3727 128.608 37.9727C115.515 47.4566 106.806 53.962 88.9515 52.7503C101.834 72.3027 114.566 95.3623 97.5358 109.917Z" fill="white"/>
<path d="M106.874 110.96C112.822 111.003 118.747 110.218 124.479 108.628C131.018 106.752 136.693 102.645 140.52 97.0207C144.347 91.3962 146.083 84.6091 145.427 77.838C144.113 63.9109 138.573 50.3976 129.007 37.6757C128.97 37.6242 128.922 37.5805 128.867 37.5473C128.813 37.5141 128.752 37.492 128.689 37.4823C128.626 37.4725 128.561 37.4753 128.499 37.4904C128.437 37.5056 128.379 37.5329 128.327 37.5707L127.799 37.9549C114.929 47.2812 106.424 53.4385 88.9926 52.2497C88.901 52.2432 88.8093 52.2625 88.728 52.3053C88.6467 52.3481 88.5792 52.4127 88.5327 52.492C88.4863 52.5712 88.463 52.6619 88.4654 52.7537C88.4677 52.8455 88.4957 52.9349 88.5462 53.0116C94.674 62.3117 101.298 73.1847 103.981 83.332C106.956 94.5301 104.742 103.104 97.2091 109.541C97.1368 109.604 97.0839 109.686 97.0571 109.778C97.0303 109.87 97.0308 109.968 97.0581 110.06C97.0886 110.149 97.1441 110.227 97.2181 110.285C97.2921 110.344 97.3812 110.379 97.475 110.388C100.594 110.759 103.732 110.95 106.874 110.96ZM128.505 38.6543C137.788 51.1332 143.151 64.328 144.445 77.93C145.08 84.4721 143.403 91.0301 139.707 96.4651C136.01 101.9 130.527 105.869 124.209 107.682C116.541 109.866 107.964 110.493 98.6933 109.547C105.865 102.93 107.908 94.2575 104.933 83.0791C102.279 73.096 95.9117 62.4726 89.8989 53.2908C91.0285 53.3542 92.1232 53.3849 93.1828 53.3827C108.174 53.3827 116.407 47.4158 128.364 38.7529L128.505 38.6543Z" fill="#1D1D1B"/>
<path d="M144.848 84.1328C144.848 84.1328 138.937 94.2079 130.188 93.1701C130.188 93.1701 134.326 104.664 126.208 107.554C126.208 107.554 142.575 102.736 144.848 84.1328Z" fill="#4BD657"/>
<path d="M126.348 108.022C126.519 107.973 130.585 106.751 134.985 103.201C139.048 99.9172 144.141 93.9667 145.336 84.1905L145.625 81.8359L144.423 83.8818C144.364 83.9804 138.561 93.6646 130.246 92.6794L129.455 92.5875L129.724 93.3362C129.744 93.3986 131.888 99.4771 129.905 103.681C129.526 104.481 128.989 105.195 128.325 105.781C127.661 106.366 126.884 106.81 126.043 107.086L126.348 108.022ZM144.022 86.2101C141.934 97.047 134.745 102.689 130.122 105.257C130.379 104.891 130.604 104.503 130.795 104.098C132.555 100.374 131.416 95.5364 130.88 93.7237C137.202 94.0521 141.895 89.031 144.022 86.2101Z" fill="black"/>
<path d="M140.561 71.8728C140.669 71.8728 140.775 71.8516 140.875 71.8103C140.974 71.769 141.065 71.7084 141.141 71.6322C141.217 71.5559 141.277 71.4653 141.318 71.3657C141.359 71.2662 141.379 71.1595 141.379 71.0518C141.379 62.4151 130.644 45.411 130.184 44.6919C130.065 44.5126 129.881 44.3871 129.671 44.3423C129.46 44.2974 129.241 44.3369 129.059 44.4522C128.878 44.5674 128.749 44.7493 128.7 44.9587C128.651 45.1681 128.686 45.3883 128.798 45.572C128.91 45.7427 139.734 62.8913 139.737 71.0518C139.738 71.2699 139.825 71.4787 139.979 71.6326C140.134 71.7864 140.343 71.8728 140.561 71.8728Z" fill="white"/>
<path d="M61.3093 154.328C61.3616 154.328 61.4136 154.321 61.4636 154.305C73.0459 150.506 83.0292 145.363 91.1371 139.015C97.636 133.932 102.959 128.067 106.936 121.584C113.734 110.531 114.292 101.648 114.312 101.273C114.315 101.209 114.306 101.144 114.284 101.083C114.263 101.022 114.229 100.966 114.186 100.917C114.143 100.869 114.09 100.83 114.032 100.802C113.973 100.774 113.91 100.758 113.846 100.755C113.781 100.751 113.716 100.76 113.655 100.782C113.594 100.804 113.537 100.837 113.489 100.88C113.441 100.924 113.402 100.976 113.374 101.034C113.346 101.093 113.33 101.156 113.327 101.221C113.327 101.31 112.749 110.271 106.063 121.121C99.8888 131.141 87.0846 144.867 61.1516 153.369C61.0414 153.407 60.9482 153.482 60.8883 153.582C60.8283 153.682 60.8056 153.799 60.8241 153.914C60.8426 154.029 60.9011 154.134 60.9893 154.209C61.0775 154.285 61.1898 154.327 61.3061 154.328H61.3093Z" fill="#1D1E1B"/>
<path d="M93.4056 154.626C93.4882 154.627 93.5696 154.607 93.642 154.567C109.733 145.746 116.708 132.394 119.736 122.746C123.02 112.296 122.485 103.801 122.481 103.699C122.473 103.568 122.412 103.447 122.314 103.36C122.215 103.274 122.086 103.231 121.956 103.239C121.825 103.248 121.703 103.308 121.617 103.407C121.531 103.505 121.488 103.634 121.496 103.765C121.496 103.85 122.018 112.191 118.783 122.483C115.808 131.947 108.932 145.047 93.169 153.7C93.0712 153.751 92.9938 153.834 92.949 153.934C92.9041 154.035 92.8946 154.148 92.922 154.255C92.9494 154.362 93.0119 154.456 93.0997 154.523C93.1875 154.59 93.2954 154.625 93.4056 154.623V154.626Z" fill="#1D1E1B"/>
<path d="M101.398 104.763C101.398 104.763 90.926 107.091 86.322 95.7252C81.7179 84.3595 81.0055 72.4094 87.1891 65.1848C93.3727 57.9602 100.771 57.4939 105.632 59.7368C110.492 61.9797 111.398 67.2898 107.372 72.7805C107.372 72.7805 114.955 78.2613 107.306 87.5252C110.492 88.6418 113.247 98.2801 103.861 99.7743C103.519 101.633 102.667 103.361 101.398 104.763Z" fill="#FFCDB2"/>
<path d="M99.2184 105.437C99.989 105.446 100.759 105.382 101.517 105.243L101.675 105.207L101.78 105.086C103.022 103.706 103.886 102.028 104.289 100.216C108.124 99.5032 110.482 97.2406 110.774 93.9764C111.014 91.3164 109.789 88.4463 108.085 87.3757C110.485 84.2987 111.52 81.3005 111.155 78.45C110.839 76.2268 109.738 74.1898 108.052 72.7065C110.085 69.7707 110.837 66.7626 110.173 64.2011C109.618 62.0502 108.121 60.359 105.848 59.3081C101.146 57.1374 93.3401 57.2918 86.8248 64.8908C81.0747 71.5867 80.7201 83.1887 85.8759 95.9237C89.2386 104.242 95.7604 105.437 99.2184 105.437ZM101.136 104.314C99.8028 104.557 90.9199 105.762 86.7789 95.5428C81.7644 83.1526 82.0566 71.9315 87.5605 65.5213C93.7145 58.3558 100.824 58.0734 105.425 60.1981C107.421 61.1209 108.732 62.5887 109.211 64.4442C109.829 66.825 109.034 69.6984 106.975 72.5029L106.683 72.9035L107.083 73.1925C108.752 74.5409 109.853 76.4664 110.17 78.588C110.498 81.3005 109.421 84.2067 106.926 87.2279L106.476 87.7731L107.132 88.0062C108.554 88.5021 110.016 91.1818 109.76 93.8877C109.609 95.5757 108.627 98.5279 103.76 99.3029L103.415 99.3587L103.353 99.6871C103.042 101.4 102.277 102.999 101.136 104.314Z" fill="black"/>
<path d="M90.016 76.9014C90.0827 76.9011 90.1486 76.8876 90.2101 76.8616C90.2715 76.8357 90.3272 76.7979 90.3739 76.7503C90.4429 76.6748 97.5494 69.4371 108.321 73.4894C108.383 73.5195 108.451 73.5361 108.52 73.5382C108.589 73.5402 108.658 73.5277 108.722 73.5015C108.786 73.4752 108.843 73.4358 108.891 73.3857C108.939 73.3356 108.976 73.2761 108.999 73.211C109.022 73.1458 109.031 73.0765 109.026 73.0076C109.02 72.9386 109 72.8716 108.967 72.8108C108.934 72.75 108.889 72.6969 108.834 72.6548C108.78 72.6127 108.716 72.5827 108.649 72.5666C97.2571 68.2779 89.7205 75.9918 89.645 76.0673C89.5527 76.1597 89.501 76.2849 89.501 76.4154C89.501 76.546 89.5527 76.6711 89.645 76.7635C89.6937 76.8112 89.752 76.8482 89.8159 76.872C89.8799 76.8957 89.948 76.9058 90.016 76.9014Z" fill="#1D1D1B"/>
<path d="M92.5635 88.1559C92.6126 88.1563 92.6616 88.1485 92.7082 88.1329C92.7935 88.1067 101.381 85.5354 107.216 88.0607C107.336 88.1129 107.472 88.1155 107.594 88.0677C107.715 88.02 107.813 87.9259 107.865 87.8062C107.917 87.6864 107.92 87.5508 107.872 87.4292C107.824 87.3076 107.73 87.2099 107.611 87.1576C101.437 84.4845 92.787 87.0788 92.4192 87.1904C92.3048 87.2238 92.2064 87.2975 92.1421 87.3978C92.0779 87.4982 92.052 87.6184 92.0696 87.7363C92.0873 87.8541 92.1472 87.9616 92.238 88.0388C92.3288 88.1159 92.4444 88.1575 92.5635 88.1559Z" fill="#1D1D1B"/>
<path d="M99.5809 100.893C101.205 100.878 102.82 100.645 104.382 100.2C104.507 100.162 104.612 100.076 104.673 99.9602C104.734 99.8448 104.747 99.7097 104.709 99.5847C104.671 99.4597 104.584 99.3551 104.469 99.2938C104.353 99.2325 104.218 99.2196 104.093 99.2579C104.037 99.2579 98.6024 100.9 95.3776 98.9296C95.3223 98.893 95.2603 98.8679 95.1951 98.8559C95.13 98.8438 95.0632 98.845 94.9985 98.8594C94.9339 98.8739 94.8728 98.9012 94.8189 98.9397C94.7651 98.9783 94.7194 99.0273 94.6849 99.0839C94.6504 99.1405 94.6278 99.2034 94.6182 99.269C94.6086 99.3345 94.6122 99.4014 94.6291 99.4654C94.6459 99.5295 94.6757 99.5895 94.7163 99.6419C94.7569 99.6943 94.8076 99.7379 94.8654 99.7703C96.2709 100.627 97.9915 100.893 99.5809 100.893Z" fill="#1D1D1B"/>
<path d="M86.3101 71.9231C86.4797 71.923 86.6451 71.8706 86.7838 71.773C86.9225 71.6755 87.0278 71.5375 87.0852 71.378C87.1049 71.3222 89.2066 65.6279 94.4609 63.1682C97.7448 61.6379 101.548 61.651 105.82 63.2109C106.025 63.2854 106.25 63.2755 106.448 63.1834C106.645 63.0913 106.798 62.9246 106.872 62.72C106.947 62.5153 106.937 62.2894 106.845 62.092C106.753 61.8947 106.586 61.7419 106.381 61.6675C101.679 59.9533 97.4296 59.9598 93.7483 61.6872C87.8734 64.4456 85.6305 70.5537 85.5385 70.8263C85.4952 70.9501 85.482 71.0824 85.5 71.2123C85.5181 71.3422 85.567 71.4659 85.6424 71.5732C85.7179 71.6805 85.8178 71.7682 85.9339 71.829C86.0501 71.8899 86.179 71.9221 86.3101 71.9231Z" fill="white"/>
<path d="M90.1113 81.7938C90.2388 81.7941 90.3647 81.7645 90.4788 81.7075C90.5928 81.6504 90.6918 81.5676 90.768 81.4654C90.9979 81.137 96.4691 73.9321 105.782 77.1536C105.886 77.1953 105.996 77.2155 106.108 77.213C106.219 77.2106 106.328 77.1855 106.429 77.1394C106.531 77.0932 106.622 77.027 106.697 76.9446C106.772 76.8622 106.829 76.7655 106.865 76.6602C106.902 76.555 106.916 76.4435 106.908 76.3325C106.9 76.2214 106.869 76.1132 106.818 76.0144C106.767 75.9155 106.696 75.8281 106.61 75.7575C106.524 75.6869 106.425 75.6345 106.318 75.6036C95.8386 71.9913 89.5073 80.408 89.4449 80.4934C89.3534 80.6153 89.2976 80.7604 89.2839 80.9122C89.2702 81.0641 89.2991 81.2167 89.3673 81.3531C89.4354 81.4895 89.5403 81.6042 89.67 81.6843C89.7997 81.7645 89.9492 81.8069 90.1016 81.8069L90.1113 81.7938Z" fill="white"/>
<path d="M126 61.0859C126 61.0859 121.462 68.4222 109.466 68.7867L126 61.0859Z" fill="white"/>
<path d="M109.471 69.2712C121.595 68.9034 126.219 61.6459 126.409 61.3372C126.476 61.2262 126.497 61.0932 126.467 60.9672C126.436 60.8411 126.357 60.732 126.247 60.6637C126.137 60.5954 126.004 60.5733 125.878 60.6023C125.752 60.6312 125.642 60.7089 125.572 60.8184C125.529 60.8906 121.011 67.9346 109.441 68.286C109.311 68.286 109.186 68.3379 109.093 68.4303C109.001 68.5227 108.949 68.6479 108.949 68.7786C108.949 68.9092 109.001 69.0345 109.093 69.1269C109.186 69.2192 109.311 69.2712 109.441 69.2712H109.471Z" fill="#1D1D1B"/>
<path d="M128.18 75.6523C128.18 75.6523 123.218 82.1676 111.12 79.9937L128.18 75.6523Z" fill="white"/>
<path d="M115.921 80.9369C124.656 80.9369 128.4 76.1884 128.571 75.9519C128.614 75.901 128.646 75.8418 128.666 75.778C128.685 75.7141 128.692 75.6469 128.685 75.5805C128.678 75.5141 128.657 75.4498 128.624 75.3916C128.591 75.3334 128.547 75.2825 128.494 75.2419C128.441 75.2013 128.38 75.172 128.316 75.1556C128.251 75.1393 128.183 75.1362 128.117 75.1467C128.051 75.1573 127.988 75.1811 127.932 75.2167C127.875 75.2524 127.827 75.2992 127.789 75.3542C127.74 75.4166 122.833 81.5937 111.208 79.5117C111.078 79.4886 110.943 79.5184 110.834 79.5944C110.726 79.6705 110.652 79.7866 110.629 79.9172C110.606 80.0479 110.636 80.1824 110.712 80.291C110.788 80.3997 110.904 80.4738 111.034 80.4969C112.647 80.7878 114.282 80.935 115.921 80.9369Z" fill="#1D1D1B"/>
<path d="M336.428 17.1724C337.189 24.2514 337.158 31.3932 336.336 38.4653C335.524 45.4892 333.983 52.4095 331.739 59.1146C329.484 65.8526 326.55 72.3442 322.984 78.4896C319.432 84.6164 315.25 90.355 310.505 95.612C305.782 100.865 300.496 105.583 294.742 109.68C294.02 110.196 293.284 110.698 292.545 111.191C292.4 111.304 292.218 111.358 292.034 111.341C291.851 111.324 291.681 111.237 291.56 111.099C291.442 110.956 291.385 110.773 291.402 110.588C291.418 110.404 291.507 110.233 291.649 110.114C297.475 106.221 302.853 101.695 307.684 96.6201C312.501 91.5514 316.774 85.992 320.432 80.0331C324.105 74.0701 327.158 67.7475 329.545 61.1637C331.942 54.5872 333.648 47.7791 334.635 40.8494C335.617 33.9446 335.837 26.9528 335.292 19.9999C335.22 19.1362 335.141 18.2758 335.046 17.4122C334.95 16.5485 336.33 16.2857 336.425 17.1855L336.428 17.1724Z" fill="black"/>
<path d="M350.902 80.838C348.708 84.0996 346.321 87.2281 343.756 90.2069C341.159 93.2121 338.388 96.063 335.458 98.7451C329.621 104.088 323.179 108.73 316.263 112.577C312.828 114.488 309.282 116.192 305.643 117.68L304.28 118.225C304.11 118.297 303.92 118.3 303.747 118.234C303.575 118.169 303.434 118.04 303.354 117.874C303.28 117.705 303.274 117.513 303.339 117.34C303.404 117.167 303.535 117.026 303.702 116.948C310.973 114.105 317.879 110.406 324.273 105.927C327.476 103.681 330.546 101.251 333.468 98.6499C339.289 93.485 344.47 87.6418 348.902 81.2452C349.182 80.8445 349.458 80.4406 349.73 80.0334C350.232 79.2847 351.372 80.0892 350.879 80.8347L350.902 80.838Z" fill="black"/>
<path d="M144.929 138.797C145.041 138.797 145.15 138.759 145.237 138.688C145.325 138.618 145.385 138.519 145.408 138.409C147.3 129.897 138.84 119.507 138.486 119.07C138.403 118.969 138.283 118.906 138.152 118.893C138.022 118.88 137.892 118.92 137.791 119.003C137.69 119.086 137.626 119.206 137.614 119.336C137.601 119.467 137.641 119.597 137.724 119.698C137.809 119.799 146.236 130.154 144.449 138.196C144.421 138.323 144.444 138.456 144.513 138.566C144.583 138.677 144.693 138.755 144.82 138.784C144.856 138.791 144.892 138.796 144.929 138.797Z" fill="#1D1E1B"/>
<path d="M72.972 211.372C73.0544 211.372 73.1358 211.351 73.2087 211.313C73.3204 211.25 73.4034 211.147 73.4402 211.024C73.477 210.901 73.4645 210.769 73.4056 210.656C64.2993 193.964 68.1513 175.19 68.1808 175.015C68.1996 174.891 68.1703 174.764 68.0987 174.661C68.0271 174.558 67.9189 174.486 67.796 174.46C67.673 174.434 67.5447 174.456 67.4374 174.521C67.3302 174.587 67.2519 174.691 67.2187 174.812C67.1793 175.002 63.255 194.105 72.5419 211.129C72.5854 211.204 72.6481 211.266 72.7238 211.309C72.7994 211.352 72.8851 211.373 72.972 211.372Z" fill="#1D1E1B"/>
<path d="M315.514 193.383C315.592 193.384 315.669 193.365 315.738 193.33C315.807 193.294 315.867 193.243 315.912 193.18C322.736 183.758 323.311 175.095 322.592 169.489C321.813 163.404 319.442 159.602 319.34 159.441C319.267 159.34 319.158 159.27 319.035 159.247C318.912 159.224 318.785 159.248 318.679 159.315C318.573 159.381 318.497 159.486 318.465 159.607C318.434 159.728 318.45 159.856 318.509 159.966C318.532 160.006 320.877 163.779 321.623 169.66C322.306 175.082 321.734 183.453 315.114 192.602C315.038 192.708 315.007 192.84 315.028 192.969C315.049 193.099 315.12 193.214 315.226 193.291C315.31 193.352 315.411 193.384 315.514 193.383Z" fill="#1D1E1B"/>
<path d="M186.145 82.192C186.186 82.1966 186.228 82.1966 186.27 82.192C186.396 82.1588 186.504 82.0769 186.569 81.9642C186.635 81.8515 186.654 81.7173 186.621 81.591L183.639 70.3272C183.605 70.2009 183.523 70.0931 183.41 70.0275C183.297 69.9619 183.163 69.9439 183.036 69.9774C182.91 70.011 182.802 70.0933 182.737 70.2063C182.671 70.3193 182.653 70.4538 182.687 70.5801L185.669 81.8406C185.698 81.9434 185.761 82.0336 185.847 82.0971C185.933 82.1606 186.038 82.194 186.145 82.192Z" fill="#1D1E1B"/>
<path d="M180.513 84.5101C180.581 84.5105 180.648 84.4964 180.711 84.4687C180.773 84.4409 180.829 84.4002 180.874 84.3492C180.918 84.3016 180.952 84.2457 180.974 84.185C180.996 84.1242 181.006 84.0596 181.003 83.995C181.001 83.9303 180.985 83.8669 180.958 83.8082C180.931 83.7495 180.892 83.6968 180.844 83.653L173.226 76.6977C173.127 76.6272 173.007 76.5954 172.886 76.6083C172.766 76.6212 172.655 76.6778 172.574 76.7675C172.493 76.8572 172.447 76.9736 172.446 77.0946C172.446 77.2156 172.489 77.3326 172.569 77.4234L180.184 84.3985C180.277 84.4745 180.393 84.5142 180.513 84.5101Z" fill="#1D1E1B"/>
<path d="M289.179 289.64L289.184 290.625L110.813 291.497L110.809 290.512L289.179 289.64Z" fill="#1D1E1B"/>
<path d="M268.538 298.641H313.512V299.626H268.538V298.641Z" fill="#1D1E1B"/>
<path d="M304.644 154.674C304.773 154.674 304.899 154.636 305.007 154.565C305.115 154.493 305.199 154.391 305.25 154.272C305.3 154.153 305.313 154.021 305.289 153.894C305.265 153.767 305.204 153.65 305.113 153.558C300.426 148.934 295.32 144.756 289.859 141.079C278.083 133.227 268.074 130.521 260.114 133.033C260.031 133.059 259.955 133.101 259.889 133.156C259.822 133.212 259.768 133.28 259.728 133.356C259.688 133.433 259.663 133.516 259.656 133.602C259.648 133.688 259.658 133.775 259.683 133.857C259.709 133.94 259.751 134.016 259.807 134.082C259.862 134.149 259.93 134.203 260.006 134.243C260.083 134.283 260.167 134.308 260.253 134.315C260.339 134.323 260.425 134.313 260.508 134.288C278.625 128.567 303.921 154.221 304.184 154.48C304.305 154.603 304.471 154.673 304.644 154.674Z" fill="white"/>
<path d="M147.016 168.465C147.11 168.465 147.203 168.445 147.288 168.406C165.678 160.022 184.603 159.602 184.791 159.599C184.965 159.596 185.131 159.524 185.252 159.399C185.373 159.274 185.44 159.106 185.437 158.932C185.435 158.758 185.363 158.592 185.238 158.471C185.113 158.349 184.945 158.283 184.771 158.285C184.577 158.285 165.369 158.715 146.743 167.211C146.607 167.273 146.495 167.38 146.428 167.514C146.361 167.648 146.342 167.801 146.374 167.948C146.405 168.095 146.486 168.226 146.603 168.32C146.72 168.414 146.866 168.465 147.016 168.465Z" fill="white"/>
<defs>
<filter id="filter0_d_14954_52062" x="371.334" y="107.785" width="38.6868" height="38.6829" filterUnits="userSpaceOnUse" color-interpolation-filters="sRGB">
<feFlood flood-opacity="0" result="BackgroundImageFix"/>
<feColorMatrix in="SourceAlpha" type="matrix" values="0 0 0 0 0 0 0 0 0 0 0 0 0 0 0 0 0 0 127 0" result="hardAlpha"/>
<feOffset dy="2.03704"/>
<feGaussianBlur stdDeviation="5.09261"/>
<feComposite in2="hardAlpha" operator="out"/>
<feColorMatrix type="matrix" values="0 0 0 0 0 0 0 0 0 0 0 0 0 0 0 0 0 0 0.05 0"/>
<feBlend mode="normal" in2="BackgroundImageFix" result="effect1_dropShadow_14954_52062"/>
<feBlend mode="normal" in="SourceGraphic" in2="effect1_dropShadow_14954_52062" result="shape"/>
</filter>
<filter id="filter1_d_14954_52062" x="-3.33756" y="165.207" width="38.6868" height="38.6907" filterUnits="userSpaceOnUse" color-interpolation-filters="sRGB">
<feFlood flood-opacity="0" result="BackgroundImageFix"/>
<feColorMatrix in="SourceAlpha" type="matrix" values="0 0 0 0 0 0 0 0 0 0 0 0 0 0 0 0 0 0 127 0" result="hardAlpha"/>
<feOffset dy="2.03704"/>
<feGaussianBlur stdDeviation="5.09261"/>
<feComposite in2="hardAlpha" operator="out"/>
<feColorMatrix type="matrix" values="0 0 0 0 0 0 0 0 0 0 0 0 0 0 0 0 0 0 0.05 0"/>
<feBlend mode="normal" in2="BackgroundImageFix" result="effect1_dropShadow_14954_52062"/>
<feBlend mode="normal" in="SourceGraphic" in2="effect1_dropShadow_14954_52062" result="shape"/>
</filter>
<linearGradient id="paint0_linear_14954_52062" x1="385.547" y1="112.036" x2="13.9493" y2="200.545" gradientUnits="userSpaceOnUse">
<stop stop-color="#CDD5E2"/>
<stop offset="1" stop-color="#CDD5E2" stop-opacity="0"/>
</linearGradient>
<linearGradient id="paint1_linear_14954_52062" x1="14.5894" y1="195.436" x2="52.1499" y2="294.043" gradientUnits="userSpaceOnUse">
<stop stop-color="#CDD5E2"/>
<stop offset="1" stop-color="#CDD5E2" stop-opacity="0"/>
</linearGradient>
<linearGradient id="paint2_linear_14954_52062" x1="170.873" y1="0" x2="170.873" y2="341.745" gradientUnits="userSpaceOnUse">
<stop stop-color="#CDD5E2"/>
<stop offset="1" stop-color="#CDD5E2" stop-opacity="0"/>
</linearGradient>
<linearGradient id="paint3_linear_14954_52062" x1="136.698" y1="0" x2="136.698" y2="273.396" gradientUnits="userSpaceOnUse">
<stop stop-color="#CDD5E2"/>
<stop offset="1" stop-color="#CDD5E2" stop-opacity="0"/>
</linearGradient>
</defs>
</svg>
