<svg width="1920" height="1270" viewBox="0 0 1920 1270" fill="none" xmlns="http://www.w3.org/2000/svg">
<mask id="mask0_14516_47874" style="mask-type:alpha" maskUnits="userSpaceOnUse" x="0" y="0" width="1920" height="1270">
<rect width="1920" height="1270" fill="#212237"/>
</mask>
<g mask="url(#mask0_14516_47874)">
<g opacity="0.08">
<line y1="81.3335" x2="1920" y2="81.3335" stroke="url(#paint0_linear_14516_47874)"/>
<line y1="652.333" x2="1920" y2="652.333" stroke="url(#paint1_linear_14516_47874)"/>
<line y1="570.5" x2="1920" y2="570.5" stroke="url(#paint2_linear_14516_47874)"/>
<line y1="163.167" x2="1920" y2="163.167" stroke="url(#paint3_linear_14516_47874)"/>
<line y1="734.167" x2="1920" y2="734.167" stroke="url(#paint4_linear_14516_47874)"/>
<line y1="245" x2="1920" y2="245" stroke="url(#paint5_linear_14516_47874)"/>
<line y1="816" x2="1920" y2="816" stroke="url(#paint6_linear_14516_47874)"/>
<line y1="326.833" x2="1920" y2="326.833" stroke="url(#paint7_linear_14516_47874)"/>
<line y1="897.833" x2="1920" y2="897.833" stroke="url(#paint8_linear_14516_47874)"/>
<line y1="1117.5" x2="1920" y2="1117.5" stroke="url(#paint9_linear_14516_47874)"/>
<line y1="408.667" x2="1920" y2="408.667" stroke="url(#paint10_linear_14516_47874)"/>
<line y1="979.667" x2="1920" y2="979.667" stroke="url(#paint11_linear_14516_47874)"/>
<line y1="1199.33" x2="1920" y2="1199.33" stroke="url(#paint12_linear_14516_47874)"/>
<line y1="1265.33" x2="1920" y2="1265.33" stroke="url(#paint13_linear_14516_47874)"/>
<line y1="490.5" x2="1920" y2="490.5" stroke="url(#paint14_linear_14516_47874)"/>
<line y1="1061.5" x2="1920" y2="1061.5" stroke="url(#paint15_linear_14516_47874)"/>
</g>
<g opacity="0.08">
<line x1="52.5" y1="2.18556e-08" x2="52.4999" y2="1215" stroke="url(#paint16_linear_14516_47874)"/>
<line x1="292.5" y1="2.18556e-08" x2="292.5" y2="1215" stroke="url(#paint17_linear_14516_47874)"/>
<line x1="532.5" y1="2.18556e-08" x2="532.5" y2="1215" stroke="url(#paint18_linear_14516_47874)"/>
<line x1="772.5" y1="2.18556e-08" x2="772.5" y2="1215" stroke="url(#paint19_linear_14516_47874)"/>
<line x1="1012.5" y1="2.18556e-08" x2="1012.5" y2="1215" stroke="url(#paint20_linear_14516_47874)"/>
<line x1="1252.5" y1="2.18556e-08" x2="1252.5" y2="1215" stroke="url(#paint21_linear_14516_47874)"/>
<line x1="132.5" y1="2.18556e-08" x2="132.5" y2="1215" stroke="url(#paint22_linear_14516_47874)"/>
<line x1="372.5" y1="2.18556e-08" x2="372.5" y2="1215" stroke="url(#paint23_linear_14516_47874)"/>
<line x1="612.5" y1="2.18556e-08" x2="612.5" y2="1215" stroke="url(#paint24_linear_14516_47874)"/>
<line x1="852.5" y1="2.18556e-08" x2="852.5" y2="1215" stroke="url(#paint25_linear_14516_47874)"/>
<line x1="1092.5" y1="2.18556e-08" x2="1092.5" y2="1215" stroke="url(#paint26_linear_14516_47874)"/>
<line x1="1332.5" y1="2.18556e-08" x2="1332.5" y2="1215" stroke="url(#paint27_linear_14516_47874)"/>
<line x1="212.5" y1="2.18556e-08" x2="212.5" y2="1215" stroke="url(#paint28_linear_14516_47874)"/>
<line x1="452.5" y1="2.18556e-08" x2="452.5" y2="1215" stroke="url(#paint29_linear_14516_47874)"/>
<line x1="692.5" y1="2.18556e-08" x2="692.5" y2="1215" stroke="url(#paint30_linear_14516_47874)"/>
<line x1="932.5" y1="2.18556e-08" x2="932.5" y2="1215" stroke="url(#paint31_linear_14516_47874)"/>
<line x1="1172.5" y1="2.18556e-08" x2="1172.5" y2="1215" stroke="url(#paint32_linear_14516_47874)"/>
<line x1="1412.5" y1="2.18556e-08" x2="1412.5" y2="1215" stroke="url(#paint33_linear_14516_47874)"/>
</g>
<g opacity="0.08">
<line x1="1492.5" y1="2.18556e-08" x2="1492.5" y2="1215" stroke="url(#paint34_linear_14516_47874)"/>
<line x1="1732.5" y1="2.18556e-08" x2="1732.5" y2="1215" stroke="url(#paint35_linear_14516_47874)"/>
<line x1="1572.5" y1="2.18556e-08" x2="1572.5" y2="1215" stroke="url(#paint36_linear_14516_47874)"/>
<line x1="1812.5" y1="2.18556e-08" x2="1812.5" y2="1215" stroke="url(#paint37_linear_14516_47874)"/>
<line x1="1652.5" y1="2.18556e-08" x2="1652.5" y2="1215" stroke="url(#paint38_linear_14516_47874)"/>
<line x1="1892.5" y1="2.18556e-08" x2="1892.5" y2="1215" stroke="url(#paint39_linear_14516_47874)"/>
</g>
<rect x="900" y="80.5" width="120" height="30" rx="7.5" fill="white" fill-opacity="0.2"/>
<rect x="900" y="80.5" width="120" height="30" rx="7.5" stroke="white"/>
<path d="M916.557 100V91.2727H919.608C920.216 91.2727 920.717 91.3778 921.112 91.5881C921.507 91.7955 921.801 92.0753 921.994 92.4276C922.188 92.777 922.284 93.1648 922.284 93.5909C922.284 93.9659 922.217 94.2756 922.084 94.5199C921.953 94.7642 921.78 94.9574 921.564 95.0994C921.351 95.2415 921.119 95.3466 920.869 95.4148V95.5C921.136 95.517 921.405 95.6108 921.675 95.7812C921.945 95.9517 922.17 96.196 922.352 96.5142C922.534 96.8324 922.625 97.2216 922.625 97.6818C922.625 98.1193 922.526 98.5128 922.327 98.8622C922.128 99.2116 921.814 99.4886 921.385 99.6932C920.956 99.8977 920.398 100 919.71 100H916.557ZM917.614 99.0625H919.71C920.401 99.0625 920.891 98.929 921.18 98.6619C921.473 98.392 921.619 98.0653 921.619 97.6818C921.619 97.3864 921.544 97.1136 921.393 96.8636C921.243 96.6108 921.028 96.4091 920.75 96.2585C920.472 96.1051 920.142 96.0284 919.761 96.0284H917.614V99.0625ZM917.614 95.108H919.574C919.892 95.108 920.179 95.0455 920.435 94.9205C920.693 94.7955 920.898 94.6193 921.048 94.392C921.202 94.1648 921.278 93.8977 921.278 93.5909C921.278 93.2074 921.145 92.8821 920.878 92.6151C920.611 92.3452 920.188 92.2102 919.608 92.2102H917.614V95.108ZM926.884 100.136C926.293 100.136 925.775 99.9957 925.329 99.7145C924.886 99.4332 924.539 99.0398 924.289 98.5341C924.042 98.0284 923.918 97.4375 923.918 96.7614C923.918 96.0795 924.042 95.4844 924.289 94.9759C924.539 94.4673 924.886 94.0724 925.329 93.7912C925.775 93.5099 926.293 93.3693 926.884 93.3693C927.475 93.3693 927.992 93.5099 928.435 93.7912C928.881 94.0724 929.228 94.4673 929.475 94.9759C929.725 95.4844 929.85 96.0795 929.85 96.7614C929.85 97.4375 929.725 98.0284 929.475 98.5341C929.228 99.0398 928.881 99.4332 928.435 99.7145C927.992 99.9957 927.475 100.136 926.884 100.136ZM926.884 99.233C927.333 99.233 927.702 99.1179 927.992 98.8878C928.282 98.6577 928.496 98.3551 928.636 97.9801C928.775 97.6051 928.844 97.1989 928.844 96.7614C928.844 96.3239 928.775 95.9162 928.636 95.5384C928.496 95.1605 928.282 94.8551 927.992 94.6222C927.702 94.3892 927.333 94.2727 926.884 94.2727C926.435 94.2727 926.066 94.3892 925.776 94.6222C925.487 94.8551 925.272 95.1605 925.133 95.5384C924.994 95.9162 924.924 96.3239 924.924 96.7614C924.924 97.1989 924.994 97.6051 925.133 97.9801C925.272 98.3551 925.487 98.6577 925.776 98.8878C926.066 99.1179 926.435 99.233 926.884 99.233ZM934.044 100.136C933.453 100.136 932.935 99.9957 932.489 99.7145C932.046 99.4332 931.699 99.0398 931.449 98.5341C931.202 98.0284 931.078 97.4375 931.078 96.7614C931.078 96.0795 931.202 95.4844 931.449 94.9759C931.699 94.4673 932.046 94.0724 932.489 93.7912C932.935 93.5099 933.453 93.3693 934.044 93.3693C934.635 93.3693 935.152 93.5099 935.596 93.7912C936.042 94.0724 936.388 94.4673 936.635 94.9759C936.885 95.4844 937.01 96.0795 937.01 96.7614C937.01 97.4375 936.885 98.0284 936.635 98.5341C936.388 99.0398 936.042 99.4332 935.596 99.7145C935.152 99.9957 934.635 100.136 934.044 100.136ZM934.044 99.233C934.493 99.233 934.863 99.1179 935.152 98.8878C935.442 98.6577 935.657 98.3551 935.796 97.9801C935.935 97.6051 936.005 97.1989 936.005 96.7614C936.005 96.3239 935.935 95.9162 935.796 95.5384C935.657 95.1605 935.442 94.8551 935.152 94.6222C934.863 94.3892 934.493 94.2727 934.044 94.2727C933.596 94.2727 933.226 94.3892 932.936 94.6222C932.647 94.8551 932.432 95.1605 932.293 95.5384C932.154 95.9162 932.084 96.3239 932.084 96.7614C932.084 97.1989 932.154 97.6051 932.293 97.9801C932.432 98.3551 932.647 98.6577 932.936 98.8878C933.226 99.1179 933.596 99.233 934.044 99.233ZM939.483 97.6136L939.466 96.3693H939.67L942.534 93.4545H943.778L940.727 96.5398H940.642L939.483 97.6136ZM938.545 100V91.2727H939.551V100H938.545ZM942.705 100L940.148 96.7614L940.864 96.0625L943.983 100H942.705ZM950.374 100.153C949.959 100.153 949.583 100.075 949.245 99.919C948.907 99.7599 948.638 99.5312 948.439 99.233C948.24 98.9318 948.141 98.5682 948.141 98.142C948.141 97.767 948.215 97.4631 948.363 97.2301C948.51 96.9943 948.708 96.8097 948.955 96.6761C949.202 96.5426 949.475 96.4432 949.773 96.3778C950.074 96.3097 950.377 96.2557 950.681 96.2159C951.078 96.1648 951.401 96.1264 951.648 96.1009C951.898 96.0724 952.08 96.0256 952.194 95.9602C952.31 95.8949 952.368 95.7812 952.368 95.6193V95.5852C952.368 95.1648 952.253 94.8381 952.023 94.6051C951.796 94.3722 951.451 94.2557 950.988 94.2557C950.507 94.2557 950.131 94.3608 949.858 94.571C949.586 94.7812 949.394 95.0057 949.283 95.2443L948.328 94.9034C948.499 94.5057 948.726 94.196 949.01 93.9744C949.297 93.75 949.61 93.5937 949.948 93.5057C950.289 93.4148 950.624 93.3693 950.953 93.3693C951.164 93.3693 951.405 93.3949 951.678 93.446C951.953 93.4943 952.219 93.5952 952.475 93.7486C952.733 93.902 952.948 94.1335 953.118 94.4432C953.289 94.7528 953.374 95.1676 953.374 95.6875V100H952.368V99.1136H952.317C952.249 99.2557 952.135 99.4077 951.976 99.5696C951.817 99.7315 951.605 99.8693 951.341 99.983C951.077 100.097 950.755 100.153 950.374 100.153ZM950.527 99.25C950.925 99.25 951.26 99.1719 951.533 99.0156C951.809 98.8594 952.016 98.6577 952.155 98.4105C952.297 98.1634 952.368 97.9034 952.368 97.6307V96.7102C952.326 96.7614 952.232 96.8082 952.087 96.8509C951.945 96.8906 951.78 96.9261 951.593 96.9574C951.408 96.9858 951.228 97.0114 951.051 97.0341C950.878 97.054 950.738 97.071 950.63 97.0852C950.368 97.1193 950.124 97.1747 949.897 97.2514C949.672 97.3253 949.49 97.4375 949.351 97.5881C949.215 97.7358 949.147 97.9375 949.147 98.1932C949.147 98.5426 949.276 98.8068 949.534 98.9858C949.796 99.1619 950.127 99.25 950.527 99.25ZM958.721 91.2727H959.982L962.948 98.517H963.05L966.016 91.2727H967.278V100H966.289V93.3693H966.204L963.477 100H962.522L959.795 93.3693H959.71V100H958.721V91.2727ZM972.005 100.136C971.374 100.136 970.83 99.9972 970.373 99.7188C969.918 99.4375 969.567 99.0455 969.32 98.5426C969.076 98.0369 968.953 97.4489 968.953 96.7784C968.953 96.108 969.076 95.517 969.32 95.0057C969.567 94.4915 969.911 94.0909 970.351 93.804C970.794 93.5142 971.311 93.3693 971.902 93.3693C972.243 93.3693 972.58 93.4261 972.912 93.5398C973.245 93.6534 973.547 93.8381 973.82 94.0938C974.093 94.3466 974.31 94.6818 974.472 95.0994C974.634 95.517 974.715 96.0312 974.715 96.642V97.0682H969.669V96.1989H973.692C973.692 95.8295 973.618 95.5 973.471 95.2102C973.326 94.9205 973.118 94.6918 972.848 94.5241C972.581 94.3565 972.266 94.2727 971.902 94.2727C971.502 94.2727 971.155 94.3722 970.863 94.571C970.573 94.767 970.35 95.0227 970.194 95.3381C970.037 95.6534 969.959 95.9915 969.959 96.3523V96.9318C969.959 97.4261 970.044 97.8452 970.215 98.1889C970.388 98.5298 970.628 98.7898 970.935 98.9688C971.242 99.1449 971.598 99.233 972.005 99.233C972.269 99.233 972.507 99.196 972.721 99.1222C972.936 99.0455 973.123 98.9318 973.279 98.7812C973.435 98.6278 973.556 98.4375 973.641 98.2102L974.613 98.483C974.51 98.8125 974.338 99.1023 974.097 99.3523C973.855 99.5994 973.557 99.7926 973.202 99.9318C972.847 100.068 972.448 100.136 972.005 100.136ZM978.989 100.136C978.358 100.136 977.814 99.9972 977.357 99.7188C976.902 99.4375 976.551 99.0455 976.304 98.5426C976.06 98.0369 975.938 97.4489 975.938 96.7784C975.938 96.108 976.06 95.517 976.304 95.0057C976.551 94.4915 976.895 94.0909 977.336 93.804C977.779 93.5142 978.296 93.3693 978.887 93.3693C979.228 93.3693 979.564 93.4261 979.897 93.5398C980.229 93.6534 980.532 93.8381 980.804 94.0938C981.077 94.3466 981.294 94.6818 981.456 95.0994C981.618 95.517 981.699 96.0312 981.699 96.642V97.0682H976.654V96.1989H980.676C980.676 95.8295 980.603 95.5 980.455 95.2102C980.31 94.9205 980.103 94.6918 979.833 94.5241C979.566 94.3565 979.25 94.2727 978.887 94.2727C978.486 94.2727 978.14 94.3722 977.847 94.571C977.557 94.767 977.334 95.0227 977.178 95.3381C977.022 95.6534 976.944 95.9915 976.944 96.3523V96.9318C976.944 97.4261 977.029 97.8452 977.199 98.1889C977.373 98.5298 977.613 98.7898 977.919 98.9688C978.226 99.1449 978.583 99.233 978.989 99.233C979.253 99.233 979.492 99.196 979.705 99.1222C979.921 99.0455 980.107 98.9318 980.263 98.7812C980.419 98.6278 980.54 98.4375 980.625 98.2102L981.597 98.483C981.495 98.8125 981.323 99.1023 981.081 99.3523C980.84 99.5994 980.542 99.7926 980.186 99.9318C979.831 100.068 979.432 100.136 978.989 100.136ZM986.076 93.4545V94.3068H982.684V93.4545H986.076ZM983.672 91.8864H984.678V98.125C984.678 98.4091 984.719 98.6222 984.801 98.7642C984.887 98.9034 984.995 98.9972 985.125 99.0455C985.259 99.0909 985.4 99.1136 985.547 99.1136C985.658 99.1136 985.749 99.108 985.82 99.0966C985.891 99.0824 985.948 99.071 985.99 99.0625L986.195 99.9659C986.127 99.9915 986.032 100.017 985.909 100.043C985.787 100.071 985.632 100.085 985.445 100.085C985.161 100.085 984.882 100.024 984.61 99.902C984.34 99.7798 984.115 99.5938 983.936 99.3438C983.76 99.0938 983.672 98.7784 983.672 98.3977V91.8864ZM987.588 100V93.4545H988.594V100H987.588ZM988.1 92.3636C987.904 92.3636 987.735 92.2969 987.593 92.1634C987.453 92.0298 987.384 91.8693 987.384 91.6818C987.384 91.4943 987.453 91.3338 987.593 91.2003C987.735 91.0668 987.904 91 988.1 91C988.296 91 988.463 91.0668 988.603 91.2003C988.745 91.3338 988.816 91.4943 988.816 91.6818C988.816 91.8693 988.745 92.0298 988.603 92.1634C988.463 92.2969 988.296 92.3636 988.1 92.3636ZM991.442 96.0625V100H990.436V93.4545H991.408V94.4773H991.493C991.646 94.1449 991.879 93.8778 992.192 93.6761C992.504 93.4716 992.908 93.3693 993.402 93.3693C993.845 93.3693 994.233 93.4602 994.565 93.642C994.898 93.821 995.156 94.0938 995.341 94.4602C995.526 94.8239 995.618 95.2841 995.618 95.8409V100H994.612V95.9091C994.612 95.3949 994.479 94.9943 994.212 94.7074C993.945 94.4176 993.578 94.2727 993.112 94.2727C992.791 94.2727 992.504 94.3423 992.251 94.4815C992.001 94.6207 991.804 94.8239 991.659 95.0909C991.514 95.358 991.442 95.6818 991.442 96.0625ZM1000.1 102.591C999.612 102.591 999.194 102.528 998.845 102.403C998.495 102.281 998.204 102.119 997.971 101.918C997.741 101.719 997.558 101.506 997.422 101.278L998.223 100.716C998.314 100.835 998.429 100.972 998.568 101.125C998.707 101.281 998.897 101.416 999.139 101.53C999.383 101.646 999.703 101.705 1000.1 101.705C1000.63 101.705 1001.06 101.577 1001.41 101.321C1001.75 101.065 1001.92 100.665 1001.92 100.119V98.7898H1001.84C1001.76 98.9091 1001.66 99.0568 1001.52 99.233C1001.39 99.4062 1001.19 99.5611 1000.94 99.6974C1000.69 99.831 1000.35 99.8977 999.927 99.8977C999.399 99.8977 998.924 99.7727 998.504 99.5227C998.086 99.2727 997.755 98.9091 997.511 98.4318C997.27 97.9545 997.149 97.375 997.149 96.6932C997.149 96.0227 997.267 95.4389 997.502 94.9418C997.738 94.4418 998.066 94.0554 998.487 93.7827C998.907 93.5071 999.393 93.3693 999.944 93.3693C1000.37 93.3693 1000.71 93.4403 1000.96 93.5824C1001.21 93.7216 1001.4 93.8807 1001.54 94.0597C1001.67 94.2358 1001.78 94.3807 1001.85 94.4943H1001.96V93.4545H1002.93V100.188C1002.93 100.75 1002.8 101.207 1002.54 101.56C1002.29 101.915 1001.95 102.175 1001.52 102.339C1001.09 102.507 1000.62 102.591 1000.1 102.591ZM1000.06 98.9943C1000.47 98.9943 1000.81 98.902 1001.09 98.7173C1001.36 98.5327 1001.58 98.267 1001.72 97.9205C1001.87 97.5739 1001.94 97.1591 1001.94 96.6761C1001.94 96.2045 1001.87 95.7884 1001.73 95.4276C1001.58 95.0668 1001.37 94.7841 1001.09 94.5795C1000.82 94.375 1000.47 94.2727 1000.06 94.2727C999.637 94.2727 999.282 94.3807 998.998 94.5966C998.717 94.8125 998.505 95.1023 998.363 95.4659C998.224 95.8295 998.154 96.233 998.154 96.6761C998.154 97.1307 998.225 97.5327 998.368 97.8821C998.512 98.2287 998.725 98.5014 999.007 98.7003C999.291 98.8963 999.643 98.9943 1000.06 98.9943Z" fill="white"/>
</g>
<defs>
<linearGradient id="paint0_linear_14516_47874" x1="0" y1="82.3335" x2="1920" y2="82.3335" gradientUnits="userSpaceOnUse">
<stop stop-color="white" stop-opacity="0"/>
<stop offset="0.5" stop-color="white"/>
<stop offset="1" stop-color="white" stop-opacity="0"/>
</linearGradient>
<linearGradient id="paint1_linear_14516_47874" x1="0" y1="653.333" x2="1920" y2="653.333" gradientUnits="userSpaceOnUse">
<stop stop-color="white" stop-opacity="0"/>
<stop offset="0.5" stop-color="white"/>
<stop offset="1" stop-color="white" stop-opacity="0"/>
</linearGradient>
<linearGradient id="paint2_linear_14516_47874" x1="0" y1="571.5" x2="1920" y2="571.5" gradientUnits="userSpaceOnUse">
<stop stop-color="white" stop-opacity="0"/>
<stop offset="0.5" stop-color="white"/>
<stop offset="1" stop-color="white" stop-opacity="0"/>
</linearGradient>
<linearGradient id="paint3_linear_14516_47874" x1="0" y1="164.167" x2="1920" y2="164.167" gradientUnits="userSpaceOnUse">
<stop stop-color="white" stop-opacity="0"/>
<stop offset="0.5" stop-color="white"/>
<stop offset="1" stop-color="white" stop-opacity="0"/>
</linearGradient>
<linearGradient id="paint4_linear_14516_47874" x1="0" y1="735.167" x2="1920" y2="735.167" gradientUnits="userSpaceOnUse">
<stop stop-color="white" stop-opacity="0"/>
<stop offset="0.5" stop-color="white"/>
<stop offset="1" stop-color="white" stop-opacity="0"/>
</linearGradient>
<linearGradient id="paint5_linear_14516_47874" x1="0" y1="246" x2="1920" y2="246" gradientUnits="userSpaceOnUse">
<stop stop-color="white" stop-opacity="0"/>
<stop offset="0.5" stop-color="white"/>
<stop offset="1" stop-color="white" stop-opacity="0"/>
</linearGradient>
<linearGradient id="paint6_linear_14516_47874" x1="0" y1="817" x2="1920" y2="817" gradientUnits="userSpaceOnUse">
<stop stop-color="white" stop-opacity="0"/>
<stop offset="0.5" stop-color="white"/>
<stop offset="1" stop-color="white" stop-opacity="0"/>
</linearGradient>
<linearGradient id="paint7_linear_14516_47874" x1="0" y1="327.833" x2="1920" y2="327.833" gradientUnits="userSpaceOnUse">
<stop stop-color="white" stop-opacity="0"/>
<stop offset="0.5" stop-color="white"/>
<stop offset="1" stop-color="white" stop-opacity="0"/>
</linearGradient>
<linearGradient id="paint8_linear_14516_47874" x1="0" y1="898.833" x2="1920" y2="898.833" gradientUnits="userSpaceOnUse">
<stop stop-color="white" stop-opacity="0"/>
<stop offset="0.5" stop-color="white"/>
<stop offset="1" stop-color="white" stop-opacity="0"/>
</linearGradient>
<linearGradient id="paint9_linear_14516_47874" x1="0" y1="1118.5" x2="1920" y2="1118.5" gradientUnits="userSpaceOnUse">
<stop stop-color="white" stop-opacity="0"/>
<stop offset="0.5" stop-color="white"/>
<stop offset="1" stop-color="white" stop-opacity="0"/>
</linearGradient>
<linearGradient id="paint10_linear_14516_47874" x1="0" y1="409.667" x2="1920" y2="409.667" gradientUnits="userSpaceOnUse">
<stop stop-color="white" stop-opacity="0"/>
<stop offset="0.5" stop-color="white"/>
<stop offset="1" stop-color="white" stop-opacity="0"/>
</linearGradient>
<linearGradient id="paint11_linear_14516_47874" x1="0" y1="980.667" x2="1920" y2="980.667" gradientUnits="userSpaceOnUse">
<stop stop-color="white" stop-opacity="0"/>
<stop offset="0.5" stop-color="white"/>
<stop offset="1" stop-color="white" stop-opacity="0"/>
</linearGradient>
<linearGradient id="paint12_linear_14516_47874" x1="0" y1="1200.33" x2="1920" y2="1200.33" gradientUnits="userSpaceOnUse">
<stop stop-color="white" stop-opacity="0"/>
<stop offset="0.5" stop-color="white"/>
<stop offset="1" stop-color="white" stop-opacity="0"/>
</linearGradient>
<linearGradient id="paint13_linear_14516_47874" x1="0" y1="1266.33" x2="1920" y2="1266.33" gradientUnits="userSpaceOnUse">
<stop stop-color="white" stop-opacity="0"/>
<stop offset="0.5" stop-color="white"/>
<stop offset="1" stop-color="white" stop-opacity="0"/>
</linearGradient>
<linearGradient id="paint14_linear_14516_47874" x1="0" y1="491.5" x2="1920" y2="491.5" gradientUnits="userSpaceOnUse">
<stop stop-color="white" stop-opacity="0"/>
<stop offset="0.5" stop-color="white"/>
<stop offset="1" stop-color="white" stop-opacity="0"/>
</linearGradient>
<linearGradient id="paint15_linear_14516_47874" x1="0" y1="1062.5" x2="1920" y2="1062.5" gradientUnits="userSpaceOnUse">
<stop stop-color="white" stop-opacity="0"/>
<stop offset="0.5" stop-color="white"/>
<stop offset="1" stop-color="white" stop-opacity="0"/>
</linearGradient>
<linearGradient id="paint16_linear_14516_47874" x1="51.5" y1="-2.18556e-08" x2="51.4999" y2="1215" gradientUnits="userSpaceOnUse">
<stop stop-color="white" stop-opacity="0"/>
<stop offset="0.5" stop-color="white"/>
<stop offset="1" stop-color="white" stop-opacity="0"/>
</linearGradient>
<linearGradient id="paint17_linear_14516_47874" x1="291.5" y1="-2.18556e-08" x2="291.5" y2="1215" gradientUnits="userSpaceOnUse">
<stop stop-color="white" stop-opacity="0"/>
<stop offset="0.5" stop-color="white"/>
<stop offset="1" stop-color="white" stop-opacity="0"/>
</linearGradient>
<linearGradient id="paint18_linear_14516_47874" x1="531.5" y1="-2.18556e-08" x2="531.5" y2="1215" gradientUnits="userSpaceOnUse">
<stop stop-color="white" stop-opacity="0"/>
<stop offset="0.5" stop-color="white"/>
<stop offset="1" stop-color="white" stop-opacity="0"/>
</linearGradient>
<linearGradient id="paint19_linear_14516_47874" x1="771.5" y1="-2.18556e-08" x2="771.5" y2="1215" gradientUnits="userSpaceOnUse">
<stop stop-color="white" stop-opacity="0"/>
<stop offset="0.5" stop-color="white"/>
<stop offset="1" stop-color="white" stop-opacity="0"/>
</linearGradient>
<linearGradient id="paint20_linear_14516_47874" x1="1011.5" y1="-2.18556e-08" x2="1011.5" y2="1215" gradientUnits="userSpaceOnUse">
<stop stop-color="white" stop-opacity="0"/>
<stop offset="0.5" stop-color="white"/>
<stop offset="1" stop-color="white" stop-opacity="0"/>
</linearGradient>
<linearGradient id="paint21_linear_14516_47874" x1="1251.5" y1="-2.18556e-08" x2="1251.5" y2="1215" gradientUnits="userSpaceOnUse">
<stop stop-color="white" stop-opacity="0"/>
<stop offset="0.5" stop-color="white"/>
<stop offset="1" stop-color="white" stop-opacity="0"/>
</linearGradient>
<linearGradient id="paint22_linear_14516_47874" x1="131.5" y1="-2.18556e-08" x2="131.5" y2="1215" gradientUnits="userSpaceOnUse">
<stop stop-color="white" stop-opacity="0"/>
<stop offset="0.5" stop-color="white"/>
<stop offset="1" stop-color="white" stop-opacity="0"/>
</linearGradient>
<linearGradient id="paint23_linear_14516_47874" x1="371.5" y1="-2.18556e-08" x2="371.5" y2="1215" gradientUnits="userSpaceOnUse">
<stop stop-color="white" stop-opacity="0"/>
<stop offset="0.5" stop-color="white"/>
<stop offset="1" stop-color="white" stop-opacity="0"/>
</linearGradient>
<linearGradient id="paint24_linear_14516_47874" x1="611.5" y1="-2.18556e-08" x2="611.5" y2="1215" gradientUnits="userSpaceOnUse">
<stop stop-color="white" stop-opacity="0"/>
<stop offset="0.5" stop-color="white"/>
<stop offset="1" stop-color="white" stop-opacity="0"/>
</linearGradient>
<linearGradient id="paint25_linear_14516_47874" x1="851.5" y1="-2.18556e-08" x2="851.5" y2="1215" gradientUnits="userSpaceOnUse">
<stop stop-color="white" stop-opacity="0"/>
<stop offset="0.5" stop-color="white"/>
<stop offset="1" stop-color="white" stop-opacity="0"/>
</linearGradient>
<linearGradient id="paint26_linear_14516_47874" x1="1091.5" y1="-2.18556e-08" x2="1091.5" y2="1215" gradientUnits="userSpaceOnUse">
<stop stop-color="white" stop-opacity="0"/>
<stop offset="0.5" stop-color="white"/>
<stop offset="1" stop-color="white" stop-opacity="0"/>
</linearGradient>
<linearGradient id="paint27_linear_14516_47874" x1="1331.5" y1="-2.18556e-08" x2="1331.5" y2="1215" gradientUnits="userSpaceOnUse">
<stop stop-color="white" stop-opacity="0"/>
<stop offset="0.5" stop-color="white"/>
<stop offset="1" stop-color="white" stop-opacity="0"/>
</linearGradient>
<linearGradient id="paint28_linear_14516_47874" x1="211.5" y1="-2.18556e-08" x2="211.5" y2="1215" gradientUnits="userSpaceOnUse">
<stop stop-color="white" stop-opacity="0"/>
<stop offset="0.5" stop-color="white"/>
<stop offset="1" stop-color="white" stop-opacity="0"/>
</linearGradient>
<linearGradient id="paint29_linear_14516_47874" x1="451.5" y1="-2.18556e-08" x2="451.5" y2="1215" gradientUnits="userSpaceOnUse">
<stop stop-color="white" stop-opacity="0"/>
<stop offset="0.5" stop-color="white"/>
<stop offset="1" stop-color="white" stop-opacity="0"/>
</linearGradient>
<linearGradient id="paint30_linear_14516_47874" x1="691.5" y1="-2.18556e-08" x2="691.5" y2="1215" gradientUnits="userSpaceOnUse">
<stop stop-color="white" stop-opacity="0"/>
<stop offset="0.5" stop-color="white"/>
<stop offset="1" stop-color="white" stop-opacity="0"/>
</linearGradient>
<linearGradient id="paint31_linear_14516_47874" x1="931.5" y1="-2.18556e-08" x2="931.5" y2="1215" gradientUnits="userSpaceOnUse">
<stop stop-color="white" stop-opacity="0"/>
<stop offset="0.5" stop-color="white"/>
<stop offset="1" stop-color="white" stop-opacity="0"/>
</linearGradient>
<linearGradient id="paint32_linear_14516_47874" x1="1171.5" y1="-2.18556e-08" x2="1171.5" y2="1215" gradientUnits="userSpaceOnUse">
<stop stop-color="white" stop-opacity="0"/>
<stop offset="0.5" stop-color="white"/>
<stop offset="1" stop-color="white" stop-opacity="0"/>
</linearGradient>
<linearGradient id="paint33_linear_14516_47874" x1="1411.5" y1="-2.18556e-08" x2="1411.5" y2="1215" gradientUnits="userSpaceOnUse">
<stop stop-color="white" stop-opacity="0"/>
<stop offset="0.5" stop-color="white"/>
<stop offset="1" stop-color="white" stop-opacity="0"/>
</linearGradient>
<linearGradient id="paint34_linear_14516_47874" x1="1491.5" y1="-2.18556e-08" x2="1491.5" y2="1215" gradientUnits="userSpaceOnUse">
<stop stop-color="white" stop-opacity="0"/>
<stop offset="0.5" stop-color="white"/>
<stop offset="1" stop-color="white" stop-opacity="0"/>
</linearGradient>
<linearGradient id="paint35_linear_14516_47874" x1="1731.5" y1="-2.18556e-08" x2="1731.5" y2="1215" gradientUnits="userSpaceOnUse">
<stop stop-color="white" stop-opacity="0"/>
<stop offset="0.5" stop-color="white"/>
<stop offset="1" stop-color="white" stop-opacity="0"/>
</linearGradient>
<linearGradient id="paint36_linear_14516_47874" x1="1571.5" y1="-2.18556e-08" x2="1571.5" y2="1215" gradientUnits="userSpaceOnUse">
<stop stop-color="white" stop-opacity="0"/>
<stop offset="0.5" stop-color="white"/>
<stop offset="1" stop-color="white" stop-opacity="0"/>
</linearGradient>
<linearGradient id="paint37_linear_14516_47874" x1="1811.5" y1="-2.18556e-08" x2="1811.5" y2="1215" gradientUnits="userSpaceOnUse">
<stop stop-color="white" stop-opacity="0"/>
<stop offset="0.5" stop-color="white"/>
<stop offset="1" stop-color="white" stop-opacity="0"/>
</linearGradient>
<linearGradient id="paint38_linear_14516_47874" x1="1651.5" y1="-2.18556e-08" x2="1651.5" y2="1215" gradientUnits="userSpaceOnUse">
<stop stop-color="white" stop-opacity="0"/>
<stop offset="0.5" stop-color="white"/>
<stop offset="1" stop-color="white" stop-opacity="0"/>
</linearGradient>
<linearGradient id="paint39_linear_14516_47874" x1="1891.5" y1="-2.18556e-08" x2="1891.5" y2="1215" gradientUnits="userSpaceOnUse">
<stop stop-color="white" stop-opacity="0"/>
<stop offset="0.5" stop-color="white"/>
<stop offset="1" stop-color="white" stop-opacity="0"/>
</linearGradient>
</defs>
</svg>
