<svg width="668" height="672" viewBox="0 0 668 672" fill="none" xmlns="http://www.w3.org/2000/svg">
<g clip-path="url(#clip0_15770_52358)">
<rect width="668" height="672" fill="white"/>
<rect x="-2" width="672" height="672" fill="#1E1F26"/>
<mask id="mask0_15770_52358" style="mask-type:alpha" maskUnits="userSpaceOnUse" x="-2" y="0" width="672" height="672">
<rect x="-2" width="672" height="672" fill="#1E1F26"/>
</mask>
<g mask="url(#mask0_15770_52358)">
<rect opacity="0.1" x="119.84" y="121.84" width="428.188" height="428.188" rx="133.494" stroke="#5D5F72" stroke-width="1.67917"/>
<rect opacity="0.05" x="39.3083" y="41.3064" width="589.388" height="589.388" rx="214.094" stroke="#5D5F72" stroke-width="1.67917"/>
<rect opacity="0.02" x="-68.1604" y="-66.1604" width="804.321" height="804.321" rx="321.56" stroke="#5D5F72" stroke-width="1.67917"/>
</g>
<g style="mix-blend-mode:overlay" opacity="0.05" filter="url(#filter0_d_15770_52358)">
<mask id="path-6-outside-1_15770_52358" maskUnits="userSpaceOnUse" x="166" y="220" width="337" height="238" fill="black">
<rect fill="white" x="166" y="220" width="337" height="238"/>
<path d="M169.191 227H313.831V264.44L237.991 451H191.271L264.871 269.24H169.191V227ZM410.206 455.48C382.26 455.48 360.286 444.92 344.286 423.8C328.5 402.467 320.606 374.2 320.606 339C320.606 303.8 328.5 275.64 344.286 254.52C360.286 233.187 382.26 222.52 410.206 222.52C438.366 222.52 460.34 233.187 476.126 254.52C491.913 275.64 499.806 303.8 499.806 339C499.806 374.2 491.913 402.467 476.126 423.8C460.34 444.92 438.366 455.48 410.206 455.48ZM376.286 393.72C383.966 406.093 395.273 412.28 410.206 412.28C425.14 412.28 436.446 405.987 444.126 393.4C452.02 380.813 455.966 362.68 455.966 339C455.966 315.107 452.02 296.867 444.126 284.28C436.446 271.693 425.14 265.4 410.206 265.4C395.273 265.4 383.966 271.693 376.286 284.28C368.606 296.867 364.766 315.107 364.766 339C364.766 362.893 368.606 381.133 376.286 393.72Z"/>
</mask>
<path d="M169.191 227H313.831V264.44L237.991 451H191.271L264.871 269.24H169.191V227ZM410.206 455.48C382.26 455.48 360.286 444.92 344.286 423.8C328.5 402.467 320.606 374.2 320.606 339C320.606 303.8 328.5 275.64 344.286 254.52C360.286 233.187 382.26 222.52 410.206 222.52C438.366 222.52 460.34 233.187 476.126 254.52C491.913 275.64 499.806 303.8 499.806 339C499.806 374.2 491.913 402.467 476.126 423.8C460.34 444.92 438.366 455.48 410.206 455.48ZM376.286 393.72C383.966 406.093 395.273 412.28 410.206 412.28C425.14 412.28 436.446 405.987 444.126 393.4C452.02 380.813 455.966 362.68 455.966 339C455.966 315.107 452.02 296.867 444.126 284.28C436.446 271.693 425.14 265.4 410.206 265.4C395.273 265.4 383.966 271.693 376.286 284.28C368.606 296.867 364.766 315.107 364.766 339C364.766 362.893 368.606 381.133 376.286 393.72Z" fill="url(#paint0_linear_15770_52358)" fill-opacity="0.38" shape-rendering="crispEdges"/>
<path d="M169.191 227V224.728H166.919V227H169.191ZM313.831 227H316.103V224.728H313.831V227ZM313.831 264.44L315.936 265.296L316.103 264.884V264.44H313.831ZM237.991 451V453.272H239.52L240.096 451.856L237.991 451ZM191.271 451L189.165 450.147L187.9 453.272H191.271V451ZM264.871 269.24L266.977 270.093L268.242 266.968H264.871V269.24ZM169.191 269.24H166.919V271.512H169.191V269.24ZM169.191 227V229.272H313.831V227V224.728H169.191V227ZM313.831 227H311.559V264.44H313.831H316.103V227H313.831ZM313.831 264.44L311.727 263.584L235.887 450.144L237.991 451L240.096 451.856L315.936 265.296L313.831 264.44ZM237.991 451V448.728H191.271V451V453.272H237.991V451ZM191.271 451L193.377 451.853L266.977 270.093L264.871 269.24L262.765 268.387L189.165 450.147L191.271 451ZM264.871 269.24V266.968H169.191V269.24V271.512H264.871V269.24ZM169.191 269.24H171.463V227H169.191H166.919V269.24H169.191ZM344.286 423.8L342.46 425.151L342.468 425.162L342.475 425.172L344.286 423.8ZM344.286 254.52L342.469 253.157L342.466 253.16L344.286 254.52ZM476.126 254.52L474.3 255.871L474.306 255.88L476.126 254.52ZM476.126 423.8L477.946 425.16L477.953 425.151L476.126 423.8ZM376.286 393.72L374.347 394.903L374.351 394.911L374.356 394.918L376.286 393.72ZM444.126 393.4L442.201 392.193L442.194 392.205L442.187 392.217L444.126 393.4ZM444.126 284.28L442.187 285.463L442.194 285.475L442.201 285.487L444.126 284.28ZM410.206 455.48V453.208C382.925 453.208 361.641 442.946 346.097 422.428L344.286 423.8L342.475 425.172C358.931 446.894 381.594 457.752 410.206 457.752V455.48ZM344.286 423.8L346.113 422.449C330.697 401.617 322.878 373.871 322.878 339H320.606H318.334C318.334 374.529 326.302 403.317 342.46 425.151L344.286 423.8ZM320.606 339H322.878C322.878 304.127 330.697 276.494 346.106 255.88L344.286 254.52L342.466 253.16C326.302 274.786 318.334 303.473 318.334 339H320.606ZM344.286 254.52L346.104 255.883C361.651 235.153 382.935 224.792 410.206 224.792V222.52V220.248C381.585 220.248 358.921 231.22 342.469 253.157L344.286 254.52ZM410.206 222.52V224.792C437.697 224.792 458.971 235.157 474.3 255.871L476.126 254.52L477.953 253.169C461.708 231.216 439.035 220.248 410.206 220.248V222.52ZM476.126 254.52L474.306 255.88C489.715 276.494 497.534 304.127 497.534 339H499.806H502.078C502.078 303.473 494.111 274.786 477.946 253.16L476.126 254.52ZM499.806 339H497.534C497.534 373.871 489.716 401.617 474.3 422.449L476.126 423.8L477.953 425.151C494.11 403.317 502.078 374.529 502.078 339H499.806ZM476.126 423.8L474.306 422.44C458.982 442.942 437.707 453.208 410.206 453.208V455.48V457.752C439.026 457.752 461.698 446.898 477.946 425.16L476.126 423.8ZM376.286 393.72L374.356 394.918C382.463 407.98 394.511 414.552 410.206 414.552V412.28V410.008C396.034 410.008 385.469 404.207 378.217 392.522L376.286 393.72ZM410.206 412.28V414.552C425.919 414.552 437.967 407.857 446.066 394.583L444.126 393.4L442.187 392.217C434.926 404.117 424.36 410.008 410.206 410.008V412.28ZM444.126 393.4L446.051 394.607C454.269 381.503 458.238 362.876 458.238 339H455.966H453.694C453.694 362.484 449.771 380.123 442.201 392.193L444.126 393.4ZM455.966 339H458.238C458.238 314.915 454.27 296.179 446.051 283.073L444.126 284.28L442.201 285.487C449.769 297.554 453.694 315.298 453.694 339H455.966ZM444.126 284.28L446.066 283.097C437.967 269.823 425.919 263.128 410.206 263.128V265.4V267.672C424.36 267.672 434.926 273.563 442.187 285.463L444.126 284.28ZM410.206 265.4V263.128C394.493 263.128 382.446 269.823 374.347 283.097L376.286 284.28L378.226 285.463C385.487 273.563 396.053 267.672 410.206 267.672V265.4ZM376.286 284.28L374.347 283.097C366.353 296.197 362.494 314.923 362.494 339H364.766H367.038C367.038 315.291 370.859 297.536 378.226 285.463L376.286 284.28ZM364.766 339H362.494C362.494 363.077 366.353 381.803 374.347 394.903L376.286 393.72L378.226 392.537C370.859 380.464 367.038 362.709 367.038 339H364.766Z" fill="white" fill-opacity="0.53" mask="url(#path-6-outside-1_15770_52358)"/>
</g>
<g style="mix-blend-mode:overlay" filter="url(#filter1_d_15770_52358)">
<mask id="path-8-outside-2_15770_52358" maskUnits="userSpaceOnUse" x="158" y="213" width="337" height="238" fill="black">
<rect fill="white" x="158" y="213" width="337" height="238"/>
<path d="M161.191 220H305.831V257.44L229.991 444H183.271L256.871 262.24H161.191V220ZM402.206 448.48C374.26 448.48 352.286 437.92 336.286 416.8C320.5 395.467 312.606 367.2 312.606 332C312.606 296.8 320.5 268.64 336.286 247.52C352.286 226.187 374.26 215.52 402.206 215.52C430.366 215.52 452.34 226.187 468.126 247.52C483.913 268.64 491.806 296.8 491.806 332C491.806 367.2 483.913 395.467 468.126 416.8C452.34 437.92 430.366 448.48 402.206 448.48ZM368.286 386.72C375.966 399.093 387.273 405.28 402.206 405.28C417.14 405.28 428.446 398.987 436.126 386.4C444.02 373.813 447.966 355.68 447.966 332C447.966 308.107 444.02 289.867 436.126 277.28C428.446 264.693 417.14 258.4 402.206 258.4C387.273 258.4 375.966 264.693 368.286 277.28C360.606 289.867 356.766 308.107 356.766 332C356.766 355.893 360.606 374.133 368.286 386.72Z"/>
</mask>
<path d="M161.191 220H305.831V257.44L229.991 444H183.271L256.871 262.24H161.191V220ZM402.206 448.48C374.26 448.48 352.286 437.92 336.286 416.8C320.5 395.467 312.606 367.2 312.606 332C312.606 296.8 320.5 268.64 336.286 247.52C352.286 226.187 374.26 215.52 402.206 215.52C430.366 215.52 452.34 226.187 468.126 247.52C483.913 268.64 491.806 296.8 491.806 332C491.806 367.2 483.913 395.467 468.126 416.8C452.34 437.92 430.366 448.48 402.206 448.48ZM368.286 386.72C375.966 399.093 387.273 405.28 402.206 405.28C417.14 405.28 428.446 398.987 436.126 386.4C444.02 373.813 447.966 355.68 447.966 332C447.966 308.107 444.02 289.867 436.126 277.28C428.446 264.693 417.14 258.4 402.206 258.4C387.273 258.4 375.966 264.693 368.286 277.28C360.606 289.867 356.766 308.107 356.766 332C356.766 355.893 360.606 374.133 368.286 386.72Z" fill="url(#paint1_linear_15770_52358)" fill-opacity="0.38" shape-rendering="crispEdges"/>
<path d="M161.191 220V217.728H158.919V220H161.191ZM305.831 220H308.103V217.728H305.831V220ZM305.831 257.44L307.936 258.296L308.103 257.884V257.44H305.831ZM229.991 444V446.272H231.52L232.096 444.856L229.991 444ZM183.271 444L181.165 443.147L179.9 446.272H183.271V444ZM256.871 262.24L258.977 263.093L260.242 259.968H256.871V262.24ZM161.191 262.24H158.919V264.512H161.191V262.24ZM161.191 220V222.272H305.831V220V217.728H161.191V220ZM305.831 220H303.559V257.44H305.831H308.103V220H305.831ZM305.831 257.44L303.727 256.584L227.887 443.144L229.991 444L232.096 444.856L307.936 258.296L305.831 257.44ZM229.991 444V441.728H183.271V444V446.272H229.991V444ZM183.271 444L185.377 444.853L258.977 263.093L256.871 262.24L254.765 261.387L181.165 443.147L183.271 444ZM256.871 262.24V259.968H161.191V262.24V264.512H256.871V262.24ZM161.191 262.24H163.463V220H161.191H158.919V262.24H161.191ZM336.286 416.8L334.46 418.151L334.468 418.162L334.475 418.172L336.286 416.8ZM336.286 247.52L334.469 246.157L334.466 246.16L336.286 247.52ZM468.126 247.52L466.3 248.871L466.306 248.88L468.126 247.52ZM468.126 416.8L469.946 418.16L469.953 418.151L468.126 416.8ZM368.286 386.72L366.347 387.903L366.351 387.911L366.356 387.918L368.286 386.72ZM436.126 386.4L434.201 385.193L434.194 385.205L434.187 385.217L436.126 386.4ZM436.126 277.28L434.187 278.463L434.194 278.475L434.201 278.487L436.126 277.28ZM402.206 448.48V446.208C374.925 446.208 353.641 435.946 338.097 415.428L336.286 416.8L334.475 418.172C350.931 439.894 373.594 450.752 402.206 450.752V448.48ZM336.286 416.8L338.113 415.449C322.697 394.617 314.878 366.871 314.878 332H312.606H310.334C310.334 367.529 318.302 396.317 334.46 418.151L336.286 416.8ZM312.606 332H314.878C314.878 297.127 322.697 269.494 338.106 248.88L336.286 247.52L334.466 246.16C318.302 267.786 310.334 296.473 310.334 332H312.606ZM336.286 247.52L338.104 248.883C353.651 228.153 374.935 217.792 402.206 217.792V215.52V213.248C373.585 213.248 350.921 224.22 334.469 246.157L336.286 247.52ZM402.206 215.52V217.792C429.697 217.792 450.971 228.157 466.3 248.871L468.126 247.52L469.953 246.169C453.708 224.216 431.035 213.248 402.206 213.248V215.52ZM468.126 247.52L466.306 248.88C481.715 269.494 489.534 297.127 489.534 332H491.806H494.078C494.078 296.473 486.111 267.786 469.946 246.16L468.126 247.52ZM491.806 332H489.534C489.534 366.871 481.716 394.617 466.3 415.449L468.126 416.8L469.953 418.151C486.11 396.317 494.078 367.529 494.078 332H491.806ZM468.126 416.8L466.306 415.44C450.982 435.942 429.707 446.208 402.206 446.208V448.48V450.752C431.026 450.752 453.698 439.898 469.946 418.16L468.126 416.8ZM368.286 386.72L366.356 387.918C374.463 400.98 386.511 407.552 402.206 407.552V405.28V403.008C388.034 403.008 377.469 397.207 370.217 385.522L368.286 386.72ZM402.206 405.28V407.552C417.919 407.552 429.967 400.857 438.066 387.583L436.126 386.4L434.187 385.217C426.926 397.117 416.36 403.008 402.206 403.008V405.28ZM436.126 386.4L438.051 387.607C446.269 374.503 450.238 355.876 450.238 332H447.966H445.694C445.694 355.484 441.771 373.123 434.201 385.193L436.126 386.4ZM447.966 332H450.238C450.238 307.915 446.27 289.179 438.051 276.073L436.126 277.28L434.201 278.487C441.769 290.554 445.694 308.298 445.694 332H447.966ZM436.126 277.28L438.066 276.097C429.967 262.823 417.919 256.128 402.206 256.128V258.4V260.672C416.36 260.672 426.926 266.563 434.187 278.463L436.126 277.28ZM402.206 258.4V256.128C386.493 256.128 374.446 262.823 366.347 276.097L368.286 277.28L370.226 278.463C377.487 266.563 388.053 260.672 402.206 260.672V258.4ZM368.286 277.28L366.347 276.097C358.353 289.197 354.494 307.923 354.494 332H356.766H359.038C359.038 308.291 362.859 290.536 370.226 278.463L368.286 277.28ZM356.766 332H354.494C354.494 356.077 358.353 374.803 366.347 387.903L368.286 386.72L370.226 385.537C362.859 373.464 359.038 355.709 359.038 332H356.766Z" fill="white" fill-opacity="0.53" mask="url(#path-8-outside-2_15770_52358)"/>
</g>
<rect x="185" y="303" width="298" height="66" rx="33" fill="#FFC847"/>
<path d="M256.824 343.336C254.952 343.336 253.416 342.808 252.216 341.752C251.016 340.696 250.416 339.28 250.416 337.504V326.2H253.704V337.24C253.704 338.12 253.952 338.816 254.448 339.328C254.96 339.84 255.752 340.096 256.824 340.096C257.896 340.096 258.68 339.84 259.176 339.328C259.688 338.816 259.944 338.12 259.944 337.24V326.2H263.256V337.504C263.256 339.28 262.656 340.696 261.456 341.752C260.256 342.808 258.712 343.336 256.824 343.336ZM273.08 330.664C274.696 330.664 276.072 331.28 277.208 332.512C278.36 333.728 278.936 335.224 278.936 337C278.936 338.776 278.36 340.28 277.208 341.512C276.072 342.728 274.696 343.336 273.08 343.336C271.4 343.336 270.104 342.752 269.192 341.584V347.8H266.096V331H269.192V332.416C270.104 331.248 271.4 330.664 273.08 330.664ZM270.128 339.448C270.752 340.072 271.544 340.384 272.504 340.384C273.464 340.384 274.256 340.072 274.88 339.448C275.52 338.808 275.84 337.992 275.84 337C275.84 336.008 275.52 335.2 274.88 334.576C274.256 333.936 273.464 333.616 272.504 333.616C271.544 333.616 270.752 333.936 270.128 334.576C269.504 335.2 269.192 336.008 269.192 337C269.192 337.992 269.504 338.808 270.128 339.448ZM293.983 333.976H291.271V338.968C291.271 339.384 291.375 339.688 291.583 339.88C291.791 340.072 292.095 340.184 292.495 340.216C292.895 340.232 293.391 340.224 293.983 340.192V343C291.855 343.24 290.351 343.04 289.471 342.4C288.607 341.76 288.175 340.616 288.175 338.968V333.976H286.087V331H288.175V328.576L291.271 327.64V331H293.983V333.976ZM306.015 341.512C304.783 342.728 303.279 343.336 301.503 343.336C299.727 343.336 298.223 342.728 296.991 341.512C295.775 340.28 295.167 338.776 295.167 337C295.167 335.224 295.775 333.728 296.991 332.512C298.223 331.28 299.727 330.664 301.503 330.664C303.279 330.664 304.783 331.28 306.015 332.512C307.247 333.728 307.863 335.224 307.863 337C307.863 338.776 307.247 340.28 306.015 341.512ZM299.175 339.376C299.799 340 300.575 340.312 301.503 340.312C302.431 340.312 303.207 340 303.831 339.376C304.455 338.752 304.767 337.96 304.767 337C304.767 336.04 304.455 335.248 303.831 334.624C303.207 334 302.431 333.688 301.503 333.688C300.575 333.688 299.799 334 299.175 334.624C298.567 335.248 298.263 336.04 298.263 337C298.263 337.96 298.567 338.752 299.175 339.376ZM314.937 326.2H325.785V329.008L320.097 343H316.593L322.113 329.368H314.937V326.2ZM333.013 343.336C330.917 343.336 329.269 342.544 328.069 340.96C326.885 339.36 326.293 337.24 326.293 334.6C326.293 331.96 326.885 329.848 328.069 328.264C329.269 326.664 330.917 325.864 333.013 325.864C335.125 325.864 336.773 326.664 337.957 328.264C339.141 329.848 339.733 331.96 339.733 334.6C339.733 337.24 339.141 339.36 337.957 340.96C336.773 342.544 335.125 343.336 333.013 343.336ZM330.469 338.704C331.045 339.632 331.893 340.096 333.013 340.096C334.133 340.096 334.981 339.624 335.557 338.68C336.149 337.736 336.445 336.376 336.445 334.6C336.445 332.808 336.149 331.44 335.557 330.496C334.981 329.552 334.133 329.08 333.013 329.08C331.893 329.08 331.045 329.552 330.469 330.496C329.893 331.44 329.605 332.808 329.605 334.6C329.605 336.392 329.893 337.76 330.469 338.704ZM348.118 332.656C347.35 333.408 346.39 333.784 345.238 333.784C344.086 333.784 343.118 333.4 342.334 332.632C341.566 331.864 341.182 330.928 341.182 329.824C341.182 328.72 341.566 327.784 342.334 327.016C343.118 326.248 344.086 325.864 345.238 325.864C346.39 325.864 347.35 326.248 348.118 327.016C348.886 327.768 349.27 328.704 349.27 329.824C349.27 330.944 348.886 331.888 348.118 332.656ZM342.886 340.456L353.83 328.288L355.294 329.104L344.326 341.296L342.886 340.456ZM344.134 330.928C344.422 331.216 344.782 331.36 345.214 331.36C345.646 331.36 346.006 331.216 346.294 330.928C346.582 330.624 346.726 330.256 346.726 329.824C346.726 329.392 346.582 329.032 346.294 328.744C346.006 328.456 345.646 328.312 345.214 328.312C344.782 328.312 344.422 328.456 344.134 328.744C343.862 329.032 343.726 329.392 343.726 329.824C343.726 330.256 343.862 330.624 344.134 330.928ZM356.23 342.136C355.462 342.904 354.502 343.288 353.35 343.288C352.198 343.288 351.238 342.904 350.47 342.136C349.702 341.368 349.318 340.432 349.318 339.328C349.318 338.224 349.702 337.288 350.47 336.52C351.238 335.752 352.198 335.368 353.35 335.368C354.502 335.368 355.462 335.752 356.23 336.52C356.998 337.288 357.382 338.224 357.382 339.328C357.382 340.432 356.998 341.368 356.23 342.136ZM352.27 340.432C352.558 340.72 352.918 340.864 353.35 340.864C353.782 340.864 354.134 340.712 354.406 340.408C354.694 340.104 354.838 339.744 354.838 339.328C354.838 338.896 354.694 338.536 354.406 338.248C354.134 337.944 353.782 337.792 353.35 337.792C352.918 337.792 352.558 337.944 352.27 338.248C351.998 338.536 351.862 338.896 351.862 339.328C351.862 339.76 351.998 340.128 352.27 340.432ZM372.685 326.2C374.989 326.2 376.909 327.008 378.445 328.624C379.997 330.24 380.773 332.232 380.773 334.6C380.773 336.968 379.997 338.96 378.445 340.576C376.909 342.192 374.989 343 372.685 343H366.013V326.2H372.685ZM372.685 339.832C374.141 339.832 375.325 339.352 376.237 338.392C377.149 337.416 377.605 336.152 377.605 334.6C377.605 333.048 377.149 331.792 376.237 330.832C375.325 329.856 374.141 329.368 372.685 329.368H369.325V339.832H372.685ZM384.515 329.56C384.003 329.56 383.555 329.376 383.171 329.008C382.803 328.624 382.619 328.176 382.619 327.664C382.619 327.152 382.803 326.704 383.171 326.32C383.555 325.936 384.003 325.744 384.515 325.744C385.043 325.744 385.491 325.936 385.859 326.32C386.243 326.704 386.435 327.152 386.435 327.664C386.435 328.176 386.243 328.624 385.859 329.008C385.491 329.376 385.043 329.56 384.515 329.56ZM382.979 343V331H386.075V343H382.979ZM391.67 334.408C391.67 334.728 391.878 334.992 392.294 335.2C392.726 335.392 393.246 335.568 393.854 335.728C394.462 335.872 395.07 336.064 395.678 336.304C396.286 336.528 396.798 336.912 397.214 337.456C397.646 338 397.862 338.68 397.862 339.496C397.862 340.728 397.398 341.68 396.47 342.352C395.558 343.008 394.414 343.336 393.038 343.336C390.574 343.336 388.894 342.384 387.998 340.48L390.686 338.968C391.038 340.008 391.822 340.528 393.038 340.528C394.142 340.528 394.694 340.184 394.694 339.496C394.694 339.176 394.478 338.92 394.046 338.728C393.63 338.52 393.118 338.336 392.51 338.176C391.902 338.016 391.294 337.816 390.686 337.576C390.078 337.336 389.558 336.96 389.126 336.448C388.71 335.92 388.502 335.264 388.502 334.48C388.502 333.296 388.934 332.368 389.798 331.696C390.678 331.008 391.766 330.664 393.062 330.664C394.038 330.664 394.926 330.888 395.726 331.336C396.526 331.768 397.158 332.392 397.622 333.208L394.982 334.648C394.598 333.832 393.958 333.424 393.062 333.424C392.662 333.424 392.326 333.512 392.054 333.688C391.798 333.864 391.67 334.104 391.67 334.408ZM405.401 343.336C403.593 343.336 402.081 342.728 400.865 341.512C399.665 340.296 399.065 338.792 399.065 337C399.065 335.208 399.665 333.704 400.865 332.488C402.081 331.272 403.593 330.664 405.401 330.664C406.569 330.664 407.633 330.944 408.593 331.504C409.553 332.064 410.281 332.816 410.777 333.76L408.113 335.32C407.873 334.824 407.505 334.432 407.009 334.144C406.529 333.856 405.985 333.712 405.377 333.712C404.449 333.712 403.681 334.024 403.073 334.648C402.465 335.256 402.161 336.04 402.161 337C402.161 337.944 402.465 338.728 403.073 339.352C403.681 339.96 404.449 340.264 405.377 340.264C406.001 340.264 406.553 340.128 407.033 339.856C407.529 339.568 407.897 339.176 408.137 338.68L410.825 340.216C410.297 341.16 409.553 341.92 408.593 342.496C407.633 343.056 406.569 343.336 405.401 343.336ZM422.499 341.512C421.267 342.728 419.763 343.336 417.987 343.336C416.211 343.336 414.707 342.728 413.475 341.512C412.259 340.28 411.651 338.776 411.651 337C411.651 335.224 412.259 333.728 413.475 332.512C414.707 331.28 416.211 330.664 417.987 330.664C419.763 330.664 421.267 331.28 422.499 332.512C423.731 333.728 424.347 335.224 424.347 337C424.347 338.776 423.731 340.28 422.499 341.512ZM415.659 339.376C416.283 340 417.059 340.312 417.987 340.312C418.915 340.312 419.691 340 420.315 339.376C420.939 338.752 421.251 337.96 421.251 337C421.251 336.04 420.939 335.248 420.315 334.624C419.691 334 418.915 333.688 417.987 333.688C417.059 333.688 416.283 334 415.659 334.624C415.051 335.248 414.747 336.04 414.747 337C414.747 337.96 415.051 338.752 415.659 339.376ZM434.445 331H437.541V343H434.445V341.656C433.693 342.776 432.501 343.336 430.869 343.336C429.557 343.336 428.469 342.896 427.605 342.016C426.757 341.136 426.333 339.92 426.333 338.368V331H429.429V337.984C429.429 338.784 429.645 339.4 430.077 339.832C430.509 340.248 431.085 340.456 431.805 340.456C432.605 340.456 433.245 340.208 433.725 339.712C434.205 339.216 434.445 338.472 434.445 337.48V331ZM447.049 330.664C448.361 330.664 449.441 331.104 450.289 331.984C451.153 332.864 451.585 334.08 451.585 335.632V343H448.489V336.016C448.489 335.216 448.273 334.608 447.841 334.192C447.409 333.76 446.833 333.544 446.113 333.544C445.313 333.544 444.673 333.792 444.193 334.288C443.713 334.784 443.473 335.528 443.473 336.52V343H440.377V331H443.473V332.344C444.225 331.224 445.417 330.664 447.049 330.664ZM461.093 333.976H458.381V338.968C458.381 339.384 458.485 339.688 458.693 339.88C458.901 340.072 459.205 340.184 459.605 340.216C460.005 340.232 460.501 340.224 461.093 340.192V343C458.965 343.24 457.461 343.04 456.581 342.4C455.717 341.76 455.285 340.616 455.285 338.968V333.976H453.197V331H455.285V328.576L458.381 327.64V331H461.093V333.976Z" fill="#121F3E"/>
<rect x="195" y="313" width="46" height="46" rx="23" fill="#30313E"/>
<path d="M224.402 334.614H221.054V326.814C221.054 324.994 220.069 324.625 218.866 325.99L217.999 326.976L210.665 335.318C209.658 336.455 210.08 337.387 211.597 337.387H214.944V345.187C214.944 347.007 215.93 347.375 217.133 346.01L217.999 345.024L225.334 336.683C226.341 335.545 225.919 334.614 224.402 334.614Z" fill="#AAB8C5"/>
<rect x="393.832" y="264" width="131" height="36" rx="18" transform="rotate(15.8494 393.832 264)" fill="#5D5F72"/>
<path d="M407.353 288.512L411.462 289.679L410.886 291.711L404.652 289.941L407.711 279.167L409.835 279.77L407.353 288.512ZM415.432 283.687C415.104 283.594 414.85 283.395 414.671 283.089C414.504 282.775 414.468 282.455 414.561 282.126C414.654 281.798 414.854 281.544 415.16 281.365C415.476 281.188 415.798 281.147 416.127 281.24C416.465 281.336 416.718 281.541 416.884 281.854C417.06 282.17 417.102 282.493 417.009 282.821C416.915 283.149 416.711 283.402 416.394 283.578C416.091 283.747 415.771 283.784 415.432 283.687ZM412 292.027L414.185 284.331L416.17 284.895L413.985 292.591L412 292.027ZM426.56 287.612C427.443 287.862 428.064 288.349 428.424 289.072C428.795 289.799 428.843 290.644 428.569 291.608L427.223 296.349L425.238 295.785L426.544 291.183C426.675 290.722 426.665 290.33 426.512 290.01C426.359 289.689 426.077 289.471 425.667 289.354C425.215 289.226 424.819 289.274 424.478 289.499C424.147 289.726 423.902 290.123 423.741 290.687L422.514 295.012L420.528 294.448L421.835 289.846C421.966 289.384 421.955 288.993 421.802 288.673C421.649 288.352 421.367 288.133 420.957 288.017C420.516 287.892 420.119 287.94 419.768 288.162C419.427 288.386 419.176 288.781 419.016 289.345L417.788 293.67L415.803 293.107L417.988 285.411L419.973 285.975L419.742 286.79C420.398 286.234 421.209 286.093 422.174 286.366C423.118 286.634 423.711 287.202 423.952 288.069C424.675 287.476 425.545 287.323 426.56 287.612ZM432.342 288.488C432.014 288.395 431.76 288.195 431.58 287.889C431.414 287.576 431.378 287.255 431.471 286.927C431.564 286.599 431.764 286.345 432.07 286.166C432.386 285.989 432.708 285.948 433.037 286.041C433.375 286.137 433.628 286.342 433.794 286.655C433.97 286.971 434.012 287.293 433.918 287.622C433.825 287.95 433.62 288.202 433.304 288.379C433.001 288.548 432.68 288.584 432.342 288.488ZM428.91 296.828L431.095 289.132L433.08 289.696L430.895 297.392L428.91 296.828ZM438.758 293.37L437.018 292.876L436.109 296.078C436.034 296.344 436.045 296.558 436.143 296.719C436.242 296.88 436.417 297.008 436.667 297.101C436.921 297.184 437.24 297.269 437.626 297.356L437.115 299.157C435.706 298.924 434.778 298.522 434.33 297.951C433.893 297.383 433.824 296.571 434.124 295.514L435.033 292.312L433.694 291.932L434.236 290.024L435.575 290.404L436.016 288.849L438.172 288.813L437.56 290.968L439.299 291.461L438.758 293.37ZM440.813 296.931C440.806 297.971 441.392 298.658 442.572 298.993C443.331 299.209 443.979 299.116 444.514 298.713L445.853 300.091C444.782 300.974 443.508 301.205 442.03 300.786C440.758 300.424 439.846 299.75 439.295 298.762C438.744 297.774 438.634 296.695 438.966 295.525C439.295 294.365 439.949 293.509 440.927 292.955C441.908 292.39 442.993 292.277 444.183 292.615C445.312 292.936 446.13 293.589 446.637 294.576C447.155 295.565 447.25 296.635 446.924 297.784C446.851 298.041 446.748 298.305 446.615 298.578L440.813 296.931ZM441.219 295.383L445.144 296.497C445.179 295.942 445.054 295.485 444.768 295.126C444.492 294.771 444.128 294.529 443.676 294.401C443.143 294.249 442.662 294.262 442.235 294.44C441.81 294.608 441.471 294.922 441.219 295.383ZM456.05 292.89L458.035 293.454L454.976 304.228L452.991 303.665L453.249 302.756C452.451 303.339 451.514 303.478 450.436 303.172C449.4 302.878 448.623 302.236 448.105 301.246C447.601 300.249 447.511 299.181 447.834 298.042C448.158 296.904 448.794 296.048 449.744 295.474C450.707 294.894 451.707 294.751 452.743 295.045C453.821 295.351 454.546 295.962 454.918 296.877L456.05 292.89ZM449.974 300.347C450.271 300.863 450.727 301.209 451.343 301.384C451.959 301.559 452.523 301.503 453.037 301.216C453.554 300.919 453.903 300.453 454.083 299.817C454.264 299.18 454.211 298.605 453.924 298.092C453.641 297.568 453.191 297.218 452.575 297.043C451.96 296.869 451.388 296.928 450.861 297.222C450.348 297.509 450 297.97 449.82 298.606C449.639 299.242 449.691 299.823 449.974 300.347ZM470.918 297.111L470.341 299.143L467.432 298.317L464.95 307.06L462.826 306.457L465.308 297.714L462.414 296.893L462.991 294.861L470.918 297.111ZM472.384 299.856C472.056 299.763 471.802 299.564 471.623 299.258C471.457 298.944 471.42 298.624 471.514 298.295C471.607 297.967 471.806 297.713 472.112 297.534C472.429 297.357 472.751 297.316 473.079 297.409C473.418 297.505 473.67 297.71 473.836 298.023C474.013 298.339 474.054 298.662 473.961 298.99C473.868 299.318 473.663 299.571 473.347 299.747C473.044 299.916 472.723 299.952 472.384 299.856ZM468.952 308.196L471.137 300.5L473.123 301.064L470.938 308.76L468.952 308.196ZM483.513 303.781C484.395 304.031 485.017 304.518 485.377 305.241C485.747 305.968 485.795 306.813 485.522 307.777L484.176 312.518L482.19 311.954L483.497 307.352C483.628 306.89 483.617 306.499 483.464 306.179C483.311 305.858 483.029 305.639 482.619 305.523C482.168 305.395 481.771 305.443 481.43 305.668C481.1 305.895 480.854 306.291 480.694 306.856L479.466 311.181L477.48 310.617L478.787 306.015C478.918 305.553 478.907 305.162 478.754 304.842C478.601 304.521 478.32 304.302 477.909 304.186C477.468 304.061 477.072 304.109 476.72 304.331C476.379 304.555 476.129 304.95 475.969 305.514L474.741 309.839L472.755 309.276L474.94 301.58L476.926 302.144L476.694 302.959C477.351 302.403 478.162 302.262 479.126 302.535C480.07 302.803 480.663 303.371 480.905 304.238C481.628 303.645 482.497 303.492 483.513 303.781ZM488.401 310.441C488.394 311.481 488.98 312.169 490.16 312.504C490.919 312.719 491.567 312.626 492.102 312.224L493.441 313.602C492.37 314.484 491.096 314.715 489.618 314.296C488.346 313.935 487.434 313.26 486.883 312.272C486.332 311.284 486.222 310.205 486.554 309.035C486.884 307.876 487.537 307.019 488.515 306.465C489.496 305.901 490.581 305.788 491.771 306.125C492.9 306.446 493.718 307.099 494.225 308.086C494.743 309.076 494.838 310.145 494.512 311.294C494.439 311.551 494.336 311.816 494.203 312.088L488.401 310.441ZM488.807 308.893L492.732 310.007C492.767 309.452 492.642 308.995 492.356 308.637C492.08 308.281 491.716 308.039 491.265 307.911C490.731 307.759 490.25 307.773 489.823 307.951C489.398 308.118 489.06 308.433 488.807 308.893ZM496.202 312.024L496.944 307.827L497.818 304.749L500.204 305.426L499.33 308.504L497.772 312.469L496.202 312.024ZM496.936 315.941C496.607 316.125 496.262 316.166 495.903 316.064C495.544 315.962 495.273 315.746 495.089 315.417C494.905 315.087 494.864 314.743 494.966 314.384C495.068 314.025 495.284 313.753 495.613 313.57C495.943 313.386 496.287 313.345 496.646 313.447C497.005 313.549 497.277 313.765 497.46 314.094C497.644 314.423 497.685 314.768 497.583 315.127C497.481 315.486 497.265 315.757 496.936 315.941Z" fill="#1E1F26"/>
</g>
<defs>
<filter id="filter0_d_15770_52358" x="146.979" y="220.248" width="375.039" height="277.383" filterUnits="userSpaceOnUse" color-interpolation-filters="sRGB">
<feFlood flood-opacity="0" result="BackgroundImageFix"/>
<feColorMatrix in="SourceAlpha" type="matrix" values="0 0 0 0 0 0 0 0 0 0 0 0 0 0 0 0 0 0 127 0" result="hardAlpha"/>
<feOffset dy="19.9393"/>
<feGaussianBlur stdDeviation="9.96967"/>
<feComposite in2="hardAlpha" operator="out"/>
<feColorMatrix type="matrix" values="0 0 0 0 0 0 0 0 0 0 0 0 0 0 0 0 0 0 0.1 0"/>
<feBlend mode="normal" in2="BackgroundImageFix" result="effect1_dropShadow_15770_52358"/>
<feBlend mode="normal" in="SourceGraphic" in2="effect1_dropShadow_15770_52358" result="shape"/>
</filter>
<filter id="filter1_d_15770_52358" x="138.979" y="213.248" width="375.039" height="277.383" filterUnits="userSpaceOnUse" color-interpolation-filters="sRGB">
<feFlood flood-opacity="0" result="BackgroundImageFix"/>
<feColorMatrix in="SourceAlpha" type="matrix" values="0 0 0 0 0 0 0 0 0 0 0 0 0 0 0 0 0 0 127 0" result="hardAlpha"/>
<feOffset dy="19.9393"/>
<feGaussianBlur stdDeviation="9.96967"/>
<feComposite in2="hardAlpha" operator="out"/>
<feColorMatrix type="matrix" values="0 0 0 0 0 0 0 0 0 0 0 0 0 0 0 0 0 0 0.1 0"/>
<feBlend mode="normal" in2="BackgroundImageFix" result="effect1_dropShadow_15770_52358"/>
<feBlend mode="normal" in="SourceGraphic" in2="effect1_dropShadow_15770_52358" result="shape"/>
</filter>
<linearGradient id="paint0_linear_15770_52358" x1="338" y1="227" x2="338" y2="451" gradientUnits="userSpaceOnUse">
<stop stop-color="white"/>
<stop offset="1" stop-color="white" stop-opacity="0.5"/>
</linearGradient>
<linearGradient id="paint1_linear_15770_52358" x1="330" y1="220" x2="330" y2="444" gradientUnits="userSpaceOnUse">
<stop stop-color="white"/>
<stop offset="1" stop-color="white" stop-opacity="0.5"/>
</linearGradient>
<clipPath id="clip0_15770_52358">
<rect width="668" height="672" fill="white"/>
</clipPath>
</defs>
</svg>
